%TF.GenerationSoftware,KiCad,Pcbnew,9.0.4*%
%TF.CreationDate,2026-03-05T19:36:07-05:00*%
%TF.ProjectId,seedsigner-luckfox-pico-mini,73656564-7369-4676-9e65-722d6c75636b,sdfsdf*%
%TF.SameCoordinates,Original*%
%TF.FileFunction,Copper,L3,Inr*%
%TF.FilePolarity,Positive*%
%FSLAX46Y46*%
G04 Gerber Fmt 4.6, Leading zero omitted, Abs format (unit mm)*
G04 Created by KiCad (PCBNEW 9.0.4) date 2026-03-05 19:36:07*
%MOMM*%
%LPD*%
G01*
G04 APERTURE LIST*
G04 Aperture macros list*
%AMFreePoly0*
4,1,33,0.221197,0.729189,0.359204,0.672024,0.483408,0.589034,0.589034,0.483408,0.672024,0.359204,0.729189,0.221197,0.758331,0.074689,0.758331,-0.074689,0.729189,-0.221197,0.672024,-0.359204,0.589034,-0.483408,0.483408,-0.589034,0.359204,-0.672024,0.221197,-0.729189,0.074689,-0.758331,-0.074689,-0.758331,-0.221197,-0.729189,-0.359204,-0.672024,-0.483408,-0.589034,-0.589034,-0.483408,
-0.672024,-0.359204,-0.729189,-0.221197,-0.758331,-0.074689,-0.758331,0.074689,-0.729189,0.221197,-0.672024,0.359204,-0.589034,0.483408,-0.483408,0.589034,-0.359204,0.672024,-0.221197,0.729189,-0.074689,0.758331,0.074689,0.758331,0.221197,0.729189,0.221197,0.729189,$1*%
G04 Aperture macros list end*
%TA.AperFunction,ComponentPad*%
%ADD10C,1.524000*%
%TD*%
%TA.AperFunction,ComponentPad*%
%ADD11FreePoly0,90.000000*%
%TD*%
%TA.AperFunction,WasherPad*%
%ADD12C,3.500000*%
%TD*%
%TA.AperFunction,ComponentPad*%
%ADD13R,1.700000X1.700000*%
%TD*%
%TA.AperFunction,ComponentPad*%
%ADD14O,1.700000X1.700000*%
%TD*%
%TA.AperFunction,ViaPad*%
%ADD15C,0.500000*%
%TD*%
%TA.AperFunction,Conductor*%
%ADD16C,0.200000*%
%TD*%
G04 APERTURE END LIST*
D10*
%TO.N,+5V*%
%TO.C,U1*%
X9550000Y-49750000D03*
%TO.N,GND*%
X12090000Y-49750000D03*
%TO.N,+3.3V*%
X14630000Y-49750000D03*
%TO.N,/UART_TXD*%
X17170000Y-49750000D03*
%TO.N,/UART_RXD*%
X19710000Y-49750000D03*
%TO.N,Net-(JP5-B)*%
X22250000Y-49750000D03*
%TO.N,/SPI_SCLK*%
X24790000Y-49750000D03*
%TO.N,/SPI_MOSI*%
X27330000Y-49750000D03*
%TO.N,/RST*%
X29870000Y-49750000D03*
%TO.N,/DC*%
X32410000Y-49750000D03*
%TO.N,/KEY3*%
X34950000Y-49750000D03*
%TO.N,/JOYSTICK_LEFT*%
X34950000Y-31970000D03*
%TO.N,/JOYSTICK_UP*%
X32410000Y-31970000D03*
%TO.N,/I2C-SDA*%
X29870000Y-31970000D03*
%TO.N,/I2C-SCL*%
X27330000Y-31970000D03*
%TO.N,/JOYSTICK_PRESS*%
X24790000Y-31970000D03*
%TO.N,/JOYSTICK_DOWN*%
X22250000Y-31970000D03*
%TO.N,/JOYSTICK_RIGHT*%
X19710000Y-31970000D03*
%TO.N,/KEY1*%
X17170000Y-31970000D03*
%TO.N,/KEY2*%
X14630000Y-31970000D03*
%TO.N,GND*%
X12090000Y-31970000D03*
D11*
%TO.N,unconnected-(U1-1V8(OUT)-Pad22)*%
X9550000Y-31970000D03*
%TD*%
D12*
%TO.N,*%
%TO.C,U2*%
X70000000Y-55500000D03*
X12000000Y-55500000D03*
D13*
%TO.N,+3.3V*%
X65240000Y-52960000D03*
D14*
%TO.N,+5V*%
X65240000Y-55500000D03*
%TO.N,/I2C-SDA*%
X62700000Y-52960000D03*
%TO.N,+5V*%
X62700000Y-55500000D03*
%TO.N,/I2C-SCL*%
X60160000Y-52960000D03*
%TO.N,GND*%
X60160000Y-55500000D03*
%TO.N,N/C*%
X57620000Y-52960000D03*
%TO.N,/UART_TXD*%
X57620000Y-55500000D03*
%TO.N,GND*%
X55080000Y-52960000D03*
%TO.N,/UART_RXD*%
X55080000Y-55500000D03*
%TO.N,N/C*%
X52540000Y-52960000D03*
X52540000Y-55500000D03*
%TO.N,/RST*%
X50000000Y-52960000D03*
%TO.N,GND*%
X50000000Y-55500000D03*
%TO.N,N/C*%
X47460000Y-52960000D03*
X47460000Y-55500000D03*
%TO.N,+3.3V*%
X44920000Y-52960000D03*
%TO.N,/BACKLIGHT*%
X44920000Y-55500000D03*
%TO.N,/SPI_MOSI*%
X42380000Y-52960000D03*
%TO.N,GND*%
X42380000Y-55500000D03*
%TO.N,N/C*%
X39840000Y-52960000D03*
%TO.N,/DC*%
X39840000Y-55500000D03*
%TO.N,/SPI_SCLK*%
X37300000Y-52960000D03*
%TO.N,/SPI_CS*%
X37300000Y-55500000D03*
%TO.N,GND*%
X34760000Y-52960000D03*
%TO.N,N/C*%
X34760000Y-55500000D03*
X32220000Y-52960000D03*
X32220000Y-55500000D03*
%TO.N,/JOYSTICK_LEFT*%
X29680000Y-52960000D03*
%TO.N,GND*%
X29680000Y-55500000D03*
%TO.N,/JOYSTICK_UP*%
X27140000Y-52960000D03*
%TO.N,N/C*%
X27140000Y-55500000D03*
%TO.N,/JOYSTICK_PRESS*%
X24600000Y-52960000D03*
%TO.N,GND*%
X24600000Y-55500000D03*
%TO.N,/JOYSTICK_DOWN*%
X22060000Y-52960000D03*
%TO.N,/KEY3*%
X22060000Y-55500000D03*
%TO.N,/JOYSTICK_RIGHT*%
X19520000Y-52960000D03*
%TO.N,/KEY2*%
X19520000Y-55500000D03*
%TO.N,GND*%
X16980000Y-52960000D03*
%TO.N,/KEY1*%
X16980000Y-55500000D03*
%TD*%
D15*
%TO.N,GND*%
X58825000Y-56575000D03*
X47275000Y-44925000D03*
X15300000Y-56925000D03*
X33400000Y-32675000D03*
X37050000Y-31450000D03*
X33475000Y-56375000D03*
X52520000Y-49810000D03*
X38500000Y-49000000D03*
X62725000Y-51475000D03*
X25900000Y-50400000D03*
X31120000Y-56390000D03*
X51880000Y-51710000D03*
X43575000Y-48875000D03*
X44700000Y-50025000D03*
X36025000Y-32750000D03*
X47060000Y-37160000D03*
X38525000Y-56350000D03*
X61420000Y-54920000D03*
X36100000Y-56400000D03*
X33500000Y-50400000D03*
X47200000Y-50325000D03*
X53725000Y-52050000D03*
X41600000Y-32990000D03*
X18280000Y-29700000D03*
X28375000Y-32675000D03*
X39680000Y-48800000D03*
X51275000Y-56025000D03*
X45850000Y-31500000D03*
X42760000Y-41180000D03*
X38570000Y-33220000D03*
X18500000Y-32700000D03*
X64025000Y-57075000D03*
X43319000Y-53850000D03*
X23175000Y-56575000D03*
X43875000Y-31125000D03*
X43782156Y-56700001D03*
X61500000Y-56675000D03*
X41200000Y-51225000D03*
X23320000Y-55020000D03*
X46250000Y-29500000D03*
X28400000Y-50400000D03*
X45800000Y-56600000D03*
X14275000Y-52225000D03*
X25800000Y-32625000D03*
X41700000Y-48600000D03*
X41350000Y-56300000D03*
X18410000Y-48880000D03*
X10720000Y-49120000D03*
X50830083Y-54748842D03*
X59000000Y-54810000D03*
X25825000Y-56525000D03*
X39660000Y-33340000D03*
X20873554Y-31373554D03*
X42625000Y-38775000D03*
X56500000Y-43950000D03*
X23350000Y-31450000D03*
X10400000Y-52675000D03*
X15750000Y-54425000D03*
X27770000Y-56660000D03*
X48750000Y-51950000D03*
X53775000Y-53725000D03*
X56775000Y-50375000D03*
X11125000Y-29850000D03*
X56450000Y-37950000D03*
X56725000Y-48100000D03*
X13520000Y-57750000D03*
X56300000Y-54325000D03*
X43625000Y-32700000D03*
X47375000Y-40000000D03*
X30850000Y-32675000D03*
X50210000Y-50120000D03*
X49920000Y-41870000D03*
X42650000Y-44550000D03*
X30960000Y-53630000D03*
X65450000Y-29625000D03*
X18400000Y-56825000D03*
X47110000Y-38360000D03*
X56175000Y-30150000D03*
X45775000Y-51175000D03*
X66875000Y-51075000D03*
%TO.N,/JOYSTICK_DOWN*%
X23830000Y-51170000D03*
%TO.N,Net-(JP5-B)*%
X54375000Y-36400000D03*
%TD*%
D16*
%TO.N,GND*%
X25701000Y-54399000D02*
X24600000Y-55500000D01*
X30781000Y-54399000D02*
X33321000Y-54399000D01*
X29680000Y-55500000D02*
X28579000Y-54399000D01*
X29680000Y-55500000D02*
X30781000Y-54399000D01*
X28579000Y-54399000D02*
X25701000Y-54399000D01*
X33321000Y-54399000D02*
X34760000Y-52960000D01*
%TO.N,/JOYSTICK_RIGHT*%
X44325000Y-49125000D02*
X44325000Y-32600000D01*
X44325000Y-32600000D02*
X42150000Y-30425000D01*
X20177370Y-30425000D02*
X19710000Y-30892370D01*
X42150000Y-30425000D02*
X20177370Y-30425000D01*
X41700000Y-51750000D02*
X44325000Y-49125000D01*
X20730000Y-51750000D02*
X41700000Y-51750000D01*
X19710000Y-30892370D02*
X19710000Y-31970000D01*
X19520000Y-52960000D02*
X20730000Y-51750000D01*
%TO.N,/JOYSTICK_DOWN*%
X23830000Y-51170000D02*
X24075000Y-50925000D01*
X24075000Y-50925000D02*
X40500000Y-50925000D01*
X40949000Y-30949000D02*
X23142479Y-30949000D01*
X40500000Y-50925000D02*
X43275000Y-48150000D01*
X23142479Y-30949000D02*
X22250000Y-31841479D01*
X43275000Y-33275000D02*
X40949000Y-30949000D01*
X43275000Y-48150000D02*
X43275000Y-33275000D01*
X22250000Y-31841479D02*
X22250000Y-31970000D01*
%TO.N,/KEY2*%
X21919000Y-57899000D02*
X45450000Y-57899000D01*
X17450000Y-29150000D02*
X14630000Y-31970000D01*
X46359000Y-56990000D02*
X46359000Y-31284000D01*
X19520000Y-55500000D02*
X21919000Y-57899000D01*
X44225000Y-29150000D02*
X17450000Y-29150000D01*
X45450000Y-57899000D02*
X46359000Y-56990000D01*
X46359000Y-31284000D02*
X44225000Y-29150000D01*
%TO.N,/KEY1*%
X43386612Y-29761612D02*
X19378388Y-29761612D01*
X20621000Y-55956050D02*
X22114950Y-57450000D01*
X16980000Y-55500000D02*
X18081000Y-54399000D01*
X19378388Y-29761612D02*
X17170000Y-31970000D01*
X45400000Y-50825000D02*
X45400000Y-31775000D01*
X18081000Y-54399000D02*
X19976050Y-54399000D01*
X19976050Y-54399000D02*
X20621000Y-55043950D01*
X45400000Y-31775000D02*
X43386612Y-29761612D01*
X42325050Y-57450000D02*
X43765831Y-56009219D01*
X43819000Y-52406000D02*
X45400000Y-50825000D01*
X22114950Y-57450000D02*
X42325050Y-57450000D01*
X43819000Y-55956050D02*
X43819000Y-52406000D01*
X20621000Y-55043950D02*
X20621000Y-55956050D01*
%TD*%
%TA.AperFunction,Conductor*%
%TO.N,GND*%
G36*
X11267087Y-48572468D02*
G01*
X11334112Y-48592200D01*
X11379829Y-48645037D01*
X11388660Y-48695108D01*
X11960590Y-49267037D01*
X11897007Y-49284075D01*
X11782993Y-49349901D01*
X11689901Y-49442993D01*
X11624075Y-49557007D01*
X11607037Y-49620590D01*
X11037730Y-49051282D01*
X11037729Y-49051283D01*
X11010643Y-49088564D01*
X10920457Y-49265562D01*
X10859075Y-49454476D01*
X10859075Y-49454479D01*
X10828000Y-49650678D01*
X10828000Y-49849321D01*
X10859075Y-50045520D01*
X10859075Y-50045523D01*
X10920457Y-50234437D01*
X11010641Y-50411432D01*
X11037730Y-50448715D01*
X11037731Y-50448716D01*
X11607037Y-49879409D01*
X11624075Y-49942993D01*
X11689901Y-50057007D01*
X11782993Y-50150099D01*
X11897007Y-50215925D01*
X11960590Y-50232962D01*
X11391283Y-50802268D01*
X11391283Y-50802269D01*
X11428567Y-50829358D01*
X11605562Y-50919542D01*
X11794477Y-50980924D01*
X11990679Y-51012000D01*
X12189321Y-51012000D01*
X12385520Y-50980924D01*
X12385523Y-50980924D01*
X12574437Y-50919542D01*
X12751425Y-50829362D01*
X12788716Y-50802268D01*
X12219410Y-50232962D01*
X12282993Y-50215925D01*
X12397007Y-50150099D01*
X12490099Y-50057007D01*
X12555925Y-49942993D01*
X12572962Y-49879409D01*
X13142268Y-50448715D01*
X13169362Y-50411425D01*
X13259542Y-50234437D01*
X13320924Y-50045523D01*
X13320924Y-50045520D01*
X13352000Y-49849321D01*
X13352000Y-49650678D01*
X13320924Y-49454479D01*
X13320924Y-49454476D01*
X13259542Y-49265562D01*
X13169358Y-49088567D01*
X13142268Y-49051283D01*
X12572962Y-49620589D01*
X12555925Y-49557007D01*
X12490099Y-49442993D01*
X12397007Y-49349901D01*
X12282993Y-49284075D01*
X12219409Y-49267037D01*
X12792238Y-48694208D01*
X12803838Y-48638990D01*
X12852889Y-48589233D01*
X12913175Y-48573639D01*
X14346329Y-48574658D01*
X14413351Y-48594389D01*
X14459068Y-48647226D01*
X14468962Y-48716391D01*
X14439892Y-48779926D01*
X14381087Y-48817659D01*
X14370431Y-48820274D01*
X14349252Y-48824487D01*
X14349248Y-48824488D01*
X14174087Y-48897042D01*
X14016441Y-49002377D01*
X13882377Y-49136441D01*
X13777042Y-49294087D01*
X13704488Y-49469248D01*
X13704486Y-49469256D01*
X13667500Y-49655197D01*
X13667500Y-49844802D01*
X13704486Y-50030743D01*
X13704488Y-50030751D01*
X13777042Y-50205912D01*
X13882377Y-50363558D01*
X14016441Y-50497622D01*
X14111358Y-50561043D01*
X14174085Y-50602956D01*
X14349249Y-50675512D01*
X14535197Y-50712499D01*
X14535201Y-50712500D01*
X14535202Y-50712500D01*
X14724799Y-50712500D01*
X14724800Y-50712499D01*
X14910751Y-50675512D01*
X15085915Y-50602956D01*
X15243558Y-50497622D01*
X15377622Y-50363558D01*
X15482956Y-50205915D01*
X15555512Y-50030751D01*
X15592500Y-49844798D01*
X15592500Y-49655202D01*
X15592499Y-49655199D01*
X15592499Y-49655197D01*
X15555513Y-49469256D01*
X15555512Y-49469249D01*
X15482956Y-49294085D01*
X15447478Y-49240988D01*
X15377622Y-49136441D01*
X15243558Y-49002377D01*
X15085912Y-48897042D01*
X14910751Y-48824488D01*
X14910749Y-48824487D01*
X14891604Y-48820679D01*
X14829694Y-48788292D01*
X14795122Y-48727575D01*
X14798863Y-48657806D01*
X14839731Y-48601135D01*
X14904750Y-48575555D01*
X14915855Y-48575063D01*
X16877279Y-48576458D01*
X16944301Y-48596189D01*
X16990018Y-48649026D01*
X16999912Y-48718191D01*
X16970842Y-48781726D01*
X16912037Y-48819459D01*
X16901384Y-48822073D01*
X16889257Y-48824485D01*
X16889248Y-48824488D01*
X16714087Y-48897042D01*
X16556441Y-49002377D01*
X16422377Y-49136441D01*
X16317042Y-49294087D01*
X16244488Y-49469248D01*
X16244486Y-49469256D01*
X16207500Y-49655197D01*
X16207500Y-49844802D01*
X16244486Y-50030743D01*
X16244488Y-50030751D01*
X16317042Y-50205912D01*
X16422377Y-50363558D01*
X16556441Y-50497622D01*
X16651358Y-50561043D01*
X16714085Y-50602956D01*
X16889249Y-50675512D01*
X17075197Y-50712499D01*
X17075201Y-50712500D01*
X17075202Y-50712500D01*
X17264799Y-50712500D01*
X17264800Y-50712499D01*
X17450751Y-50675512D01*
X17625915Y-50602956D01*
X17783558Y-50497622D01*
X17917622Y-50363558D01*
X18022956Y-50205915D01*
X18095512Y-50030751D01*
X18132500Y-49844798D01*
X18132500Y-49655202D01*
X18132499Y-49655199D01*
X18132499Y-49655197D01*
X18095513Y-49469256D01*
X18095512Y-49469249D01*
X18022956Y-49294085D01*
X17987478Y-49240988D01*
X17917622Y-49136441D01*
X17783558Y-49002377D01*
X17625912Y-48897042D01*
X17450751Y-48824488D01*
X17450741Y-48824485D01*
X17440717Y-48822491D01*
X17378807Y-48790104D01*
X17344236Y-48729387D01*
X17347978Y-48659618D01*
X17388846Y-48602947D01*
X17453865Y-48577368D01*
X17464971Y-48576876D01*
X19408229Y-48578258D01*
X19475251Y-48597989D01*
X19520968Y-48650826D01*
X19530862Y-48719991D01*
X19501792Y-48783526D01*
X19442987Y-48821259D01*
X19432342Y-48823872D01*
X19429255Y-48824486D01*
X19429248Y-48824488D01*
X19254087Y-48897042D01*
X19096441Y-49002377D01*
X18962377Y-49136441D01*
X18857042Y-49294087D01*
X18784488Y-49469248D01*
X18784486Y-49469256D01*
X18747500Y-49655197D01*
X18747500Y-49844802D01*
X18784486Y-50030743D01*
X18784488Y-50030751D01*
X18857042Y-50205912D01*
X18962377Y-50363558D01*
X19096441Y-50497622D01*
X19191358Y-50561043D01*
X19254085Y-50602956D01*
X19429249Y-50675512D01*
X19615197Y-50712499D01*
X19615201Y-50712500D01*
X19615202Y-50712500D01*
X19804799Y-50712500D01*
X19804800Y-50712499D01*
X19990751Y-50675512D01*
X20165915Y-50602956D01*
X20323558Y-50497622D01*
X20457622Y-50363558D01*
X20562956Y-50205915D01*
X20635512Y-50030751D01*
X20672500Y-49844798D01*
X20672500Y-49655202D01*
X20672499Y-49655199D01*
X20672499Y-49655197D01*
X20635513Y-49469256D01*
X20635512Y-49469249D01*
X20562956Y-49294085D01*
X20527478Y-49240988D01*
X20457622Y-49136441D01*
X20323558Y-49002377D01*
X20165912Y-48897042D01*
X19990751Y-48824488D01*
X19990741Y-48824485D01*
X19989825Y-48824303D01*
X19989389Y-48824075D01*
X19984919Y-48822719D01*
X19985176Y-48821870D01*
X19927917Y-48791912D01*
X19893349Y-48731193D01*
X19897095Y-48661424D01*
X19937967Y-48604756D01*
X20002988Y-48579180D01*
X20014087Y-48578689D01*
X21939180Y-48580058D01*
X21950667Y-48583440D01*
X21962591Y-48582305D01*
X21983561Y-48593123D01*
X22006202Y-48599789D01*
X22014040Y-48608847D01*
X22024684Y-48614339D01*
X22036477Y-48634779D01*
X22051919Y-48652626D01*
X22053615Y-48664483D01*
X22059601Y-48674858D01*
X22058471Y-48698429D01*
X22061813Y-48721791D01*
X22056829Y-48732682D01*
X22056256Y-48744648D01*
X22042560Y-48763868D01*
X22032743Y-48785326D01*
X22021647Y-48793218D01*
X22015711Y-48801550D01*
X21985140Y-48819188D01*
X21985135Y-48819190D01*
X21975081Y-48822719D01*
X21969248Y-48824488D01*
X21794087Y-48897042D01*
X21636441Y-49002377D01*
X21502377Y-49136441D01*
X21397042Y-49294087D01*
X21324488Y-49469248D01*
X21324486Y-49469256D01*
X21287500Y-49655197D01*
X21287500Y-49844802D01*
X21324486Y-50030743D01*
X21324488Y-50030751D01*
X21397042Y-50205912D01*
X21502377Y-50363558D01*
X21636441Y-50497622D01*
X21731358Y-50561043D01*
X21794085Y-50602956D01*
X21969249Y-50675512D01*
X22155197Y-50712499D01*
X22155201Y-50712500D01*
X22155202Y-50712500D01*
X22344799Y-50712500D01*
X22344800Y-50712499D01*
X22530751Y-50675512D01*
X22705915Y-50602956D01*
X22863558Y-50497622D01*
X22997622Y-50363558D01*
X23102956Y-50205915D01*
X23175512Y-50030751D01*
X23212500Y-49844798D01*
X23212500Y-49655202D01*
X23212499Y-49655199D01*
X23212499Y-49655197D01*
X23175513Y-49469256D01*
X23175512Y-49469249D01*
X23102956Y-49294085D01*
X23067478Y-49240988D01*
X22997622Y-49136441D01*
X22863558Y-49002377D01*
X22705912Y-48897042D01*
X22530751Y-48824488D01*
X22526376Y-48823161D01*
X22467938Y-48784862D01*
X22439483Y-48721049D01*
X22450045Y-48651982D01*
X22496271Y-48599590D01*
X22562459Y-48580501D01*
X24473235Y-48581860D01*
X24540259Y-48601592D01*
X24585976Y-48654429D01*
X24595870Y-48723594D01*
X24566800Y-48787129D01*
X24514435Y-48821090D01*
X24514877Y-48822157D01*
X24509249Y-48824487D01*
X24509249Y-48824488D01*
X24500500Y-48828112D01*
X24334087Y-48897042D01*
X24176441Y-49002377D01*
X24042377Y-49136441D01*
X23937042Y-49294087D01*
X23864488Y-49469248D01*
X23864486Y-49469256D01*
X23827500Y-49655197D01*
X23827500Y-49844802D01*
X23864486Y-50030743D01*
X23864488Y-50030751D01*
X23937042Y-50205912D01*
X24042377Y-50363558D01*
X24094840Y-50416021D01*
X24111027Y-50445665D01*
X24127793Y-50475008D01*
X24127728Y-50476251D01*
X24128325Y-50477344D01*
X24125913Y-50511060D01*
X24124156Y-50544783D01*
X24123429Y-50545793D01*
X24123341Y-50547036D01*
X24103086Y-50574092D01*
X24083373Y-50601515D01*
X24082073Y-50602162D01*
X24081469Y-50602969D01*
X24052729Y-50619025D01*
X24038874Y-50624500D01*
X24035438Y-50624500D01*
X23959011Y-50644979D01*
X23906126Y-50675512D01*
X23898204Y-50680086D01*
X23890489Y-50684539D01*
X23884044Y-50689486D01*
X23882938Y-50688045D01*
X23830525Y-50716666D01*
X23804167Y-50719500D01*
X23770691Y-50719500D01*
X23656114Y-50750201D01*
X23656112Y-50750201D01*
X23656112Y-50750202D01*
X23553387Y-50809511D01*
X23553384Y-50809513D01*
X23469513Y-50893384D01*
X23469511Y-50893387D01*
X23410201Y-50996114D01*
X23379500Y-51110691D01*
X23379500Y-51110693D01*
X23379500Y-51229308D01*
X23396675Y-51293407D01*
X23395012Y-51363257D01*
X23355849Y-51421119D01*
X23291621Y-51448623D01*
X23276900Y-51449500D01*
X20690438Y-51449500D01*
X20659867Y-51457691D01*
X20614008Y-51469979D01*
X20614007Y-51469980D01*
X20567879Y-51496613D01*
X20567878Y-51496614D01*
X20545490Y-51509539D01*
X20545487Y-51509541D01*
X20082104Y-51972923D01*
X20020781Y-52006408D01*
X19951089Y-52001424D01*
X19946971Y-51999803D01*
X19826424Y-51949871D01*
X19826412Y-51949868D01*
X19623469Y-51909500D01*
X19623465Y-51909500D01*
X19416535Y-51909500D01*
X19416530Y-51909500D01*
X19213587Y-51949868D01*
X19213579Y-51949870D01*
X19022403Y-52029058D01*
X18850342Y-52144024D01*
X18704024Y-52290342D01*
X18589057Y-52462403D01*
X18520835Y-52627108D01*
X18476994Y-52681511D01*
X18410700Y-52703576D01*
X18343000Y-52686297D01*
X18295390Y-52635159D01*
X18288343Y-52617973D01*
X18231095Y-52441782D01*
X18134620Y-52252442D01*
X18009727Y-52080540D01*
X18009723Y-52080535D01*
X17859464Y-51930276D01*
X17859459Y-51930272D01*
X17687557Y-51805379D01*
X17498215Y-51708903D01*
X17296124Y-51643241D01*
X17230000Y-51632768D01*
X17230000Y-52526988D01*
X17172993Y-52494075D01*
X17045826Y-52460000D01*
X16914174Y-52460000D01*
X16787007Y-52494075D01*
X16730000Y-52526988D01*
X16730000Y-51632768D01*
X16729999Y-51632768D01*
X16663875Y-51643241D01*
X16461784Y-51708903D01*
X16272442Y-51805379D01*
X16100540Y-51930272D01*
X16100535Y-51930276D01*
X15950276Y-52080535D01*
X15950272Y-52080540D01*
X15825379Y-52252442D01*
X15728904Y-52441782D01*
X15663242Y-52643870D01*
X15663242Y-52643873D01*
X15652769Y-52710000D01*
X16546988Y-52710000D01*
X16514075Y-52767007D01*
X16480000Y-52894174D01*
X16480000Y-53025826D01*
X16514075Y-53152993D01*
X16546988Y-53210000D01*
X15652769Y-53210000D01*
X15663242Y-53276126D01*
X15663242Y-53276129D01*
X15728904Y-53478217D01*
X15825379Y-53667557D01*
X15950272Y-53839459D01*
X15950276Y-53839464D01*
X16100535Y-53989723D01*
X16100540Y-53989727D01*
X16272442Y-54114620D01*
X16461782Y-54211095D01*
X16637973Y-54268343D01*
X16695648Y-54307780D01*
X16722847Y-54372139D01*
X16710932Y-54440985D01*
X16663688Y-54492461D01*
X16647108Y-54500835D01*
X16482403Y-54569057D01*
X16310342Y-54684024D01*
X16164024Y-54830342D01*
X16049058Y-55002403D01*
X15969870Y-55193579D01*
X15969868Y-55193587D01*
X15929500Y-55396530D01*
X15929500Y-55603469D01*
X15969868Y-55806412D01*
X15969870Y-55806420D01*
X16035939Y-55965925D01*
X16049059Y-55997598D01*
X16092713Y-56062931D01*
X16164024Y-56169657D01*
X16310342Y-56315975D01*
X16310345Y-56315977D01*
X16482402Y-56430941D01*
X16673580Y-56510130D01*
X16876530Y-56550499D01*
X16876534Y-56550500D01*
X16876535Y-56550500D01*
X17083466Y-56550500D01*
X17083467Y-56550499D01*
X17286420Y-56510130D01*
X17477598Y-56430941D01*
X17649655Y-56315977D01*
X17795977Y-56169655D01*
X17910941Y-55997598D01*
X17990130Y-55806420D01*
X18030500Y-55603465D01*
X18030500Y-55396535D01*
X17990130Y-55193580D01*
X17940194Y-55073026D01*
X17932726Y-55003559D01*
X17964001Y-54941080D01*
X17967015Y-54937955D01*
X18169153Y-54735816D01*
X18230476Y-54702334D01*
X18256833Y-54699500D01*
X18559463Y-54699500D01*
X18626502Y-54719185D01*
X18672257Y-54771989D01*
X18682201Y-54841147D01*
X18662566Y-54892390D01*
X18589058Y-55002403D01*
X18509870Y-55193579D01*
X18509868Y-55193587D01*
X18469500Y-55396530D01*
X18469500Y-55603469D01*
X18509868Y-55806412D01*
X18509870Y-55806420D01*
X18575939Y-55965925D01*
X18589059Y-55997598D01*
X18632713Y-56062931D01*
X18704024Y-56169657D01*
X18850342Y-56315975D01*
X18850345Y-56315977D01*
X19022402Y-56430941D01*
X19213580Y-56510130D01*
X19416530Y-56550499D01*
X19416534Y-56550500D01*
X19416535Y-56550500D01*
X19623466Y-56550500D01*
X19623467Y-56550499D01*
X19826420Y-56510130D01*
X19946974Y-56460194D01*
X20016438Y-56452726D01*
X20078918Y-56484000D01*
X20082104Y-56487075D01*
X21682848Y-58087819D01*
X21716333Y-58149142D01*
X21711349Y-58218834D01*
X21669477Y-58274767D01*
X21604013Y-58299184D01*
X21595167Y-58299500D01*
X11503481Y-58299500D01*
X11496528Y-58299305D01*
X11193506Y-58282287D01*
X11179688Y-58280730D01*
X10883920Y-58230477D01*
X10870363Y-58227383D01*
X10582072Y-58144327D01*
X10568948Y-58139734D01*
X10291777Y-58024927D01*
X10279248Y-58018894D01*
X10016671Y-57873772D01*
X10004897Y-57866374D01*
X9760214Y-57692763D01*
X9749342Y-57684092D01*
X9525647Y-57484184D01*
X9515815Y-57474352D01*
X9318094Y-57253104D01*
X9315904Y-57250653D01*
X9307236Y-57239785D01*
X9260920Y-57174509D01*
X9174725Y-57053027D01*
X9133625Y-56995102D01*
X9126227Y-56983328D01*
X9065142Y-56872803D01*
X8981101Y-56720744D01*
X8975072Y-56708222D01*
X8860265Y-56431051D01*
X8855672Y-56417927D01*
X8784145Y-56169655D01*
X8772615Y-56129634D01*
X8769522Y-56116079D01*
X8752895Y-56018217D01*
X8719267Y-55820301D01*
X8717713Y-55806503D01*
X8700695Y-55503472D01*
X8700500Y-55496519D01*
X8700500Y-55372149D01*
X10049500Y-55372149D01*
X10049500Y-55627850D01*
X10074839Y-55820311D01*
X10082874Y-55881340D01*
X10145772Y-56116079D01*
X10149050Y-56128312D01*
X10149053Y-56128322D01*
X10246894Y-56364531D01*
X10246899Y-56364542D01*
X10374734Y-56585957D01*
X10374745Y-56585973D01*
X10530388Y-56788811D01*
X10530394Y-56788818D01*
X10711181Y-56969605D01*
X10711188Y-56969611D01*
X10737009Y-56989424D01*
X10914035Y-57125261D01*
X10914042Y-57125265D01*
X11135457Y-57253100D01*
X11135462Y-57253102D01*
X11135465Y-57253104D01*
X11371687Y-57350950D01*
X11618660Y-57417126D01*
X11872157Y-57450500D01*
X11872164Y-57450500D01*
X12127836Y-57450500D01*
X12127843Y-57450500D01*
X12381340Y-57417126D01*
X12628313Y-57350950D01*
X12864535Y-57253104D01*
X13085965Y-57125261D01*
X13288813Y-56969610D01*
X13469610Y-56788813D01*
X13625261Y-56585965D01*
X13753104Y-56364535D01*
X13850950Y-56128313D01*
X13917126Y-55881340D01*
X13950500Y-55627843D01*
X13950500Y-55372157D01*
X13917126Y-55118660D01*
X13850950Y-54871687D01*
X13753104Y-54635465D01*
X13753102Y-54635462D01*
X13753100Y-54635457D01*
X13625265Y-54414042D01*
X13625261Y-54414035D01*
X13518875Y-54275390D01*
X13469611Y-54211188D01*
X13469605Y-54211181D01*
X13288818Y-54030394D01*
X13288811Y-54030388D01*
X13085973Y-53874745D01*
X13085971Y-53874743D01*
X13085965Y-53874739D01*
X13085960Y-53874736D01*
X13085957Y-53874734D01*
X12864542Y-53746899D01*
X12864531Y-53746894D01*
X12628322Y-53649053D01*
X12628315Y-53649051D01*
X12628313Y-53649050D01*
X12381340Y-53582874D01*
X12325007Y-53575457D01*
X12127850Y-53549500D01*
X12127843Y-53549500D01*
X11872157Y-53549500D01*
X11872149Y-53549500D01*
X11646826Y-53579165D01*
X11618660Y-53582874D01*
X11444063Y-53629657D01*
X11371687Y-53649050D01*
X11371677Y-53649053D01*
X11135468Y-53746894D01*
X11135457Y-53746899D01*
X10914042Y-53874734D01*
X10914026Y-53874745D01*
X10711188Y-54030388D01*
X10711181Y-54030394D01*
X10530394Y-54211181D01*
X10530388Y-54211188D01*
X10374745Y-54414026D01*
X10374734Y-54414042D01*
X10246899Y-54635457D01*
X10246894Y-54635468D01*
X10149053Y-54871677D01*
X10149050Y-54871687D01*
X10087901Y-55099901D01*
X10082874Y-55118661D01*
X10049500Y-55372149D01*
X8700500Y-55372149D01*
X8700500Y-50561043D01*
X8720185Y-50494004D01*
X8772989Y-50448249D01*
X8842147Y-50438305D01*
X8905703Y-50467330D01*
X8912181Y-50473362D01*
X8936441Y-50497622D01*
X9031358Y-50561043D01*
X9094085Y-50602956D01*
X9269249Y-50675512D01*
X9455197Y-50712499D01*
X9455201Y-50712500D01*
X9455202Y-50712500D01*
X9644799Y-50712500D01*
X9644800Y-50712499D01*
X9830751Y-50675512D01*
X10005915Y-50602956D01*
X10163558Y-50497622D01*
X10297622Y-50363558D01*
X10402956Y-50205915D01*
X10475512Y-50030751D01*
X10512500Y-49844798D01*
X10512500Y-49655202D01*
X10512500Y-49655201D01*
X10512500Y-49655199D01*
X10475513Y-49469256D01*
X10475512Y-49469249D01*
X10402956Y-49294085D01*
X10367478Y-49240988D01*
X10297622Y-49136441D01*
X10163558Y-49002377D01*
X10005912Y-48897042D01*
X9830751Y-48824488D01*
X9830745Y-48824486D01*
X9793381Y-48817054D01*
X9731470Y-48784669D01*
X9696896Y-48723953D01*
X9700637Y-48654183D01*
X9741503Y-48597511D01*
X9806522Y-48571930D01*
X9817649Y-48571437D01*
X11267087Y-48572468D01*
G37*
%TD.AperFunction*%
%TA.AperFunction,Conductor*%
G36*
X70503472Y-28700695D02*
G01*
X70806503Y-28717713D01*
X70820301Y-28719267D01*
X71116080Y-28769522D01*
X71129634Y-28772615D01*
X71159313Y-28781166D01*
X71417927Y-28855672D01*
X71431051Y-28860265D01*
X71708222Y-28975072D01*
X71720744Y-28981101D01*
X71923184Y-29092986D01*
X71983328Y-29126227D01*
X71995102Y-29133625D01*
X72239789Y-29307239D01*
X72250657Y-29315907D01*
X72474352Y-29515815D01*
X72484184Y-29525647D01*
X72684092Y-29749342D01*
X72692763Y-29760214D01*
X72866374Y-30004897D01*
X72873772Y-30016671D01*
X73018894Y-30279248D01*
X73024927Y-30291777D01*
X73139734Y-30568948D01*
X73144327Y-30582072D01*
X73227383Y-30870363D01*
X73230477Y-30883920D01*
X73280730Y-31179688D01*
X73282287Y-31193506D01*
X73299305Y-31496527D01*
X73299500Y-31503480D01*
X73299500Y-55496519D01*
X73299305Y-55503472D01*
X73282287Y-55806493D01*
X73280730Y-55820311D01*
X73230477Y-56116079D01*
X73227383Y-56129636D01*
X73144327Y-56417927D01*
X73139734Y-56431051D01*
X73024927Y-56708222D01*
X73018894Y-56720751D01*
X72873772Y-56983328D01*
X72866374Y-56995102D01*
X72692763Y-57239785D01*
X72684092Y-57250657D01*
X72484184Y-57474352D01*
X72474352Y-57484184D01*
X72250657Y-57684092D01*
X72239785Y-57692763D01*
X71995102Y-57866374D01*
X71983328Y-57873772D01*
X71720751Y-58018894D01*
X71708222Y-58024927D01*
X71431051Y-58139734D01*
X71417927Y-58144327D01*
X71129636Y-58227383D01*
X71116079Y-58230477D01*
X70820311Y-58280730D01*
X70806493Y-58282287D01*
X70503472Y-58299305D01*
X70496519Y-58299500D01*
X45773833Y-58299500D01*
X45706794Y-58279815D01*
X45661039Y-58227011D01*
X45651095Y-58157853D01*
X45680120Y-58094297D01*
X45686152Y-58087819D01*
X46089879Y-57684092D01*
X46599460Y-57174511D01*
X46627894Y-57125261D01*
X46639021Y-57105989D01*
X46659500Y-57029562D01*
X46659500Y-56460536D01*
X46679185Y-56393497D01*
X46731989Y-56347742D01*
X46801147Y-56337798D01*
X46852389Y-56357433D01*
X46962402Y-56430941D01*
X47153580Y-56510130D01*
X47356530Y-56550499D01*
X47356534Y-56550500D01*
X47356535Y-56550500D01*
X47563466Y-56550500D01*
X47563467Y-56550499D01*
X47766420Y-56510130D01*
X47957598Y-56430941D01*
X48129655Y-56315977D01*
X48275977Y-56169655D01*
X48390941Y-55997598D01*
X48459165Y-55832889D01*
X48503004Y-55778488D01*
X48569298Y-55756423D01*
X48636998Y-55773702D01*
X48684609Y-55824839D01*
X48691656Y-55842026D01*
X48748904Y-56018216D01*
X48845379Y-56207557D01*
X48970272Y-56379459D01*
X48970276Y-56379464D01*
X49120535Y-56529723D01*
X49120540Y-56529727D01*
X49292442Y-56654620D01*
X49481782Y-56751095D01*
X49683871Y-56816757D01*
X49750000Y-56827231D01*
X49750000Y-55933012D01*
X49807007Y-55965925D01*
X49934174Y-56000000D01*
X50065826Y-56000000D01*
X50192993Y-55965925D01*
X50250000Y-55933012D01*
X50250000Y-56827230D01*
X50316126Y-56816757D01*
X50316129Y-56816757D01*
X50518217Y-56751095D01*
X50707557Y-56654620D01*
X50879459Y-56529727D01*
X50879464Y-56529723D01*
X51029723Y-56379464D01*
X51029727Y-56379459D01*
X51154620Y-56207557D01*
X51251095Y-56018217D01*
X51308343Y-55842026D01*
X51347780Y-55784351D01*
X51412139Y-55757152D01*
X51480985Y-55769066D01*
X51532461Y-55816310D01*
X51540835Y-55832891D01*
X51595939Y-55965925D01*
X51609059Y-55997598D01*
X51652713Y-56062931D01*
X51724024Y-56169657D01*
X51870342Y-56315975D01*
X51870345Y-56315977D01*
X52042402Y-56430941D01*
X52233580Y-56510130D01*
X52436530Y-56550499D01*
X52436534Y-56550500D01*
X52436535Y-56550500D01*
X52643466Y-56550500D01*
X52643467Y-56550499D01*
X52846420Y-56510130D01*
X53037598Y-56430941D01*
X53209655Y-56315977D01*
X53355977Y-56169655D01*
X53470941Y-55997598D01*
X53550130Y-55806420D01*
X53590500Y-55603465D01*
X53590500Y-55396535D01*
X53550130Y-55193580D01*
X53470941Y-55002402D01*
X53355977Y-54830345D01*
X53355976Y-54830344D01*
X53355975Y-54830342D01*
X53209657Y-54684024D01*
X53042616Y-54572412D01*
X53037598Y-54569059D01*
X53037593Y-54569057D01*
X52846420Y-54489870D01*
X52846412Y-54489868D01*
X52643469Y-54449500D01*
X52643465Y-54449500D01*
X52436535Y-54449500D01*
X52436530Y-54449500D01*
X52233587Y-54489868D01*
X52233579Y-54489870D01*
X52042403Y-54569058D01*
X51870342Y-54684024D01*
X51724024Y-54830342D01*
X51609057Y-55002403D01*
X51540835Y-55167108D01*
X51496994Y-55221511D01*
X51430700Y-55243576D01*
X51363000Y-55226297D01*
X51315390Y-55175159D01*
X51308343Y-55157973D01*
X51251095Y-54981782D01*
X51154620Y-54792442D01*
X51029727Y-54620540D01*
X51029723Y-54620535D01*
X50879464Y-54470276D01*
X50879459Y-54470272D01*
X50707557Y-54345379D01*
X50518216Y-54248904D01*
X50342026Y-54191656D01*
X50284350Y-54152218D01*
X50257152Y-54087860D01*
X50269067Y-54019013D01*
X50316311Y-53967538D01*
X50332882Y-53959168D01*
X50497598Y-53890941D01*
X50669655Y-53775977D01*
X50815977Y-53629655D01*
X50930941Y-53457598D01*
X51010130Y-53266420D01*
X51050500Y-53063465D01*
X51050500Y-52856535D01*
X51050499Y-52856530D01*
X51489500Y-52856530D01*
X51489500Y-53063469D01*
X51529868Y-53266412D01*
X51529870Y-53266420D01*
X51595939Y-53425925D01*
X51609059Y-53457598D01*
X51652713Y-53522931D01*
X51724024Y-53629657D01*
X51870342Y-53775975D01*
X51870345Y-53775977D01*
X52042402Y-53890941D01*
X52233580Y-53970130D01*
X52355263Y-53994334D01*
X52436530Y-54010499D01*
X52436534Y-54010500D01*
X52436535Y-54010500D01*
X52643466Y-54010500D01*
X52643467Y-54010499D01*
X52846420Y-53970130D01*
X53037598Y-53890941D01*
X53209655Y-53775977D01*
X53355977Y-53629655D01*
X53470941Y-53457598D01*
X53539165Y-53292889D01*
X53583004Y-53238488D01*
X53649298Y-53216423D01*
X53716998Y-53233702D01*
X53764609Y-53284839D01*
X53771656Y-53302026D01*
X53828904Y-53478216D01*
X53925379Y-53667557D01*
X54050272Y-53839459D01*
X54050276Y-53839464D01*
X54200535Y-53989723D01*
X54200540Y-53989727D01*
X54372442Y-54114620D01*
X54561782Y-54211095D01*
X54737973Y-54268343D01*
X54795648Y-54307780D01*
X54822847Y-54372139D01*
X54810932Y-54440985D01*
X54763688Y-54492461D01*
X54747108Y-54500835D01*
X54582403Y-54569057D01*
X54410342Y-54684024D01*
X54264024Y-54830342D01*
X54149058Y-55002403D01*
X54069870Y-55193579D01*
X54069868Y-55193587D01*
X54029500Y-55396530D01*
X54029500Y-55603469D01*
X54069868Y-55806412D01*
X54069870Y-55806420D01*
X54135939Y-55965925D01*
X54149059Y-55997598D01*
X54192713Y-56062931D01*
X54264024Y-56169657D01*
X54410342Y-56315975D01*
X54410345Y-56315977D01*
X54582402Y-56430941D01*
X54773580Y-56510130D01*
X54976530Y-56550499D01*
X54976534Y-56550500D01*
X54976535Y-56550500D01*
X55183466Y-56550500D01*
X55183467Y-56550499D01*
X55386420Y-56510130D01*
X55577598Y-56430941D01*
X55749655Y-56315977D01*
X55895977Y-56169655D01*
X56010941Y-55997598D01*
X56090130Y-55806420D01*
X56130500Y-55603465D01*
X56130500Y-55396535D01*
X56130499Y-55396530D01*
X56569500Y-55396530D01*
X56569500Y-55603469D01*
X56609868Y-55806412D01*
X56609870Y-55806420D01*
X56675939Y-55965925D01*
X56689059Y-55997598D01*
X56732713Y-56062931D01*
X56804024Y-56169657D01*
X56950342Y-56315975D01*
X56950345Y-56315977D01*
X57122402Y-56430941D01*
X57313580Y-56510130D01*
X57516530Y-56550499D01*
X57516534Y-56550500D01*
X57516535Y-56550500D01*
X57723466Y-56550500D01*
X57723467Y-56550499D01*
X57926420Y-56510130D01*
X58117598Y-56430941D01*
X58289655Y-56315977D01*
X58435977Y-56169655D01*
X58550941Y-55997598D01*
X58619165Y-55832889D01*
X58663004Y-55778488D01*
X58729298Y-55756423D01*
X58796998Y-55773702D01*
X58844609Y-55824839D01*
X58851656Y-55842026D01*
X58908904Y-56018216D01*
X59005379Y-56207557D01*
X59130272Y-56379459D01*
X59130276Y-56379464D01*
X59280535Y-56529723D01*
X59280540Y-56529727D01*
X59452442Y-56654620D01*
X59641782Y-56751095D01*
X59843871Y-56816757D01*
X59910000Y-56827231D01*
X59910000Y-55933012D01*
X59967007Y-55965925D01*
X60094174Y-56000000D01*
X60225826Y-56000000D01*
X60352993Y-55965925D01*
X60410000Y-55933012D01*
X60410000Y-56827230D01*
X60476126Y-56816757D01*
X60476129Y-56816757D01*
X60678217Y-56751095D01*
X60867557Y-56654620D01*
X61039459Y-56529727D01*
X61039464Y-56529723D01*
X61189723Y-56379464D01*
X61189727Y-56379459D01*
X61314620Y-56207557D01*
X61411095Y-56018217D01*
X61468343Y-55842026D01*
X61507780Y-55784351D01*
X61572139Y-55757152D01*
X61640985Y-55769066D01*
X61692461Y-55816310D01*
X61700835Y-55832891D01*
X61755939Y-55965925D01*
X61769059Y-55997598D01*
X61812713Y-56062931D01*
X61884024Y-56169657D01*
X62030342Y-56315975D01*
X62030345Y-56315977D01*
X62202402Y-56430941D01*
X62393580Y-56510130D01*
X62596530Y-56550499D01*
X62596534Y-56550500D01*
X62596535Y-56550500D01*
X62803466Y-56550500D01*
X62803467Y-56550499D01*
X63006420Y-56510130D01*
X63197598Y-56430941D01*
X63369655Y-56315977D01*
X63515977Y-56169655D01*
X63630941Y-55997598D01*
X63710130Y-55806420D01*
X63750500Y-55603465D01*
X63750500Y-55396535D01*
X63750499Y-55396530D01*
X64189500Y-55396530D01*
X64189500Y-55603469D01*
X64229868Y-55806412D01*
X64229870Y-55806420D01*
X64295939Y-55965925D01*
X64309059Y-55997598D01*
X64352713Y-56062931D01*
X64424024Y-56169657D01*
X64570342Y-56315975D01*
X64570345Y-56315977D01*
X64742402Y-56430941D01*
X64933580Y-56510130D01*
X65136530Y-56550499D01*
X65136534Y-56550500D01*
X65136535Y-56550500D01*
X65343466Y-56550500D01*
X65343467Y-56550499D01*
X65546420Y-56510130D01*
X65737598Y-56430941D01*
X65909655Y-56315977D01*
X66055977Y-56169655D01*
X66170941Y-55997598D01*
X66250130Y-55806420D01*
X66290500Y-55603465D01*
X66290500Y-55396535D01*
X66285649Y-55372149D01*
X68049500Y-55372149D01*
X68049500Y-55627850D01*
X68074839Y-55820311D01*
X68082874Y-55881340D01*
X68145772Y-56116079D01*
X68149050Y-56128312D01*
X68149053Y-56128322D01*
X68246894Y-56364531D01*
X68246899Y-56364542D01*
X68374734Y-56585957D01*
X68374745Y-56585973D01*
X68530388Y-56788811D01*
X68530394Y-56788818D01*
X68711181Y-56969605D01*
X68711188Y-56969611D01*
X68737009Y-56989424D01*
X68914035Y-57125261D01*
X68914042Y-57125265D01*
X69135457Y-57253100D01*
X69135462Y-57253102D01*
X69135465Y-57253104D01*
X69371687Y-57350950D01*
X69618660Y-57417126D01*
X69872157Y-57450500D01*
X69872164Y-57450500D01*
X70127836Y-57450500D01*
X70127843Y-57450500D01*
X70381340Y-57417126D01*
X70628313Y-57350950D01*
X70864535Y-57253104D01*
X71085965Y-57125261D01*
X71288813Y-56969610D01*
X71469610Y-56788813D01*
X71625261Y-56585965D01*
X71753104Y-56364535D01*
X71850950Y-56128313D01*
X71917126Y-55881340D01*
X71950500Y-55627843D01*
X71950500Y-55372157D01*
X71917126Y-55118660D01*
X71850950Y-54871687D01*
X71753104Y-54635465D01*
X71753102Y-54635462D01*
X71753100Y-54635457D01*
X71625265Y-54414042D01*
X71625261Y-54414035D01*
X71518875Y-54275390D01*
X71469611Y-54211188D01*
X71469605Y-54211181D01*
X71288818Y-54030394D01*
X71288811Y-54030388D01*
X71085973Y-53874745D01*
X71085971Y-53874743D01*
X71085965Y-53874739D01*
X71085960Y-53874736D01*
X71085957Y-53874734D01*
X70864542Y-53746899D01*
X70864531Y-53746894D01*
X70628322Y-53649053D01*
X70628315Y-53649051D01*
X70628313Y-53649050D01*
X70381340Y-53582874D01*
X70325007Y-53575457D01*
X70127850Y-53549500D01*
X70127843Y-53549500D01*
X69872157Y-53549500D01*
X69872149Y-53549500D01*
X69646826Y-53579165D01*
X69618660Y-53582874D01*
X69444063Y-53629657D01*
X69371687Y-53649050D01*
X69371677Y-53649053D01*
X69135468Y-53746894D01*
X69135457Y-53746899D01*
X68914042Y-53874734D01*
X68914026Y-53874745D01*
X68711188Y-54030388D01*
X68711181Y-54030394D01*
X68530394Y-54211181D01*
X68530388Y-54211188D01*
X68374745Y-54414026D01*
X68374734Y-54414042D01*
X68246899Y-54635457D01*
X68246894Y-54635468D01*
X68149053Y-54871677D01*
X68149050Y-54871687D01*
X68087901Y-55099901D01*
X68082874Y-55118661D01*
X68049500Y-55372149D01*
X66285649Y-55372149D01*
X66259930Y-55242847D01*
X66250130Y-55193580D01*
X66170941Y-55002402D01*
X66055977Y-54830345D01*
X66055976Y-54830344D01*
X66055975Y-54830342D01*
X65909657Y-54684024D01*
X65742616Y-54572412D01*
X65737598Y-54569059D01*
X65737593Y-54569057D01*
X65546420Y-54489870D01*
X65546412Y-54489868D01*
X65343469Y-54449500D01*
X65343465Y-54449500D01*
X65136535Y-54449500D01*
X65136530Y-54449500D01*
X64933587Y-54489868D01*
X64933579Y-54489870D01*
X64742403Y-54569058D01*
X64570342Y-54684024D01*
X64424024Y-54830342D01*
X64309058Y-55002403D01*
X64229870Y-55193579D01*
X64229868Y-55193587D01*
X64189500Y-55396530D01*
X63750499Y-55396530D01*
X63710130Y-55193580D01*
X63630941Y-55002402D01*
X63515977Y-54830345D01*
X63515976Y-54830344D01*
X63515975Y-54830342D01*
X63369657Y-54684024D01*
X63202616Y-54572412D01*
X63197598Y-54569059D01*
X63197593Y-54569057D01*
X63006420Y-54489870D01*
X63006412Y-54489868D01*
X62803469Y-54449500D01*
X62803465Y-54449500D01*
X62596535Y-54449500D01*
X62596530Y-54449500D01*
X62393587Y-54489868D01*
X62393579Y-54489870D01*
X62202403Y-54569058D01*
X62030342Y-54684024D01*
X61884024Y-54830342D01*
X61769057Y-55002403D01*
X61700835Y-55167108D01*
X61656994Y-55221511D01*
X61590700Y-55243576D01*
X61523000Y-55226297D01*
X61475390Y-55175159D01*
X61468343Y-55157973D01*
X61411095Y-54981782D01*
X61314620Y-54792442D01*
X61189727Y-54620540D01*
X61189723Y-54620535D01*
X61039464Y-54470276D01*
X61039459Y-54470272D01*
X60867557Y-54345379D01*
X60678216Y-54248904D01*
X60502026Y-54191656D01*
X60444350Y-54152218D01*
X60417152Y-54087860D01*
X60429067Y-54019013D01*
X60476311Y-53967538D01*
X60492882Y-53959168D01*
X60657598Y-53890941D01*
X60829655Y-53775977D01*
X60975977Y-53629655D01*
X61090941Y-53457598D01*
X61170130Y-53266420D01*
X61210500Y-53063465D01*
X61210500Y-52856535D01*
X61210499Y-52856530D01*
X61649500Y-52856530D01*
X61649500Y-53063469D01*
X61689868Y-53266412D01*
X61689870Y-53266420D01*
X61755939Y-53425925D01*
X61769059Y-53457598D01*
X61812713Y-53522931D01*
X61884024Y-53629657D01*
X62030342Y-53775975D01*
X62030345Y-53775977D01*
X62202402Y-53890941D01*
X62393580Y-53970130D01*
X62515263Y-53994334D01*
X62596530Y-54010499D01*
X62596534Y-54010500D01*
X62596535Y-54010500D01*
X62803466Y-54010500D01*
X62803467Y-54010499D01*
X63006420Y-53970130D01*
X63197598Y-53890941D01*
X63369655Y-53775977D01*
X63515977Y-53629655D01*
X63630941Y-53457598D01*
X63710130Y-53266420D01*
X63750500Y-53063465D01*
X63750500Y-52856535D01*
X63710130Y-52653580D01*
X63630941Y-52462402D01*
X63515977Y-52290345D01*
X63515975Y-52290342D01*
X63369657Y-52144024D01*
X63289173Y-52090247D01*
X64189500Y-52090247D01*
X64189500Y-53829752D01*
X64201131Y-53888229D01*
X64201132Y-53888230D01*
X64245447Y-53954552D01*
X64311769Y-53998867D01*
X64311770Y-53998868D01*
X64370247Y-54010499D01*
X64370250Y-54010500D01*
X64370252Y-54010500D01*
X66109750Y-54010500D01*
X66109751Y-54010499D01*
X66124568Y-54007552D01*
X66168229Y-53998868D01*
X66168229Y-53998867D01*
X66168231Y-53998867D01*
X66234552Y-53954552D01*
X66278867Y-53888231D01*
X66278867Y-53888229D01*
X66278868Y-53888229D01*
X66290499Y-53829752D01*
X66290500Y-53829750D01*
X66290500Y-52090249D01*
X66290499Y-52090247D01*
X66278868Y-52031770D01*
X66278867Y-52031769D01*
X66234552Y-51965447D01*
X66168230Y-51921132D01*
X66168229Y-51921131D01*
X66109752Y-51909500D01*
X66109748Y-51909500D01*
X64370252Y-51909500D01*
X64370247Y-51909500D01*
X64311770Y-51921131D01*
X64311769Y-51921132D01*
X64245447Y-51965447D01*
X64201132Y-52031769D01*
X64201131Y-52031770D01*
X64189500Y-52090247D01*
X63289173Y-52090247D01*
X63201655Y-52031770D01*
X63197598Y-52029059D01*
X63126147Y-51999463D01*
X63006420Y-51949870D01*
X63006412Y-51949868D01*
X62803469Y-51909500D01*
X62803465Y-51909500D01*
X62596535Y-51909500D01*
X62596530Y-51909500D01*
X62393587Y-51949868D01*
X62393579Y-51949870D01*
X62202403Y-52029058D01*
X62030342Y-52144024D01*
X61884024Y-52290342D01*
X61769058Y-52462403D01*
X61689870Y-52653579D01*
X61689868Y-52653587D01*
X61649500Y-52856530D01*
X61210499Y-52856530D01*
X61170130Y-52653580D01*
X61090941Y-52462402D01*
X60975977Y-52290345D01*
X60975975Y-52290342D01*
X60829657Y-52144024D01*
X60661655Y-52031770D01*
X60657598Y-52029059D01*
X60586147Y-51999463D01*
X60466420Y-51949870D01*
X60466412Y-51949868D01*
X60263469Y-51909500D01*
X60263465Y-51909500D01*
X60056535Y-51909500D01*
X60056530Y-51909500D01*
X59853587Y-51949868D01*
X59853579Y-51949870D01*
X59662403Y-52029058D01*
X59490342Y-52144024D01*
X59344024Y-52290342D01*
X59229058Y-52462403D01*
X59149870Y-52653579D01*
X59149868Y-52653587D01*
X59109500Y-52856530D01*
X59109500Y-53063469D01*
X59149868Y-53266412D01*
X59149870Y-53266420D01*
X59215939Y-53425925D01*
X59229059Y-53457598D01*
X59272713Y-53522931D01*
X59344024Y-53629657D01*
X59490342Y-53775975D01*
X59662405Y-53890943D01*
X59733850Y-53920536D01*
X59827108Y-53959164D01*
X59881511Y-54003005D01*
X59903576Y-54069299D01*
X59886297Y-54136998D01*
X59835160Y-54184609D01*
X59817974Y-54191656D01*
X59641781Y-54248905D01*
X59452442Y-54345379D01*
X59280540Y-54470272D01*
X59280535Y-54470276D01*
X59130276Y-54620535D01*
X59130272Y-54620540D01*
X59005379Y-54792442D01*
X58908905Y-54981781D01*
X58851656Y-55157974D01*
X58812218Y-55215649D01*
X58747859Y-55242847D01*
X58679013Y-55230932D01*
X58627537Y-55183688D01*
X58619164Y-55167107D01*
X58550943Y-55002405D01*
X58435975Y-54830342D01*
X58289657Y-54684024D01*
X58122616Y-54572412D01*
X58117598Y-54569059D01*
X58117593Y-54569057D01*
X57926420Y-54489870D01*
X57926412Y-54489868D01*
X57723469Y-54449500D01*
X57723465Y-54449500D01*
X57516535Y-54449500D01*
X57516530Y-54449500D01*
X57313587Y-54489868D01*
X57313579Y-54489870D01*
X57122403Y-54569058D01*
X56950342Y-54684024D01*
X56804024Y-54830342D01*
X56689058Y-55002403D01*
X56609870Y-55193579D01*
X56609868Y-55193587D01*
X56569500Y-55396530D01*
X56130499Y-55396530D01*
X56090130Y-55193580D01*
X56010941Y-55002402D01*
X55895977Y-54830345D01*
X55895976Y-54830344D01*
X55895975Y-54830342D01*
X55749657Y-54684024D01*
X55582616Y-54572412D01*
X55577598Y-54569059D01*
X55577593Y-54569057D01*
X55468003Y-54523663D01*
X55412890Y-54500834D01*
X55358488Y-54456994D01*
X55336423Y-54390700D01*
X55353702Y-54323001D01*
X55404839Y-54275390D01*
X55422026Y-54268343D01*
X55598217Y-54211095D01*
X55787557Y-54114620D01*
X55959459Y-53989727D01*
X55959464Y-53989723D01*
X56109723Y-53839464D01*
X56109727Y-53839459D01*
X56234620Y-53667557D01*
X56331095Y-53478217D01*
X56388343Y-53302026D01*
X56427780Y-53244351D01*
X56492139Y-53217152D01*
X56560985Y-53229066D01*
X56612461Y-53276310D01*
X56620835Y-53292891D01*
X56675939Y-53425925D01*
X56689059Y-53457598D01*
X56732713Y-53522931D01*
X56804024Y-53629657D01*
X56950342Y-53775975D01*
X56950345Y-53775977D01*
X57122402Y-53890941D01*
X57313580Y-53970130D01*
X57435263Y-53994334D01*
X57516530Y-54010499D01*
X57516534Y-54010500D01*
X57516535Y-54010500D01*
X57723466Y-54010500D01*
X57723467Y-54010499D01*
X57926420Y-53970130D01*
X58117598Y-53890941D01*
X58289655Y-53775977D01*
X58435977Y-53629655D01*
X58550941Y-53457598D01*
X58630130Y-53266420D01*
X58670500Y-53063465D01*
X58670500Y-52856535D01*
X58630130Y-52653580D01*
X58550941Y-52462402D01*
X58435977Y-52290345D01*
X58435975Y-52290342D01*
X58289657Y-52144024D01*
X58121655Y-52031770D01*
X58117598Y-52029059D01*
X58046147Y-51999463D01*
X57926420Y-51949870D01*
X57926412Y-51949868D01*
X57723469Y-51909500D01*
X57723465Y-51909500D01*
X57516535Y-51909500D01*
X57516530Y-51909500D01*
X57313587Y-51949868D01*
X57313579Y-51949870D01*
X57122403Y-52029058D01*
X56950342Y-52144024D01*
X56804024Y-52290342D01*
X56689057Y-52462403D01*
X56620835Y-52627108D01*
X56576994Y-52681511D01*
X56510700Y-52703576D01*
X56443000Y-52686297D01*
X56395390Y-52635159D01*
X56388343Y-52617973D01*
X56331095Y-52441782D01*
X56234620Y-52252442D01*
X56109727Y-52080540D01*
X56109723Y-52080535D01*
X55959464Y-51930276D01*
X55959459Y-51930272D01*
X55787557Y-51805379D01*
X55598215Y-51708903D01*
X55396124Y-51643241D01*
X55330000Y-51632768D01*
X55330000Y-52526988D01*
X55272993Y-52494075D01*
X55145826Y-52460000D01*
X55014174Y-52460000D01*
X54887007Y-52494075D01*
X54830000Y-52526988D01*
X54830000Y-51632768D01*
X54829999Y-51632768D01*
X54763875Y-51643241D01*
X54561784Y-51708903D01*
X54372442Y-51805379D01*
X54200540Y-51930272D01*
X54200535Y-51930276D01*
X54050276Y-52080535D01*
X54050272Y-52080540D01*
X53925379Y-52252442D01*
X53828905Y-52441781D01*
X53771656Y-52617974D01*
X53732218Y-52675649D01*
X53667859Y-52702847D01*
X53599013Y-52690932D01*
X53547537Y-52643688D01*
X53539164Y-52627107D01*
X53470943Y-52462405D01*
X53355975Y-52290342D01*
X53209657Y-52144024D01*
X53041655Y-52031770D01*
X53037598Y-52029059D01*
X52966147Y-51999463D01*
X52846420Y-51949870D01*
X52846412Y-51949868D01*
X52643469Y-51909500D01*
X52643465Y-51909500D01*
X52436535Y-51909500D01*
X52436530Y-51909500D01*
X52233587Y-51949868D01*
X52233579Y-51949870D01*
X52042403Y-52029058D01*
X51870342Y-52144024D01*
X51724024Y-52290342D01*
X51609058Y-52462403D01*
X51529870Y-52653579D01*
X51529868Y-52653587D01*
X51489500Y-52856530D01*
X51050499Y-52856530D01*
X51010130Y-52653580D01*
X50930941Y-52462402D01*
X50815977Y-52290345D01*
X50815975Y-52290342D01*
X50669657Y-52144024D01*
X50501655Y-52031770D01*
X50497598Y-52029059D01*
X50426147Y-51999463D01*
X50306420Y-51949870D01*
X50306412Y-51949868D01*
X50103469Y-51909500D01*
X50103465Y-51909500D01*
X49896535Y-51909500D01*
X49896530Y-51909500D01*
X49693587Y-51949868D01*
X49693579Y-51949870D01*
X49502403Y-52029058D01*
X49330342Y-52144024D01*
X49184024Y-52290342D01*
X49069058Y-52462403D01*
X48989870Y-52653579D01*
X48989868Y-52653587D01*
X48949500Y-52856530D01*
X48949500Y-53063469D01*
X48989868Y-53266412D01*
X48989870Y-53266420D01*
X49055939Y-53425925D01*
X49069059Y-53457598D01*
X49112713Y-53522931D01*
X49184024Y-53629657D01*
X49330342Y-53775975D01*
X49502405Y-53890943D01*
X49573850Y-53920536D01*
X49667108Y-53959164D01*
X49721511Y-54003005D01*
X49743576Y-54069299D01*
X49726297Y-54136998D01*
X49675160Y-54184609D01*
X49657974Y-54191656D01*
X49481781Y-54248905D01*
X49292442Y-54345379D01*
X49120540Y-54470272D01*
X49120535Y-54470276D01*
X48970276Y-54620535D01*
X48970272Y-54620540D01*
X48845379Y-54792442D01*
X48748905Y-54981781D01*
X48691656Y-55157974D01*
X48652218Y-55215649D01*
X48587859Y-55242847D01*
X48519013Y-55230932D01*
X48467537Y-55183688D01*
X48459164Y-55167107D01*
X48390943Y-55002405D01*
X48275975Y-54830342D01*
X48129657Y-54684024D01*
X47962616Y-54572412D01*
X47957598Y-54569059D01*
X47957593Y-54569057D01*
X47766420Y-54489870D01*
X47766412Y-54489868D01*
X47563469Y-54449500D01*
X47563465Y-54449500D01*
X47356535Y-54449500D01*
X47356530Y-54449500D01*
X47153587Y-54489868D01*
X47153579Y-54489870D01*
X46962403Y-54569058D01*
X46852390Y-54642566D01*
X46785713Y-54663443D01*
X46718333Y-54644958D01*
X46671643Y-54592979D01*
X46659500Y-54539463D01*
X46659500Y-53920536D01*
X46679185Y-53853497D01*
X46731989Y-53807742D01*
X46801147Y-53797798D01*
X46852389Y-53817433D01*
X46962402Y-53890941D01*
X47153580Y-53970130D01*
X47275263Y-53994334D01*
X47356530Y-54010499D01*
X47356534Y-54010500D01*
X47356535Y-54010500D01*
X47563466Y-54010500D01*
X47563467Y-54010499D01*
X47766420Y-53970130D01*
X47957598Y-53890941D01*
X48129655Y-53775977D01*
X48275977Y-53629655D01*
X48390941Y-53457598D01*
X48470130Y-53266420D01*
X48510500Y-53063465D01*
X48510500Y-52856535D01*
X48470130Y-52653580D01*
X48390941Y-52462402D01*
X48275977Y-52290345D01*
X48275975Y-52290342D01*
X48129657Y-52144024D01*
X47961655Y-52031770D01*
X47957598Y-52029059D01*
X47886147Y-51999463D01*
X47766420Y-51949870D01*
X47766412Y-51949868D01*
X47563469Y-51909500D01*
X47563465Y-51909500D01*
X47356535Y-51909500D01*
X47356530Y-51909500D01*
X47153587Y-51949868D01*
X47153579Y-51949870D01*
X46962403Y-52029058D01*
X46852390Y-52102566D01*
X46785713Y-52123443D01*
X46718333Y-52104958D01*
X46671643Y-52052979D01*
X46659500Y-51999463D01*
X46659500Y-36340691D01*
X53924500Y-36340691D01*
X53924500Y-36459309D01*
X53955201Y-36573886D01*
X54014511Y-36676613D01*
X54098387Y-36760489D01*
X54201114Y-36819799D01*
X54315691Y-36850500D01*
X54315694Y-36850500D01*
X54434306Y-36850500D01*
X54434309Y-36850500D01*
X54548886Y-36819799D01*
X54651613Y-36760489D01*
X54735489Y-36676613D01*
X54794799Y-36573886D01*
X54825500Y-36459309D01*
X54825500Y-36340691D01*
X54794799Y-36226114D01*
X54735489Y-36123387D01*
X54651613Y-36039511D01*
X54548886Y-35980201D01*
X54434309Y-35949500D01*
X54315691Y-35949500D01*
X54201114Y-35980201D01*
X54201112Y-35980201D01*
X54201112Y-35980202D01*
X54098387Y-36039511D01*
X54098384Y-36039513D01*
X54014513Y-36123384D01*
X54014511Y-36123387D01*
X53955201Y-36226114D01*
X53924500Y-36340691D01*
X46659500Y-36340691D01*
X46659500Y-31381902D01*
X68499500Y-31381902D01*
X68499500Y-31618097D01*
X68536446Y-31851368D01*
X68609433Y-32075996D01*
X68653761Y-32162993D01*
X68716657Y-32286433D01*
X68855483Y-32477510D01*
X69022490Y-32644517D01*
X69213567Y-32783343D01*
X69291310Y-32822955D01*
X69424003Y-32890566D01*
X69424005Y-32890566D01*
X69424008Y-32890568D01*
X69544412Y-32929689D01*
X69648631Y-32963553D01*
X69881903Y-33000500D01*
X69881908Y-33000500D01*
X70118097Y-33000500D01*
X70351368Y-32963553D01*
X70390614Y-32950801D01*
X70575992Y-32890568D01*
X70578960Y-32889056D01*
X70587811Y-32884546D01*
X70786433Y-32783343D01*
X70977510Y-32644517D01*
X71144517Y-32477510D01*
X71283343Y-32286433D01*
X71390568Y-32075992D01*
X71463553Y-31851368D01*
X71481914Y-31735440D01*
X71500500Y-31618097D01*
X71500500Y-31381902D01*
X71463553Y-31148631D01*
X71420731Y-31016841D01*
X71390568Y-30924008D01*
X71390566Y-30924005D01*
X71390566Y-30924003D01*
X71334002Y-30812991D01*
X71283343Y-30713567D01*
X71144517Y-30522490D01*
X70977510Y-30355483D01*
X70786433Y-30216657D01*
X70723400Y-30184540D01*
X70575996Y-30109433D01*
X70351368Y-30036446D01*
X70118097Y-29999500D01*
X70118092Y-29999500D01*
X69881908Y-29999500D01*
X69881903Y-29999500D01*
X69648631Y-30036446D01*
X69424003Y-30109433D01*
X69213566Y-30216657D01*
X69104550Y-30295862D01*
X69022490Y-30355483D01*
X69022488Y-30355485D01*
X69022487Y-30355485D01*
X68855485Y-30522487D01*
X68855485Y-30522488D01*
X68855483Y-30522490D01*
X68821729Y-30568948D01*
X68716657Y-30713566D01*
X68609433Y-30924003D01*
X68536446Y-31148631D01*
X68499500Y-31381902D01*
X46659500Y-31381902D01*
X46659500Y-31381392D01*
X46659500Y-31244438D01*
X46649535Y-31207249D01*
X46639022Y-31168012D01*
X46599460Y-31099489D01*
X44412152Y-28912181D01*
X44378667Y-28850858D01*
X44383651Y-28781166D01*
X44425523Y-28725233D01*
X44490987Y-28700816D01*
X44499833Y-28700500D01*
X70460118Y-28700500D01*
X70496519Y-28700500D01*
X70503472Y-28700695D01*
G37*
%TD.AperFunction*%
%TA.AperFunction,Conductor*%
G36*
X46017362Y-56003488D02*
G01*
X46054082Y-56062931D01*
X46058500Y-56095737D01*
X46058500Y-56814167D01*
X46038815Y-56881206D01*
X46022181Y-56901848D01*
X45361848Y-57562181D01*
X45300525Y-57595666D01*
X45274167Y-57598500D01*
X42900883Y-57598500D01*
X42833844Y-57578815D01*
X42788089Y-57526011D01*
X42778145Y-57456853D01*
X42807170Y-57393297D01*
X42813202Y-57386819D01*
X43979513Y-56220508D01*
X44040836Y-56187023D01*
X44110528Y-56192007D01*
X44154875Y-56220508D01*
X44250342Y-56315975D01*
X44250345Y-56315977D01*
X44422402Y-56430941D01*
X44613580Y-56510130D01*
X44816530Y-56550499D01*
X44816534Y-56550500D01*
X44816535Y-56550500D01*
X45023466Y-56550500D01*
X45023467Y-56550499D01*
X45226420Y-56510130D01*
X45417598Y-56430941D01*
X45589655Y-56315977D01*
X45735977Y-56169655D01*
X45831398Y-56026845D01*
X45885009Y-55982041D01*
X45954334Y-55973334D01*
X46017362Y-56003488D01*
G37*
%TD.AperFunction*%
%TA.AperFunction,Conductor*%
G36*
X31411544Y-52070185D02*
G01*
X31457299Y-52122989D01*
X31467243Y-52192147D01*
X31438218Y-52255703D01*
X31432186Y-52262181D01*
X31404025Y-52290341D01*
X31404024Y-52290342D01*
X31289058Y-52462403D01*
X31209870Y-52653579D01*
X31209868Y-52653587D01*
X31169500Y-52856530D01*
X31169500Y-53063469D01*
X31209868Y-53266412D01*
X31209870Y-53266420D01*
X31275939Y-53425925D01*
X31289059Y-53457598D01*
X31332713Y-53522931D01*
X31404024Y-53629657D01*
X31550342Y-53775975D01*
X31550345Y-53775977D01*
X31722402Y-53890941D01*
X31913580Y-53970130D01*
X32035263Y-53994334D01*
X32116530Y-54010499D01*
X32116534Y-54010500D01*
X32116535Y-54010500D01*
X32323466Y-54010500D01*
X32323467Y-54010499D01*
X32526420Y-53970130D01*
X32717598Y-53890941D01*
X32889655Y-53775977D01*
X33035977Y-53629655D01*
X33150941Y-53457598D01*
X33219165Y-53292889D01*
X33263004Y-53238488D01*
X33329298Y-53216423D01*
X33396998Y-53233702D01*
X33444609Y-53284839D01*
X33451656Y-53302026D01*
X33508904Y-53478216D01*
X33605379Y-53667557D01*
X33730272Y-53839459D01*
X33730276Y-53839464D01*
X33880535Y-53989723D01*
X33880540Y-53989727D01*
X34052442Y-54114620D01*
X34241782Y-54211095D01*
X34417973Y-54268343D01*
X34475648Y-54307780D01*
X34502847Y-54372139D01*
X34490932Y-54440985D01*
X34443688Y-54492461D01*
X34427108Y-54500835D01*
X34262403Y-54569057D01*
X34090342Y-54684024D01*
X33944024Y-54830342D01*
X33829058Y-55002403D01*
X33749870Y-55193579D01*
X33749868Y-55193587D01*
X33709500Y-55396530D01*
X33709500Y-55603469D01*
X33749868Y-55806412D01*
X33749870Y-55806420D01*
X33815939Y-55965925D01*
X33829059Y-55997598D01*
X33872713Y-56062931D01*
X33944024Y-56169657D01*
X34090342Y-56315975D01*
X34090345Y-56315977D01*
X34262402Y-56430941D01*
X34453580Y-56510130D01*
X34656530Y-56550499D01*
X34656534Y-56550500D01*
X34656535Y-56550500D01*
X34863466Y-56550500D01*
X34863467Y-56550499D01*
X35066420Y-56510130D01*
X35257598Y-56430941D01*
X35429655Y-56315977D01*
X35575977Y-56169655D01*
X35690941Y-55997598D01*
X35770130Y-55806420D01*
X35810500Y-55603465D01*
X35810500Y-55396535D01*
X35810499Y-55396530D01*
X36249500Y-55396530D01*
X36249500Y-55603469D01*
X36289868Y-55806412D01*
X36289870Y-55806420D01*
X36355939Y-55965925D01*
X36369059Y-55997598D01*
X36412713Y-56062931D01*
X36484024Y-56169657D01*
X36630342Y-56315975D01*
X36630345Y-56315977D01*
X36802402Y-56430941D01*
X36993580Y-56510130D01*
X37196530Y-56550499D01*
X37196534Y-56550500D01*
X37196535Y-56550500D01*
X37403466Y-56550500D01*
X37403467Y-56550499D01*
X37606420Y-56510130D01*
X37797598Y-56430941D01*
X37969655Y-56315977D01*
X38115977Y-56169655D01*
X38230941Y-55997598D01*
X38310130Y-55806420D01*
X38350500Y-55603465D01*
X38350500Y-55396535D01*
X38310130Y-55193580D01*
X38230941Y-55002402D01*
X38115977Y-54830345D01*
X38115976Y-54830344D01*
X38115975Y-54830342D01*
X37969657Y-54684024D01*
X37802616Y-54572412D01*
X37797598Y-54569059D01*
X37797593Y-54569057D01*
X37606420Y-54489870D01*
X37606412Y-54489868D01*
X37403469Y-54449500D01*
X37403465Y-54449500D01*
X37196535Y-54449500D01*
X37196530Y-54449500D01*
X36993587Y-54489868D01*
X36993579Y-54489870D01*
X36802403Y-54569058D01*
X36630342Y-54684024D01*
X36484024Y-54830342D01*
X36369058Y-55002403D01*
X36289870Y-55193579D01*
X36289868Y-55193587D01*
X36249500Y-55396530D01*
X35810499Y-55396530D01*
X35770130Y-55193580D01*
X35690941Y-55002402D01*
X35575977Y-54830345D01*
X35575976Y-54830344D01*
X35575975Y-54830342D01*
X35429657Y-54684024D01*
X35262616Y-54572412D01*
X35257598Y-54569059D01*
X35257593Y-54569057D01*
X35148003Y-54523663D01*
X35092890Y-54500834D01*
X35038488Y-54456994D01*
X35016423Y-54390700D01*
X35033702Y-54323001D01*
X35084839Y-54275390D01*
X35102026Y-54268343D01*
X35278217Y-54211095D01*
X35467557Y-54114620D01*
X35639459Y-53989727D01*
X35639464Y-53989723D01*
X35789723Y-53839464D01*
X35789727Y-53839459D01*
X35914620Y-53667557D01*
X36011095Y-53478217D01*
X36068343Y-53302026D01*
X36107780Y-53244351D01*
X36172139Y-53217152D01*
X36240985Y-53229066D01*
X36292461Y-53276310D01*
X36300835Y-53292891D01*
X36355939Y-53425925D01*
X36369059Y-53457598D01*
X36412713Y-53522931D01*
X36484024Y-53629657D01*
X36630342Y-53775975D01*
X36630345Y-53775977D01*
X36802402Y-53890941D01*
X36993580Y-53970130D01*
X37115263Y-53994334D01*
X37196530Y-54010499D01*
X37196534Y-54010500D01*
X37196535Y-54010500D01*
X37403466Y-54010500D01*
X37403467Y-54010499D01*
X37606420Y-53970130D01*
X37797598Y-53890941D01*
X37969655Y-53775977D01*
X38115977Y-53629655D01*
X38230941Y-53457598D01*
X38310130Y-53266420D01*
X38350500Y-53063465D01*
X38350500Y-52856535D01*
X38310130Y-52653580D01*
X38230941Y-52462402D01*
X38115977Y-52290345D01*
X38115975Y-52290342D01*
X38087814Y-52262181D01*
X38054329Y-52200858D01*
X38059313Y-52131166D01*
X38101185Y-52075233D01*
X38166649Y-52050816D01*
X38175495Y-52050500D01*
X38964505Y-52050500D01*
X39031544Y-52070185D01*
X39077299Y-52122989D01*
X39087243Y-52192147D01*
X39058218Y-52255703D01*
X39052186Y-52262181D01*
X39024025Y-52290341D01*
X39024024Y-52290342D01*
X38909058Y-52462403D01*
X38829870Y-52653579D01*
X38829868Y-52653587D01*
X38789500Y-52856530D01*
X38789500Y-53063469D01*
X38829868Y-53266412D01*
X38829870Y-53266420D01*
X38895939Y-53425925D01*
X38909059Y-53457598D01*
X38952713Y-53522931D01*
X39024024Y-53629657D01*
X39170342Y-53775975D01*
X39170345Y-53775977D01*
X39342402Y-53890941D01*
X39533580Y-53970130D01*
X39655263Y-53994334D01*
X39736530Y-54010499D01*
X39736534Y-54010500D01*
X39736535Y-54010500D01*
X39943466Y-54010500D01*
X39943467Y-54010499D01*
X40146420Y-53970130D01*
X40337598Y-53890941D01*
X40509655Y-53775977D01*
X40655977Y-53629655D01*
X40770941Y-53457598D01*
X40850130Y-53266420D01*
X40890500Y-53063465D01*
X40890500Y-52856535D01*
X40850130Y-52653580D01*
X40770941Y-52462402D01*
X40655977Y-52290345D01*
X40655975Y-52290342D01*
X40627814Y-52262181D01*
X40594329Y-52200858D01*
X40599313Y-52131166D01*
X40641185Y-52075233D01*
X40706649Y-52050816D01*
X40715495Y-52050500D01*
X41504505Y-52050500D01*
X41571544Y-52070185D01*
X41617299Y-52122989D01*
X41627243Y-52192147D01*
X41598218Y-52255703D01*
X41592186Y-52262181D01*
X41564025Y-52290341D01*
X41564024Y-52290342D01*
X41449058Y-52462403D01*
X41369870Y-52653579D01*
X41369868Y-52653587D01*
X41329500Y-52856530D01*
X41329500Y-53063469D01*
X41369868Y-53266412D01*
X41369870Y-53266420D01*
X41435939Y-53425925D01*
X41449059Y-53457598D01*
X41492713Y-53522931D01*
X41564024Y-53629657D01*
X41710342Y-53775975D01*
X41882405Y-53890943D01*
X41953850Y-53920536D01*
X42047108Y-53959164D01*
X42101511Y-54003005D01*
X42123576Y-54069299D01*
X42106297Y-54136998D01*
X42055160Y-54184609D01*
X42037974Y-54191656D01*
X41861781Y-54248905D01*
X41672442Y-54345379D01*
X41500540Y-54470272D01*
X41500535Y-54470276D01*
X41350276Y-54620535D01*
X41350272Y-54620540D01*
X41225379Y-54792442D01*
X41128905Y-54981781D01*
X41071656Y-55157974D01*
X41032218Y-55215649D01*
X40967859Y-55242847D01*
X40899013Y-55230932D01*
X40847537Y-55183688D01*
X40839164Y-55167107D01*
X40770943Y-55002405D01*
X40655975Y-54830342D01*
X40509657Y-54684024D01*
X40342616Y-54572412D01*
X40337598Y-54569059D01*
X40337593Y-54569057D01*
X40146420Y-54489870D01*
X40146412Y-54489868D01*
X39943469Y-54449500D01*
X39943465Y-54449500D01*
X39736535Y-54449500D01*
X39736530Y-54449500D01*
X39533587Y-54489868D01*
X39533579Y-54489870D01*
X39342403Y-54569058D01*
X39170342Y-54684024D01*
X39024024Y-54830342D01*
X38909058Y-55002403D01*
X38829870Y-55193579D01*
X38829868Y-55193587D01*
X38789500Y-55396530D01*
X38789500Y-55603469D01*
X38829868Y-55806412D01*
X38829870Y-55806420D01*
X38895939Y-55965925D01*
X38909059Y-55997598D01*
X38952713Y-56062931D01*
X39024024Y-56169657D01*
X39170342Y-56315975D01*
X39170345Y-56315977D01*
X39342402Y-56430941D01*
X39533580Y-56510130D01*
X39736530Y-56550499D01*
X39736534Y-56550500D01*
X39736535Y-56550500D01*
X39943466Y-56550500D01*
X39943467Y-56550499D01*
X40146420Y-56510130D01*
X40337598Y-56430941D01*
X40509655Y-56315977D01*
X40655977Y-56169655D01*
X40770941Y-55997598D01*
X40839165Y-55832889D01*
X40883004Y-55778488D01*
X40949298Y-55756423D01*
X41016998Y-55773702D01*
X41064609Y-55824839D01*
X41071656Y-55842026D01*
X41128904Y-56018216D01*
X41225379Y-56207557D01*
X41350272Y-56379459D01*
X41350276Y-56379464D01*
X41500535Y-56529723D01*
X41500540Y-56529727D01*
X41672442Y-56654620D01*
X41861782Y-56751095D01*
X42063870Y-56816757D01*
X42228766Y-56842874D01*
X42240142Y-56848266D01*
X42252700Y-56849165D01*
X42271115Y-56862949D01*
X42291900Y-56872803D01*
X42298554Y-56883489D01*
X42308634Y-56891035D01*
X42316672Y-56912587D01*
X42328832Y-56932114D01*
X42328652Y-56944703D01*
X42333052Y-56956499D01*
X42328162Y-56978976D01*
X42327834Y-57001977D01*
X42320521Y-57014103D01*
X42318201Y-57024772D01*
X42297051Y-57053027D01*
X42266975Y-57083103D01*
X42236897Y-57113181D01*
X42175577Y-57146666D01*
X42149217Y-57149500D01*
X22290783Y-57149500D01*
X22223744Y-57129815D01*
X22203102Y-57113181D01*
X21850937Y-56761016D01*
X21817452Y-56699693D01*
X21822436Y-56630001D01*
X21864308Y-56574068D01*
X21929772Y-56549651D01*
X21950776Y-56549932D01*
X21956529Y-56550498D01*
X21956535Y-56550500D01*
X21956541Y-56550500D01*
X22163466Y-56550500D01*
X22163467Y-56550499D01*
X22366420Y-56510130D01*
X22557598Y-56430941D01*
X22729655Y-56315977D01*
X22875977Y-56169655D01*
X22990941Y-55997598D01*
X23059165Y-55832889D01*
X23103004Y-55778488D01*
X23169298Y-55756423D01*
X23236998Y-55773702D01*
X23284609Y-55824839D01*
X23291656Y-55842026D01*
X23348904Y-56018216D01*
X23445379Y-56207557D01*
X23570272Y-56379459D01*
X23570276Y-56379464D01*
X23720535Y-56529723D01*
X23720540Y-56529727D01*
X23892442Y-56654620D01*
X24081782Y-56751095D01*
X24283871Y-56816757D01*
X24350000Y-56827231D01*
X24350000Y-55933012D01*
X24407007Y-55965925D01*
X24534174Y-56000000D01*
X24665826Y-56000000D01*
X24792993Y-55965925D01*
X24850000Y-55933012D01*
X24850000Y-56827230D01*
X24916126Y-56816757D01*
X24916129Y-56816757D01*
X25118217Y-56751095D01*
X25307557Y-56654620D01*
X25479459Y-56529727D01*
X25479464Y-56529723D01*
X25629723Y-56379464D01*
X25629727Y-56379459D01*
X25754620Y-56207557D01*
X25851095Y-56018217D01*
X25908343Y-55842026D01*
X25947780Y-55784351D01*
X26012139Y-55757152D01*
X26080985Y-55769066D01*
X26132461Y-55816310D01*
X26140835Y-55832891D01*
X26195939Y-55965925D01*
X26209059Y-55997598D01*
X26252713Y-56062931D01*
X26324024Y-56169657D01*
X26470342Y-56315975D01*
X26470345Y-56315977D01*
X26642402Y-56430941D01*
X26833580Y-56510130D01*
X27036530Y-56550499D01*
X27036534Y-56550500D01*
X27036535Y-56550500D01*
X27243466Y-56550500D01*
X27243467Y-56550499D01*
X27446420Y-56510130D01*
X27637598Y-56430941D01*
X27809655Y-56315977D01*
X27955977Y-56169655D01*
X28070941Y-55997598D01*
X28139165Y-55832889D01*
X28183004Y-55778488D01*
X28249298Y-55756423D01*
X28316998Y-55773702D01*
X28364609Y-55824839D01*
X28371656Y-55842026D01*
X28428904Y-56018216D01*
X28525379Y-56207557D01*
X28650272Y-56379459D01*
X28650276Y-56379464D01*
X28800535Y-56529723D01*
X28800540Y-56529727D01*
X28972442Y-56654620D01*
X29161782Y-56751095D01*
X29363871Y-56816757D01*
X29430000Y-56827231D01*
X29430000Y-55933012D01*
X29487007Y-55965925D01*
X29614174Y-56000000D01*
X29745826Y-56000000D01*
X29872993Y-55965925D01*
X29930000Y-55933012D01*
X29930000Y-56827230D01*
X29996126Y-56816757D01*
X29996129Y-56816757D01*
X30198217Y-56751095D01*
X30387557Y-56654620D01*
X30559459Y-56529727D01*
X30559464Y-56529723D01*
X30709723Y-56379464D01*
X30709727Y-56379459D01*
X30834620Y-56207557D01*
X30931095Y-56018217D01*
X30988343Y-55842026D01*
X31027780Y-55784351D01*
X31092139Y-55757152D01*
X31160985Y-55769066D01*
X31212461Y-55816310D01*
X31220835Y-55832891D01*
X31275939Y-55965925D01*
X31289059Y-55997598D01*
X31332713Y-56062931D01*
X31404024Y-56169657D01*
X31550342Y-56315975D01*
X31550345Y-56315977D01*
X31722402Y-56430941D01*
X31913580Y-56510130D01*
X32116530Y-56550499D01*
X32116534Y-56550500D01*
X32116535Y-56550500D01*
X32323466Y-56550500D01*
X32323467Y-56550499D01*
X32526420Y-56510130D01*
X32717598Y-56430941D01*
X32889655Y-56315977D01*
X33035977Y-56169655D01*
X33150941Y-55997598D01*
X33230130Y-55806420D01*
X33270500Y-55603465D01*
X33270500Y-55396535D01*
X33230130Y-55193580D01*
X33150941Y-55002402D01*
X33035977Y-54830345D01*
X33035976Y-54830344D01*
X33035975Y-54830342D01*
X32889657Y-54684024D01*
X32722616Y-54572412D01*
X32717598Y-54569059D01*
X32717593Y-54569057D01*
X32526420Y-54489870D01*
X32526412Y-54489868D01*
X32323469Y-54449500D01*
X32323465Y-54449500D01*
X32116535Y-54449500D01*
X32116530Y-54449500D01*
X31913587Y-54489868D01*
X31913579Y-54489870D01*
X31722403Y-54569058D01*
X31550342Y-54684024D01*
X31404024Y-54830342D01*
X31289057Y-55002403D01*
X31220835Y-55167108D01*
X31176994Y-55221511D01*
X31110700Y-55243576D01*
X31043000Y-55226297D01*
X30995390Y-55175159D01*
X30988343Y-55157973D01*
X30931095Y-54981782D01*
X30834620Y-54792442D01*
X30709727Y-54620540D01*
X30709723Y-54620535D01*
X30559464Y-54470276D01*
X30559459Y-54470272D01*
X30387557Y-54345379D01*
X30198216Y-54248904D01*
X30022026Y-54191656D01*
X29964350Y-54152218D01*
X29937152Y-54087860D01*
X29949067Y-54019013D01*
X29996311Y-53967538D01*
X30012882Y-53959168D01*
X30177598Y-53890941D01*
X30349655Y-53775977D01*
X30495977Y-53629655D01*
X30610941Y-53457598D01*
X30690130Y-53266420D01*
X30730500Y-53063465D01*
X30730500Y-52856535D01*
X30690130Y-52653580D01*
X30610941Y-52462402D01*
X30495977Y-52290345D01*
X30495975Y-52290342D01*
X30467814Y-52262181D01*
X30434329Y-52200858D01*
X30439313Y-52131166D01*
X30481185Y-52075233D01*
X30546649Y-52050816D01*
X30555495Y-52050500D01*
X31344505Y-52050500D01*
X31411544Y-52070185D01*
G37*
%TD.AperFunction*%
%TA.AperFunction,Conductor*%
G36*
X26331544Y-52070185D02*
G01*
X26377299Y-52122989D01*
X26387243Y-52192147D01*
X26358218Y-52255703D01*
X26352186Y-52262181D01*
X26324025Y-52290341D01*
X26324024Y-52290342D01*
X26209058Y-52462403D01*
X26129870Y-52653579D01*
X26129868Y-52653587D01*
X26089500Y-52856530D01*
X26089500Y-53063469D01*
X26129868Y-53266412D01*
X26129870Y-53266420D01*
X26195939Y-53425925D01*
X26209059Y-53457598D01*
X26252713Y-53522931D01*
X26324024Y-53629657D01*
X26470342Y-53775975D01*
X26470345Y-53775977D01*
X26642402Y-53890941D01*
X26833580Y-53970130D01*
X26955263Y-53994334D01*
X27036530Y-54010499D01*
X27036534Y-54010500D01*
X27036535Y-54010500D01*
X27243466Y-54010500D01*
X27243467Y-54010499D01*
X27446420Y-53970130D01*
X27637598Y-53890941D01*
X27809655Y-53775977D01*
X27955977Y-53629655D01*
X28070941Y-53457598D01*
X28150130Y-53266420D01*
X28190500Y-53063465D01*
X28190500Y-52856535D01*
X28150130Y-52653580D01*
X28070941Y-52462402D01*
X27955977Y-52290345D01*
X27955975Y-52290342D01*
X27927814Y-52262181D01*
X27894329Y-52200858D01*
X27899313Y-52131166D01*
X27941185Y-52075233D01*
X28006649Y-52050816D01*
X28015495Y-52050500D01*
X28804505Y-52050500D01*
X28871544Y-52070185D01*
X28917299Y-52122989D01*
X28927243Y-52192147D01*
X28898218Y-52255703D01*
X28892186Y-52262181D01*
X28864025Y-52290341D01*
X28864024Y-52290342D01*
X28749058Y-52462403D01*
X28669870Y-52653579D01*
X28669868Y-52653587D01*
X28629500Y-52856530D01*
X28629500Y-53063469D01*
X28669868Y-53266412D01*
X28669870Y-53266420D01*
X28735939Y-53425925D01*
X28749059Y-53457598D01*
X28792713Y-53522931D01*
X28864024Y-53629657D01*
X29010342Y-53775975D01*
X29182405Y-53890943D01*
X29253850Y-53920536D01*
X29347108Y-53959164D01*
X29401511Y-54003005D01*
X29423576Y-54069299D01*
X29406297Y-54136998D01*
X29355160Y-54184609D01*
X29337974Y-54191656D01*
X29161781Y-54248905D01*
X28972442Y-54345379D01*
X28800540Y-54470272D01*
X28800535Y-54470276D01*
X28650276Y-54620535D01*
X28650272Y-54620540D01*
X28525379Y-54792442D01*
X28428905Y-54981781D01*
X28371656Y-55157974D01*
X28332218Y-55215649D01*
X28267859Y-55242847D01*
X28199013Y-55230932D01*
X28147537Y-55183688D01*
X28139164Y-55167107D01*
X28070943Y-55002405D01*
X27955975Y-54830342D01*
X27809657Y-54684024D01*
X27642616Y-54572412D01*
X27637598Y-54569059D01*
X27637593Y-54569057D01*
X27446420Y-54489870D01*
X27446412Y-54489868D01*
X27243469Y-54449500D01*
X27243465Y-54449500D01*
X27036535Y-54449500D01*
X27036530Y-54449500D01*
X26833587Y-54489868D01*
X26833579Y-54489870D01*
X26642403Y-54569058D01*
X26470342Y-54684024D01*
X26324024Y-54830342D01*
X26209057Y-55002403D01*
X26140835Y-55167108D01*
X26096994Y-55221511D01*
X26030700Y-55243576D01*
X25963000Y-55226297D01*
X25915390Y-55175159D01*
X25908343Y-55157973D01*
X25851095Y-54981782D01*
X25754620Y-54792442D01*
X25629727Y-54620540D01*
X25629723Y-54620535D01*
X25479464Y-54470276D01*
X25479459Y-54470272D01*
X25307557Y-54345379D01*
X25118216Y-54248904D01*
X24942026Y-54191656D01*
X24884350Y-54152218D01*
X24857152Y-54087860D01*
X24869067Y-54019013D01*
X24916311Y-53967538D01*
X24932882Y-53959168D01*
X25097598Y-53890941D01*
X25269655Y-53775977D01*
X25415977Y-53629655D01*
X25530941Y-53457598D01*
X25610130Y-53266420D01*
X25650500Y-53063465D01*
X25650500Y-52856535D01*
X25610130Y-52653580D01*
X25530941Y-52462402D01*
X25415977Y-52290345D01*
X25415975Y-52290342D01*
X25387814Y-52262181D01*
X25354329Y-52200858D01*
X25359313Y-52131166D01*
X25401185Y-52075233D01*
X25466649Y-52050816D01*
X25475495Y-52050500D01*
X26264505Y-52050500D01*
X26331544Y-52070185D01*
G37*
%TD.AperFunction*%
%TA.AperFunction,Conductor*%
G36*
X21251544Y-52070185D02*
G01*
X21297299Y-52122989D01*
X21307243Y-52192147D01*
X21278218Y-52255703D01*
X21272186Y-52262181D01*
X21244025Y-52290341D01*
X21244024Y-52290342D01*
X21129058Y-52462403D01*
X21049870Y-52653579D01*
X21049868Y-52653587D01*
X21009500Y-52856530D01*
X21009500Y-53063469D01*
X21049868Y-53266412D01*
X21049870Y-53266420D01*
X21115939Y-53425925D01*
X21129059Y-53457598D01*
X21172713Y-53522931D01*
X21244024Y-53629657D01*
X21390342Y-53775975D01*
X21390345Y-53775977D01*
X21562402Y-53890941D01*
X21753580Y-53970130D01*
X21875263Y-53994334D01*
X21956530Y-54010499D01*
X21956534Y-54010500D01*
X21956535Y-54010500D01*
X22163466Y-54010500D01*
X22163467Y-54010499D01*
X22366420Y-53970130D01*
X22557598Y-53890941D01*
X22729655Y-53775977D01*
X22875977Y-53629655D01*
X22990941Y-53457598D01*
X23070130Y-53266420D01*
X23110500Y-53063465D01*
X23110500Y-52856535D01*
X23070130Y-52653580D01*
X22990941Y-52462402D01*
X22875977Y-52290345D01*
X22875975Y-52290342D01*
X22847814Y-52262181D01*
X22814329Y-52200858D01*
X22819313Y-52131166D01*
X22861185Y-52075233D01*
X22926649Y-52050816D01*
X22935495Y-52050500D01*
X23724505Y-52050500D01*
X23791544Y-52070185D01*
X23837299Y-52122989D01*
X23847243Y-52192147D01*
X23818218Y-52255703D01*
X23812186Y-52262181D01*
X23784025Y-52290341D01*
X23784024Y-52290342D01*
X23669058Y-52462403D01*
X23589870Y-52653579D01*
X23589868Y-52653587D01*
X23549500Y-52856530D01*
X23549500Y-53063469D01*
X23589868Y-53266412D01*
X23589870Y-53266420D01*
X23655939Y-53425925D01*
X23669059Y-53457598D01*
X23712713Y-53522931D01*
X23784024Y-53629657D01*
X23930342Y-53775975D01*
X24102405Y-53890943D01*
X24173850Y-53920536D01*
X24267108Y-53959164D01*
X24321511Y-54003005D01*
X24343576Y-54069299D01*
X24326297Y-54136998D01*
X24275160Y-54184609D01*
X24257974Y-54191656D01*
X24081781Y-54248905D01*
X23892442Y-54345379D01*
X23720540Y-54470272D01*
X23720535Y-54470276D01*
X23570276Y-54620535D01*
X23570272Y-54620540D01*
X23445379Y-54792442D01*
X23348905Y-54981781D01*
X23291656Y-55157974D01*
X23252218Y-55215649D01*
X23187859Y-55242847D01*
X23119013Y-55230932D01*
X23067537Y-55183688D01*
X23059164Y-55167107D01*
X22990943Y-55002405D01*
X22875975Y-54830342D01*
X22729657Y-54684024D01*
X22562616Y-54572412D01*
X22557598Y-54569059D01*
X22557593Y-54569057D01*
X22366420Y-54489870D01*
X22366412Y-54489868D01*
X22163469Y-54449500D01*
X22163465Y-54449500D01*
X21956535Y-54449500D01*
X21956530Y-54449500D01*
X21753587Y-54489868D01*
X21753579Y-54489870D01*
X21562403Y-54569058D01*
X21390342Y-54684024D01*
X21244022Y-54830344D01*
X21132574Y-54997140D01*
X21078962Y-55041945D01*
X21009637Y-55050652D01*
X20946610Y-55020498D01*
X20909890Y-54961055D01*
X20909761Y-54960580D01*
X20901021Y-54927961D01*
X20901017Y-54927954D01*
X20861464Y-54859445D01*
X20861458Y-54859437D01*
X20160562Y-54158541D01*
X20160554Y-54158535D01*
X20092045Y-54118982D01*
X20092041Y-54118980D01*
X20092039Y-54118979D01*
X20092037Y-54118978D01*
X20092034Y-54118977D01*
X20059655Y-54110301D01*
X19999995Y-54073936D01*
X19969467Y-54011088D01*
X19977762Y-53941713D01*
X20022248Y-53887836D01*
X20022647Y-53887567D01*
X20189655Y-53775977D01*
X20335977Y-53629655D01*
X20450941Y-53457598D01*
X20530130Y-53266420D01*
X20570500Y-53063465D01*
X20570500Y-52856535D01*
X20530130Y-52653580D01*
X20480194Y-52533026D01*
X20472726Y-52463559D01*
X20504001Y-52401080D01*
X20507016Y-52397953D01*
X20818154Y-52086816D01*
X20879475Y-52053334D01*
X20905833Y-52050500D01*
X21184505Y-52050500D01*
X21251544Y-52070185D01*
G37*
%TD.AperFunction*%
%TA.AperFunction,Conductor*%
G36*
X43477362Y-53463488D02*
G01*
X43514082Y-53522931D01*
X43518500Y-53555737D01*
X43518500Y-54429950D01*
X43498815Y-54496989D01*
X43446011Y-54542744D01*
X43376853Y-54552688D01*
X43313297Y-54523663D01*
X43306819Y-54517631D01*
X43259464Y-54470276D01*
X43259459Y-54470272D01*
X43087557Y-54345379D01*
X42898216Y-54248904D01*
X42722026Y-54191656D01*
X42664350Y-54152218D01*
X42637152Y-54087860D01*
X42649067Y-54019013D01*
X42696311Y-53967538D01*
X42712882Y-53959168D01*
X42877598Y-53890941D01*
X43049655Y-53775977D01*
X43195977Y-53629655D01*
X43291398Y-53486845D01*
X43345009Y-53442041D01*
X43414334Y-53433334D01*
X43477362Y-53463488D01*
G37*
%TD.AperFunction*%
%TA.AperFunction,Conductor*%
G36*
X43277818Y-30081797D02*
G01*
X43298460Y-30098431D01*
X45063181Y-31863152D01*
X45096666Y-31924475D01*
X45099500Y-31950833D01*
X45099500Y-50649167D01*
X45079815Y-50716206D01*
X45063181Y-50736848D01*
X43578541Y-52221487D01*
X43578535Y-52221495D01*
X43538982Y-52290004D01*
X43538979Y-52290009D01*
X43518499Y-52366440D01*
X43517439Y-52374497D01*
X43515567Y-52374250D01*
X43498815Y-52431301D01*
X43446011Y-52477056D01*
X43376853Y-52487000D01*
X43313297Y-52457975D01*
X43291398Y-52433152D01*
X43195980Y-52290349D01*
X43195974Y-52290341D01*
X43049657Y-52144024D01*
X42881655Y-52031770D01*
X42877598Y-52029059D01*
X42806147Y-51999463D01*
X42686420Y-51949870D01*
X42686412Y-51949868D01*
X42483469Y-51909500D01*
X42483465Y-51909500D01*
X42276535Y-51909500D01*
X42276529Y-51909500D01*
X42276356Y-51909517D01*
X42276266Y-51909500D01*
X42270443Y-51909500D01*
X42270443Y-51908394D01*
X42207712Y-51896488D01*
X42157009Y-51848416D01*
X42140344Y-51780562D01*
X42163009Y-51714471D01*
X42176533Y-51698437D01*
X44565460Y-49309511D01*
X44605022Y-49240988D01*
X44625500Y-49164562D01*
X44625500Y-49085438D01*
X44625500Y-32560438D01*
X44605021Y-32484011D01*
X44582563Y-32445112D01*
X44565464Y-32415495D01*
X44565458Y-32415487D01*
X42423764Y-30273793D01*
X42390279Y-30212470D01*
X42395263Y-30142778D01*
X42437135Y-30086845D01*
X42502599Y-30062428D01*
X42511445Y-30062112D01*
X43210779Y-30062112D01*
X43277818Y-30081797D01*
G37*
%TD.AperFunction*%
%TA.AperFunction,Conductor*%
G36*
X44116206Y-29470185D02*
G01*
X44136848Y-29486819D01*
X46022181Y-31372152D01*
X46055666Y-31433475D01*
X46058500Y-31459833D01*
X46058500Y-52364262D01*
X46038815Y-52431301D01*
X45986011Y-52477056D01*
X45916853Y-52487000D01*
X45853297Y-52457975D01*
X45831398Y-52433152D01*
X45735980Y-52290349D01*
X45735974Y-52290341D01*
X45589657Y-52144024D01*
X45421655Y-52031770D01*
X45417598Y-52029059D01*
X45346147Y-51999463D01*
X45226420Y-51949870D01*
X45226412Y-51949868D01*
X45017490Y-51908311D01*
X45017900Y-51906249D01*
X44961963Y-51883658D01*
X44921608Y-51826621D01*
X44918496Y-51756821D01*
X44951230Y-51698740D01*
X45179991Y-51469979D01*
X45640460Y-51009511D01*
X45680022Y-50940988D01*
X45700500Y-50864562D01*
X45700500Y-50785438D01*
X45700500Y-31735438D01*
X45693052Y-31707642D01*
X45680022Y-31659012D01*
X45640460Y-31590489D01*
X43712152Y-29662181D01*
X43701539Y-29642744D01*
X43687039Y-29626011D01*
X43685122Y-29612679D01*
X43678667Y-29600858D01*
X43680246Y-29578771D01*
X43677095Y-29556853D01*
X43682690Y-29544601D01*
X43683651Y-29531166D01*
X43696921Y-29513439D01*
X43706120Y-29493297D01*
X43717451Y-29486014D01*
X43725523Y-29475233D01*
X43746268Y-29467495D01*
X43764898Y-29455523D01*
X43786816Y-29452371D01*
X43790987Y-29450816D01*
X43799833Y-29450500D01*
X44049167Y-29450500D01*
X44116206Y-29470185D01*
G37*
%TD.AperFunction*%
%TA.AperFunction,Conductor*%
G36*
X42041206Y-30745185D02*
G01*
X42061848Y-30761819D01*
X43988181Y-32688152D01*
X44021666Y-32749475D01*
X44024500Y-32775833D01*
X44024500Y-48949167D01*
X44004815Y-49016206D01*
X43988181Y-49036848D01*
X41611848Y-51413181D01*
X41550525Y-51446666D01*
X41524167Y-51449500D01*
X40645454Y-51449500D01*
X40578415Y-51429815D01*
X40532660Y-51377011D01*
X40522716Y-51307853D01*
X40551741Y-51244297D01*
X40610519Y-51206523D01*
X40613359Y-51205726D01*
X40614540Y-51205409D01*
X40615989Y-51205021D01*
X40684511Y-51165460D01*
X40740460Y-51109511D01*
X43515460Y-48334511D01*
X43555022Y-48265988D01*
X43575500Y-48189562D01*
X43575500Y-48110438D01*
X43575500Y-33235438D01*
X43555022Y-33159012D01*
X43515460Y-33090489D01*
X41362152Y-30937181D01*
X41328667Y-30875858D01*
X41333651Y-30806166D01*
X41375523Y-30750233D01*
X41440987Y-30725816D01*
X41449833Y-30725500D01*
X41974167Y-30725500D01*
X42041206Y-30745185D01*
G37*
%TD.AperFunction*%
%TA.AperFunction,Conductor*%
G36*
X27007354Y-48583662D02*
G01*
X27074377Y-48603394D01*
X27120094Y-48656231D01*
X27129988Y-48725396D01*
X27100918Y-48788931D01*
X27054716Y-48822223D01*
X26874087Y-48897042D01*
X26716441Y-49002377D01*
X26582377Y-49136441D01*
X26477042Y-49294087D01*
X26404488Y-49469248D01*
X26404486Y-49469256D01*
X26367500Y-49655197D01*
X26367500Y-49844802D01*
X26404486Y-50030743D01*
X26404488Y-50030751D01*
X26477042Y-50205912D01*
X26582377Y-50363558D01*
X26631638Y-50412819D01*
X26665123Y-50474142D01*
X26660139Y-50543834D01*
X26618267Y-50599767D01*
X26552803Y-50624184D01*
X26543957Y-50624500D01*
X25576043Y-50624500D01*
X25509004Y-50604815D01*
X25463249Y-50552011D01*
X25453305Y-50482853D01*
X25482330Y-50419297D01*
X25488362Y-50412819D01*
X25537619Y-50363561D01*
X25537622Y-50363558D01*
X25613499Y-50250000D01*
X25642956Y-50205915D01*
X25715512Y-50030751D01*
X25752500Y-49844798D01*
X25752500Y-49655202D01*
X25752499Y-49655199D01*
X25752499Y-49655197D01*
X25715513Y-49469256D01*
X25715512Y-49469249D01*
X25642956Y-49294085D01*
X25607478Y-49240988D01*
X25537622Y-49136441D01*
X25403558Y-49002377D01*
X25245912Y-48897042D01*
X25079500Y-48828112D01*
X25070751Y-48824488D01*
X25070750Y-48824487D01*
X25065123Y-48822157D01*
X25065748Y-48820647D01*
X25013910Y-48786676D01*
X24985453Y-48722865D01*
X24996012Y-48653798D01*
X25042236Y-48601403D01*
X25108429Y-48582312D01*
X27007354Y-48583662D01*
G37*
%TD.AperFunction*%
%TA.AperFunction,Conductor*%
G36*
X29542997Y-48585466D02*
G01*
X29610023Y-48605198D01*
X29655740Y-48658035D01*
X29665634Y-48727200D01*
X29636564Y-48790735D01*
X29590362Y-48824027D01*
X29414087Y-48897042D01*
X29256441Y-49002377D01*
X29122377Y-49136441D01*
X29017042Y-49294087D01*
X28944488Y-49469248D01*
X28944486Y-49469256D01*
X28907500Y-49655197D01*
X28907500Y-49844802D01*
X28944486Y-50030743D01*
X28944488Y-50030751D01*
X29017042Y-50205912D01*
X29122377Y-50363558D01*
X29171638Y-50412819D01*
X29205123Y-50474142D01*
X29200139Y-50543834D01*
X29158267Y-50599767D01*
X29092803Y-50624184D01*
X29083957Y-50624500D01*
X28116043Y-50624500D01*
X28049004Y-50604815D01*
X28003249Y-50552011D01*
X27993305Y-50482853D01*
X28022330Y-50419297D01*
X28028362Y-50412819D01*
X28077619Y-50363561D01*
X28077622Y-50363558D01*
X28153499Y-50250000D01*
X28182956Y-50205915D01*
X28255512Y-50030751D01*
X28292500Y-49844798D01*
X28292500Y-49655202D01*
X28292499Y-49655199D01*
X28292499Y-49655197D01*
X28255513Y-49469256D01*
X28255512Y-49469249D01*
X28182956Y-49294085D01*
X28147478Y-49240988D01*
X28077622Y-49136441D01*
X27943558Y-49002377D01*
X27785912Y-48897042D01*
X27606394Y-48822683D01*
X27551991Y-48778842D01*
X27529926Y-48712547D01*
X27547205Y-48644848D01*
X27598343Y-48597238D01*
X27653931Y-48584122D01*
X29542997Y-48585466D01*
G37*
%TD.AperFunction*%
%TA.AperFunction,Conductor*%
G36*
X34614292Y-48589072D02*
G01*
X34681315Y-48608804D01*
X34727032Y-48661641D01*
X34736926Y-48730806D01*
X34707856Y-48794341D01*
X34661655Y-48827633D01*
X34494085Y-48897043D01*
X34336441Y-49002377D01*
X34202377Y-49136441D01*
X34097042Y-49294087D01*
X34024488Y-49469248D01*
X34024486Y-49469256D01*
X33987500Y-49655197D01*
X33987500Y-49844802D01*
X34024486Y-50030743D01*
X34024488Y-50030751D01*
X34097042Y-50205912D01*
X34202377Y-50363558D01*
X34251638Y-50412819D01*
X34285123Y-50474142D01*
X34280139Y-50543834D01*
X34238267Y-50599767D01*
X34172803Y-50624184D01*
X34163957Y-50624500D01*
X33196043Y-50624500D01*
X33129004Y-50604815D01*
X33083249Y-50552011D01*
X33073305Y-50482853D01*
X33102330Y-50419297D01*
X33108362Y-50412819D01*
X33157619Y-50363561D01*
X33157622Y-50363558D01*
X33233499Y-50250000D01*
X33262956Y-50205915D01*
X33335512Y-50030751D01*
X33372500Y-49844798D01*
X33372500Y-49655202D01*
X33372499Y-49655199D01*
X33372499Y-49655197D01*
X33335513Y-49469256D01*
X33335512Y-49469249D01*
X33262956Y-49294085D01*
X33227478Y-49240988D01*
X33157622Y-49136441D01*
X33023558Y-49002377D01*
X32865912Y-48897042D01*
X32695131Y-48826302D01*
X32640728Y-48782461D01*
X32618663Y-48716166D01*
X32635942Y-48648467D01*
X32687080Y-48600857D01*
X32742668Y-48587741D01*
X34614292Y-48589072D01*
G37*
%TD.AperFunction*%
%TA.AperFunction,Conductor*%
G36*
X40840206Y-31269185D02*
G01*
X40860848Y-31285819D01*
X42938181Y-33363152D01*
X42971666Y-33424475D01*
X42974500Y-33450833D01*
X42974500Y-47974167D01*
X42954815Y-48041206D01*
X42938181Y-48061848D01*
X40411848Y-50588181D01*
X40350525Y-50621666D01*
X40324167Y-50624500D01*
X35736043Y-50624500D01*
X35669004Y-50604815D01*
X35623249Y-50552011D01*
X35613305Y-50482853D01*
X35642330Y-50419297D01*
X35648362Y-50412819D01*
X35697619Y-50363561D01*
X35697622Y-50363558D01*
X35773499Y-50250000D01*
X35802956Y-50205915D01*
X35875512Y-50030751D01*
X35912500Y-49844798D01*
X35912500Y-49655202D01*
X35912499Y-49655199D01*
X35912499Y-49655197D01*
X35875513Y-49469256D01*
X35875512Y-49469249D01*
X35802956Y-49294085D01*
X35767478Y-49240988D01*
X35697622Y-49136441D01*
X35563558Y-49002377D01*
X35405912Y-48897042D01*
X35239500Y-48828112D01*
X35185097Y-48784271D01*
X35163032Y-48717977D01*
X35180311Y-48650277D01*
X35231449Y-48602667D01*
X35287039Y-48589551D01*
X36579978Y-48590471D01*
X36579985Y-48590474D01*
X36625890Y-48590502D01*
X36625891Y-48590503D01*
X36625892Y-48590503D01*
X36626003Y-48590503D01*
X36649547Y-48590520D01*
X36656618Y-48591108D01*
X36658275Y-48591014D01*
X36659735Y-48590527D01*
X36659739Y-48590528D01*
X36659741Y-48590525D01*
X36659744Y-48590525D01*
X36659749Y-48590526D01*
X36659779Y-48590513D01*
X36663925Y-48589134D01*
X36663925Y-48589133D01*
X36663931Y-48589132D01*
X36669301Y-48587344D01*
X36674216Y-48584544D01*
X36692333Y-48577054D01*
X36733453Y-48560057D01*
X36733457Y-48560052D01*
X36733461Y-48560051D01*
X36761540Y-48532008D01*
X36785098Y-48508483D01*
X36789319Y-48504709D01*
X36789891Y-48503698D01*
X36789895Y-48503695D01*
X36789896Y-48503691D01*
X36789901Y-48503687D01*
X36789908Y-48503667D01*
X36791623Y-48500643D01*
X36793419Y-48495207D01*
X36811973Y-48450500D01*
X36820273Y-48430499D01*
X36820470Y-48430035D01*
X36820474Y-48430015D01*
X36820511Y-48372686D01*
X36820511Y-48372672D01*
X36820513Y-48369857D01*
X36820528Y-48350261D01*
X36820527Y-48350260D01*
X36820541Y-48331902D01*
X36820538Y-48331876D01*
X36820607Y-48228124D01*
X36830473Y-33334963D01*
X36830492Y-33334918D01*
X36830499Y-33295343D01*
X36830526Y-33255251D01*
X36830526Y-33255199D01*
X36815098Y-33217936D01*
X36815098Y-33217935D01*
X36815091Y-33217919D01*
X36800051Y-33181539D01*
X36800049Y-33181537D01*
X36800047Y-33181532D01*
X36799995Y-33181453D01*
X36771382Y-33152831D01*
X36771382Y-33152830D01*
X36771342Y-33152791D01*
X36771338Y-33152788D01*
X36770402Y-33151851D01*
X36743687Y-33125100D01*
X36743640Y-33125080D01*
X36743604Y-33125044D01*
X36743600Y-33125042D01*
X36720547Y-33115488D01*
X36705986Y-33109454D01*
X36670015Y-33094527D01*
X36669965Y-33094526D01*
X36669917Y-33094507D01*
X36669548Y-33094506D01*
X36669546Y-33094506D01*
X36629014Y-33094499D01*
X36629013Y-33094499D01*
X36628960Y-33094498D01*
X36628960Y-33094499D01*
X36628935Y-33094498D01*
X36626827Y-33094497D01*
X36590251Y-33094474D01*
X36590207Y-33094491D01*
X36578568Y-33094489D01*
X36578567Y-33094488D01*
X35374259Y-33094275D01*
X35307223Y-33074579D01*
X35261477Y-33021766D01*
X35251546Y-32952606D01*
X35280582Y-32889056D01*
X35326825Y-32855716D01*
X35405915Y-32822956D01*
X35563558Y-32717622D01*
X35697622Y-32583558D01*
X35802956Y-32425915D01*
X35875512Y-32250751D01*
X35912500Y-32064798D01*
X35912500Y-31875202D01*
X35875512Y-31689249D01*
X35802956Y-31514085D01*
X35755050Y-31442389D01*
X35734173Y-31375714D01*
X35752657Y-31308333D01*
X35804636Y-31261643D01*
X35858153Y-31249500D01*
X40773167Y-31249500D01*
X40840206Y-31269185D01*
G37*
%TD.AperFunction*%
%TA.AperFunction,Conductor*%
G36*
X34051598Y-31252363D02*
G01*
X34061682Y-31251097D01*
X34084556Y-31262040D01*
X34108886Y-31269185D01*
X34115540Y-31276865D01*
X34124710Y-31281252D01*
X34138037Y-31302828D01*
X34154641Y-31321989D01*
X34156087Y-31332047D01*
X34161429Y-31340695D01*
X34160976Y-31366050D01*
X34164585Y-31391147D01*
X34160330Y-31402250D01*
X34160182Y-31410553D01*
X34144950Y-31442388D01*
X34133294Y-31459833D01*
X34097042Y-31514087D01*
X34024488Y-31689248D01*
X34024486Y-31689256D01*
X33987500Y-31875197D01*
X33987500Y-32064802D01*
X34024486Y-32250743D01*
X34024488Y-32250751D01*
X34097042Y-32425912D01*
X34202377Y-32583558D01*
X34336441Y-32717622D01*
X34434799Y-32783342D01*
X34494085Y-32822956D01*
X34494086Y-32822956D01*
X34494087Y-32822957D01*
X34494089Y-32822958D01*
X34543435Y-32843397D01*
X34572080Y-32855263D01*
X34572805Y-32855563D01*
X34627209Y-32899403D01*
X34649274Y-32965698D01*
X34631995Y-33033397D01*
X34580858Y-33081008D01*
X34525331Y-33094124D01*
X32835349Y-33093824D01*
X32768313Y-33074128D01*
X32722567Y-33021315D01*
X32712636Y-32952155D01*
X32741672Y-32888605D01*
X32787917Y-32855263D01*
X32865915Y-32822956D01*
X33023558Y-32717622D01*
X33157622Y-32583558D01*
X33262956Y-32425915D01*
X33335512Y-32250751D01*
X33372500Y-32064798D01*
X33372500Y-31875202D01*
X33335512Y-31689249D01*
X33262956Y-31514085D01*
X33215050Y-31442389D01*
X33194173Y-31375714D01*
X33212657Y-31308333D01*
X33264636Y-31261643D01*
X33318153Y-31249500D01*
X34041847Y-31249500D01*
X34051598Y-31252363D01*
G37*
%TD.AperFunction*%
%TA.AperFunction,Conductor*%
G36*
X31568886Y-31269185D02*
G01*
X31614641Y-31321989D01*
X31624585Y-31391147D01*
X31604949Y-31442389D01*
X31593294Y-31459833D01*
X31557042Y-31514087D01*
X31484488Y-31689248D01*
X31484486Y-31689256D01*
X31447500Y-31875197D01*
X31447500Y-32064802D01*
X31484486Y-32250743D01*
X31484488Y-32250751D01*
X31557042Y-32425912D01*
X31662377Y-32583558D01*
X31796441Y-32717622D01*
X31894799Y-32783342D01*
X31954085Y-32822956D01*
X31954086Y-32822956D01*
X31954087Y-32822957D01*
X31983495Y-32835138D01*
X32030991Y-32854812D01*
X32031716Y-32855112D01*
X32086119Y-32898953D01*
X32108184Y-32965247D01*
X32090905Y-33032946D01*
X32039768Y-33080557D01*
X31984241Y-33093673D01*
X30296439Y-33093373D01*
X30229403Y-33073677D01*
X30183657Y-33020864D01*
X30173726Y-32951704D01*
X30202762Y-32888154D01*
X30249007Y-32854812D01*
X30296539Y-32835124D01*
X30325913Y-32822957D01*
X30325913Y-32822956D01*
X30325915Y-32822956D01*
X30483558Y-32717622D01*
X30617622Y-32583558D01*
X30722956Y-32425915D01*
X30795512Y-32250751D01*
X30832500Y-32064798D01*
X30832500Y-31875202D01*
X30795512Y-31689249D01*
X30722956Y-31514085D01*
X30675050Y-31442389D01*
X30654173Y-31375714D01*
X30672657Y-31308333D01*
X30724636Y-31261643D01*
X30778153Y-31249500D01*
X31501847Y-31249500D01*
X31568886Y-31269185D01*
G37*
%TD.AperFunction*%
%TA.AperFunction,Conductor*%
G36*
X29028886Y-31269185D02*
G01*
X29074641Y-31321989D01*
X29084585Y-31391147D01*
X29064949Y-31442389D01*
X29053294Y-31459833D01*
X29017042Y-31514087D01*
X28944488Y-31689248D01*
X28944486Y-31689256D01*
X28907500Y-31875197D01*
X28907500Y-32064802D01*
X28944486Y-32250743D01*
X28944488Y-32250751D01*
X29017042Y-32425912D01*
X29122377Y-32583558D01*
X29256441Y-32717622D01*
X29414086Y-32822957D01*
X29470427Y-32846293D01*
X29490625Y-32854660D01*
X29545028Y-32898501D01*
X29567093Y-32964795D01*
X29549814Y-33032494D01*
X29498677Y-33080105D01*
X29443150Y-33093221D01*
X27757528Y-33092921D01*
X27690492Y-33073225D01*
X27644746Y-33020412D01*
X27634815Y-32951252D01*
X27663852Y-32887702D01*
X27710094Y-32854362D01*
X27785915Y-32822956D01*
X27943558Y-32717622D01*
X28077622Y-32583558D01*
X28182956Y-32425915D01*
X28255512Y-32250751D01*
X28292500Y-32064798D01*
X28292500Y-31875202D01*
X28255512Y-31689249D01*
X28182956Y-31514085D01*
X28135050Y-31442389D01*
X28114173Y-31375714D01*
X28132657Y-31308333D01*
X28184636Y-31261643D01*
X28238153Y-31249500D01*
X28961847Y-31249500D01*
X29028886Y-31269185D01*
G37*
%TD.AperFunction*%
%TA.AperFunction,Conductor*%
G36*
X26488886Y-31269185D02*
G01*
X26534641Y-31321989D01*
X26544585Y-31391147D01*
X26524949Y-31442389D01*
X26513294Y-31459833D01*
X26477042Y-31514087D01*
X26404488Y-31689248D01*
X26404486Y-31689256D01*
X26367500Y-31875197D01*
X26367500Y-32064802D01*
X26404486Y-32250743D01*
X26404488Y-32250751D01*
X26477042Y-32425912D01*
X26582377Y-32583558D01*
X26716441Y-32717622D01*
X26814799Y-32783342D01*
X26874085Y-32822956D01*
X26874086Y-32822956D01*
X26874087Y-32822957D01*
X26874089Y-32822958D01*
X26914424Y-32839665D01*
X26949534Y-32854208D01*
X27003938Y-32898048D01*
X27026003Y-32964342D01*
X27008724Y-33032042D01*
X26957587Y-33079653D01*
X26902060Y-33092769D01*
X25218618Y-33092470D01*
X25151582Y-33072774D01*
X25105836Y-33019961D01*
X25095905Y-32950801D01*
X25124941Y-32887251D01*
X25171187Y-32853909D01*
X25245915Y-32822956D01*
X25403558Y-32717622D01*
X25537622Y-32583558D01*
X25642956Y-32425915D01*
X25715512Y-32250751D01*
X25752500Y-32064798D01*
X25752500Y-31875202D01*
X25715512Y-31689249D01*
X25642956Y-31514085D01*
X25595050Y-31442389D01*
X25574173Y-31375714D01*
X25592657Y-31308333D01*
X25644636Y-31261643D01*
X25698153Y-31249500D01*
X26421847Y-31249500D01*
X26488886Y-31269185D01*
G37*
%TD.AperFunction*%
%TA.AperFunction,Conductor*%
G36*
X23948886Y-31269185D02*
G01*
X23994641Y-31321989D01*
X24004585Y-31391147D01*
X23984949Y-31442389D01*
X23973294Y-31459833D01*
X23937042Y-31514087D01*
X23864488Y-31689248D01*
X23864486Y-31689256D01*
X23827500Y-31875197D01*
X23827500Y-32064802D01*
X23864486Y-32250743D01*
X23864488Y-32250751D01*
X23937042Y-32425912D01*
X24042377Y-32583558D01*
X24176441Y-32717622D01*
X24274799Y-32783342D01*
X24334085Y-32822956D01*
X24334086Y-32822956D01*
X24334087Y-32822957D01*
X24408444Y-32853757D01*
X24462847Y-32897598D01*
X24484912Y-32963893D01*
X24467633Y-33031592D01*
X24416495Y-33079202D01*
X24360969Y-33092318D01*
X22679708Y-33092019D01*
X22612672Y-33072323D01*
X22566926Y-33019510D01*
X22556995Y-32950350D01*
X22586031Y-32886800D01*
X22632277Y-32853458D01*
X22632647Y-32853305D01*
X22676505Y-32835138D01*
X22705913Y-32822957D01*
X22705913Y-32822956D01*
X22705915Y-32822956D01*
X22863558Y-32717622D01*
X22997622Y-32583558D01*
X23102956Y-32425915D01*
X23175512Y-32250751D01*
X23212500Y-32064798D01*
X23212500Y-31875202D01*
X23175512Y-31689249D01*
X23114068Y-31540911D01*
X23105200Y-31519502D01*
X23103062Y-31499624D01*
X23096077Y-31480894D01*
X23099404Y-31465597D01*
X23097731Y-31450033D01*
X23106679Y-31432156D01*
X23110929Y-31412621D01*
X23127614Y-31390333D01*
X23129006Y-31387553D01*
X23132043Y-31384405D01*
X23230632Y-31285818D01*
X23291955Y-31252334D01*
X23318312Y-31249500D01*
X23881847Y-31249500D01*
X23948886Y-31269185D01*
G37*
%TD.AperFunction*%
%TA.AperFunction,Conductor*%
G36*
X22708684Y-30745185D02*
G01*
X22754439Y-30797989D01*
X22764383Y-30867147D01*
X22735358Y-30930703D01*
X22729334Y-30937173D01*
X22669684Y-30996822D01*
X22653331Y-31013176D01*
X22592007Y-31046660D01*
X22536969Y-31044452D01*
X22536726Y-31045676D01*
X22344802Y-31007500D01*
X22344798Y-31007500D01*
X22155202Y-31007500D01*
X22155197Y-31007500D01*
X21969256Y-31044486D01*
X21969248Y-31044488D01*
X21794087Y-31117042D01*
X21636441Y-31222377D01*
X21502377Y-31356441D01*
X21397042Y-31514087D01*
X21324488Y-31689248D01*
X21324486Y-31689256D01*
X21287500Y-31875197D01*
X21287500Y-32064802D01*
X21324486Y-32250743D01*
X21324488Y-32250751D01*
X21397042Y-32425912D01*
X21502377Y-32583558D01*
X21636441Y-32717622D01*
X21734799Y-32783342D01*
X21794085Y-32822956D01*
X21794086Y-32822956D01*
X21794087Y-32822957D01*
X21867353Y-32853305D01*
X21921756Y-32897146D01*
X21943821Y-32963440D01*
X21926542Y-33031140D01*
X21875404Y-33078750D01*
X21819878Y-33091866D01*
X20140797Y-33091567D01*
X20073761Y-33071870D01*
X20028015Y-33019058D01*
X20018084Y-32949898D01*
X20047121Y-32886348D01*
X20093361Y-32853008D01*
X20165915Y-32822956D01*
X20323558Y-32717622D01*
X20457622Y-32583558D01*
X20562956Y-32425915D01*
X20635512Y-32250751D01*
X20672500Y-32064798D01*
X20672500Y-31875202D01*
X20635512Y-31689249D01*
X20562956Y-31514085D01*
X20520158Y-31450033D01*
X20457622Y-31356441D01*
X20323558Y-31222377D01*
X20229312Y-31159404D01*
X20165915Y-31117044D01*
X20165912Y-31117042D01*
X20165911Y-31117042D01*
X20156613Y-31113190D01*
X20131065Y-31092600D01*
X20104804Y-31072941D01*
X20104001Y-31070788D01*
X20102211Y-31069346D01*
X20091849Y-31038209D01*
X20080387Y-31007477D01*
X20080875Y-31005231D01*
X20080150Y-31003051D01*
X20088266Y-30971257D01*
X20095239Y-30939204D01*
X20097074Y-30936751D01*
X20097432Y-30935352D01*
X20116383Y-30910957D01*
X20265524Y-30761816D01*
X20326845Y-30728334D01*
X20353203Y-30725500D01*
X22641645Y-30725500D01*
X22708684Y-30745185D01*
G37*
%TD.AperFunction*%
%TA.AperFunction,Conductor*%
G36*
X19882964Y-30081797D02*
G01*
X19928719Y-30134601D01*
X19938663Y-30203759D01*
X19909638Y-30267315D01*
X19903606Y-30273793D01*
X19469541Y-30707857D01*
X19469535Y-30707865D01*
X19429982Y-30776374D01*
X19429979Y-30776379D01*
X19409500Y-30852809D01*
X19409500Y-30969814D01*
X19389815Y-31036853D01*
X19337011Y-31082608D01*
X19332953Y-31084375D01*
X19254087Y-31117042D01*
X19096441Y-31222377D01*
X18962377Y-31356441D01*
X18857042Y-31514087D01*
X18784488Y-31689248D01*
X18784486Y-31689256D01*
X18747500Y-31875197D01*
X18747500Y-32064802D01*
X18784486Y-32250743D01*
X18784488Y-32250751D01*
X18857042Y-32425912D01*
X18962377Y-32583558D01*
X19096441Y-32717622D01*
X19194799Y-32783342D01*
X19254085Y-32822956D01*
X19254086Y-32822956D01*
X19254087Y-32822957D01*
X19254089Y-32822958D01*
X19326262Y-32852853D01*
X19380666Y-32896694D01*
X19402731Y-32962988D01*
X19385452Y-33030687D01*
X19334315Y-33078298D01*
X19278788Y-33091414D01*
X17601887Y-33091116D01*
X17534851Y-33071420D01*
X17489105Y-33018607D01*
X17479174Y-32949447D01*
X17508210Y-32885897D01*
X17554457Y-32852555D01*
X17558103Y-32851045D01*
X17625915Y-32822956D01*
X17783558Y-32717622D01*
X17917622Y-32583558D01*
X18022956Y-32425915D01*
X18095512Y-32250751D01*
X18132500Y-32064798D01*
X18132500Y-31875202D01*
X18095512Y-31689249D01*
X18062843Y-31610380D01*
X18055374Y-31540911D01*
X18086649Y-31478431D01*
X18089694Y-31475275D01*
X19466540Y-30098431D01*
X19527863Y-30064946D01*
X19554221Y-30062112D01*
X19815925Y-30062112D01*
X19882964Y-30081797D01*
G37*
%TD.AperFunction*%
%TA.AperFunction,Conductor*%
G36*
X19032206Y-29470185D02*
G01*
X19077961Y-29522989D01*
X19087905Y-29592147D01*
X19058880Y-29655703D01*
X19052848Y-29662181D01*
X17664751Y-31050276D01*
X17603428Y-31083761D01*
X17533736Y-31078777D01*
X17529637Y-31077164D01*
X17450751Y-31044488D01*
X17450743Y-31044486D01*
X17264802Y-31007500D01*
X17264798Y-31007500D01*
X17075202Y-31007500D01*
X17075197Y-31007500D01*
X16889256Y-31044486D01*
X16889248Y-31044488D01*
X16714087Y-31117042D01*
X16556441Y-31222377D01*
X16422377Y-31356441D01*
X16317042Y-31514087D01*
X16244488Y-31689248D01*
X16244486Y-31689256D01*
X16207500Y-31875197D01*
X16207500Y-32064802D01*
X16244486Y-32250743D01*
X16244488Y-32250751D01*
X16317042Y-32425912D01*
X16422377Y-32583558D01*
X16556441Y-32717622D01*
X16654799Y-32783342D01*
X16714085Y-32822956D01*
X16714086Y-32822956D01*
X16714087Y-32822957D01*
X16714089Y-32822958D01*
X16785171Y-32852401D01*
X16839575Y-32896242D01*
X16861640Y-32962536D01*
X16844361Y-33030235D01*
X16793224Y-33077846D01*
X16737697Y-33090962D01*
X15062976Y-33090665D01*
X14995940Y-33070969D01*
X14950194Y-33018156D01*
X14940263Y-32948996D01*
X14969299Y-32885446D01*
X15015546Y-32852104D01*
X15085910Y-32822958D01*
X15085909Y-32822958D01*
X15085915Y-32822956D01*
X15243558Y-32717622D01*
X15377622Y-32583558D01*
X15482956Y-32425915D01*
X15555512Y-32250751D01*
X15592500Y-32064798D01*
X15592500Y-31875202D01*
X15555512Y-31689249D01*
X15522843Y-31610380D01*
X15515374Y-31540911D01*
X15546649Y-31478431D01*
X15549694Y-31475275D01*
X17538152Y-29486819D01*
X17599475Y-29453334D01*
X17625833Y-29450500D01*
X18965167Y-29450500D01*
X19032206Y-29470185D01*
G37*
%TD.AperFunction*%
%TA.AperFunction,Conductor*%
G36*
X17242206Y-28720185D02*
G01*
X17287961Y-28772989D01*
X17297905Y-28842147D01*
X17268880Y-28905703D01*
X17262848Y-28912181D01*
X15124751Y-31050276D01*
X15063428Y-31083761D01*
X14993736Y-31078777D01*
X14989637Y-31077164D01*
X14910751Y-31044488D01*
X14910743Y-31044486D01*
X14724802Y-31007500D01*
X14724798Y-31007500D01*
X14535202Y-31007500D01*
X14535197Y-31007500D01*
X14349256Y-31044486D01*
X14349248Y-31044488D01*
X14174087Y-31117042D01*
X14016441Y-31222377D01*
X13882377Y-31356441D01*
X13777042Y-31514087D01*
X13704488Y-31689248D01*
X13704486Y-31689256D01*
X13667500Y-31875197D01*
X13667500Y-32064802D01*
X13704486Y-32250743D01*
X13704488Y-32250751D01*
X13777042Y-32425912D01*
X13882377Y-32583558D01*
X14016441Y-32717622D01*
X14114799Y-32783342D01*
X14174085Y-32822956D01*
X14174086Y-32822956D01*
X14174087Y-32822957D01*
X14244082Y-32851950D01*
X14298485Y-32895791D01*
X14320550Y-32962085D01*
X14303271Y-33029785D01*
X14252133Y-33077395D01*
X14196607Y-33090511D01*
X12908069Y-33090282D01*
X12841033Y-33070586D01*
X12820410Y-33053963D01*
X12219410Y-32452962D01*
X12282993Y-32435925D01*
X12397007Y-32370099D01*
X12490099Y-32277007D01*
X12555925Y-32162993D01*
X12572962Y-32099409D01*
X13142268Y-32668715D01*
X13169362Y-32631425D01*
X13259542Y-32454437D01*
X13320924Y-32265523D01*
X13320924Y-32265520D01*
X13352000Y-32069321D01*
X13352000Y-31870678D01*
X13320924Y-31674479D01*
X13320924Y-31674476D01*
X13259542Y-31485562D01*
X13169358Y-31308567D01*
X13142268Y-31271283D01*
X12572962Y-31840589D01*
X12555925Y-31777007D01*
X12490099Y-31662993D01*
X12397007Y-31569901D01*
X12282993Y-31504075D01*
X12219409Y-31487037D01*
X12788716Y-30917731D01*
X12788715Y-30917730D01*
X12751432Y-30890641D01*
X12574437Y-30800457D01*
X12385522Y-30739075D01*
X12189321Y-30708000D01*
X11990679Y-30708000D01*
X11794479Y-30739075D01*
X11794476Y-30739075D01*
X11605562Y-30800457D01*
X11428564Y-30890643D01*
X11391283Y-30917729D01*
X11391282Y-30917730D01*
X11960590Y-31487037D01*
X11897007Y-31504075D01*
X11782993Y-31569901D01*
X11689901Y-31662993D01*
X11624075Y-31777007D01*
X11607037Y-31840590D01*
X11037730Y-31271282D01*
X11037729Y-31271283D01*
X11010643Y-31308564D01*
X10920457Y-31485562D01*
X10859075Y-31674476D01*
X10859075Y-31674479D01*
X10828000Y-31870678D01*
X10828000Y-32069321D01*
X10859075Y-32265520D01*
X10859075Y-32265523D01*
X10920457Y-32454437D01*
X11010641Y-32631432D01*
X11037730Y-32668715D01*
X11037731Y-32668716D01*
X11607037Y-32099409D01*
X11624075Y-32162993D01*
X11689901Y-32277007D01*
X11782993Y-32370099D01*
X11897007Y-32435925D01*
X11960590Y-32452962D01*
X11359878Y-33053673D01*
X11298555Y-33087158D01*
X11272175Y-33089992D01*
X9998213Y-33089765D01*
X9931177Y-33070068D01*
X9885431Y-33017256D01*
X9875500Y-32948096D01*
X9904537Y-32884546D01*
X9950780Y-32851205D01*
X9989583Y-32835133D01*
X10025112Y-32816143D01*
X10149917Y-32732751D01*
X10181057Y-32707194D01*
X10287194Y-32601057D01*
X10312751Y-32569917D01*
X10396143Y-32445112D01*
X10415133Y-32409583D01*
X10472574Y-32270908D01*
X10484268Y-32232358D01*
X10513551Y-32085141D01*
X10517500Y-32045050D01*
X10517500Y-31894950D01*
X10513551Y-31854859D01*
X10484268Y-31707642D01*
X10472574Y-31669092D01*
X10415133Y-31530417D01*
X10406404Y-31514085D01*
X10396150Y-31494900D01*
X10396139Y-31494882D01*
X10312752Y-31370084D01*
X10287194Y-31338943D01*
X10181056Y-31232805D01*
X10149915Y-31207247D01*
X10025117Y-31123860D01*
X10025099Y-31123849D01*
X9989599Y-31104875D01*
X9989577Y-31104864D01*
X9940111Y-31084375D01*
X9896543Y-31066328D01*
X9850909Y-31047426D01*
X9834888Y-31042566D01*
X9812358Y-31035732D01*
X9812353Y-31035731D01*
X9812350Y-31035730D01*
X9665142Y-31006449D01*
X9665143Y-31006449D01*
X9653686Y-31005320D01*
X9625050Y-31002500D01*
X9474950Y-31002500D01*
X9446313Y-31005320D01*
X9434857Y-31006449D01*
X9287649Y-31035730D01*
X9249090Y-31047426D01*
X9110422Y-31104864D01*
X9110400Y-31104875D01*
X9074900Y-31123849D01*
X9074882Y-31123860D01*
X8950087Y-31207245D01*
X8932919Y-31221335D01*
X8908666Y-31231634D01*
X8886146Y-31245309D01*
X8877016Y-31245076D01*
X8868608Y-31248647D01*
X8842636Y-31244199D01*
X8816299Y-31243528D01*
X8808743Y-31238395D01*
X8799741Y-31236854D01*
X8780299Y-31219073D01*
X8758503Y-31204267D01*
X8754921Y-31195863D01*
X8748182Y-31189700D01*
X8741439Y-31164233D01*
X8731108Y-31139992D01*
X8731452Y-31126505D01*
X8730301Y-31122158D01*
X8732006Y-31104723D01*
X8769523Y-30883915D01*
X8772616Y-30870363D01*
X8777674Y-30852809D01*
X8855673Y-30582068D01*
X8860265Y-30568948D01*
X8948684Y-30355485D01*
X8975075Y-30291768D01*
X8981097Y-30279262D01*
X9126230Y-30016665D01*
X9133625Y-30004897D01*
X9307245Y-29760201D01*
X9315896Y-29749354D01*
X9515816Y-29525645D01*
X9525647Y-29515815D01*
X9528306Y-29513439D01*
X9749354Y-29315896D01*
X9760201Y-29307245D01*
X10004902Y-29133621D01*
X10016665Y-29126230D01*
X10279262Y-28981097D01*
X10291768Y-28975075D01*
X10568948Y-28860265D01*
X10582068Y-28855673D01*
X10870369Y-28772614D01*
X10883915Y-28769523D01*
X11179700Y-28719267D01*
X11193494Y-28717713D01*
X11496528Y-28700695D01*
X11503481Y-28700500D01*
X11539882Y-28700500D01*
X17175167Y-28700500D01*
X17242206Y-28720185D01*
G37*
%TD.AperFunction*%
%TD*%
M02*
