%TF.GenerationSoftware,KiCad,Pcbnew,9.0.4*%
%TF.CreationDate,2026-03-05T19:36:07-05:00*%
%TF.ProjectId,seedsigner-luckfox-pico-mini,73656564-7369-4676-9e65-722d6c75636b,sdfsdf*%
%TF.SameCoordinates,Original*%
%TF.FileFunction,Copper,L2,Inr*%
%TF.FilePolarity,Positive*%
%FSLAX46Y46*%
G04 Gerber Fmt 4.6, Leading zero omitted, Abs format (unit mm)*
G04 Created by KiCad (PCBNEW 9.0.4) date 2026-03-05 19:36:07*
%MOMM*%
%LPD*%
G01*
G04 APERTURE LIST*
G04 Aperture macros list*
%AMFreePoly0*
4,1,33,0.221197,0.729189,0.359204,0.672024,0.483408,0.589034,0.589034,0.483408,0.672024,0.359204,0.729189,0.221197,0.758331,0.074689,0.758331,-0.074689,0.729189,-0.221197,0.672024,-0.359204,0.589034,-0.483408,0.483408,-0.589034,0.359204,-0.672024,0.221197,-0.729189,0.074689,-0.758331,-0.074689,-0.758331,-0.221197,-0.729189,-0.359204,-0.672024,-0.483408,-0.589034,-0.589034,-0.483408,
-0.672024,-0.359204,-0.729189,-0.221197,-0.758331,-0.074689,-0.758331,0.074689,-0.729189,0.221197,-0.672024,0.359204,-0.589034,0.483408,-0.483408,0.589034,-0.359204,0.672024,-0.221197,0.729189,-0.074689,0.758331,0.074689,0.758331,0.221197,0.729189,0.221197,0.729189,$1*%
G04 Aperture macros list end*
%TA.AperFunction,ComponentPad*%
%ADD10C,1.524000*%
%TD*%
%TA.AperFunction,ComponentPad*%
%ADD11FreePoly0,90.000000*%
%TD*%
%TA.AperFunction,WasherPad*%
%ADD12C,3.500000*%
%TD*%
%TA.AperFunction,ComponentPad*%
%ADD13R,1.700000X1.700000*%
%TD*%
%TA.AperFunction,ComponentPad*%
%ADD14O,1.700000X1.700000*%
%TD*%
%TA.AperFunction,ViaPad*%
%ADD15C,0.500000*%
%TD*%
%TA.AperFunction,Conductor*%
%ADD16C,0.150000*%
%TD*%
%TA.AperFunction,Conductor*%
%ADD17C,0.200000*%
%TD*%
G04 APERTURE END LIST*
D10*
%TO.N,+5V*%
%TO.C,U1*%
X9550000Y-49750000D03*
%TO.N,GND*%
X12090000Y-49750000D03*
%TO.N,+3.3V*%
X14630000Y-49750000D03*
%TO.N,/UART_TXD*%
X17170000Y-49750000D03*
%TO.N,/UART_RXD*%
X19710000Y-49750000D03*
%TO.N,Net-(JP5-B)*%
X22250000Y-49750000D03*
%TO.N,/SPI_SCLK*%
X24790000Y-49750000D03*
%TO.N,/SPI_MOSI*%
X27330000Y-49750000D03*
%TO.N,/RST*%
X29870000Y-49750000D03*
%TO.N,/DC*%
X32410000Y-49750000D03*
%TO.N,/KEY3*%
X34950000Y-49750000D03*
%TO.N,/JOYSTICK_LEFT*%
X34950000Y-31970000D03*
%TO.N,/JOYSTICK_UP*%
X32410000Y-31970000D03*
%TO.N,/I2C-SDA*%
X29870000Y-31970000D03*
%TO.N,/I2C-SCL*%
X27330000Y-31970000D03*
%TO.N,/JOYSTICK_PRESS*%
X24790000Y-31970000D03*
%TO.N,/JOYSTICK_DOWN*%
X22250000Y-31970000D03*
%TO.N,/JOYSTICK_RIGHT*%
X19710000Y-31970000D03*
%TO.N,/KEY1*%
X17170000Y-31970000D03*
%TO.N,/KEY2*%
X14630000Y-31970000D03*
%TO.N,GND*%
X12090000Y-31970000D03*
D11*
%TO.N,unconnected-(U1-1V8(OUT)-Pad22)*%
X9550000Y-31970000D03*
%TD*%
D12*
%TO.N,*%
%TO.C,U2*%
X70000000Y-55500000D03*
X12000000Y-55500000D03*
D13*
%TO.N,+3.3V*%
X65240000Y-52960000D03*
D14*
%TO.N,+5V*%
X65240000Y-55500000D03*
%TO.N,/I2C-SDA*%
X62700000Y-52960000D03*
%TO.N,+5V*%
X62700000Y-55500000D03*
%TO.N,/I2C-SCL*%
X60160000Y-52960000D03*
%TO.N,GND*%
X60160000Y-55500000D03*
%TO.N,N/C*%
X57620000Y-52960000D03*
%TO.N,/UART_TXD*%
X57620000Y-55500000D03*
%TO.N,GND*%
X55080000Y-52960000D03*
%TO.N,/UART_RXD*%
X55080000Y-55500000D03*
%TO.N,N/C*%
X52540000Y-52960000D03*
X52540000Y-55500000D03*
%TO.N,/RST*%
X50000000Y-52960000D03*
%TO.N,GND*%
X50000000Y-55500000D03*
%TO.N,N/C*%
X47460000Y-52960000D03*
X47460000Y-55500000D03*
%TO.N,+3.3V*%
X44920000Y-52960000D03*
%TO.N,/BACKLIGHT*%
X44920000Y-55500000D03*
%TO.N,/SPI_MOSI*%
X42380000Y-52960000D03*
%TO.N,GND*%
X42380000Y-55500000D03*
%TO.N,N/C*%
X39840000Y-52960000D03*
%TO.N,/DC*%
X39840000Y-55500000D03*
%TO.N,/SPI_SCLK*%
X37300000Y-52960000D03*
%TO.N,/SPI_CS*%
X37300000Y-55500000D03*
%TO.N,GND*%
X34760000Y-52960000D03*
%TO.N,N/C*%
X34760000Y-55500000D03*
X32220000Y-52960000D03*
X32220000Y-55500000D03*
%TO.N,/JOYSTICK_LEFT*%
X29680000Y-52960000D03*
%TO.N,GND*%
X29680000Y-55500000D03*
%TO.N,/JOYSTICK_UP*%
X27140000Y-52960000D03*
%TO.N,N/C*%
X27140000Y-55500000D03*
%TO.N,/JOYSTICK_PRESS*%
X24600000Y-52960000D03*
%TO.N,GND*%
X24600000Y-55500000D03*
%TO.N,/JOYSTICK_DOWN*%
X22060000Y-52960000D03*
%TO.N,/KEY3*%
X22060000Y-55500000D03*
%TO.N,/JOYSTICK_RIGHT*%
X19520000Y-52960000D03*
%TO.N,/KEY2*%
X19520000Y-55500000D03*
%TO.N,GND*%
X16980000Y-52960000D03*
%TO.N,/KEY1*%
X16980000Y-55500000D03*
%TD*%
D15*
%TO.N,GND*%
X58825000Y-56575000D03*
X47275000Y-44925000D03*
X15300000Y-56925000D03*
X33400000Y-32675000D03*
X37050000Y-31450000D03*
X33475000Y-56375000D03*
X52520000Y-49810000D03*
X38500000Y-49000000D03*
X62725000Y-51475000D03*
X25900000Y-50400000D03*
X31120000Y-56390000D03*
X51880000Y-51710000D03*
X43575000Y-48875000D03*
X44700000Y-50025000D03*
X36025000Y-32750000D03*
X47060000Y-37160000D03*
X38525000Y-56350000D03*
X61420000Y-54920000D03*
X36100000Y-56400000D03*
X33500000Y-50400000D03*
X47200000Y-50325000D03*
X53725000Y-52050000D03*
X41600000Y-32990000D03*
X18280000Y-29700000D03*
X28375000Y-32675000D03*
X39680000Y-48800000D03*
X51275000Y-56025000D03*
X45850000Y-31500000D03*
X42760000Y-41180000D03*
X38570000Y-33220000D03*
X18500000Y-32700000D03*
X64025000Y-57075000D03*
X43319000Y-53850000D03*
X23175000Y-56575000D03*
X43875000Y-31125000D03*
X43782156Y-56700001D03*
X61500000Y-56675000D03*
X41200000Y-51225000D03*
X23320000Y-55020000D03*
X46250000Y-29500000D03*
X28400000Y-50400000D03*
X45800000Y-56600000D03*
X14275000Y-52225000D03*
X25800000Y-32625000D03*
X41700000Y-48600000D03*
X41350000Y-56300000D03*
X18410000Y-48880000D03*
X10720000Y-49120000D03*
X50830083Y-54748842D03*
X59000000Y-54810000D03*
X25825000Y-56525000D03*
X39660000Y-33340000D03*
X20873554Y-31373554D03*
X42625000Y-38775000D03*
X56500000Y-43950000D03*
X23350000Y-31450000D03*
X10400000Y-52675000D03*
X15750000Y-54425000D03*
X27770000Y-56660000D03*
X48750000Y-51950000D03*
X53775000Y-53725000D03*
X56775000Y-50375000D03*
X11125000Y-29850000D03*
X56450000Y-37950000D03*
X56725000Y-48100000D03*
X13520000Y-57750000D03*
X56300000Y-54325000D03*
X43625000Y-32700000D03*
X47375000Y-40000000D03*
X30850000Y-32675000D03*
X50210000Y-50120000D03*
X49920000Y-41870000D03*
X42650000Y-44550000D03*
X30960000Y-53630000D03*
X65450000Y-29625000D03*
X18400000Y-56825000D03*
X47110000Y-38360000D03*
X56175000Y-30150000D03*
X45775000Y-51175000D03*
X66875000Y-51075000D03*
%TO.N,/JOYSTICK_DOWN*%
X23830000Y-51170000D03*
%TO.N,Net-(JP5-B)*%
X54375000Y-36400000D03*
%TD*%
D16*
%TO.N,GND*%
X43319000Y-53850000D02*
X43319000Y-54561000D01*
D17*
X41200000Y-54320000D02*
X41200000Y-51225000D01*
D16*
X43319000Y-54561000D02*
X42380000Y-55500000D01*
D17*
X42380000Y-55500000D02*
X41200000Y-54320000D01*
%TO.N,/JOYSTICK_UP*%
X40200000Y-50300000D02*
X40200000Y-32490000D01*
X40200000Y-32490000D02*
X38220000Y-30510000D01*
X38220000Y-30510000D02*
X33870000Y-30510000D01*
X33870000Y-30510000D02*
X32410000Y-31970000D01*
X28480000Y-54300000D02*
X37517050Y-54300000D01*
X38401000Y-53416050D02*
X38401000Y-52099000D01*
X38401000Y-52099000D02*
X40200000Y-50300000D01*
X37517050Y-54300000D02*
X38401000Y-53416050D01*
X27140000Y-52960000D02*
X28480000Y-54300000D01*
%TO.N,/JOYSTICK_LEFT*%
X39070000Y-33000000D02*
X38040000Y-31970000D01*
X29680000Y-52960000D02*
X30781000Y-51859000D01*
X38040000Y-31970000D02*
X34950000Y-31970000D01*
X36673599Y-51859000D02*
X39070000Y-49462599D01*
X39070000Y-49462599D02*
X39070000Y-33000000D01*
X30781000Y-51859000D02*
X36673599Y-51859000D01*
%TO.N,/KEY3*%
X21383000Y-48737000D02*
X33937000Y-48737000D01*
X20900000Y-54340000D02*
X20900000Y-49220000D01*
X22060000Y-55500000D02*
X20900000Y-54340000D01*
X33937000Y-48737000D02*
X34950000Y-49750000D01*
X20900000Y-49220000D02*
X21383000Y-48737000D01*
%TO.N,/RST*%
X44801950Y-54061000D02*
X48899000Y-54061000D01*
X29100000Y-57250000D02*
X42187050Y-57250000D01*
X26039000Y-53416050D02*
X26683950Y-54061000D01*
X28375000Y-54950000D02*
X28375000Y-56525000D01*
X29870000Y-49750000D02*
X27761000Y-51859000D01*
X27486000Y-54061000D02*
X28375000Y-54950000D01*
X48899000Y-54061000D02*
X50000000Y-52960000D01*
X26683950Y-54061000D02*
X27486000Y-54061000D01*
X42187050Y-57250000D02*
X43775000Y-55662050D01*
X26039000Y-52503950D02*
X26039000Y-53416050D01*
X28375000Y-56525000D02*
X29100000Y-57250000D01*
X43775000Y-55087950D02*
X44801950Y-54061000D01*
X26683950Y-51859000D02*
X26039000Y-52503950D01*
X27761000Y-51859000D02*
X26683950Y-51859000D01*
X43775000Y-55662050D02*
X43775000Y-55087950D01*
%TO.N,Net-(JP5-B)*%
X23330000Y-50830000D02*
X23330000Y-53540000D01*
X48561000Y-55956050D02*
X48561000Y-55043950D01*
X25775000Y-54779950D02*
X25775000Y-55692050D01*
X24189000Y-54399000D02*
X25394050Y-54399000D01*
X51101000Y-53416050D02*
X51101000Y-39674000D01*
X48561000Y-55043950D02*
X49543950Y-54061000D01*
X51101000Y-39674000D02*
X54375000Y-36400000D01*
X28281950Y-58199000D02*
X46318050Y-58199000D01*
X25775000Y-55692050D02*
X28281950Y-58199000D01*
X46318050Y-58199000D02*
X48561000Y-55956050D01*
X23330000Y-53540000D02*
X24189000Y-54399000D01*
X22250000Y-49750000D02*
X23330000Y-50830000D01*
X25394050Y-54399000D02*
X25775000Y-54779950D01*
X49543950Y-54061000D02*
X50456050Y-54061000D01*
X50456050Y-54061000D02*
X51101000Y-53416050D01*
%TD*%
%TA.AperFunction,Conductor*%
%TO.N,GND*%
G36*
X11267090Y-48572468D02*
G01*
X11334112Y-48592199D01*
X11379829Y-48645036D01*
X11388660Y-48695108D01*
X11960590Y-49267037D01*
X11897007Y-49284075D01*
X11782993Y-49349901D01*
X11689901Y-49442993D01*
X11624075Y-49557007D01*
X11607037Y-49620590D01*
X11037730Y-49051282D01*
X11037729Y-49051283D01*
X11010643Y-49088564D01*
X10920457Y-49265562D01*
X10859075Y-49454476D01*
X10859075Y-49454479D01*
X10828000Y-49650678D01*
X10828000Y-49849321D01*
X10859075Y-50045520D01*
X10859075Y-50045523D01*
X10920457Y-50234437D01*
X11010641Y-50411432D01*
X11037730Y-50448715D01*
X11037731Y-50448716D01*
X11607037Y-49879409D01*
X11624075Y-49942993D01*
X11689901Y-50057007D01*
X11782993Y-50150099D01*
X11897007Y-50215925D01*
X11960590Y-50232962D01*
X11391283Y-50802268D01*
X11391283Y-50802269D01*
X11428567Y-50829358D01*
X11605562Y-50919542D01*
X11794477Y-50980924D01*
X11990679Y-51012000D01*
X12189321Y-51012000D01*
X12385520Y-50980924D01*
X12385523Y-50980924D01*
X12574437Y-50919542D01*
X12751425Y-50829362D01*
X12788716Y-50802268D01*
X12219410Y-50232962D01*
X12282993Y-50215925D01*
X12397007Y-50150099D01*
X12490099Y-50057007D01*
X12555925Y-49942993D01*
X12572962Y-49879409D01*
X13142268Y-50448715D01*
X13169362Y-50411425D01*
X13259542Y-50234437D01*
X13320924Y-50045523D01*
X13320924Y-50045520D01*
X13352000Y-49849321D01*
X13352000Y-49650678D01*
X13320924Y-49454479D01*
X13320924Y-49454476D01*
X13259542Y-49265562D01*
X13169358Y-49088567D01*
X13142268Y-49051283D01*
X12572962Y-49620589D01*
X12555925Y-49557007D01*
X12490099Y-49442993D01*
X12397007Y-49349901D01*
X12282993Y-49284075D01*
X12219409Y-49267037D01*
X12792238Y-48694208D01*
X12803838Y-48638990D01*
X12852889Y-48589233D01*
X12913176Y-48573638D01*
X14346328Y-48574658D01*
X14413351Y-48594389D01*
X14459068Y-48647226D01*
X14468962Y-48716391D01*
X14439892Y-48779926D01*
X14381087Y-48817659D01*
X14370431Y-48820274D01*
X14349252Y-48824487D01*
X14349248Y-48824488D01*
X14174087Y-48897042D01*
X14016441Y-49002377D01*
X13882377Y-49136441D01*
X13777042Y-49294087D01*
X13704488Y-49469248D01*
X13704486Y-49469256D01*
X13667500Y-49655197D01*
X13667500Y-49844802D01*
X13704486Y-50030743D01*
X13704488Y-50030751D01*
X13777042Y-50205912D01*
X13882377Y-50363558D01*
X14016441Y-50497622D01*
X14111358Y-50561043D01*
X14174085Y-50602956D01*
X14349249Y-50675512D01*
X14535197Y-50712499D01*
X14535201Y-50712500D01*
X14535202Y-50712500D01*
X14724799Y-50712500D01*
X14724800Y-50712499D01*
X14910751Y-50675512D01*
X15085915Y-50602956D01*
X15243558Y-50497622D01*
X15377622Y-50363558D01*
X15482956Y-50205915D01*
X15555512Y-50030751D01*
X15592500Y-49844798D01*
X15592500Y-49655202D01*
X15592499Y-49655199D01*
X15592499Y-49655197D01*
X15572968Y-49557007D01*
X15555512Y-49469249D01*
X15482956Y-49294085D01*
X15440396Y-49230390D01*
X15377622Y-49136441D01*
X15243558Y-49002377D01*
X15085912Y-48897042D01*
X14910751Y-48824488D01*
X14910748Y-48824487D01*
X14891604Y-48820679D01*
X14829694Y-48788293D01*
X14795121Y-48727576D01*
X14798862Y-48657807D01*
X14839730Y-48601136D01*
X14904748Y-48575555D01*
X14915861Y-48575063D01*
X16877279Y-48576457D01*
X16944302Y-48596189D01*
X16990019Y-48649026D01*
X16999913Y-48718191D01*
X16970843Y-48781726D01*
X16912038Y-48819459D01*
X16901384Y-48822073D01*
X16889258Y-48824485D01*
X16889248Y-48824488D01*
X16714087Y-48897042D01*
X16556441Y-49002377D01*
X16422377Y-49136441D01*
X16317042Y-49294087D01*
X16244488Y-49469248D01*
X16244486Y-49469256D01*
X16207500Y-49655197D01*
X16207500Y-49844802D01*
X16244486Y-50030743D01*
X16244488Y-50030751D01*
X16317042Y-50205912D01*
X16422377Y-50363558D01*
X16556441Y-50497622D01*
X16651358Y-50561043D01*
X16714085Y-50602956D01*
X16889249Y-50675512D01*
X17075197Y-50712499D01*
X17075201Y-50712500D01*
X17075202Y-50712500D01*
X17264799Y-50712500D01*
X17264800Y-50712499D01*
X17450751Y-50675512D01*
X17625915Y-50602956D01*
X17783558Y-50497622D01*
X17917622Y-50363558D01*
X18022956Y-50205915D01*
X18095512Y-50030751D01*
X18132500Y-49844798D01*
X18132500Y-49655202D01*
X18132499Y-49655199D01*
X18132499Y-49655197D01*
X18112968Y-49557007D01*
X18095512Y-49469249D01*
X18022956Y-49294085D01*
X17980396Y-49230390D01*
X17917622Y-49136441D01*
X17783558Y-49002377D01*
X17625912Y-48897042D01*
X17450751Y-48824488D01*
X17450741Y-48824485D01*
X17440717Y-48822491D01*
X17378807Y-48790104D01*
X17344236Y-48729387D01*
X17347978Y-48659618D01*
X17388846Y-48602947D01*
X17453865Y-48577368D01*
X17464981Y-48576875D01*
X19408228Y-48578257D01*
X19475252Y-48597989D01*
X19520969Y-48650826D01*
X19530863Y-48719991D01*
X19501793Y-48783526D01*
X19442988Y-48821259D01*
X19432340Y-48823872D01*
X19429259Y-48824484D01*
X19429248Y-48824488D01*
X19254087Y-48897042D01*
X19096441Y-49002377D01*
X18962377Y-49136441D01*
X18857042Y-49294087D01*
X18784488Y-49469248D01*
X18784486Y-49469256D01*
X18747500Y-49655197D01*
X18747500Y-49844802D01*
X18784486Y-50030743D01*
X18784488Y-50030751D01*
X18857042Y-50205912D01*
X18962377Y-50363558D01*
X19096441Y-50497622D01*
X19191358Y-50561043D01*
X19254085Y-50602956D01*
X19429249Y-50675512D01*
X19615197Y-50712499D01*
X19615201Y-50712500D01*
X19615202Y-50712500D01*
X19804799Y-50712500D01*
X19804800Y-50712499D01*
X19990751Y-50675512D01*
X20165915Y-50602956D01*
X20323558Y-50497622D01*
X20353850Y-50467330D01*
X20387819Y-50433362D01*
X20449142Y-50399877D01*
X20518834Y-50404861D01*
X20574767Y-50446733D01*
X20599184Y-50512197D01*
X20599500Y-50521043D01*
X20599500Y-52275961D01*
X20579815Y-52343000D01*
X20527011Y-52388755D01*
X20457853Y-52398699D01*
X20394297Y-52369674D01*
X20372398Y-52344852D01*
X20335977Y-52290345D01*
X20335974Y-52290341D01*
X20189657Y-52144024D01*
X20073636Y-52066502D01*
X20017598Y-52029059D01*
X19946147Y-51999463D01*
X19826420Y-51949870D01*
X19826412Y-51949868D01*
X19623469Y-51909500D01*
X19623465Y-51909500D01*
X19416535Y-51909500D01*
X19416530Y-51909500D01*
X19213587Y-51949868D01*
X19213579Y-51949870D01*
X19022403Y-52029058D01*
X18850342Y-52144024D01*
X18704024Y-52290342D01*
X18589057Y-52462403D01*
X18520835Y-52627108D01*
X18476994Y-52681511D01*
X18410700Y-52703576D01*
X18343000Y-52686297D01*
X18295390Y-52635159D01*
X18288343Y-52617973D01*
X18231095Y-52441782D01*
X18134620Y-52252442D01*
X18009727Y-52080540D01*
X18009723Y-52080535D01*
X17859464Y-51930276D01*
X17859459Y-51930272D01*
X17687557Y-51805379D01*
X17498215Y-51708903D01*
X17296124Y-51643241D01*
X17230000Y-51632768D01*
X17230000Y-52526988D01*
X17172993Y-52494075D01*
X17045826Y-52460000D01*
X16914174Y-52460000D01*
X16787007Y-52494075D01*
X16730000Y-52526988D01*
X16730000Y-51632768D01*
X16729999Y-51632768D01*
X16663875Y-51643241D01*
X16461784Y-51708903D01*
X16272442Y-51805379D01*
X16100540Y-51930272D01*
X16100535Y-51930276D01*
X15950276Y-52080535D01*
X15950272Y-52080540D01*
X15825379Y-52252442D01*
X15728904Y-52441782D01*
X15663242Y-52643870D01*
X15663242Y-52643873D01*
X15652769Y-52710000D01*
X16546988Y-52710000D01*
X16514075Y-52767007D01*
X16480000Y-52894174D01*
X16480000Y-53025826D01*
X16514075Y-53152993D01*
X16546988Y-53210000D01*
X15652769Y-53210000D01*
X15663242Y-53276126D01*
X15663242Y-53276129D01*
X15728904Y-53478217D01*
X15825379Y-53667557D01*
X15950272Y-53839459D01*
X15950276Y-53839464D01*
X16100535Y-53989723D01*
X16100540Y-53989727D01*
X16272442Y-54114620D01*
X16461782Y-54211095D01*
X16637973Y-54268343D01*
X16695648Y-54307780D01*
X16722847Y-54372139D01*
X16710932Y-54440985D01*
X16663688Y-54492461D01*
X16647108Y-54500835D01*
X16482403Y-54569057D01*
X16310342Y-54684024D01*
X16164024Y-54830342D01*
X16049058Y-55002403D01*
X15969870Y-55193579D01*
X15969868Y-55193587D01*
X15929500Y-55396530D01*
X15929500Y-55603469D01*
X15969868Y-55806412D01*
X15969870Y-55806420D01*
X16048495Y-55996238D01*
X16049059Y-55997598D01*
X16062836Y-56018217D01*
X16164024Y-56169657D01*
X16310342Y-56315975D01*
X16310345Y-56315977D01*
X16482402Y-56430941D01*
X16673580Y-56510130D01*
X16876530Y-56550499D01*
X16876534Y-56550500D01*
X16876535Y-56550500D01*
X17083466Y-56550500D01*
X17083467Y-56550499D01*
X17286420Y-56510130D01*
X17477598Y-56430941D01*
X17649655Y-56315977D01*
X17795977Y-56169655D01*
X17910941Y-55997598D01*
X17990130Y-55806420D01*
X18030500Y-55603465D01*
X18030500Y-55396535D01*
X18030499Y-55396530D01*
X18469500Y-55396530D01*
X18469500Y-55603469D01*
X18509868Y-55806412D01*
X18509870Y-55806420D01*
X18588495Y-55996238D01*
X18589059Y-55997598D01*
X18602836Y-56018217D01*
X18704024Y-56169657D01*
X18850342Y-56315975D01*
X18850345Y-56315977D01*
X19022402Y-56430941D01*
X19213580Y-56510130D01*
X19416530Y-56550499D01*
X19416534Y-56550500D01*
X19416535Y-56550500D01*
X19623466Y-56550500D01*
X19623467Y-56550499D01*
X19826420Y-56510130D01*
X20017598Y-56430941D01*
X20189655Y-56315977D01*
X20335977Y-56169655D01*
X20450941Y-55997598D01*
X20530130Y-55806420D01*
X20570500Y-55603465D01*
X20570500Y-55396535D01*
X20530130Y-55193580D01*
X20450941Y-55002402D01*
X20335977Y-54830345D01*
X20335975Y-54830342D01*
X20189657Y-54684024D01*
X20057083Y-54595442D01*
X20017598Y-54569059D01*
X20017593Y-54569057D01*
X19826420Y-54489870D01*
X19826412Y-54489868D01*
X19623469Y-54449500D01*
X19623465Y-54449500D01*
X19416535Y-54449500D01*
X19416530Y-54449500D01*
X19213587Y-54489868D01*
X19213579Y-54489870D01*
X19022403Y-54569058D01*
X18850342Y-54684024D01*
X18704024Y-54830342D01*
X18589058Y-55002403D01*
X18509870Y-55193579D01*
X18509868Y-55193587D01*
X18469500Y-55396530D01*
X18030499Y-55396530D01*
X17990130Y-55193580D01*
X17910941Y-55002402D01*
X17795977Y-54830345D01*
X17795975Y-54830342D01*
X17649657Y-54684024D01*
X17517083Y-54595442D01*
X17477598Y-54569059D01*
X17477593Y-54569057D01*
X17349498Y-54515998D01*
X17312890Y-54500834D01*
X17258488Y-54456994D01*
X17236423Y-54390700D01*
X17253702Y-54323001D01*
X17304839Y-54275390D01*
X17322026Y-54268343D01*
X17498217Y-54211095D01*
X17687557Y-54114620D01*
X17859459Y-53989727D01*
X17859464Y-53989723D01*
X18009723Y-53839464D01*
X18009727Y-53839459D01*
X18134620Y-53667557D01*
X18231095Y-53478217D01*
X18288343Y-53302026D01*
X18327780Y-53244351D01*
X18392139Y-53217152D01*
X18460985Y-53229066D01*
X18512461Y-53276310D01*
X18520835Y-53292891D01*
X18575939Y-53425925D01*
X18589059Y-53457598D01*
X18630032Y-53518919D01*
X18704024Y-53629657D01*
X18850342Y-53775975D01*
X18850345Y-53775977D01*
X19022402Y-53890941D01*
X19213580Y-53970130D01*
X19358052Y-53998867D01*
X19416530Y-54010499D01*
X19416534Y-54010500D01*
X19416535Y-54010500D01*
X19623466Y-54010500D01*
X19623467Y-54010499D01*
X19826420Y-53970130D01*
X20017598Y-53890941D01*
X20189655Y-53775977D01*
X20335977Y-53629655D01*
X20372397Y-53575147D01*
X20426009Y-53530342D01*
X20495334Y-53521635D01*
X20558362Y-53551789D01*
X20595082Y-53611232D01*
X20599500Y-53644038D01*
X20599500Y-54379562D01*
X20608271Y-54412296D01*
X20619979Y-54455990D01*
X20619980Y-54455991D01*
X20658373Y-54522490D01*
X20659540Y-54524511D01*
X20659541Y-54524512D01*
X20659543Y-54524515D01*
X21072923Y-54937895D01*
X21106408Y-54999218D01*
X21101424Y-55068910D01*
X21099803Y-55073028D01*
X21049871Y-55193575D01*
X21049868Y-55193587D01*
X21009500Y-55396530D01*
X21009500Y-55603469D01*
X21049868Y-55806412D01*
X21049870Y-55806420D01*
X21128495Y-55996238D01*
X21129059Y-55997598D01*
X21142836Y-56018217D01*
X21244024Y-56169657D01*
X21390342Y-56315975D01*
X21390345Y-56315977D01*
X21562402Y-56430941D01*
X21753580Y-56510130D01*
X21956530Y-56550499D01*
X21956534Y-56550500D01*
X21956535Y-56550500D01*
X22163466Y-56550500D01*
X22163467Y-56550499D01*
X22366420Y-56510130D01*
X22557598Y-56430941D01*
X22729655Y-56315977D01*
X22875977Y-56169655D01*
X22990941Y-55997598D01*
X23059165Y-55832889D01*
X23103004Y-55778488D01*
X23169298Y-55756423D01*
X23236998Y-55773702D01*
X23284609Y-55824839D01*
X23291656Y-55842026D01*
X23348904Y-56018216D01*
X23445379Y-56207557D01*
X23570272Y-56379459D01*
X23570276Y-56379464D01*
X23720535Y-56529723D01*
X23720540Y-56529727D01*
X23892442Y-56654620D01*
X24081782Y-56751095D01*
X24283871Y-56816757D01*
X24350000Y-56827231D01*
X24350000Y-55933012D01*
X24407007Y-55965925D01*
X24534174Y-56000000D01*
X24665826Y-56000000D01*
X24792993Y-55965925D01*
X24850000Y-55933012D01*
X24850000Y-56827230D01*
X24916126Y-56816757D01*
X24916129Y-56816757D01*
X25118217Y-56751095D01*
X25307557Y-56654620D01*
X25479459Y-56529727D01*
X25479464Y-56529723D01*
X25629721Y-56379466D01*
X25715956Y-56260773D01*
X25771286Y-56218107D01*
X25840899Y-56212128D01*
X25902695Y-56244733D01*
X25903956Y-56245977D01*
X27745798Y-58087819D01*
X27779283Y-58149142D01*
X27774299Y-58218834D01*
X27732427Y-58274767D01*
X27666963Y-58299184D01*
X27658117Y-58299500D01*
X11503481Y-58299500D01*
X11496528Y-58299305D01*
X11193506Y-58282287D01*
X11179688Y-58280730D01*
X10883920Y-58230477D01*
X10870363Y-58227383D01*
X10582072Y-58144327D01*
X10568948Y-58139734D01*
X10291777Y-58024927D01*
X10279248Y-58018894D01*
X10016671Y-57873772D01*
X10004897Y-57866374D01*
X9760214Y-57692763D01*
X9749342Y-57684092D01*
X9525647Y-57484184D01*
X9515815Y-57474352D01*
X9318094Y-57253104D01*
X9315904Y-57250653D01*
X9307236Y-57239785D01*
X9133625Y-56995102D01*
X9126227Y-56983328D01*
X9067467Y-56877011D01*
X8981101Y-56720744D01*
X8975072Y-56708222D01*
X8860265Y-56431051D01*
X8855672Y-56417927D01*
X8784145Y-56169655D01*
X8772615Y-56129634D01*
X8769522Y-56116079D01*
X8752895Y-56018217D01*
X8719267Y-55820301D01*
X8717713Y-55806503D01*
X8700695Y-55503472D01*
X8700500Y-55496519D01*
X8700500Y-55372149D01*
X10049500Y-55372149D01*
X10049500Y-55627850D01*
X10074839Y-55820311D01*
X10082874Y-55881340D01*
X10145772Y-56116079D01*
X10149050Y-56128312D01*
X10149053Y-56128322D01*
X10246894Y-56364531D01*
X10246899Y-56364542D01*
X10374734Y-56585957D01*
X10374745Y-56585973D01*
X10530388Y-56788811D01*
X10530394Y-56788818D01*
X10711181Y-56969605D01*
X10711188Y-56969611D01*
X10737009Y-56989424D01*
X10914035Y-57125261D01*
X10914042Y-57125265D01*
X11135457Y-57253100D01*
X11135462Y-57253102D01*
X11135465Y-57253104D01*
X11371687Y-57350950D01*
X11618660Y-57417126D01*
X11872157Y-57450500D01*
X11872164Y-57450500D01*
X12127836Y-57450500D01*
X12127843Y-57450500D01*
X12381340Y-57417126D01*
X12628313Y-57350950D01*
X12864535Y-57253104D01*
X13085965Y-57125261D01*
X13288813Y-56969610D01*
X13469610Y-56788813D01*
X13625261Y-56585965D01*
X13753104Y-56364535D01*
X13850950Y-56128313D01*
X13917126Y-55881340D01*
X13950500Y-55627843D01*
X13950500Y-55372157D01*
X13917126Y-55118660D01*
X13850950Y-54871687D01*
X13847104Y-54862403D01*
X13812762Y-54779492D01*
X13753104Y-54635465D01*
X13753102Y-54635462D01*
X13753100Y-54635457D01*
X13625265Y-54414042D01*
X13625261Y-54414035D01*
X13538879Y-54301460D01*
X13469611Y-54211188D01*
X13469605Y-54211181D01*
X13288818Y-54030394D01*
X13288811Y-54030388D01*
X13085973Y-53874745D01*
X13085971Y-53874743D01*
X13085965Y-53874739D01*
X13085960Y-53874736D01*
X13085957Y-53874734D01*
X12864542Y-53746899D01*
X12864531Y-53746894D01*
X12628322Y-53649053D01*
X12628315Y-53649051D01*
X12628313Y-53649050D01*
X12381340Y-53582874D01*
X12322656Y-53575148D01*
X12127850Y-53549500D01*
X12127843Y-53549500D01*
X11872157Y-53549500D01*
X11872149Y-53549500D01*
X11646826Y-53579165D01*
X11618660Y-53582874D01*
X11393333Y-53643250D01*
X11371687Y-53649050D01*
X11371677Y-53649053D01*
X11135468Y-53746894D01*
X11135457Y-53746899D01*
X10914042Y-53874734D01*
X10914026Y-53874745D01*
X10711188Y-54030388D01*
X10711181Y-54030394D01*
X10530394Y-54211181D01*
X10530388Y-54211188D01*
X10374745Y-54414026D01*
X10374734Y-54414042D01*
X10246899Y-54635457D01*
X10246894Y-54635468D01*
X10149053Y-54871677D01*
X10149050Y-54871687D01*
X10087901Y-55099901D01*
X10082874Y-55118661D01*
X10049500Y-55372149D01*
X8700500Y-55372149D01*
X8700500Y-50561043D01*
X8720185Y-50494004D01*
X8772989Y-50448249D01*
X8842147Y-50438305D01*
X8905703Y-50467330D01*
X8912181Y-50473362D01*
X8936441Y-50497622D01*
X9031358Y-50561043D01*
X9094085Y-50602956D01*
X9269249Y-50675512D01*
X9455197Y-50712499D01*
X9455201Y-50712500D01*
X9455202Y-50712500D01*
X9644799Y-50712500D01*
X9644800Y-50712499D01*
X9830751Y-50675512D01*
X10005915Y-50602956D01*
X10163558Y-50497622D01*
X10297622Y-50363558D01*
X10402956Y-50205915D01*
X10475512Y-50030751D01*
X10512500Y-49844798D01*
X10512500Y-49655202D01*
X10512500Y-49655201D01*
X10512500Y-49655199D01*
X10490185Y-49543018D01*
X10475512Y-49469249D01*
X10402956Y-49294085D01*
X10360396Y-49230390D01*
X10297622Y-49136441D01*
X10163558Y-49002377D01*
X10005912Y-48897042D01*
X9830751Y-48824488D01*
X9830743Y-48824486D01*
X9793380Y-48817054D01*
X9731469Y-48784669D01*
X9696895Y-48723954D01*
X9700634Y-48654184D01*
X9741500Y-48597512D01*
X9806519Y-48571931D01*
X9817648Y-48571437D01*
X11267090Y-48572468D01*
G37*
%TD.AperFunction*%
%TA.AperFunction,Conductor*%
G36*
X70503472Y-28700695D02*
G01*
X70806503Y-28717713D01*
X70820301Y-28719267D01*
X71116080Y-28769522D01*
X71129636Y-28772616D01*
X71417927Y-28855672D01*
X71431051Y-28860265D01*
X71708222Y-28975072D01*
X71720744Y-28981101D01*
X71923184Y-29092986D01*
X71983328Y-29126227D01*
X71995102Y-29133625D01*
X72239789Y-29307239D01*
X72250657Y-29315907D01*
X72474352Y-29515815D01*
X72484184Y-29525647D01*
X72684092Y-29749342D01*
X72692763Y-29760214D01*
X72866374Y-30004897D01*
X72873772Y-30016671D01*
X73018894Y-30279248D01*
X73024927Y-30291777D01*
X73139734Y-30568948D01*
X73144327Y-30582072D01*
X73227383Y-30870363D01*
X73230477Y-30883920D01*
X73280730Y-31179688D01*
X73282287Y-31193506D01*
X73299305Y-31496527D01*
X73299500Y-31503480D01*
X73299500Y-55496519D01*
X73299305Y-55503472D01*
X73282287Y-55806493D01*
X73280730Y-55820311D01*
X73230477Y-56116079D01*
X73227383Y-56129636D01*
X73144327Y-56417927D01*
X73139734Y-56431051D01*
X73024927Y-56708222D01*
X73018894Y-56720751D01*
X72873772Y-56983328D01*
X72866374Y-56995102D01*
X72692763Y-57239785D01*
X72684092Y-57250657D01*
X72484184Y-57474352D01*
X72474352Y-57484184D01*
X72250657Y-57684092D01*
X72239785Y-57692763D01*
X71995102Y-57866374D01*
X71983328Y-57873772D01*
X71720751Y-58018894D01*
X71708222Y-58024927D01*
X71431051Y-58139734D01*
X71417927Y-58144327D01*
X71129636Y-58227383D01*
X71116079Y-58230477D01*
X70820311Y-58280730D01*
X70806493Y-58282287D01*
X70503472Y-58299305D01*
X70496519Y-58299500D01*
X46941883Y-58299500D01*
X46874844Y-58279815D01*
X46829089Y-58227011D01*
X46819145Y-58157853D01*
X46848170Y-58094297D01*
X46854202Y-58087819D01*
X48696043Y-56245978D01*
X48757366Y-56212493D01*
X48827058Y-56217477D01*
X48882991Y-56259349D01*
X48884042Y-56260774D01*
X48970272Y-56379459D01*
X48970276Y-56379464D01*
X49120535Y-56529723D01*
X49120540Y-56529727D01*
X49292442Y-56654620D01*
X49481782Y-56751095D01*
X49683871Y-56816757D01*
X49750000Y-56827231D01*
X49750000Y-55933012D01*
X49807007Y-55965925D01*
X49934174Y-56000000D01*
X50065826Y-56000000D01*
X50192993Y-55965925D01*
X50250000Y-55933012D01*
X50250000Y-56827230D01*
X50316126Y-56816757D01*
X50316129Y-56816757D01*
X50518217Y-56751095D01*
X50707557Y-56654620D01*
X50879459Y-56529727D01*
X50879464Y-56529723D01*
X51029723Y-56379464D01*
X51029727Y-56379459D01*
X51154620Y-56207557D01*
X51251095Y-56018217D01*
X51308343Y-55842026D01*
X51347780Y-55784351D01*
X51412139Y-55757152D01*
X51480985Y-55769066D01*
X51532461Y-55816310D01*
X51540835Y-55832891D01*
X51608495Y-55996238D01*
X51609059Y-55997598D01*
X51622836Y-56018217D01*
X51724024Y-56169657D01*
X51870342Y-56315975D01*
X51870345Y-56315977D01*
X52042402Y-56430941D01*
X52233580Y-56510130D01*
X52436530Y-56550499D01*
X52436534Y-56550500D01*
X52436535Y-56550500D01*
X52643466Y-56550500D01*
X52643467Y-56550499D01*
X52846420Y-56510130D01*
X53037598Y-56430941D01*
X53209655Y-56315977D01*
X53355977Y-56169655D01*
X53470941Y-55997598D01*
X53550130Y-55806420D01*
X53590500Y-55603465D01*
X53590500Y-55396535D01*
X53550130Y-55193580D01*
X53470941Y-55002402D01*
X53355977Y-54830345D01*
X53355975Y-54830342D01*
X53209657Y-54684024D01*
X53077083Y-54595442D01*
X53037598Y-54569059D01*
X53037593Y-54569057D01*
X52846420Y-54489870D01*
X52846412Y-54489868D01*
X52643469Y-54449500D01*
X52643465Y-54449500D01*
X52436535Y-54449500D01*
X52436530Y-54449500D01*
X52233587Y-54489868D01*
X52233579Y-54489870D01*
X52042403Y-54569058D01*
X51870342Y-54684024D01*
X51724024Y-54830342D01*
X51609057Y-55002403D01*
X51540835Y-55167108D01*
X51496994Y-55221511D01*
X51430700Y-55243576D01*
X51363000Y-55226297D01*
X51315390Y-55175159D01*
X51308343Y-55157973D01*
X51251095Y-54981782D01*
X51154620Y-54792442D01*
X51029727Y-54620540D01*
X51029723Y-54620535D01*
X50879464Y-54470276D01*
X50879459Y-54470272D01*
X50760773Y-54384042D01*
X50718107Y-54328712D01*
X50712128Y-54259099D01*
X50744733Y-54197304D01*
X50745903Y-54196117D01*
X51341460Y-53600561D01*
X51381021Y-53532039D01*
X51389698Y-53499656D01*
X51426061Y-53439997D01*
X51488908Y-53409467D01*
X51558284Y-53417761D01*
X51612162Y-53462246D01*
X51612574Y-53462860D01*
X51724019Y-53629650D01*
X51724025Y-53629658D01*
X51870342Y-53775975D01*
X51870345Y-53775977D01*
X52042402Y-53890941D01*
X52233580Y-53970130D01*
X52378052Y-53998867D01*
X52436530Y-54010499D01*
X52436534Y-54010500D01*
X52436535Y-54010500D01*
X52643466Y-54010500D01*
X52643467Y-54010499D01*
X52846420Y-53970130D01*
X53037598Y-53890941D01*
X53209655Y-53775977D01*
X53355977Y-53629655D01*
X53470941Y-53457598D01*
X53539165Y-53292889D01*
X53583004Y-53238488D01*
X53649298Y-53216423D01*
X53716998Y-53233702D01*
X53764609Y-53284839D01*
X53771656Y-53302026D01*
X53828904Y-53478216D01*
X53925379Y-53667557D01*
X54050272Y-53839459D01*
X54050276Y-53839464D01*
X54200535Y-53989723D01*
X54200540Y-53989727D01*
X54372442Y-54114620D01*
X54561782Y-54211095D01*
X54737973Y-54268343D01*
X54795648Y-54307780D01*
X54822847Y-54372139D01*
X54810932Y-54440985D01*
X54763688Y-54492461D01*
X54747108Y-54500835D01*
X54582403Y-54569057D01*
X54410342Y-54684024D01*
X54264024Y-54830342D01*
X54149058Y-55002403D01*
X54069870Y-55193579D01*
X54069868Y-55193587D01*
X54029500Y-55396530D01*
X54029500Y-55603469D01*
X54069868Y-55806412D01*
X54069870Y-55806420D01*
X54148495Y-55996238D01*
X54149059Y-55997598D01*
X54162836Y-56018217D01*
X54264024Y-56169657D01*
X54410342Y-56315975D01*
X54410345Y-56315977D01*
X54582402Y-56430941D01*
X54773580Y-56510130D01*
X54976530Y-56550499D01*
X54976534Y-56550500D01*
X54976535Y-56550500D01*
X55183466Y-56550500D01*
X55183467Y-56550499D01*
X55386420Y-56510130D01*
X55577598Y-56430941D01*
X55749655Y-56315977D01*
X55895977Y-56169655D01*
X56010941Y-55997598D01*
X56090130Y-55806420D01*
X56130500Y-55603465D01*
X56130500Y-55396535D01*
X56130499Y-55396530D01*
X56569500Y-55396530D01*
X56569500Y-55603469D01*
X56609868Y-55806412D01*
X56609870Y-55806420D01*
X56688495Y-55996238D01*
X56689059Y-55997598D01*
X56702836Y-56018217D01*
X56804024Y-56169657D01*
X56950342Y-56315975D01*
X56950345Y-56315977D01*
X57122402Y-56430941D01*
X57313580Y-56510130D01*
X57516530Y-56550499D01*
X57516534Y-56550500D01*
X57516535Y-56550500D01*
X57723466Y-56550500D01*
X57723467Y-56550499D01*
X57926420Y-56510130D01*
X58117598Y-56430941D01*
X58289655Y-56315977D01*
X58435977Y-56169655D01*
X58550941Y-55997598D01*
X58619165Y-55832889D01*
X58663004Y-55778488D01*
X58729298Y-55756423D01*
X58796998Y-55773702D01*
X58844609Y-55824839D01*
X58851656Y-55842026D01*
X58908904Y-56018216D01*
X59005379Y-56207557D01*
X59130272Y-56379459D01*
X59130276Y-56379464D01*
X59280535Y-56529723D01*
X59280540Y-56529727D01*
X59452442Y-56654620D01*
X59641782Y-56751095D01*
X59843871Y-56816757D01*
X59910000Y-56827231D01*
X59910000Y-55933012D01*
X59967007Y-55965925D01*
X60094174Y-56000000D01*
X60225826Y-56000000D01*
X60352993Y-55965925D01*
X60410000Y-55933012D01*
X60410000Y-56827230D01*
X60476126Y-56816757D01*
X60476129Y-56816757D01*
X60678217Y-56751095D01*
X60867557Y-56654620D01*
X61039459Y-56529727D01*
X61039464Y-56529723D01*
X61189723Y-56379464D01*
X61189727Y-56379459D01*
X61314620Y-56207557D01*
X61411095Y-56018217D01*
X61468343Y-55842026D01*
X61507780Y-55784351D01*
X61572139Y-55757152D01*
X61640985Y-55769066D01*
X61692461Y-55816310D01*
X61700835Y-55832891D01*
X61768495Y-55996238D01*
X61769059Y-55997598D01*
X61782836Y-56018217D01*
X61884024Y-56169657D01*
X62030342Y-56315975D01*
X62030345Y-56315977D01*
X62202402Y-56430941D01*
X62393580Y-56510130D01*
X62596530Y-56550499D01*
X62596534Y-56550500D01*
X62596535Y-56550500D01*
X62803466Y-56550500D01*
X62803467Y-56550499D01*
X63006420Y-56510130D01*
X63197598Y-56430941D01*
X63369655Y-56315977D01*
X63515977Y-56169655D01*
X63630941Y-55997598D01*
X63710130Y-55806420D01*
X63750500Y-55603465D01*
X63750500Y-55396535D01*
X63750499Y-55396530D01*
X64189500Y-55396530D01*
X64189500Y-55603469D01*
X64229868Y-55806412D01*
X64229870Y-55806420D01*
X64308495Y-55996238D01*
X64309059Y-55997598D01*
X64322836Y-56018217D01*
X64424024Y-56169657D01*
X64570342Y-56315975D01*
X64570345Y-56315977D01*
X64742402Y-56430941D01*
X64933580Y-56510130D01*
X65136530Y-56550499D01*
X65136534Y-56550500D01*
X65136535Y-56550500D01*
X65343466Y-56550500D01*
X65343467Y-56550499D01*
X65546420Y-56510130D01*
X65737598Y-56430941D01*
X65909655Y-56315977D01*
X66055977Y-56169655D01*
X66170941Y-55997598D01*
X66250130Y-55806420D01*
X66290500Y-55603465D01*
X66290500Y-55396535D01*
X66285649Y-55372149D01*
X68049500Y-55372149D01*
X68049500Y-55627850D01*
X68074839Y-55820311D01*
X68082874Y-55881340D01*
X68145772Y-56116079D01*
X68149050Y-56128312D01*
X68149053Y-56128322D01*
X68246894Y-56364531D01*
X68246899Y-56364542D01*
X68374734Y-56585957D01*
X68374745Y-56585973D01*
X68530388Y-56788811D01*
X68530394Y-56788818D01*
X68711181Y-56969605D01*
X68711188Y-56969611D01*
X68737009Y-56989424D01*
X68914035Y-57125261D01*
X68914042Y-57125265D01*
X69135457Y-57253100D01*
X69135462Y-57253102D01*
X69135465Y-57253104D01*
X69371687Y-57350950D01*
X69618660Y-57417126D01*
X69872157Y-57450500D01*
X69872164Y-57450500D01*
X70127836Y-57450500D01*
X70127843Y-57450500D01*
X70381340Y-57417126D01*
X70628313Y-57350950D01*
X70864535Y-57253104D01*
X71085965Y-57125261D01*
X71288813Y-56969610D01*
X71469610Y-56788813D01*
X71625261Y-56585965D01*
X71753104Y-56364535D01*
X71850950Y-56128313D01*
X71917126Y-55881340D01*
X71950500Y-55627843D01*
X71950500Y-55372157D01*
X71917126Y-55118660D01*
X71850950Y-54871687D01*
X71847104Y-54862403D01*
X71812762Y-54779492D01*
X71753104Y-54635465D01*
X71753102Y-54635462D01*
X71753100Y-54635457D01*
X71625265Y-54414042D01*
X71625261Y-54414035D01*
X71538879Y-54301460D01*
X71469611Y-54211188D01*
X71469605Y-54211181D01*
X71288818Y-54030394D01*
X71288811Y-54030388D01*
X71085973Y-53874745D01*
X71085971Y-53874743D01*
X71085965Y-53874739D01*
X71085960Y-53874736D01*
X71085957Y-53874734D01*
X70864542Y-53746899D01*
X70864531Y-53746894D01*
X70628322Y-53649053D01*
X70628315Y-53649051D01*
X70628313Y-53649050D01*
X70381340Y-53582874D01*
X70322656Y-53575148D01*
X70127850Y-53549500D01*
X70127843Y-53549500D01*
X69872157Y-53549500D01*
X69872149Y-53549500D01*
X69646826Y-53579165D01*
X69618660Y-53582874D01*
X69393333Y-53643250D01*
X69371687Y-53649050D01*
X69371677Y-53649053D01*
X69135468Y-53746894D01*
X69135457Y-53746899D01*
X68914042Y-53874734D01*
X68914026Y-53874745D01*
X68711188Y-54030388D01*
X68711181Y-54030394D01*
X68530394Y-54211181D01*
X68530388Y-54211188D01*
X68374745Y-54414026D01*
X68374734Y-54414042D01*
X68246899Y-54635457D01*
X68246894Y-54635468D01*
X68149053Y-54871677D01*
X68149050Y-54871687D01*
X68087901Y-55099901D01*
X68082874Y-55118661D01*
X68049500Y-55372149D01*
X66285649Y-55372149D01*
X66259930Y-55242847D01*
X66250130Y-55193580D01*
X66170941Y-55002402D01*
X66055977Y-54830345D01*
X66055975Y-54830342D01*
X65909657Y-54684024D01*
X65777083Y-54595442D01*
X65737598Y-54569059D01*
X65737593Y-54569057D01*
X65546420Y-54489870D01*
X65546412Y-54489868D01*
X65343469Y-54449500D01*
X65343465Y-54449500D01*
X65136535Y-54449500D01*
X65136530Y-54449500D01*
X64933587Y-54489868D01*
X64933579Y-54489870D01*
X64742403Y-54569058D01*
X64570342Y-54684024D01*
X64424024Y-54830342D01*
X64309058Y-55002403D01*
X64229870Y-55193579D01*
X64229868Y-55193587D01*
X64189500Y-55396530D01*
X63750499Y-55396530D01*
X63710130Y-55193580D01*
X63630941Y-55002402D01*
X63515977Y-54830345D01*
X63515975Y-54830342D01*
X63369657Y-54684024D01*
X63237083Y-54595442D01*
X63197598Y-54569059D01*
X63197593Y-54569057D01*
X63006420Y-54489870D01*
X63006412Y-54489868D01*
X62803469Y-54449500D01*
X62803465Y-54449500D01*
X62596535Y-54449500D01*
X62596530Y-54449500D01*
X62393587Y-54489868D01*
X62393579Y-54489870D01*
X62202403Y-54569058D01*
X62030342Y-54684024D01*
X61884024Y-54830342D01*
X61769057Y-55002403D01*
X61700835Y-55167108D01*
X61656994Y-55221511D01*
X61590700Y-55243576D01*
X61523000Y-55226297D01*
X61475390Y-55175159D01*
X61468343Y-55157973D01*
X61411095Y-54981782D01*
X61314620Y-54792442D01*
X61189727Y-54620540D01*
X61189723Y-54620535D01*
X61039464Y-54470276D01*
X61039459Y-54470272D01*
X60867557Y-54345379D01*
X60678216Y-54248904D01*
X60502026Y-54191656D01*
X60444350Y-54152218D01*
X60417152Y-54087860D01*
X60429067Y-54019013D01*
X60476311Y-53967538D01*
X60492882Y-53959168D01*
X60657598Y-53890941D01*
X60829655Y-53775977D01*
X60975977Y-53629655D01*
X61090941Y-53457598D01*
X61170130Y-53266420D01*
X61210500Y-53063465D01*
X61210500Y-52856535D01*
X61210499Y-52856530D01*
X61649500Y-52856530D01*
X61649500Y-53063469D01*
X61689868Y-53266412D01*
X61689870Y-53266420D01*
X61755939Y-53425925D01*
X61769059Y-53457598D01*
X61810032Y-53518919D01*
X61884024Y-53629657D01*
X62030342Y-53775975D01*
X62030345Y-53775977D01*
X62202402Y-53890941D01*
X62393580Y-53970130D01*
X62538052Y-53998867D01*
X62596530Y-54010499D01*
X62596534Y-54010500D01*
X62596535Y-54010500D01*
X62803466Y-54010500D01*
X62803467Y-54010499D01*
X63006420Y-53970130D01*
X63197598Y-53890941D01*
X63369655Y-53775977D01*
X63515977Y-53629655D01*
X63630941Y-53457598D01*
X63710130Y-53266420D01*
X63750500Y-53063465D01*
X63750500Y-52856535D01*
X63710130Y-52653580D01*
X63630941Y-52462402D01*
X63515977Y-52290345D01*
X63515975Y-52290342D01*
X63369657Y-52144024D01*
X63289173Y-52090247D01*
X64189500Y-52090247D01*
X64189500Y-53829752D01*
X64201131Y-53888229D01*
X64201132Y-53888230D01*
X64245447Y-53954552D01*
X64311769Y-53998867D01*
X64311770Y-53998868D01*
X64370247Y-54010499D01*
X64370250Y-54010500D01*
X64370252Y-54010500D01*
X66109750Y-54010500D01*
X66109751Y-54010499D01*
X66124568Y-54007552D01*
X66168229Y-53998868D01*
X66168229Y-53998867D01*
X66168231Y-53998867D01*
X66234552Y-53954552D01*
X66278867Y-53888231D01*
X66278867Y-53888229D01*
X66278868Y-53888229D01*
X66290499Y-53829752D01*
X66290500Y-53829750D01*
X66290500Y-52090249D01*
X66290499Y-52090247D01*
X66278868Y-52031770D01*
X66278867Y-52031769D01*
X66234552Y-51965447D01*
X66168230Y-51921132D01*
X66168229Y-51921131D01*
X66109752Y-51909500D01*
X66109748Y-51909500D01*
X64370252Y-51909500D01*
X64370247Y-51909500D01*
X64311770Y-51921131D01*
X64311769Y-51921132D01*
X64245447Y-51965447D01*
X64201132Y-52031769D01*
X64201131Y-52031770D01*
X64189500Y-52090247D01*
X63289173Y-52090247D01*
X63253636Y-52066502D01*
X63197598Y-52029059D01*
X63126147Y-51999463D01*
X63006420Y-51949870D01*
X63006412Y-51949868D01*
X62803469Y-51909500D01*
X62803465Y-51909500D01*
X62596535Y-51909500D01*
X62596530Y-51909500D01*
X62393587Y-51949868D01*
X62393579Y-51949870D01*
X62202403Y-52029058D01*
X62030342Y-52144024D01*
X61884024Y-52290342D01*
X61769058Y-52462403D01*
X61689870Y-52653579D01*
X61689868Y-52653587D01*
X61649500Y-52856530D01*
X61210499Y-52856530D01*
X61170130Y-52653580D01*
X61090941Y-52462402D01*
X60975977Y-52290345D01*
X60975975Y-52290342D01*
X60829657Y-52144024D01*
X60713636Y-52066502D01*
X60657598Y-52029059D01*
X60586147Y-51999463D01*
X60466420Y-51949870D01*
X60466412Y-51949868D01*
X60263469Y-51909500D01*
X60263465Y-51909500D01*
X60056535Y-51909500D01*
X60056530Y-51909500D01*
X59853587Y-51949868D01*
X59853579Y-51949870D01*
X59662403Y-52029058D01*
X59490342Y-52144024D01*
X59344024Y-52290342D01*
X59229058Y-52462403D01*
X59149870Y-52653579D01*
X59149868Y-52653587D01*
X59109500Y-52856530D01*
X59109500Y-53063469D01*
X59149868Y-53266412D01*
X59149870Y-53266420D01*
X59215939Y-53425925D01*
X59229059Y-53457598D01*
X59270032Y-53518919D01*
X59344024Y-53629657D01*
X59490342Y-53775975D01*
X59662405Y-53890943D01*
X59749482Y-53927011D01*
X59827108Y-53959164D01*
X59881511Y-54003005D01*
X59903576Y-54069299D01*
X59886297Y-54136998D01*
X59835160Y-54184609D01*
X59817974Y-54191656D01*
X59641781Y-54248905D01*
X59452442Y-54345379D01*
X59280540Y-54470272D01*
X59280535Y-54470276D01*
X59130276Y-54620535D01*
X59130272Y-54620540D01*
X59005379Y-54792442D01*
X58908905Y-54981781D01*
X58851656Y-55157974D01*
X58812218Y-55215649D01*
X58747859Y-55242847D01*
X58679013Y-55230932D01*
X58627537Y-55183688D01*
X58619164Y-55167107D01*
X58550943Y-55002405D01*
X58435975Y-54830342D01*
X58289657Y-54684024D01*
X58157083Y-54595442D01*
X58117598Y-54569059D01*
X58117593Y-54569057D01*
X57926420Y-54489870D01*
X57926412Y-54489868D01*
X57723469Y-54449500D01*
X57723465Y-54449500D01*
X57516535Y-54449500D01*
X57516530Y-54449500D01*
X57313587Y-54489868D01*
X57313579Y-54489870D01*
X57122403Y-54569058D01*
X56950342Y-54684024D01*
X56804024Y-54830342D01*
X56689058Y-55002403D01*
X56609870Y-55193579D01*
X56609868Y-55193587D01*
X56569500Y-55396530D01*
X56130499Y-55396530D01*
X56090130Y-55193580D01*
X56010941Y-55002402D01*
X55895977Y-54830345D01*
X55895975Y-54830342D01*
X55749657Y-54684024D01*
X55617083Y-54595442D01*
X55577598Y-54569059D01*
X55577593Y-54569057D01*
X55449498Y-54515998D01*
X55412890Y-54500834D01*
X55358488Y-54456994D01*
X55336423Y-54390700D01*
X55353702Y-54323001D01*
X55404839Y-54275390D01*
X55422026Y-54268343D01*
X55598217Y-54211095D01*
X55787557Y-54114620D01*
X55959459Y-53989727D01*
X55959464Y-53989723D01*
X56109723Y-53839464D01*
X56109727Y-53839459D01*
X56234620Y-53667557D01*
X56331095Y-53478217D01*
X56388343Y-53302026D01*
X56427780Y-53244351D01*
X56492139Y-53217152D01*
X56560985Y-53229066D01*
X56612461Y-53276310D01*
X56620835Y-53292891D01*
X56675939Y-53425925D01*
X56689059Y-53457598D01*
X56730032Y-53518919D01*
X56804024Y-53629657D01*
X56950342Y-53775975D01*
X56950345Y-53775977D01*
X57122402Y-53890941D01*
X57313580Y-53970130D01*
X57458052Y-53998867D01*
X57516530Y-54010499D01*
X57516534Y-54010500D01*
X57516535Y-54010500D01*
X57723466Y-54010500D01*
X57723467Y-54010499D01*
X57926420Y-53970130D01*
X58117598Y-53890941D01*
X58289655Y-53775977D01*
X58435977Y-53629655D01*
X58550941Y-53457598D01*
X58630130Y-53266420D01*
X58670500Y-53063465D01*
X58670500Y-52856535D01*
X58630130Y-52653580D01*
X58550941Y-52462402D01*
X58435977Y-52290345D01*
X58435975Y-52290342D01*
X58289657Y-52144024D01*
X58173636Y-52066502D01*
X58117598Y-52029059D01*
X58046147Y-51999463D01*
X57926420Y-51949870D01*
X57926412Y-51949868D01*
X57723469Y-51909500D01*
X57723465Y-51909500D01*
X57516535Y-51909500D01*
X57516530Y-51909500D01*
X57313587Y-51949868D01*
X57313579Y-51949870D01*
X57122403Y-52029058D01*
X56950342Y-52144024D01*
X56804024Y-52290342D01*
X56689057Y-52462403D01*
X56620835Y-52627108D01*
X56576994Y-52681511D01*
X56510700Y-52703576D01*
X56443000Y-52686297D01*
X56395390Y-52635159D01*
X56388343Y-52617973D01*
X56331095Y-52441782D01*
X56234620Y-52252442D01*
X56109727Y-52080540D01*
X56109723Y-52080535D01*
X55959464Y-51930276D01*
X55959459Y-51930272D01*
X55787557Y-51805379D01*
X55598215Y-51708903D01*
X55396124Y-51643241D01*
X55330000Y-51632768D01*
X55330000Y-52526988D01*
X55272993Y-52494075D01*
X55145826Y-52460000D01*
X55014174Y-52460000D01*
X54887007Y-52494075D01*
X54830000Y-52526988D01*
X54830000Y-51632768D01*
X54829999Y-51632768D01*
X54763875Y-51643241D01*
X54561784Y-51708903D01*
X54372442Y-51805379D01*
X54200540Y-51930272D01*
X54200535Y-51930276D01*
X54050276Y-52080535D01*
X54050272Y-52080540D01*
X53925379Y-52252442D01*
X53828905Y-52441781D01*
X53771656Y-52617974D01*
X53732218Y-52675649D01*
X53667859Y-52702847D01*
X53599013Y-52690932D01*
X53547537Y-52643688D01*
X53539164Y-52627107D01*
X53470943Y-52462405D01*
X53355975Y-52290342D01*
X53209657Y-52144024D01*
X53093636Y-52066502D01*
X53037598Y-52029059D01*
X52966147Y-51999463D01*
X52846420Y-51949870D01*
X52846412Y-51949868D01*
X52643469Y-51909500D01*
X52643465Y-51909500D01*
X52436535Y-51909500D01*
X52436530Y-51909500D01*
X52233587Y-51949868D01*
X52233579Y-51949870D01*
X52042403Y-52029058D01*
X51870342Y-52144024D01*
X51724025Y-52290341D01*
X51724019Y-52290349D01*
X51628602Y-52433152D01*
X51574990Y-52477958D01*
X51505665Y-52486665D01*
X51442638Y-52456511D01*
X51405918Y-52397068D01*
X51401500Y-52364262D01*
X51401500Y-39849833D01*
X51421185Y-39782794D01*
X51437819Y-39762152D01*
X54313152Y-36886819D01*
X54374475Y-36853334D01*
X54400833Y-36850500D01*
X54434306Y-36850500D01*
X54434309Y-36850500D01*
X54548886Y-36819799D01*
X54651613Y-36760489D01*
X54735489Y-36676613D01*
X54794799Y-36573886D01*
X54825500Y-36459309D01*
X54825500Y-36340691D01*
X54794799Y-36226114D01*
X54735489Y-36123387D01*
X54651613Y-36039511D01*
X54548886Y-35980201D01*
X54434309Y-35949500D01*
X54315691Y-35949500D01*
X54201114Y-35980201D01*
X54201112Y-35980201D01*
X54201112Y-35980202D01*
X54098387Y-36039511D01*
X54098384Y-36039513D01*
X54014513Y-36123384D01*
X54014511Y-36123387D01*
X53955201Y-36226114D01*
X53924500Y-36340691D01*
X53924500Y-36340693D01*
X53924500Y-36374167D01*
X53904815Y-36441206D01*
X53888181Y-36461848D01*
X50860541Y-39489487D01*
X50860535Y-39489495D01*
X50820982Y-39558004D01*
X50820979Y-39558009D01*
X50800500Y-39634439D01*
X50800500Y-51999463D01*
X50780815Y-52066502D01*
X50728011Y-52112257D01*
X50658853Y-52122201D01*
X50607610Y-52102566D01*
X50519227Y-52043511D01*
X50497598Y-52029059D01*
X50426147Y-51999463D01*
X50306420Y-51949870D01*
X50306412Y-51949868D01*
X50103469Y-51909500D01*
X50103465Y-51909500D01*
X49896535Y-51909500D01*
X49896530Y-51909500D01*
X49693587Y-51949868D01*
X49693579Y-51949870D01*
X49502403Y-52029058D01*
X49330342Y-52144024D01*
X49184024Y-52290342D01*
X49069058Y-52462403D01*
X48989870Y-52653579D01*
X48989868Y-52653587D01*
X48949500Y-52856530D01*
X48949500Y-53063469D01*
X48989868Y-53266412D01*
X48989871Y-53266424D01*
X49039803Y-53386971D01*
X49047272Y-53456440D01*
X49015997Y-53518919D01*
X49012924Y-53522104D01*
X48810846Y-53724182D01*
X48749526Y-53757666D01*
X48723167Y-53760500D01*
X48420537Y-53760500D01*
X48353498Y-53740815D01*
X48307743Y-53688011D01*
X48297799Y-53618853D01*
X48317434Y-53567610D01*
X48341201Y-53532039D01*
X48390941Y-53457598D01*
X48470130Y-53266420D01*
X48510500Y-53063465D01*
X48510500Y-52856535D01*
X48470130Y-52653580D01*
X48390941Y-52462402D01*
X48275977Y-52290345D01*
X48275975Y-52290342D01*
X48129657Y-52144024D01*
X48013636Y-52066502D01*
X47957598Y-52029059D01*
X47886147Y-51999463D01*
X47766420Y-51949870D01*
X47766412Y-51949868D01*
X47563469Y-51909500D01*
X47563465Y-51909500D01*
X47356535Y-51909500D01*
X47356530Y-51909500D01*
X47153587Y-51949868D01*
X47153579Y-51949870D01*
X46962403Y-52029058D01*
X46790342Y-52144024D01*
X46644024Y-52290342D01*
X46529058Y-52462403D01*
X46449870Y-52653579D01*
X46449868Y-52653587D01*
X46409500Y-52856530D01*
X46409500Y-53063469D01*
X46449868Y-53266412D01*
X46449870Y-53266420D01*
X46515939Y-53425925D01*
X46529059Y-53457598D01*
X46570032Y-53518919D01*
X46602566Y-53567610D01*
X46623443Y-53634287D01*
X46604958Y-53701667D01*
X46552979Y-53748357D01*
X46499463Y-53760500D01*
X45880537Y-53760500D01*
X45813498Y-53740815D01*
X45767743Y-53688011D01*
X45757799Y-53618853D01*
X45777434Y-53567610D01*
X45801201Y-53532039D01*
X45850941Y-53457598D01*
X45930130Y-53266420D01*
X45970500Y-53063465D01*
X45970500Y-52856535D01*
X45930130Y-52653580D01*
X45850941Y-52462402D01*
X45735977Y-52290345D01*
X45735975Y-52290342D01*
X45589657Y-52144024D01*
X45473636Y-52066502D01*
X45417598Y-52029059D01*
X45346147Y-51999463D01*
X45226420Y-51949870D01*
X45226412Y-51949868D01*
X45023469Y-51909500D01*
X45023465Y-51909500D01*
X44816535Y-51909500D01*
X44816530Y-51909500D01*
X44613587Y-51949868D01*
X44613579Y-51949870D01*
X44422403Y-52029058D01*
X44250342Y-52144024D01*
X44104024Y-52290342D01*
X43989058Y-52462403D01*
X43909870Y-52653579D01*
X43909868Y-52653587D01*
X43869500Y-52856530D01*
X43869500Y-53063469D01*
X43909868Y-53266412D01*
X43909870Y-53266420D01*
X43975939Y-53425925D01*
X43989059Y-53457598D01*
X44030032Y-53518919D01*
X44104024Y-53629657D01*
X44250342Y-53775975D01*
X44250345Y-53775977D01*
X44371485Y-53856920D01*
X44416289Y-53910530D01*
X44424997Y-53979855D01*
X44394843Y-54042883D01*
X44390275Y-54047702D01*
X43683956Y-54754022D01*
X43622633Y-54787507D01*
X43552942Y-54782523D01*
X43497008Y-54740652D01*
X43495957Y-54739226D01*
X43409727Y-54620539D01*
X43259464Y-54470276D01*
X43259459Y-54470272D01*
X43087557Y-54345379D01*
X42898216Y-54248904D01*
X42722026Y-54191656D01*
X42664350Y-54152218D01*
X42637152Y-54087860D01*
X42649067Y-54019013D01*
X42696311Y-53967538D01*
X42712882Y-53959168D01*
X42877598Y-53890941D01*
X43049655Y-53775977D01*
X43195977Y-53629655D01*
X43310941Y-53457598D01*
X43390130Y-53266420D01*
X43430500Y-53063465D01*
X43430500Y-52856535D01*
X43390130Y-52653580D01*
X43310941Y-52462402D01*
X43195977Y-52290345D01*
X43195975Y-52290342D01*
X43049657Y-52144024D01*
X42933636Y-52066502D01*
X42877598Y-52029059D01*
X42806147Y-51999463D01*
X42686420Y-51949870D01*
X42686412Y-51949868D01*
X42483469Y-51909500D01*
X42483465Y-51909500D01*
X42276535Y-51909500D01*
X42276530Y-51909500D01*
X42073587Y-51949868D01*
X42073579Y-51949870D01*
X41882403Y-52029058D01*
X41710342Y-52144024D01*
X41564024Y-52290342D01*
X41449058Y-52462403D01*
X41369870Y-52653579D01*
X41369868Y-52653587D01*
X41329500Y-52856530D01*
X41329500Y-53063469D01*
X41369868Y-53266412D01*
X41369870Y-53266420D01*
X41435939Y-53425925D01*
X41449059Y-53457598D01*
X41490032Y-53518919D01*
X41564024Y-53629657D01*
X41710342Y-53775975D01*
X41882405Y-53890943D01*
X41969482Y-53927011D01*
X42047108Y-53959164D01*
X42101511Y-54003005D01*
X42123576Y-54069299D01*
X42106297Y-54136998D01*
X42055160Y-54184609D01*
X42037974Y-54191656D01*
X41861781Y-54248905D01*
X41672442Y-54345379D01*
X41500540Y-54470272D01*
X41500535Y-54470276D01*
X41350276Y-54620535D01*
X41350272Y-54620540D01*
X41225379Y-54792442D01*
X41128905Y-54981781D01*
X41071656Y-55157974D01*
X41032218Y-55215649D01*
X40967859Y-55242847D01*
X40899013Y-55230932D01*
X40847537Y-55183688D01*
X40839164Y-55167107D01*
X40770943Y-55002405D01*
X40655975Y-54830342D01*
X40509657Y-54684024D01*
X40377083Y-54595442D01*
X40337598Y-54569059D01*
X40337593Y-54569057D01*
X40146420Y-54489870D01*
X40146412Y-54489868D01*
X39943469Y-54449500D01*
X39943465Y-54449500D01*
X39736535Y-54449500D01*
X39736530Y-54449500D01*
X39533587Y-54489868D01*
X39533579Y-54489870D01*
X39342403Y-54569058D01*
X39170342Y-54684024D01*
X39024024Y-54830342D01*
X38909058Y-55002403D01*
X38829870Y-55193579D01*
X38829868Y-55193587D01*
X38789500Y-55396530D01*
X38789500Y-55603469D01*
X38829868Y-55806412D01*
X38829870Y-55806420D01*
X38908495Y-55996238D01*
X38909059Y-55997598D01*
X38922836Y-56018217D01*
X39024024Y-56169657D01*
X39170342Y-56315975D01*
X39170345Y-56315977D01*
X39342402Y-56430941D01*
X39533580Y-56510130D01*
X39736530Y-56550499D01*
X39736534Y-56550500D01*
X39736535Y-56550500D01*
X39943466Y-56550500D01*
X39943467Y-56550499D01*
X40146420Y-56510130D01*
X40337598Y-56430941D01*
X40509655Y-56315977D01*
X40655977Y-56169655D01*
X40770941Y-55997598D01*
X40839165Y-55832889D01*
X40883004Y-55778488D01*
X40949298Y-55756423D01*
X41016998Y-55773702D01*
X41064609Y-55824839D01*
X41071656Y-55842026D01*
X41128904Y-56018216D01*
X41225379Y-56207557D01*
X41350272Y-56379459D01*
X41350276Y-56379464D01*
X41500535Y-56529723D01*
X41500540Y-56529727D01*
X41672442Y-56654620D01*
X41790971Y-56715015D01*
X41841767Y-56762990D01*
X41858562Y-56830811D01*
X41836024Y-56896946D01*
X41781309Y-56940397D01*
X41734676Y-56949500D01*
X30325324Y-56949500D01*
X30258285Y-56929815D01*
X30212530Y-56877011D01*
X30202586Y-56807853D01*
X30231611Y-56744297D01*
X30269029Y-56715015D01*
X30387557Y-56654620D01*
X30559459Y-56529727D01*
X30559464Y-56529723D01*
X30709723Y-56379464D01*
X30709727Y-56379459D01*
X30834620Y-56207557D01*
X30931095Y-56018217D01*
X30988343Y-55842026D01*
X31027780Y-55784351D01*
X31092139Y-55757152D01*
X31160985Y-55769066D01*
X31212461Y-55816310D01*
X31220835Y-55832891D01*
X31288495Y-55996238D01*
X31289059Y-55997598D01*
X31302836Y-56018217D01*
X31404024Y-56169657D01*
X31550342Y-56315975D01*
X31550345Y-56315977D01*
X31722402Y-56430941D01*
X31913580Y-56510130D01*
X32116530Y-56550499D01*
X32116534Y-56550500D01*
X32116535Y-56550500D01*
X32323466Y-56550500D01*
X32323467Y-56550499D01*
X32526420Y-56510130D01*
X32717598Y-56430941D01*
X32889655Y-56315977D01*
X33035977Y-56169655D01*
X33150941Y-55997598D01*
X33230130Y-55806420D01*
X33270500Y-55603465D01*
X33270500Y-55396535D01*
X33230130Y-55193580D01*
X33150941Y-55002402D01*
X33035977Y-54830345D01*
X33035975Y-54830342D01*
X33017814Y-54812181D01*
X32984329Y-54750858D01*
X32989313Y-54681166D01*
X33031185Y-54625233D01*
X33096649Y-54600816D01*
X33105495Y-54600500D01*
X33874505Y-54600500D01*
X33941544Y-54620185D01*
X33987299Y-54672989D01*
X33997243Y-54742147D01*
X33968218Y-54805703D01*
X33962186Y-54812181D01*
X33944025Y-54830341D01*
X33944024Y-54830342D01*
X33829058Y-55002403D01*
X33749870Y-55193579D01*
X33749868Y-55193587D01*
X33709500Y-55396530D01*
X33709500Y-55603469D01*
X33749868Y-55806412D01*
X33749870Y-55806420D01*
X33828495Y-55996238D01*
X33829059Y-55997598D01*
X33842836Y-56018217D01*
X33944024Y-56169657D01*
X34090342Y-56315975D01*
X34090345Y-56315977D01*
X34262402Y-56430941D01*
X34453580Y-56510130D01*
X34656530Y-56550499D01*
X34656534Y-56550500D01*
X34656535Y-56550500D01*
X34863466Y-56550500D01*
X34863467Y-56550499D01*
X35066420Y-56510130D01*
X35257598Y-56430941D01*
X35429655Y-56315977D01*
X35575977Y-56169655D01*
X35690941Y-55997598D01*
X35770130Y-55806420D01*
X35810500Y-55603465D01*
X35810500Y-55396535D01*
X35770130Y-55193580D01*
X35690941Y-55002402D01*
X35575977Y-54830345D01*
X35575975Y-54830342D01*
X35557814Y-54812181D01*
X35524329Y-54750858D01*
X35529313Y-54681166D01*
X35571185Y-54625233D01*
X35636649Y-54600816D01*
X35645495Y-54600500D01*
X36414505Y-54600500D01*
X36481544Y-54620185D01*
X36527299Y-54672989D01*
X36537243Y-54742147D01*
X36508218Y-54805703D01*
X36502186Y-54812181D01*
X36484025Y-54830341D01*
X36484024Y-54830342D01*
X36369058Y-55002403D01*
X36289870Y-55193579D01*
X36289868Y-55193587D01*
X36249500Y-55396530D01*
X36249500Y-55603469D01*
X36289868Y-55806412D01*
X36289870Y-55806420D01*
X36368495Y-55996238D01*
X36369059Y-55997598D01*
X36382836Y-56018217D01*
X36484024Y-56169657D01*
X36630342Y-56315975D01*
X36630345Y-56315977D01*
X36802402Y-56430941D01*
X36993580Y-56510130D01*
X37196530Y-56550499D01*
X37196534Y-56550500D01*
X37196535Y-56550500D01*
X37403466Y-56550500D01*
X37403467Y-56550499D01*
X37606420Y-56510130D01*
X37797598Y-56430941D01*
X37969655Y-56315977D01*
X38115977Y-56169655D01*
X38230941Y-55997598D01*
X38310130Y-55806420D01*
X38350500Y-55603465D01*
X38350500Y-55396535D01*
X38310130Y-55193580D01*
X38230941Y-55002402D01*
X38115977Y-54830345D01*
X38115975Y-54830342D01*
X37969658Y-54684025D01*
X37969653Y-54684021D01*
X37848515Y-54603079D01*
X37803710Y-54549467D01*
X37795003Y-54480142D01*
X37825158Y-54417114D01*
X37829725Y-54412296D01*
X38231522Y-54010499D01*
X38641460Y-53600561D01*
X38681021Y-53532039D01*
X38689698Y-53499656D01*
X38726061Y-53439997D01*
X38788908Y-53409467D01*
X38858284Y-53417761D01*
X38912162Y-53462246D01*
X38912574Y-53462860D01*
X39024019Y-53629650D01*
X39024025Y-53629658D01*
X39170342Y-53775975D01*
X39170345Y-53775977D01*
X39342402Y-53890941D01*
X39533580Y-53970130D01*
X39678052Y-53998867D01*
X39736530Y-54010499D01*
X39736534Y-54010500D01*
X39736535Y-54010500D01*
X39943466Y-54010500D01*
X39943467Y-54010499D01*
X40146420Y-53970130D01*
X40337598Y-53890941D01*
X40509655Y-53775977D01*
X40655977Y-53629655D01*
X40770941Y-53457598D01*
X40850130Y-53266420D01*
X40890500Y-53063465D01*
X40890500Y-52856535D01*
X40850130Y-52653580D01*
X40770941Y-52462402D01*
X40655977Y-52290345D01*
X40655975Y-52290342D01*
X40509657Y-52144024D01*
X40393636Y-52066502D01*
X40337598Y-52029059D01*
X40266147Y-51999463D01*
X40146420Y-51949870D01*
X40146412Y-51949868D01*
X39943469Y-51909500D01*
X39943465Y-51909500D01*
X39736535Y-51909500D01*
X39736530Y-51909500D01*
X39533587Y-51949868D01*
X39533579Y-51949870D01*
X39342403Y-52029058D01*
X39170342Y-52144024D01*
X39024025Y-52290341D01*
X39024019Y-52290349D01*
X38928602Y-52433152D01*
X38874990Y-52477958D01*
X38805665Y-52486665D01*
X38742638Y-52456511D01*
X38705918Y-52397068D01*
X38701500Y-52364262D01*
X38701500Y-52274833D01*
X38721185Y-52207794D01*
X38737819Y-52187152D01*
X39581085Y-51343886D01*
X40440460Y-50484511D01*
X40467137Y-50438305D01*
X40475632Y-50423591D01*
X40475638Y-50423580D01*
X40480021Y-50415989D01*
X40500500Y-50339562D01*
X40500500Y-32450438D01*
X40480021Y-32374011D01*
X40477762Y-32370099D01*
X40440464Y-32305495D01*
X40440458Y-32305487D01*
X39516873Y-31381902D01*
X68499500Y-31381902D01*
X68499500Y-31618097D01*
X68536446Y-31851368D01*
X68609433Y-32075996D01*
X68653761Y-32162993D01*
X68716657Y-32286433D01*
X68855483Y-32477510D01*
X69022490Y-32644517D01*
X69213567Y-32783343D01*
X69291310Y-32822955D01*
X69424003Y-32890566D01*
X69424005Y-32890566D01*
X69424008Y-32890568D01*
X69544412Y-32929689D01*
X69648631Y-32963553D01*
X69881903Y-33000500D01*
X69881908Y-33000500D01*
X70118097Y-33000500D01*
X70351368Y-32963553D01*
X70390614Y-32950801D01*
X70575992Y-32890568D01*
X70578960Y-32889056D01*
X70588875Y-32884004D01*
X70786433Y-32783343D01*
X70977510Y-32644517D01*
X71144517Y-32477510D01*
X71283343Y-32286433D01*
X71390568Y-32075992D01*
X71463553Y-31851368D01*
X71475331Y-31777007D01*
X71500500Y-31618097D01*
X71500500Y-31381902D01*
X71463553Y-31148631D01*
X71390566Y-30924003D01*
X71283342Y-30713566D01*
X71252062Y-30670513D01*
X71144517Y-30522490D01*
X70977510Y-30355483D01*
X70786433Y-30216657D01*
X70772387Y-30209500D01*
X70575996Y-30109433D01*
X70351368Y-30036446D01*
X70118097Y-29999500D01*
X70118092Y-29999500D01*
X69881908Y-29999500D01*
X69881903Y-29999500D01*
X69648631Y-30036446D01*
X69424003Y-30109433D01*
X69213566Y-30216657D01*
X69104550Y-30295862D01*
X69022490Y-30355483D01*
X69022488Y-30355485D01*
X69022487Y-30355485D01*
X68855485Y-30522487D01*
X68855485Y-30522488D01*
X68855483Y-30522490D01*
X68821729Y-30568948D01*
X68716657Y-30713566D01*
X68609433Y-30924003D01*
X68536446Y-31148631D01*
X68499500Y-31381902D01*
X39516873Y-31381902D01*
X38404512Y-30269541D01*
X38404504Y-30269535D01*
X38335995Y-30229982D01*
X38335990Y-30229979D01*
X38310513Y-30223152D01*
X38259562Y-30209500D01*
X33830438Y-30209500D01*
X33792224Y-30219739D01*
X33754009Y-30229979D01*
X33754004Y-30229982D01*
X33685495Y-30269535D01*
X33685487Y-30269541D01*
X32904751Y-31050276D01*
X32843428Y-31083761D01*
X32773736Y-31078777D01*
X32769637Y-31077164D01*
X32690751Y-31044488D01*
X32690743Y-31044486D01*
X32504802Y-31007500D01*
X32504798Y-31007500D01*
X32315202Y-31007500D01*
X32315197Y-31007500D01*
X32129256Y-31044486D01*
X32129248Y-31044488D01*
X31954087Y-31117042D01*
X31796441Y-31222377D01*
X31662377Y-31356441D01*
X31557042Y-31514087D01*
X31484488Y-31689248D01*
X31484486Y-31689256D01*
X31447500Y-31875197D01*
X31447500Y-32064802D01*
X31484486Y-32250743D01*
X31484488Y-32250751D01*
X31557042Y-32425912D01*
X31662377Y-32583558D01*
X31796441Y-32717622D01*
X31894799Y-32783342D01*
X31954085Y-32822956D01*
X31954086Y-32822956D01*
X31954087Y-32822957D01*
X31983495Y-32835138D01*
X32030991Y-32854812D01*
X32031716Y-32855112D01*
X32086119Y-32898953D01*
X32108184Y-32965247D01*
X32090905Y-33032946D01*
X32039768Y-33080557D01*
X31984241Y-33093673D01*
X30296439Y-33093373D01*
X30229403Y-33073677D01*
X30183657Y-33020864D01*
X30173726Y-32951704D01*
X30202762Y-32888154D01*
X30249007Y-32854812D01*
X30296539Y-32835124D01*
X30325913Y-32822957D01*
X30325913Y-32822956D01*
X30325915Y-32822956D01*
X30483558Y-32717622D01*
X30617622Y-32583558D01*
X30722956Y-32425915D01*
X30795512Y-32250751D01*
X30832500Y-32064798D01*
X30832500Y-31875202D01*
X30795512Y-31689249D01*
X30722956Y-31514085D01*
X30634634Y-31381902D01*
X30617622Y-31356441D01*
X30483558Y-31222377D01*
X30325912Y-31117042D01*
X30150751Y-31044488D01*
X30150743Y-31044486D01*
X29964802Y-31007500D01*
X29964798Y-31007500D01*
X29775202Y-31007500D01*
X29775197Y-31007500D01*
X29589256Y-31044486D01*
X29589248Y-31044488D01*
X29414087Y-31117042D01*
X29256441Y-31222377D01*
X29122377Y-31356441D01*
X29017042Y-31514087D01*
X28944488Y-31689248D01*
X28944486Y-31689256D01*
X28907500Y-31875197D01*
X28907500Y-32064802D01*
X28944486Y-32250743D01*
X28944488Y-32250751D01*
X29017042Y-32425912D01*
X29122377Y-32583558D01*
X29256441Y-32717622D01*
X29414086Y-32822957D01*
X29470427Y-32846293D01*
X29490625Y-32854660D01*
X29545028Y-32898501D01*
X29567093Y-32964795D01*
X29549814Y-33032494D01*
X29498677Y-33080105D01*
X29443150Y-33093221D01*
X27757528Y-33092921D01*
X27690492Y-33073225D01*
X27644746Y-33020412D01*
X27634815Y-32951252D01*
X27663852Y-32887702D01*
X27710094Y-32854362D01*
X27785915Y-32822956D01*
X27943558Y-32717622D01*
X28077622Y-32583558D01*
X28182956Y-32425915D01*
X28255512Y-32250751D01*
X28292500Y-32064798D01*
X28292500Y-31875202D01*
X28255512Y-31689249D01*
X28182956Y-31514085D01*
X28094634Y-31381902D01*
X28077622Y-31356441D01*
X27943558Y-31222377D01*
X27785912Y-31117042D01*
X27610751Y-31044488D01*
X27610743Y-31044486D01*
X27424802Y-31007500D01*
X27424798Y-31007500D01*
X27235202Y-31007500D01*
X27235197Y-31007500D01*
X27049256Y-31044486D01*
X27049248Y-31044488D01*
X26874087Y-31117042D01*
X26716441Y-31222377D01*
X26582377Y-31356441D01*
X26477042Y-31514087D01*
X26404488Y-31689248D01*
X26404486Y-31689256D01*
X26367500Y-31875197D01*
X26367500Y-32064802D01*
X26404486Y-32250743D01*
X26404488Y-32250751D01*
X26477042Y-32425912D01*
X26582377Y-32583558D01*
X26716441Y-32717622D01*
X26814799Y-32783342D01*
X26874085Y-32822956D01*
X26874086Y-32822956D01*
X26874087Y-32822957D01*
X26874089Y-32822958D01*
X26914424Y-32839665D01*
X26949534Y-32854208D01*
X27003938Y-32898048D01*
X27026003Y-32964342D01*
X27008724Y-33032042D01*
X26957587Y-33079653D01*
X26902060Y-33092769D01*
X25218618Y-33092470D01*
X25151582Y-33072774D01*
X25105836Y-33019961D01*
X25095905Y-32950801D01*
X25124941Y-32887251D01*
X25171187Y-32853909D01*
X25245915Y-32822956D01*
X25403558Y-32717622D01*
X25537622Y-32583558D01*
X25642956Y-32425915D01*
X25715512Y-32250751D01*
X25752500Y-32064798D01*
X25752500Y-31875202D01*
X25715512Y-31689249D01*
X25642956Y-31514085D01*
X25554634Y-31381902D01*
X25537622Y-31356441D01*
X25403558Y-31222377D01*
X25245912Y-31117042D01*
X25070751Y-31044488D01*
X25070743Y-31044486D01*
X24884802Y-31007500D01*
X24884798Y-31007500D01*
X24695202Y-31007500D01*
X24695197Y-31007500D01*
X24509256Y-31044486D01*
X24509248Y-31044488D01*
X24334087Y-31117042D01*
X24176441Y-31222377D01*
X24042377Y-31356441D01*
X23937042Y-31514087D01*
X23864488Y-31689248D01*
X23864486Y-31689256D01*
X23827500Y-31875197D01*
X23827500Y-32064802D01*
X23864486Y-32250743D01*
X23864488Y-32250751D01*
X23937042Y-32425912D01*
X24042377Y-32583558D01*
X24176441Y-32717622D01*
X24274799Y-32783342D01*
X24334085Y-32822956D01*
X24334086Y-32822956D01*
X24334087Y-32822957D01*
X24408444Y-32853757D01*
X24462847Y-32897598D01*
X24484912Y-32963893D01*
X24467633Y-33031592D01*
X24416495Y-33079202D01*
X24360969Y-33092318D01*
X22679708Y-33092019D01*
X22612672Y-33072323D01*
X22566926Y-33019510D01*
X22556995Y-32950350D01*
X22586031Y-32886800D01*
X22632277Y-32853458D01*
X22632647Y-32853305D01*
X22676505Y-32835138D01*
X22705913Y-32822957D01*
X22705913Y-32822956D01*
X22705915Y-32822956D01*
X22863558Y-32717622D01*
X22997622Y-32583558D01*
X23102956Y-32425915D01*
X23175512Y-32250751D01*
X23212500Y-32064798D01*
X23212500Y-31875202D01*
X23175512Y-31689249D01*
X23102956Y-31514085D01*
X23014634Y-31381902D01*
X22997622Y-31356441D01*
X22863558Y-31222377D01*
X22705912Y-31117042D01*
X22530751Y-31044488D01*
X22530743Y-31044486D01*
X22344802Y-31007500D01*
X22344798Y-31007500D01*
X22155202Y-31007500D01*
X22155197Y-31007500D01*
X21969256Y-31044486D01*
X21969248Y-31044488D01*
X21794087Y-31117042D01*
X21636441Y-31222377D01*
X21502377Y-31356441D01*
X21397042Y-31514087D01*
X21324488Y-31689248D01*
X21324486Y-31689256D01*
X21287500Y-31875197D01*
X21287500Y-32064802D01*
X21324486Y-32250743D01*
X21324488Y-32250751D01*
X21397042Y-32425912D01*
X21502377Y-32583558D01*
X21636441Y-32717622D01*
X21734799Y-32783342D01*
X21794085Y-32822956D01*
X21794086Y-32822956D01*
X21794087Y-32822957D01*
X21867353Y-32853305D01*
X21921756Y-32897146D01*
X21943821Y-32963440D01*
X21926542Y-33031140D01*
X21875404Y-33078750D01*
X21819878Y-33091866D01*
X20140797Y-33091567D01*
X20073761Y-33071870D01*
X20028015Y-33019058D01*
X20018084Y-32949898D01*
X20047121Y-32886348D01*
X20093361Y-32853008D01*
X20165915Y-32822956D01*
X20323558Y-32717622D01*
X20457622Y-32583558D01*
X20562956Y-32425915D01*
X20635512Y-32250751D01*
X20672500Y-32064798D01*
X20672500Y-31875202D01*
X20635512Y-31689249D01*
X20562956Y-31514085D01*
X20474634Y-31381902D01*
X20457622Y-31356441D01*
X20323558Y-31222377D01*
X20165912Y-31117042D01*
X19990751Y-31044488D01*
X19990743Y-31044486D01*
X19804802Y-31007500D01*
X19804798Y-31007500D01*
X19615202Y-31007500D01*
X19615197Y-31007500D01*
X19429256Y-31044486D01*
X19429248Y-31044488D01*
X19254087Y-31117042D01*
X19096441Y-31222377D01*
X18962377Y-31356441D01*
X18857042Y-31514087D01*
X18784488Y-31689248D01*
X18784486Y-31689256D01*
X18747500Y-31875197D01*
X18747500Y-32064802D01*
X18784486Y-32250743D01*
X18784488Y-32250751D01*
X18857042Y-32425912D01*
X18962377Y-32583558D01*
X19096441Y-32717622D01*
X19194799Y-32783342D01*
X19254085Y-32822956D01*
X19254086Y-32822956D01*
X19254087Y-32822957D01*
X19254089Y-32822958D01*
X19326262Y-32852853D01*
X19380666Y-32896694D01*
X19402731Y-32962988D01*
X19385452Y-33030687D01*
X19334315Y-33078298D01*
X19278788Y-33091414D01*
X17601887Y-33091116D01*
X17534851Y-33071420D01*
X17489105Y-33018607D01*
X17479174Y-32949447D01*
X17508210Y-32885897D01*
X17554457Y-32852555D01*
X17558103Y-32851045D01*
X17625915Y-32822956D01*
X17783558Y-32717622D01*
X17917622Y-32583558D01*
X18022956Y-32425915D01*
X18095512Y-32250751D01*
X18132500Y-32064798D01*
X18132500Y-31875202D01*
X18095512Y-31689249D01*
X18022956Y-31514085D01*
X17934634Y-31381902D01*
X17917622Y-31356441D01*
X17783558Y-31222377D01*
X17625912Y-31117042D01*
X17450751Y-31044488D01*
X17450743Y-31044486D01*
X17264802Y-31007500D01*
X17264798Y-31007500D01*
X17075202Y-31007500D01*
X17075197Y-31007500D01*
X16889256Y-31044486D01*
X16889248Y-31044488D01*
X16714087Y-31117042D01*
X16556441Y-31222377D01*
X16422377Y-31356441D01*
X16317042Y-31514087D01*
X16244488Y-31689248D01*
X16244486Y-31689256D01*
X16207500Y-31875197D01*
X16207500Y-32064802D01*
X16244486Y-32250743D01*
X16244488Y-32250751D01*
X16317042Y-32425912D01*
X16422377Y-32583558D01*
X16556441Y-32717622D01*
X16654799Y-32783342D01*
X16714085Y-32822956D01*
X16714086Y-32822956D01*
X16714087Y-32822957D01*
X16714089Y-32822958D01*
X16785171Y-32852401D01*
X16839575Y-32896242D01*
X16861640Y-32962536D01*
X16844361Y-33030235D01*
X16793224Y-33077846D01*
X16737697Y-33090962D01*
X15062976Y-33090665D01*
X14995940Y-33070969D01*
X14950194Y-33018156D01*
X14940263Y-32948996D01*
X14969299Y-32885446D01*
X15015546Y-32852104D01*
X15085910Y-32822958D01*
X15085909Y-32822958D01*
X15085915Y-32822956D01*
X15243558Y-32717622D01*
X15377622Y-32583558D01*
X15482956Y-32425915D01*
X15555512Y-32250751D01*
X15592500Y-32064798D01*
X15592500Y-31875202D01*
X15555512Y-31689249D01*
X15482956Y-31514085D01*
X15394634Y-31381902D01*
X15377622Y-31356441D01*
X15243558Y-31222377D01*
X15085912Y-31117042D01*
X14910751Y-31044488D01*
X14910743Y-31044486D01*
X14724802Y-31007500D01*
X14724798Y-31007500D01*
X14535202Y-31007500D01*
X14535197Y-31007500D01*
X14349256Y-31044486D01*
X14349248Y-31044488D01*
X14174087Y-31117042D01*
X14016441Y-31222377D01*
X13882377Y-31356441D01*
X13777042Y-31514087D01*
X13704488Y-31689248D01*
X13704486Y-31689256D01*
X13667500Y-31875197D01*
X13667500Y-32064802D01*
X13704486Y-32250743D01*
X13704488Y-32250751D01*
X13777042Y-32425912D01*
X13882377Y-32583558D01*
X14016441Y-32717622D01*
X14114799Y-32783342D01*
X14174085Y-32822956D01*
X14174086Y-32822956D01*
X14174087Y-32822957D01*
X14244082Y-32851950D01*
X14298485Y-32895791D01*
X14320550Y-32962085D01*
X14303271Y-33029785D01*
X14252133Y-33077395D01*
X14196607Y-33090511D01*
X12908069Y-33090282D01*
X12841033Y-33070586D01*
X12820410Y-33053963D01*
X12219410Y-32452962D01*
X12282993Y-32435925D01*
X12397007Y-32370099D01*
X12490099Y-32277007D01*
X12555925Y-32162993D01*
X12572962Y-32099409D01*
X13142268Y-32668715D01*
X13169362Y-32631425D01*
X13259542Y-32454437D01*
X13320924Y-32265523D01*
X13320924Y-32265520D01*
X13352000Y-32069321D01*
X13352000Y-31870678D01*
X13320924Y-31674479D01*
X13320924Y-31674476D01*
X13259542Y-31485562D01*
X13169358Y-31308567D01*
X13142268Y-31271283D01*
X12572962Y-31840589D01*
X12555925Y-31777007D01*
X12490099Y-31662993D01*
X12397007Y-31569901D01*
X12282993Y-31504075D01*
X12219409Y-31487037D01*
X12788716Y-30917731D01*
X12788715Y-30917730D01*
X12751432Y-30890641D01*
X12574437Y-30800457D01*
X12385522Y-30739075D01*
X12189321Y-30708000D01*
X11990679Y-30708000D01*
X11794479Y-30739075D01*
X11794476Y-30739075D01*
X11605562Y-30800457D01*
X11428564Y-30890643D01*
X11391283Y-30917729D01*
X11391282Y-30917730D01*
X11960590Y-31487037D01*
X11897007Y-31504075D01*
X11782993Y-31569901D01*
X11689901Y-31662993D01*
X11624075Y-31777007D01*
X11607037Y-31840590D01*
X11037730Y-31271282D01*
X11037729Y-31271283D01*
X11010643Y-31308564D01*
X10920457Y-31485562D01*
X10859075Y-31674476D01*
X10859075Y-31674479D01*
X10828000Y-31870678D01*
X10828000Y-32069321D01*
X10859075Y-32265520D01*
X10859075Y-32265523D01*
X10920457Y-32454437D01*
X11010641Y-32631432D01*
X11037730Y-32668715D01*
X11037731Y-32668716D01*
X11607037Y-32099409D01*
X11624075Y-32162993D01*
X11689901Y-32277007D01*
X11782993Y-32370099D01*
X11897007Y-32435925D01*
X11960590Y-32452962D01*
X11359878Y-33053673D01*
X11298555Y-33087158D01*
X11272175Y-33089992D01*
X9998213Y-33089765D01*
X9931177Y-33070068D01*
X9885431Y-33017256D01*
X9875500Y-32948096D01*
X9904537Y-32884546D01*
X9950780Y-32851205D01*
X9989583Y-32835133D01*
X10025112Y-32816143D01*
X10149917Y-32732751D01*
X10181057Y-32707194D01*
X10287194Y-32601057D01*
X10312751Y-32569917D01*
X10396143Y-32445112D01*
X10415133Y-32409583D01*
X10472574Y-32270908D01*
X10484268Y-32232358D01*
X10513551Y-32085141D01*
X10517500Y-32045050D01*
X10517500Y-31894950D01*
X10513551Y-31854859D01*
X10484268Y-31707642D01*
X10472574Y-31669092D01*
X10415133Y-31530417D01*
X10406404Y-31514085D01*
X10396150Y-31494900D01*
X10396139Y-31494882D01*
X10312752Y-31370084D01*
X10287194Y-31338943D01*
X10181056Y-31232805D01*
X10149915Y-31207247D01*
X10025117Y-31123860D01*
X10025099Y-31123849D01*
X9989599Y-31104875D01*
X9989577Y-31104864D01*
X9950474Y-31088667D01*
X9857789Y-31050276D01*
X9850909Y-31047426D01*
X9834888Y-31042566D01*
X9812358Y-31035732D01*
X9812353Y-31035731D01*
X9812350Y-31035730D01*
X9665142Y-31006449D01*
X9665143Y-31006449D01*
X9652664Y-31005220D01*
X9625050Y-31002500D01*
X9474950Y-31002500D01*
X9447336Y-31005220D01*
X9434857Y-31006449D01*
X9287649Y-31035730D01*
X9249090Y-31047426D01*
X9110422Y-31104864D01*
X9110400Y-31104875D01*
X9074900Y-31123849D01*
X9074882Y-31123860D01*
X8950087Y-31207245D01*
X8932919Y-31221335D01*
X8908666Y-31231634D01*
X8886146Y-31245309D01*
X8877016Y-31245076D01*
X8868608Y-31248647D01*
X8842636Y-31244199D01*
X8816299Y-31243528D01*
X8808743Y-31238395D01*
X8799741Y-31236854D01*
X8780299Y-31219073D01*
X8758503Y-31204267D01*
X8754921Y-31195863D01*
X8748182Y-31189700D01*
X8741439Y-31164233D01*
X8731108Y-31139992D01*
X8731452Y-31126505D01*
X8730301Y-31122158D01*
X8732006Y-31104723D01*
X8769523Y-30883915D01*
X8772616Y-30870363D01*
X8784192Y-30830185D01*
X8855673Y-30582068D01*
X8860265Y-30568948D01*
X8948684Y-30355485D01*
X8975075Y-30291768D01*
X8981097Y-30279262D01*
X9126230Y-30016665D01*
X9133625Y-30004897D01*
X9307245Y-29760201D01*
X9315896Y-29749354D01*
X9515816Y-29525645D01*
X9525647Y-29515815D01*
X9749354Y-29315896D01*
X9760201Y-29307245D01*
X10004902Y-29133621D01*
X10016665Y-29126230D01*
X10279262Y-28981097D01*
X10291768Y-28975075D01*
X10568948Y-28860265D01*
X10582068Y-28855673D01*
X10870369Y-28772614D01*
X10883915Y-28769523D01*
X11179700Y-28719267D01*
X11193494Y-28717713D01*
X11496528Y-28700695D01*
X11503481Y-28700500D01*
X11539882Y-28700500D01*
X70460118Y-28700500D01*
X70496519Y-28700500D01*
X70503472Y-28700695D01*
G37*
%TD.AperFunction*%
%TA.AperFunction,Conductor*%
G36*
X46896763Y-54371043D02*
G01*
X46929430Y-54380005D01*
X46930199Y-54380861D01*
X46931302Y-54381185D01*
X46953470Y-54406769D01*
X46976120Y-54431984D01*
X46976304Y-54433120D01*
X46977057Y-54433989D01*
X46981878Y-54467520D01*
X46987296Y-54500954D01*
X46986837Y-54502007D01*
X46987001Y-54503147D01*
X46972925Y-54533967D01*
X46959410Y-54565018D01*
X46958283Y-54566029D01*
X46957976Y-54566703D01*
X46933155Y-54588600D01*
X46900194Y-54610625D01*
X46790342Y-54684024D01*
X46644024Y-54830342D01*
X46529058Y-55002403D01*
X46449870Y-55193579D01*
X46449868Y-55193587D01*
X46409500Y-55396530D01*
X46409500Y-55603469D01*
X46449868Y-55806412D01*
X46449870Y-55806420D01*
X46528495Y-55996238D01*
X46529059Y-55997598D01*
X46542836Y-56018217D01*
X46644024Y-56169657D01*
X46790342Y-56315975D01*
X46790345Y-56315977D01*
X46962402Y-56430941D01*
X47153580Y-56510130D01*
X47283350Y-56535942D01*
X47345259Y-56568326D01*
X47379833Y-56629042D01*
X47376094Y-56698811D01*
X47346838Y-56745240D01*
X46229898Y-57862181D01*
X46168575Y-57895666D01*
X46142217Y-57898500D01*
X28457783Y-57898500D01*
X28390744Y-57878815D01*
X28370102Y-57862181D01*
X27253161Y-56745240D01*
X27219676Y-56683917D01*
X27224660Y-56614225D01*
X27266532Y-56558292D01*
X27316646Y-56535943D01*
X27446420Y-56510130D01*
X27637598Y-56430941D01*
X27809655Y-56315977D01*
X27809658Y-56315974D01*
X27862819Y-56262814D01*
X27924142Y-56229329D01*
X27993834Y-56234313D01*
X28049767Y-56276185D01*
X28074184Y-56341649D01*
X28074500Y-56350495D01*
X28074500Y-56564562D01*
X28075509Y-56568326D01*
X28094979Y-56640990D01*
X28094982Y-56640995D01*
X28134535Y-56709504D01*
X28134539Y-56709509D01*
X28134540Y-56709511D01*
X28859540Y-57434511D01*
X28915489Y-57490460D01*
X28915491Y-57490461D01*
X28915495Y-57490464D01*
X28984004Y-57530017D01*
X28984011Y-57530021D01*
X29060438Y-57550500D01*
X29060440Y-57550500D01*
X42226610Y-57550500D01*
X42226612Y-57550500D01*
X42303039Y-57530021D01*
X42371561Y-57490460D01*
X42427510Y-57434511D01*
X43832298Y-56029721D01*
X43893619Y-55996238D01*
X43963310Y-56001222D01*
X44019244Y-56043093D01*
X44023080Y-56048514D01*
X44104024Y-56169657D01*
X44250342Y-56315975D01*
X44250345Y-56315977D01*
X44422402Y-56430941D01*
X44613580Y-56510130D01*
X44816530Y-56550499D01*
X44816534Y-56550500D01*
X44816535Y-56550500D01*
X45023466Y-56550500D01*
X45023467Y-56550499D01*
X45226420Y-56510130D01*
X45417598Y-56430941D01*
X45589655Y-56315977D01*
X45735977Y-56169655D01*
X45850941Y-55997598D01*
X45930130Y-55806420D01*
X45970500Y-55603465D01*
X45970500Y-55396535D01*
X45930130Y-55193580D01*
X45850941Y-55002402D01*
X45735977Y-54830345D01*
X45735975Y-54830342D01*
X45589657Y-54684024D01*
X45501669Y-54625233D01*
X45446845Y-54588601D01*
X45402041Y-54534991D01*
X45393334Y-54465666D01*
X45423488Y-54402638D01*
X45482931Y-54365918D01*
X45515737Y-54361500D01*
X46864263Y-54361500D01*
X46896763Y-54371043D01*
G37*
%TD.AperFunction*%
%TA.AperFunction,Conductor*%
G36*
X22993396Y-53614749D02*
G01*
X23049330Y-53656620D01*
X23057449Y-53668929D01*
X23073119Y-53696069D01*
X23073120Y-53696071D01*
X23089537Y-53724507D01*
X23089542Y-53724513D01*
X23690239Y-54325210D01*
X23723724Y-54386533D01*
X23718740Y-54456225D01*
X23690240Y-54500572D01*
X23570271Y-54620541D01*
X23445379Y-54792442D01*
X23348905Y-54981781D01*
X23291656Y-55157974D01*
X23252218Y-55215649D01*
X23187859Y-55242847D01*
X23119013Y-55230932D01*
X23067537Y-55183688D01*
X23059164Y-55167107D01*
X22990943Y-55002405D01*
X22875975Y-54830342D01*
X22729657Y-54684024D01*
X22597083Y-54595442D01*
X22557598Y-54569059D01*
X22557593Y-54569057D01*
X22366420Y-54489870D01*
X22366412Y-54489868D01*
X22163469Y-54449500D01*
X22163465Y-54449500D01*
X21956535Y-54449500D01*
X21956530Y-54449500D01*
X21753587Y-54489868D01*
X21753579Y-54489870D01*
X21633029Y-54539804D01*
X21563559Y-54547273D01*
X21501080Y-54515998D01*
X21497895Y-54512924D01*
X21236819Y-54251848D01*
X21203334Y-54190525D01*
X21200500Y-54164167D01*
X21200500Y-53881114D01*
X21220185Y-53814075D01*
X21272989Y-53768320D01*
X21342147Y-53758376D01*
X21393390Y-53778012D01*
X21562400Y-53890940D01*
X21562401Y-53890940D01*
X21562402Y-53890941D01*
X21753580Y-53970130D01*
X21898052Y-53998867D01*
X21956530Y-54010499D01*
X21956534Y-54010500D01*
X21956535Y-54010500D01*
X22163466Y-54010500D01*
X22163467Y-54010499D01*
X22366420Y-53970130D01*
X22557598Y-53890941D01*
X22729655Y-53775977D01*
X22862383Y-53643248D01*
X22923704Y-53609765D01*
X22993396Y-53614749D01*
G37*
%TD.AperFunction*%
%TA.AperFunction,Conductor*%
G36*
X37931206Y-32290185D02*
G01*
X37951848Y-32306819D01*
X38733181Y-33088152D01*
X38766666Y-33149475D01*
X38769500Y-33175833D01*
X38769500Y-49286766D01*
X38749815Y-49353805D01*
X38733181Y-49374447D01*
X36585447Y-51522181D01*
X36524124Y-51555666D01*
X36497766Y-51558500D01*
X30741438Y-51558500D01*
X30703224Y-51568739D01*
X30665009Y-51578979D01*
X30665004Y-51578982D01*
X30596495Y-51618535D01*
X30596487Y-51618541D01*
X30242104Y-51972923D01*
X30180781Y-52006408D01*
X30111089Y-52001424D01*
X30106971Y-51999803D01*
X29986424Y-51949871D01*
X29986412Y-51949868D01*
X29783469Y-51909500D01*
X29783465Y-51909500D01*
X29576535Y-51909500D01*
X29576530Y-51909500D01*
X29373587Y-51949868D01*
X29373579Y-51949870D01*
X29182403Y-52029058D01*
X29010342Y-52144024D01*
X28864024Y-52290342D01*
X28749058Y-52462403D01*
X28669870Y-52653579D01*
X28669868Y-52653587D01*
X28629500Y-52856530D01*
X28629500Y-53063469D01*
X28669868Y-53266412D01*
X28669870Y-53266420D01*
X28735939Y-53425925D01*
X28749059Y-53457598D01*
X28790032Y-53518919D01*
X28864024Y-53629657D01*
X29010344Y-53775977D01*
X29014817Y-53779648D01*
X29054151Y-53837394D01*
X29056020Y-53907238D01*
X29019832Y-53967006D01*
X28957076Y-53997722D01*
X28936151Y-53999500D01*
X28655833Y-53999500D01*
X28588794Y-53979815D01*
X28568152Y-53963181D01*
X28127075Y-53522104D01*
X28093590Y-53460781D01*
X28098574Y-53391089D01*
X28100163Y-53387049D01*
X28150130Y-53266420D01*
X28190500Y-53063465D01*
X28190500Y-52856535D01*
X28150130Y-52653580D01*
X28070941Y-52462402D01*
X27955977Y-52290345D01*
X27942982Y-52277350D01*
X27909498Y-52216031D01*
X27914480Y-52146339D01*
X27942983Y-52101987D01*
X27945508Y-52099461D01*
X27945511Y-52099460D01*
X28001460Y-52043511D01*
X29375248Y-50669721D01*
X29436569Y-50636238D01*
X29506260Y-50641222D01*
X29510380Y-50642843D01*
X29589249Y-50675512D01*
X29775197Y-50712499D01*
X29775201Y-50712500D01*
X29775202Y-50712500D01*
X29964799Y-50712500D01*
X29964800Y-50712499D01*
X30150751Y-50675512D01*
X30325915Y-50602956D01*
X30483558Y-50497622D01*
X30617622Y-50363558D01*
X30722956Y-50205915D01*
X30795512Y-50030751D01*
X30832500Y-49844798D01*
X30832500Y-49655202D01*
X30832499Y-49655199D01*
X30832499Y-49655197D01*
X30812968Y-49557007D01*
X30795512Y-49469249D01*
X30722956Y-49294085D01*
X30716268Y-49284075D01*
X30680397Y-49230390D01*
X30659519Y-49163713D01*
X30678004Y-49096333D01*
X30729983Y-49049643D01*
X30783499Y-49037500D01*
X31496501Y-49037500D01*
X31563540Y-49057185D01*
X31609295Y-49109989D01*
X31619239Y-49179147D01*
X31599603Y-49230390D01*
X31557045Y-49294082D01*
X31557043Y-49294086D01*
X31484488Y-49469248D01*
X31484486Y-49469256D01*
X31447500Y-49655197D01*
X31447500Y-49844802D01*
X31484486Y-50030743D01*
X31484488Y-50030751D01*
X31557042Y-50205912D01*
X31662377Y-50363558D01*
X31796441Y-50497622D01*
X31891358Y-50561043D01*
X31954085Y-50602956D01*
X32129249Y-50675512D01*
X32315197Y-50712499D01*
X32315201Y-50712500D01*
X32315202Y-50712500D01*
X32504799Y-50712500D01*
X32504800Y-50712499D01*
X32690751Y-50675512D01*
X32865915Y-50602956D01*
X33023558Y-50497622D01*
X33157622Y-50363558D01*
X33262956Y-50205915D01*
X33335512Y-50030751D01*
X33372500Y-49844798D01*
X33372500Y-49655202D01*
X33372499Y-49655199D01*
X33372499Y-49655197D01*
X33352968Y-49557007D01*
X33335512Y-49469249D01*
X33262956Y-49294085D01*
X33256268Y-49284075D01*
X33220397Y-49230390D01*
X33199519Y-49163713D01*
X33218004Y-49096333D01*
X33269983Y-49049643D01*
X33323499Y-49037500D01*
X33761167Y-49037500D01*
X33828206Y-49057185D01*
X33848848Y-49073819D01*
X34030276Y-49255247D01*
X34063761Y-49316570D01*
X34058777Y-49386262D01*
X34057156Y-49390380D01*
X34024489Y-49469244D01*
X34024486Y-49469256D01*
X33987500Y-49655197D01*
X33987500Y-49844802D01*
X34024486Y-50030743D01*
X34024488Y-50030751D01*
X34097042Y-50205912D01*
X34202377Y-50363558D01*
X34336441Y-50497622D01*
X34431358Y-50561043D01*
X34494085Y-50602956D01*
X34669249Y-50675512D01*
X34855197Y-50712499D01*
X34855201Y-50712500D01*
X34855202Y-50712500D01*
X35044799Y-50712500D01*
X35044800Y-50712499D01*
X35230751Y-50675512D01*
X35405915Y-50602956D01*
X35563558Y-50497622D01*
X35697622Y-50363558D01*
X35802956Y-50205915D01*
X35875512Y-50030751D01*
X35912500Y-49844798D01*
X35912500Y-49655202D01*
X35912499Y-49655199D01*
X35912499Y-49655197D01*
X35892968Y-49557007D01*
X35875512Y-49469249D01*
X35802956Y-49294085D01*
X35760396Y-49230390D01*
X35697622Y-49136441D01*
X35563558Y-49002377D01*
X35405912Y-48897042D01*
X35239500Y-48828112D01*
X35185097Y-48784271D01*
X35163032Y-48717977D01*
X35180311Y-48650277D01*
X35231449Y-48602667D01*
X35287039Y-48589551D01*
X36579978Y-48590471D01*
X36579985Y-48590474D01*
X36625890Y-48590502D01*
X36625891Y-48590503D01*
X36625892Y-48590503D01*
X36626003Y-48590503D01*
X36649547Y-48590520D01*
X36656618Y-48591108D01*
X36658275Y-48591014D01*
X36659735Y-48590527D01*
X36659739Y-48590528D01*
X36659741Y-48590525D01*
X36659744Y-48590525D01*
X36659749Y-48590526D01*
X36659779Y-48590513D01*
X36663925Y-48589134D01*
X36663925Y-48589133D01*
X36663931Y-48589132D01*
X36669301Y-48587344D01*
X36674216Y-48584544D01*
X36692333Y-48577054D01*
X36733453Y-48560057D01*
X36733457Y-48560052D01*
X36733461Y-48560051D01*
X36761540Y-48532008D01*
X36785098Y-48508483D01*
X36789319Y-48504709D01*
X36789891Y-48503698D01*
X36789895Y-48503695D01*
X36789896Y-48503691D01*
X36789901Y-48503687D01*
X36789908Y-48503667D01*
X36791623Y-48500643D01*
X36793418Y-48495211D01*
X36811291Y-48452143D01*
X36820301Y-48430432D01*
X36820469Y-48430035D01*
X36820472Y-48430018D01*
X36820474Y-48430015D01*
X36820511Y-48372672D01*
X36820528Y-48350261D01*
X36820527Y-48350260D01*
X36820541Y-48331902D01*
X36820538Y-48331876D01*
X36820607Y-48228124D01*
X36830473Y-33334963D01*
X36830492Y-33334918D01*
X36830499Y-33295343D01*
X36830526Y-33255251D01*
X36830526Y-33255199D01*
X36815098Y-33217936D01*
X36815098Y-33217935D01*
X36815091Y-33217919D01*
X36800051Y-33181539D01*
X36800049Y-33181537D01*
X36800047Y-33181532D01*
X36799995Y-33181453D01*
X36771382Y-33152831D01*
X36771382Y-33152830D01*
X36771342Y-33152791D01*
X36771338Y-33152788D01*
X36770402Y-33151851D01*
X36743687Y-33125100D01*
X36743640Y-33125080D01*
X36743604Y-33125044D01*
X36743600Y-33125042D01*
X36720547Y-33115488D01*
X36705986Y-33109454D01*
X36670015Y-33094527D01*
X36669965Y-33094526D01*
X36669917Y-33094507D01*
X36669548Y-33094506D01*
X36669546Y-33094506D01*
X36629014Y-33094499D01*
X36629013Y-33094499D01*
X36628960Y-33094498D01*
X36628960Y-33094499D01*
X36628935Y-33094498D01*
X36626827Y-33094497D01*
X36590251Y-33094474D01*
X36590207Y-33094491D01*
X36578568Y-33094489D01*
X36578567Y-33094488D01*
X35374259Y-33094275D01*
X35307223Y-33074579D01*
X35261477Y-33021766D01*
X35251546Y-32952606D01*
X35280582Y-32889056D01*
X35326825Y-32855716D01*
X35405915Y-32822956D01*
X35563558Y-32717622D01*
X35697622Y-32583558D01*
X35802956Y-32425915D01*
X35835625Y-32347047D01*
X35879467Y-32292643D01*
X35945761Y-32270579D01*
X35950186Y-32270500D01*
X37864167Y-32270500D01*
X37931206Y-32290185D01*
G37*
%TD.AperFunction*%
%TA.AperFunction,Conductor*%
G36*
X31269214Y-52162363D02*
G01*
X31279297Y-52161097D01*
X31302171Y-52172040D01*
X31326502Y-52179185D01*
X31333156Y-52186864D01*
X31342325Y-52191251D01*
X31355653Y-52212827D01*
X31372257Y-52231989D01*
X31373703Y-52242046D01*
X31379045Y-52250694D01*
X31378592Y-52276049D01*
X31382201Y-52301147D01*
X31377946Y-52312251D01*
X31377798Y-52320552D01*
X31362566Y-52352390D01*
X31289058Y-52462403D01*
X31209870Y-52653579D01*
X31209868Y-52653587D01*
X31169500Y-52856530D01*
X31169500Y-53063469D01*
X31209868Y-53266412D01*
X31209870Y-53266420D01*
X31275939Y-53425925D01*
X31289059Y-53457598D01*
X31330032Y-53518919D01*
X31404024Y-53629657D01*
X31550344Y-53775977D01*
X31554817Y-53779648D01*
X31594151Y-53837394D01*
X31596020Y-53907238D01*
X31559832Y-53967006D01*
X31497076Y-53997722D01*
X31476151Y-53999500D01*
X30423849Y-53999500D01*
X30356810Y-53979815D01*
X30311055Y-53927011D01*
X30301111Y-53857853D01*
X30330136Y-53794297D01*
X30345183Y-53779648D01*
X30349655Y-53775977D01*
X30495975Y-53629657D01*
X30495977Y-53629655D01*
X30610941Y-53457598D01*
X30690130Y-53266420D01*
X30730500Y-53063465D01*
X30730500Y-52856535D01*
X30690130Y-52653580D01*
X30640194Y-52533026D01*
X30632726Y-52463559D01*
X30664001Y-52401080D01*
X30667015Y-52397955D01*
X30869153Y-52195816D01*
X30930476Y-52162334D01*
X30956833Y-52159500D01*
X31259463Y-52159500D01*
X31269214Y-52162363D01*
G37*
%TD.AperFunction*%
%TA.AperFunction,Conductor*%
G36*
X34953039Y-52179185D02*
G01*
X34998794Y-52231989D01*
X35010000Y-52283500D01*
X35010000Y-52526988D01*
X34952993Y-52494075D01*
X34825826Y-52460000D01*
X34694174Y-52460000D01*
X34567007Y-52494075D01*
X34510000Y-52526988D01*
X34510000Y-52283500D01*
X34529685Y-52216461D01*
X34582489Y-52170706D01*
X34634000Y-52159500D01*
X34886000Y-52159500D01*
X34953039Y-52179185D01*
G37*
%TD.AperFunction*%
%TA.AperFunction,Conductor*%
G36*
X23943540Y-49057185D02*
G01*
X23989295Y-49109989D01*
X23999239Y-49179147D01*
X23979603Y-49230390D01*
X23937045Y-49294082D01*
X23937043Y-49294086D01*
X23864488Y-49469248D01*
X23864486Y-49469256D01*
X23827500Y-49655197D01*
X23827500Y-49844802D01*
X23864486Y-50030743D01*
X23864488Y-50030751D01*
X23937042Y-50205912D01*
X24042377Y-50363558D01*
X24176441Y-50497622D01*
X24271358Y-50561043D01*
X24334085Y-50602956D01*
X24509249Y-50675512D01*
X24695197Y-50712499D01*
X24695201Y-50712500D01*
X24695202Y-50712500D01*
X24884799Y-50712500D01*
X24884800Y-50712499D01*
X25070751Y-50675512D01*
X25245915Y-50602956D01*
X25403558Y-50497622D01*
X25537622Y-50363558D01*
X25642956Y-50205915D01*
X25715512Y-50030751D01*
X25752500Y-49844798D01*
X25752500Y-49655202D01*
X25752499Y-49655199D01*
X25752499Y-49655197D01*
X25732968Y-49557007D01*
X25715512Y-49469249D01*
X25642956Y-49294085D01*
X25636268Y-49284075D01*
X25600397Y-49230390D01*
X25579519Y-49163713D01*
X25598004Y-49096333D01*
X25649983Y-49049643D01*
X25703499Y-49037500D01*
X26416501Y-49037500D01*
X26483540Y-49057185D01*
X26529295Y-49109989D01*
X26539239Y-49179147D01*
X26519603Y-49230390D01*
X26477045Y-49294082D01*
X26477043Y-49294086D01*
X26404488Y-49469248D01*
X26404486Y-49469256D01*
X26367500Y-49655197D01*
X26367500Y-49844802D01*
X26404486Y-50030743D01*
X26404488Y-50030751D01*
X26477042Y-50205912D01*
X26582377Y-50363558D01*
X26716441Y-50497622D01*
X26811358Y-50561043D01*
X26874085Y-50602956D01*
X27049249Y-50675512D01*
X27235197Y-50712499D01*
X27235201Y-50712500D01*
X27235202Y-50712500D01*
X27424799Y-50712500D01*
X27424800Y-50712499D01*
X27610751Y-50675512D01*
X27785915Y-50602956D01*
X27943558Y-50497622D01*
X28077622Y-50363558D01*
X28182956Y-50205915D01*
X28255512Y-50030751D01*
X28292500Y-49844798D01*
X28292500Y-49655202D01*
X28292499Y-49655199D01*
X28292499Y-49655197D01*
X28272968Y-49557007D01*
X28255512Y-49469249D01*
X28182956Y-49294085D01*
X28176268Y-49284075D01*
X28140397Y-49230390D01*
X28119519Y-49163713D01*
X28138004Y-49096333D01*
X28189983Y-49049643D01*
X28243499Y-49037500D01*
X28956501Y-49037500D01*
X29023540Y-49057185D01*
X29069295Y-49109989D01*
X29079239Y-49179147D01*
X29059603Y-49230390D01*
X29017045Y-49294082D01*
X29017043Y-49294086D01*
X28944488Y-49469248D01*
X28944486Y-49469256D01*
X28907500Y-49655197D01*
X28907500Y-49844802D01*
X28944486Y-50030743D01*
X28944488Y-50030751D01*
X28977156Y-50109617D01*
X28984625Y-50179086D01*
X28953350Y-50241565D01*
X28950276Y-50244751D01*
X27672848Y-51522181D01*
X27611525Y-51555666D01*
X27585167Y-51558500D01*
X26644388Y-51558500D01*
X26606174Y-51568739D01*
X26567959Y-51578979D01*
X26567954Y-51578982D01*
X26499445Y-51618535D01*
X26499437Y-51618541D01*
X25798541Y-52319437D01*
X25798535Y-52319445D01*
X25758982Y-52387954D01*
X25758978Y-52387963D01*
X25750301Y-52420345D01*
X25713935Y-52480005D01*
X25651087Y-52510533D01*
X25581712Y-52502236D01*
X25527835Y-52457750D01*
X25527424Y-52457139D01*
X25527004Y-52456511D01*
X25415977Y-52290345D01*
X25415975Y-52290342D01*
X25269657Y-52144024D01*
X25153636Y-52066502D01*
X25097598Y-52029059D01*
X25026147Y-51999463D01*
X24906420Y-51949870D01*
X24906412Y-51949868D01*
X24703469Y-51909500D01*
X24703465Y-51909500D01*
X24496535Y-51909500D01*
X24496530Y-51909500D01*
X24293587Y-51949868D01*
X24293579Y-51949870D01*
X24102403Y-52029058D01*
X23930342Y-52144024D01*
X23930341Y-52144025D01*
X23842181Y-52232186D01*
X23780858Y-52265671D01*
X23711166Y-52260687D01*
X23655233Y-52218815D01*
X23630816Y-52153351D01*
X23630500Y-52144505D01*
X23630500Y-51743438D01*
X23650185Y-51676399D01*
X23702989Y-51630644D01*
X23762564Y-51621717D01*
X23762564Y-51620500D01*
X23889306Y-51620500D01*
X23889309Y-51620500D01*
X24003886Y-51589799D01*
X24106613Y-51530489D01*
X24190489Y-51446613D01*
X24249799Y-51343886D01*
X24280500Y-51229309D01*
X24280500Y-51110691D01*
X24249799Y-50996114D01*
X24190489Y-50893387D01*
X24106613Y-50809511D01*
X24003886Y-50750201D01*
X23889309Y-50719500D01*
X23770691Y-50719500D01*
X23770689Y-50719500D01*
X23726196Y-50731422D01*
X23656347Y-50729759D01*
X23598484Y-50690596D01*
X23586717Y-50673647D01*
X23570460Y-50645489D01*
X23169722Y-50244751D01*
X23136238Y-50183429D01*
X23141222Y-50113737D01*
X23142825Y-50109661D01*
X23175512Y-50030751D01*
X23212500Y-49844798D01*
X23212500Y-49655202D01*
X23212499Y-49655199D01*
X23212499Y-49655197D01*
X23192968Y-49557007D01*
X23175512Y-49469249D01*
X23102956Y-49294085D01*
X23096268Y-49284075D01*
X23060397Y-49230390D01*
X23039519Y-49163713D01*
X23058004Y-49096333D01*
X23109983Y-49049643D01*
X23163499Y-49037500D01*
X23876501Y-49037500D01*
X23943540Y-49057185D01*
G37*
%TD.AperFunction*%
%TA.AperFunction,Conductor*%
G36*
X38111206Y-30830185D02*
G01*
X38131848Y-30846819D01*
X39863181Y-32578152D01*
X39896666Y-32639475D01*
X39899500Y-32665833D01*
X39899500Y-50124167D01*
X39879815Y-50191206D01*
X39863181Y-50211848D01*
X38160541Y-51914487D01*
X38160535Y-51914495D01*
X38120982Y-51983004D01*
X38120977Y-51983015D01*
X38106194Y-52038186D01*
X38069829Y-52097846D01*
X38006982Y-52128374D01*
X37937606Y-52120079D01*
X37917530Y-52109194D01*
X37819227Y-52043511D01*
X37797598Y-52029059D01*
X37726147Y-51999463D01*
X37606420Y-51949870D01*
X37606412Y-51949868D01*
X37403469Y-51909500D01*
X37403465Y-51909500D01*
X37347431Y-51909500D01*
X37280392Y-51889815D01*
X37234637Y-51837011D01*
X37224693Y-51767853D01*
X37253718Y-51704297D01*
X37259750Y-51697819D01*
X38155301Y-50802268D01*
X39310460Y-49647110D01*
X39350022Y-49578587D01*
X39370500Y-49502161D01*
X39370500Y-49423037D01*
X39370500Y-32960438D01*
X39350021Y-32884011D01*
X39333597Y-32855563D01*
X39310464Y-32815495D01*
X39310458Y-32815487D01*
X38224512Y-31729541D01*
X38224504Y-31729535D01*
X38186582Y-31707641D01*
X38186578Y-31707640D01*
X38175905Y-31701477D01*
X38155990Y-31689979D01*
X38155991Y-31689979D01*
X38117775Y-31679739D01*
X38079562Y-31669500D01*
X38079560Y-31669500D01*
X35950186Y-31669500D01*
X35883147Y-31649815D01*
X35837392Y-31597011D01*
X35835625Y-31592953D01*
X35802957Y-31514087D01*
X35796267Y-31504075D01*
X35714634Y-31381902D01*
X35697622Y-31356441D01*
X35563558Y-31222377D01*
X35405912Y-31117042D01*
X35241791Y-31049061D01*
X35187388Y-31005220D01*
X35165323Y-30938926D01*
X35182602Y-30871226D01*
X35233740Y-30823616D01*
X35289244Y-30810500D01*
X38044167Y-30810500D01*
X38111206Y-30830185D01*
G37*
%TD.AperFunction*%
%TA.AperFunction,Conductor*%
G36*
X34677795Y-30830185D02*
G01*
X34723550Y-30882989D01*
X34733494Y-30952147D01*
X34704469Y-31015703D01*
X34658209Y-31049061D01*
X34494087Y-31117042D01*
X34336441Y-31222377D01*
X34202377Y-31356441D01*
X34097042Y-31514087D01*
X34024488Y-31689248D01*
X34024486Y-31689256D01*
X33987500Y-31875197D01*
X33987500Y-32064802D01*
X34024486Y-32250743D01*
X34024488Y-32250751D01*
X34097042Y-32425912D01*
X34202377Y-32583558D01*
X34336441Y-32717622D01*
X34434799Y-32783342D01*
X34494085Y-32822956D01*
X34494086Y-32822956D01*
X34494087Y-32822957D01*
X34494089Y-32822958D01*
X34543435Y-32843397D01*
X34572080Y-32855263D01*
X34572805Y-32855563D01*
X34627209Y-32899403D01*
X34649274Y-32965698D01*
X34631995Y-33033397D01*
X34580858Y-33081008D01*
X34525331Y-33094124D01*
X32835349Y-33093824D01*
X32768313Y-33074128D01*
X32722567Y-33021315D01*
X32712636Y-32952155D01*
X32741672Y-32888605D01*
X32787917Y-32855263D01*
X32865915Y-32822956D01*
X33023558Y-32717622D01*
X33157622Y-32583558D01*
X33262956Y-32425915D01*
X33335512Y-32250751D01*
X33372500Y-32064798D01*
X33372500Y-31875202D01*
X33335512Y-31689249D01*
X33302843Y-31610380D01*
X33295374Y-31540911D01*
X33326649Y-31478431D01*
X33329693Y-31475277D01*
X33958152Y-30846819D01*
X34019475Y-30813334D01*
X34045833Y-30810500D01*
X34610756Y-30810500D01*
X34677795Y-30830185D01*
G37*
%TD.AperFunction*%
%TD*%
M02*
