%TF.GenerationSoftware,KiCad,Pcbnew,9.0.4*%
%TF.CreationDate,2026-03-05T19:36:06-05:00*%
%TF.ProjectId,seedsigner-luckfox-pico-mini,73656564-7369-4676-9e65-722d6c75636b,sdfsdf*%
%TF.SameCoordinates,Original*%
%TF.FileFunction,Copper,L1,Top*%
%TF.FilePolarity,Positive*%
%FSLAX46Y46*%
G04 Gerber Fmt 4.6, Leading zero omitted, Abs format (unit mm)*
G04 Created by KiCad (PCBNEW 9.0.4) date 2026-03-05 19:36:06*
%MOMM*%
%LPD*%
G01*
G04 APERTURE LIST*
G04 Aperture macros list*
%AMFreePoly0*
4,1,33,0.221197,0.729189,0.359204,0.672024,0.483408,0.589034,0.589034,0.483408,0.672024,0.359204,0.729189,0.221197,0.758331,0.074689,0.758331,-0.074689,0.729189,-0.221197,0.672024,-0.359204,0.589034,-0.483408,0.483408,-0.589034,0.359204,-0.672024,0.221197,-0.729189,0.074689,-0.758331,-0.074689,-0.758331,-0.221197,-0.729189,-0.359204,-0.672024,-0.483408,-0.589034,-0.589034,-0.483408,
-0.672024,-0.359204,-0.729189,-0.221197,-0.758331,-0.074689,-0.758331,0.074689,-0.729189,0.221197,-0.672024,0.359204,-0.589034,0.483408,-0.483408,0.589034,-0.359204,0.672024,-0.221197,0.729189,-0.074689,0.758331,0.074689,0.758331,0.221197,0.729189,0.221197,0.729189,$1*%
G04 Aperture macros list end*
%TA.AperFunction,ComponentPad*%
%ADD10C,1.524000*%
%TD*%
%TA.AperFunction,ComponentPad*%
%ADD11FreePoly0,90.000000*%
%TD*%
%TA.AperFunction,WasherPad*%
%ADD12C,3.500000*%
%TD*%
%TA.AperFunction,ComponentPad*%
%ADD13R,1.700000X1.700000*%
%TD*%
%TA.AperFunction,ComponentPad*%
%ADD14O,1.700000X1.700000*%
%TD*%
%TA.AperFunction,ViaPad*%
%ADD15C,0.500000*%
%TD*%
%TA.AperFunction,Conductor*%
%ADD16C,0.150000*%
%TD*%
%TA.AperFunction,Conductor*%
%ADD17C,0.200000*%
%TD*%
%TA.AperFunction,Conductor*%
%ADD18C,0.400000*%
%TD*%
%TA.AperFunction,Conductor*%
%ADD19C,0.300000*%
%TD*%
G04 APERTURE END LIST*
D10*
%TO.P,U1,1,VBUS*%
%TO.N,+5V*%
X9550000Y-49750000D03*
%TO.P,U1,2,GND*%
%TO.N,GND*%
X12090000Y-49750000D03*
%TO.P,U1,3,3V3(OUT)*%
%TO.N,+3.3V*%
X14630000Y-49750000D03*
%TO.P,U1,4,GPIO1_B2_d*%
%TO.N,/UART_TXD*%
X17170000Y-49750000D03*
%TO.P,U1,5,GPIO1_B3_u*%
%TO.N,/UART_RXD*%
X19710000Y-49750000D03*
%TO.P,U1,6,SPI0_CS0_M0/IO1_C0_d*%
%TO.N,Net-(JP5-B)*%
X22250000Y-49750000D03*
%TO.P,U1,7,SPI0_CLK_M0/IO1_C1_d*%
%TO.N,/SPI_SCLK*%
X24790000Y-49750000D03*
%TO.P,U1,8,SPI0_MOSI_M0/GPIO1_C2_d*%
%TO.N,/SPI_MOSI*%
X27330000Y-49750000D03*
%TO.P,U1,9,SPI0_MISO_M0/GPIO1_C3_d*%
%TO.N,/RST*%
X29870000Y-49750000D03*
%TO.P,U1,10,GPIO1_C4_d*%
%TO.N,/DC*%
X32410000Y-49750000D03*
%TO.P,U1,11,GPIO1_C5_d*%
%TO.N,/KEY3*%
X34950000Y-49750000D03*
%TO.P,U1,12,GPIO1_D0_d*%
%TO.N,/JOYSTICK_LEFT*%
X34950000Y-31970000D03*
%TO.P,U1,13,GPIO1_D1_d*%
%TO.N,/JOYSTICK_UP*%
X32410000Y-31970000D03*
%TO.P,U1,14,GPIO1_D2_d*%
%TO.N,/I2C-SDA*%
X29870000Y-31970000D03*
%TO.P,U1,15,GPIO1_D3_d*%
%TO.N,/I2C-SCL*%
X27330000Y-31970000D03*
%TO.P,U1,16,GPIO1_C6_d*%
%TO.N,/JOYSTICK_PRESS*%
X24790000Y-31970000D03*
%TO.P,U1,17,GPIO1_C7_d*%
%TO.N,/JOYSTICK_DOWN*%
X22250000Y-31970000D03*
%TO.P,U1,18,GPIO0_A4_d*%
%TO.N,/JOYSTICK_RIGHT*%
X19710000Y-31970000D03*
%TO.P,U1,19,GPIO4_C0_z*%
%TO.N,/KEY1*%
X17170000Y-31970000D03*
%TO.P,U1,20,GPIO4_C1_z*%
%TO.N,/KEY2*%
X14630000Y-31970000D03*
%TO.P,U1,21,GND*%
%TO.N,GND*%
X12090000Y-31970000D03*
D11*
%TO.P,U1,22,1V8(OUT)*%
%TO.N,unconnected-(U1-1V8(OUT)-Pad22)*%
X9550000Y-31970000D03*
%TD*%
D12*
%TO.P,U2,*%
%TO.N,*%
X70000000Y-55500000D03*
X70000000Y-31500000D03*
X12000000Y-55500000D03*
D13*
%TO.P,U2,1,3V3*%
%TO.N,+3.3V*%
X65240000Y-52960000D03*
D14*
%TO.P,U2,2,5V0*%
%TO.N,+5V*%
X65240000Y-55500000D03*
%TO.P,U2,3,I2C-SDA*%
%TO.N,/I2C-SDA*%
X62700000Y-52960000D03*
%TO.P,U2,4,5V0*%
%TO.N,+5V*%
X62700000Y-55500000D03*
%TO.P,U2,5,I2C-SCL*%
%TO.N,/I2C-SCL*%
X60160000Y-52960000D03*
%TO.P,U2,6,GND*%
%TO.N,GND*%
X60160000Y-55500000D03*
%TO.P,U2,7*%
%TO.N,N/C*%
X57620000Y-52960000D03*
%TO.P,U2,8,UART-TXDO*%
%TO.N,/UART_TXD*%
X57620000Y-55500000D03*
%TO.P,U2,9,GND*%
%TO.N,GND*%
X55080000Y-52960000D03*
%TO.P,U2,10,UART-RXDO*%
%TO.N,/UART_RXD*%
X55080000Y-55500000D03*
%TO.P,U2,11*%
%TO.N,N/C*%
X52540000Y-52960000D03*
%TO.P,U2,12*%
X52540000Y-55500000D03*
%TO.P,U2,13,RESET*%
%TO.N,/RST*%
X50000000Y-52960000D03*
%TO.P,U2,14,GND*%
%TO.N,GND*%
X50000000Y-55500000D03*
%TO.P,U2,15*%
%TO.N,N/C*%
X47460000Y-52960000D03*
%TO.P,U2,16*%
X47460000Y-55500000D03*
%TO.P,U2,17,3V3*%
%TO.N,+3.3V*%
X44920000Y-52960000D03*
%TO.P,U2,18,BACKLIGHT*%
%TO.N,/BACKLIGHT*%
X44920000Y-55500000D03*
%TO.P,U2,19,SPI_MOSI*%
%TO.N,/SPI_MOSI*%
X42380000Y-52960000D03*
%TO.P,U2,20,GND*%
%TO.N,GND*%
X42380000Y-55500000D03*
%TO.P,U2,21*%
%TO.N,N/C*%
X39840000Y-52960000D03*
%TO.P,U2,22,DC*%
%TO.N,/DC*%
X39840000Y-55500000D03*
%TO.P,U2,23,SPI_SCLK*%
%TO.N,/SPI_SCLK*%
X37300000Y-52960000D03*
%TO.P,U2,24,~{SPI_CS0}*%
%TO.N,/SPI_CS*%
X37300000Y-55500000D03*
%TO.P,U2,25,GND*%
%TO.N,GND*%
X34760000Y-52960000D03*
%TO.P,U2,26*%
%TO.N,N/C*%
X34760000Y-55500000D03*
%TO.P,U2,27*%
X32220000Y-52960000D03*
%TO.P,U2,28*%
X32220000Y-55500000D03*
%TO.P,U2,29,JS_LEFT*%
%TO.N,/JOYSTICK_LEFT*%
X29680000Y-52960000D03*
%TO.P,U2,30,GND*%
%TO.N,GND*%
X29680000Y-55500000D03*
%TO.P,U2,31,JS_UP*%
%TO.N,/JOYSTICK_UP*%
X27140000Y-52960000D03*
%TO.P,U2,32*%
%TO.N,N/C*%
X27140000Y-55500000D03*
%TO.P,U2,33,JS_PRESS*%
%TO.N,/JOYSTICK_PRESS*%
X24600000Y-52960000D03*
%TO.P,U2,34,GND*%
%TO.N,GND*%
X24600000Y-55500000D03*
%TO.P,U2,35,JS_DOWN*%
%TO.N,/JOYSTICK_DOWN*%
X22060000Y-52960000D03*
%TO.P,U2,36,KEY3*%
%TO.N,/KEY3*%
X22060000Y-55500000D03*
%TO.P,U2,37,JS_RIGHT*%
%TO.N,/JOYSTICK_RIGHT*%
X19520000Y-52960000D03*
%TO.P,U2,38,KEY2*%
%TO.N,/KEY2*%
X19520000Y-55500000D03*
%TO.P,U2,39,GND*%
%TO.N,GND*%
X16980000Y-52960000D03*
%TO.P,U2,40,KEY1*%
%TO.N,/KEY1*%
X16980000Y-55500000D03*
%TD*%
D15*
%TO.N,GND*%
X58825000Y-56575000D03*
X47275000Y-44925000D03*
X15300000Y-56925000D03*
X33400000Y-32675000D03*
X37050000Y-31450000D03*
X33475000Y-56375000D03*
X52520000Y-49810000D03*
X38500000Y-49000000D03*
X62725000Y-51475000D03*
X25900000Y-50400000D03*
X31120000Y-56390000D03*
X51880000Y-51710000D03*
X43575000Y-48875000D03*
X44700000Y-50025000D03*
X36025000Y-32750000D03*
X47060000Y-37160000D03*
X38525000Y-56350000D03*
X61420000Y-54920000D03*
X36100000Y-56400000D03*
X33500000Y-50400000D03*
X47200000Y-50325000D03*
X53725000Y-52050000D03*
X41600000Y-32990000D03*
X18280000Y-29700000D03*
X28375000Y-32675000D03*
X39680000Y-48800000D03*
X51275000Y-56025000D03*
X45850000Y-31500000D03*
X42760000Y-41180000D03*
X38570000Y-33220000D03*
X18500000Y-32700000D03*
X64025000Y-57075000D03*
X43319000Y-53850000D03*
X23175000Y-56575000D03*
X43875000Y-31125000D03*
X43782156Y-56700001D03*
X61500000Y-56675000D03*
X41200000Y-51225000D03*
X23320000Y-55020000D03*
X46250000Y-29500000D03*
X28400000Y-50400000D03*
X45800000Y-56600000D03*
X14275000Y-52225000D03*
X25800000Y-32625000D03*
X41700000Y-48600000D03*
X41350000Y-56300000D03*
X18410000Y-48880000D03*
X10720000Y-49120000D03*
X50830083Y-54748842D03*
X59000000Y-54810000D03*
X25825000Y-56525000D03*
X39660000Y-33340000D03*
X20873554Y-31373554D03*
X42625000Y-38775000D03*
X56500000Y-43950000D03*
X23350000Y-31450000D03*
X10400000Y-52675000D03*
X15750000Y-54425000D03*
X27770000Y-56660000D03*
X48750000Y-51950000D03*
X53775000Y-53725000D03*
X56775000Y-50375000D03*
X11125000Y-29850000D03*
X56450000Y-37950000D03*
X56725000Y-48100000D03*
X13520000Y-57750000D03*
X56300000Y-54325000D03*
X43625000Y-32700000D03*
X47375000Y-40000000D03*
X30850000Y-32675000D03*
X50210000Y-50120000D03*
X49920000Y-41870000D03*
X42650000Y-44550000D03*
X30960000Y-53630000D03*
X65450000Y-29625000D03*
X18400000Y-56825000D03*
X47110000Y-38360000D03*
X56175000Y-30150000D03*
X45775000Y-51175000D03*
X66875000Y-51075000D03*
%TO.N,/JOYSTICK_DOWN*%
X23830000Y-51170000D03*
%TO.N,Net-(JP5-B)*%
X54375000Y-36400000D03*
%TD*%
D16*
%TO.N,GND*%
X56300000Y-54180000D02*
X56300000Y-54325000D01*
D17*
X35861000Y-51859000D02*
X40566000Y-51859000D01*
D16*
X41350000Y-56300000D02*
X41580000Y-56300000D01*
D17*
X34760000Y-52960000D02*
X35861000Y-51859000D01*
D16*
X43782156Y-56700001D02*
X43580001Y-56700001D01*
D18*
X43580001Y-56700001D02*
X42380000Y-55500000D01*
X50751158Y-54748842D02*
X50000000Y-55500000D01*
X50830083Y-54748842D02*
X50751158Y-54748842D01*
X55080000Y-52960000D02*
X56300000Y-54180000D01*
D17*
X40566000Y-51859000D02*
X41200000Y-51225000D01*
D18*
X51275000Y-56025000D02*
X50525000Y-56025000D01*
X41580000Y-56300000D02*
X42380000Y-55500000D01*
D16*
X50525000Y-56025000D02*
X50000000Y-55500000D01*
D17*
%TO.N,+3.3V*%
X15025000Y-51755000D02*
X14630000Y-51360000D01*
X62400000Y-57700000D02*
X63975000Y-56125000D01*
X44920000Y-52960000D02*
X46980000Y-50900000D01*
X15025000Y-51755000D02*
X15025000Y-55725000D01*
X63180000Y-50900000D02*
X65240000Y-52960000D01*
X15025000Y-55725000D02*
X17000000Y-57700000D01*
X17000000Y-57700000D02*
X62400000Y-57700000D01*
X14630000Y-51360000D02*
X14630000Y-49750000D01*
X63975000Y-56125000D02*
X63975000Y-54225000D01*
X46980000Y-50900000D02*
X63180000Y-50900000D01*
X63975000Y-54225000D02*
X65240000Y-52960000D01*
%TO.N,/JOYSTICK_DOWN*%
X22060000Y-51680000D02*
X22060000Y-52960000D01*
X22570000Y-51170000D02*
X22060000Y-51680000D01*
X23830000Y-51170000D02*
X22570000Y-51170000D01*
%TO.N,/JOYSTICK_PRESS*%
X37980000Y-48640000D02*
X37980000Y-33013521D01*
X24600000Y-52960000D02*
X26285000Y-51275000D01*
X37974000Y-32592479D02*
X37980000Y-32586479D01*
X37980000Y-32586479D02*
X37980000Y-31495000D01*
X26630000Y-30130000D02*
X24790000Y-31970000D01*
X37980000Y-31495000D02*
X36615000Y-30130000D01*
X35345000Y-51275000D02*
X37980000Y-48640000D01*
X26285000Y-51275000D02*
X35345000Y-51275000D01*
X37974000Y-33007521D02*
X37974000Y-32592479D01*
X37980000Y-33013521D02*
X37974000Y-33007521D01*
X36615000Y-30130000D02*
X26630000Y-30130000D01*
%TO.N,/UART_TXD*%
X19063950Y-54061000D02*
X18081000Y-53078050D01*
X19638050Y-54061000D02*
X19063950Y-54061000D01*
X20621000Y-55043950D02*
X19638050Y-54061000D01*
X20621000Y-55956050D02*
X20621000Y-55043950D01*
X55920000Y-57200000D02*
X21864950Y-57200000D01*
X57620000Y-55500000D02*
X55920000Y-57200000D01*
X18081000Y-50661000D02*
X17170000Y-49750000D01*
X21864950Y-57200000D02*
X20621000Y-55956050D01*
X18081000Y-53078050D02*
X18081000Y-50661000D01*
%TO.N,/UART_RXD*%
X50622562Y-54247842D02*
X50621404Y-54249000D01*
X50512190Y-54350000D02*
X21880000Y-54350000D01*
X21880000Y-54350000D02*
X20621000Y-53091000D01*
X20621000Y-50661000D02*
X19710000Y-49750000D01*
X50613190Y-54249000D02*
X50512190Y-54350000D01*
X50621404Y-54249000D02*
X50613190Y-54249000D01*
X53930000Y-54350000D02*
X51139762Y-54350000D01*
X20621000Y-53091000D02*
X20621000Y-50661000D01*
X51139762Y-54350000D02*
X51037604Y-54247842D01*
X55080000Y-55500000D02*
X53930000Y-54350000D01*
X51037604Y-54247842D02*
X50622562Y-54247842D01*
D19*
%TO.N,+5V*%
X65240000Y-56885000D02*
X63976000Y-58149000D01*
X14200000Y-56925000D02*
X14200000Y-54400000D01*
X15424000Y-58149000D02*
X14200000Y-56925000D01*
X65240000Y-55500000D02*
X65240000Y-56885000D01*
X14200000Y-54400000D02*
X9550000Y-49750000D01*
X63976000Y-58149000D02*
X15424000Y-58149000D01*
%TD*%
%TA.AperFunction,Conductor*%
%TO.N,GND*%
G36*
X8905703Y-50467330D02*
G01*
X8912181Y-50473362D01*
X8936441Y-50497622D01*
X9007363Y-50545010D01*
X9094085Y-50602956D01*
X9269249Y-50675512D01*
X9455197Y-50712499D01*
X9455201Y-50712500D01*
X9455202Y-50712500D01*
X9644799Y-50712500D01*
X9644800Y-50712499D01*
X9830751Y-50675512D01*
X9859617Y-50663554D01*
X9929085Y-50656085D01*
X9991565Y-50687359D01*
X9994752Y-50690434D01*
X12745116Y-53440798D01*
X12778601Y-53502121D01*
X12773617Y-53571813D01*
X12731745Y-53627746D01*
X12666281Y-53652163D01*
X12625342Y-53648254D01*
X12381340Y-53582874D01*
X12349652Y-53578702D01*
X12127850Y-53549500D01*
X12127843Y-53549500D01*
X11872157Y-53549500D01*
X11872149Y-53549500D01*
X11646826Y-53579165D01*
X11618660Y-53582874D01*
X11444063Y-53629657D01*
X11371687Y-53649050D01*
X11371677Y-53649053D01*
X11135468Y-53746894D01*
X11135457Y-53746899D01*
X10914042Y-53874734D01*
X10914026Y-53874745D01*
X10711188Y-54030388D01*
X10711181Y-54030394D01*
X10530394Y-54211181D01*
X10530388Y-54211188D01*
X10374745Y-54414026D01*
X10374734Y-54414042D01*
X10246899Y-54635457D01*
X10246894Y-54635468D01*
X10149053Y-54871677D01*
X10149050Y-54871687D01*
X10087901Y-55099901D01*
X10082874Y-55118661D01*
X10049500Y-55372149D01*
X10049500Y-55627850D01*
X10074839Y-55820311D01*
X10082874Y-55881340D01*
X10144401Y-56110963D01*
X10149050Y-56128312D01*
X10149053Y-56128322D01*
X10246894Y-56364531D01*
X10246899Y-56364542D01*
X10374734Y-56585957D01*
X10374745Y-56585973D01*
X10530388Y-56788811D01*
X10530394Y-56788818D01*
X10711181Y-56969605D01*
X10711188Y-56969611D01*
X10737009Y-56989424D01*
X10914035Y-57125261D01*
X10914042Y-57125265D01*
X11135457Y-57253100D01*
X11135462Y-57253102D01*
X11135465Y-57253104D01*
X11371687Y-57350950D01*
X11618660Y-57417126D01*
X11872157Y-57450500D01*
X11872164Y-57450500D01*
X12127836Y-57450500D01*
X12127843Y-57450500D01*
X12381340Y-57417126D01*
X12628313Y-57350950D01*
X12864535Y-57253104D01*
X13085965Y-57125261D01*
X13288813Y-56969610D01*
X13469610Y-56788813D01*
X13625261Y-56585965D01*
X13625261Y-56585964D01*
X13627124Y-56583537D01*
X13683552Y-56542334D01*
X13753298Y-56538179D01*
X13814218Y-56572391D01*
X13846971Y-56634108D01*
X13849500Y-56659023D01*
X13849500Y-56971144D01*
X13862669Y-57020289D01*
X13873386Y-57060287D01*
X13873387Y-57060290D01*
X13919527Y-57140208D01*
X13919529Y-57140211D01*
X13919530Y-57140212D01*
X14497152Y-57717834D01*
X14867138Y-58087819D01*
X14900623Y-58149142D01*
X14895639Y-58218833D01*
X14853767Y-58274767D01*
X14788303Y-58299184D01*
X14779457Y-58299500D01*
X11503481Y-58299500D01*
X11496528Y-58299305D01*
X11193506Y-58282287D01*
X11179688Y-58280730D01*
X10883920Y-58230477D01*
X10870363Y-58227383D01*
X10582072Y-58144327D01*
X10568948Y-58139734D01*
X10291777Y-58024927D01*
X10279248Y-58018894D01*
X10016671Y-57873772D01*
X10004897Y-57866374D01*
X9760214Y-57692763D01*
X9749342Y-57684092D01*
X9525647Y-57484184D01*
X9515815Y-57474352D01*
X9318094Y-57253104D01*
X9315904Y-57250653D01*
X9307236Y-57239785D01*
X9270364Y-57187819D01*
X9133625Y-56995102D01*
X9126227Y-56983328D01*
X9059824Y-56863181D01*
X8981101Y-56720744D01*
X8975072Y-56708222D01*
X8860265Y-56431051D01*
X8855672Y-56417927D01*
X8776789Y-56144121D01*
X8772615Y-56129634D01*
X8769522Y-56116079D01*
X8752895Y-56018217D01*
X8719267Y-55820301D01*
X8717713Y-55806503D01*
X8700695Y-55503472D01*
X8700500Y-55496519D01*
X8700500Y-50561043D01*
X8720185Y-50494004D01*
X8772989Y-50448249D01*
X8842147Y-50438305D01*
X8905703Y-50467330D01*
G37*
%TD.AperFunction*%
%TA.AperFunction,Conductor*%
G36*
X70503472Y-28700695D02*
G01*
X70806503Y-28717713D01*
X70820301Y-28719267D01*
X71116080Y-28769522D01*
X71129636Y-28772616D01*
X71417927Y-28855672D01*
X71431051Y-28860265D01*
X71708222Y-28975072D01*
X71720744Y-28981101D01*
X71923184Y-29092986D01*
X71983328Y-29126227D01*
X71995102Y-29133625D01*
X72239789Y-29307239D01*
X72250657Y-29315907D01*
X72474352Y-29515815D01*
X72484184Y-29525647D01*
X72684092Y-29749342D01*
X72692763Y-29760214D01*
X72866374Y-30004897D01*
X72873772Y-30016671D01*
X73018894Y-30279248D01*
X73024927Y-30291777D01*
X73139734Y-30568948D01*
X73144327Y-30582072D01*
X73227383Y-30870363D01*
X73230477Y-30883920D01*
X73280730Y-31179688D01*
X73282287Y-31193506D01*
X73299305Y-31496527D01*
X73299500Y-31503480D01*
X73299500Y-55496519D01*
X73299305Y-55503472D01*
X73282287Y-55806493D01*
X73280730Y-55820311D01*
X73230477Y-56116079D01*
X73227383Y-56129636D01*
X73144327Y-56417927D01*
X73139734Y-56431051D01*
X73024927Y-56708222D01*
X73018894Y-56720751D01*
X72873772Y-56983328D01*
X72866374Y-56995102D01*
X72692763Y-57239785D01*
X72684092Y-57250657D01*
X72484184Y-57474352D01*
X72474352Y-57484184D01*
X72250657Y-57684092D01*
X72239785Y-57692763D01*
X71995102Y-57866374D01*
X71983328Y-57873772D01*
X71720751Y-58018894D01*
X71708222Y-58024927D01*
X71431051Y-58139734D01*
X71417927Y-58144327D01*
X71129636Y-58227383D01*
X71116079Y-58230477D01*
X70820311Y-58280730D01*
X70806493Y-58282287D01*
X70503472Y-58299305D01*
X70496519Y-58299500D01*
X64620544Y-58299500D01*
X64553505Y-58279815D01*
X64507750Y-58227011D01*
X64497806Y-58157853D01*
X64526831Y-58094297D01*
X64532863Y-58087819D01*
X64972540Y-57648142D01*
X65520470Y-57100212D01*
X65566614Y-57020288D01*
X65580193Y-56969610D01*
X65590500Y-56931144D01*
X65590500Y-56574725D01*
X65610185Y-56507686D01*
X65662989Y-56461931D01*
X65667048Y-56460164D01*
X65737594Y-56430943D01*
X65737595Y-56430942D01*
X65737598Y-56430941D01*
X65909655Y-56315977D01*
X66055977Y-56169655D01*
X66170941Y-55997598D01*
X66250130Y-55806420D01*
X66290500Y-55603465D01*
X66290500Y-55396535D01*
X66285649Y-55372149D01*
X68049500Y-55372149D01*
X68049500Y-55627850D01*
X68074839Y-55820311D01*
X68082874Y-55881340D01*
X68144401Y-56110963D01*
X68149050Y-56128312D01*
X68149053Y-56128322D01*
X68246894Y-56364531D01*
X68246899Y-56364542D01*
X68374734Y-56585957D01*
X68374745Y-56585973D01*
X68530388Y-56788811D01*
X68530394Y-56788818D01*
X68711181Y-56969605D01*
X68711188Y-56969611D01*
X68737009Y-56989424D01*
X68914035Y-57125261D01*
X68914042Y-57125265D01*
X69135457Y-57253100D01*
X69135462Y-57253102D01*
X69135465Y-57253104D01*
X69371687Y-57350950D01*
X69618660Y-57417126D01*
X69872157Y-57450500D01*
X69872164Y-57450500D01*
X70127836Y-57450500D01*
X70127843Y-57450500D01*
X70381340Y-57417126D01*
X70628313Y-57350950D01*
X70864535Y-57253104D01*
X71085965Y-57125261D01*
X71288813Y-56969610D01*
X71469610Y-56788813D01*
X71625261Y-56585965D01*
X71753104Y-56364535D01*
X71850950Y-56128313D01*
X71917126Y-55881340D01*
X71950500Y-55627843D01*
X71950500Y-55372157D01*
X71917126Y-55118660D01*
X71850950Y-54871687D01*
X71753104Y-54635465D01*
X71753102Y-54635462D01*
X71753100Y-54635457D01*
X71625265Y-54414042D01*
X71625261Y-54414035D01*
X71538879Y-54301460D01*
X71469611Y-54211188D01*
X71469605Y-54211181D01*
X71288818Y-54030394D01*
X71288811Y-54030388D01*
X71085973Y-53874745D01*
X71085971Y-53874743D01*
X71085965Y-53874739D01*
X71085960Y-53874736D01*
X71085957Y-53874734D01*
X70864542Y-53746899D01*
X70864531Y-53746894D01*
X70628322Y-53649053D01*
X70628315Y-53649051D01*
X70628313Y-53649050D01*
X70381340Y-53582874D01*
X70325007Y-53575457D01*
X70127850Y-53549500D01*
X70127843Y-53549500D01*
X69872157Y-53549500D01*
X69872149Y-53549500D01*
X69646826Y-53579165D01*
X69618660Y-53582874D01*
X69444063Y-53629657D01*
X69371687Y-53649050D01*
X69371677Y-53649053D01*
X69135468Y-53746894D01*
X69135457Y-53746899D01*
X68914042Y-53874734D01*
X68914026Y-53874745D01*
X68711188Y-54030388D01*
X68711181Y-54030394D01*
X68530394Y-54211181D01*
X68530388Y-54211188D01*
X68374745Y-54414026D01*
X68374734Y-54414042D01*
X68246899Y-54635457D01*
X68246894Y-54635468D01*
X68149053Y-54871677D01*
X68149050Y-54871687D01*
X68087901Y-55099901D01*
X68082874Y-55118661D01*
X68049500Y-55372149D01*
X66285649Y-55372149D01*
X66259930Y-55242847D01*
X66250130Y-55193580D01*
X66170941Y-55002402D01*
X66055977Y-54830345D01*
X66055976Y-54830344D01*
X66055975Y-54830342D01*
X65909657Y-54684024D01*
X65769627Y-54590460D01*
X65737598Y-54569059D01*
X65737593Y-54569057D01*
X65546420Y-54489870D01*
X65546412Y-54489868D01*
X65343469Y-54449500D01*
X65343465Y-54449500D01*
X65136535Y-54449500D01*
X65136530Y-54449500D01*
X64933587Y-54489868D01*
X64933579Y-54489870D01*
X64742403Y-54569058D01*
X64570342Y-54684024D01*
X64570341Y-54684025D01*
X64487181Y-54767186D01*
X64425858Y-54800671D01*
X64356166Y-54795687D01*
X64300233Y-54753815D01*
X64275816Y-54688351D01*
X64275500Y-54679505D01*
X64275500Y-54400833D01*
X64295185Y-54333794D01*
X64311819Y-54313152D01*
X64578152Y-54046819D01*
X64639475Y-54013334D01*
X64665833Y-54010500D01*
X66109750Y-54010500D01*
X66109751Y-54010499D01*
X66125433Y-54007380D01*
X66168229Y-53998868D01*
X66168229Y-53998867D01*
X66168231Y-53998867D01*
X66234552Y-53954552D01*
X66278867Y-53888231D01*
X66278867Y-53888229D01*
X66278868Y-53888229D01*
X66290499Y-53829752D01*
X66290500Y-53829750D01*
X66290500Y-52090249D01*
X66290499Y-52090247D01*
X66278868Y-52031770D01*
X66278867Y-52031769D01*
X66234552Y-51965447D01*
X66168230Y-51921132D01*
X66168229Y-51921131D01*
X66109752Y-51909500D01*
X66109748Y-51909500D01*
X64665833Y-51909500D01*
X64598794Y-51889815D01*
X64578152Y-51873181D01*
X63364512Y-50659541D01*
X63364504Y-50659535D01*
X63295995Y-50619982D01*
X63295990Y-50619979D01*
X63262987Y-50611136D01*
X63219562Y-50599500D01*
X46940438Y-50599500D01*
X46902224Y-50609739D01*
X46864009Y-50619979D01*
X46864004Y-50619982D01*
X46795495Y-50659535D01*
X46795487Y-50659541D01*
X45482104Y-51972923D01*
X45420781Y-52006408D01*
X45351089Y-52001424D01*
X45346971Y-51999803D01*
X45226424Y-51949871D01*
X45226412Y-51949868D01*
X45023469Y-51909500D01*
X45023465Y-51909500D01*
X44816535Y-51909500D01*
X44816530Y-51909500D01*
X44613587Y-51949868D01*
X44613579Y-51949870D01*
X44422403Y-52029058D01*
X44250342Y-52144024D01*
X44104024Y-52290342D01*
X43989058Y-52462403D01*
X43909870Y-52653579D01*
X43909868Y-52653587D01*
X43869500Y-52856530D01*
X43869500Y-53063469D01*
X43909868Y-53266412D01*
X43909870Y-53266420D01*
X43975939Y-53425925D01*
X43989059Y-53457598D01*
X44040220Y-53534167D01*
X44104024Y-53629657D01*
X44250341Y-53775974D01*
X44250349Y-53775980D01*
X44319818Y-53822398D01*
X44364624Y-53876010D01*
X44373331Y-53945335D01*
X44343177Y-54008362D01*
X44283734Y-54045082D01*
X44250928Y-54049500D01*
X43049072Y-54049500D01*
X42982033Y-54029815D01*
X42936278Y-53977011D01*
X42926334Y-53907853D01*
X42955359Y-53844297D01*
X42980182Y-53822398D01*
X43031353Y-53788205D01*
X43049655Y-53775977D01*
X43195977Y-53629655D01*
X43310941Y-53457598D01*
X43390130Y-53266420D01*
X43430500Y-53063465D01*
X43430500Y-52856535D01*
X43390130Y-52653580D01*
X43310941Y-52462402D01*
X43195977Y-52290345D01*
X43195975Y-52290342D01*
X43049657Y-52144024D01*
X42881655Y-52031770D01*
X42877598Y-52029059D01*
X42877593Y-52029057D01*
X42686420Y-51949870D01*
X42686412Y-51949868D01*
X42483469Y-51909500D01*
X42483465Y-51909500D01*
X42276535Y-51909500D01*
X42276530Y-51909500D01*
X42073587Y-51949868D01*
X42073579Y-51949870D01*
X41882403Y-52029058D01*
X41710342Y-52144024D01*
X41564024Y-52290342D01*
X41449058Y-52462403D01*
X41369870Y-52653579D01*
X41369868Y-52653587D01*
X41329500Y-52856530D01*
X41329500Y-53063469D01*
X41369868Y-53266412D01*
X41369870Y-53266420D01*
X41435939Y-53425925D01*
X41449059Y-53457598D01*
X41500220Y-53534167D01*
X41564024Y-53629657D01*
X41710341Y-53775974D01*
X41710349Y-53775980D01*
X41779818Y-53822398D01*
X41824624Y-53876010D01*
X41833331Y-53945335D01*
X41803177Y-54008362D01*
X41743734Y-54045082D01*
X41710928Y-54049500D01*
X40509072Y-54049500D01*
X40442033Y-54029815D01*
X40396278Y-53977011D01*
X40386334Y-53907853D01*
X40415359Y-53844297D01*
X40440182Y-53822398D01*
X40491353Y-53788205D01*
X40509655Y-53775977D01*
X40655977Y-53629655D01*
X40770941Y-53457598D01*
X40850130Y-53266420D01*
X40890500Y-53063465D01*
X40890500Y-52856535D01*
X40850130Y-52653580D01*
X40770941Y-52462402D01*
X40655977Y-52290345D01*
X40655975Y-52290342D01*
X40509657Y-52144024D01*
X40341655Y-52031770D01*
X40337598Y-52029059D01*
X40337593Y-52029057D01*
X40146420Y-51949870D01*
X40146412Y-51949868D01*
X39943469Y-51909500D01*
X39943465Y-51909500D01*
X39736535Y-51909500D01*
X39736530Y-51909500D01*
X39533587Y-51949868D01*
X39533579Y-51949870D01*
X39342403Y-52029058D01*
X39170342Y-52144024D01*
X39024024Y-52290342D01*
X38909058Y-52462403D01*
X38829870Y-52653579D01*
X38829868Y-52653587D01*
X38789500Y-52856530D01*
X38789500Y-53063469D01*
X38829868Y-53266412D01*
X38829870Y-53266420D01*
X38895939Y-53425925D01*
X38909059Y-53457598D01*
X38960220Y-53534167D01*
X39024024Y-53629657D01*
X39170341Y-53775974D01*
X39170349Y-53775980D01*
X39239818Y-53822398D01*
X39284624Y-53876010D01*
X39293331Y-53945335D01*
X39263177Y-54008362D01*
X39203734Y-54045082D01*
X39170928Y-54049500D01*
X37969072Y-54049500D01*
X37902033Y-54029815D01*
X37856278Y-53977011D01*
X37846334Y-53907853D01*
X37875359Y-53844297D01*
X37900182Y-53822398D01*
X37951353Y-53788205D01*
X37969655Y-53775977D01*
X38115977Y-53629655D01*
X38230941Y-53457598D01*
X38310130Y-53266420D01*
X38350500Y-53063465D01*
X38350500Y-52856535D01*
X38310130Y-52653580D01*
X38230941Y-52462402D01*
X38115977Y-52290345D01*
X38115975Y-52290342D01*
X37969657Y-52144024D01*
X37801655Y-52031770D01*
X37797598Y-52029059D01*
X37797593Y-52029057D01*
X37606420Y-51949870D01*
X37606412Y-51949868D01*
X37403469Y-51909500D01*
X37403465Y-51909500D01*
X37196535Y-51909500D01*
X37196530Y-51909500D01*
X36993587Y-51949868D01*
X36993579Y-51949870D01*
X36802403Y-52029058D01*
X36630342Y-52144024D01*
X36484024Y-52290342D01*
X36369057Y-52462403D01*
X36300835Y-52627108D01*
X36256994Y-52681511D01*
X36190700Y-52703576D01*
X36123000Y-52686297D01*
X36075390Y-52635159D01*
X36068343Y-52617973D01*
X36011095Y-52441782D01*
X35914620Y-52252442D01*
X35789727Y-52080540D01*
X35789723Y-52080535D01*
X35639464Y-51930276D01*
X35639459Y-51930272D01*
X35467557Y-51805378D01*
X35431100Y-51786802D01*
X35380305Y-51738827D01*
X35363511Y-51671005D01*
X35386050Y-51604871D01*
X35440765Y-51561420D01*
X35455289Y-51556548D01*
X35460989Y-51555021D01*
X35529511Y-51515460D01*
X35585460Y-51459511D01*
X38220460Y-48824511D01*
X38260022Y-48755988D01*
X38280500Y-48679562D01*
X38280500Y-48600438D01*
X38280500Y-36340691D01*
X53924500Y-36340691D01*
X53924500Y-36459309D01*
X53955201Y-36573886D01*
X54014511Y-36676613D01*
X54098387Y-36760489D01*
X54201114Y-36819799D01*
X54315691Y-36850500D01*
X54315694Y-36850500D01*
X54434306Y-36850500D01*
X54434309Y-36850500D01*
X54548886Y-36819799D01*
X54651613Y-36760489D01*
X54735489Y-36676613D01*
X54794799Y-36573886D01*
X54825500Y-36459309D01*
X54825500Y-36340691D01*
X54794799Y-36226114D01*
X54735489Y-36123387D01*
X54651613Y-36039511D01*
X54548886Y-35980201D01*
X54434309Y-35949500D01*
X54315691Y-35949500D01*
X54201114Y-35980201D01*
X54201112Y-35980201D01*
X54201112Y-35980202D01*
X54098387Y-36039511D01*
X54098384Y-36039513D01*
X54014513Y-36123384D01*
X54014511Y-36123387D01*
X53955201Y-36226114D01*
X53924500Y-36340691D01*
X38280500Y-36340691D01*
X38280500Y-32973959D01*
X38279335Y-32969610D01*
X38278725Y-32967333D01*
X38274500Y-32935242D01*
X38274500Y-32664756D01*
X38278725Y-32632663D01*
X38280500Y-32626041D01*
X38280500Y-31455438D01*
X38260022Y-31379012D01*
X38256060Y-31372149D01*
X68049500Y-31372149D01*
X68049500Y-31627850D01*
X68069138Y-31777007D01*
X68082874Y-31881340D01*
X68149050Y-32128312D01*
X68149053Y-32128322D01*
X68246894Y-32364531D01*
X68246899Y-32364542D01*
X68374734Y-32585957D01*
X68374745Y-32585973D01*
X68530388Y-32788811D01*
X68530394Y-32788818D01*
X68711181Y-32969605D01*
X68711188Y-32969611D01*
X68777393Y-33020412D01*
X68914035Y-33125261D01*
X68914042Y-33125265D01*
X69135457Y-33253100D01*
X69135462Y-33253102D01*
X69135465Y-33253104D01*
X69237442Y-33295344D01*
X69363123Y-33347403D01*
X69371687Y-33350950D01*
X69618660Y-33417126D01*
X69872157Y-33450500D01*
X69872164Y-33450500D01*
X70127836Y-33450500D01*
X70127843Y-33450500D01*
X70381340Y-33417126D01*
X70628313Y-33350950D01*
X70864535Y-33253104D01*
X71085965Y-33125261D01*
X71288813Y-32969610D01*
X71469610Y-32788813D01*
X71625261Y-32585965D01*
X71753104Y-32364535D01*
X71850950Y-32128313D01*
X71917126Y-31881340D01*
X71950500Y-31627843D01*
X71950500Y-31372157D01*
X71917126Y-31118660D01*
X71850950Y-30871687D01*
X71753104Y-30635465D01*
X71753102Y-30635462D01*
X71753100Y-30635457D01*
X71625265Y-30414042D01*
X71625261Y-30414035D01*
X71469610Y-30211187D01*
X71469605Y-30211181D01*
X71288818Y-30030394D01*
X71288811Y-30030388D01*
X71085973Y-29874745D01*
X71085971Y-29874743D01*
X71085965Y-29874739D01*
X71085960Y-29874736D01*
X71085957Y-29874734D01*
X70864542Y-29746899D01*
X70864531Y-29746894D01*
X70628322Y-29649053D01*
X70628315Y-29649051D01*
X70628313Y-29649050D01*
X70381340Y-29582874D01*
X70325007Y-29575457D01*
X70127850Y-29549500D01*
X70127843Y-29549500D01*
X69872157Y-29549500D01*
X69872149Y-29549500D01*
X69646826Y-29579165D01*
X69618660Y-29582874D01*
X69371687Y-29649050D01*
X69371677Y-29649053D01*
X69135468Y-29746894D01*
X69135457Y-29746899D01*
X68914042Y-29874734D01*
X68914026Y-29874745D01*
X68711188Y-30030388D01*
X68711181Y-30030394D01*
X68530394Y-30211181D01*
X68530388Y-30211188D01*
X68374745Y-30414026D01*
X68374734Y-30414042D01*
X68246899Y-30635457D01*
X68246894Y-30635468D01*
X68149053Y-30871677D01*
X68149050Y-30871687D01*
X68082874Y-31118660D01*
X68081841Y-31126505D01*
X68049500Y-31372149D01*
X38256060Y-31372149D01*
X38220460Y-31310489D01*
X36799511Y-29889540D01*
X36799509Y-29889539D01*
X36799504Y-29889535D01*
X36730995Y-29849982D01*
X36730990Y-29849979D01*
X36705513Y-29843152D01*
X36654562Y-29829500D01*
X26590438Y-29829500D01*
X26552224Y-29839739D01*
X26514009Y-29849979D01*
X26514004Y-29849982D01*
X26445495Y-29889535D01*
X26445487Y-29889541D01*
X25284751Y-31050276D01*
X25223428Y-31083761D01*
X25153736Y-31078777D01*
X25149637Y-31077164D01*
X25070751Y-31044488D01*
X25070743Y-31044486D01*
X24884802Y-31007500D01*
X24884798Y-31007500D01*
X24695202Y-31007500D01*
X24695197Y-31007500D01*
X24509256Y-31044486D01*
X24509248Y-31044488D01*
X24334087Y-31117042D01*
X24176441Y-31222377D01*
X24042377Y-31356441D01*
X23937042Y-31514087D01*
X23864488Y-31689248D01*
X23864486Y-31689256D01*
X23827500Y-31875197D01*
X23827500Y-32064802D01*
X23864486Y-32250743D01*
X23864488Y-32250751D01*
X23937042Y-32425912D01*
X24042377Y-32583558D01*
X24176441Y-32717622D01*
X24281300Y-32787686D01*
X24334085Y-32822956D01*
X24334086Y-32822956D01*
X24334087Y-32822957D01*
X24408444Y-32853757D01*
X24462847Y-32897598D01*
X24484912Y-32963893D01*
X24467633Y-33031592D01*
X24416495Y-33079202D01*
X24360969Y-33092318D01*
X22679708Y-33092019D01*
X22612672Y-33072323D01*
X22566926Y-33019510D01*
X22556995Y-32950350D01*
X22586031Y-32886800D01*
X22632277Y-32853458D01*
X22632647Y-32853305D01*
X22676505Y-32835138D01*
X22705913Y-32822957D01*
X22705913Y-32822956D01*
X22705915Y-32822956D01*
X22863558Y-32717622D01*
X22997622Y-32583558D01*
X23102956Y-32425915D01*
X23175512Y-32250751D01*
X23212500Y-32064798D01*
X23212500Y-31875202D01*
X23175512Y-31689249D01*
X23102956Y-31514085D01*
X23012703Y-31379012D01*
X22997622Y-31356441D01*
X22863558Y-31222377D01*
X22705912Y-31117042D01*
X22530751Y-31044488D01*
X22530743Y-31044486D01*
X22344802Y-31007500D01*
X22344798Y-31007500D01*
X22155202Y-31007500D01*
X22155197Y-31007500D01*
X21969256Y-31044486D01*
X21969248Y-31044488D01*
X21794087Y-31117042D01*
X21636441Y-31222377D01*
X21502377Y-31356441D01*
X21397042Y-31514087D01*
X21324488Y-31689248D01*
X21324486Y-31689256D01*
X21287500Y-31875197D01*
X21287500Y-32064802D01*
X21324486Y-32250743D01*
X21324488Y-32250751D01*
X21397042Y-32425912D01*
X21502377Y-32583558D01*
X21636441Y-32717622D01*
X21741300Y-32787686D01*
X21794085Y-32822956D01*
X21794086Y-32822956D01*
X21794087Y-32822957D01*
X21867353Y-32853305D01*
X21921756Y-32897146D01*
X21943821Y-32963440D01*
X21926542Y-33031140D01*
X21875404Y-33078750D01*
X21819878Y-33091866D01*
X20140797Y-33091567D01*
X20073761Y-33071870D01*
X20028015Y-33019058D01*
X20018084Y-32949898D01*
X20047121Y-32886348D01*
X20093361Y-32853008D01*
X20165915Y-32822956D01*
X20323558Y-32717622D01*
X20457622Y-32583558D01*
X20562956Y-32425915D01*
X20635512Y-32250751D01*
X20672500Y-32064798D01*
X20672500Y-31875202D01*
X20635512Y-31689249D01*
X20562956Y-31514085D01*
X20472703Y-31379012D01*
X20457622Y-31356441D01*
X20323558Y-31222377D01*
X20165912Y-31117042D01*
X19990751Y-31044488D01*
X19990743Y-31044486D01*
X19804802Y-31007500D01*
X19804798Y-31007500D01*
X19615202Y-31007500D01*
X19615197Y-31007500D01*
X19429256Y-31044486D01*
X19429248Y-31044488D01*
X19254087Y-31117042D01*
X19096441Y-31222377D01*
X18962377Y-31356441D01*
X18857042Y-31514087D01*
X18784488Y-31689248D01*
X18784486Y-31689256D01*
X18747500Y-31875197D01*
X18747500Y-32064802D01*
X18784486Y-32250743D01*
X18784488Y-32250751D01*
X18857042Y-32425912D01*
X18962377Y-32583558D01*
X19096441Y-32717622D01*
X19201300Y-32787686D01*
X19254085Y-32822956D01*
X19254086Y-32822956D01*
X19254087Y-32822957D01*
X19254089Y-32822958D01*
X19326262Y-32852853D01*
X19380666Y-32896694D01*
X19402731Y-32962988D01*
X19385452Y-33030687D01*
X19334315Y-33078298D01*
X19278788Y-33091414D01*
X17601887Y-33091116D01*
X17534851Y-33071420D01*
X17489105Y-33018607D01*
X17479174Y-32949447D01*
X17508210Y-32885897D01*
X17554457Y-32852555D01*
X17558103Y-32851045D01*
X17625915Y-32822956D01*
X17783558Y-32717622D01*
X17917622Y-32583558D01*
X18022956Y-32425915D01*
X18095512Y-32250751D01*
X18132500Y-32064798D01*
X18132500Y-31875202D01*
X18095512Y-31689249D01*
X18022956Y-31514085D01*
X17932703Y-31379012D01*
X17917622Y-31356441D01*
X17783558Y-31222377D01*
X17625912Y-31117042D01*
X17450751Y-31044488D01*
X17450743Y-31044486D01*
X17264802Y-31007500D01*
X17264798Y-31007500D01*
X17075202Y-31007500D01*
X17075197Y-31007500D01*
X16889256Y-31044486D01*
X16889248Y-31044488D01*
X16714087Y-31117042D01*
X16556441Y-31222377D01*
X16422377Y-31356441D01*
X16317042Y-31514087D01*
X16244488Y-31689248D01*
X16244486Y-31689256D01*
X16207500Y-31875197D01*
X16207500Y-32064802D01*
X16244486Y-32250743D01*
X16244488Y-32250751D01*
X16317042Y-32425912D01*
X16422377Y-32583558D01*
X16556441Y-32717622D01*
X16661300Y-32787686D01*
X16714085Y-32822956D01*
X16714086Y-32822956D01*
X16714087Y-32822957D01*
X16714089Y-32822958D01*
X16785171Y-32852401D01*
X16839575Y-32896242D01*
X16861640Y-32962536D01*
X16844361Y-33030235D01*
X16793224Y-33077846D01*
X16737697Y-33090962D01*
X15062976Y-33090665D01*
X14995940Y-33070969D01*
X14950194Y-33018156D01*
X14940263Y-32948996D01*
X14969299Y-32885446D01*
X15015546Y-32852104D01*
X15085910Y-32822958D01*
X15085909Y-32822958D01*
X15085915Y-32822956D01*
X15243558Y-32717622D01*
X15377622Y-32583558D01*
X15482956Y-32425915D01*
X15555512Y-32250751D01*
X15592500Y-32064798D01*
X15592500Y-31875202D01*
X15555512Y-31689249D01*
X15482956Y-31514085D01*
X15392703Y-31379012D01*
X15377622Y-31356441D01*
X15243558Y-31222377D01*
X15085912Y-31117042D01*
X14910751Y-31044488D01*
X14910743Y-31044486D01*
X14724802Y-31007500D01*
X14724798Y-31007500D01*
X14535202Y-31007500D01*
X14535197Y-31007500D01*
X14349256Y-31044486D01*
X14349248Y-31044488D01*
X14174087Y-31117042D01*
X14016441Y-31222377D01*
X13882377Y-31356441D01*
X13777042Y-31514087D01*
X13704488Y-31689248D01*
X13704486Y-31689256D01*
X13667500Y-31875197D01*
X13667500Y-32064802D01*
X13704486Y-32250743D01*
X13704488Y-32250751D01*
X13777042Y-32425912D01*
X13882377Y-32583558D01*
X14016441Y-32717622D01*
X14121300Y-32787686D01*
X14174085Y-32822956D01*
X14174086Y-32822956D01*
X14174087Y-32822957D01*
X14244082Y-32851950D01*
X14298485Y-32895791D01*
X14320550Y-32962085D01*
X14303271Y-33029785D01*
X14252133Y-33077395D01*
X14196607Y-33090511D01*
X12908069Y-33090282D01*
X12841033Y-33070586D01*
X12820410Y-33053963D01*
X12219410Y-32452962D01*
X12282993Y-32435925D01*
X12397007Y-32370099D01*
X12490099Y-32277007D01*
X12555925Y-32162993D01*
X12572962Y-32099409D01*
X13142268Y-32668715D01*
X13169362Y-32631425D01*
X13259542Y-32454437D01*
X13320924Y-32265523D01*
X13320924Y-32265520D01*
X13352000Y-32069321D01*
X13352000Y-31870678D01*
X13320924Y-31674479D01*
X13320924Y-31674476D01*
X13259542Y-31485562D01*
X13169358Y-31308567D01*
X13142268Y-31271283D01*
X12572962Y-31840589D01*
X12555925Y-31777007D01*
X12490099Y-31662993D01*
X12397007Y-31569901D01*
X12282993Y-31504075D01*
X12219409Y-31487037D01*
X12788716Y-30917731D01*
X12788715Y-30917730D01*
X12751432Y-30890641D01*
X12574437Y-30800457D01*
X12385522Y-30739075D01*
X12189321Y-30708000D01*
X11990679Y-30708000D01*
X11794479Y-30739075D01*
X11794476Y-30739075D01*
X11605562Y-30800457D01*
X11428564Y-30890643D01*
X11391283Y-30917729D01*
X11391282Y-30917730D01*
X11960590Y-31487037D01*
X11897007Y-31504075D01*
X11782993Y-31569901D01*
X11689901Y-31662993D01*
X11624075Y-31777007D01*
X11607037Y-31840590D01*
X11037730Y-31271282D01*
X11037729Y-31271283D01*
X11010643Y-31308564D01*
X10920457Y-31485562D01*
X10859075Y-31674476D01*
X10859075Y-31674479D01*
X10828000Y-31870678D01*
X10828000Y-32069321D01*
X10859075Y-32265520D01*
X10859075Y-32265523D01*
X10920457Y-32454437D01*
X11010641Y-32631432D01*
X11037730Y-32668715D01*
X11037731Y-32668716D01*
X11607037Y-32099409D01*
X11624075Y-32162993D01*
X11689901Y-32277007D01*
X11782993Y-32370099D01*
X11897007Y-32435925D01*
X11960590Y-32452962D01*
X11359878Y-33053673D01*
X11298555Y-33087158D01*
X11272175Y-33089992D01*
X9998213Y-33089765D01*
X9931177Y-33070068D01*
X9885431Y-33017256D01*
X9875500Y-32948096D01*
X9904537Y-32884546D01*
X9950780Y-32851205D01*
X9989583Y-32835133D01*
X10025112Y-32816143D01*
X10149917Y-32732751D01*
X10181057Y-32707194D01*
X10287194Y-32601057D01*
X10312751Y-32569917D01*
X10396143Y-32445112D01*
X10415133Y-32409583D01*
X10472574Y-32270908D01*
X10484268Y-32232358D01*
X10513551Y-32085141D01*
X10517500Y-32045050D01*
X10517500Y-31894950D01*
X10513551Y-31854859D01*
X10484268Y-31707642D01*
X10472574Y-31669092D01*
X10415133Y-31530417D01*
X10406404Y-31514085D01*
X10396150Y-31494900D01*
X10396139Y-31494882D01*
X10312752Y-31370084D01*
X10287194Y-31338943D01*
X10181056Y-31232805D01*
X10149915Y-31207247D01*
X10025117Y-31123860D01*
X10025099Y-31123849D01*
X9989599Y-31104875D01*
X9989577Y-31104864D01*
X9950474Y-31088667D01*
X9857789Y-31050276D01*
X9850909Y-31047426D01*
X9834888Y-31042566D01*
X9812358Y-31035732D01*
X9812353Y-31035731D01*
X9812350Y-31035730D01*
X9665142Y-31006449D01*
X9665143Y-31006449D01*
X9653686Y-31005320D01*
X9625050Y-31002500D01*
X9474950Y-31002500D01*
X9446313Y-31005320D01*
X9434857Y-31006449D01*
X9287649Y-31035730D01*
X9249090Y-31047426D01*
X9110422Y-31104864D01*
X9110400Y-31104875D01*
X9074900Y-31123849D01*
X9074882Y-31123860D01*
X8950087Y-31207245D01*
X8932919Y-31221335D01*
X8908666Y-31231634D01*
X8886146Y-31245309D01*
X8877016Y-31245076D01*
X8868608Y-31248647D01*
X8842636Y-31244199D01*
X8816299Y-31243528D01*
X8808743Y-31238395D01*
X8799741Y-31236854D01*
X8780299Y-31219073D01*
X8758503Y-31204267D01*
X8754921Y-31195863D01*
X8748182Y-31189700D01*
X8741439Y-31164233D01*
X8731108Y-31139992D01*
X8731452Y-31126505D01*
X8730301Y-31122158D01*
X8732006Y-31104723D01*
X8769523Y-30883915D01*
X8772616Y-30870363D01*
X8819393Y-30708000D01*
X8855673Y-30582068D01*
X8860265Y-30568948D01*
X8950347Y-30351469D01*
X8975075Y-30291768D01*
X8981097Y-30279262D01*
X9126230Y-30016665D01*
X9133625Y-30004897D01*
X9307245Y-29760201D01*
X9315896Y-29749354D01*
X9515816Y-29525645D01*
X9525647Y-29515815D01*
X9749354Y-29315896D01*
X9760201Y-29307245D01*
X10004902Y-29133621D01*
X10016665Y-29126230D01*
X10279262Y-28981097D01*
X10291768Y-28975075D01*
X10568948Y-28860265D01*
X10582068Y-28855673D01*
X10870369Y-28772614D01*
X10883915Y-28769523D01*
X11179700Y-28719267D01*
X11193494Y-28717713D01*
X11496528Y-28700695D01*
X11503481Y-28700500D01*
X11539882Y-28700500D01*
X70460118Y-28700500D01*
X70496519Y-28700500D01*
X70503472Y-28700695D01*
G37*
%TD.AperFunction*%
%TA.AperFunction,Conductor*%
G36*
X14755703Y-55873202D02*
G01*
X14781887Y-55904915D01*
X14784540Y-55909511D01*
X14784542Y-55909513D01*
X16461848Y-57586819D01*
X16495333Y-57648142D01*
X16490349Y-57717834D01*
X16448477Y-57773767D01*
X16383013Y-57798184D01*
X16374167Y-57798500D01*
X15620543Y-57798500D01*
X15553504Y-57778815D01*
X15532862Y-57762181D01*
X14586819Y-56816137D01*
X14553334Y-56754814D01*
X14550500Y-56728456D01*
X14550500Y-55966915D01*
X14570185Y-55899876D01*
X14622989Y-55854121D01*
X14692147Y-55844177D01*
X14755703Y-55873202D01*
G37*
%TD.AperFunction*%
%TA.AperFunction,Conductor*%
G36*
X64371806Y-56167891D02*
G01*
X64379180Y-56166373D01*
X64405197Y-56176408D01*
X64432216Y-56183301D01*
X64441242Y-56190312D01*
X64444368Y-56191518D01*
X64446437Y-56194347D01*
X64456637Y-56202270D01*
X64570342Y-56315975D01*
X64742405Y-56430943D01*
X64812952Y-56460164D01*
X64828516Y-56472706D01*
X64846703Y-56481012D01*
X64855167Y-56494182D01*
X64867356Y-56504005D01*
X64873668Y-56522972D01*
X64884477Y-56539790D01*
X64888439Y-56567350D01*
X64889421Y-56570299D01*
X64889500Y-56574725D01*
X64889500Y-56688456D01*
X64869815Y-56755495D01*
X64853181Y-56776137D01*
X63867137Y-57762181D01*
X63805814Y-57795666D01*
X63779456Y-57798500D01*
X63025833Y-57798500D01*
X62958794Y-57778815D01*
X62913039Y-57726011D01*
X62903095Y-57656853D01*
X62932120Y-57593297D01*
X62938152Y-57586819D01*
X63569980Y-56954991D01*
X64215460Y-56309511D01*
X64228784Y-56286433D01*
X64255021Y-56240989D01*
X64255728Y-56238348D01*
X64260793Y-56229315D01*
X64280727Y-56209819D01*
X64298223Y-56188104D01*
X64305364Y-56185726D01*
X64310746Y-56180463D01*
X64338062Y-56174838D01*
X64364515Y-56166031D01*
X64371806Y-56167891D01*
G37*
%TD.AperFunction*%
%TA.AperFunction,Conductor*%
G36*
X18282695Y-53704733D02*
G01*
X18283956Y-53705977D01*
X18823490Y-54245511D01*
X18879439Y-54301460D01*
X18879441Y-54301461D01*
X18879445Y-54301464D01*
X18899690Y-54313152D01*
X18947961Y-54341021D01*
X18980343Y-54349698D01*
X19040003Y-54386062D01*
X19070532Y-54448909D01*
X19062237Y-54518284D01*
X19017752Y-54572162D01*
X19017140Y-54572574D01*
X18850344Y-54684022D01*
X18704024Y-54830342D01*
X18589058Y-55002403D01*
X18509870Y-55193579D01*
X18509868Y-55193587D01*
X18469500Y-55396530D01*
X18469500Y-55603469D01*
X18509868Y-55806412D01*
X18509870Y-55806420D01*
X18576349Y-55966915D01*
X18589059Y-55997598D01*
X18602836Y-56018217D01*
X18704024Y-56169657D01*
X18850342Y-56315975D01*
X18850345Y-56315977D01*
X19022402Y-56430941D01*
X19213580Y-56510130D01*
X19416530Y-56550499D01*
X19416534Y-56550500D01*
X19416535Y-56550500D01*
X19623466Y-56550500D01*
X19623467Y-56550499D01*
X19826420Y-56510130D01*
X20017598Y-56430941D01*
X20189655Y-56315977D01*
X20285125Y-56220506D01*
X20346446Y-56187023D01*
X20416138Y-56192007D01*
X20460486Y-56220508D01*
X21427798Y-57187819D01*
X21461283Y-57249142D01*
X21456299Y-57318833D01*
X21414427Y-57374767D01*
X21348963Y-57399184D01*
X21340117Y-57399500D01*
X17175833Y-57399500D01*
X17108794Y-57379815D01*
X17088152Y-57363181D01*
X16365851Y-56640880D01*
X16332366Y-56579557D01*
X16337350Y-56509865D01*
X16379222Y-56453932D01*
X16444686Y-56429515D01*
X16500983Y-56438637D01*
X16673580Y-56510130D01*
X16876530Y-56550499D01*
X16876534Y-56550500D01*
X16876535Y-56550500D01*
X17083466Y-56550500D01*
X17083467Y-56550499D01*
X17286420Y-56510130D01*
X17477598Y-56430941D01*
X17649655Y-56315977D01*
X17795977Y-56169655D01*
X17910941Y-55997598D01*
X17990130Y-55806420D01*
X18030500Y-55603465D01*
X18030500Y-55396535D01*
X17990130Y-55193580D01*
X17910941Y-55002402D01*
X17795977Y-54830345D01*
X17795976Y-54830344D01*
X17795975Y-54830342D01*
X17649657Y-54684024D01*
X17509627Y-54590460D01*
X17477598Y-54569059D01*
X17477593Y-54569057D01*
X17355017Y-54518284D01*
X17312890Y-54500834D01*
X17258488Y-54456994D01*
X17236423Y-54390700D01*
X17253702Y-54323001D01*
X17304839Y-54275390D01*
X17322026Y-54268343D01*
X17498217Y-54211095D01*
X17687557Y-54114620D01*
X17859459Y-53989727D01*
X17859464Y-53989723D01*
X18009721Y-53839466D01*
X18095956Y-53720773D01*
X18151286Y-53678107D01*
X18220899Y-53672128D01*
X18282695Y-53704733D01*
G37*
%TD.AperFunction*%
%TA.AperFunction,Conductor*%
G36*
X58796998Y-55773702D02*
G01*
X58844609Y-55824839D01*
X58851656Y-55842026D01*
X58908904Y-56018216D01*
X59005379Y-56207557D01*
X59130272Y-56379459D01*
X59130276Y-56379464D01*
X59280535Y-56529723D01*
X59280540Y-56529727D01*
X59452442Y-56654620D01*
X59641782Y-56751095D01*
X59843871Y-56816757D01*
X59910000Y-56827231D01*
X59910000Y-55933012D01*
X59967007Y-55965925D01*
X60094174Y-56000000D01*
X60225826Y-56000000D01*
X60352993Y-55965925D01*
X60410000Y-55933012D01*
X60410000Y-56827230D01*
X60476126Y-56816757D01*
X60476129Y-56816757D01*
X60678217Y-56751095D01*
X60867557Y-56654620D01*
X61039459Y-56529727D01*
X61039464Y-56529723D01*
X61189723Y-56379464D01*
X61189727Y-56379459D01*
X61314620Y-56207557D01*
X61411095Y-56018217D01*
X61468343Y-55842026D01*
X61507780Y-55784351D01*
X61572139Y-55757152D01*
X61640985Y-55769066D01*
X61692461Y-55816310D01*
X61700835Y-55832891D01*
X61755939Y-55965925D01*
X61769059Y-55997598D01*
X61782836Y-56018217D01*
X61884024Y-56169657D01*
X62030342Y-56315975D01*
X62030345Y-56315977D01*
X62202402Y-56430941D01*
X62393580Y-56510130D01*
X62596530Y-56550499D01*
X62596534Y-56550500D01*
X62596535Y-56550500D01*
X62803466Y-56550500D01*
X62809528Y-56549903D01*
X62809645Y-56551092D01*
X62872919Y-56556753D01*
X62928098Y-56599615D01*
X62951344Y-56665504D01*
X62935278Y-56733501D01*
X62915203Y-56759825D01*
X62311848Y-57363181D01*
X62250525Y-57396666D01*
X62224167Y-57399500D01*
X56444833Y-57399500D01*
X56377794Y-57379815D01*
X56332039Y-57327011D01*
X56322095Y-57257853D01*
X56351120Y-57194297D01*
X56357152Y-57187819D01*
X56524683Y-57020288D01*
X57057896Y-56487073D01*
X57119217Y-56453590D01*
X57188908Y-56458574D01*
X57193007Y-56460186D01*
X57313580Y-56510130D01*
X57516530Y-56550499D01*
X57516534Y-56550500D01*
X57516535Y-56550500D01*
X57723466Y-56550500D01*
X57723467Y-56550499D01*
X57926420Y-56510130D01*
X58117598Y-56430941D01*
X58289655Y-56315977D01*
X58435977Y-56169655D01*
X58550941Y-55997598D01*
X58619165Y-55832889D01*
X58663004Y-55778488D01*
X58729298Y-55756423D01*
X58796998Y-55773702D01*
G37*
%TD.AperFunction*%
%TA.AperFunction,Conductor*%
G36*
X23236998Y-55773702D02*
G01*
X23284609Y-55824839D01*
X23291656Y-55842026D01*
X23348904Y-56018216D01*
X23445379Y-56207557D01*
X23570272Y-56379459D01*
X23570276Y-56379464D01*
X23720535Y-56529723D01*
X23720540Y-56529727D01*
X23892444Y-56654622D01*
X23912841Y-56665015D01*
X23963638Y-56712989D01*
X23980433Y-56780810D01*
X23957896Y-56846945D01*
X23903181Y-56890397D01*
X23856547Y-56899500D01*
X22040783Y-56899500D01*
X21973744Y-56879815D01*
X21953102Y-56863181D01*
X21850937Y-56761016D01*
X21817452Y-56699693D01*
X21822436Y-56630001D01*
X21864308Y-56574068D01*
X21929772Y-56549651D01*
X21950776Y-56549932D01*
X21956529Y-56550498D01*
X21956535Y-56550500D01*
X21956541Y-56550500D01*
X22163466Y-56550500D01*
X22163467Y-56550499D01*
X22366420Y-56510130D01*
X22557598Y-56430941D01*
X22729655Y-56315977D01*
X22875977Y-56169655D01*
X22990941Y-55997598D01*
X23059165Y-55832889D01*
X23103004Y-55778488D01*
X23169298Y-55756423D01*
X23236998Y-55773702D01*
G37*
%TD.AperFunction*%
%TA.AperFunction,Conductor*%
G36*
X28316998Y-55773702D02*
G01*
X28364609Y-55824839D01*
X28371656Y-55842026D01*
X28428904Y-56018216D01*
X28525379Y-56207557D01*
X28650272Y-56379459D01*
X28650276Y-56379464D01*
X28800535Y-56529723D01*
X28800540Y-56529727D01*
X28972444Y-56654622D01*
X28992841Y-56665015D01*
X29043638Y-56712989D01*
X29060433Y-56780810D01*
X29037896Y-56846945D01*
X28983181Y-56890397D01*
X28936547Y-56899500D01*
X25343453Y-56899500D01*
X25276414Y-56879815D01*
X25230659Y-56827011D01*
X25220715Y-56757853D01*
X25249740Y-56694297D01*
X25287159Y-56665015D01*
X25307555Y-56654622D01*
X25479459Y-56529727D01*
X25479464Y-56529723D01*
X25629723Y-56379464D01*
X25629727Y-56379459D01*
X25754620Y-56207557D01*
X25851095Y-56018217D01*
X25908343Y-55842026D01*
X25947780Y-55784351D01*
X26012139Y-55757152D01*
X26080985Y-55769066D01*
X26132461Y-55816310D01*
X26140835Y-55832891D01*
X26195939Y-55965925D01*
X26209059Y-55997598D01*
X26222836Y-56018217D01*
X26324024Y-56169657D01*
X26470342Y-56315975D01*
X26470345Y-56315977D01*
X26642402Y-56430941D01*
X26833580Y-56510130D01*
X27036530Y-56550499D01*
X27036534Y-56550500D01*
X27036535Y-56550500D01*
X27243466Y-56550500D01*
X27243467Y-56550499D01*
X27446420Y-56510130D01*
X27637598Y-56430941D01*
X27809655Y-56315977D01*
X27955977Y-56169655D01*
X28070941Y-55997598D01*
X28139165Y-55832889D01*
X28183004Y-55778488D01*
X28249298Y-55756423D01*
X28316998Y-55773702D01*
G37*
%TD.AperFunction*%
%TA.AperFunction,Conductor*%
G36*
X33841955Y-54653363D02*
G01*
X33852039Y-54652097D01*
X33874914Y-54663041D01*
X33899243Y-54670185D01*
X33905897Y-54677864D01*
X33915066Y-54682251D01*
X33928394Y-54703827D01*
X33944998Y-54722989D01*
X33946444Y-54733046D01*
X33951786Y-54741694D01*
X33951333Y-54767050D01*
X33954942Y-54792147D01*
X33950687Y-54803250D01*
X33950539Y-54811553D01*
X33935306Y-54843390D01*
X33829059Y-55002399D01*
X33829059Y-55002400D01*
X33749870Y-55193579D01*
X33749868Y-55193587D01*
X33709500Y-55396530D01*
X33709500Y-55603469D01*
X33749868Y-55806412D01*
X33749870Y-55806420D01*
X33816349Y-55966915D01*
X33829059Y-55997598D01*
X33842836Y-56018217D01*
X33944024Y-56169657D01*
X34090342Y-56315975D01*
X34090345Y-56315977D01*
X34262402Y-56430941D01*
X34453580Y-56510130D01*
X34656530Y-56550499D01*
X34656534Y-56550500D01*
X34656535Y-56550500D01*
X34863466Y-56550500D01*
X34863467Y-56550499D01*
X35066420Y-56510130D01*
X35257598Y-56430941D01*
X35429655Y-56315977D01*
X35575977Y-56169655D01*
X35690941Y-55997598D01*
X35770130Y-55806420D01*
X35810500Y-55603465D01*
X35810500Y-55396535D01*
X35770130Y-55193580D01*
X35690941Y-55002402D01*
X35690940Y-55002400D01*
X35690940Y-55002399D01*
X35584694Y-54843390D01*
X35563816Y-54776713D01*
X35582301Y-54709333D01*
X35634280Y-54662643D01*
X35687796Y-54650500D01*
X36372204Y-54650500D01*
X36439243Y-54670185D01*
X36484998Y-54722989D01*
X36494942Y-54792147D01*
X36475306Y-54843390D01*
X36369059Y-55002399D01*
X36369059Y-55002400D01*
X36289870Y-55193579D01*
X36289868Y-55193587D01*
X36249500Y-55396530D01*
X36249500Y-55603469D01*
X36289868Y-55806412D01*
X36289870Y-55806420D01*
X36356349Y-55966915D01*
X36369059Y-55997598D01*
X36382836Y-56018217D01*
X36484024Y-56169657D01*
X36630342Y-56315975D01*
X36630345Y-56315977D01*
X36802402Y-56430941D01*
X36993580Y-56510130D01*
X37196530Y-56550499D01*
X37196534Y-56550500D01*
X37196535Y-56550500D01*
X37403466Y-56550500D01*
X37403467Y-56550499D01*
X37606420Y-56510130D01*
X37797598Y-56430941D01*
X37969655Y-56315977D01*
X38115977Y-56169655D01*
X38230941Y-55997598D01*
X38310130Y-55806420D01*
X38350500Y-55603465D01*
X38350500Y-55396535D01*
X38310130Y-55193580D01*
X38230941Y-55002402D01*
X38230940Y-55002400D01*
X38230940Y-55002399D01*
X38124694Y-54843390D01*
X38103816Y-54776713D01*
X38122301Y-54709333D01*
X38174280Y-54662643D01*
X38227796Y-54650500D01*
X38912204Y-54650500D01*
X38979243Y-54670185D01*
X39024998Y-54722989D01*
X39034942Y-54792147D01*
X39015306Y-54843390D01*
X38909059Y-55002399D01*
X38909059Y-55002400D01*
X38829870Y-55193579D01*
X38829868Y-55193587D01*
X38789500Y-55396530D01*
X38789500Y-55603469D01*
X38829868Y-55806412D01*
X38829870Y-55806420D01*
X38896349Y-55966915D01*
X38909059Y-55997598D01*
X38922836Y-56018217D01*
X39024024Y-56169657D01*
X39170342Y-56315975D01*
X39170345Y-56315977D01*
X39342402Y-56430941D01*
X39533580Y-56510130D01*
X39736530Y-56550499D01*
X39736534Y-56550500D01*
X39736535Y-56550500D01*
X39943466Y-56550500D01*
X39943467Y-56550499D01*
X40146420Y-56510130D01*
X40337598Y-56430941D01*
X40509655Y-56315977D01*
X40655977Y-56169655D01*
X40770941Y-55997598D01*
X40839165Y-55832889D01*
X40883004Y-55778488D01*
X40949298Y-55756423D01*
X41016998Y-55773702D01*
X41064609Y-55824839D01*
X41071656Y-55842026D01*
X41128904Y-56018216D01*
X41225379Y-56207557D01*
X41350272Y-56379459D01*
X41350276Y-56379464D01*
X41500535Y-56529723D01*
X41500540Y-56529727D01*
X41672444Y-56654622D01*
X41692841Y-56665015D01*
X41743638Y-56712989D01*
X41760433Y-56780810D01*
X41737896Y-56846945D01*
X41683181Y-56890397D01*
X41636547Y-56899500D01*
X30423453Y-56899500D01*
X30356414Y-56879815D01*
X30310659Y-56827011D01*
X30300715Y-56757853D01*
X30329740Y-56694297D01*
X30367159Y-56665015D01*
X30387555Y-56654622D01*
X30559459Y-56529727D01*
X30559464Y-56529723D01*
X30709723Y-56379464D01*
X30709727Y-56379459D01*
X30834620Y-56207557D01*
X30931095Y-56018217D01*
X30988343Y-55842026D01*
X31027780Y-55784351D01*
X31092139Y-55757152D01*
X31160985Y-55769066D01*
X31212461Y-55816310D01*
X31220835Y-55832891D01*
X31275939Y-55965925D01*
X31289059Y-55997598D01*
X31302836Y-56018217D01*
X31404024Y-56169657D01*
X31550342Y-56315975D01*
X31550345Y-56315977D01*
X31722402Y-56430941D01*
X31913580Y-56510130D01*
X32116530Y-56550499D01*
X32116534Y-56550500D01*
X32116535Y-56550500D01*
X32323466Y-56550500D01*
X32323467Y-56550499D01*
X32526420Y-56510130D01*
X32717598Y-56430941D01*
X32889655Y-56315977D01*
X33035977Y-56169655D01*
X33150941Y-55997598D01*
X33230130Y-55806420D01*
X33270500Y-55603465D01*
X33270500Y-55396535D01*
X33230130Y-55193580D01*
X33150941Y-55002402D01*
X33150940Y-55002400D01*
X33150940Y-55002399D01*
X33044694Y-54843390D01*
X33023816Y-54776713D01*
X33042301Y-54709333D01*
X33094280Y-54662643D01*
X33147796Y-54650500D01*
X33832204Y-54650500D01*
X33841955Y-54653363D01*
G37*
%TD.AperFunction*%
%TA.AperFunction,Conductor*%
G36*
X46599243Y-54670185D02*
G01*
X46644998Y-54722989D01*
X46654942Y-54792147D01*
X46635306Y-54843390D01*
X46529059Y-55002399D01*
X46529059Y-55002400D01*
X46449870Y-55193579D01*
X46449868Y-55193587D01*
X46409500Y-55396530D01*
X46409500Y-55603469D01*
X46449868Y-55806412D01*
X46449870Y-55806420D01*
X46516349Y-55966915D01*
X46529059Y-55997598D01*
X46542836Y-56018217D01*
X46644024Y-56169657D01*
X46790342Y-56315975D01*
X46790345Y-56315977D01*
X46962402Y-56430941D01*
X47153580Y-56510130D01*
X47356530Y-56550499D01*
X47356534Y-56550500D01*
X47356535Y-56550500D01*
X47563466Y-56550500D01*
X47563467Y-56550499D01*
X47766420Y-56510130D01*
X47957598Y-56430941D01*
X48129655Y-56315977D01*
X48275977Y-56169655D01*
X48390941Y-55997598D01*
X48459165Y-55832889D01*
X48503004Y-55778488D01*
X48569298Y-55756423D01*
X48636998Y-55773702D01*
X48684609Y-55824839D01*
X48691656Y-55842026D01*
X48748904Y-56018216D01*
X48845379Y-56207557D01*
X48970272Y-56379459D01*
X48970276Y-56379464D01*
X49120535Y-56529723D01*
X49120540Y-56529727D01*
X49292444Y-56654622D01*
X49312841Y-56665015D01*
X49363638Y-56712989D01*
X49380433Y-56780810D01*
X49357896Y-56846945D01*
X49303181Y-56890397D01*
X49256547Y-56899500D01*
X43123453Y-56899500D01*
X43056414Y-56879815D01*
X43010659Y-56827011D01*
X43000715Y-56757853D01*
X43029740Y-56694297D01*
X43067159Y-56665015D01*
X43087555Y-56654622D01*
X43259459Y-56529727D01*
X43259464Y-56529723D01*
X43409723Y-56379464D01*
X43409727Y-56379459D01*
X43534620Y-56207557D01*
X43631095Y-56018217D01*
X43688343Y-55842026D01*
X43727780Y-55784351D01*
X43792139Y-55757152D01*
X43860985Y-55769066D01*
X43912461Y-55816310D01*
X43920835Y-55832891D01*
X43975939Y-55965925D01*
X43989059Y-55997598D01*
X44002836Y-56018217D01*
X44104024Y-56169657D01*
X44250342Y-56315975D01*
X44250345Y-56315977D01*
X44422402Y-56430941D01*
X44613580Y-56510130D01*
X44816530Y-56550499D01*
X44816534Y-56550500D01*
X44816535Y-56550500D01*
X45023466Y-56550500D01*
X45023467Y-56550499D01*
X45226420Y-56510130D01*
X45417598Y-56430941D01*
X45589655Y-56315977D01*
X45735977Y-56169655D01*
X45850941Y-55997598D01*
X45930130Y-55806420D01*
X45970500Y-55603465D01*
X45970500Y-55396535D01*
X45930130Y-55193580D01*
X45850941Y-55002402D01*
X45850940Y-55002400D01*
X45850940Y-55002399D01*
X45744694Y-54843390D01*
X45723816Y-54776713D01*
X45742301Y-54709333D01*
X45794280Y-54662643D01*
X45847796Y-54650500D01*
X46532204Y-54650500D01*
X46599243Y-54670185D01*
G37*
%TD.AperFunction*%
%TA.AperFunction,Conductor*%
G36*
X63071206Y-51220185D02*
G01*
X63091848Y-51236819D01*
X64153181Y-52298152D01*
X64186666Y-52359475D01*
X64189500Y-52385833D01*
X64189500Y-53534167D01*
X64169815Y-53601206D01*
X64153181Y-53621848D01*
X63734541Y-54040487D01*
X63734535Y-54040495D01*
X63694982Y-54109004D01*
X63694979Y-54109009D01*
X63674500Y-54185439D01*
X63674500Y-54689505D01*
X63654815Y-54756544D01*
X63602011Y-54802299D01*
X63532853Y-54812243D01*
X63469297Y-54783218D01*
X63462819Y-54777186D01*
X63369657Y-54684024D01*
X63229627Y-54590460D01*
X63197598Y-54569059D01*
X63197593Y-54569057D01*
X63006420Y-54489870D01*
X63006412Y-54489868D01*
X62803469Y-54449500D01*
X62803465Y-54449500D01*
X62596535Y-54449500D01*
X62596530Y-54449500D01*
X62393587Y-54489868D01*
X62393579Y-54489870D01*
X62202403Y-54569058D01*
X62030342Y-54684024D01*
X61884024Y-54830342D01*
X61769057Y-55002403D01*
X61700835Y-55167108D01*
X61656994Y-55221511D01*
X61590700Y-55243576D01*
X61523000Y-55226297D01*
X61475390Y-55175159D01*
X61468343Y-55157973D01*
X61411095Y-54981782D01*
X61314620Y-54792442D01*
X61189727Y-54620540D01*
X61189723Y-54620535D01*
X61039464Y-54470276D01*
X61039459Y-54470272D01*
X60867557Y-54345379D01*
X60678216Y-54248904D01*
X60502026Y-54191656D01*
X60444350Y-54152218D01*
X60417152Y-54087860D01*
X60429067Y-54019013D01*
X60476311Y-53967538D01*
X60492882Y-53959168D01*
X60657598Y-53890941D01*
X60829655Y-53775977D01*
X60975977Y-53629655D01*
X61090941Y-53457598D01*
X61170130Y-53266420D01*
X61210500Y-53063465D01*
X61210500Y-52856535D01*
X61210499Y-52856530D01*
X61649500Y-52856530D01*
X61649500Y-53063469D01*
X61689868Y-53266412D01*
X61689870Y-53266420D01*
X61755939Y-53425925D01*
X61769059Y-53457598D01*
X61820220Y-53534167D01*
X61884024Y-53629657D01*
X62030342Y-53775975D01*
X62030345Y-53775977D01*
X62202402Y-53890941D01*
X62393580Y-53970130D01*
X62586681Y-54008540D01*
X62596530Y-54010499D01*
X62596534Y-54010500D01*
X62596535Y-54010500D01*
X62803466Y-54010500D01*
X62803467Y-54010499D01*
X63006420Y-53970130D01*
X63197598Y-53890941D01*
X63369655Y-53775977D01*
X63515977Y-53629655D01*
X63630941Y-53457598D01*
X63710130Y-53266420D01*
X63750500Y-53063465D01*
X63750500Y-52856535D01*
X63710130Y-52653580D01*
X63630941Y-52462402D01*
X63515977Y-52290345D01*
X63515975Y-52290342D01*
X63369657Y-52144024D01*
X63201655Y-52031770D01*
X63197598Y-52029059D01*
X63197593Y-52029057D01*
X63006420Y-51949870D01*
X63006412Y-51949868D01*
X62803469Y-51909500D01*
X62803465Y-51909500D01*
X62596535Y-51909500D01*
X62596530Y-51909500D01*
X62393587Y-51949868D01*
X62393579Y-51949870D01*
X62202403Y-52029058D01*
X62030342Y-52144024D01*
X61884024Y-52290342D01*
X61769058Y-52462403D01*
X61689870Y-52653579D01*
X61689868Y-52653587D01*
X61649500Y-52856530D01*
X61210499Y-52856530D01*
X61170130Y-52653580D01*
X61090941Y-52462402D01*
X60975977Y-52290345D01*
X60975975Y-52290342D01*
X60829657Y-52144024D01*
X60661655Y-52031770D01*
X60657598Y-52029059D01*
X60657593Y-52029057D01*
X60466420Y-51949870D01*
X60466412Y-51949868D01*
X60263469Y-51909500D01*
X60263465Y-51909500D01*
X60056535Y-51909500D01*
X60056530Y-51909500D01*
X59853587Y-51949868D01*
X59853579Y-51949870D01*
X59662403Y-52029058D01*
X59490342Y-52144024D01*
X59344024Y-52290342D01*
X59229058Y-52462403D01*
X59149870Y-52653579D01*
X59149868Y-52653587D01*
X59109500Y-52856530D01*
X59109500Y-53063469D01*
X59149868Y-53266412D01*
X59149870Y-53266420D01*
X59215939Y-53425925D01*
X59229059Y-53457598D01*
X59280220Y-53534167D01*
X59344024Y-53629657D01*
X59490342Y-53775975D01*
X59662405Y-53890943D01*
X59765043Y-53933456D01*
X59827108Y-53959164D01*
X59881511Y-54003005D01*
X59903576Y-54069299D01*
X59886297Y-54136998D01*
X59835160Y-54184609D01*
X59817974Y-54191656D01*
X59641781Y-54248905D01*
X59452442Y-54345379D01*
X59280540Y-54470272D01*
X59280535Y-54470276D01*
X59130276Y-54620535D01*
X59130272Y-54620540D01*
X59005379Y-54792442D01*
X58908905Y-54981781D01*
X58851656Y-55157974D01*
X58812218Y-55215649D01*
X58747859Y-55242847D01*
X58679013Y-55230932D01*
X58627537Y-55183688D01*
X58619164Y-55167107D01*
X58550943Y-55002405D01*
X58435975Y-54830342D01*
X58289657Y-54684024D01*
X58149627Y-54590460D01*
X58117598Y-54569059D01*
X58117593Y-54569057D01*
X57926420Y-54489870D01*
X57926412Y-54489868D01*
X57723469Y-54449500D01*
X57723465Y-54449500D01*
X57516535Y-54449500D01*
X57516530Y-54449500D01*
X57313587Y-54489868D01*
X57313579Y-54489870D01*
X57122403Y-54569058D01*
X56950342Y-54684024D01*
X56804024Y-54830342D01*
X56689058Y-55002403D01*
X56609870Y-55193579D01*
X56609868Y-55193587D01*
X56569500Y-55396530D01*
X56569500Y-55603469D01*
X56609868Y-55806412D01*
X56609871Y-55806424D01*
X56659803Y-55926971D01*
X56667272Y-55996440D01*
X56635997Y-56058919D01*
X56632923Y-56062104D01*
X55831848Y-56863181D01*
X55770525Y-56896666D01*
X55744167Y-56899500D01*
X50743453Y-56899500D01*
X50676414Y-56879815D01*
X50630659Y-56827011D01*
X50620715Y-56757853D01*
X50649740Y-56694297D01*
X50687159Y-56665015D01*
X50707555Y-56654622D01*
X50879459Y-56529727D01*
X50879464Y-56529723D01*
X51029723Y-56379464D01*
X51029727Y-56379459D01*
X51154620Y-56207557D01*
X51251095Y-56018217D01*
X51308343Y-55842026D01*
X51347780Y-55784351D01*
X51412139Y-55757152D01*
X51480985Y-55769066D01*
X51532461Y-55816310D01*
X51540835Y-55832891D01*
X51595939Y-55965925D01*
X51609059Y-55997598D01*
X51622836Y-56018217D01*
X51724024Y-56169657D01*
X51870342Y-56315975D01*
X51870345Y-56315977D01*
X52042402Y-56430941D01*
X52233580Y-56510130D01*
X52436530Y-56550499D01*
X52436534Y-56550500D01*
X52436535Y-56550500D01*
X52643466Y-56550500D01*
X52643467Y-56550499D01*
X52846420Y-56510130D01*
X53037598Y-56430941D01*
X53209655Y-56315977D01*
X53355977Y-56169655D01*
X53470941Y-55997598D01*
X53550130Y-55806420D01*
X53590500Y-55603465D01*
X53590500Y-55396535D01*
X53550130Y-55193580D01*
X53470941Y-55002402D01*
X53470940Y-55002400D01*
X53470940Y-55002399D01*
X53364694Y-54843390D01*
X53343816Y-54776713D01*
X53362301Y-54709333D01*
X53414280Y-54662643D01*
X53467796Y-54650500D01*
X53754167Y-54650500D01*
X53821206Y-54670185D01*
X53841848Y-54686819D01*
X54092924Y-54937895D01*
X54126409Y-54999218D01*
X54121425Y-55068910D01*
X54119804Y-55073029D01*
X54069870Y-55193579D01*
X54069868Y-55193587D01*
X54029500Y-55396530D01*
X54029500Y-55603469D01*
X54069868Y-55806412D01*
X54069870Y-55806420D01*
X54136349Y-55966915D01*
X54149059Y-55997598D01*
X54162836Y-56018217D01*
X54264024Y-56169657D01*
X54410342Y-56315975D01*
X54410345Y-56315977D01*
X54582402Y-56430941D01*
X54773580Y-56510130D01*
X54976530Y-56550499D01*
X54976534Y-56550500D01*
X54976535Y-56550500D01*
X55183466Y-56550500D01*
X55183467Y-56550499D01*
X55386420Y-56510130D01*
X55577598Y-56430941D01*
X55749655Y-56315977D01*
X55895977Y-56169655D01*
X56010941Y-55997598D01*
X56090130Y-55806420D01*
X56130500Y-55603465D01*
X56130500Y-55396535D01*
X56090130Y-55193580D01*
X56010941Y-55002402D01*
X55895977Y-54830345D01*
X55895976Y-54830344D01*
X55895975Y-54830342D01*
X55749657Y-54684024D01*
X55609627Y-54590460D01*
X55577598Y-54569059D01*
X55577593Y-54569057D01*
X55455017Y-54518284D01*
X55412890Y-54500834D01*
X55358488Y-54456994D01*
X55336423Y-54390700D01*
X55353702Y-54323001D01*
X55404839Y-54275390D01*
X55422026Y-54268343D01*
X55598217Y-54211095D01*
X55787557Y-54114620D01*
X55959459Y-53989727D01*
X55959464Y-53989723D01*
X56109723Y-53839464D01*
X56109727Y-53839459D01*
X56234620Y-53667557D01*
X56331095Y-53478217D01*
X56388343Y-53302026D01*
X56427780Y-53244351D01*
X56492139Y-53217152D01*
X56560985Y-53229066D01*
X56612461Y-53276310D01*
X56620835Y-53292891D01*
X56675939Y-53425925D01*
X56689059Y-53457598D01*
X56740220Y-53534167D01*
X56804024Y-53629657D01*
X56950342Y-53775975D01*
X56950345Y-53775977D01*
X57122402Y-53890941D01*
X57313580Y-53970130D01*
X57506681Y-54008540D01*
X57516530Y-54010499D01*
X57516534Y-54010500D01*
X57516535Y-54010500D01*
X57723466Y-54010500D01*
X57723467Y-54010499D01*
X57926420Y-53970130D01*
X58117598Y-53890941D01*
X58289655Y-53775977D01*
X58435977Y-53629655D01*
X58550941Y-53457598D01*
X58630130Y-53266420D01*
X58670500Y-53063465D01*
X58670500Y-52856535D01*
X58630130Y-52653580D01*
X58550941Y-52462402D01*
X58435977Y-52290345D01*
X58435975Y-52290342D01*
X58289657Y-52144024D01*
X58121655Y-52031770D01*
X58117598Y-52029059D01*
X58117593Y-52029057D01*
X57926420Y-51949870D01*
X57926412Y-51949868D01*
X57723469Y-51909500D01*
X57723465Y-51909500D01*
X57516535Y-51909500D01*
X57516530Y-51909500D01*
X57313587Y-51949868D01*
X57313579Y-51949870D01*
X57122403Y-52029058D01*
X56950342Y-52144024D01*
X56804024Y-52290342D01*
X56689057Y-52462403D01*
X56620835Y-52627108D01*
X56576994Y-52681511D01*
X56510700Y-52703576D01*
X56443000Y-52686297D01*
X56395390Y-52635159D01*
X56388343Y-52617973D01*
X56331095Y-52441782D01*
X56234620Y-52252442D01*
X56109727Y-52080540D01*
X56109723Y-52080535D01*
X55959464Y-51930276D01*
X55959459Y-51930272D01*
X55787557Y-51805379D01*
X55598215Y-51708903D01*
X55396124Y-51643241D01*
X55330000Y-51632768D01*
X55330000Y-52526988D01*
X55272993Y-52494075D01*
X55145826Y-52460000D01*
X55014174Y-52460000D01*
X54887007Y-52494075D01*
X54830000Y-52526988D01*
X54830000Y-51632768D01*
X54829999Y-51632768D01*
X54763875Y-51643241D01*
X54561784Y-51708903D01*
X54372442Y-51805379D01*
X54200540Y-51930272D01*
X54200535Y-51930276D01*
X54050276Y-52080535D01*
X54050272Y-52080540D01*
X53925379Y-52252442D01*
X53828905Y-52441781D01*
X53771656Y-52617974D01*
X53732218Y-52675649D01*
X53667859Y-52702847D01*
X53599013Y-52690932D01*
X53547537Y-52643688D01*
X53539164Y-52627107D01*
X53470943Y-52462405D01*
X53355975Y-52290342D01*
X53209657Y-52144024D01*
X53041655Y-52031770D01*
X53037598Y-52029059D01*
X53037593Y-52029057D01*
X52846420Y-51949870D01*
X52846412Y-51949868D01*
X52643469Y-51909500D01*
X52643465Y-51909500D01*
X52436535Y-51909500D01*
X52436530Y-51909500D01*
X52233587Y-51949868D01*
X52233579Y-51949870D01*
X52042403Y-52029058D01*
X51870342Y-52144024D01*
X51724024Y-52290342D01*
X51609058Y-52462403D01*
X51529870Y-52653579D01*
X51529868Y-52653587D01*
X51489500Y-52856530D01*
X51489500Y-53063469D01*
X51529868Y-53266412D01*
X51529870Y-53266420D01*
X51595939Y-53425925D01*
X51609059Y-53457598D01*
X51660220Y-53534167D01*
X51724024Y-53629657D01*
X51870341Y-53775974D01*
X51870349Y-53775980D01*
X51939818Y-53822398D01*
X51984624Y-53876010D01*
X51993331Y-53945335D01*
X51963177Y-54008362D01*
X51903734Y-54045082D01*
X51870928Y-54049500D01*
X51315595Y-54049500D01*
X51248556Y-54029815D01*
X51227914Y-54013181D01*
X51222117Y-54007384D01*
X51222115Y-54007382D01*
X51208463Y-53999500D01*
X51157594Y-53970131D01*
X51153595Y-53967822D01*
X51153594Y-53967821D01*
X51104073Y-53954552D01*
X51077166Y-53947342D01*
X50797653Y-53947342D01*
X50730614Y-53927657D01*
X50684859Y-53874853D01*
X50674915Y-53805695D01*
X50703940Y-53742139D01*
X50709972Y-53735661D01*
X50815974Y-53629658D01*
X50815975Y-53629657D01*
X50815977Y-53629655D01*
X50930941Y-53457598D01*
X51010130Y-53266420D01*
X51050500Y-53063465D01*
X51050500Y-52856535D01*
X51010130Y-52653580D01*
X50930941Y-52462402D01*
X50815977Y-52290345D01*
X50815975Y-52290342D01*
X50669657Y-52144024D01*
X50501655Y-52031770D01*
X50497598Y-52029059D01*
X50497593Y-52029057D01*
X50306420Y-51949870D01*
X50306412Y-51949868D01*
X50103469Y-51909500D01*
X50103465Y-51909500D01*
X49896535Y-51909500D01*
X49896530Y-51909500D01*
X49693587Y-51949868D01*
X49693579Y-51949870D01*
X49502403Y-52029058D01*
X49330342Y-52144024D01*
X49184024Y-52290342D01*
X49069058Y-52462403D01*
X48989870Y-52653579D01*
X48989868Y-52653587D01*
X48949500Y-52856530D01*
X48949500Y-53063469D01*
X48989868Y-53266412D01*
X48989870Y-53266420D01*
X49055939Y-53425925D01*
X49069059Y-53457598D01*
X49120220Y-53534167D01*
X49184024Y-53629657D01*
X49330341Y-53775974D01*
X49330349Y-53775980D01*
X49399818Y-53822398D01*
X49444624Y-53876010D01*
X49453331Y-53945335D01*
X49423177Y-54008362D01*
X49363734Y-54045082D01*
X49330928Y-54049500D01*
X48129072Y-54049500D01*
X48062033Y-54029815D01*
X48016278Y-53977011D01*
X48006334Y-53907853D01*
X48035359Y-53844297D01*
X48060182Y-53822398D01*
X48111353Y-53788205D01*
X48129655Y-53775977D01*
X48275977Y-53629655D01*
X48390941Y-53457598D01*
X48470130Y-53266420D01*
X48510500Y-53063465D01*
X48510500Y-52856535D01*
X48470130Y-52653580D01*
X48390941Y-52462402D01*
X48275977Y-52290345D01*
X48275975Y-52290342D01*
X48129657Y-52144024D01*
X47961655Y-52031770D01*
X47957598Y-52029059D01*
X47957593Y-52029057D01*
X47766420Y-51949870D01*
X47766412Y-51949868D01*
X47563469Y-51909500D01*
X47563465Y-51909500D01*
X47356535Y-51909500D01*
X47356530Y-51909500D01*
X47153587Y-51949868D01*
X47153579Y-51949870D01*
X46962403Y-52029058D01*
X46790342Y-52144024D01*
X46644024Y-52290342D01*
X46529058Y-52462403D01*
X46449870Y-52653579D01*
X46449868Y-52653587D01*
X46409500Y-52856530D01*
X46409500Y-53063469D01*
X46449868Y-53266412D01*
X46449870Y-53266420D01*
X46515939Y-53425925D01*
X46529059Y-53457598D01*
X46580220Y-53534167D01*
X46644024Y-53629657D01*
X46790341Y-53775974D01*
X46790349Y-53775980D01*
X46859818Y-53822398D01*
X46904624Y-53876010D01*
X46913331Y-53945335D01*
X46883177Y-54008362D01*
X46823734Y-54045082D01*
X46790928Y-54049500D01*
X45589072Y-54049500D01*
X45522033Y-54029815D01*
X45476278Y-53977011D01*
X45466334Y-53907853D01*
X45495359Y-53844297D01*
X45520182Y-53822398D01*
X45571353Y-53788205D01*
X45589655Y-53775977D01*
X45735977Y-53629655D01*
X45850941Y-53457598D01*
X45930130Y-53266420D01*
X45970500Y-53063465D01*
X45970500Y-52856535D01*
X45930130Y-52653580D01*
X45880194Y-52533026D01*
X45872726Y-52463559D01*
X45904001Y-52401080D01*
X45907046Y-52397923D01*
X47068152Y-51236819D01*
X47129475Y-51203334D01*
X47155833Y-51200500D01*
X63004167Y-51200500D01*
X63071206Y-51220185D01*
G37*
%TD.AperFunction*%
%TA.AperFunction,Conductor*%
G36*
X16877279Y-48576458D02*
G01*
X16944301Y-48596189D01*
X16990018Y-48649026D01*
X16999912Y-48718191D01*
X16970842Y-48781726D01*
X16912037Y-48819459D01*
X16901384Y-48822073D01*
X16889257Y-48824485D01*
X16889248Y-48824488D01*
X16714087Y-48897042D01*
X16556441Y-49002377D01*
X16422377Y-49136441D01*
X16317042Y-49294087D01*
X16244488Y-49469248D01*
X16244486Y-49469256D01*
X16207500Y-49655197D01*
X16207500Y-49844802D01*
X16244486Y-50030743D01*
X16244488Y-50030751D01*
X16317042Y-50205912D01*
X16422377Y-50363558D01*
X16556441Y-50497622D01*
X16627363Y-50545010D01*
X16714085Y-50602956D01*
X16889249Y-50675512D01*
X17075197Y-50712499D01*
X17075201Y-50712500D01*
X17075202Y-50712500D01*
X17264799Y-50712500D01*
X17264800Y-50712499D01*
X17450751Y-50675512D01*
X17529619Y-50642842D01*
X17549495Y-50640705D01*
X17568225Y-50633720D01*
X17583521Y-50637047D01*
X17599086Y-50635374D01*
X17616963Y-50644322D01*
X17636498Y-50648572D01*
X17658784Y-50665255D01*
X17661566Y-50666648D01*
X17664752Y-50669723D01*
X17744181Y-50749152D01*
X17777666Y-50810475D01*
X17780500Y-50836833D01*
X17780500Y-51650385D01*
X17760815Y-51717424D01*
X17708011Y-51763179D01*
X17638853Y-51773123D01*
X17600205Y-51760870D01*
X17498214Y-51708903D01*
X17498216Y-51708903D01*
X17296124Y-51643241D01*
X17230000Y-51632768D01*
X17230000Y-52526988D01*
X17172993Y-52494075D01*
X17045826Y-52460000D01*
X16914174Y-52460000D01*
X16787007Y-52494075D01*
X16730000Y-52526988D01*
X16730000Y-51632768D01*
X16729999Y-51632768D01*
X16663875Y-51643241D01*
X16461784Y-51708903D01*
X16272442Y-51805379D01*
X16100540Y-51930272D01*
X16100535Y-51930276D01*
X15950276Y-52080535D01*
X15950272Y-52080540D01*
X15825379Y-52252442D01*
X15728904Y-52441782D01*
X15663242Y-52643870D01*
X15663242Y-52643873D01*
X15652769Y-52710000D01*
X16546988Y-52710000D01*
X16514075Y-52767007D01*
X16480000Y-52894174D01*
X16480000Y-53025826D01*
X16514075Y-53152993D01*
X16546988Y-53210000D01*
X15652769Y-53210000D01*
X15663242Y-53276126D01*
X15663242Y-53276129D01*
X15728904Y-53478217D01*
X15825379Y-53667557D01*
X15950272Y-53839459D01*
X15950276Y-53839464D01*
X16100535Y-53989723D01*
X16100540Y-53989727D01*
X16272442Y-54114620D01*
X16461782Y-54211095D01*
X16637973Y-54268343D01*
X16695648Y-54307780D01*
X16722847Y-54372139D01*
X16710932Y-54440985D01*
X16663688Y-54492461D01*
X16647108Y-54500835D01*
X16482403Y-54569057D01*
X16310342Y-54684024D01*
X16164024Y-54830342D01*
X16049058Y-55002403D01*
X15969870Y-55193579D01*
X15969868Y-55193587D01*
X15929500Y-55396530D01*
X15929500Y-55603469D01*
X15969868Y-55806412D01*
X15969870Y-55806420D01*
X16041361Y-55979014D01*
X16048830Y-56048484D01*
X16017555Y-56110963D01*
X15957466Y-56146615D01*
X15887641Y-56144121D01*
X15839119Y-56114148D01*
X15361819Y-55636848D01*
X15328334Y-55575525D01*
X15325500Y-55549167D01*
X15325500Y-51715439D01*
X15313594Y-51671005D01*
X15305021Y-51639011D01*
X15289322Y-51611819D01*
X15265464Y-51570495D01*
X15265458Y-51570487D01*
X14966819Y-51271848D01*
X14933334Y-51210525D01*
X14930500Y-51184167D01*
X14930500Y-50750185D01*
X14950185Y-50683146D01*
X15002989Y-50637391D01*
X15007048Y-50635624D01*
X15085908Y-50602959D01*
X15085908Y-50602958D01*
X15085915Y-50602956D01*
X15243558Y-50497622D01*
X15377622Y-50363558D01*
X15482956Y-50205915D01*
X15555512Y-50030751D01*
X15592500Y-49844798D01*
X15592500Y-49655202D01*
X15555512Y-49469249D01*
X15482956Y-49294085D01*
X15447686Y-49241300D01*
X15377622Y-49136441D01*
X15243558Y-49002377D01*
X15085912Y-48897042D01*
X14910751Y-48824488D01*
X14910749Y-48824487D01*
X14891604Y-48820679D01*
X14829694Y-48788292D01*
X14795122Y-48727575D01*
X14798863Y-48657806D01*
X14839731Y-48601135D01*
X14904750Y-48575555D01*
X14915855Y-48575063D01*
X16877279Y-48576458D01*
G37*
%TD.AperFunction*%
%TA.AperFunction,Conductor*%
G36*
X23317992Y-54651275D02*
G01*
X23320663Y-54650614D01*
X23351318Y-54661061D01*
X23382391Y-54670185D01*
X23384192Y-54672264D01*
X23386798Y-54673152D01*
X23406944Y-54698521D01*
X23428146Y-54722989D01*
X23428537Y-54725711D01*
X23430249Y-54727867D01*
X23433480Y-54760087D01*
X23438090Y-54792147D01*
X23437030Y-54795488D01*
X23437221Y-54797388D01*
X23425837Y-54830795D01*
X23348905Y-54981781D01*
X23291656Y-55157974D01*
X23252218Y-55215649D01*
X23187859Y-55242847D01*
X23119013Y-55230932D01*
X23067537Y-55183688D01*
X23059164Y-55167107D01*
X22990942Y-55002403D01*
X22990940Y-55002399D01*
X22884694Y-54843390D01*
X22863816Y-54776713D01*
X22882301Y-54709333D01*
X22934280Y-54662643D01*
X22987796Y-54650500D01*
X23315352Y-54650500D01*
X23317992Y-54651275D01*
G37*
%TD.AperFunction*%
%TA.AperFunction,Conductor*%
G36*
X14346329Y-48574658D02*
G01*
X14413351Y-48594389D01*
X14459068Y-48647226D01*
X14468962Y-48716391D01*
X14439892Y-48779926D01*
X14381087Y-48817659D01*
X14370431Y-48820274D01*
X14349252Y-48824487D01*
X14349248Y-48824488D01*
X14174087Y-48897042D01*
X14016441Y-49002377D01*
X13882377Y-49136441D01*
X13777042Y-49294087D01*
X13704488Y-49469248D01*
X13704486Y-49469256D01*
X13667500Y-49655197D01*
X13667500Y-49844802D01*
X13704486Y-50030743D01*
X13704488Y-50030751D01*
X13777042Y-50205912D01*
X13882377Y-50363558D01*
X14016438Y-50497619D01*
X14016442Y-50497622D01*
X14174078Y-50602952D01*
X14174091Y-50602959D01*
X14252952Y-50635624D01*
X14307356Y-50679465D01*
X14329421Y-50745759D01*
X14329500Y-50750185D01*
X14329500Y-51399562D01*
X14340212Y-51439540D01*
X14349979Y-51475990D01*
X14349982Y-51475995D01*
X14389535Y-51544504D01*
X14389541Y-51544512D01*
X14688181Y-51843152D01*
X14721666Y-51904475D01*
X14724500Y-51930833D01*
X14724500Y-54144686D01*
X14704815Y-54211725D01*
X14652011Y-54257480D01*
X14582853Y-54267424D01*
X14519297Y-54238399D01*
X14493113Y-54206685D01*
X14480474Y-54184794D01*
X14480468Y-54184786D01*
X11363321Y-51067639D01*
X11329836Y-51006316D01*
X11334820Y-50936624D01*
X11376692Y-50880691D01*
X11442156Y-50856274D01*
X11507297Y-50869473D01*
X11605562Y-50919542D01*
X11794477Y-50980924D01*
X11990679Y-51012000D01*
X12189321Y-51012000D01*
X12385520Y-50980924D01*
X12385523Y-50980924D01*
X12574437Y-50919542D01*
X12751425Y-50829362D01*
X12788715Y-50802268D01*
X12219408Y-50232962D01*
X12282993Y-50215925D01*
X12397007Y-50150099D01*
X12490099Y-50057007D01*
X12555925Y-49942993D01*
X12572962Y-49879409D01*
X13142268Y-50448715D01*
X13169362Y-50411425D01*
X13259542Y-50234437D01*
X13320924Y-50045523D01*
X13320924Y-50045520D01*
X13352000Y-49849321D01*
X13352000Y-49650678D01*
X13320924Y-49454479D01*
X13320924Y-49454476D01*
X13259542Y-49265562D01*
X13169358Y-49088567D01*
X13142268Y-49051283D01*
X12572962Y-49620589D01*
X12555925Y-49557007D01*
X12490099Y-49442993D01*
X12397007Y-49349901D01*
X12282993Y-49284075D01*
X12219409Y-49267037D01*
X12792238Y-48694208D01*
X12803838Y-48638990D01*
X12852889Y-48589233D01*
X12913175Y-48573639D01*
X14346329Y-48574658D01*
G37*
%TD.AperFunction*%
%TA.AperFunction,Conductor*%
G36*
X24473235Y-48581860D02*
G01*
X24540259Y-48601592D01*
X24585976Y-48654429D01*
X24595870Y-48723594D01*
X24566800Y-48787129D01*
X24514435Y-48821090D01*
X24514877Y-48822157D01*
X24509249Y-48824487D01*
X24509249Y-48824488D01*
X24500500Y-48828112D01*
X24334087Y-48897042D01*
X24176441Y-49002377D01*
X24042377Y-49136441D01*
X23937042Y-49294087D01*
X23864488Y-49469248D01*
X23864486Y-49469256D01*
X23827500Y-49655197D01*
X23827500Y-49844802D01*
X23864486Y-50030743D01*
X23864488Y-50030751D01*
X23937042Y-50205912D01*
X24042377Y-50363558D01*
X24176441Y-50497622D01*
X24247363Y-50545010D01*
X24334085Y-50602956D01*
X24509249Y-50675512D01*
X24695197Y-50712499D01*
X24695201Y-50712500D01*
X24695202Y-50712500D01*
X24884799Y-50712500D01*
X24884800Y-50712499D01*
X25070751Y-50675512D01*
X25245915Y-50602956D01*
X25403558Y-50497622D01*
X25537622Y-50363558D01*
X25642956Y-50205915D01*
X25715512Y-50030751D01*
X25752500Y-49844798D01*
X25752500Y-49655202D01*
X25715512Y-49469249D01*
X25642956Y-49294085D01*
X25607686Y-49241300D01*
X25537622Y-49136441D01*
X25403558Y-49002377D01*
X25245912Y-48897042D01*
X25079500Y-48828112D01*
X25070751Y-48824488D01*
X25070750Y-48824487D01*
X25065123Y-48822157D01*
X25065748Y-48820647D01*
X25013910Y-48786676D01*
X24985453Y-48722865D01*
X24996012Y-48653798D01*
X25042236Y-48601403D01*
X25108429Y-48582312D01*
X27007354Y-48583662D01*
X27074377Y-48603394D01*
X27120094Y-48656231D01*
X27129988Y-48725396D01*
X27100918Y-48788931D01*
X27054716Y-48822223D01*
X26874087Y-48897042D01*
X26716441Y-49002377D01*
X26582377Y-49136441D01*
X26477042Y-49294087D01*
X26404488Y-49469248D01*
X26404486Y-49469256D01*
X26367500Y-49655197D01*
X26367500Y-49844802D01*
X26404486Y-50030743D01*
X26404488Y-50030751D01*
X26477042Y-50205912D01*
X26582377Y-50363558D01*
X26716441Y-50497622D01*
X26787363Y-50545010D01*
X26874085Y-50602956D01*
X27049249Y-50675512D01*
X27235197Y-50712499D01*
X27235201Y-50712500D01*
X27235202Y-50712500D01*
X27424799Y-50712500D01*
X27424800Y-50712499D01*
X27610751Y-50675512D01*
X27785915Y-50602956D01*
X27943558Y-50497622D01*
X28077622Y-50363558D01*
X28182956Y-50205915D01*
X28255512Y-50030751D01*
X28292500Y-49844798D01*
X28292500Y-49655202D01*
X28255512Y-49469249D01*
X28182956Y-49294085D01*
X28147686Y-49241300D01*
X28077622Y-49136441D01*
X27943558Y-49002377D01*
X27785912Y-48897042D01*
X27606394Y-48822683D01*
X27551991Y-48778842D01*
X27529926Y-48712547D01*
X27547205Y-48644848D01*
X27598343Y-48597238D01*
X27653931Y-48584122D01*
X29542997Y-48585466D01*
X29610023Y-48605198D01*
X29655740Y-48658035D01*
X29665634Y-48727200D01*
X29636564Y-48790735D01*
X29590362Y-48824027D01*
X29589249Y-48824487D01*
X29589249Y-48824488D01*
X29589189Y-48824513D01*
X29414087Y-48897042D01*
X29256441Y-49002377D01*
X29122377Y-49136441D01*
X29017042Y-49294087D01*
X28944488Y-49469248D01*
X28944486Y-49469256D01*
X28907500Y-49655197D01*
X28907500Y-49844802D01*
X28944486Y-50030743D01*
X28944488Y-50030751D01*
X29017042Y-50205912D01*
X29122377Y-50363558D01*
X29256441Y-50497622D01*
X29327363Y-50545010D01*
X29414085Y-50602956D01*
X29589249Y-50675512D01*
X29775197Y-50712499D01*
X29775201Y-50712500D01*
X29775202Y-50712500D01*
X29964799Y-50712500D01*
X29964800Y-50712499D01*
X30150751Y-50675512D01*
X30325915Y-50602956D01*
X30483558Y-50497622D01*
X30617622Y-50363558D01*
X30722956Y-50205915D01*
X30795512Y-50030751D01*
X30832500Y-49844798D01*
X30832500Y-49655202D01*
X30795512Y-49469249D01*
X30722956Y-49294085D01*
X30687686Y-49241300D01*
X30617622Y-49136441D01*
X30483558Y-49002377D01*
X30325912Y-48897042D01*
X30215458Y-48851291D01*
X30150760Y-48824492D01*
X30096359Y-48780652D01*
X30074294Y-48714358D01*
X30091573Y-48646658D01*
X30142710Y-48599048D01*
X30198301Y-48585932D01*
X32078645Y-48587269D01*
X32145669Y-48607001D01*
X32191386Y-48659838D01*
X32201280Y-48729003D01*
X32172210Y-48792538D01*
X32126008Y-48825830D01*
X31954087Y-48897042D01*
X31796441Y-49002377D01*
X31662377Y-49136441D01*
X31557042Y-49294087D01*
X31484488Y-49469248D01*
X31484486Y-49469256D01*
X31447500Y-49655197D01*
X31447500Y-49844802D01*
X31484486Y-50030743D01*
X31484488Y-50030751D01*
X31557042Y-50205912D01*
X31662377Y-50363558D01*
X31796441Y-50497622D01*
X31867363Y-50545010D01*
X31954085Y-50602956D01*
X32129249Y-50675512D01*
X32315197Y-50712499D01*
X32315201Y-50712500D01*
X32315202Y-50712500D01*
X32504799Y-50712500D01*
X32504800Y-50712499D01*
X32690751Y-50675512D01*
X32865915Y-50602956D01*
X33023558Y-50497622D01*
X33157622Y-50363558D01*
X33262956Y-50205915D01*
X33335512Y-50030751D01*
X33372500Y-49844798D01*
X33372500Y-49655202D01*
X33335512Y-49469249D01*
X33262956Y-49294085D01*
X33227686Y-49241300D01*
X33157622Y-49136441D01*
X33023558Y-49002377D01*
X32865912Y-48897042D01*
X32695131Y-48826302D01*
X32640728Y-48782461D01*
X32618663Y-48716166D01*
X32635942Y-48648467D01*
X32687080Y-48600857D01*
X32742668Y-48587741D01*
X34614292Y-48589072D01*
X34681315Y-48608804D01*
X34727032Y-48661641D01*
X34736926Y-48730806D01*
X34707856Y-48794341D01*
X34661655Y-48827633D01*
X34494085Y-48897043D01*
X34336441Y-49002377D01*
X34202377Y-49136441D01*
X34097042Y-49294087D01*
X34024488Y-49469248D01*
X34024486Y-49469256D01*
X33987500Y-49655197D01*
X33987500Y-49844802D01*
X34024486Y-50030743D01*
X34024488Y-50030751D01*
X34097042Y-50205912D01*
X34202377Y-50363558D01*
X34336441Y-50497622D01*
X34407363Y-50545010D01*
X34494085Y-50602956D01*
X34669249Y-50675512D01*
X34855197Y-50712499D01*
X34855201Y-50712500D01*
X34855202Y-50712500D01*
X35044799Y-50712500D01*
X35044799Y-50712499D01*
X35190300Y-50683558D01*
X35259891Y-50689785D01*
X35315069Y-50732648D01*
X35338313Y-50798538D01*
X35322245Y-50866535D01*
X35302173Y-50892855D01*
X35256849Y-50938180D01*
X35195526Y-50971666D01*
X35169167Y-50974500D01*
X26245438Y-50974500D01*
X26207224Y-50984739D01*
X26169009Y-50994979D01*
X26169004Y-50994982D01*
X26100495Y-51034535D01*
X26100487Y-51034541D01*
X25162104Y-51972923D01*
X25100781Y-52006408D01*
X25031089Y-52001424D01*
X25026971Y-51999803D01*
X24906424Y-51949871D01*
X24906412Y-51949868D01*
X24703469Y-51909500D01*
X24703465Y-51909500D01*
X24496535Y-51909500D01*
X24496530Y-51909500D01*
X24293587Y-51949868D01*
X24293579Y-51949870D01*
X24102403Y-52029058D01*
X23930342Y-52144024D01*
X23784024Y-52290342D01*
X23669058Y-52462403D01*
X23589870Y-52653579D01*
X23589868Y-52653587D01*
X23549500Y-52856530D01*
X23549500Y-53063469D01*
X23589868Y-53266412D01*
X23589870Y-53266420D01*
X23655939Y-53425925D01*
X23669059Y-53457598D01*
X23720220Y-53534167D01*
X23784024Y-53629657D01*
X23930341Y-53775974D01*
X23930349Y-53775980D01*
X23999818Y-53822398D01*
X24044624Y-53876010D01*
X24053331Y-53945335D01*
X24023177Y-54008362D01*
X23963734Y-54045082D01*
X23930928Y-54049500D01*
X22729072Y-54049500D01*
X22662033Y-54029815D01*
X22616278Y-53977011D01*
X22606334Y-53907853D01*
X22635359Y-53844297D01*
X22660182Y-53822398D01*
X22711353Y-53788205D01*
X22729655Y-53775977D01*
X22875977Y-53629655D01*
X22990941Y-53457598D01*
X23070130Y-53266420D01*
X23110500Y-53063465D01*
X23110500Y-52856535D01*
X23070130Y-52653580D01*
X22990941Y-52462402D01*
X22875977Y-52290345D01*
X22875975Y-52290342D01*
X22729657Y-52144024D01*
X22557595Y-52029057D01*
X22437047Y-51979124D01*
X22421482Y-51966580D01*
X22403297Y-51958276D01*
X22394832Y-51945105D01*
X22382643Y-51935282D01*
X22376330Y-51916314D01*
X22365523Y-51899498D01*
X22361560Y-51871935D01*
X22360579Y-51868988D01*
X22360500Y-51864563D01*
X22360500Y-51855833D01*
X22380185Y-51788794D01*
X22396819Y-51768152D01*
X22658152Y-51506819D01*
X22719475Y-51473334D01*
X22745833Y-51470500D01*
X23442036Y-51470500D01*
X23509075Y-51490185D01*
X23529717Y-51506819D01*
X23553387Y-51530489D01*
X23656114Y-51589799D01*
X23770691Y-51620500D01*
X23770694Y-51620500D01*
X23889306Y-51620500D01*
X23889309Y-51620500D01*
X24003886Y-51589799D01*
X24106613Y-51530489D01*
X24190489Y-51446613D01*
X24249799Y-51343886D01*
X24280500Y-51229309D01*
X24280500Y-51110691D01*
X24249799Y-50996114D01*
X24190489Y-50893387D01*
X24106613Y-50809511D01*
X24003886Y-50750201D01*
X23889309Y-50719500D01*
X23770691Y-50719500D01*
X23656114Y-50750201D01*
X23656112Y-50750201D01*
X23656112Y-50750202D01*
X23553387Y-50809511D01*
X23553384Y-50809513D01*
X23529717Y-50833181D01*
X23468394Y-50866666D01*
X23442036Y-50869500D01*
X22685812Y-50869500D01*
X22618773Y-50849815D01*
X22573018Y-50797011D01*
X22563074Y-50727853D01*
X22592099Y-50664297D01*
X22638359Y-50630939D01*
X22686167Y-50611136D01*
X22705915Y-50602956D01*
X22863558Y-50497622D01*
X22997622Y-50363558D01*
X23102956Y-50205915D01*
X23175512Y-50030751D01*
X23212500Y-49844798D01*
X23212500Y-49655202D01*
X23175512Y-49469249D01*
X23102956Y-49294085D01*
X23067686Y-49241300D01*
X22997622Y-49136441D01*
X22863558Y-49002377D01*
X22705912Y-48897042D01*
X22530751Y-48824488D01*
X22526376Y-48823161D01*
X22467938Y-48784862D01*
X22439483Y-48721049D01*
X22450045Y-48651982D01*
X22496271Y-48599590D01*
X22562459Y-48580501D01*
X24473235Y-48581860D01*
G37*
%TD.AperFunction*%
%TA.AperFunction,Conductor*%
G36*
X34054939Y-51595185D02*
G01*
X34100694Y-51647989D01*
X34110638Y-51717147D01*
X34081613Y-51780703D01*
X34056197Y-51802252D01*
X34056387Y-51802513D01*
X34052914Y-51805035D01*
X34052688Y-51805228D01*
X34052445Y-51805376D01*
X33880540Y-51930272D01*
X33880535Y-51930276D01*
X33730276Y-52080535D01*
X33730272Y-52080540D01*
X33605379Y-52252442D01*
X33508905Y-52441781D01*
X33451656Y-52617974D01*
X33412218Y-52675649D01*
X33347859Y-52702847D01*
X33279013Y-52690932D01*
X33227537Y-52643688D01*
X33219164Y-52627107D01*
X33150943Y-52462405D01*
X33035975Y-52290342D01*
X32889657Y-52144024D01*
X32721655Y-52031770D01*
X32717598Y-52029059D01*
X32717593Y-52029057D01*
X32526420Y-51949870D01*
X32526412Y-51949868D01*
X32323469Y-51909500D01*
X32323465Y-51909500D01*
X32116535Y-51909500D01*
X32116530Y-51909500D01*
X31913587Y-51949868D01*
X31913579Y-51949870D01*
X31722403Y-52029058D01*
X31550342Y-52144024D01*
X31404024Y-52290342D01*
X31289058Y-52462403D01*
X31209870Y-52653579D01*
X31209868Y-52653587D01*
X31169500Y-52856530D01*
X31169500Y-53063469D01*
X31209868Y-53266412D01*
X31209870Y-53266420D01*
X31275939Y-53425925D01*
X31289059Y-53457598D01*
X31340220Y-53534167D01*
X31404024Y-53629657D01*
X31550341Y-53775974D01*
X31550349Y-53775980D01*
X31619818Y-53822398D01*
X31664624Y-53876010D01*
X31673331Y-53945335D01*
X31643177Y-54008362D01*
X31583734Y-54045082D01*
X31550928Y-54049500D01*
X30349072Y-54049500D01*
X30282033Y-54029815D01*
X30236278Y-53977011D01*
X30226334Y-53907853D01*
X30255359Y-53844297D01*
X30280182Y-53822398D01*
X30331353Y-53788205D01*
X30349655Y-53775977D01*
X30495977Y-53629655D01*
X30610941Y-53457598D01*
X30690130Y-53266420D01*
X30730500Y-53063465D01*
X30730500Y-52856535D01*
X30690130Y-52653580D01*
X30610941Y-52462402D01*
X30495977Y-52290345D01*
X30495975Y-52290342D01*
X30349657Y-52144024D01*
X30181655Y-52031770D01*
X30177598Y-52029059D01*
X30177593Y-52029057D01*
X29986420Y-51949870D01*
X29986412Y-51949868D01*
X29783469Y-51909500D01*
X29783465Y-51909500D01*
X29576535Y-51909500D01*
X29576530Y-51909500D01*
X29373587Y-51949868D01*
X29373579Y-51949870D01*
X29182403Y-52029058D01*
X29010342Y-52144024D01*
X28864024Y-52290342D01*
X28749058Y-52462403D01*
X28669870Y-52653579D01*
X28669868Y-52653587D01*
X28629500Y-52856530D01*
X28629500Y-53063469D01*
X28669868Y-53266412D01*
X28669870Y-53266420D01*
X28735939Y-53425925D01*
X28749059Y-53457598D01*
X28800220Y-53534167D01*
X28864024Y-53629657D01*
X29010341Y-53775974D01*
X29010349Y-53775980D01*
X29079818Y-53822398D01*
X29124624Y-53876010D01*
X29133331Y-53945335D01*
X29103177Y-54008362D01*
X29043734Y-54045082D01*
X29010928Y-54049500D01*
X27809072Y-54049500D01*
X27742033Y-54029815D01*
X27696278Y-53977011D01*
X27686334Y-53907853D01*
X27715359Y-53844297D01*
X27740182Y-53822398D01*
X27791353Y-53788205D01*
X27809655Y-53775977D01*
X27955977Y-53629655D01*
X28070941Y-53457598D01*
X28150130Y-53266420D01*
X28190500Y-53063465D01*
X28190500Y-52856535D01*
X28150130Y-52653580D01*
X28070941Y-52462402D01*
X27955977Y-52290345D01*
X27955975Y-52290342D01*
X27809657Y-52144024D01*
X27641655Y-52031770D01*
X27637598Y-52029059D01*
X27637593Y-52029057D01*
X27446420Y-51949870D01*
X27446412Y-51949868D01*
X27243469Y-51909500D01*
X27243465Y-51909500D01*
X27036535Y-51909500D01*
X27036530Y-51909500D01*
X26833587Y-51949868D01*
X26833579Y-51949870D01*
X26642403Y-52029058D01*
X26470342Y-52144024D01*
X26324024Y-52290342D01*
X26209058Y-52462403D01*
X26129870Y-52653579D01*
X26129868Y-52653587D01*
X26089500Y-52856530D01*
X26089500Y-53063469D01*
X26129868Y-53266412D01*
X26129870Y-53266420D01*
X26195939Y-53425925D01*
X26209059Y-53457598D01*
X26260220Y-53534167D01*
X26324024Y-53629657D01*
X26470341Y-53775974D01*
X26470349Y-53775980D01*
X26539818Y-53822398D01*
X26584624Y-53876010D01*
X26593331Y-53945335D01*
X26563177Y-54008362D01*
X26503734Y-54045082D01*
X26470928Y-54049500D01*
X25269072Y-54049500D01*
X25202033Y-54029815D01*
X25156278Y-53977011D01*
X25146334Y-53907853D01*
X25175359Y-53844297D01*
X25200182Y-53822398D01*
X25251353Y-53788205D01*
X25269655Y-53775977D01*
X25415977Y-53629655D01*
X25530941Y-53457598D01*
X25610130Y-53266420D01*
X25650500Y-53063465D01*
X25650500Y-52856535D01*
X25610130Y-52653580D01*
X25560194Y-52533026D01*
X25552726Y-52463559D01*
X25584001Y-52401080D01*
X25587045Y-52397924D01*
X26373152Y-51611819D01*
X26434475Y-51578334D01*
X26460833Y-51575500D01*
X33987900Y-51575500D01*
X34054939Y-51595185D01*
G37*
%TD.AperFunction*%
%TA.AperFunction,Conductor*%
G36*
X53716998Y-53233702D02*
G01*
X53764609Y-53284839D01*
X53771656Y-53302026D01*
X53828904Y-53478216D01*
X53925379Y-53667557D01*
X54050272Y-53839459D01*
X54053435Y-53843162D01*
X54052148Y-53844260D01*
X54082116Y-53899142D01*
X54077132Y-53968834D01*
X54035260Y-54024767D01*
X53969796Y-54049184D01*
X53960950Y-54049500D01*
X53209072Y-54049500D01*
X53142033Y-54029815D01*
X53096278Y-53977011D01*
X53086334Y-53907853D01*
X53115359Y-53844297D01*
X53140182Y-53822398D01*
X53191353Y-53788205D01*
X53209655Y-53775977D01*
X53355977Y-53629655D01*
X53470941Y-53457598D01*
X53539165Y-53292889D01*
X53583004Y-53238488D01*
X53649298Y-53216423D01*
X53716998Y-53233702D01*
G37*
%TD.AperFunction*%
%TA.AperFunction,Conductor*%
G36*
X19408229Y-48578258D02*
G01*
X19475251Y-48597989D01*
X19520968Y-48650826D01*
X19530862Y-48719991D01*
X19501792Y-48783526D01*
X19442987Y-48821259D01*
X19432342Y-48823872D01*
X19429255Y-48824486D01*
X19429248Y-48824488D01*
X19254087Y-48897042D01*
X19096441Y-49002377D01*
X18962377Y-49136441D01*
X18857042Y-49294087D01*
X18784488Y-49469248D01*
X18784486Y-49469256D01*
X18747500Y-49655197D01*
X18747500Y-49844802D01*
X18784486Y-50030743D01*
X18784488Y-50030751D01*
X18857042Y-50205912D01*
X18962377Y-50363558D01*
X19096441Y-50497622D01*
X19167363Y-50545010D01*
X19254085Y-50602956D01*
X19429249Y-50675512D01*
X19615197Y-50712499D01*
X19615201Y-50712500D01*
X19615202Y-50712500D01*
X19804799Y-50712500D01*
X19804800Y-50712499D01*
X19990751Y-50675512D01*
X20069619Y-50642842D01*
X20089495Y-50640705D01*
X20108225Y-50633720D01*
X20123521Y-50637047D01*
X20139086Y-50635374D01*
X20156963Y-50644322D01*
X20176498Y-50648572D01*
X20198784Y-50665255D01*
X20201566Y-50666648D01*
X20204752Y-50669723D01*
X20284181Y-50749152D01*
X20317666Y-50810475D01*
X20320500Y-50836833D01*
X20320500Y-51999463D01*
X20300815Y-52066502D01*
X20248011Y-52112257D01*
X20178853Y-52122201D01*
X20127610Y-52102566D01*
X20021655Y-52031770D01*
X20017598Y-52029059D01*
X20017593Y-52029057D01*
X19826420Y-51949870D01*
X19826412Y-51949868D01*
X19623469Y-51909500D01*
X19623465Y-51909500D01*
X19416535Y-51909500D01*
X19416530Y-51909500D01*
X19213587Y-51949868D01*
X19213579Y-51949870D01*
X19022403Y-52029058D01*
X18850342Y-52144024D01*
X18704025Y-52290341D01*
X18704019Y-52290349D01*
X18608602Y-52433152D01*
X18554990Y-52477958D01*
X18485665Y-52486665D01*
X18422638Y-52456511D01*
X18385918Y-52397068D01*
X18381500Y-52364262D01*
X18381500Y-50621438D01*
X18375622Y-50599500D01*
X18361022Y-50545012D01*
X18321460Y-50476489D01*
X18089723Y-50244752D01*
X18056238Y-50183429D01*
X18061222Y-50113737D01*
X18062825Y-50109661D01*
X18095512Y-50030751D01*
X18132500Y-49844798D01*
X18132500Y-49655202D01*
X18095512Y-49469249D01*
X18022956Y-49294085D01*
X17987686Y-49241300D01*
X17917622Y-49136441D01*
X17783558Y-49002377D01*
X17625912Y-48897042D01*
X17450751Y-48824488D01*
X17450741Y-48824485D01*
X17440717Y-48822491D01*
X17378807Y-48790104D01*
X17344236Y-48729387D01*
X17347978Y-48659618D01*
X17388846Y-48602947D01*
X17453865Y-48577368D01*
X17464971Y-48576876D01*
X19408229Y-48578258D01*
G37*
%TD.AperFunction*%
%TA.AperFunction,Conductor*%
G36*
X11267087Y-48572468D02*
G01*
X11334112Y-48592200D01*
X11379829Y-48645037D01*
X11388660Y-48695108D01*
X11960590Y-49267037D01*
X11897007Y-49284075D01*
X11782993Y-49349901D01*
X11689901Y-49442993D01*
X11624075Y-49557007D01*
X11607037Y-49620590D01*
X11037730Y-49051282D01*
X11037729Y-49051283D01*
X11010643Y-49088564D01*
X10920457Y-49265562D01*
X10859075Y-49454476D01*
X10859075Y-49454479D01*
X10828000Y-49650678D01*
X10828000Y-49849321D01*
X10859075Y-50045520D01*
X10859075Y-50045523D01*
X10920457Y-50234437D01*
X10970526Y-50332702D01*
X10983422Y-50401371D01*
X10957146Y-50466112D01*
X10900039Y-50506369D01*
X10830234Y-50509361D01*
X10772360Y-50476678D01*
X10490434Y-50194752D01*
X10456949Y-50133429D01*
X10461933Y-50063737D01*
X10463555Y-50059616D01*
X10469394Y-50045520D01*
X10475512Y-50030751D01*
X10512500Y-49844798D01*
X10512500Y-49655202D01*
X10475512Y-49469249D01*
X10402956Y-49294085D01*
X10367686Y-49241300D01*
X10297622Y-49136441D01*
X10163558Y-49002377D01*
X10005912Y-48897042D01*
X9830751Y-48824488D01*
X9830745Y-48824486D01*
X9793381Y-48817054D01*
X9731470Y-48784669D01*
X9696896Y-48723953D01*
X9700637Y-48654183D01*
X9741503Y-48597511D01*
X9806522Y-48571930D01*
X9817649Y-48571437D01*
X11267087Y-48572468D01*
G37*
%TD.AperFunction*%
%TA.AperFunction,Conductor*%
G36*
X36506206Y-30450185D02*
G01*
X36526848Y-30466819D01*
X37643181Y-31583152D01*
X37676666Y-31644475D01*
X37679500Y-31670833D01*
X37679500Y-32514200D01*
X37675275Y-32546291D01*
X37673500Y-32552912D01*
X37673500Y-32552917D01*
X37673500Y-33047083D01*
X37675274Y-33053705D01*
X37679500Y-33085798D01*
X37679500Y-48464167D01*
X37659815Y-48531206D01*
X37643181Y-48551848D01*
X36092856Y-50102172D01*
X36031533Y-50135657D01*
X35961841Y-50130673D01*
X35905908Y-50088801D01*
X35881491Y-50023337D01*
X35883558Y-49990300D01*
X35892968Y-49942993D01*
X35912500Y-49844798D01*
X35912500Y-49655202D01*
X35875512Y-49469249D01*
X35802956Y-49294085D01*
X35767686Y-49241300D01*
X35697622Y-49136441D01*
X35563558Y-49002377D01*
X35405912Y-48897042D01*
X35239500Y-48828112D01*
X35185097Y-48784271D01*
X35163032Y-48717977D01*
X35180311Y-48650277D01*
X35231449Y-48602667D01*
X35287039Y-48589551D01*
X36579978Y-48590471D01*
X36579985Y-48590474D01*
X36625890Y-48590502D01*
X36625891Y-48590503D01*
X36625892Y-48590503D01*
X36626003Y-48590503D01*
X36649547Y-48590520D01*
X36656618Y-48591108D01*
X36658275Y-48591014D01*
X36659735Y-48590527D01*
X36659739Y-48590528D01*
X36659741Y-48590525D01*
X36659744Y-48590525D01*
X36659749Y-48590526D01*
X36659779Y-48590513D01*
X36663925Y-48589134D01*
X36663925Y-48589133D01*
X36663931Y-48589132D01*
X36669301Y-48587344D01*
X36674216Y-48584544D01*
X36692333Y-48577054D01*
X36733453Y-48560057D01*
X36733457Y-48560052D01*
X36733461Y-48560051D01*
X36769549Y-48524012D01*
X36785092Y-48508490D01*
X36789318Y-48504710D01*
X36789891Y-48503698D01*
X36789895Y-48503695D01*
X36789896Y-48503691D01*
X36789901Y-48503687D01*
X36789909Y-48503666D01*
X36791624Y-48500642D01*
X36793421Y-48495203D01*
X36811291Y-48452143D01*
X36820301Y-48430432D01*
X36820469Y-48430035D01*
X36820472Y-48430018D01*
X36820474Y-48430015D01*
X36820511Y-48372672D01*
X36820528Y-48350261D01*
X36820527Y-48350260D01*
X36820541Y-48331902D01*
X36820538Y-48331876D01*
X36820607Y-48228124D01*
X36830473Y-33334963D01*
X36830492Y-33334918D01*
X36830499Y-33295343D01*
X36830526Y-33255251D01*
X36830526Y-33255199D01*
X36815098Y-33217936D01*
X36815098Y-33217935D01*
X36815091Y-33217919D01*
X36800051Y-33181539D01*
X36800049Y-33181537D01*
X36800047Y-33181532D01*
X36799995Y-33181453D01*
X36771382Y-33152831D01*
X36771382Y-33152830D01*
X36771342Y-33152791D01*
X36771338Y-33152788D01*
X36770402Y-33151851D01*
X36743687Y-33125100D01*
X36743640Y-33125080D01*
X36743604Y-33125044D01*
X36743600Y-33125042D01*
X36720547Y-33115488D01*
X36705986Y-33109454D01*
X36670015Y-33094527D01*
X36669965Y-33094526D01*
X36669917Y-33094507D01*
X36669548Y-33094506D01*
X36669546Y-33094506D01*
X36629014Y-33094499D01*
X36629013Y-33094499D01*
X36628960Y-33094498D01*
X36628960Y-33094499D01*
X36628935Y-33094498D01*
X36626827Y-33094497D01*
X36590251Y-33094474D01*
X36590207Y-33094491D01*
X36578568Y-33094489D01*
X36578567Y-33094488D01*
X35374259Y-33094275D01*
X35307223Y-33074579D01*
X35261477Y-33021766D01*
X35251546Y-32952606D01*
X35280582Y-32889056D01*
X35326825Y-32855716D01*
X35405915Y-32822956D01*
X35563558Y-32717622D01*
X35697622Y-32583558D01*
X35802956Y-32425915D01*
X35875512Y-32250751D01*
X35912500Y-32064798D01*
X35912500Y-31875202D01*
X35875512Y-31689249D01*
X35802956Y-31514085D01*
X35712703Y-31379012D01*
X35697622Y-31356441D01*
X35563558Y-31222377D01*
X35405912Y-31117042D01*
X35230751Y-31044488D01*
X35230743Y-31044486D01*
X35044802Y-31007500D01*
X35044798Y-31007500D01*
X34855202Y-31007500D01*
X34855197Y-31007500D01*
X34669256Y-31044486D01*
X34669248Y-31044488D01*
X34494087Y-31117042D01*
X34336441Y-31222377D01*
X34202377Y-31356441D01*
X34097042Y-31514087D01*
X34024488Y-31689248D01*
X34024486Y-31689256D01*
X33987500Y-31875197D01*
X33987500Y-32064802D01*
X34024486Y-32250743D01*
X34024488Y-32250751D01*
X34097042Y-32425912D01*
X34202377Y-32583558D01*
X34336441Y-32717622D01*
X34441300Y-32787686D01*
X34494085Y-32822956D01*
X34494086Y-32822956D01*
X34494087Y-32822957D01*
X34494089Y-32822958D01*
X34543435Y-32843397D01*
X34572080Y-32855263D01*
X34572805Y-32855563D01*
X34627209Y-32899403D01*
X34649274Y-32965698D01*
X34631995Y-33033397D01*
X34580858Y-33081008D01*
X34525331Y-33094124D01*
X32835349Y-33093824D01*
X32768313Y-33074128D01*
X32722567Y-33021315D01*
X32712636Y-32952155D01*
X32741672Y-32888605D01*
X32787917Y-32855263D01*
X32865915Y-32822956D01*
X33023558Y-32717622D01*
X33157622Y-32583558D01*
X33262956Y-32425915D01*
X33335512Y-32250751D01*
X33372500Y-32064798D01*
X33372500Y-31875202D01*
X33335512Y-31689249D01*
X33262956Y-31514085D01*
X33172703Y-31379012D01*
X33157622Y-31356441D01*
X33023558Y-31222377D01*
X32865912Y-31117042D01*
X32690751Y-31044488D01*
X32690743Y-31044486D01*
X32504802Y-31007500D01*
X32504798Y-31007500D01*
X32315202Y-31007500D01*
X32315197Y-31007500D01*
X32129256Y-31044486D01*
X32129248Y-31044488D01*
X31954087Y-31117042D01*
X31796441Y-31222377D01*
X31662377Y-31356441D01*
X31557042Y-31514087D01*
X31484488Y-31689248D01*
X31484486Y-31689256D01*
X31447500Y-31875197D01*
X31447500Y-32064802D01*
X31484486Y-32250743D01*
X31484488Y-32250751D01*
X31557042Y-32425912D01*
X31662377Y-32583558D01*
X31796441Y-32717622D01*
X31901300Y-32787686D01*
X31954085Y-32822956D01*
X31954086Y-32822956D01*
X31954087Y-32822957D01*
X31983495Y-32835138D01*
X32030991Y-32854812D01*
X32031716Y-32855112D01*
X32086119Y-32898953D01*
X32108184Y-32965247D01*
X32090905Y-33032946D01*
X32039768Y-33080557D01*
X31984241Y-33093673D01*
X30296439Y-33093373D01*
X30229403Y-33073677D01*
X30183657Y-33020864D01*
X30173726Y-32951704D01*
X30202762Y-32888154D01*
X30249007Y-32854812D01*
X30296539Y-32835124D01*
X30325913Y-32822957D01*
X30325913Y-32822956D01*
X30325915Y-32822956D01*
X30483558Y-32717622D01*
X30617622Y-32583558D01*
X30722956Y-32425915D01*
X30795512Y-32250751D01*
X30832500Y-32064798D01*
X30832500Y-31875202D01*
X30795512Y-31689249D01*
X30722956Y-31514085D01*
X30632703Y-31379012D01*
X30617622Y-31356441D01*
X30483558Y-31222377D01*
X30325912Y-31117042D01*
X30150751Y-31044488D01*
X30150743Y-31044486D01*
X29964802Y-31007500D01*
X29964798Y-31007500D01*
X29775202Y-31007500D01*
X29775197Y-31007500D01*
X29589256Y-31044486D01*
X29589248Y-31044488D01*
X29414087Y-31117042D01*
X29256441Y-31222377D01*
X29122377Y-31356441D01*
X29017042Y-31514087D01*
X28944488Y-31689248D01*
X28944486Y-31689256D01*
X28907500Y-31875197D01*
X28907500Y-32064802D01*
X28944486Y-32250743D01*
X28944488Y-32250751D01*
X29017042Y-32425912D01*
X29122377Y-32583558D01*
X29256441Y-32717622D01*
X29414086Y-32822957D01*
X29470427Y-32846293D01*
X29490625Y-32854660D01*
X29545028Y-32898501D01*
X29567093Y-32964795D01*
X29549814Y-33032494D01*
X29498677Y-33080105D01*
X29443150Y-33093221D01*
X27757528Y-33092921D01*
X27690492Y-33073225D01*
X27644746Y-33020412D01*
X27634815Y-32951252D01*
X27663852Y-32887702D01*
X27710094Y-32854362D01*
X27785915Y-32822956D01*
X27943558Y-32717622D01*
X28077622Y-32583558D01*
X28182956Y-32425915D01*
X28255512Y-32250751D01*
X28292500Y-32064798D01*
X28292500Y-31875202D01*
X28255512Y-31689249D01*
X28182956Y-31514085D01*
X28092703Y-31379012D01*
X28077622Y-31356441D01*
X27943558Y-31222377D01*
X27785912Y-31117042D01*
X27610751Y-31044488D01*
X27610743Y-31044486D01*
X27424802Y-31007500D01*
X27424798Y-31007500D01*
X27235202Y-31007500D01*
X27235197Y-31007500D01*
X27049256Y-31044486D01*
X27049248Y-31044488D01*
X26874087Y-31117042D01*
X26716441Y-31222377D01*
X26582377Y-31356441D01*
X26477042Y-31514087D01*
X26404488Y-31689248D01*
X26404486Y-31689256D01*
X26367500Y-31875197D01*
X26367500Y-32064802D01*
X26404486Y-32250743D01*
X26404488Y-32250751D01*
X26477042Y-32425912D01*
X26582377Y-32583558D01*
X26716441Y-32717622D01*
X26821300Y-32787686D01*
X26874085Y-32822956D01*
X26874086Y-32822956D01*
X26874087Y-32822957D01*
X26874089Y-32822958D01*
X26914424Y-32839665D01*
X26949534Y-32854208D01*
X27003938Y-32898048D01*
X27026003Y-32964342D01*
X27008724Y-33032042D01*
X26957587Y-33079653D01*
X26902060Y-33092769D01*
X25218618Y-33092470D01*
X25151582Y-33072774D01*
X25105836Y-33019961D01*
X25095905Y-32950801D01*
X25124941Y-32887251D01*
X25171187Y-32853909D01*
X25245915Y-32822956D01*
X25403558Y-32717622D01*
X25537622Y-32583558D01*
X25642956Y-32425915D01*
X25715512Y-32250751D01*
X25752500Y-32064798D01*
X25752500Y-31875202D01*
X25715512Y-31689249D01*
X25682843Y-31610380D01*
X25675374Y-31540911D01*
X25706649Y-31478431D01*
X25709693Y-31475276D01*
X26718152Y-30466819D01*
X26779475Y-30433334D01*
X26805833Y-30430500D01*
X36439167Y-30430500D01*
X36506206Y-30450185D01*
G37*
%TD.AperFunction*%
%TD*%
M02*
