%TF.GenerationSoftware,KiCad,Pcbnew,10.0.5*%
%TF.CreationDate,2026-07-27T20:54:21-06:00*%
%TF.ProjectId,seedsigner-luckfox-pico-mini,73656564-7369-4676-9e65-722d6c75636b,sdfsdf*%
%TF.SameCoordinates,Original*%
%TF.FileFunction,Legend,Bot*%
%TF.FilePolarity,Positive*%
%FSLAX46Y46*%
G04 Gerber Fmt 4.6, Leading zero omitted, Abs format (unit mm)*
G04 Created by KiCad (PCBNEW 10.0.5) date 2026-07-27 20:54:21*
%MOMM*%
%LPD*%
G01*
G04 APERTURE LIST*
G04 Aperture macros list*
%AMRoundRect*
0 Rectangle with rounded corners*
0 $1 Rounding radius*
0 $2 $3 $4 $5 $6 $7 $8 $9 X,Y pos of 4 corners*
0 Add a 4 corners polygon primitive as box body*
4,1,4,$2,$3,$4,$5,$6,$7,$8,$9,$2,$3,0*
0 Add four circle primitives for the rounded corners*
1,1,$1+$1,$2,$3*
1,1,$1+$1,$4,$5*
1,1,$1+$1,$6,$7*
1,1,$1+$1,$8,$9*
0 Add four rect primitives between the rounded corners*
20,1,$1+$1,$2,$3,$4,$5,0*
20,1,$1+$1,$4,$5,$6,$7,0*
20,1,$1+$1,$6,$7,$8,$9,0*
20,1,$1+$1,$8,$9,$2,$3,0*%
%AMFreePoly0*
4,1,33,0.221197,0.729189,0.359204,0.672024,0.483408,0.589034,0.589034,0.483408,0.672024,0.359204,0.729189,0.221197,0.758331,0.074689,0.758331,-0.074689,0.729189,-0.221197,0.672024,-0.359204,0.589034,-0.483408,0.483408,-0.589034,0.359204,-0.672024,0.221197,-0.729189,0.074689,-0.758331,-0.074689,-0.758331,-0.221197,-0.729189,-0.359204,-0.672024,-0.483408,-0.589034,-0.589034,-0.483408,
-0.672024,-0.359204,-0.729189,-0.221197,-0.758331,-0.074689,-0.758331,0.074689,-0.729189,0.221197,-0.672024,0.359204,-0.589034,0.483408,-0.483408,0.589034,-0.359204,0.672024,-0.221197,0.729189,-0.074689,0.758331,0.074689,0.758331,0.221197,0.729189,0.221197,0.729189,$1*%
%AMFreePoly1*
4,1,23,0.500000,-0.750000,0.000000,-0.750000,0.000000,-0.745722,-0.065263,-0.745722,-0.191342,-0.711940,-0.304381,-0.646677,-0.396677,-0.554381,-0.461940,-0.441342,-0.495722,-0.315263,-0.495722,-0.250000,-0.500000,-0.250000,-0.500000,0.250000,-0.495722,0.250000,-0.495722,0.315263,-0.461940,0.441342,-0.396677,0.554381,-0.304381,0.646677,-0.191342,0.711940,-0.065263,0.745722,0.000000,0.745722,
0.000000,0.750000,0.500000,0.750000,0.500000,-0.750000,0.500000,-0.750000,$1*%
%AMFreePoly2*
4,1,23,0.000000,0.745722,0.065263,0.745722,0.191342,0.711940,0.304381,0.646677,0.396677,0.554381,0.461940,0.441342,0.495722,0.315263,0.495722,0.250000,0.500000,0.250000,0.500000,-0.250000,0.495722,-0.250000,0.495722,-0.315263,0.461940,-0.441342,0.396677,-0.554381,0.304381,-0.646677,0.191342,-0.711940,0.065263,-0.745722,0.000000,-0.745722,0.000000,-0.750000,-0.500000,-0.750000,
-0.500000,0.750000,0.000000,0.750000,0.000000,0.745722,0.000000,0.745722,$1*%
G04 Aperture macros list end*
%ADD10C,0.704401*%
%ADD11C,0.100000*%
%ADD12C,0.200000*%
%ADD13C,0.175000*%
%ADD14C,0.300000*%
%ADD15C,0.375000*%
%ADD16C,0.150000*%
%ADD17C,0.120000*%
%ADD18RoundRect,0.168221X0.392517X-0.956779X0.392517X0.956779X-0.392517X0.956779X-0.392517X-0.956779X0*%
%ADD19C,1.524000*%
%ADD20FreePoly0,90.000000*%
%ADD21RoundRect,0.168221X0.392517X-0.706779X0.392517X0.706779X-0.392517X0.706779X-0.392517X-0.706779X0*%
%ADD22C,3.500000*%
%ADD23R,1.700000X1.700000*%
%ADD24O,1.700000X1.700000*%
%ADD25FreePoly1,180.000000*%
%ADD26FreePoly2,180.000000*%
%ADD27FreePoly1,0.000000*%
%ADD28FreePoly2,0.000000*%
G04 APERTURE END LIST*
D10*
X9807799Y-52610000D02*
G75*
G02*
X9103399Y-52610000I-352200J0D01*
G01*
X9103399Y-52610000D02*
G75*
G02*
X9807799Y-52610000I352200J0D01*
G01*
D11*
X14330000Y-54360000D02*
X20760000Y-54360000D01*
X20760000Y-58250000D01*
X14330000Y-58250000D01*
X14330000Y-54360000D01*
D12*
X42415000Y-38800000D02*
X58615000Y-38800000D01*
X58615000Y-49170000D01*
X42415000Y-49170000D01*
X42415000Y-38800000D01*
X50775000Y-33680000D02*
X73245000Y-33680000D01*
X73245000Y-38720000D01*
X50775000Y-38720000D01*
X50775000Y-33680000D01*
X58610000Y-38765000D02*
X73190000Y-38765000D01*
X73190000Y-49165000D01*
X58610000Y-49165000D01*
X58610000Y-38765000D01*
D11*
X15079133Y-54062455D02*
X14379133Y-54062455D01*
X14379133Y-54062455D02*
X14879133Y-54295789D01*
X14879133Y-54295789D02*
X14379133Y-54529122D01*
X14379133Y-54529122D02*
X15079133Y-54529122D01*
X15079133Y-55162455D02*
X14712466Y-55162455D01*
X14712466Y-55162455D02*
X14645800Y-55129122D01*
X14645800Y-55129122D02*
X14612466Y-55062455D01*
X14612466Y-55062455D02*
X14612466Y-54929122D01*
X14612466Y-54929122D02*
X14645800Y-54862455D01*
X15045800Y-55162455D02*
X15079133Y-55095789D01*
X15079133Y-55095789D02*
X15079133Y-54929122D01*
X15079133Y-54929122D02*
X15045800Y-54862455D01*
X15045800Y-54862455D02*
X14979133Y-54829122D01*
X14979133Y-54829122D02*
X14912466Y-54829122D01*
X14912466Y-54829122D02*
X14845800Y-54862455D01*
X14845800Y-54862455D02*
X14812466Y-54929122D01*
X14812466Y-54929122D02*
X14812466Y-55095789D01*
X14812466Y-55095789D02*
X14779133Y-55162455D01*
X15079133Y-55429122D02*
X14612466Y-55795788D01*
X14612466Y-55429122D02*
X15079133Y-55795788D01*
X15079133Y-56962455D02*
X15079133Y-56562455D01*
X15079133Y-56762455D02*
X14379133Y-56762455D01*
X14379133Y-56762455D02*
X14479133Y-56695788D01*
X14479133Y-56695788D02*
X14545800Y-56629122D01*
X14545800Y-56629122D02*
X14579133Y-56562455D01*
X14612466Y-57195789D02*
X15079133Y-57362455D01*
X15079133Y-57362455D02*
X14612466Y-57529122D01*
X14679133Y-57895788D02*
X14645800Y-57829122D01*
X14645800Y-57829122D02*
X14612466Y-57795788D01*
X14612466Y-57795788D02*
X14545800Y-57762455D01*
X14545800Y-57762455D02*
X14512466Y-57762455D01*
X14512466Y-57762455D02*
X14445800Y-57795788D01*
X14445800Y-57795788D02*
X14412466Y-57829122D01*
X14412466Y-57829122D02*
X14379133Y-57895788D01*
X14379133Y-57895788D02*
X14379133Y-58029122D01*
X14379133Y-58029122D02*
X14412466Y-58095788D01*
X14412466Y-58095788D02*
X14445800Y-58129122D01*
X14445800Y-58129122D02*
X14512466Y-58162455D01*
X14512466Y-58162455D02*
X14545800Y-58162455D01*
X14545800Y-58162455D02*
X14612466Y-58129122D01*
X14612466Y-58129122D02*
X14645800Y-58095788D01*
X14645800Y-58095788D02*
X14679133Y-58029122D01*
X14679133Y-58029122D02*
X14679133Y-57895788D01*
X14679133Y-57895788D02*
X14712466Y-57829122D01*
X14712466Y-57829122D02*
X14745800Y-57795788D01*
X14745800Y-57795788D02*
X14812466Y-57762455D01*
X14812466Y-57762455D02*
X14945800Y-57762455D01*
X14945800Y-57762455D02*
X15012466Y-57795788D01*
X15012466Y-57795788D02*
X15045800Y-57829122D01*
X15045800Y-57829122D02*
X15079133Y-57895788D01*
X15079133Y-57895788D02*
X15079133Y-58029122D01*
X15079133Y-58029122D02*
X15045800Y-58095788D01*
X15045800Y-58095788D02*
X15012466Y-58129122D01*
X15012466Y-58129122D02*
X14945800Y-58162455D01*
X14945800Y-58162455D02*
X14812466Y-58162455D01*
X14812466Y-58162455D02*
X14745800Y-58129122D01*
X14745800Y-58129122D02*
X14712466Y-58095788D01*
X14712466Y-58095788D02*
X14679133Y-58029122D01*
D13*
X51134869Y-43934350D02*
X50968202Y-44634350D01*
X50968202Y-44634350D02*
X50834869Y-44134350D01*
X50834869Y-44134350D02*
X50701535Y-44634350D01*
X50701535Y-44634350D02*
X50534869Y-43934350D01*
X49968202Y-44634350D02*
X49968202Y-44267683D01*
X49968202Y-44267683D02*
X50001535Y-44201017D01*
X50001535Y-44201017D02*
X50068202Y-44167683D01*
X50068202Y-44167683D02*
X50201535Y-44167683D01*
X50201535Y-44167683D02*
X50268202Y-44201017D01*
X49968202Y-44601017D02*
X50034869Y-44634350D01*
X50034869Y-44634350D02*
X50201535Y-44634350D01*
X50201535Y-44634350D02*
X50268202Y-44601017D01*
X50268202Y-44601017D02*
X50301535Y-44534350D01*
X50301535Y-44534350D02*
X50301535Y-44467683D01*
X50301535Y-44467683D02*
X50268202Y-44401017D01*
X50268202Y-44401017D02*
X50201535Y-44367683D01*
X50201535Y-44367683D02*
X50034869Y-44367683D01*
X50034869Y-44367683D02*
X49968202Y-44334350D01*
X49701536Y-44167683D02*
X49534869Y-44634350D01*
X49534869Y-44634350D02*
X49368202Y-44167683D01*
X48834869Y-44601017D02*
X48901536Y-44634350D01*
X48901536Y-44634350D02*
X49034869Y-44634350D01*
X49034869Y-44634350D02*
X49101536Y-44601017D01*
X49101536Y-44601017D02*
X49134869Y-44534350D01*
X49134869Y-44534350D02*
X49134869Y-44267683D01*
X49134869Y-44267683D02*
X49101536Y-44201017D01*
X49101536Y-44201017D02*
X49034869Y-44167683D01*
X49034869Y-44167683D02*
X48901536Y-44167683D01*
X48901536Y-44167683D02*
X48834869Y-44201017D01*
X48834869Y-44201017D02*
X48801536Y-44267683D01*
X48801536Y-44267683D02*
X48801536Y-44334350D01*
X48801536Y-44334350D02*
X49134869Y-44401017D01*
X48534869Y-44601017D02*
X48468203Y-44634350D01*
X48468203Y-44634350D02*
X48334869Y-44634350D01*
X48334869Y-44634350D02*
X48268203Y-44601017D01*
X48268203Y-44601017D02*
X48234869Y-44534350D01*
X48234869Y-44534350D02*
X48234869Y-44501017D01*
X48234869Y-44501017D02*
X48268203Y-44434350D01*
X48268203Y-44434350D02*
X48334869Y-44401017D01*
X48334869Y-44401017D02*
X48434869Y-44401017D01*
X48434869Y-44401017D02*
X48501536Y-44367683D01*
X48501536Y-44367683D02*
X48534869Y-44301017D01*
X48534869Y-44301017D02*
X48534869Y-44267683D01*
X48534869Y-44267683D02*
X48501536Y-44201017D01*
X48501536Y-44201017D02*
X48434869Y-44167683D01*
X48434869Y-44167683D02*
X48334869Y-44167683D01*
X48334869Y-44167683D02*
X48268203Y-44201017D01*
X47934869Y-44634350D02*
X47934869Y-43934350D01*
X47634869Y-44634350D02*
X47634869Y-44267683D01*
X47634869Y-44267683D02*
X47668202Y-44201017D01*
X47668202Y-44201017D02*
X47734869Y-44167683D01*
X47734869Y-44167683D02*
X47834869Y-44167683D01*
X47834869Y-44167683D02*
X47901536Y-44201017D01*
X47901536Y-44201017D02*
X47934869Y-44234350D01*
X47001536Y-44634350D02*
X47001536Y-44267683D01*
X47001536Y-44267683D02*
X47034869Y-44201017D01*
X47034869Y-44201017D02*
X47101536Y-44167683D01*
X47101536Y-44167683D02*
X47234869Y-44167683D01*
X47234869Y-44167683D02*
X47301536Y-44201017D01*
X47001536Y-44601017D02*
X47068203Y-44634350D01*
X47068203Y-44634350D02*
X47234869Y-44634350D01*
X47234869Y-44634350D02*
X47301536Y-44601017D01*
X47301536Y-44601017D02*
X47334869Y-44534350D01*
X47334869Y-44534350D02*
X47334869Y-44467683D01*
X47334869Y-44467683D02*
X47301536Y-44401017D01*
X47301536Y-44401017D02*
X47234869Y-44367683D01*
X47234869Y-44367683D02*
X47068203Y-44367683D01*
X47068203Y-44367683D02*
X47001536Y-44334350D01*
X46668203Y-44634350D02*
X46668203Y-44167683D01*
X46668203Y-44301017D02*
X46634870Y-44234350D01*
X46634870Y-44234350D02*
X46601536Y-44201017D01*
X46601536Y-44201017D02*
X46534870Y-44167683D01*
X46534870Y-44167683D02*
X46468203Y-44167683D01*
X45968203Y-44601017D02*
X46034870Y-44634350D01*
X46034870Y-44634350D02*
X46168203Y-44634350D01*
X46168203Y-44634350D02*
X46234870Y-44601017D01*
X46234870Y-44601017D02*
X46268203Y-44534350D01*
X46268203Y-44534350D02*
X46268203Y-44267683D01*
X46268203Y-44267683D02*
X46234870Y-44201017D01*
X46234870Y-44201017D02*
X46168203Y-44167683D01*
X46168203Y-44167683D02*
X46034870Y-44167683D01*
X46034870Y-44167683D02*
X45968203Y-44201017D01*
X45968203Y-44201017D02*
X45934870Y-44267683D01*
X45934870Y-44267683D02*
X45934870Y-44334350D01*
X45934870Y-44334350D02*
X46268203Y-44401017D01*
X45101537Y-44634350D02*
X45101537Y-43934350D01*
X45101537Y-44267683D02*
X44701537Y-44267683D01*
X44701537Y-44634350D02*
X44701537Y-43934350D01*
X44068204Y-44634350D02*
X44068204Y-44267683D01*
X44068204Y-44267683D02*
X44101537Y-44201017D01*
X44101537Y-44201017D02*
X44168204Y-44167683D01*
X44168204Y-44167683D02*
X44301537Y-44167683D01*
X44301537Y-44167683D02*
X44368204Y-44201017D01*
X44068204Y-44601017D02*
X44134871Y-44634350D01*
X44134871Y-44634350D02*
X44301537Y-44634350D01*
X44301537Y-44634350D02*
X44368204Y-44601017D01*
X44368204Y-44601017D02*
X44401537Y-44534350D01*
X44401537Y-44534350D02*
X44401537Y-44467683D01*
X44401537Y-44467683D02*
X44368204Y-44401017D01*
X44368204Y-44401017D02*
X44301537Y-44367683D01*
X44301537Y-44367683D02*
X44134871Y-44367683D01*
X44134871Y-44367683D02*
X44068204Y-44334350D01*
X43834871Y-44167683D02*
X43568204Y-44167683D01*
X43734871Y-43934350D02*
X43734871Y-44534350D01*
X43734871Y-44534350D02*
X43701538Y-44601017D01*
X43701538Y-44601017D02*
X43634871Y-44634350D01*
X43634871Y-44634350D02*
X43568204Y-44634350D01*
X50668202Y-45694644D02*
X50701535Y-45727978D01*
X50701535Y-45727978D02*
X50801535Y-45761311D01*
X50801535Y-45761311D02*
X50868202Y-45761311D01*
X50868202Y-45761311D02*
X50968202Y-45727978D01*
X50968202Y-45727978D02*
X51034869Y-45661311D01*
X51034869Y-45661311D02*
X51068202Y-45594644D01*
X51068202Y-45594644D02*
X51101535Y-45461311D01*
X51101535Y-45461311D02*
X51101535Y-45361311D01*
X51101535Y-45361311D02*
X51068202Y-45227978D01*
X51068202Y-45227978D02*
X51034869Y-45161311D01*
X51034869Y-45161311D02*
X50968202Y-45094644D01*
X50968202Y-45094644D02*
X50868202Y-45061311D01*
X50868202Y-45061311D02*
X50801535Y-45061311D01*
X50801535Y-45061311D02*
X50701535Y-45094644D01*
X50701535Y-45094644D02*
X50668202Y-45127978D01*
X50401535Y-45727978D02*
X50301535Y-45761311D01*
X50301535Y-45761311D02*
X50134869Y-45761311D01*
X50134869Y-45761311D02*
X50068202Y-45727978D01*
X50068202Y-45727978D02*
X50034869Y-45694644D01*
X50034869Y-45694644D02*
X50001535Y-45627978D01*
X50001535Y-45627978D02*
X50001535Y-45561311D01*
X50001535Y-45561311D02*
X50034869Y-45494644D01*
X50034869Y-45494644D02*
X50068202Y-45461311D01*
X50068202Y-45461311D02*
X50134869Y-45427978D01*
X50134869Y-45427978D02*
X50268202Y-45394644D01*
X50268202Y-45394644D02*
X50334869Y-45361311D01*
X50334869Y-45361311D02*
X50368202Y-45327978D01*
X50368202Y-45327978D02*
X50401535Y-45261311D01*
X50401535Y-45261311D02*
X50401535Y-45194644D01*
X50401535Y-45194644D02*
X50368202Y-45127978D01*
X50368202Y-45127978D02*
X50334869Y-45094644D01*
X50334869Y-45094644D02*
X50268202Y-45061311D01*
X50268202Y-45061311D02*
X50101535Y-45061311D01*
X50101535Y-45061311D02*
X50001535Y-45094644D01*
X49868202Y-45827978D02*
X49334868Y-45827978D01*
X48768202Y-45694644D02*
X48801535Y-45727978D01*
X48801535Y-45727978D02*
X48901535Y-45761311D01*
X48901535Y-45761311D02*
X48968202Y-45761311D01*
X48968202Y-45761311D02*
X49068202Y-45727978D01*
X49068202Y-45727978D02*
X49134869Y-45661311D01*
X49134869Y-45661311D02*
X49168202Y-45594644D01*
X49168202Y-45594644D02*
X49201535Y-45461311D01*
X49201535Y-45461311D02*
X49201535Y-45361311D01*
X49201535Y-45361311D02*
X49168202Y-45227978D01*
X49168202Y-45227978D02*
X49134869Y-45161311D01*
X49134869Y-45161311D02*
X49068202Y-45094644D01*
X49068202Y-45094644D02*
X48968202Y-45061311D01*
X48968202Y-45061311D02*
X48901535Y-45061311D01*
X48901535Y-45061311D02*
X48801535Y-45094644D01*
X48801535Y-45094644D02*
X48768202Y-45127978D01*
X48368202Y-45761311D02*
X48434869Y-45727978D01*
X48434869Y-45727978D02*
X48468202Y-45694644D01*
X48468202Y-45694644D02*
X48501535Y-45627978D01*
X48501535Y-45627978D02*
X48501535Y-45427978D01*
X48501535Y-45427978D02*
X48468202Y-45361311D01*
X48468202Y-45361311D02*
X48434869Y-45327978D01*
X48434869Y-45327978D02*
X48368202Y-45294644D01*
X48368202Y-45294644D02*
X48268202Y-45294644D01*
X48268202Y-45294644D02*
X48201535Y-45327978D01*
X48201535Y-45327978D02*
X48168202Y-45361311D01*
X48168202Y-45361311D02*
X48134869Y-45427978D01*
X48134869Y-45427978D02*
X48134869Y-45627978D01*
X48134869Y-45627978D02*
X48168202Y-45694644D01*
X48168202Y-45694644D02*
X48201535Y-45727978D01*
X48201535Y-45727978D02*
X48268202Y-45761311D01*
X48268202Y-45761311D02*
X48368202Y-45761311D01*
X47834869Y-45294644D02*
X47834869Y-45761311D01*
X47834869Y-45361311D02*
X47801536Y-45327978D01*
X47801536Y-45327978D02*
X47734869Y-45294644D01*
X47734869Y-45294644D02*
X47634869Y-45294644D01*
X47634869Y-45294644D02*
X47568202Y-45327978D01*
X47568202Y-45327978D02*
X47534869Y-45394644D01*
X47534869Y-45394644D02*
X47534869Y-45761311D01*
X47201536Y-45294644D02*
X47201536Y-45761311D01*
X47201536Y-45361311D02*
X47168203Y-45327978D01*
X47168203Y-45327978D02*
X47101536Y-45294644D01*
X47101536Y-45294644D02*
X47001536Y-45294644D01*
X47001536Y-45294644D02*
X46934869Y-45327978D01*
X46934869Y-45327978D02*
X46901536Y-45394644D01*
X46901536Y-45394644D02*
X46901536Y-45761311D01*
X46301536Y-45727978D02*
X46368203Y-45761311D01*
X46368203Y-45761311D02*
X46501536Y-45761311D01*
X46501536Y-45761311D02*
X46568203Y-45727978D01*
X46568203Y-45727978D02*
X46601536Y-45661311D01*
X46601536Y-45661311D02*
X46601536Y-45394644D01*
X46601536Y-45394644D02*
X46568203Y-45327978D01*
X46568203Y-45327978D02*
X46501536Y-45294644D01*
X46501536Y-45294644D02*
X46368203Y-45294644D01*
X46368203Y-45294644D02*
X46301536Y-45327978D01*
X46301536Y-45327978D02*
X46268203Y-45394644D01*
X46268203Y-45394644D02*
X46268203Y-45461311D01*
X46268203Y-45461311D02*
X46601536Y-45527978D01*
X45668203Y-45727978D02*
X45734870Y-45761311D01*
X45734870Y-45761311D02*
X45868203Y-45761311D01*
X45868203Y-45761311D02*
X45934870Y-45727978D01*
X45934870Y-45727978D02*
X45968203Y-45694644D01*
X45968203Y-45694644D02*
X46001536Y-45627978D01*
X46001536Y-45627978D02*
X46001536Y-45427978D01*
X46001536Y-45427978D02*
X45968203Y-45361311D01*
X45968203Y-45361311D02*
X45934870Y-45327978D01*
X45934870Y-45327978D02*
X45868203Y-45294644D01*
X45868203Y-45294644D02*
X45734870Y-45294644D01*
X45734870Y-45294644D02*
X45668203Y-45327978D01*
X45468203Y-45294644D02*
X45201536Y-45294644D01*
X45368203Y-45061311D02*
X45368203Y-45661311D01*
X45368203Y-45661311D02*
X45334870Y-45727978D01*
X45334870Y-45727978D02*
X45268203Y-45761311D01*
X45268203Y-45761311D02*
X45201536Y-45761311D01*
X44968203Y-45761311D02*
X44968203Y-45294644D01*
X44968203Y-45061311D02*
X45001536Y-45094644D01*
X45001536Y-45094644D02*
X44968203Y-45127978D01*
X44968203Y-45127978D02*
X44934870Y-45094644D01*
X44934870Y-45094644D02*
X44968203Y-45061311D01*
X44968203Y-45061311D02*
X44968203Y-45127978D01*
X44534870Y-45761311D02*
X44601537Y-45727978D01*
X44601537Y-45727978D02*
X44634870Y-45694644D01*
X44634870Y-45694644D02*
X44668203Y-45627978D01*
X44668203Y-45627978D02*
X44668203Y-45427978D01*
X44668203Y-45427978D02*
X44634870Y-45361311D01*
X44634870Y-45361311D02*
X44601537Y-45327978D01*
X44601537Y-45327978D02*
X44534870Y-45294644D01*
X44534870Y-45294644D02*
X44434870Y-45294644D01*
X44434870Y-45294644D02*
X44368203Y-45327978D01*
X44368203Y-45327978D02*
X44334870Y-45361311D01*
X44334870Y-45361311D02*
X44301537Y-45427978D01*
X44301537Y-45427978D02*
X44301537Y-45627978D01*
X44301537Y-45627978D02*
X44334870Y-45694644D01*
X44334870Y-45694644D02*
X44368203Y-45727978D01*
X44368203Y-45727978D02*
X44434870Y-45761311D01*
X44434870Y-45761311D02*
X44534870Y-45761311D01*
X44001537Y-45294644D02*
X44001537Y-45761311D01*
X44001537Y-45361311D02*
X43968204Y-45327978D01*
X43968204Y-45327978D02*
X43901537Y-45294644D01*
X43901537Y-45294644D02*
X43801537Y-45294644D01*
X43801537Y-45294644D02*
X43734870Y-45327978D01*
X43734870Y-45327978D02*
X43701537Y-45394644D01*
X43701537Y-45394644D02*
X43701537Y-45761311D01*
X50868202Y-46188272D02*
X50868202Y-46688272D01*
X50868202Y-46688272D02*
X50901535Y-46788272D01*
X50901535Y-46788272D02*
X50968202Y-46854939D01*
X50968202Y-46854939D02*
X51068202Y-46888272D01*
X51068202Y-46888272D02*
X51134869Y-46888272D01*
X50534869Y-46888272D02*
X50534869Y-46188272D01*
X50534869Y-46188272D02*
X50268202Y-46188272D01*
X50268202Y-46188272D02*
X50201536Y-46221605D01*
X50201536Y-46221605D02*
X50168202Y-46254939D01*
X50168202Y-46254939D02*
X50134869Y-46321605D01*
X50134869Y-46321605D02*
X50134869Y-46421605D01*
X50134869Y-46421605D02*
X50168202Y-46488272D01*
X50168202Y-46488272D02*
X50201536Y-46521605D01*
X50201536Y-46521605D02*
X50268202Y-46554939D01*
X50268202Y-46554939D02*
X50534869Y-46554939D01*
X49901536Y-46188272D02*
X49468202Y-46188272D01*
X49468202Y-46188272D02*
X49701536Y-46454939D01*
X49701536Y-46454939D02*
X49601536Y-46454939D01*
X49601536Y-46454939D02*
X49534869Y-46488272D01*
X49534869Y-46488272D02*
X49501536Y-46521605D01*
X49501536Y-46521605D02*
X49468202Y-46588272D01*
X49468202Y-46588272D02*
X49468202Y-46754939D01*
X49468202Y-46754939D02*
X49501536Y-46821605D01*
X49501536Y-46821605D02*
X49534869Y-46854939D01*
X49534869Y-46854939D02*
X49601536Y-46888272D01*
X49601536Y-46888272D02*
X49801536Y-46888272D01*
X49801536Y-46888272D02*
X49868202Y-46854939D01*
X49868202Y-46854939D02*
X49901536Y-46821605D01*
X49168202Y-46521605D02*
X48634869Y-46521605D01*
X48634869Y-46721605D02*
X49168202Y-46721605D01*
X48301535Y-46888272D02*
X48301535Y-46188272D01*
X48301535Y-46188272D02*
X48068202Y-46688272D01*
X48068202Y-46688272D02*
X47834868Y-46188272D01*
X47834868Y-46188272D02*
X47834868Y-46888272D01*
X47101535Y-46821605D02*
X47134868Y-46854939D01*
X47134868Y-46854939D02*
X47234868Y-46888272D01*
X47234868Y-46888272D02*
X47301535Y-46888272D01*
X47301535Y-46888272D02*
X47401535Y-46854939D01*
X47401535Y-46854939D02*
X47468202Y-46788272D01*
X47468202Y-46788272D02*
X47501535Y-46721605D01*
X47501535Y-46721605D02*
X47534868Y-46588272D01*
X47534868Y-46588272D02*
X47534868Y-46488272D01*
X47534868Y-46488272D02*
X47501535Y-46354939D01*
X47501535Y-46354939D02*
X47468202Y-46288272D01*
X47468202Y-46288272D02*
X47401535Y-46221605D01*
X47401535Y-46221605D02*
X47301535Y-46188272D01*
X47301535Y-46188272D02*
X47234868Y-46188272D01*
X47234868Y-46188272D02*
X47134868Y-46221605D01*
X47134868Y-46221605D02*
X47101535Y-46254939D01*
X46801535Y-46188272D02*
X46801535Y-46754939D01*
X46801535Y-46754939D02*
X46768202Y-46821605D01*
X46768202Y-46821605D02*
X46734868Y-46854939D01*
X46734868Y-46854939D02*
X46668202Y-46888272D01*
X46668202Y-46888272D02*
X46534868Y-46888272D01*
X46534868Y-46888272D02*
X46468202Y-46854939D01*
X46468202Y-46854939D02*
X46434868Y-46821605D01*
X46434868Y-46821605D02*
X46401535Y-46754939D01*
X46401535Y-46754939D02*
X46401535Y-46188272D01*
X46234869Y-46954939D02*
X45701535Y-46954939D01*
X45134869Y-46821605D02*
X45168202Y-46854939D01*
X45168202Y-46854939D02*
X45268202Y-46888272D01*
X45268202Y-46888272D02*
X45334869Y-46888272D01*
X45334869Y-46888272D02*
X45434869Y-46854939D01*
X45434869Y-46854939D02*
X45501536Y-46788272D01*
X45501536Y-46788272D02*
X45534869Y-46721605D01*
X45534869Y-46721605D02*
X45568202Y-46588272D01*
X45568202Y-46588272D02*
X45568202Y-46488272D01*
X45568202Y-46488272D02*
X45534869Y-46354939D01*
X45534869Y-46354939D02*
X45501536Y-46288272D01*
X45501536Y-46288272D02*
X45434869Y-46221605D01*
X45434869Y-46221605D02*
X45334869Y-46188272D01*
X45334869Y-46188272D02*
X45268202Y-46188272D01*
X45268202Y-46188272D02*
X45168202Y-46221605D01*
X45168202Y-46221605D02*
X45134869Y-46254939D01*
X44868202Y-46854939D02*
X44768202Y-46888272D01*
X44768202Y-46888272D02*
X44601536Y-46888272D01*
X44601536Y-46888272D02*
X44534869Y-46854939D01*
X44534869Y-46854939D02*
X44501536Y-46821605D01*
X44501536Y-46821605D02*
X44468202Y-46754939D01*
X44468202Y-46754939D02*
X44468202Y-46688272D01*
X44468202Y-46688272D02*
X44501536Y-46621605D01*
X44501536Y-46621605D02*
X44534869Y-46588272D01*
X44534869Y-46588272D02*
X44601536Y-46554939D01*
X44601536Y-46554939D02*
X44734869Y-46521605D01*
X44734869Y-46521605D02*
X44801536Y-46488272D01*
X44801536Y-46488272D02*
X44834869Y-46454939D01*
X44834869Y-46454939D02*
X44868202Y-46388272D01*
X44868202Y-46388272D02*
X44868202Y-46321605D01*
X44868202Y-46321605D02*
X44834869Y-46254939D01*
X44834869Y-46254939D02*
X44801536Y-46221605D01*
X44801536Y-46221605D02*
X44734869Y-46188272D01*
X44734869Y-46188272D02*
X44568202Y-46188272D01*
X44568202Y-46188272D02*
X44468202Y-46221605D01*
X43968202Y-47154939D02*
X44001535Y-47121605D01*
X44001535Y-47121605D02*
X44068202Y-47021605D01*
X44068202Y-47021605D02*
X44101535Y-46954939D01*
X44101535Y-46954939D02*
X44134869Y-46854939D01*
X44134869Y-46854939D02*
X44168202Y-46688272D01*
X44168202Y-46688272D02*
X44168202Y-46554939D01*
X44168202Y-46554939D02*
X44134869Y-46388272D01*
X44134869Y-46388272D02*
X44101535Y-46288272D01*
X44101535Y-46288272D02*
X44068202Y-46221605D01*
X44068202Y-46221605D02*
X44001535Y-46121605D01*
X44001535Y-46121605D02*
X43968202Y-46088272D01*
X43601535Y-46188272D02*
X43601535Y-46354939D01*
X43768202Y-46288272D02*
X43601535Y-46354939D01*
X43601535Y-46354939D02*
X43434868Y-46288272D01*
X43701535Y-46488272D02*
X43601535Y-46354939D01*
X43601535Y-46354939D02*
X43501535Y-46488272D01*
X43234869Y-47154939D02*
X43201535Y-47121605D01*
X43201535Y-47121605D02*
X43134869Y-47021605D01*
X43134869Y-47021605D02*
X43101535Y-46954939D01*
X43101535Y-46954939D02*
X43068202Y-46854939D01*
X43068202Y-46854939D02*
X43034869Y-46688272D01*
X43034869Y-46688272D02*
X43034869Y-46554939D01*
X43034869Y-46554939D02*
X43068202Y-46388272D01*
X43068202Y-46388272D02*
X43101535Y-46288272D01*
X43101535Y-46288272D02*
X43134869Y-46221605D01*
X43134869Y-46221605D02*
X43201535Y-46121605D01*
X43201535Y-46121605D02*
X43234869Y-46088272D01*
X50868202Y-47315233D02*
X50868202Y-47815233D01*
X50868202Y-47815233D02*
X50901535Y-47915233D01*
X50901535Y-47915233D02*
X50968202Y-47981900D01*
X50968202Y-47981900D02*
X51068202Y-48015233D01*
X51068202Y-48015233D02*
X51134869Y-48015233D01*
X50534869Y-48015233D02*
X50534869Y-47315233D01*
X50534869Y-47315233D02*
X50268202Y-47315233D01*
X50268202Y-47315233D02*
X50201536Y-47348566D01*
X50201536Y-47348566D02*
X50168202Y-47381900D01*
X50168202Y-47381900D02*
X50134869Y-47448566D01*
X50134869Y-47448566D02*
X50134869Y-47548566D01*
X50134869Y-47548566D02*
X50168202Y-47615233D01*
X50168202Y-47615233D02*
X50201536Y-47648566D01*
X50201536Y-47648566D02*
X50268202Y-47681900D01*
X50268202Y-47681900D02*
X50534869Y-47681900D01*
X49534869Y-47548566D02*
X49534869Y-48015233D01*
X49701536Y-47281900D02*
X49868202Y-47781900D01*
X49868202Y-47781900D02*
X49434869Y-47781900D01*
X49168202Y-47648566D02*
X48634869Y-47648566D01*
X48634869Y-47848566D02*
X49168202Y-47848566D01*
X47934868Y-47348566D02*
X48001535Y-47315233D01*
X48001535Y-47315233D02*
X48101535Y-47315233D01*
X48101535Y-47315233D02*
X48201535Y-47348566D01*
X48201535Y-47348566D02*
X48268202Y-47415233D01*
X48268202Y-47415233D02*
X48301535Y-47481900D01*
X48301535Y-47481900D02*
X48334868Y-47615233D01*
X48334868Y-47615233D02*
X48334868Y-47715233D01*
X48334868Y-47715233D02*
X48301535Y-47848566D01*
X48301535Y-47848566D02*
X48268202Y-47915233D01*
X48268202Y-47915233D02*
X48201535Y-47981900D01*
X48201535Y-47981900D02*
X48101535Y-48015233D01*
X48101535Y-48015233D02*
X48034868Y-48015233D01*
X48034868Y-48015233D02*
X47934868Y-47981900D01*
X47934868Y-47981900D02*
X47901535Y-47948566D01*
X47901535Y-47948566D02*
X47901535Y-47715233D01*
X47901535Y-47715233D02*
X48034868Y-47715233D01*
X47601535Y-48015233D02*
X47601535Y-47315233D01*
X47601535Y-47315233D02*
X47201535Y-48015233D01*
X47201535Y-48015233D02*
X47201535Y-47315233D01*
X46868202Y-48015233D02*
X46868202Y-47315233D01*
X46868202Y-47315233D02*
X46701535Y-47315233D01*
X46701535Y-47315233D02*
X46601535Y-47348566D01*
X46601535Y-47348566D02*
X46534869Y-47415233D01*
X46534869Y-47415233D02*
X46501535Y-47481900D01*
X46501535Y-47481900D02*
X46468202Y-47615233D01*
X46468202Y-47615233D02*
X46468202Y-47715233D01*
X46468202Y-47715233D02*
X46501535Y-47848566D01*
X46501535Y-47848566D02*
X46534869Y-47915233D01*
X46534869Y-47915233D02*
X46601535Y-47981900D01*
X46601535Y-47981900D02*
X46701535Y-48015233D01*
X46701535Y-48015233D02*
X46868202Y-48015233D01*
X72564869Y-43571311D02*
X72398202Y-44271311D01*
X72398202Y-44271311D02*
X72264869Y-43771311D01*
X72264869Y-43771311D02*
X72131535Y-44271311D01*
X72131535Y-44271311D02*
X71964869Y-43571311D01*
X71398202Y-44271311D02*
X71398202Y-43904644D01*
X71398202Y-43904644D02*
X71431535Y-43837978D01*
X71431535Y-43837978D02*
X71498202Y-43804644D01*
X71498202Y-43804644D02*
X71631535Y-43804644D01*
X71631535Y-43804644D02*
X71698202Y-43837978D01*
X71398202Y-44237978D02*
X71464869Y-44271311D01*
X71464869Y-44271311D02*
X71631535Y-44271311D01*
X71631535Y-44271311D02*
X71698202Y-44237978D01*
X71698202Y-44237978D02*
X71731535Y-44171311D01*
X71731535Y-44171311D02*
X71731535Y-44104644D01*
X71731535Y-44104644D02*
X71698202Y-44037978D01*
X71698202Y-44037978D02*
X71631535Y-44004644D01*
X71631535Y-44004644D02*
X71464869Y-44004644D01*
X71464869Y-44004644D02*
X71398202Y-43971311D01*
X71131536Y-43804644D02*
X70964869Y-44271311D01*
X70964869Y-44271311D02*
X70798202Y-43804644D01*
X70264869Y-44237978D02*
X70331536Y-44271311D01*
X70331536Y-44271311D02*
X70464869Y-44271311D01*
X70464869Y-44271311D02*
X70531536Y-44237978D01*
X70531536Y-44237978D02*
X70564869Y-44171311D01*
X70564869Y-44171311D02*
X70564869Y-43904644D01*
X70564869Y-43904644D02*
X70531536Y-43837978D01*
X70531536Y-43837978D02*
X70464869Y-43804644D01*
X70464869Y-43804644D02*
X70331536Y-43804644D01*
X70331536Y-43804644D02*
X70264869Y-43837978D01*
X70264869Y-43837978D02*
X70231536Y-43904644D01*
X70231536Y-43904644D02*
X70231536Y-43971311D01*
X70231536Y-43971311D02*
X70564869Y-44037978D01*
X69964869Y-44237978D02*
X69898203Y-44271311D01*
X69898203Y-44271311D02*
X69764869Y-44271311D01*
X69764869Y-44271311D02*
X69698203Y-44237978D01*
X69698203Y-44237978D02*
X69664869Y-44171311D01*
X69664869Y-44171311D02*
X69664869Y-44137978D01*
X69664869Y-44137978D02*
X69698203Y-44071311D01*
X69698203Y-44071311D02*
X69764869Y-44037978D01*
X69764869Y-44037978D02*
X69864869Y-44037978D01*
X69864869Y-44037978D02*
X69931536Y-44004644D01*
X69931536Y-44004644D02*
X69964869Y-43937978D01*
X69964869Y-43937978D02*
X69964869Y-43904644D01*
X69964869Y-43904644D02*
X69931536Y-43837978D01*
X69931536Y-43837978D02*
X69864869Y-43804644D01*
X69864869Y-43804644D02*
X69764869Y-43804644D01*
X69764869Y-43804644D02*
X69698203Y-43837978D01*
X69364869Y-44271311D02*
X69364869Y-43571311D01*
X69064869Y-44271311D02*
X69064869Y-43904644D01*
X69064869Y-43904644D02*
X69098202Y-43837978D01*
X69098202Y-43837978D02*
X69164869Y-43804644D01*
X69164869Y-43804644D02*
X69264869Y-43804644D01*
X69264869Y-43804644D02*
X69331536Y-43837978D01*
X69331536Y-43837978D02*
X69364869Y-43871311D01*
X68431536Y-44271311D02*
X68431536Y-43904644D01*
X68431536Y-43904644D02*
X68464869Y-43837978D01*
X68464869Y-43837978D02*
X68531536Y-43804644D01*
X68531536Y-43804644D02*
X68664869Y-43804644D01*
X68664869Y-43804644D02*
X68731536Y-43837978D01*
X68431536Y-44237978D02*
X68498203Y-44271311D01*
X68498203Y-44271311D02*
X68664869Y-44271311D01*
X68664869Y-44271311D02*
X68731536Y-44237978D01*
X68731536Y-44237978D02*
X68764869Y-44171311D01*
X68764869Y-44171311D02*
X68764869Y-44104644D01*
X68764869Y-44104644D02*
X68731536Y-44037978D01*
X68731536Y-44037978D02*
X68664869Y-44004644D01*
X68664869Y-44004644D02*
X68498203Y-44004644D01*
X68498203Y-44004644D02*
X68431536Y-43971311D01*
X68098203Y-44271311D02*
X68098203Y-43804644D01*
X68098203Y-43937978D02*
X68064870Y-43871311D01*
X68064870Y-43871311D02*
X68031536Y-43837978D01*
X68031536Y-43837978D02*
X67964870Y-43804644D01*
X67964870Y-43804644D02*
X67898203Y-43804644D01*
X67398203Y-44237978D02*
X67464870Y-44271311D01*
X67464870Y-44271311D02*
X67598203Y-44271311D01*
X67598203Y-44271311D02*
X67664870Y-44237978D01*
X67664870Y-44237978D02*
X67698203Y-44171311D01*
X67698203Y-44171311D02*
X67698203Y-43904644D01*
X67698203Y-43904644D02*
X67664870Y-43837978D01*
X67664870Y-43837978D02*
X67598203Y-43804644D01*
X67598203Y-43804644D02*
X67464870Y-43804644D01*
X67464870Y-43804644D02*
X67398203Y-43837978D01*
X67398203Y-43837978D02*
X67364870Y-43904644D01*
X67364870Y-43904644D02*
X67364870Y-43971311D01*
X67364870Y-43971311D02*
X67698203Y-44037978D01*
X66198204Y-44271311D02*
X66531537Y-44271311D01*
X66531537Y-44271311D02*
X66531537Y-43571311D01*
X65564870Y-44204644D02*
X65598203Y-44237978D01*
X65598203Y-44237978D02*
X65698203Y-44271311D01*
X65698203Y-44271311D02*
X65764870Y-44271311D01*
X65764870Y-44271311D02*
X65864870Y-44237978D01*
X65864870Y-44237978D02*
X65931537Y-44171311D01*
X65931537Y-44171311D02*
X65964870Y-44104644D01*
X65964870Y-44104644D02*
X65998203Y-43971311D01*
X65998203Y-43971311D02*
X65998203Y-43871311D01*
X65998203Y-43871311D02*
X65964870Y-43737978D01*
X65964870Y-43737978D02*
X65931537Y-43671311D01*
X65931537Y-43671311D02*
X65864870Y-43604644D01*
X65864870Y-43604644D02*
X65764870Y-43571311D01*
X65764870Y-43571311D02*
X65698203Y-43571311D01*
X65698203Y-43571311D02*
X65598203Y-43604644D01*
X65598203Y-43604644D02*
X65564870Y-43637978D01*
X65264870Y-44004644D02*
X64731537Y-44004644D01*
X64164870Y-43904644D02*
X64064870Y-43937978D01*
X64064870Y-43937978D02*
X64031536Y-43971311D01*
X64031536Y-43971311D02*
X63998203Y-44037978D01*
X63998203Y-44037978D02*
X63998203Y-44137978D01*
X63998203Y-44137978D02*
X64031536Y-44204644D01*
X64031536Y-44204644D02*
X64064870Y-44237978D01*
X64064870Y-44237978D02*
X64131536Y-44271311D01*
X64131536Y-44271311D02*
X64398203Y-44271311D01*
X64398203Y-44271311D02*
X64398203Y-43571311D01*
X64398203Y-43571311D02*
X64164870Y-43571311D01*
X64164870Y-43571311D02*
X64098203Y-43604644D01*
X64098203Y-43604644D02*
X64064870Y-43637978D01*
X64064870Y-43637978D02*
X64031536Y-43704644D01*
X64031536Y-43704644D02*
X64031536Y-43771311D01*
X64031536Y-43771311D02*
X64064870Y-43837978D01*
X64064870Y-43837978D02*
X64098203Y-43871311D01*
X64098203Y-43871311D02*
X64164870Y-43904644D01*
X64164870Y-43904644D02*
X64398203Y-43904644D01*
X63364870Y-44271311D02*
X63698203Y-44271311D01*
X63698203Y-44271311D02*
X63698203Y-43571311D01*
X72298202Y-44698272D02*
X72298202Y-45198272D01*
X72298202Y-45198272D02*
X72331535Y-45298272D01*
X72331535Y-45298272D02*
X72398202Y-45364939D01*
X72398202Y-45364939D02*
X72498202Y-45398272D01*
X72498202Y-45398272D02*
X72564869Y-45398272D01*
X71964869Y-45398272D02*
X71964869Y-44698272D01*
X71964869Y-44698272D02*
X71698202Y-44698272D01*
X71698202Y-44698272D02*
X71631536Y-44731605D01*
X71631536Y-44731605D02*
X71598202Y-44764939D01*
X71598202Y-44764939D02*
X71564869Y-44831605D01*
X71564869Y-44831605D02*
X71564869Y-44931605D01*
X71564869Y-44931605D02*
X71598202Y-44998272D01*
X71598202Y-44998272D02*
X71631536Y-45031605D01*
X71631536Y-45031605D02*
X71698202Y-45064939D01*
X71698202Y-45064939D02*
X71964869Y-45064939D01*
X70898202Y-45398272D02*
X71298202Y-45398272D01*
X71098202Y-45398272D02*
X71098202Y-44698272D01*
X71098202Y-44698272D02*
X71164869Y-44798272D01*
X71164869Y-44798272D02*
X71231536Y-44864939D01*
X71231536Y-44864939D02*
X71298202Y-44898272D01*
X70598202Y-45031605D02*
X70064869Y-45031605D01*
X70064869Y-45231605D02*
X70598202Y-45231605D01*
X69798202Y-44698272D02*
X69364868Y-44698272D01*
X69364868Y-44698272D02*
X69598202Y-44964939D01*
X69598202Y-44964939D02*
X69498202Y-44964939D01*
X69498202Y-44964939D02*
X69431535Y-44998272D01*
X69431535Y-44998272D02*
X69398202Y-45031605D01*
X69398202Y-45031605D02*
X69364868Y-45098272D01*
X69364868Y-45098272D02*
X69364868Y-45264939D01*
X69364868Y-45264939D02*
X69398202Y-45331605D01*
X69398202Y-45331605D02*
X69431535Y-45364939D01*
X69431535Y-45364939D02*
X69498202Y-45398272D01*
X69498202Y-45398272D02*
X69698202Y-45398272D01*
X69698202Y-45398272D02*
X69764868Y-45364939D01*
X69764868Y-45364939D02*
X69798202Y-45331605D01*
X69131535Y-44931605D02*
X68964868Y-45398272D01*
X68964868Y-45398272D02*
X68798201Y-44931605D01*
X68598202Y-44698272D02*
X68164868Y-44698272D01*
X68164868Y-44698272D02*
X68398202Y-44964939D01*
X68398202Y-44964939D02*
X68298202Y-44964939D01*
X68298202Y-44964939D02*
X68231535Y-44998272D01*
X68231535Y-44998272D02*
X68198202Y-45031605D01*
X68198202Y-45031605D02*
X68164868Y-45098272D01*
X68164868Y-45098272D02*
X68164868Y-45264939D01*
X68164868Y-45264939D02*
X68198202Y-45331605D01*
X68198202Y-45331605D02*
X68231535Y-45364939D01*
X68231535Y-45364939D02*
X68298202Y-45398272D01*
X68298202Y-45398272D02*
X68498202Y-45398272D01*
X68498202Y-45398272D02*
X68564868Y-45364939D01*
X68564868Y-45364939D02*
X68598202Y-45331605D01*
X67664868Y-45664939D02*
X67698201Y-45631605D01*
X67698201Y-45631605D02*
X67764868Y-45531605D01*
X67764868Y-45531605D02*
X67798201Y-45464939D01*
X67798201Y-45464939D02*
X67831535Y-45364939D01*
X67831535Y-45364939D02*
X67864868Y-45198272D01*
X67864868Y-45198272D02*
X67864868Y-45064939D01*
X67864868Y-45064939D02*
X67831535Y-44898272D01*
X67831535Y-44898272D02*
X67798201Y-44798272D01*
X67798201Y-44798272D02*
X67764868Y-44731605D01*
X67764868Y-44731605D02*
X67698201Y-44631605D01*
X67698201Y-44631605D02*
X67664868Y-44598272D01*
X67298201Y-44698272D02*
X67298201Y-44864939D01*
X67464868Y-44798272D02*
X67298201Y-44864939D01*
X67298201Y-44864939D02*
X67131534Y-44798272D01*
X67398201Y-44998272D02*
X67298201Y-44864939D01*
X67298201Y-44864939D02*
X67198201Y-44998272D01*
X66931535Y-45664939D02*
X66898201Y-45631605D01*
X66898201Y-45631605D02*
X66831535Y-45531605D01*
X66831535Y-45531605D02*
X66798201Y-45464939D01*
X66798201Y-45464939D02*
X66764868Y-45364939D01*
X66764868Y-45364939D02*
X66731535Y-45198272D01*
X66731535Y-45198272D02*
X66731535Y-45064939D01*
X66731535Y-45064939D02*
X66764868Y-44898272D01*
X66764868Y-44898272D02*
X66798201Y-44798272D01*
X66798201Y-44798272D02*
X66831535Y-44731605D01*
X66831535Y-44731605D02*
X66898201Y-44631605D01*
X66898201Y-44631605D02*
X66931535Y-44598272D01*
X72298202Y-45825233D02*
X72298202Y-46325233D01*
X72298202Y-46325233D02*
X72331535Y-46425233D01*
X72331535Y-46425233D02*
X72398202Y-46491900D01*
X72398202Y-46491900D02*
X72498202Y-46525233D01*
X72498202Y-46525233D02*
X72564869Y-46525233D01*
X71964869Y-46525233D02*
X71964869Y-45825233D01*
X71964869Y-45825233D02*
X71698202Y-45825233D01*
X71698202Y-45825233D02*
X71631536Y-45858566D01*
X71631536Y-45858566D02*
X71598202Y-45891900D01*
X71598202Y-45891900D02*
X71564869Y-45958566D01*
X71564869Y-45958566D02*
X71564869Y-46058566D01*
X71564869Y-46058566D02*
X71598202Y-46125233D01*
X71598202Y-46125233D02*
X71631536Y-46158566D01*
X71631536Y-46158566D02*
X71698202Y-46191900D01*
X71698202Y-46191900D02*
X71964869Y-46191900D01*
X71298202Y-45891900D02*
X71264869Y-45858566D01*
X71264869Y-45858566D02*
X71198202Y-45825233D01*
X71198202Y-45825233D02*
X71031536Y-45825233D01*
X71031536Y-45825233D02*
X70964869Y-45858566D01*
X70964869Y-45858566D02*
X70931536Y-45891900D01*
X70931536Y-45891900D02*
X70898202Y-45958566D01*
X70898202Y-45958566D02*
X70898202Y-46025233D01*
X70898202Y-46025233D02*
X70931536Y-46125233D01*
X70931536Y-46125233D02*
X71331536Y-46525233D01*
X71331536Y-46525233D02*
X70898202Y-46525233D01*
X70598202Y-46158566D02*
X70064869Y-46158566D01*
X70064869Y-46358566D02*
X70598202Y-46358566D01*
X69731535Y-46525233D02*
X69731535Y-45825233D01*
X69731535Y-45825233D02*
X69498202Y-46325233D01*
X69498202Y-46325233D02*
X69264868Y-45825233D01*
X69264868Y-45825233D02*
X69264868Y-46525233D01*
X68531535Y-46458566D02*
X68564868Y-46491900D01*
X68564868Y-46491900D02*
X68664868Y-46525233D01*
X68664868Y-46525233D02*
X68731535Y-46525233D01*
X68731535Y-46525233D02*
X68831535Y-46491900D01*
X68831535Y-46491900D02*
X68898202Y-46425233D01*
X68898202Y-46425233D02*
X68931535Y-46358566D01*
X68931535Y-46358566D02*
X68964868Y-46225233D01*
X68964868Y-46225233D02*
X68964868Y-46125233D01*
X68964868Y-46125233D02*
X68931535Y-45991900D01*
X68931535Y-45991900D02*
X68898202Y-45925233D01*
X68898202Y-45925233D02*
X68831535Y-45858566D01*
X68831535Y-45858566D02*
X68731535Y-45825233D01*
X68731535Y-45825233D02*
X68664868Y-45825233D01*
X68664868Y-45825233D02*
X68564868Y-45858566D01*
X68564868Y-45858566D02*
X68531535Y-45891900D01*
X68231535Y-45825233D02*
X68231535Y-46391900D01*
X68231535Y-46391900D02*
X68198202Y-46458566D01*
X68198202Y-46458566D02*
X68164868Y-46491900D01*
X68164868Y-46491900D02*
X68098202Y-46525233D01*
X68098202Y-46525233D02*
X67964868Y-46525233D01*
X67964868Y-46525233D02*
X67898202Y-46491900D01*
X67898202Y-46491900D02*
X67864868Y-46458566D01*
X67864868Y-46458566D02*
X67831535Y-46391900D01*
X67831535Y-46391900D02*
X67831535Y-45825233D01*
X67664869Y-46591900D02*
X67131535Y-46591900D01*
X66731536Y-46158566D02*
X66631536Y-46191900D01*
X66631536Y-46191900D02*
X66598202Y-46225233D01*
X66598202Y-46225233D02*
X66564869Y-46291900D01*
X66564869Y-46291900D02*
X66564869Y-46391900D01*
X66564869Y-46391900D02*
X66598202Y-46458566D01*
X66598202Y-46458566D02*
X66631536Y-46491900D01*
X66631536Y-46491900D02*
X66698202Y-46525233D01*
X66698202Y-46525233D02*
X66964869Y-46525233D01*
X66964869Y-46525233D02*
X66964869Y-45825233D01*
X66964869Y-45825233D02*
X66731536Y-45825233D01*
X66731536Y-45825233D02*
X66664869Y-45858566D01*
X66664869Y-45858566D02*
X66631536Y-45891900D01*
X66631536Y-45891900D02*
X66598202Y-45958566D01*
X66598202Y-45958566D02*
X66598202Y-46025233D01*
X66598202Y-46025233D02*
X66631536Y-46091900D01*
X66631536Y-46091900D02*
X66664869Y-46125233D01*
X66664869Y-46125233D02*
X66731536Y-46158566D01*
X66731536Y-46158566D02*
X66964869Y-46158566D01*
X65931536Y-46525233D02*
X66264869Y-46525233D01*
X66264869Y-46525233D02*
X66264869Y-45825233D01*
X72698202Y-34754350D02*
X72698202Y-34054350D01*
X72698202Y-34054350D02*
X72431535Y-34054350D01*
X72431535Y-34054350D02*
X72364869Y-34087683D01*
X72364869Y-34087683D02*
X72331535Y-34121017D01*
X72331535Y-34121017D02*
X72298202Y-34187683D01*
X72298202Y-34187683D02*
X72298202Y-34287683D01*
X72298202Y-34287683D02*
X72331535Y-34354350D01*
X72331535Y-34354350D02*
X72364869Y-34387683D01*
X72364869Y-34387683D02*
X72431535Y-34421017D01*
X72431535Y-34421017D02*
X72698202Y-34421017D01*
X71998202Y-34754350D02*
X71998202Y-34287683D01*
X71998202Y-34054350D02*
X72031535Y-34087683D01*
X72031535Y-34087683D02*
X71998202Y-34121017D01*
X71998202Y-34121017D02*
X71964869Y-34087683D01*
X71964869Y-34087683D02*
X71998202Y-34054350D01*
X71998202Y-34054350D02*
X71998202Y-34121017D01*
X71664869Y-34287683D02*
X71664869Y-34754350D01*
X71664869Y-34354350D02*
X71631536Y-34321017D01*
X71631536Y-34321017D02*
X71564869Y-34287683D01*
X71564869Y-34287683D02*
X71464869Y-34287683D01*
X71464869Y-34287683D02*
X71398202Y-34321017D01*
X71398202Y-34321017D02*
X71364869Y-34387683D01*
X71364869Y-34387683D02*
X71364869Y-34754350D01*
X70198203Y-34054350D02*
X70331536Y-34054350D01*
X70331536Y-34054350D02*
X70398203Y-34087683D01*
X70398203Y-34087683D02*
X70431536Y-34121017D01*
X70431536Y-34121017D02*
X70498203Y-34221017D01*
X70498203Y-34221017D02*
X70531536Y-34354350D01*
X70531536Y-34354350D02*
X70531536Y-34621017D01*
X70531536Y-34621017D02*
X70498203Y-34687683D01*
X70498203Y-34687683D02*
X70464870Y-34721017D01*
X70464870Y-34721017D02*
X70398203Y-34754350D01*
X70398203Y-34754350D02*
X70264870Y-34754350D01*
X70264870Y-34754350D02*
X70198203Y-34721017D01*
X70198203Y-34721017D02*
X70164870Y-34687683D01*
X70164870Y-34687683D02*
X70131536Y-34621017D01*
X70131536Y-34621017D02*
X70131536Y-34454350D01*
X70131536Y-34454350D02*
X70164870Y-34387683D01*
X70164870Y-34387683D02*
X70198203Y-34354350D01*
X70198203Y-34354350D02*
X70264870Y-34321017D01*
X70264870Y-34321017D02*
X70398203Y-34321017D01*
X70398203Y-34321017D02*
X70464870Y-34354350D01*
X70464870Y-34354350D02*
X70498203Y-34387683D01*
X70498203Y-34387683D02*
X70531536Y-34454350D01*
X69064870Y-34387683D02*
X69298203Y-34387683D01*
X69298203Y-34754350D02*
X69298203Y-34054350D01*
X69298203Y-34054350D02*
X68964870Y-34054350D01*
X68398203Y-34287683D02*
X68398203Y-34754350D01*
X68698203Y-34287683D02*
X68698203Y-34654350D01*
X68698203Y-34654350D02*
X68664870Y-34721017D01*
X68664870Y-34721017D02*
X68598203Y-34754350D01*
X68598203Y-34754350D02*
X68498203Y-34754350D01*
X68498203Y-34754350D02*
X68431536Y-34721017D01*
X68431536Y-34721017D02*
X68398203Y-34687683D01*
X68064870Y-34287683D02*
X68064870Y-34754350D01*
X68064870Y-34354350D02*
X68031537Y-34321017D01*
X68031537Y-34321017D02*
X67964870Y-34287683D01*
X67964870Y-34287683D02*
X67864870Y-34287683D01*
X67864870Y-34287683D02*
X67798203Y-34321017D01*
X67798203Y-34321017D02*
X67764870Y-34387683D01*
X67764870Y-34387683D02*
X67764870Y-34754350D01*
X67131537Y-34721017D02*
X67198204Y-34754350D01*
X67198204Y-34754350D02*
X67331537Y-34754350D01*
X67331537Y-34754350D02*
X67398204Y-34721017D01*
X67398204Y-34721017D02*
X67431537Y-34687683D01*
X67431537Y-34687683D02*
X67464870Y-34621017D01*
X67464870Y-34621017D02*
X67464870Y-34421017D01*
X67464870Y-34421017D02*
X67431537Y-34354350D01*
X67431537Y-34354350D02*
X67398204Y-34321017D01*
X67398204Y-34321017D02*
X67331537Y-34287683D01*
X67331537Y-34287683D02*
X67198204Y-34287683D01*
X67198204Y-34287683D02*
X67131537Y-34321017D01*
X66931537Y-34287683D02*
X66664870Y-34287683D01*
X66831537Y-34054350D02*
X66831537Y-34654350D01*
X66831537Y-34654350D02*
X66798204Y-34721017D01*
X66798204Y-34721017D02*
X66731537Y-34754350D01*
X66731537Y-34754350D02*
X66664870Y-34754350D01*
X66431537Y-34754350D02*
X66431537Y-34287683D01*
X66431537Y-34054350D02*
X66464870Y-34087683D01*
X66464870Y-34087683D02*
X66431537Y-34121017D01*
X66431537Y-34121017D02*
X66398204Y-34087683D01*
X66398204Y-34087683D02*
X66431537Y-34054350D01*
X66431537Y-34054350D02*
X66431537Y-34121017D01*
X65998204Y-34754350D02*
X66064871Y-34721017D01*
X66064871Y-34721017D02*
X66098204Y-34687683D01*
X66098204Y-34687683D02*
X66131537Y-34621017D01*
X66131537Y-34621017D02*
X66131537Y-34421017D01*
X66131537Y-34421017D02*
X66098204Y-34354350D01*
X66098204Y-34354350D02*
X66064871Y-34321017D01*
X66064871Y-34321017D02*
X65998204Y-34287683D01*
X65998204Y-34287683D02*
X65898204Y-34287683D01*
X65898204Y-34287683D02*
X65831537Y-34321017D01*
X65831537Y-34321017D02*
X65798204Y-34354350D01*
X65798204Y-34354350D02*
X65764871Y-34421017D01*
X65764871Y-34421017D02*
X65764871Y-34621017D01*
X65764871Y-34621017D02*
X65798204Y-34687683D01*
X65798204Y-34687683D02*
X65831537Y-34721017D01*
X65831537Y-34721017D02*
X65898204Y-34754350D01*
X65898204Y-34754350D02*
X65998204Y-34754350D01*
X65464871Y-34287683D02*
X65464871Y-34754350D01*
X65464871Y-34354350D02*
X65431538Y-34321017D01*
X65431538Y-34321017D02*
X65364871Y-34287683D01*
X65364871Y-34287683D02*
X65264871Y-34287683D01*
X65264871Y-34287683D02*
X65198204Y-34321017D01*
X65198204Y-34321017D02*
X65164871Y-34387683D01*
X65164871Y-34387683D02*
X65164871Y-34754350D01*
X72498202Y-35181311D02*
X72498202Y-35681311D01*
X72498202Y-35681311D02*
X72531535Y-35781311D01*
X72531535Y-35781311D02*
X72598202Y-35847978D01*
X72598202Y-35847978D02*
X72698202Y-35881311D01*
X72698202Y-35881311D02*
X72764869Y-35881311D01*
X72164869Y-35881311D02*
X72164869Y-35181311D01*
X72164869Y-35181311D02*
X71898202Y-35181311D01*
X71898202Y-35181311D02*
X71831536Y-35214644D01*
X71831536Y-35214644D02*
X71798202Y-35247978D01*
X71798202Y-35247978D02*
X71764869Y-35314644D01*
X71764869Y-35314644D02*
X71764869Y-35414644D01*
X71764869Y-35414644D02*
X71798202Y-35481311D01*
X71798202Y-35481311D02*
X71831536Y-35514644D01*
X71831536Y-35514644D02*
X71898202Y-35547978D01*
X71898202Y-35547978D02*
X72164869Y-35547978D01*
X71131536Y-35181311D02*
X71464869Y-35181311D01*
X71464869Y-35181311D02*
X71498202Y-35514644D01*
X71498202Y-35514644D02*
X71464869Y-35481311D01*
X71464869Y-35481311D02*
X71398202Y-35447978D01*
X71398202Y-35447978D02*
X71231536Y-35447978D01*
X71231536Y-35447978D02*
X71164869Y-35481311D01*
X71164869Y-35481311D02*
X71131536Y-35514644D01*
X71131536Y-35514644D02*
X71098202Y-35581311D01*
X71098202Y-35581311D02*
X71098202Y-35747978D01*
X71098202Y-35747978D02*
X71131536Y-35814644D01*
X71131536Y-35814644D02*
X71164869Y-35847978D01*
X71164869Y-35847978D02*
X71231536Y-35881311D01*
X71231536Y-35881311D02*
X71398202Y-35881311D01*
X71398202Y-35881311D02*
X71464869Y-35847978D01*
X71464869Y-35847978D02*
X71498202Y-35814644D01*
X70798202Y-35514644D02*
X70264869Y-35514644D01*
X70264869Y-35714644D02*
X70798202Y-35714644D01*
X69964868Y-35847978D02*
X69864868Y-35881311D01*
X69864868Y-35881311D02*
X69698202Y-35881311D01*
X69698202Y-35881311D02*
X69631535Y-35847978D01*
X69631535Y-35847978D02*
X69598202Y-35814644D01*
X69598202Y-35814644D02*
X69564868Y-35747978D01*
X69564868Y-35747978D02*
X69564868Y-35681311D01*
X69564868Y-35681311D02*
X69598202Y-35614644D01*
X69598202Y-35614644D02*
X69631535Y-35581311D01*
X69631535Y-35581311D02*
X69698202Y-35547978D01*
X69698202Y-35547978D02*
X69831535Y-35514644D01*
X69831535Y-35514644D02*
X69898202Y-35481311D01*
X69898202Y-35481311D02*
X69931535Y-35447978D01*
X69931535Y-35447978D02*
X69964868Y-35381311D01*
X69964868Y-35381311D02*
X69964868Y-35314644D01*
X69964868Y-35314644D02*
X69931535Y-35247978D01*
X69931535Y-35247978D02*
X69898202Y-35214644D01*
X69898202Y-35214644D02*
X69831535Y-35181311D01*
X69831535Y-35181311D02*
X69664868Y-35181311D01*
X69664868Y-35181311D02*
X69564868Y-35214644D01*
X69264868Y-35881311D02*
X69264868Y-35181311D01*
X69264868Y-35181311D02*
X68998201Y-35181311D01*
X68998201Y-35181311D02*
X68931535Y-35214644D01*
X68931535Y-35214644D02*
X68898201Y-35247978D01*
X68898201Y-35247978D02*
X68864868Y-35314644D01*
X68864868Y-35314644D02*
X68864868Y-35414644D01*
X68864868Y-35414644D02*
X68898201Y-35481311D01*
X68898201Y-35481311D02*
X68931535Y-35514644D01*
X68931535Y-35514644D02*
X68998201Y-35547978D01*
X68998201Y-35547978D02*
X69264868Y-35547978D01*
X68564868Y-35881311D02*
X68564868Y-35181311D01*
X68398202Y-35947978D02*
X67864868Y-35947978D01*
X67298202Y-35814644D02*
X67331535Y-35847978D01*
X67331535Y-35847978D02*
X67431535Y-35881311D01*
X67431535Y-35881311D02*
X67498202Y-35881311D01*
X67498202Y-35881311D02*
X67598202Y-35847978D01*
X67598202Y-35847978D02*
X67664869Y-35781311D01*
X67664869Y-35781311D02*
X67698202Y-35714644D01*
X67698202Y-35714644D02*
X67731535Y-35581311D01*
X67731535Y-35581311D02*
X67731535Y-35481311D01*
X67731535Y-35481311D02*
X67698202Y-35347978D01*
X67698202Y-35347978D02*
X67664869Y-35281311D01*
X67664869Y-35281311D02*
X67598202Y-35214644D01*
X67598202Y-35214644D02*
X67498202Y-35181311D01*
X67498202Y-35181311D02*
X67431535Y-35181311D01*
X67431535Y-35181311D02*
X67331535Y-35214644D01*
X67331535Y-35214644D02*
X67298202Y-35247978D01*
X67031535Y-35847978D02*
X66931535Y-35881311D01*
X66931535Y-35881311D02*
X66764869Y-35881311D01*
X66764869Y-35881311D02*
X66698202Y-35847978D01*
X66698202Y-35847978D02*
X66664869Y-35814644D01*
X66664869Y-35814644D02*
X66631535Y-35747978D01*
X66631535Y-35747978D02*
X66631535Y-35681311D01*
X66631535Y-35681311D02*
X66664869Y-35614644D01*
X66664869Y-35614644D02*
X66698202Y-35581311D01*
X66698202Y-35581311D02*
X66764869Y-35547978D01*
X66764869Y-35547978D02*
X66898202Y-35514644D01*
X66898202Y-35514644D02*
X66964869Y-35481311D01*
X66964869Y-35481311D02*
X66998202Y-35447978D01*
X66998202Y-35447978D02*
X67031535Y-35381311D01*
X67031535Y-35381311D02*
X67031535Y-35314644D01*
X67031535Y-35314644D02*
X66998202Y-35247978D01*
X66998202Y-35247978D02*
X66964869Y-35214644D01*
X66964869Y-35214644D02*
X66898202Y-35181311D01*
X66898202Y-35181311D02*
X66731535Y-35181311D01*
X66731535Y-35181311D02*
X66631535Y-35214644D01*
X65598202Y-36147978D02*
X65631535Y-36114644D01*
X65631535Y-36114644D02*
X65698202Y-36014644D01*
X65698202Y-36014644D02*
X65731535Y-35947978D01*
X65731535Y-35947978D02*
X65764869Y-35847978D01*
X65764869Y-35847978D02*
X65798202Y-35681311D01*
X65798202Y-35681311D02*
X65798202Y-35547978D01*
X65798202Y-35547978D02*
X65764869Y-35381311D01*
X65764869Y-35381311D02*
X65731535Y-35281311D01*
X65731535Y-35281311D02*
X65698202Y-35214644D01*
X65698202Y-35214644D02*
X65631535Y-35114644D01*
X65631535Y-35114644D02*
X65598202Y-35081311D01*
X65231535Y-35181311D02*
X65231535Y-35347978D01*
X65398202Y-35281311D02*
X65231535Y-35347978D01*
X65231535Y-35347978D02*
X65064868Y-35281311D01*
X65331535Y-35481311D02*
X65231535Y-35347978D01*
X65231535Y-35347978D02*
X65131535Y-35481311D01*
X64864869Y-36147978D02*
X64831535Y-36114644D01*
X64831535Y-36114644D02*
X64764869Y-36014644D01*
X64764869Y-36014644D02*
X64731535Y-35947978D01*
X64731535Y-35947978D02*
X64698202Y-35847978D01*
X64698202Y-35847978D02*
X64664869Y-35681311D01*
X64664869Y-35681311D02*
X64664869Y-35547978D01*
X64664869Y-35547978D02*
X64698202Y-35381311D01*
X64698202Y-35381311D02*
X64731535Y-35281311D01*
X64731535Y-35281311D02*
X64764869Y-35214644D01*
X64764869Y-35214644D02*
X64831535Y-35114644D01*
X64831535Y-35114644D02*
X64864869Y-35081311D01*
X72498202Y-36308272D02*
X72498202Y-36808272D01*
X72498202Y-36808272D02*
X72531535Y-36908272D01*
X72531535Y-36908272D02*
X72598202Y-36974939D01*
X72598202Y-36974939D02*
X72698202Y-37008272D01*
X72698202Y-37008272D02*
X72764869Y-37008272D01*
X72164869Y-37008272D02*
X72164869Y-36308272D01*
X72164869Y-36308272D02*
X71898202Y-36308272D01*
X71898202Y-36308272D02*
X71831536Y-36341605D01*
X71831536Y-36341605D02*
X71798202Y-36374939D01*
X71798202Y-36374939D02*
X71764869Y-36441605D01*
X71764869Y-36441605D02*
X71764869Y-36541605D01*
X71764869Y-36541605D02*
X71798202Y-36608272D01*
X71798202Y-36608272D02*
X71831536Y-36641605D01*
X71831536Y-36641605D02*
X71898202Y-36674939D01*
X71898202Y-36674939D02*
X72164869Y-36674939D01*
X71164869Y-36308272D02*
X71298202Y-36308272D01*
X71298202Y-36308272D02*
X71364869Y-36341605D01*
X71364869Y-36341605D02*
X71398202Y-36374939D01*
X71398202Y-36374939D02*
X71464869Y-36474939D01*
X71464869Y-36474939D02*
X71498202Y-36608272D01*
X71498202Y-36608272D02*
X71498202Y-36874939D01*
X71498202Y-36874939D02*
X71464869Y-36941605D01*
X71464869Y-36941605D02*
X71431536Y-36974939D01*
X71431536Y-36974939D02*
X71364869Y-37008272D01*
X71364869Y-37008272D02*
X71231536Y-37008272D01*
X71231536Y-37008272D02*
X71164869Y-36974939D01*
X71164869Y-36974939D02*
X71131536Y-36941605D01*
X71131536Y-36941605D02*
X71098202Y-36874939D01*
X71098202Y-36874939D02*
X71098202Y-36708272D01*
X71098202Y-36708272D02*
X71131536Y-36641605D01*
X71131536Y-36641605D02*
X71164869Y-36608272D01*
X71164869Y-36608272D02*
X71231536Y-36574939D01*
X71231536Y-36574939D02*
X71364869Y-36574939D01*
X71364869Y-36574939D02*
X71431536Y-36608272D01*
X71431536Y-36608272D02*
X71464869Y-36641605D01*
X71464869Y-36641605D02*
X71498202Y-36708272D01*
X70798202Y-36641605D02*
X70264869Y-36641605D01*
X70264869Y-36841605D02*
X70798202Y-36841605D01*
X69698202Y-36641605D02*
X69598202Y-36674939D01*
X69598202Y-36674939D02*
X69564868Y-36708272D01*
X69564868Y-36708272D02*
X69531535Y-36774939D01*
X69531535Y-36774939D02*
X69531535Y-36874939D01*
X69531535Y-36874939D02*
X69564868Y-36941605D01*
X69564868Y-36941605D02*
X69598202Y-36974939D01*
X69598202Y-36974939D02*
X69664868Y-37008272D01*
X69664868Y-37008272D02*
X69931535Y-37008272D01*
X69931535Y-37008272D02*
X69931535Y-36308272D01*
X69931535Y-36308272D02*
X69698202Y-36308272D01*
X69698202Y-36308272D02*
X69631535Y-36341605D01*
X69631535Y-36341605D02*
X69598202Y-36374939D01*
X69598202Y-36374939D02*
X69564868Y-36441605D01*
X69564868Y-36441605D02*
X69564868Y-36508272D01*
X69564868Y-36508272D02*
X69598202Y-36574939D01*
X69598202Y-36574939D02*
X69631535Y-36608272D01*
X69631535Y-36608272D02*
X69698202Y-36641605D01*
X69698202Y-36641605D02*
X69931535Y-36641605D01*
X68931535Y-37008272D02*
X68931535Y-36641605D01*
X68931535Y-36641605D02*
X68964868Y-36574939D01*
X68964868Y-36574939D02*
X69031535Y-36541605D01*
X69031535Y-36541605D02*
X69164868Y-36541605D01*
X69164868Y-36541605D02*
X69231535Y-36574939D01*
X68931535Y-36974939D02*
X68998202Y-37008272D01*
X68998202Y-37008272D02*
X69164868Y-37008272D01*
X69164868Y-37008272D02*
X69231535Y-36974939D01*
X69231535Y-36974939D02*
X69264868Y-36908272D01*
X69264868Y-36908272D02*
X69264868Y-36841605D01*
X69264868Y-36841605D02*
X69231535Y-36774939D01*
X69231535Y-36774939D02*
X69164868Y-36741605D01*
X69164868Y-36741605D02*
X68998202Y-36741605D01*
X68998202Y-36741605D02*
X68931535Y-36708272D01*
X68298202Y-36974939D02*
X68364869Y-37008272D01*
X68364869Y-37008272D02*
X68498202Y-37008272D01*
X68498202Y-37008272D02*
X68564869Y-36974939D01*
X68564869Y-36974939D02*
X68598202Y-36941605D01*
X68598202Y-36941605D02*
X68631535Y-36874939D01*
X68631535Y-36874939D02*
X68631535Y-36674939D01*
X68631535Y-36674939D02*
X68598202Y-36608272D01*
X68598202Y-36608272D02*
X68564869Y-36574939D01*
X68564869Y-36574939D02*
X68498202Y-36541605D01*
X68498202Y-36541605D02*
X68364869Y-36541605D01*
X68364869Y-36541605D02*
X68298202Y-36574939D01*
X67998202Y-37008272D02*
X67998202Y-36308272D01*
X67931535Y-36741605D02*
X67731535Y-37008272D01*
X67731535Y-36541605D02*
X67998202Y-36808272D01*
X67331535Y-37008272D02*
X67398202Y-36974939D01*
X67398202Y-36974939D02*
X67431535Y-36908272D01*
X67431535Y-36908272D02*
X67431535Y-36308272D01*
X67064868Y-37008272D02*
X67064868Y-36541605D01*
X67064868Y-36308272D02*
X67098201Y-36341605D01*
X67098201Y-36341605D02*
X67064868Y-36374939D01*
X67064868Y-36374939D02*
X67031535Y-36341605D01*
X67031535Y-36341605D02*
X67064868Y-36308272D01*
X67064868Y-36308272D02*
X67064868Y-36374939D01*
X66431535Y-36541605D02*
X66431535Y-37108272D01*
X66431535Y-37108272D02*
X66464868Y-37174939D01*
X66464868Y-37174939D02*
X66498202Y-37208272D01*
X66498202Y-37208272D02*
X66564868Y-37241605D01*
X66564868Y-37241605D02*
X66664868Y-37241605D01*
X66664868Y-37241605D02*
X66731535Y-37208272D01*
X66431535Y-36974939D02*
X66498202Y-37008272D01*
X66498202Y-37008272D02*
X66631535Y-37008272D01*
X66631535Y-37008272D02*
X66698202Y-36974939D01*
X66698202Y-36974939D02*
X66731535Y-36941605D01*
X66731535Y-36941605D02*
X66764868Y-36874939D01*
X66764868Y-36874939D02*
X66764868Y-36674939D01*
X66764868Y-36674939D02*
X66731535Y-36608272D01*
X66731535Y-36608272D02*
X66698202Y-36574939D01*
X66698202Y-36574939D02*
X66631535Y-36541605D01*
X66631535Y-36541605D02*
X66498202Y-36541605D01*
X66498202Y-36541605D02*
X66431535Y-36574939D01*
X66098202Y-37008272D02*
X66098202Y-36308272D01*
X65798202Y-37008272D02*
X65798202Y-36641605D01*
X65798202Y-36641605D02*
X65831535Y-36574939D01*
X65831535Y-36574939D02*
X65898202Y-36541605D01*
X65898202Y-36541605D02*
X65998202Y-36541605D01*
X65998202Y-36541605D02*
X66064869Y-36574939D01*
X66064869Y-36574939D02*
X66098202Y-36608272D01*
X65564869Y-36541605D02*
X65298202Y-36541605D01*
X65464869Y-36308272D02*
X65464869Y-36908272D01*
X65464869Y-36908272D02*
X65431536Y-36974939D01*
X65431536Y-36974939D02*
X65364869Y-37008272D01*
X65364869Y-37008272D02*
X65298202Y-37008272D01*
X72498202Y-38401900D02*
X72531535Y-38368566D01*
X72531535Y-38368566D02*
X72598202Y-38268566D01*
X72598202Y-38268566D02*
X72631535Y-38201900D01*
X72631535Y-38201900D02*
X72664869Y-38101900D01*
X72664869Y-38101900D02*
X72698202Y-37935233D01*
X72698202Y-37935233D02*
X72698202Y-37801900D01*
X72698202Y-37801900D02*
X72664869Y-37635233D01*
X72664869Y-37635233D02*
X72631535Y-37535233D01*
X72631535Y-37535233D02*
X72598202Y-37468566D01*
X72598202Y-37468566D02*
X72531535Y-37368566D01*
X72531535Y-37368566D02*
X72498202Y-37335233D01*
X72298202Y-37435233D02*
X72131535Y-38135233D01*
X72131535Y-38135233D02*
X71998202Y-37635233D01*
X71998202Y-37635233D02*
X71864868Y-38135233D01*
X71864868Y-38135233D02*
X71698202Y-37435233D01*
X71131535Y-38135233D02*
X71131535Y-37768566D01*
X71131535Y-37768566D02*
X71164868Y-37701900D01*
X71164868Y-37701900D02*
X71231535Y-37668566D01*
X71231535Y-37668566D02*
X71364868Y-37668566D01*
X71364868Y-37668566D02*
X71431535Y-37701900D01*
X71131535Y-38101900D02*
X71198202Y-38135233D01*
X71198202Y-38135233D02*
X71364868Y-38135233D01*
X71364868Y-38135233D02*
X71431535Y-38101900D01*
X71431535Y-38101900D02*
X71464868Y-38035233D01*
X71464868Y-38035233D02*
X71464868Y-37968566D01*
X71464868Y-37968566D02*
X71431535Y-37901900D01*
X71431535Y-37901900D02*
X71364868Y-37868566D01*
X71364868Y-37868566D02*
X71198202Y-37868566D01*
X71198202Y-37868566D02*
X71131535Y-37835233D01*
X70864869Y-37668566D02*
X70698202Y-38135233D01*
X70698202Y-38135233D02*
X70531535Y-37668566D01*
X69998202Y-38101900D02*
X70064869Y-38135233D01*
X70064869Y-38135233D02*
X70198202Y-38135233D01*
X70198202Y-38135233D02*
X70264869Y-38101900D01*
X70264869Y-38101900D02*
X70298202Y-38035233D01*
X70298202Y-38035233D02*
X70298202Y-37768566D01*
X70298202Y-37768566D02*
X70264869Y-37701900D01*
X70264869Y-37701900D02*
X70198202Y-37668566D01*
X70198202Y-37668566D02*
X70064869Y-37668566D01*
X70064869Y-37668566D02*
X69998202Y-37701900D01*
X69998202Y-37701900D02*
X69964869Y-37768566D01*
X69964869Y-37768566D02*
X69964869Y-37835233D01*
X69964869Y-37835233D02*
X70298202Y-37901900D01*
X69698202Y-38101900D02*
X69631536Y-38135233D01*
X69631536Y-38135233D02*
X69498202Y-38135233D01*
X69498202Y-38135233D02*
X69431536Y-38101900D01*
X69431536Y-38101900D02*
X69398202Y-38035233D01*
X69398202Y-38035233D02*
X69398202Y-38001900D01*
X69398202Y-38001900D02*
X69431536Y-37935233D01*
X69431536Y-37935233D02*
X69498202Y-37901900D01*
X69498202Y-37901900D02*
X69598202Y-37901900D01*
X69598202Y-37901900D02*
X69664869Y-37868566D01*
X69664869Y-37868566D02*
X69698202Y-37801900D01*
X69698202Y-37801900D02*
X69698202Y-37768566D01*
X69698202Y-37768566D02*
X69664869Y-37701900D01*
X69664869Y-37701900D02*
X69598202Y-37668566D01*
X69598202Y-37668566D02*
X69498202Y-37668566D01*
X69498202Y-37668566D02*
X69431536Y-37701900D01*
X69098202Y-38135233D02*
X69098202Y-37435233D01*
X68798202Y-38135233D02*
X68798202Y-37768566D01*
X68798202Y-37768566D02*
X68831535Y-37701900D01*
X68831535Y-37701900D02*
X68898202Y-37668566D01*
X68898202Y-37668566D02*
X68998202Y-37668566D01*
X68998202Y-37668566D02*
X69064869Y-37701900D01*
X69064869Y-37701900D02*
X69098202Y-37735233D01*
X68164869Y-38135233D02*
X68164869Y-37768566D01*
X68164869Y-37768566D02*
X68198202Y-37701900D01*
X68198202Y-37701900D02*
X68264869Y-37668566D01*
X68264869Y-37668566D02*
X68398202Y-37668566D01*
X68398202Y-37668566D02*
X68464869Y-37701900D01*
X68164869Y-38101900D02*
X68231536Y-38135233D01*
X68231536Y-38135233D02*
X68398202Y-38135233D01*
X68398202Y-38135233D02*
X68464869Y-38101900D01*
X68464869Y-38101900D02*
X68498202Y-38035233D01*
X68498202Y-38035233D02*
X68498202Y-37968566D01*
X68498202Y-37968566D02*
X68464869Y-37901900D01*
X68464869Y-37901900D02*
X68398202Y-37868566D01*
X68398202Y-37868566D02*
X68231536Y-37868566D01*
X68231536Y-37868566D02*
X68164869Y-37835233D01*
X67831536Y-38135233D02*
X67831536Y-37668566D01*
X67831536Y-37801900D02*
X67798203Y-37735233D01*
X67798203Y-37735233D02*
X67764869Y-37701900D01*
X67764869Y-37701900D02*
X67698203Y-37668566D01*
X67698203Y-37668566D02*
X67631536Y-37668566D01*
X67131536Y-38101900D02*
X67198203Y-38135233D01*
X67198203Y-38135233D02*
X67331536Y-38135233D01*
X67331536Y-38135233D02*
X67398203Y-38101900D01*
X67398203Y-38101900D02*
X67431536Y-38035233D01*
X67431536Y-38035233D02*
X67431536Y-37768566D01*
X67431536Y-37768566D02*
X67398203Y-37701900D01*
X67398203Y-37701900D02*
X67331536Y-37668566D01*
X67331536Y-37668566D02*
X67198203Y-37668566D01*
X67198203Y-37668566D02*
X67131536Y-37701900D01*
X67131536Y-37701900D02*
X67098203Y-37768566D01*
X67098203Y-37768566D02*
X67098203Y-37835233D01*
X67098203Y-37835233D02*
X67431536Y-37901900D01*
X66264870Y-38135233D02*
X66264870Y-37435233D01*
X66264870Y-37768566D02*
X65864870Y-37768566D01*
X65864870Y-38135233D02*
X65864870Y-37435233D01*
X65231537Y-38135233D02*
X65231537Y-37768566D01*
X65231537Y-37768566D02*
X65264870Y-37701900D01*
X65264870Y-37701900D02*
X65331537Y-37668566D01*
X65331537Y-37668566D02*
X65464870Y-37668566D01*
X65464870Y-37668566D02*
X65531537Y-37701900D01*
X65231537Y-38101900D02*
X65298204Y-38135233D01*
X65298204Y-38135233D02*
X65464870Y-38135233D01*
X65464870Y-38135233D02*
X65531537Y-38101900D01*
X65531537Y-38101900D02*
X65564870Y-38035233D01*
X65564870Y-38035233D02*
X65564870Y-37968566D01*
X65564870Y-37968566D02*
X65531537Y-37901900D01*
X65531537Y-37901900D02*
X65464870Y-37868566D01*
X65464870Y-37868566D02*
X65298204Y-37868566D01*
X65298204Y-37868566D02*
X65231537Y-37835233D01*
X64998204Y-37668566D02*
X64731537Y-37668566D01*
X64898204Y-37435233D02*
X64898204Y-38035233D01*
X64898204Y-38035233D02*
X64864871Y-38101900D01*
X64864871Y-38101900D02*
X64798204Y-38135233D01*
X64798204Y-38135233D02*
X64731537Y-38135233D01*
X64564871Y-38401900D02*
X64531537Y-38368566D01*
X64531537Y-38368566D02*
X64464871Y-38268566D01*
X64464871Y-38268566D02*
X64431537Y-38201900D01*
X64431537Y-38201900D02*
X64398204Y-38101900D01*
X64398204Y-38101900D02*
X64364871Y-37935233D01*
X64364871Y-37935233D02*
X64364871Y-37801900D01*
X64364871Y-37801900D02*
X64398204Y-37635233D01*
X64398204Y-37635233D02*
X64431537Y-37535233D01*
X64431537Y-37535233D02*
X64464871Y-37468566D01*
X64464871Y-37468566D02*
X64531537Y-37368566D01*
X64531537Y-37368566D02*
X64564871Y-37335233D01*
D12*
X64206993Y-29995785D02*
X64587945Y-29995785D01*
X64587945Y-29995785D02*
X64587945Y-29195785D01*
X63597469Y-29462451D02*
X63597469Y-29995785D01*
X63940326Y-29462451D02*
X63940326Y-29881499D01*
X63940326Y-29881499D02*
X63902231Y-29957690D01*
X63902231Y-29957690D02*
X63826041Y-29995785D01*
X63826041Y-29995785D02*
X63711755Y-29995785D01*
X63711755Y-29995785D02*
X63635564Y-29957690D01*
X63635564Y-29957690D02*
X63597469Y-29919594D01*
X62873659Y-29957690D02*
X62949850Y-29995785D01*
X62949850Y-29995785D02*
X63102231Y-29995785D01*
X63102231Y-29995785D02*
X63178421Y-29957690D01*
X63178421Y-29957690D02*
X63216516Y-29919594D01*
X63216516Y-29919594D02*
X63254612Y-29843404D01*
X63254612Y-29843404D02*
X63254612Y-29614832D01*
X63254612Y-29614832D02*
X63216516Y-29538642D01*
X63216516Y-29538642D02*
X63178421Y-29500547D01*
X63178421Y-29500547D02*
X63102231Y-29462451D01*
X63102231Y-29462451D02*
X62949850Y-29462451D01*
X62949850Y-29462451D02*
X62873659Y-29500547D01*
X62530802Y-29995785D02*
X62530802Y-29195785D01*
X62454612Y-29691023D02*
X62226040Y-29995785D01*
X62226040Y-29462451D02*
X62530802Y-29767213D01*
X61997469Y-29462451D02*
X61692707Y-29462451D01*
X61883183Y-29995785D02*
X61883183Y-29310070D01*
X61883183Y-29310070D02*
X61845088Y-29233880D01*
X61845088Y-29233880D02*
X61768898Y-29195785D01*
X61768898Y-29195785D02*
X61692707Y-29195785D01*
X61311755Y-29995785D02*
X61387945Y-29957690D01*
X61387945Y-29957690D02*
X61426040Y-29919594D01*
X61426040Y-29919594D02*
X61464136Y-29843404D01*
X61464136Y-29843404D02*
X61464136Y-29614832D01*
X61464136Y-29614832D02*
X61426040Y-29538642D01*
X61426040Y-29538642D02*
X61387945Y-29500547D01*
X61387945Y-29500547D02*
X61311755Y-29462451D01*
X61311755Y-29462451D02*
X61197469Y-29462451D01*
X61197469Y-29462451D02*
X61121278Y-29500547D01*
X61121278Y-29500547D02*
X61083183Y-29538642D01*
X61083183Y-29538642D02*
X61045088Y-29614832D01*
X61045088Y-29614832D02*
X61045088Y-29843404D01*
X61045088Y-29843404D02*
X61083183Y-29919594D01*
X61083183Y-29919594D02*
X61121278Y-29957690D01*
X61121278Y-29957690D02*
X61197469Y-29995785D01*
X61197469Y-29995785D02*
X61311755Y-29995785D01*
X60778421Y-29995785D02*
X60359373Y-29462451D01*
X60778421Y-29462451D02*
X60359373Y-29995785D01*
X59445087Y-29995785D02*
X59445087Y-29195785D01*
X59445087Y-29195785D02*
X59140325Y-29195785D01*
X59140325Y-29195785D02*
X59064135Y-29233880D01*
X59064135Y-29233880D02*
X59026040Y-29271975D01*
X59026040Y-29271975D02*
X58987944Y-29348166D01*
X58987944Y-29348166D02*
X58987944Y-29462451D01*
X58987944Y-29462451D02*
X59026040Y-29538642D01*
X59026040Y-29538642D02*
X59064135Y-29576737D01*
X59064135Y-29576737D02*
X59140325Y-29614832D01*
X59140325Y-29614832D02*
X59445087Y-29614832D01*
X58645087Y-29995785D02*
X58645087Y-29462451D01*
X58645087Y-29195785D02*
X58683183Y-29233880D01*
X58683183Y-29233880D02*
X58645087Y-29271975D01*
X58645087Y-29271975D02*
X58606992Y-29233880D01*
X58606992Y-29233880D02*
X58645087Y-29195785D01*
X58645087Y-29195785D02*
X58645087Y-29271975D01*
X57921278Y-29957690D02*
X57997469Y-29995785D01*
X57997469Y-29995785D02*
X58149850Y-29995785D01*
X58149850Y-29995785D02*
X58226040Y-29957690D01*
X58226040Y-29957690D02*
X58264135Y-29919594D01*
X58264135Y-29919594D02*
X58302231Y-29843404D01*
X58302231Y-29843404D02*
X58302231Y-29614832D01*
X58302231Y-29614832D02*
X58264135Y-29538642D01*
X58264135Y-29538642D02*
X58226040Y-29500547D01*
X58226040Y-29500547D02*
X58149850Y-29462451D01*
X58149850Y-29462451D02*
X57997469Y-29462451D01*
X57997469Y-29462451D02*
X57921278Y-29500547D01*
X57464136Y-29995785D02*
X57540326Y-29957690D01*
X57540326Y-29957690D02*
X57578421Y-29919594D01*
X57578421Y-29919594D02*
X57616517Y-29843404D01*
X57616517Y-29843404D02*
X57616517Y-29614832D01*
X57616517Y-29614832D02*
X57578421Y-29538642D01*
X57578421Y-29538642D02*
X57540326Y-29500547D01*
X57540326Y-29500547D02*
X57464136Y-29462451D01*
X57464136Y-29462451D02*
X57349850Y-29462451D01*
X57349850Y-29462451D02*
X57273659Y-29500547D01*
X57273659Y-29500547D02*
X57235564Y-29538642D01*
X57235564Y-29538642D02*
X57197469Y-29614832D01*
X57197469Y-29614832D02*
X57197469Y-29843404D01*
X57197469Y-29843404D02*
X57235564Y-29919594D01*
X57235564Y-29919594D02*
X57273659Y-29957690D01*
X57273659Y-29957690D02*
X57349850Y-29995785D01*
X57349850Y-29995785D02*
X57464136Y-29995785D01*
X56245087Y-29995785D02*
X56245087Y-29195785D01*
X56245087Y-29195785D02*
X55978421Y-29767213D01*
X55978421Y-29767213D02*
X55711754Y-29195785D01*
X55711754Y-29195785D02*
X55711754Y-29995785D01*
X55330801Y-29995785D02*
X55330801Y-29462451D01*
X55330801Y-29195785D02*
X55368897Y-29233880D01*
X55368897Y-29233880D02*
X55330801Y-29271975D01*
X55330801Y-29271975D02*
X55292706Y-29233880D01*
X55292706Y-29233880D02*
X55330801Y-29195785D01*
X55330801Y-29195785D02*
X55330801Y-29271975D01*
X54949849Y-29462451D02*
X54949849Y-29995785D01*
X54949849Y-29538642D02*
X54911754Y-29500547D01*
X54911754Y-29500547D02*
X54835564Y-29462451D01*
X54835564Y-29462451D02*
X54721278Y-29462451D01*
X54721278Y-29462451D02*
X54645087Y-29500547D01*
X54645087Y-29500547D02*
X54606992Y-29576737D01*
X54606992Y-29576737D02*
X54606992Y-29995785D01*
X54226039Y-29995785D02*
X54226039Y-29462451D01*
X54226039Y-29195785D02*
X54264135Y-29233880D01*
X54264135Y-29233880D02*
X54226039Y-29271975D01*
X54226039Y-29271975D02*
X54187944Y-29233880D01*
X54187944Y-29233880D02*
X54226039Y-29195785D01*
X54226039Y-29195785D02*
X54226039Y-29271975D01*
X53235563Y-29691023D02*
X52626040Y-29691023D01*
X51711754Y-29195785D02*
X51178420Y-29195785D01*
X51178420Y-29195785D02*
X51711754Y-29995785D01*
X51711754Y-29995785D02*
X51178420Y-29995785D01*
X50568896Y-29957690D02*
X50645087Y-29995785D01*
X50645087Y-29995785D02*
X50797468Y-29995785D01*
X50797468Y-29995785D02*
X50873658Y-29957690D01*
X50873658Y-29957690D02*
X50911754Y-29881499D01*
X50911754Y-29881499D02*
X50911754Y-29576737D01*
X50911754Y-29576737D02*
X50873658Y-29500547D01*
X50873658Y-29500547D02*
X50797468Y-29462451D01*
X50797468Y-29462451D02*
X50645087Y-29462451D01*
X50645087Y-29462451D02*
X50568896Y-29500547D01*
X50568896Y-29500547D02*
X50530801Y-29576737D01*
X50530801Y-29576737D02*
X50530801Y-29652928D01*
X50530801Y-29652928D02*
X50911754Y-29729118D01*
X50187944Y-29995785D02*
X50187944Y-29462451D01*
X50187944Y-29614832D02*
X50149849Y-29538642D01*
X50149849Y-29538642D02*
X50111754Y-29500547D01*
X50111754Y-29500547D02*
X50035563Y-29462451D01*
X50035563Y-29462451D02*
X49959373Y-29462451D01*
X49578421Y-29995785D02*
X49654611Y-29957690D01*
X49654611Y-29957690D02*
X49692706Y-29919594D01*
X49692706Y-29919594D02*
X49730802Y-29843404D01*
X49730802Y-29843404D02*
X49730802Y-29614832D01*
X49730802Y-29614832D02*
X49692706Y-29538642D01*
X49692706Y-29538642D02*
X49654611Y-29500547D01*
X49654611Y-29500547D02*
X49578421Y-29462451D01*
X49578421Y-29462451D02*
X49464135Y-29462451D01*
X49464135Y-29462451D02*
X49387944Y-29500547D01*
X49387944Y-29500547D02*
X49349849Y-29538642D01*
X49349849Y-29538642D02*
X49311754Y-29614832D01*
X49311754Y-29614832D02*
X49311754Y-29843404D01*
X49311754Y-29843404D02*
X49349849Y-29919594D01*
X49349849Y-29919594D02*
X49387944Y-29957690D01*
X49387944Y-29957690D02*
X49464135Y-29995785D01*
X49464135Y-29995785D02*
X49578421Y-29995785D01*
X48397468Y-29767213D02*
X48016515Y-29767213D01*
X48473658Y-29995785D02*
X48206991Y-29195785D01*
X48206991Y-29195785D02*
X47940325Y-29995785D01*
X47330801Y-29995785D02*
X47330801Y-29195785D01*
X47330801Y-29957690D02*
X47406992Y-29995785D01*
X47406992Y-29995785D02*
X47559373Y-29995785D01*
X47559373Y-29995785D02*
X47635563Y-29957690D01*
X47635563Y-29957690D02*
X47673658Y-29919594D01*
X47673658Y-29919594D02*
X47711754Y-29843404D01*
X47711754Y-29843404D02*
X47711754Y-29614832D01*
X47711754Y-29614832D02*
X47673658Y-29538642D01*
X47673658Y-29538642D02*
X47635563Y-29500547D01*
X47635563Y-29500547D02*
X47559373Y-29462451D01*
X47559373Y-29462451D02*
X47406992Y-29462451D01*
X47406992Y-29462451D02*
X47330801Y-29500547D01*
X46606991Y-29995785D02*
X46606991Y-29576737D01*
X46606991Y-29576737D02*
X46645086Y-29500547D01*
X46645086Y-29500547D02*
X46721277Y-29462451D01*
X46721277Y-29462451D02*
X46873658Y-29462451D01*
X46873658Y-29462451D02*
X46949848Y-29500547D01*
X46606991Y-29957690D02*
X46683182Y-29995785D01*
X46683182Y-29995785D02*
X46873658Y-29995785D01*
X46873658Y-29995785D02*
X46949848Y-29957690D01*
X46949848Y-29957690D02*
X46987944Y-29881499D01*
X46987944Y-29881499D02*
X46987944Y-29805309D01*
X46987944Y-29805309D02*
X46949848Y-29729118D01*
X46949848Y-29729118D02*
X46873658Y-29691023D01*
X46873658Y-29691023D02*
X46683182Y-29691023D01*
X46683182Y-29691023D02*
X46606991Y-29652928D01*
X46226038Y-29462451D02*
X46226038Y-30262451D01*
X46226038Y-29500547D02*
X46149848Y-29462451D01*
X46149848Y-29462451D02*
X45997467Y-29462451D01*
X45997467Y-29462451D02*
X45921276Y-29500547D01*
X45921276Y-29500547D02*
X45883181Y-29538642D01*
X45883181Y-29538642D02*
X45845086Y-29614832D01*
X45845086Y-29614832D02*
X45845086Y-29843404D01*
X45845086Y-29843404D02*
X45883181Y-29919594D01*
X45883181Y-29919594D02*
X45921276Y-29957690D01*
X45921276Y-29957690D02*
X45997467Y-29995785D01*
X45997467Y-29995785D02*
X46149848Y-29995785D01*
X46149848Y-29995785D02*
X46226038Y-29957690D01*
X45616514Y-29462451D02*
X45311752Y-29462451D01*
X45502228Y-29195785D02*
X45502228Y-29881499D01*
X45502228Y-29881499D02*
X45464133Y-29957690D01*
X45464133Y-29957690D02*
X45387943Y-29995785D01*
X45387943Y-29995785D02*
X45311752Y-29995785D01*
X44930800Y-29995785D02*
X45006990Y-29957690D01*
X45006990Y-29957690D02*
X45045085Y-29919594D01*
X45045085Y-29919594D02*
X45083181Y-29843404D01*
X45083181Y-29843404D02*
X45083181Y-29614832D01*
X45083181Y-29614832D02*
X45045085Y-29538642D01*
X45045085Y-29538642D02*
X45006990Y-29500547D01*
X45006990Y-29500547D02*
X44930800Y-29462451D01*
X44930800Y-29462451D02*
X44816514Y-29462451D01*
X44816514Y-29462451D02*
X44740323Y-29500547D01*
X44740323Y-29500547D02*
X44702228Y-29538642D01*
X44702228Y-29538642D02*
X44664133Y-29614832D01*
X44664133Y-29614832D02*
X44664133Y-29843404D01*
X44664133Y-29843404D02*
X44702228Y-29919594D01*
X44702228Y-29919594D02*
X44740323Y-29957690D01*
X44740323Y-29957690D02*
X44816514Y-29995785D01*
X44816514Y-29995785D02*
X44930800Y-29995785D01*
X44321275Y-29995785D02*
X44321275Y-29462451D01*
X44321275Y-29614832D02*
X44283180Y-29538642D01*
X44283180Y-29538642D02*
X44245085Y-29500547D01*
X44245085Y-29500547D02*
X44168894Y-29462451D01*
X44168894Y-29462451D02*
X44092704Y-29462451D01*
X64626041Y-31245645D02*
X64511755Y-31283740D01*
X64511755Y-31283740D02*
X64321279Y-31283740D01*
X64321279Y-31283740D02*
X64245088Y-31245645D01*
X64245088Y-31245645D02*
X64206993Y-31207549D01*
X64206993Y-31207549D02*
X64168898Y-31131359D01*
X64168898Y-31131359D02*
X64168898Y-31055168D01*
X64168898Y-31055168D02*
X64206993Y-30978978D01*
X64206993Y-30978978D02*
X64245088Y-30940883D01*
X64245088Y-30940883D02*
X64321279Y-30902787D01*
X64321279Y-30902787D02*
X64473660Y-30864692D01*
X64473660Y-30864692D02*
X64549850Y-30826597D01*
X64549850Y-30826597D02*
X64587945Y-30788502D01*
X64587945Y-30788502D02*
X64626041Y-30712311D01*
X64626041Y-30712311D02*
X64626041Y-30636121D01*
X64626041Y-30636121D02*
X64587945Y-30559930D01*
X64587945Y-30559930D02*
X64549850Y-30521835D01*
X64549850Y-30521835D02*
X64473660Y-30483740D01*
X64473660Y-30483740D02*
X64283183Y-30483740D01*
X64283183Y-30483740D02*
X64168898Y-30521835D01*
X63940326Y-30750406D02*
X63635564Y-30750406D01*
X63826040Y-30483740D02*
X63826040Y-31169454D01*
X63826040Y-31169454D02*
X63787945Y-31245645D01*
X63787945Y-31245645D02*
X63711755Y-31283740D01*
X63711755Y-31283740D02*
X63635564Y-31283740D01*
X63064135Y-31245645D02*
X63140326Y-31283740D01*
X63140326Y-31283740D02*
X63292707Y-31283740D01*
X63292707Y-31283740D02*
X63368897Y-31245645D01*
X63368897Y-31245645D02*
X63406993Y-31169454D01*
X63406993Y-31169454D02*
X63406993Y-30864692D01*
X63406993Y-30864692D02*
X63368897Y-30788502D01*
X63368897Y-30788502D02*
X63292707Y-30750406D01*
X63292707Y-30750406D02*
X63140326Y-30750406D01*
X63140326Y-30750406D02*
X63064135Y-30788502D01*
X63064135Y-30788502D02*
X63026040Y-30864692D01*
X63026040Y-30864692D02*
X63026040Y-30940883D01*
X63026040Y-30940883D02*
X63406993Y-31017073D01*
X62683183Y-30750406D02*
X62683183Y-31550406D01*
X62683183Y-30788502D02*
X62606993Y-30750406D01*
X62606993Y-30750406D02*
X62454612Y-30750406D01*
X62454612Y-30750406D02*
X62378421Y-30788502D01*
X62378421Y-30788502D02*
X62340326Y-30826597D01*
X62340326Y-30826597D02*
X62302231Y-30902787D01*
X62302231Y-30902787D02*
X62302231Y-31131359D01*
X62302231Y-31131359D02*
X62340326Y-31207549D01*
X62340326Y-31207549D02*
X62378421Y-31245645D01*
X62378421Y-31245645D02*
X62454612Y-31283740D01*
X62454612Y-31283740D02*
X62606993Y-31283740D01*
X62606993Y-31283740D02*
X62683183Y-31245645D01*
X61959373Y-31283740D02*
X61959373Y-30483740D01*
X61616516Y-31283740D02*
X61616516Y-30864692D01*
X61616516Y-30864692D02*
X61654611Y-30788502D01*
X61654611Y-30788502D02*
X61730802Y-30750406D01*
X61730802Y-30750406D02*
X61845088Y-30750406D01*
X61845088Y-30750406D02*
X61921278Y-30788502D01*
X61921278Y-30788502D02*
X61959373Y-30826597D01*
X60930801Y-31245645D02*
X61006992Y-31283740D01*
X61006992Y-31283740D02*
X61159373Y-31283740D01*
X61159373Y-31283740D02*
X61235563Y-31245645D01*
X61235563Y-31245645D02*
X61273659Y-31169454D01*
X61273659Y-31169454D02*
X61273659Y-30864692D01*
X61273659Y-30864692D02*
X61235563Y-30788502D01*
X61235563Y-30788502D02*
X61159373Y-30750406D01*
X61159373Y-30750406D02*
X61006992Y-30750406D01*
X61006992Y-30750406D02*
X60930801Y-30788502D01*
X60930801Y-30788502D02*
X60892706Y-30864692D01*
X60892706Y-30864692D02*
X60892706Y-30940883D01*
X60892706Y-30940883D02*
X61273659Y-31017073D01*
X60549849Y-30750406D02*
X60549849Y-31283740D01*
X60549849Y-30826597D02*
X60511754Y-30788502D01*
X60511754Y-30788502D02*
X60435564Y-30750406D01*
X60435564Y-30750406D02*
X60321278Y-30750406D01*
X60321278Y-30750406D02*
X60245087Y-30788502D01*
X60245087Y-30788502D02*
X60206992Y-30864692D01*
X60206992Y-30864692D02*
X60206992Y-31283740D01*
X58759372Y-31283740D02*
X59026039Y-30902787D01*
X59216515Y-31283740D02*
X59216515Y-30483740D01*
X59216515Y-30483740D02*
X58911753Y-30483740D01*
X58911753Y-30483740D02*
X58835563Y-30521835D01*
X58835563Y-30521835D02*
X58797468Y-30559930D01*
X58797468Y-30559930D02*
X58759372Y-30636121D01*
X58759372Y-30636121D02*
X58759372Y-30750406D01*
X58759372Y-30750406D02*
X58797468Y-30826597D01*
X58797468Y-30826597D02*
X58835563Y-30864692D01*
X58835563Y-30864692D02*
X58911753Y-30902787D01*
X58911753Y-30902787D02*
X59216515Y-30902787D01*
X58302230Y-31283740D02*
X58378420Y-31245645D01*
X58378420Y-31245645D02*
X58416515Y-31207549D01*
X58416515Y-31207549D02*
X58454611Y-31131359D01*
X58454611Y-31131359D02*
X58454611Y-30902787D01*
X58454611Y-30902787D02*
X58416515Y-30826597D01*
X58416515Y-30826597D02*
X58378420Y-30788502D01*
X58378420Y-30788502D02*
X58302230Y-30750406D01*
X58302230Y-30750406D02*
X58187944Y-30750406D01*
X58187944Y-30750406D02*
X58111753Y-30788502D01*
X58111753Y-30788502D02*
X58073658Y-30826597D01*
X58073658Y-30826597D02*
X58035563Y-30902787D01*
X58035563Y-30902787D02*
X58035563Y-31131359D01*
X58035563Y-31131359D02*
X58073658Y-31207549D01*
X58073658Y-31207549D02*
X58111753Y-31245645D01*
X58111753Y-31245645D02*
X58187944Y-31283740D01*
X58187944Y-31283740D02*
X58302230Y-31283740D01*
X57806991Y-30750406D02*
X57502229Y-30750406D01*
X57692705Y-30483740D02*
X57692705Y-31169454D01*
X57692705Y-31169454D02*
X57654610Y-31245645D01*
X57654610Y-31245645D02*
X57578420Y-31283740D01*
X57578420Y-31283740D02*
X57502229Y-31283740D01*
X57235562Y-31283740D02*
X57235562Y-30483740D01*
X56892705Y-31283740D02*
X56892705Y-30864692D01*
X56892705Y-30864692D02*
X56930800Y-30788502D01*
X56930800Y-30788502D02*
X57006991Y-30750406D01*
X57006991Y-30750406D02*
X57121277Y-30750406D01*
X57121277Y-30750406D02*
X57197467Y-30788502D01*
X57197467Y-30788502D02*
X57235562Y-30826597D01*
X56206990Y-31245645D02*
X56283181Y-31283740D01*
X56283181Y-31283740D02*
X56435562Y-31283740D01*
X56435562Y-31283740D02*
X56511752Y-31245645D01*
X56511752Y-31245645D02*
X56549848Y-31169454D01*
X56549848Y-31169454D02*
X56549848Y-30864692D01*
X56549848Y-30864692D02*
X56511752Y-30788502D01*
X56511752Y-30788502D02*
X56435562Y-30750406D01*
X56435562Y-30750406D02*
X56283181Y-30750406D01*
X56283181Y-30750406D02*
X56206990Y-30788502D01*
X56206990Y-30788502D02*
X56168895Y-30864692D01*
X56168895Y-30864692D02*
X56168895Y-30940883D01*
X56168895Y-30940883D02*
X56549848Y-31017073D01*
X55826038Y-31283740D02*
X55826038Y-30750406D01*
X55826038Y-30902787D02*
X55787943Y-30826597D01*
X55787943Y-30826597D02*
X55749848Y-30788502D01*
X55749848Y-30788502D02*
X55673657Y-30750406D01*
X55673657Y-30750406D02*
X55597467Y-30750406D01*
X55406991Y-30750406D02*
X55216515Y-31283740D01*
X55026038Y-30750406D02*
X55216515Y-31283740D01*
X55216515Y-31283740D02*
X55292705Y-31474216D01*
X55292705Y-31474216D02*
X55330800Y-31512311D01*
X55330800Y-31512311D02*
X55406991Y-31550406D01*
X54111752Y-30978978D02*
X53502229Y-30978978D01*
X53806990Y-31283740D02*
X53806990Y-30674216D01*
X52130800Y-31283740D02*
X52511752Y-31283740D01*
X52511752Y-31283740D02*
X52511752Y-30483740D01*
X51864133Y-31283740D02*
X51864133Y-30750406D01*
X51864133Y-30483740D02*
X51902229Y-30521835D01*
X51902229Y-30521835D02*
X51864133Y-30559930D01*
X51864133Y-30559930D02*
X51826038Y-30521835D01*
X51826038Y-30521835D02*
X51864133Y-30483740D01*
X51864133Y-30483740D02*
X51864133Y-30559930D01*
X51140324Y-30750406D02*
X51140324Y-31398025D01*
X51140324Y-31398025D02*
X51178419Y-31474216D01*
X51178419Y-31474216D02*
X51216515Y-31512311D01*
X51216515Y-31512311D02*
X51292705Y-31550406D01*
X51292705Y-31550406D02*
X51406991Y-31550406D01*
X51406991Y-31550406D02*
X51483181Y-31512311D01*
X51140324Y-31245645D02*
X51216515Y-31283740D01*
X51216515Y-31283740D02*
X51368896Y-31283740D01*
X51368896Y-31283740D02*
X51445086Y-31245645D01*
X51445086Y-31245645D02*
X51483181Y-31207549D01*
X51483181Y-31207549D02*
X51521277Y-31131359D01*
X51521277Y-31131359D02*
X51521277Y-30902787D01*
X51521277Y-30902787D02*
X51483181Y-30826597D01*
X51483181Y-30826597D02*
X51445086Y-30788502D01*
X51445086Y-30788502D02*
X51368896Y-30750406D01*
X51368896Y-30750406D02*
X51216515Y-30750406D01*
X51216515Y-30750406D02*
X51140324Y-30788502D01*
X50759371Y-31283740D02*
X50759371Y-30483740D01*
X50416514Y-31283740D02*
X50416514Y-30864692D01*
X50416514Y-30864692D02*
X50454609Y-30788502D01*
X50454609Y-30788502D02*
X50530800Y-30750406D01*
X50530800Y-30750406D02*
X50645086Y-30750406D01*
X50645086Y-30750406D02*
X50721276Y-30788502D01*
X50721276Y-30788502D02*
X50759371Y-30826597D01*
X50149847Y-30750406D02*
X49845085Y-30750406D01*
X50035561Y-30483740D02*
X50035561Y-31169454D01*
X50035561Y-31169454D02*
X49997466Y-31245645D01*
X49997466Y-31245645D02*
X49921276Y-31283740D01*
X49921276Y-31283740D02*
X49845085Y-31283740D01*
X49578418Y-30750406D02*
X49578418Y-31283740D01*
X49578418Y-30826597D02*
X49540323Y-30788502D01*
X49540323Y-30788502D02*
X49464133Y-30750406D01*
X49464133Y-30750406D02*
X49349847Y-30750406D01*
X49349847Y-30750406D02*
X49273656Y-30788502D01*
X49273656Y-30788502D02*
X49235561Y-30864692D01*
X49235561Y-30864692D02*
X49235561Y-31283740D01*
X48854608Y-31283740D02*
X48854608Y-30750406D01*
X48854608Y-30483740D02*
X48892704Y-30521835D01*
X48892704Y-30521835D02*
X48854608Y-30559930D01*
X48854608Y-30559930D02*
X48816513Y-30521835D01*
X48816513Y-30521835D02*
X48854608Y-30483740D01*
X48854608Y-30483740D02*
X48854608Y-30559930D01*
X48473656Y-30750406D02*
X48473656Y-31283740D01*
X48473656Y-30826597D02*
X48435561Y-30788502D01*
X48435561Y-30788502D02*
X48359371Y-30750406D01*
X48359371Y-30750406D02*
X48245085Y-30750406D01*
X48245085Y-30750406D02*
X48168894Y-30788502D01*
X48168894Y-30788502D02*
X48130799Y-30864692D01*
X48130799Y-30864692D02*
X48130799Y-31283740D01*
X47406989Y-30750406D02*
X47406989Y-31398025D01*
X47406989Y-31398025D02*
X47445084Y-31474216D01*
X47445084Y-31474216D02*
X47483180Y-31512311D01*
X47483180Y-31512311D02*
X47559370Y-31550406D01*
X47559370Y-31550406D02*
X47673656Y-31550406D01*
X47673656Y-31550406D02*
X47749846Y-31512311D01*
X47406989Y-31245645D02*
X47483180Y-31283740D01*
X47483180Y-31283740D02*
X47635561Y-31283740D01*
X47635561Y-31283740D02*
X47711751Y-31245645D01*
X47711751Y-31245645D02*
X47749846Y-31207549D01*
X47749846Y-31207549D02*
X47787942Y-31131359D01*
X47787942Y-31131359D02*
X47787942Y-30902787D01*
X47787942Y-30902787D02*
X47749846Y-30826597D01*
X47749846Y-30826597D02*
X47711751Y-30788502D01*
X47711751Y-30788502D02*
X47635561Y-30750406D01*
X47635561Y-30750406D02*
X47483180Y-30750406D01*
X47483180Y-30750406D02*
X47406989Y-30788502D01*
X47064132Y-31245645D02*
X46987941Y-31283740D01*
X46987941Y-31283740D02*
X46835560Y-31283740D01*
X46835560Y-31283740D02*
X46759370Y-31245645D01*
X46759370Y-31245645D02*
X46721274Y-31169454D01*
X46721274Y-31169454D02*
X46721274Y-31131359D01*
X46721274Y-31131359D02*
X46759370Y-31055168D01*
X46759370Y-31055168D02*
X46835560Y-31017073D01*
X46835560Y-31017073D02*
X46949846Y-31017073D01*
X46949846Y-31017073D02*
X47026036Y-30978978D01*
X47026036Y-30978978D02*
X47064132Y-30902787D01*
X47064132Y-30902787D02*
X47064132Y-30864692D01*
X47064132Y-30864692D02*
X47026036Y-30788502D01*
X47026036Y-30788502D02*
X46949846Y-30750406D01*
X46949846Y-30750406D02*
X46835560Y-30750406D01*
X46835560Y-30750406D02*
X46759370Y-30788502D01*
X46378417Y-30750406D02*
X46378417Y-31550406D01*
X46378417Y-30788502D02*
X46302227Y-30750406D01*
X46302227Y-30750406D02*
X46149846Y-30750406D01*
X46149846Y-30750406D02*
X46073655Y-30788502D01*
X46073655Y-30788502D02*
X46035560Y-30826597D01*
X46035560Y-30826597D02*
X45997465Y-30902787D01*
X45997465Y-30902787D02*
X45997465Y-31131359D01*
X45997465Y-31131359D02*
X46035560Y-31207549D01*
X46035560Y-31207549D02*
X46073655Y-31245645D01*
X46073655Y-31245645D02*
X46149846Y-31283740D01*
X46149846Y-31283740D02*
X46302227Y-31283740D01*
X46302227Y-31283740D02*
X46378417Y-31245645D01*
X45540322Y-31283740D02*
X45616512Y-31245645D01*
X45616512Y-31245645D02*
X45654607Y-31207549D01*
X45654607Y-31207549D02*
X45692703Y-31131359D01*
X45692703Y-31131359D02*
X45692703Y-30902787D01*
X45692703Y-30902787D02*
X45654607Y-30826597D01*
X45654607Y-30826597D02*
X45616512Y-30788502D01*
X45616512Y-30788502D02*
X45540322Y-30750406D01*
X45540322Y-30750406D02*
X45426036Y-30750406D01*
X45426036Y-30750406D02*
X45349845Y-30788502D01*
X45349845Y-30788502D02*
X45311750Y-30826597D01*
X45311750Y-30826597D02*
X45273655Y-30902787D01*
X45273655Y-30902787D02*
X45273655Y-31131359D01*
X45273655Y-31131359D02*
X45311750Y-31207549D01*
X45311750Y-31207549D02*
X45349845Y-31245645D01*
X45349845Y-31245645D02*
X45426036Y-31283740D01*
X45426036Y-31283740D02*
X45540322Y-31283740D01*
X44930797Y-31283740D02*
X44930797Y-30750406D01*
X44930797Y-30902787D02*
X44892702Y-30826597D01*
X44892702Y-30826597D02*
X44854607Y-30788502D01*
X44854607Y-30788502D02*
X44778416Y-30750406D01*
X44778416Y-30750406D02*
X44702226Y-30750406D01*
X44130797Y-31245645D02*
X44206988Y-31283740D01*
X44206988Y-31283740D02*
X44359369Y-31283740D01*
X44359369Y-31283740D02*
X44435559Y-31245645D01*
X44435559Y-31245645D02*
X44473655Y-31169454D01*
X44473655Y-31169454D02*
X44473655Y-30864692D01*
X44473655Y-30864692D02*
X44435559Y-30788502D01*
X44435559Y-30788502D02*
X44359369Y-30750406D01*
X44359369Y-30750406D02*
X44206988Y-30750406D01*
X44206988Y-30750406D02*
X44130797Y-30788502D01*
X44130797Y-30788502D02*
X44092702Y-30864692D01*
X44092702Y-30864692D02*
X44092702Y-30940883D01*
X44092702Y-30940883D02*
X44473655Y-31017073D01*
X64664136Y-32038361D02*
X64473660Y-32571695D01*
X64473660Y-32571695D02*
X64283183Y-32038361D01*
X63559374Y-32571695D02*
X64016517Y-32571695D01*
X63787945Y-32571695D02*
X63787945Y-31771695D01*
X63787945Y-31771695D02*
X63864136Y-31885980D01*
X63864136Y-31885980D02*
X63940326Y-31962171D01*
X63940326Y-31962171D02*
X64016517Y-32000266D01*
X63216516Y-32495504D02*
X63178421Y-32533600D01*
X63178421Y-32533600D02*
X63216516Y-32571695D01*
X63216516Y-32571695D02*
X63254612Y-32533600D01*
X63254612Y-32533600D02*
X63216516Y-32495504D01*
X63216516Y-32495504D02*
X63216516Y-32571695D01*
X62683183Y-31771695D02*
X62606993Y-31771695D01*
X62606993Y-31771695D02*
X62530802Y-31809790D01*
X62530802Y-31809790D02*
X62492707Y-31847885D01*
X62492707Y-31847885D02*
X62454612Y-31924076D01*
X62454612Y-31924076D02*
X62416517Y-32076457D01*
X62416517Y-32076457D02*
X62416517Y-32266933D01*
X62416517Y-32266933D02*
X62454612Y-32419314D01*
X62454612Y-32419314D02*
X62492707Y-32495504D01*
X62492707Y-32495504D02*
X62530802Y-32533600D01*
X62530802Y-32533600D02*
X62606993Y-32571695D01*
X62606993Y-32571695D02*
X62683183Y-32571695D01*
X62683183Y-32571695D02*
X62759374Y-32533600D01*
X62759374Y-32533600D02*
X62797469Y-32495504D01*
X62797469Y-32495504D02*
X62835564Y-32419314D01*
X62835564Y-32419314D02*
X62873660Y-32266933D01*
X62873660Y-32266933D02*
X62873660Y-32076457D01*
X62873660Y-32076457D02*
X62835564Y-31924076D01*
X62835564Y-31924076D02*
X62797469Y-31847885D01*
X62797469Y-31847885D02*
X62759374Y-31809790D01*
X62759374Y-31809790D02*
X62683183Y-31771695D01*
X62073659Y-32495504D02*
X62035564Y-32533600D01*
X62035564Y-32533600D02*
X62073659Y-32571695D01*
X62073659Y-32571695D02*
X62111755Y-32533600D01*
X62111755Y-32533600D02*
X62073659Y-32495504D01*
X62073659Y-32495504D02*
X62073659Y-32571695D01*
X61730803Y-31847885D02*
X61692707Y-31809790D01*
X61692707Y-31809790D02*
X61616517Y-31771695D01*
X61616517Y-31771695D02*
X61426041Y-31771695D01*
X61426041Y-31771695D02*
X61349850Y-31809790D01*
X61349850Y-31809790D02*
X61311755Y-31847885D01*
X61311755Y-31847885D02*
X61273660Y-31924076D01*
X61273660Y-31924076D02*
X61273660Y-32000266D01*
X61273660Y-32000266D02*
X61311755Y-32114552D01*
X61311755Y-32114552D02*
X61768898Y-32571695D01*
X61768898Y-32571695D02*
X61273660Y-32571695D01*
X37673740Y-30992054D02*
X36873740Y-30992054D01*
X36873740Y-30992054D02*
X36873740Y-31296816D01*
X36873740Y-31296816D02*
X36911835Y-31373006D01*
X36911835Y-31373006D02*
X36949930Y-31411101D01*
X36949930Y-31411101D02*
X37026121Y-31449197D01*
X37026121Y-31449197D02*
X37140406Y-31449197D01*
X37140406Y-31449197D02*
X37216597Y-31411101D01*
X37216597Y-31411101D02*
X37254692Y-31373006D01*
X37254692Y-31373006D02*
X37292787Y-31296816D01*
X37292787Y-31296816D02*
X37292787Y-30992054D01*
X37673740Y-31792054D02*
X37140406Y-31792054D01*
X36873740Y-31792054D02*
X36911835Y-31753958D01*
X36911835Y-31753958D02*
X36949930Y-31792054D01*
X36949930Y-31792054D02*
X36911835Y-31830149D01*
X36911835Y-31830149D02*
X36873740Y-31792054D01*
X36873740Y-31792054D02*
X36949930Y-31792054D01*
X37635645Y-32515863D02*
X37673740Y-32439672D01*
X37673740Y-32439672D02*
X37673740Y-32287291D01*
X37673740Y-32287291D02*
X37635645Y-32211101D01*
X37635645Y-32211101D02*
X37597549Y-32173006D01*
X37597549Y-32173006D02*
X37521359Y-32134910D01*
X37521359Y-32134910D02*
X37292787Y-32134910D01*
X37292787Y-32134910D02*
X37216597Y-32173006D01*
X37216597Y-32173006D02*
X37178502Y-32211101D01*
X37178502Y-32211101D02*
X37140406Y-32287291D01*
X37140406Y-32287291D02*
X37140406Y-32439672D01*
X37140406Y-32439672D02*
X37178502Y-32515863D01*
X37673740Y-32973005D02*
X37635645Y-32896815D01*
X37635645Y-32896815D02*
X37597549Y-32858720D01*
X37597549Y-32858720D02*
X37521359Y-32820624D01*
X37521359Y-32820624D02*
X37292787Y-32820624D01*
X37292787Y-32820624D02*
X37216597Y-32858720D01*
X37216597Y-32858720D02*
X37178502Y-32896815D01*
X37178502Y-32896815D02*
X37140406Y-32973005D01*
X37140406Y-32973005D02*
X37140406Y-33087291D01*
X37140406Y-33087291D02*
X37178502Y-33163482D01*
X37178502Y-33163482D02*
X37216597Y-33201577D01*
X37216597Y-33201577D02*
X37292787Y-33239672D01*
X37292787Y-33239672D02*
X37521359Y-33239672D01*
X37521359Y-33239672D02*
X37597549Y-33201577D01*
X37597549Y-33201577D02*
X37635645Y-33163482D01*
X37635645Y-33163482D02*
X37673740Y-33087291D01*
X37673740Y-33087291D02*
X37673740Y-32973005D01*
X38961695Y-30992054D02*
X38161695Y-30992054D01*
X38161695Y-30992054D02*
X38161695Y-31296816D01*
X38161695Y-31296816D02*
X38199790Y-31373006D01*
X38199790Y-31373006D02*
X38237885Y-31411101D01*
X38237885Y-31411101D02*
X38314076Y-31449197D01*
X38314076Y-31449197D02*
X38428361Y-31449197D01*
X38428361Y-31449197D02*
X38504552Y-31411101D01*
X38504552Y-31411101D02*
X38542647Y-31373006D01*
X38542647Y-31373006D02*
X38580742Y-31296816D01*
X38580742Y-31296816D02*
X38580742Y-30992054D01*
X38961695Y-31792054D02*
X38161695Y-31792054D01*
X38961695Y-32173006D02*
X38161695Y-32173006D01*
X38161695Y-32173006D02*
X38961695Y-32630149D01*
X38961695Y-32630149D02*
X38161695Y-32630149D01*
X38961695Y-34039672D02*
X38961695Y-33582529D01*
X38961695Y-33811101D02*
X38161695Y-33811101D01*
X38161695Y-33811101D02*
X38275980Y-33734910D01*
X38275980Y-33734910D02*
X38352171Y-33658720D01*
X38352171Y-33658720D02*
X38390266Y-33582529D01*
X38237885Y-34344434D02*
X38199790Y-34382530D01*
X38199790Y-34382530D02*
X38161695Y-34458720D01*
X38161695Y-34458720D02*
X38161695Y-34649196D01*
X38161695Y-34649196D02*
X38199790Y-34725387D01*
X38199790Y-34725387D02*
X38237885Y-34763482D01*
X38237885Y-34763482D02*
X38314076Y-34801577D01*
X38314076Y-34801577D02*
X38390266Y-34801577D01*
X38390266Y-34801577D02*
X38504552Y-34763482D01*
X38504552Y-34763482D02*
X38961695Y-34306339D01*
X38961695Y-34306339D02*
X38961695Y-34801577D01*
X10282054Y-53226259D02*
X10282054Y-54026259D01*
X10282054Y-54026259D02*
X10586816Y-54026259D01*
X10586816Y-54026259D02*
X10663006Y-53988164D01*
X10663006Y-53988164D02*
X10701101Y-53950069D01*
X10701101Y-53950069D02*
X10739197Y-53873878D01*
X10739197Y-53873878D02*
X10739197Y-53759593D01*
X10739197Y-53759593D02*
X10701101Y-53683402D01*
X10701101Y-53683402D02*
X10663006Y-53645307D01*
X10663006Y-53645307D02*
X10586816Y-53607212D01*
X10586816Y-53607212D02*
X10282054Y-53607212D01*
X11082054Y-53226259D02*
X11082054Y-53759593D01*
X11082054Y-54026259D02*
X11043958Y-53988164D01*
X11043958Y-53988164D02*
X11082054Y-53950069D01*
X11082054Y-53950069D02*
X11120149Y-53988164D01*
X11120149Y-53988164D02*
X11082054Y-54026259D01*
X11082054Y-54026259D02*
X11082054Y-53950069D01*
X11805863Y-53264355D02*
X11729672Y-53226259D01*
X11729672Y-53226259D02*
X11577291Y-53226259D01*
X11577291Y-53226259D02*
X11501101Y-53264355D01*
X11501101Y-53264355D02*
X11463006Y-53302450D01*
X11463006Y-53302450D02*
X11424910Y-53378640D01*
X11424910Y-53378640D02*
X11424910Y-53607212D01*
X11424910Y-53607212D02*
X11463006Y-53683402D01*
X11463006Y-53683402D02*
X11501101Y-53721497D01*
X11501101Y-53721497D02*
X11577291Y-53759593D01*
X11577291Y-53759593D02*
X11729672Y-53759593D01*
X11729672Y-53759593D02*
X11805863Y-53721497D01*
X12263005Y-53226259D02*
X12186815Y-53264355D01*
X12186815Y-53264355D02*
X12148720Y-53302450D01*
X12148720Y-53302450D02*
X12110624Y-53378640D01*
X12110624Y-53378640D02*
X12110624Y-53607212D01*
X12110624Y-53607212D02*
X12148720Y-53683402D01*
X12148720Y-53683402D02*
X12186815Y-53721497D01*
X12186815Y-53721497D02*
X12263005Y-53759593D01*
X12263005Y-53759593D02*
X12377291Y-53759593D01*
X12377291Y-53759593D02*
X12453482Y-53721497D01*
X12453482Y-53721497D02*
X12491577Y-53683402D01*
X12491577Y-53683402D02*
X12529672Y-53607212D01*
X12529672Y-53607212D02*
X12529672Y-53378640D01*
X12529672Y-53378640D02*
X12491577Y-53302450D01*
X12491577Y-53302450D02*
X12453482Y-53264355D01*
X12453482Y-53264355D02*
X12377291Y-53226259D01*
X12377291Y-53226259D02*
X12263005Y-53226259D01*
X10282054Y-51938304D02*
X10282054Y-52738304D01*
X10282054Y-52738304D02*
X10586816Y-52738304D01*
X10586816Y-52738304D02*
X10663006Y-52700209D01*
X10663006Y-52700209D02*
X10701101Y-52662114D01*
X10701101Y-52662114D02*
X10739197Y-52585923D01*
X10739197Y-52585923D02*
X10739197Y-52471638D01*
X10739197Y-52471638D02*
X10701101Y-52395447D01*
X10701101Y-52395447D02*
X10663006Y-52357352D01*
X10663006Y-52357352D02*
X10586816Y-52319257D01*
X10586816Y-52319257D02*
X10282054Y-52319257D01*
X11082054Y-51938304D02*
X11082054Y-52738304D01*
X11463006Y-51938304D02*
X11463006Y-52738304D01*
X11463006Y-52738304D02*
X11920149Y-51938304D01*
X11920149Y-51938304D02*
X11920149Y-52738304D01*
X13329672Y-51938304D02*
X12872529Y-51938304D01*
X13101101Y-51938304D02*
X13101101Y-52738304D01*
X13101101Y-52738304D02*
X13024910Y-52624019D01*
X13024910Y-52624019D02*
X12948720Y-52547828D01*
X12948720Y-52547828D02*
X12872529Y-52509733D01*
X60729047Y-35067331D02*
X60729047Y-34067331D01*
X60729047Y-34067331D02*
X60157619Y-35067331D01*
X60157619Y-35067331D02*
X60157619Y-34067331D01*
X59681428Y-34543521D02*
X59348095Y-34543521D01*
X59205238Y-35067331D02*
X59681428Y-35067331D01*
X59681428Y-35067331D02*
X59681428Y-34067331D01*
X59681428Y-34067331D02*
X59205238Y-34067331D01*
X58919523Y-34067331D02*
X58586190Y-35067331D01*
X58586190Y-35067331D02*
X58252857Y-34067331D01*
X57919523Y-34543521D02*
X57586190Y-34543521D01*
X57443333Y-35067331D02*
X57919523Y-35067331D01*
X57919523Y-35067331D02*
X57919523Y-34067331D01*
X57919523Y-34067331D02*
X57443333Y-34067331D01*
X56443333Y-35067331D02*
X56776666Y-34591140D01*
X57014761Y-35067331D02*
X57014761Y-34067331D01*
X57014761Y-34067331D02*
X56633809Y-34067331D01*
X56633809Y-34067331D02*
X56538571Y-34114950D01*
X56538571Y-34114950D02*
X56490952Y-34162569D01*
X56490952Y-34162569D02*
X56443333Y-34257807D01*
X56443333Y-34257807D02*
X56443333Y-34400664D01*
X56443333Y-34400664D02*
X56490952Y-34495902D01*
X56490952Y-34495902D02*
X56538571Y-34543521D01*
X56538571Y-34543521D02*
X56633809Y-34591140D01*
X56633809Y-34591140D02*
X57014761Y-34591140D01*
X60729047Y-36153465D02*
X60586190Y-36201084D01*
X60586190Y-36201084D02*
X60538571Y-36248703D01*
X60538571Y-36248703D02*
X60490952Y-36343941D01*
X60490952Y-36343941D02*
X60490952Y-36486798D01*
X60490952Y-36486798D02*
X60538571Y-36582036D01*
X60538571Y-36582036D02*
X60586190Y-36629656D01*
X60586190Y-36629656D02*
X60681428Y-36677275D01*
X60681428Y-36677275D02*
X61062380Y-36677275D01*
X61062380Y-36677275D02*
X61062380Y-35677275D01*
X61062380Y-35677275D02*
X60729047Y-35677275D01*
X60729047Y-35677275D02*
X60633809Y-35724894D01*
X60633809Y-35724894D02*
X60586190Y-35772513D01*
X60586190Y-35772513D02*
X60538571Y-35867751D01*
X60538571Y-35867751D02*
X60538571Y-35962989D01*
X60538571Y-35962989D02*
X60586190Y-36058227D01*
X60586190Y-36058227D02*
X60633809Y-36105846D01*
X60633809Y-36105846D02*
X60729047Y-36153465D01*
X60729047Y-36153465D02*
X61062380Y-36153465D01*
X59490952Y-36677275D02*
X59824285Y-36201084D01*
X60062380Y-36677275D02*
X60062380Y-35677275D01*
X60062380Y-35677275D02*
X59681428Y-35677275D01*
X59681428Y-35677275D02*
X59586190Y-35724894D01*
X59586190Y-35724894D02*
X59538571Y-35772513D01*
X59538571Y-35772513D02*
X59490952Y-35867751D01*
X59490952Y-35867751D02*
X59490952Y-36010608D01*
X59490952Y-36010608D02*
X59538571Y-36105846D01*
X59538571Y-36105846D02*
X59586190Y-36153465D01*
X59586190Y-36153465D02*
X59681428Y-36201084D01*
X59681428Y-36201084D02*
X60062380Y-36201084D01*
X59062380Y-36677275D02*
X59062380Y-35677275D01*
X58586190Y-36677275D02*
X58586190Y-35677275D01*
X58586190Y-35677275D02*
X58348095Y-35677275D01*
X58348095Y-35677275D02*
X58205238Y-35724894D01*
X58205238Y-35724894D02*
X58110000Y-35820132D01*
X58110000Y-35820132D02*
X58062381Y-35915370D01*
X58062381Y-35915370D02*
X58014762Y-36105846D01*
X58014762Y-36105846D02*
X58014762Y-36248703D01*
X58014762Y-36248703D02*
X58062381Y-36439179D01*
X58062381Y-36439179D02*
X58110000Y-36534417D01*
X58110000Y-36534417D02*
X58205238Y-36629656D01*
X58205238Y-36629656D02*
X58348095Y-36677275D01*
X58348095Y-36677275D02*
X58586190Y-36677275D01*
X57062381Y-35724894D02*
X57157619Y-35677275D01*
X57157619Y-35677275D02*
X57300476Y-35677275D01*
X57300476Y-35677275D02*
X57443333Y-35724894D01*
X57443333Y-35724894D02*
X57538571Y-35820132D01*
X57538571Y-35820132D02*
X57586190Y-35915370D01*
X57586190Y-35915370D02*
X57633809Y-36105846D01*
X57633809Y-36105846D02*
X57633809Y-36248703D01*
X57633809Y-36248703D02*
X57586190Y-36439179D01*
X57586190Y-36439179D02*
X57538571Y-36534417D01*
X57538571Y-36534417D02*
X57443333Y-36629656D01*
X57443333Y-36629656D02*
X57300476Y-36677275D01*
X57300476Y-36677275D02*
X57205238Y-36677275D01*
X57205238Y-36677275D02*
X57062381Y-36629656D01*
X57062381Y-36629656D02*
X57014762Y-36582036D01*
X57014762Y-36582036D02*
X57014762Y-36248703D01*
X57014762Y-36248703D02*
X57205238Y-36248703D01*
X56586190Y-36153465D02*
X56252857Y-36153465D01*
X56110000Y-36677275D02*
X56586190Y-36677275D01*
X56586190Y-36677275D02*
X56586190Y-35677275D01*
X56586190Y-35677275D02*
X56110000Y-35677275D01*
X59967142Y-37763409D02*
X59824285Y-37811028D01*
X59824285Y-37811028D02*
X59776666Y-37858647D01*
X59776666Y-37858647D02*
X59729047Y-37953885D01*
X59729047Y-37953885D02*
X59729047Y-38096742D01*
X59729047Y-38096742D02*
X59776666Y-38191980D01*
X59776666Y-38191980D02*
X59824285Y-38239600D01*
X59824285Y-38239600D02*
X59919523Y-38287219D01*
X59919523Y-38287219D02*
X60300475Y-38287219D01*
X60300475Y-38287219D02*
X60300475Y-37287219D01*
X60300475Y-37287219D02*
X59967142Y-37287219D01*
X59967142Y-37287219D02*
X59871904Y-37334838D01*
X59871904Y-37334838D02*
X59824285Y-37382457D01*
X59824285Y-37382457D02*
X59776666Y-37477695D01*
X59776666Y-37477695D02*
X59776666Y-37572933D01*
X59776666Y-37572933D02*
X59824285Y-37668171D01*
X59824285Y-37668171D02*
X59871904Y-37715790D01*
X59871904Y-37715790D02*
X59967142Y-37763409D01*
X59967142Y-37763409D02*
X60300475Y-37763409D01*
X59109999Y-37287219D02*
X58919523Y-37287219D01*
X58919523Y-37287219D02*
X58824285Y-37334838D01*
X58824285Y-37334838D02*
X58729047Y-37430076D01*
X58729047Y-37430076D02*
X58681428Y-37620552D01*
X58681428Y-37620552D02*
X58681428Y-37953885D01*
X58681428Y-37953885D02*
X58729047Y-38144361D01*
X58729047Y-38144361D02*
X58824285Y-38239600D01*
X58824285Y-38239600D02*
X58919523Y-38287219D01*
X58919523Y-38287219D02*
X59109999Y-38287219D01*
X59109999Y-38287219D02*
X59205237Y-38239600D01*
X59205237Y-38239600D02*
X59300475Y-38144361D01*
X59300475Y-38144361D02*
X59348094Y-37953885D01*
X59348094Y-37953885D02*
X59348094Y-37620552D01*
X59348094Y-37620552D02*
X59300475Y-37430076D01*
X59300475Y-37430076D02*
X59205237Y-37334838D01*
X59205237Y-37334838D02*
X59109999Y-37287219D01*
X58395713Y-37287219D02*
X57824285Y-37287219D01*
X58109999Y-38287219D02*
X58109999Y-37287219D01*
X57490951Y-38287219D02*
X57490951Y-37287219D01*
X57490951Y-37763409D02*
X56919523Y-37763409D01*
X56919523Y-38287219D02*
X56919523Y-37287219D01*
D14*
X40204087Y-50945489D02*
X41704087Y-50945489D01*
X41704087Y-50945489D02*
X41704087Y-50374060D01*
X41704087Y-50374060D02*
X41632658Y-50231203D01*
X41632658Y-50231203D02*
X41561230Y-50159774D01*
X41561230Y-50159774D02*
X41418373Y-50088346D01*
X41418373Y-50088346D02*
X41204087Y-50088346D01*
X41204087Y-50088346D02*
X41061230Y-50159774D01*
X41061230Y-50159774D02*
X40989801Y-50231203D01*
X40989801Y-50231203D02*
X40918373Y-50374060D01*
X40918373Y-50374060D02*
X40918373Y-50945489D01*
X40204087Y-49231203D02*
X40275516Y-49374060D01*
X40275516Y-49374060D02*
X40418373Y-49445489D01*
X40418373Y-49445489D02*
X41704087Y-49445489D01*
X40204087Y-48016918D02*
X40989801Y-48016918D01*
X40989801Y-48016918D02*
X41132658Y-48088346D01*
X41132658Y-48088346D02*
X41204087Y-48231203D01*
X41204087Y-48231203D02*
X41204087Y-48516918D01*
X41204087Y-48516918D02*
X41132658Y-48659775D01*
X40275516Y-48016918D02*
X40204087Y-48159775D01*
X40204087Y-48159775D02*
X40204087Y-48516918D01*
X40204087Y-48516918D02*
X40275516Y-48659775D01*
X40275516Y-48659775D02*
X40418373Y-48731203D01*
X40418373Y-48731203D02*
X40561230Y-48731203D01*
X40561230Y-48731203D02*
X40704087Y-48659775D01*
X40704087Y-48659775D02*
X40775516Y-48516918D01*
X40775516Y-48516918D02*
X40775516Y-48159775D01*
X40775516Y-48159775D02*
X40846944Y-48016918D01*
X40275516Y-46659775D02*
X40204087Y-46802632D01*
X40204087Y-46802632D02*
X40204087Y-47088346D01*
X40204087Y-47088346D02*
X40275516Y-47231203D01*
X40275516Y-47231203D02*
X40346944Y-47302632D01*
X40346944Y-47302632D02*
X40489801Y-47374060D01*
X40489801Y-47374060D02*
X40918373Y-47374060D01*
X40918373Y-47374060D02*
X41061230Y-47302632D01*
X41061230Y-47302632D02*
X41132658Y-47231203D01*
X41132658Y-47231203D02*
X41204087Y-47088346D01*
X41204087Y-47088346D02*
X41204087Y-46802632D01*
X41204087Y-46802632D02*
X41132658Y-46659775D01*
X40275516Y-45445489D02*
X40204087Y-45588346D01*
X40204087Y-45588346D02*
X40204087Y-45874061D01*
X40204087Y-45874061D02*
X40275516Y-46016918D01*
X40275516Y-46016918D02*
X40418373Y-46088346D01*
X40418373Y-46088346D02*
X40989801Y-46088346D01*
X40989801Y-46088346D02*
X41132658Y-46016918D01*
X41132658Y-46016918D02*
X41204087Y-45874061D01*
X41204087Y-45874061D02*
X41204087Y-45588346D01*
X41204087Y-45588346D02*
X41132658Y-45445489D01*
X41132658Y-45445489D02*
X40989801Y-45374061D01*
X40989801Y-45374061D02*
X40846944Y-45374061D01*
X40846944Y-45374061D02*
X40704087Y-46088346D01*
X40204087Y-43588347D02*
X41704087Y-43588347D01*
X41704087Y-43588347D02*
X41704087Y-43016918D01*
X41704087Y-43016918D02*
X41632658Y-42874061D01*
X41632658Y-42874061D02*
X41561230Y-42802632D01*
X41561230Y-42802632D02*
X41418373Y-42731204D01*
X41418373Y-42731204D02*
X41204087Y-42731204D01*
X41204087Y-42731204D02*
X41061230Y-42802632D01*
X41061230Y-42802632D02*
X40989801Y-42874061D01*
X40989801Y-42874061D02*
X40918373Y-43016918D01*
X40918373Y-43016918D02*
X40918373Y-43588347D01*
X40204087Y-42088347D02*
X41204087Y-42088347D01*
X41704087Y-42088347D02*
X41632658Y-42159775D01*
X41632658Y-42159775D02*
X41561230Y-42088347D01*
X41561230Y-42088347D02*
X41632658Y-42016918D01*
X41632658Y-42016918D02*
X41704087Y-42088347D01*
X41704087Y-42088347D02*
X41561230Y-42088347D01*
X40275516Y-40731204D02*
X40204087Y-40874061D01*
X40204087Y-40874061D02*
X40204087Y-41159775D01*
X40204087Y-41159775D02*
X40275516Y-41302632D01*
X40275516Y-41302632D02*
X40346944Y-41374061D01*
X40346944Y-41374061D02*
X40489801Y-41445489D01*
X40489801Y-41445489D02*
X40918373Y-41445489D01*
X40918373Y-41445489D02*
X41061230Y-41374061D01*
X41061230Y-41374061D02*
X41132658Y-41302632D01*
X41132658Y-41302632D02*
X41204087Y-41159775D01*
X41204087Y-41159775D02*
X41204087Y-40874061D01*
X41204087Y-40874061D02*
X41132658Y-40731204D01*
X40204087Y-39874061D02*
X40275516Y-40016918D01*
X40275516Y-40016918D02*
X40346944Y-40088347D01*
X40346944Y-40088347D02*
X40489801Y-40159775D01*
X40489801Y-40159775D02*
X40918373Y-40159775D01*
X40918373Y-40159775D02*
X41061230Y-40088347D01*
X41061230Y-40088347D02*
X41132658Y-40016918D01*
X41132658Y-40016918D02*
X41204087Y-39874061D01*
X41204087Y-39874061D02*
X41204087Y-39659775D01*
X41204087Y-39659775D02*
X41132658Y-39516918D01*
X41132658Y-39516918D02*
X41061230Y-39445490D01*
X41061230Y-39445490D02*
X40918373Y-39374061D01*
X40918373Y-39374061D02*
X40489801Y-39374061D01*
X40489801Y-39374061D02*
X40346944Y-39445490D01*
X40346944Y-39445490D02*
X40275516Y-39516918D01*
X40275516Y-39516918D02*
X40204087Y-39659775D01*
X40204087Y-39659775D02*
X40204087Y-39874061D01*
X37789171Y-50945489D02*
X39289171Y-50945489D01*
X39289171Y-50945489D02*
X38217742Y-50445489D01*
X38217742Y-50445489D02*
X39289171Y-49945489D01*
X39289171Y-49945489D02*
X37789171Y-49945489D01*
X37789171Y-49231203D02*
X38789171Y-49231203D01*
X39289171Y-49231203D02*
X39217742Y-49302631D01*
X39217742Y-49302631D02*
X39146314Y-49231203D01*
X39146314Y-49231203D02*
X39217742Y-49159774D01*
X39217742Y-49159774D02*
X39289171Y-49231203D01*
X39289171Y-49231203D02*
X39146314Y-49231203D01*
X38789171Y-48516917D02*
X37789171Y-48516917D01*
X38646314Y-48516917D02*
X38717742Y-48445488D01*
X38717742Y-48445488D02*
X38789171Y-48302631D01*
X38789171Y-48302631D02*
X38789171Y-48088345D01*
X38789171Y-48088345D02*
X38717742Y-47945488D01*
X38717742Y-47945488D02*
X38574885Y-47874060D01*
X38574885Y-47874060D02*
X37789171Y-47874060D01*
X37789171Y-47159774D02*
X38789171Y-47159774D01*
X39289171Y-47159774D02*
X39217742Y-47231202D01*
X39217742Y-47231202D02*
X39146314Y-47159774D01*
X39146314Y-47159774D02*
X39217742Y-47088345D01*
X39217742Y-47088345D02*
X39289171Y-47159774D01*
X39289171Y-47159774D02*
X39146314Y-47159774D01*
X38789171Y-45516916D02*
X38789171Y-44945488D01*
X39289171Y-45302631D02*
X38003457Y-45302631D01*
X38003457Y-45302631D02*
X37860600Y-45231202D01*
X37860600Y-45231202D02*
X37789171Y-45088345D01*
X37789171Y-45088345D02*
X37789171Y-44945488D01*
X37789171Y-44445488D02*
X39289171Y-44445488D01*
X37789171Y-43802631D02*
X38574885Y-43802631D01*
X38574885Y-43802631D02*
X38717742Y-43874059D01*
X38717742Y-43874059D02*
X38789171Y-44016916D01*
X38789171Y-44016916D02*
X38789171Y-44231202D01*
X38789171Y-44231202D02*
X38717742Y-44374059D01*
X38717742Y-44374059D02*
X38646314Y-44445488D01*
X37789171Y-43088345D02*
X38789171Y-43088345D01*
X39289171Y-43088345D02*
X39217742Y-43159773D01*
X39217742Y-43159773D02*
X39146314Y-43088345D01*
X39146314Y-43088345D02*
X39217742Y-43016916D01*
X39217742Y-43016916D02*
X39289171Y-43088345D01*
X39289171Y-43088345D02*
X39146314Y-43088345D01*
X37860600Y-42445487D02*
X37789171Y-42302630D01*
X37789171Y-42302630D02*
X37789171Y-42016916D01*
X37789171Y-42016916D02*
X37860600Y-41874059D01*
X37860600Y-41874059D02*
X38003457Y-41802630D01*
X38003457Y-41802630D02*
X38074885Y-41802630D01*
X38074885Y-41802630D02*
X38217742Y-41874059D01*
X38217742Y-41874059D02*
X38289171Y-42016916D01*
X38289171Y-42016916D02*
X38289171Y-42231202D01*
X38289171Y-42231202D02*
X38360600Y-42374059D01*
X38360600Y-42374059D02*
X38503457Y-42445487D01*
X38503457Y-42445487D02*
X38574885Y-42445487D01*
X38574885Y-42445487D02*
X38717742Y-42374059D01*
X38717742Y-42374059D02*
X38789171Y-42231202D01*
X38789171Y-42231202D02*
X38789171Y-42016916D01*
X38789171Y-42016916D02*
X38717742Y-41874059D01*
X37860600Y-40088344D02*
X37789171Y-39945487D01*
X37789171Y-39945487D02*
X37789171Y-39659773D01*
X37789171Y-39659773D02*
X37860600Y-39516916D01*
X37860600Y-39516916D02*
X38003457Y-39445487D01*
X38003457Y-39445487D02*
X38074885Y-39445487D01*
X38074885Y-39445487D02*
X38217742Y-39516916D01*
X38217742Y-39516916D02*
X38289171Y-39659773D01*
X38289171Y-39659773D02*
X38289171Y-39874059D01*
X38289171Y-39874059D02*
X38360600Y-40016916D01*
X38360600Y-40016916D02*
X38503457Y-40088344D01*
X38503457Y-40088344D02*
X38574885Y-40088344D01*
X38574885Y-40088344D02*
X38717742Y-40016916D01*
X38717742Y-40016916D02*
X38789171Y-39874059D01*
X38789171Y-39874059D02*
X38789171Y-39659773D01*
X38789171Y-39659773D02*
X38717742Y-39516916D01*
X37789171Y-38802630D02*
X38789171Y-38802630D01*
X39289171Y-38802630D02*
X39217742Y-38874058D01*
X39217742Y-38874058D02*
X39146314Y-38802630D01*
X39146314Y-38802630D02*
X39217742Y-38731201D01*
X39217742Y-38731201D02*
X39289171Y-38802630D01*
X39289171Y-38802630D02*
X39146314Y-38802630D01*
X37789171Y-37445487D02*
X39289171Y-37445487D01*
X37860600Y-37445487D02*
X37789171Y-37588344D01*
X37789171Y-37588344D02*
X37789171Y-37874058D01*
X37789171Y-37874058D02*
X37860600Y-38016915D01*
X37860600Y-38016915D02*
X37932028Y-38088344D01*
X37932028Y-38088344D02*
X38074885Y-38159772D01*
X38074885Y-38159772D02*
X38503457Y-38159772D01*
X38503457Y-38159772D02*
X38646314Y-38088344D01*
X38646314Y-38088344D02*
X38717742Y-38016915D01*
X38717742Y-38016915D02*
X38789171Y-37874058D01*
X38789171Y-37874058D02*
X38789171Y-37588344D01*
X38789171Y-37588344D02*
X38717742Y-37445487D01*
X37860600Y-36159772D02*
X37789171Y-36302629D01*
X37789171Y-36302629D02*
X37789171Y-36588344D01*
X37789171Y-36588344D02*
X37860600Y-36731201D01*
X37860600Y-36731201D02*
X38003457Y-36802629D01*
X38003457Y-36802629D02*
X38574885Y-36802629D01*
X38574885Y-36802629D02*
X38717742Y-36731201D01*
X38717742Y-36731201D02*
X38789171Y-36588344D01*
X38789171Y-36588344D02*
X38789171Y-36302629D01*
X38789171Y-36302629D02*
X38717742Y-36159772D01*
X38717742Y-36159772D02*
X38574885Y-36088344D01*
X38574885Y-36088344D02*
X38432028Y-36088344D01*
X38432028Y-36088344D02*
X38289171Y-36802629D01*
D12*
X13017219Y-37649673D02*
X12017219Y-37649673D01*
X12017219Y-37649673D02*
X12731504Y-37983006D01*
X12731504Y-37983006D02*
X12017219Y-38316339D01*
X12017219Y-38316339D02*
X13017219Y-38316339D01*
X13017219Y-38792530D02*
X12350552Y-38792530D01*
X12017219Y-38792530D02*
X12064838Y-38744911D01*
X12064838Y-38744911D02*
X12112457Y-38792530D01*
X12112457Y-38792530D02*
X12064838Y-38840149D01*
X12064838Y-38840149D02*
X12017219Y-38792530D01*
X12017219Y-38792530D02*
X12112457Y-38792530D01*
X12969600Y-39697291D02*
X13017219Y-39602053D01*
X13017219Y-39602053D02*
X13017219Y-39411577D01*
X13017219Y-39411577D02*
X12969600Y-39316339D01*
X12969600Y-39316339D02*
X12921980Y-39268720D01*
X12921980Y-39268720D02*
X12826742Y-39221101D01*
X12826742Y-39221101D02*
X12541028Y-39221101D01*
X12541028Y-39221101D02*
X12445790Y-39268720D01*
X12445790Y-39268720D02*
X12398171Y-39316339D01*
X12398171Y-39316339D02*
X12350552Y-39411577D01*
X12350552Y-39411577D02*
X12350552Y-39602053D01*
X12350552Y-39602053D02*
X12398171Y-39697291D01*
X13017219Y-40125863D02*
X12350552Y-40125863D01*
X12541028Y-40125863D02*
X12445790Y-40173482D01*
X12445790Y-40173482D02*
X12398171Y-40221101D01*
X12398171Y-40221101D02*
X12350552Y-40316339D01*
X12350552Y-40316339D02*
X12350552Y-40411577D01*
X13017219Y-40887768D02*
X12969600Y-40792530D01*
X12969600Y-40792530D02*
X12921980Y-40744911D01*
X12921980Y-40744911D02*
X12826742Y-40697292D01*
X12826742Y-40697292D02*
X12541028Y-40697292D01*
X12541028Y-40697292D02*
X12445790Y-40744911D01*
X12445790Y-40744911D02*
X12398171Y-40792530D01*
X12398171Y-40792530D02*
X12350552Y-40887768D01*
X12350552Y-40887768D02*
X12350552Y-41030625D01*
X12350552Y-41030625D02*
X12398171Y-41125863D01*
X12398171Y-41125863D02*
X12445790Y-41173482D01*
X12445790Y-41173482D02*
X12541028Y-41221101D01*
X12541028Y-41221101D02*
X12826742Y-41221101D01*
X12826742Y-41221101D02*
X12921980Y-41173482D01*
X12921980Y-41173482D02*
X12969600Y-41125863D01*
X12969600Y-41125863D02*
X13017219Y-41030625D01*
X13017219Y-41030625D02*
X13017219Y-40887768D01*
X12969600Y-41602054D02*
X13017219Y-41744911D01*
X13017219Y-41744911D02*
X13017219Y-41983006D01*
X13017219Y-41983006D02*
X12969600Y-42078244D01*
X12969600Y-42078244D02*
X12921980Y-42125863D01*
X12921980Y-42125863D02*
X12826742Y-42173482D01*
X12826742Y-42173482D02*
X12731504Y-42173482D01*
X12731504Y-42173482D02*
X12636266Y-42125863D01*
X12636266Y-42125863D02*
X12588647Y-42078244D01*
X12588647Y-42078244D02*
X12541028Y-41983006D01*
X12541028Y-41983006D02*
X12493409Y-41792530D01*
X12493409Y-41792530D02*
X12445790Y-41697292D01*
X12445790Y-41697292D02*
X12398171Y-41649673D01*
X12398171Y-41649673D02*
X12302933Y-41602054D01*
X12302933Y-41602054D02*
X12207695Y-41602054D01*
X12207695Y-41602054D02*
X12112457Y-41649673D01*
X12112457Y-41649673D02*
X12064838Y-41697292D01*
X12064838Y-41697292D02*
X12017219Y-41792530D01*
X12017219Y-41792530D02*
X12017219Y-42030625D01*
X12017219Y-42030625D02*
X12064838Y-42173482D01*
X13017219Y-42602054D02*
X12017219Y-42602054D01*
X12017219Y-42602054D02*
X12017219Y-42840149D01*
X12017219Y-42840149D02*
X12064838Y-42983006D01*
X12064838Y-42983006D02*
X12160076Y-43078244D01*
X12160076Y-43078244D02*
X12255314Y-43125863D01*
X12255314Y-43125863D02*
X12445790Y-43173482D01*
X12445790Y-43173482D02*
X12588647Y-43173482D01*
X12588647Y-43173482D02*
X12779123Y-43125863D01*
X12779123Y-43125863D02*
X12874361Y-43078244D01*
X12874361Y-43078244D02*
X12969600Y-42983006D01*
X12969600Y-42983006D02*
X13017219Y-42840149D01*
X13017219Y-42840149D02*
X13017219Y-42602054D01*
D15*
X18804071Y-36740995D02*
X18875500Y-36669567D01*
X18875500Y-36669567D02*
X18946928Y-36455281D01*
X18946928Y-36455281D02*
X18946928Y-36312424D01*
X18946928Y-36312424D02*
X18875500Y-36098138D01*
X18875500Y-36098138D02*
X18732642Y-35955281D01*
X18732642Y-35955281D02*
X18589785Y-35883852D01*
X18589785Y-35883852D02*
X18304071Y-35812424D01*
X18304071Y-35812424D02*
X18089785Y-35812424D01*
X18089785Y-35812424D02*
X17804071Y-35883852D01*
X17804071Y-35883852D02*
X17661214Y-35955281D01*
X17661214Y-35955281D02*
X17518357Y-36098138D01*
X17518357Y-36098138D02*
X17446928Y-36312424D01*
X17446928Y-36312424D02*
X17446928Y-36455281D01*
X17446928Y-36455281D02*
X17518357Y-36669567D01*
X17518357Y-36669567D02*
X17589785Y-36740995D01*
X17446928Y-37383852D02*
X18661214Y-37383852D01*
X18661214Y-37383852D02*
X18804071Y-37455281D01*
X18804071Y-37455281D02*
X18875500Y-37526710D01*
X18875500Y-37526710D02*
X18946928Y-37669567D01*
X18946928Y-37669567D02*
X18946928Y-37955281D01*
X18946928Y-37955281D02*
X18875500Y-38098138D01*
X18875500Y-38098138D02*
X18804071Y-38169567D01*
X18804071Y-38169567D02*
X18661214Y-38240995D01*
X18661214Y-38240995D02*
X17446928Y-38240995D01*
X17446928Y-38740996D02*
X17446928Y-39598139D01*
X18946928Y-39169567D02*
X17446928Y-39169567D01*
X19089785Y-39740996D02*
X19089785Y-40883853D01*
X17446928Y-41526710D02*
X17446928Y-41812424D01*
X17446928Y-41812424D02*
X17518357Y-41955281D01*
X17518357Y-41955281D02*
X17661214Y-42098138D01*
X17661214Y-42098138D02*
X17946928Y-42169567D01*
X17946928Y-42169567D02*
X18446928Y-42169567D01*
X18446928Y-42169567D02*
X18732642Y-42098138D01*
X18732642Y-42098138D02*
X18875500Y-41955281D01*
X18875500Y-41955281D02*
X18946928Y-41812424D01*
X18946928Y-41812424D02*
X18946928Y-41526710D01*
X18946928Y-41526710D02*
X18875500Y-41383853D01*
X18875500Y-41383853D02*
X18732642Y-41240995D01*
X18732642Y-41240995D02*
X18446928Y-41169567D01*
X18446928Y-41169567D02*
X17946928Y-41169567D01*
X17946928Y-41169567D02*
X17661214Y-41240995D01*
X17661214Y-41240995D02*
X17518357Y-41383853D01*
X17518357Y-41383853D02*
X17446928Y-41526710D01*
X17446928Y-42812424D02*
X18661214Y-42812424D01*
X18661214Y-42812424D02*
X18804071Y-42883853D01*
X18804071Y-42883853D02*
X18875500Y-42955282D01*
X18875500Y-42955282D02*
X18946928Y-43098139D01*
X18946928Y-43098139D02*
X18946928Y-43383853D01*
X18946928Y-43383853D02*
X18875500Y-43526710D01*
X18875500Y-43526710D02*
X18804071Y-43598139D01*
X18804071Y-43598139D02*
X18661214Y-43669567D01*
X18661214Y-43669567D02*
X17446928Y-43669567D01*
X17446928Y-44169568D02*
X17446928Y-45026711D01*
X18946928Y-44598139D02*
X17446928Y-44598139D01*
D16*
X63633333Y-41914819D02*
X63633333Y-42629104D01*
X63633333Y-42629104D02*
X63680952Y-42771961D01*
X63680952Y-42771961D02*
X63776190Y-42867200D01*
X63776190Y-42867200D02*
X63919047Y-42914819D01*
X63919047Y-42914819D02*
X64014285Y-42914819D01*
X63157142Y-42914819D02*
X63157142Y-41914819D01*
X63157142Y-41914819D02*
X62776190Y-41914819D01*
X62776190Y-41914819D02*
X62680952Y-41962438D01*
X62680952Y-41962438D02*
X62633333Y-42010057D01*
X62633333Y-42010057D02*
X62585714Y-42105295D01*
X62585714Y-42105295D02*
X62585714Y-42248152D01*
X62585714Y-42248152D02*
X62633333Y-42343390D01*
X62633333Y-42343390D02*
X62680952Y-42391009D01*
X62680952Y-42391009D02*
X62776190Y-42438628D01*
X62776190Y-42438628D02*
X63157142Y-42438628D01*
X62204761Y-42010057D02*
X62157142Y-41962438D01*
X62157142Y-41962438D02*
X62061904Y-41914819D01*
X62061904Y-41914819D02*
X61823809Y-41914819D01*
X61823809Y-41914819D02*
X61728571Y-41962438D01*
X61728571Y-41962438D02*
X61680952Y-42010057D01*
X61680952Y-42010057D02*
X61633333Y-42105295D01*
X61633333Y-42105295D02*
X61633333Y-42200533D01*
X61633333Y-42200533D02*
X61680952Y-42343390D01*
X61680952Y-42343390D02*
X62252380Y-42914819D01*
X62252380Y-42914819D02*
X61633333Y-42914819D01*
X54833333Y-47554819D02*
X54833333Y-48269104D01*
X54833333Y-48269104D02*
X54880952Y-48411961D01*
X54880952Y-48411961D02*
X54976190Y-48507200D01*
X54976190Y-48507200D02*
X55119047Y-48554819D01*
X55119047Y-48554819D02*
X55214285Y-48554819D01*
X54357142Y-48554819D02*
X54357142Y-47554819D01*
X54357142Y-47554819D02*
X53976190Y-47554819D01*
X53976190Y-47554819D02*
X53880952Y-47602438D01*
X53880952Y-47602438D02*
X53833333Y-47650057D01*
X53833333Y-47650057D02*
X53785714Y-47745295D01*
X53785714Y-47745295D02*
X53785714Y-47888152D01*
X53785714Y-47888152D02*
X53833333Y-47983390D01*
X53833333Y-47983390D02*
X53880952Y-48031009D01*
X53880952Y-48031009D02*
X53976190Y-48078628D01*
X53976190Y-48078628D02*
X54357142Y-48078628D01*
X52928571Y-47888152D02*
X52928571Y-48554819D01*
X53166666Y-47507200D02*
X53404761Y-48221485D01*
X53404761Y-48221485D02*
X52785714Y-48221485D01*
X63633333Y-36224819D02*
X63633333Y-36939104D01*
X63633333Y-36939104D02*
X63680952Y-37081961D01*
X63680952Y-37081961D02*
X63776190Y-37177200D01*
X63776190Y-37177200D02*
X63919047Y-37224819D01*
X63919047Y-37224819D02*
X64014285Y-37224819D01*
X63157142Y-37224819D02*
X63157142Y-36224819D01*
X63157142Y-36224819D02*
X62776190Y-36224819D01*
X62776190Y-36224819D02*
X62680952Y-36272438D01*
X62680952Y-36272438D02*
X62633333Y-36320057D01*
X62633333Y-36320057D02*
X62585714Y-36415295D01*
X62585714Y-36415295D02*
X62585714Y-36558152D01*
X62585714Y-36558152D02*
X62633333Y-36653390D01*
X62633333Y-36653390D02*
X62680952Y-36701009D01*
X62680952Y-36701009D02*
X62776190Y-36748628D01*
X62776190Y-36748628D02*
X63157142Y-36748628D01*
X61728571Y-36224819D02*
X61919047Y-36224819D01*
X61919047Y-36224819D02*
X62014285Y-36272438D01*
X62014285Y-36272438D02*
X62061904Y-36320057D01*
X62061904Y-36320057D02*
X62157142Y-36462914D01*
X62157142Y-36462914D02*
X62204761Y-36653390D01*
X62204761Y-36653390D02*
X62204761Y-37034342D01*
X62204761Y-37034342D02*
X62157142Y-37129580D01*
X62157142Y-37129580D02*
X62109523Y-37177200D01*
X62109523Y-37177200D02*
X62014285Y-37224819D01*
X62014285Y-37224819D02*
X61823809Y-37224819D01*
X61823809Y-37224819D02*
X61728571Y-37177200D01*
X61728571Y-37177200D02*
X61680952Y-37129580D01*
X61680952Y-37129580D02*
X61633333Y-37034342D01*
X61633333Y-37034342D02*
X61633333Y-36796247D01*
X61633333Y-36796247D02*
X61680952Y-36701009D01*
X61680952Y-36701009D02*
X61728571Y-36653390D01*
X61728571Y-36653390D02*
X61823809Y-36605771D01*
X61823809Y-36605771D02*
X62014285Y-36605771D01*
X62014285Y-36605771D02*
X62109523Y-36653390D01*
X62109523Y-36653390D02*
X62157142Y-36701009D01*
X62157142Y-36701009D02*
X62204761Y-36796247D01*
X54833333Y-41854819D02*
X54833333Y-42569104D01*
X54833333Y-42569104D02*
X54880952Y-42711961D01*
X54880952Y-42711961D02*
X54976190Y-42807200D01*
X54976190Y-42807200D02*
X55119047Y-42854819D01*
X55119047Y-42854819D02*
X55214285Y-42854819D01*
X54357142Y-42854819D02*
X54357142Y-41854819D01*
X54357142Y-41854819D02*
X53976190Y-41854819D01*
X53976190Y-41854819D02*
X53880952Y-41902438D01*
X53880952Y-41902438D02*
X53833333Y-41950057D01*
X53833333Y-41950057D02*
X53785714Y-42045295D01*
X53785714Y-42045295D02*
X53785714Y-42188152D01*
X53785714Y-42188152D02*
X53833333Y-42283390D01*
X53833333Y-42283390D02*
X53880952Y-42331009D01*
X53880952Y-42331009D02*
X53976190Y-42378628D01*
X53976190Y-42378628D02*
X54357142Y-42378628D01*
X53452380Y-41854819D02*
X52833333Y-41854819D01*
X52833333Y-41854819D02*
X53166666Y-42235771D01*
X53166666Y-42235771D02*
X53023809Y-42235771D01*
X53023809Y-42235771D02*
X52928571Y-42283390D01*
X52928571Y-42283390D02*
X52880952Y-42331009D01*
X52880952Y-42331009D02*
X52833333Y-42426247D01*
X52833333Y-42426247D02*
X52833333Y-42664342D01*
X52833333Y-42664342D02*
X52880952Y-42759580D01*
X52880952Y-42759580D02*
X52928571Y-42807200D01*
X52928571Y-42807200D02*
X53023809Y-42854819D01*
X53023809Y-42854819D02*
X53309523Y-42854819D01*
X53309523Y-42854819D02*
X53404761Y-42807200D01*
X53404761Y-42807200D02*
X53452380Y-42759580D01*
X63383333Y-47724819D02*
X63383333Y-48439104D01*
X63383333Y-48439104D02*
X63430952Y-48581961D01*
X63430952Y-48581961D02*
X63526190Y-48677200D01*
X63526190Y-48677200D02*
X63669047Y-48724819D01*
X63669047Y-48724819D02*
X63764285Y-48724819D01*
X62907142Y-48724819D02*
X62907142Y-47724819D01*
X62907142Y-47724819D02*
X62526190Y-47724819D01*
X62526190Y-47724819D02*
X62430952Y-47772438D01*
X62430952Y-47772438D02*
X62383333Y-47820057D01*
X62383333Y-47820057D02*
X62335714Y-47915295D01*
X62335714Y-47915295D02*
X62335714Y-48058152D01*
X62335714Y-48058152D02*
X62383333Y-48153390D01*
X62383333Y-48153390D02*
X62430952Y-48201009D01*
X62430952Y-48201009D02*
X62526190Y-48248628D01*
X62526190Y-48248628D02*
X62907142Y-48248628D01*
X61383333Y-48724819D02*
X61954761Y-48724819D01*
X61669047Y-48724819D02*
X61669047Y-47724819D01*
X61669047Y-47724819D02*
X61764285Y-47867676D01*
X61764285Y-47867676D02*
X61859523Y-47962914D01*
X61859523Y-47962914D02*
X61954761Y-48010533D01*
X54833333Y-36434819D02*
X54833333Y-37149104D01*
X54833333Y-37149104D02*
X54880952Y-37291961D01*
X54880952Y-37291961D02*
X54976190Y-37387200D01*
X54976190Y-37387200D02*
X55119047Y-37434819D01*
X55119047Y-37434819D02*
X55214285Y-37434819D01*
X54357142Y-37434819D02*
X54357142Y-36434819D01*
X54357142Y-36434819D02*
X53976190Y-36434819D01*
X53976190Y-36434819D02*
X53880952Y-36482438D01*
X53880952Y-36482438D02*
X53833333Y-36530057D01*
X53833333Y-36530057D02*
X53785714Y-36625295D01*
X53785714Y-36625295D02*
X53785714Y-36768152D01*
X53785714Y-36768152D02*
X53833333Y-36863390D01*
X53833333Y-36863390D02*
X53880952Y-36911009D01*
X53880952Y-36911009D02*
X53976190Y-36958628D01*
X53976190Y-36958628D02*
X54357142Y-36958628D01*
X52880952Y-36434819D02*
X53357142Y-36434819D01*
X53357142Y-36434819D02*
X53404761Y-36911009D01*
X53404761Y-36911009D02*
X53357142Y-36863390D01*
X53357142Y-36863390D02*
X53261904Y-36815771D01*
X53261904Y-36815771D02*
X53023809Y-36815771D01*
X53023809Y-36815771D02*
X52928571Y-36863390D01*
X52928571Y-36863390D02*
X52880952Y-36911009D01*
X52880952Y-36911009D02*
X52833333Y-37006247D01*
X52833333Y-37006247D02*
X52833333Y-37244342D01*
X52833333Y-37244342D02*
X52880952Y-37339580D01*
X52880952Y-37339580D02*
X52928571Y-37387200D01*
X52928571Y-37387200D02*
X53023809Y-37434819D01*
X53023809Y-37434819D02*
X53261904Y-37434819D01*
X53261904Y-37434819D02*
X53357142Y-37387200D01*
X53357142Y-37387200D02*
X53404761Y-37339580D01*
%TO.C,U1*%
D11*
X9150000Y-35780000D02*
X13650000Y-35780000D01*
X13650000Y-44780000D01*
X9150000Y-44780000D01*
X9150000Y-35780000D01*
%TO.C,JP2*%
D17*
X61400000Y-40300000D02*
X61400000Y-40900000D01*
X62100000Y-41600000D02*
X63500000Y-41600000D01*
X63500000Y-39600000D02*
X62100000Y-39600000D01*
X64200000Y-40900000D02*
X64200000Y-40300000D01*
X61400000Y-40300000D02*
G75*
G02*
X62100000Y-39600000I700000J0D01*
G01*
X62100000Y-41600000D02*
G75*
G02*
X61400000Y-40900000I0J700000D01*
G01*
X63500000Y-39600000D02*
G75*
G02*
X64200000Y-40300000I1J-699999D01*
G01*
X64200000Y-40900000D02*
G75*
G02*
X63500000Y-41600000I-699999J-1D01*
G01*
%TO.C,JP4*%
X52600000Y-46000000D02*
X52600000Y-46600000D01*
X53300000Y-47300000D02*
X54700000Y-47300000D01*
X54700000Y-45300000D02*
X53300000Y-45300000D01*
X55400000Y-46600000D02*
X55400000Y-46000000D01*
X52600000Y-46000000D02*
G75*
G02*
X53300000Y-45300000I699999J1D01*
G01*
X53300000Y-47300000D02*
G75*
G02*
X52600000Y-46600000I-1J699999D01*
G01*
X54700000Y-45300000D02*
G75*
G02*
X55400000Y-46000000I0J-700000D01*
G01*
X55400000Y-46600000D02*
G75*
G02*
X54700000Y-47300000I-700000J0D01*
G01*
%TO.C,JP6*%
X61400000Y-34600000D02*
X61400000Y-35200000D01*
X62100000Y-35900000D02*
X63500000Y-35900000D01*
X63500000Y-33900000D02*
X62100000Y-33900000D01*
X64200000Y-35200000D02*
X64200000Y-34600000D01*
X61400000Y-34600000D02*
G75*
G02*
X62100000Y-33900000I700000J0D01*
G01*
X62100000Y-35900000D02*
G75*
G02*
X61400000Y-35200000I0J700000D01*
G01*
X63500000Y-33900000D02*
G75*
G02*
X64200000Y-34600000I1J-699999D01*
G01*
X64200000Y-35200000D02*
G75*
G02*
X63500000Y-35900000I-699999J-1D01*
G01*
%TO.C,JP3*%
X52600000Y-40300000D02*
X52600000Y-40900000D01*
X53300000Y-41600000D02*
X54700000Y-41600000D01*
X54700000Y-39600000D02*
X53300000Y-39600000D01*
X55400000Y-40900000D02*
X55400000Y-40300000D01*
X52600000Y-40300000D02*
G75*
G02*
X53300000Y-39600000I699999J1D01*
G01*
X53300000Y-41600000D02*
G75*
G02*
X52600000Y-40900000I-1J699999D01*
G01*
X54700000Y-39600000D02*
G75*
G02*
X55400000Y-40300000I0J-700000D01*
G01*
X55400000Y-40900000D02*
G75*
G02*
X54700000Y-41600000I-700000J0D01*
G01*
%TO.C,JP1*%
X61400000Y-46000000D02*
X61400000Y-46600000D01*
X62100000Y-47300000D02*
X63500000Y-47300000D01*
X63500000Y-45300000D02*
X62100000Y-45300000D01*
X64200000Y-46600000D02*
X64200000Y-46000000D01*
X61400000Y-46000000D02*
G75*
G02*
X62100000Y-45300000I700000J0D01*
G01*
X62100000Y-47300000D02*
G75*
G02*
X61400000Y-46600000I0J700000D01*
G01*
X63500000Y-45300000D02*
G75*
G02*
X64200000Y-46000000I1J-699999D01*
G01*
X64200000Y-46600000D02*
G75*
G02*
X63500000Y-47300000I-699999J-1D01*
G01*
%TO.C,JP5*%
X52600000Y-34600000D02*
X52600000Y-35200000D01*
X53300000Y-35900000D02*
X54700000Y-35900000D01*
X54700000Y-33900000D02*
X53300000Y-33900000D01*
X55400000Y-35200000D02*
X55400000Y-34600000D01*
X52600000Y-34600000D02*
G75*
G02*
X53300000Y-33900000I699999J1D01*
G01*
X53300000Y-35900000D02*
G75*
G02*
X52600000Y-35200000I-1J699999D01*
G01*
X54700000Y-33900000D02*
G75*
G02*
X55400000Y-34600000I0J-700000D01*
G01*
X55400000Y-35200000D02*
G75*
G02*
X54700000Y-35900000I-700000J0D01*
G01*
%TD*%
%LPC*%
%TO.C,JP2*%
G36*
X62650000Y-39850000D02*
G01*
X62950000Y-39850000D01*
X62950000Y-41350000D01*
X62650000Y-41350000D01*
X62650000Y-39850000D01*
G37*
%TO.C,JP4*%
G36*
X53850000Y-45550000D02*
G01*
X54150000Y-45550000D01*
X54150000Y-47050000D01*
X53850000Y-47050000D01*
X53850000Y-45550000D01*
G37*
%TO.C,JP6*%
G36*
X62650000Y-34150000D02*
G01*
X62950000Y-34150000D01*
X62950000Y-35650000D01*
X62650000Y-35650000D01*
X62650000Y-34150000D01*
G37*
%TO.C,JP3*%
G36*
X53850000Y-39850000D02*
G01*
X54150000Y-39850000D01*
X54150000Y-41350000D01*
X53850000Y-41350000D01*
X53850000Y-39850000D01*
G37*
%TO.C,JP1*%
G36*
X62650000Y-45550000D02*
G01*
X62950000Y-45550000D01*
X62950000Y-47050000D01*
X62650000Y-47050000D01*
X62650000Y-45550000D01*
G37*
%TO.C,JP5*%
G36*
X53850000Y-34150000D02*
G01*
X54150000Y-34150000D01*
X54150000Y-35650000D01*
X53850000Y-35650000D01*
X53850000Y-34150000D01*
G37*
%TD*%
D18*
%TO.C,U1*%
X10650000Y-50930000D03*
D19*
X10650000Y-49280000D03*
D18*
X13190000Y-50930000D03*
D19*
X13190000Y-49280000D03*
D18*
X15730000Y-50930000D03*
D19*
X15730000Y-49280000D03*
D18*
X18270000Y-50930000D03*
D19*
X18270000Y-49280000D03*
D18*
X20810000Y-50930000D03*
D19*
X20810000Y-49280000D03*
D18*
X23350000Y-50930000D03*
D19*
X23350000Y-49280000D03*
D18*
X25890000Y-50930000D03*
D19*
X25890000Y-49280000D03*
D18*
X28430000Y-50930000D03*
D19*
X28430000Y-49280000D03*
D18*
X30970000Y-50930000D03*
D19*
X30970000Y-49280000D03*
D18*
X33510000Y-50930000D03*
D19*
X33510000Y-49280000D03*
D18*
X36050000Y-50930000D03*
D19*
X36050000Y-49280000D03*
X36050000Y-31500000D03*
D18*
X36050000Y-29875000D03*
D19*
X33510000Y-31500000D03*
D18*
X33510000Y-29875000D03*
D19*
X30970000Y-31500000D03*
D18*
X30970000Y-29875000D03*
D19*
X28430000Y-31500000D03*
D18*
X28430000Y-29875000D03*
D19*
X25890000Y-31500000D03*
D18*
X25890000Y-29875000D03*
D19*
X23350000Y-31500000D03*
D18*
X23350000Y-29875000D03*
D19*
X20810000Y-31500000D03*
D18*
X20810000Y-29875000D03*
D19*
X18270000Y-31500000D03*
D18*
X18270000Y-29875000D03*
D19*
X15730000Y-31500000D03*
D18*
X15730000Y-29875000D03*
D19*
X13190000Y-31500000D03*
D18*
X13190000Y-29875000D03*
D20*
X10650000Y-31500000D03*
D21*
X10650000Y-30080000D03*
%TD*%
D22*
%TO.C,U2*%
X70000000Y-55500000D03*
X70000000Y-31500000D03*
X12000000Y-55500000D03*
D23*
X65240000Y-52960000D03*
D24*
X65240000Y-55500000D03*
X62700000Y-52960000D03*
X62700000Y-55500000D03*
X60160000Y-52960000D03*
X60160000Y-55500000D03*
X57620000Y-52960000D03*
X57620000Y-55500000D03*
X55080000Y-52960000D03*
X55080000Y-55500000D03*
X52540000Y-52960000D03*
X52540000Y-55500000D03*
X50000000Y-52960000D03*
X50000000Y-55500000D03*
X47460000Y-52960000D03*
X47460000Y-55500000D03*
X44920000Y-52960000D03*
X44920000Y-55500000D03*
X42380000Y-52960000D03*
X42380000Y-55500000D03*
X39840000Y-52960000D03*
X39840000Y-55500000D03*
X37300000Y-52960000D03*
X37300000Y-55500000D03*
X34760000Y-52960000D03*
X34760000Y-55500000D03*
X32220000Y-52960000D03*
X32220000Y-55500000D03*
X29680000Y-52960000D03*
X29680000Y-55500000D03*
X27140000Y-52960000D03*
X27140000Y-55500000D03*
X24600000Y-52960000D03*
X24600000Y-55500000D03*
X22060000Y-52960000D03*
X22060000Y-55500000D03*
X19520000Y-52960000D03*
X19520000Y-55500000D03*
X16980000Y-52960000D03*
X16980000Y-55500000D03*
%TD*%
D25*
%TO.C,JP2*%
X63450000Y-40600000D03*
D26*
X62150000Y-40600000D03*
%TD*%
D27*
%TO.C,JP4*%
X53350000Y-46300000D03*
D28*
X54650000Y-46300000D03*
%TD*%
D25*
%TO.C,JP6*%
X63450000Y-34900000D03*
D26*
X62150000Y-34900000D03*
%TD*%
D27*
%TO.C,JP3*%
X53350000Y-40600000D03*
D28*
X54650000Y-40600000D03*
%TD*%
D25*
%TO.C,JP1*%
X63450000Y-46300000D03*
D26*
X62150000Y-46300000D03*
%TD*%
D27*
%TO.C,JP5*%
X53350000Y-34900000D03*
D28*
X54650000Y-34900000D03*
%TD*%
%LPD*%
M02*
