%TF.GenerationSoftware,KiCad,Pcbnew,10.0.5*%
%TF.CreationDate,2026-07-27T20:54:21-06:00*%
%TF.ProjectId,seedsigner-luckfox-pico-mini,73656564-7369-4676-9e65-722d6c75636b,sdfsdf*%
%TF.SameCoordinates,Original*%
%TF.FileFunction,Copper,L2,Inr*%
%TF.FilePolarity,Positive*%
%FSLAX46Y46*%
G04 Gerber Fmt 4.6, Leading zero omitted, Abs format (unit mm)*
G04 Created by KiCad (PCBNEW 10.0.5) date 2026-07-27 20:54:21*
%MOMM*%
%LPD*%
G01*
G04 APERTURE LIST*
G04 Aperture macros list*
%AMFreePoly0*
4,1,33,0.221197,0.729189,0.359204,0.672024,0.483408,0.589034,0.589034,0.483408,0.672024,0.359204,0.729189,0.221197,0.758331,0.074689,0.758331,-0.074689,0.729189,-0.221197,0.672024,-0.359204,0.589034,-0.483408,0.483408,-0.589034,0.359204,-0.672024,0.221197,-0.729189,0.074689,-0.758331,-0.074689,-0.758331,-0.221197,-0.729189,-0.359204,-0.672024,-0.483408,-0.589034,-0.589034,-0.483408,
-0.672024,-0.359204,-0.729189,-0.221197,-0.758331,-0.074689,-0.758331,0.074689,-0.729189,0.221197,-0.672024,0.359204,-0.589034,0.483408,-0.483408,0.589034,-0.359204,0.672024,-0.221197,0.729189,-0.074689,0.758331,0.074689,0.758331,0.221197,0.729189,0.221197,0.729189,$1*%
G04 Aperture macros list end*
%TA.AperFunction,ComponentPad*%
%ADD10C,1.524000*%
%TD*%
%TA.AperFunction,ComponentPad*%
%ADD11FreePoly0,90.000000*%
%TD*%
%TA.AperFunction,WasherPad*%
%ADD12C,3.500000*%
%TD*%
%TA.AperFunction,ComponentPad*%
%ADD13R,1.700000X1.700000*%
%TD*%
%TA.AperFunction,ComponentPad*%
%ADD14O,1.700000X1.700000*%
%TD*%
%TA.AperFunction,ViaPad*%
%ADD15C,0.500000*%
%TD*%
%TA.AperFunction,Conductor*%
%ADD16C,0.150000*%
%TD*%
G04 APERTURE END LIST*
D10*
%TO.N,+5V*%
%TO.C,U1*%
X10650000Y-49280000D03*
%TO.N,GND*%
X13190000Y-49280000D03*
%TO.N,+3.3V*%
X15730000Y-49280000D03*
%TO.N,/UART_TXD*%
X18270000Y-49280000D03*
%TO.N,/UART_RXD*%
X20810000Y-49280000D03*
%TO.N,Net-(JP5-B)*%
X23350000Y-49280000D03*
%TO.N,/SPI_SCLK*%
X25890000Y-49280000D03*
%TO.N,/SPI_MOSI*%
X28430000Y-49280000D03*
%TO.N,/RST*%
X30970000Y-49280000D03*
%TO.N,/DC*%
X33510000Y-49280000D03*
%TO.N,/KEY3*%
X36050000Y-49280000D03*
%TO.N,/JOYSTICK_LEFT*%
X36050000Y-31500000D03*
%TO.N,/JOYSTICK_UP*%
X33510000Y-31500000D03*
%TO.N,/I2C-SDA*%
X30970000Y-31500000D03*
%TO.N,/I2C-SCL*%
X28430000Y-31500000D03*
%TO.N,/JOYSTICK_PRESS*%
X25890000Y-31500000D03*
%TO.N,/JOYSTICK_DOWN*%
X23350000Y-31500000D03*
%TO.N,/JOYSTICK_RIGHT*%
X20810000Y-31500000D03*
%TO.N,/KEY1*%
X18270000Y-31500000D03*
%TO.N,/KEY2*%
X15730000Y-31500000D03*
%TO.N,GND*%
X13190000Y-31500000D03*
D11*
%TO.N,unconnected-(U1-1V8(OUT)-Pad22)*%
X10650000Y-31500000D03*
%TD*%
D12*
%TO.N,*%
%TO.C,U2*%
X70000000Y-55500000D03*
X70000000Y-31500000D03*
X12000000Y-55500000D03*
D13*
%TO.N,+3.3V*%
X65240000Y-52960000D03*
D14*
%TO.N,+5V*%
X65240000Y-55500000D03*
%TO.N,/I2C-SDA*%
X62700000Y-52960000D03*
%TO.N,+5V*%
X62700000Y-55500000D03*
%TO.N,/I2C-SCL*%
X60160000Y-52960000D03*
%TO.N,GND*%
X60160000Y-55500000D03*
%TO.N,N/C*%
X57620000Y-52960000D03*
%TO.N,/UART_TXD*%
X57620000Y-55500000D03*
%TO.N,GND*%
X55080000Y-52960000D03*
%TO.N,/UART_RXD*%
X55080000Y-55500000D03*
%TO.N,N/C*%
X52540000Y-52960000D03*
X52540000Y-55500000D03*
%TO.N,/RST*%
X50000000Y-52960000D03*
%TO.N,GND*%
X50000000Y-55500000D03*
%TO.N,N/C*%
X47460000Y-52960000D03*
X47460000Y-55500000D03*
%TO.N,+3.3V*%
X44920000Y-52960000D03*
%TO.N,/RPI_BACKLIGHT*%
X44920000Y-55500000D03*
%TO.N,/SPI_MOSI*%
X42380000Y-52960000D03*
%TO.N,GND*%
X42380000Y-55500000D03*
%TO.N,N/C*%
X39840000Y-52960000D03*
%TO.N,/DC*%
X39840000Y-55500000D03*
%TO.N,/SPI_SCLK*%
X37300000Y-52960000D03*
%TO.N,/RPI_SPI_CS*%
X37300000Y-55500000D03*
%TO.N,GND*%
X34760000Y-52960000D03*
%TO.N,N/C*%
X34760000Y-55500000D03*
X32220000Y-52960000D03*
X32220000Y-55500000D03*
%TO.N,/JOYSTICK_LEFT*%
X29680000Y-52960000D03*
%TO.N,GND*%
X29680000Y-55500000D03*
%TO.N,/JOYSTICK_UP*%
X27140000Y-52960000D03*
%TO.N,N/C*%
X27140000Y-55500000D03*
%TO.N,/JOYSTICK_PRESS*%
X24600000Y-52960000D03*
%TO.N,GND*%
X24600000Y-55500000D03*
%TO.N,/JOYSTICK_DOWN*%
X22060000Y-52960000D03*
%TO.N,/KEY3*%
X22060000Y-55500000D03*
%TO.N,/JOYSTICK_RIGHT*%
X19520000Y-52960000D03*
%TO.N,/KEY2*%
X19520000Y-55500000D03*
%TO.N,GND*%
X16980000Y-52960000D03*
%TO.N,/KEY1*%
X16980000Y-55500000D03*
%TD*%
D15*
%TO.N,GND*%
X58825000Y-56575000D03*
X47275000Y-44925000D03*
X15300000Y-56925000D03*
X34800000Y-31900000D03*
X37300000Y-31495000D03*
X33475000Y-56375000D03*
X52520000Y-49810000D03*
X38500000Y-49000000D03*
X62725000Y-51475000D03*
X24599978Y-48631452D03*
X31120000Y-56390000D03*
X51880000Y-51710000D03*
X43575000Y-48875000D03*
X44700000Y-50025000D03*
X37200000Y-33200000D03*
X47060000Y-37160000D03*
X38525000Y-56350000D03*
X61420000Y-54920000D03*
X36100000Y-56400000D03*
X47200000Y-50325000D03*
X53725000Y-52050000D03*
X41600000Y-34000000D03*
X16900000Y-32000000D03*
X32200000Y-48700000D03*
X29600000Y-32000000D03*
X39680000Y-48800000D03*
X51275000Y-56025000D03*
X45850000Y-31500000D03*
X42760000Y-41180000D03*
X38570000Y-33220000D03*
X19500000Y-32000000D03*
X27100000Y-48700000D03*
X64025000Y-57075000D03*
X43319000Y-53850000D03*
X23175000Y-56575000D03*
X43875000Y-31125000D03*
X43782156Y-56700001D03*
X61500000Y-56675000D03*
X23320000Y-55020000D03*
X46250000Y-29500000D03*
X45800000Y-56600000D03*
X13900000Y-52800000D03*
X27000000Y-32000000D03*
X41700000Y-48600000D03*
X36100000Y-53785000D03*
X34799972Y-48638706D03*
X41350000Y-56300000D03*
X29700000Y-48700000D03*
X19500000Y-48700000D03*
X9200000Y-49000000D03*
X22100000Y-48700000D03*
X50830083Y-54748842D03*
X59000000Y-54810000D03*
X25825000Y-56525000D03*
X39660000Y-33340000D03*
X22000000Y-32000000D03*
X42625000Y-38775000D03*
X56500000Y-43950000D03*
X24500000Y-32000000D03*
X10400000Y-52675000D03*
X15750000Y-54425000D03*
X27770000Y-56660000D03*
X48750000Y-51950000D03*
X53775000Y-53725000D03*
X56775000Y-50375000D03*
X11900000Y-29700000D03*
X56450000Y-37950000D03*
X56725000Y-48100000D03*
X13520000Y-57750000D03*
X56300000Y-54325000D03*
X43625000Y-32700000D03*
X47375000Y-40000000D03*
X32200000Y-32100000D03*
X50210000Y-50120000D03*
X49920000Y-41870000D03*
X42650000Y-44550000D03*
X30960000Y-53630000D03*
X65450000Y-29625000D03*
X18400000Y-56825000D03*
X47110000Y-38360000D03*
X56175000Y-30150000D03*
X45775000Y-51175000D03*
X66875000Y-51075000D03*
%TO.N,Net-(JP5-B)*%
X54375000Y-36400000D03*
%TO.N,/I2C-SDA*%
X40940000Y-32840000D03*
%TO.N,/JOYSTICK_DOWN*%
X24600000Y-51275000D03*
%TO.N,/I2C-SCL*%
X42160000Y-33500000D03*
%TO.N,/RPI_SPI_CS*%
X48350000Y-48680000D03*
X54210000Y-48270000D03*
%TD*%
%TO.N,GND*%
D16*
X43319000Y-53850000D02*
X43319000Y-54561000D01*
X43319000Y-54561000D02*
X42380000Y-55500000D01*
%TO.N,Net-(JP5-B)*%
X48561000Y-55956050D02*
X48561000Y-55043950D01*
X24189000Y-54399000D02*
X25394050Y-54399000D01*
X23250000Y-50750000D02*
X23330000Y-50830000D01*
X48561000Y-55043950D02*
X49543950Y-54061000D01*
X49543950Y-54061000D02*
X50456050Y-54061000D01*
X23330000Y-50830000D02*
X23330000Y-53540000D01*
X50456050Y-54061000D02*
X51101000Y-53416050D01*
X28281950Y-58199000D02*
X46318050Y-58199000D01*
X23250000Y-49180000D02*
X23250000Y-50750000D01*
X25775000Y-54779950D02*
X25775000Y-55692050D01*
X25775000Y-55692050D02*
X28281950Y-58199000D01*
X51101000Y-39674000D02*
X54375000Y-36400000D01*
X25394050Y-54399000D02*
X25775000Y-54779950D01*
X23330000Y-53540000D02*
X24189000Y-54399000D01*
X51101000Y-53416050D02*
X51101000Y-39674000D01*
X46318050Y-58199000D02*
X48561000Y-55956050D01*
%TO.N,/JOYSTICK_UP*%
X28480000Y-54300000D02*
X37517050Y-54300000D01*
X40200000Y-32490000D02*
X38010000Y-30300000D01*
X38010000Y-30300000D02*
X33510000Y-30300000D01*
X40200000Y-50300000D02*
X40200000Y-32490000D01*
X33410000Y-30400000D02*
X33410000Y-31400000D01*
X38401000Y-52099000D02*
X40200000Y-50300000D01*
X27140000Y-52960000D02*
X28480000Y-54300000D01*
X37517050Y-54300000D02*
X38401000Y-53416050D01*
X38401000Y-53416050D02*
X38401000Y-52099000D01*
X33510000Y-30300000D02*
X33410000Y-30400000D01*
%TO.N,/I2C-SDA*%
X40940000Y-32440000D02*
X40940000Y-32840000D01*
X30870000Y-31400000D02*
X32570000Y-29700000D01*
X38200000Y-29700000D02*
X40940000Y-32440000D01*
X32570000Y-29700000D02*
X38200000Y-29700000D01*
%TO.N,/RST*%
X44801950Y-54061000D02*
X48899000Y-54061000D01*
X30440000Y-49180000D02*
X27761000Y-51859000D01*
X42187050Y-57250000D02*
X43775000Y-55662050D01*
X43775000Y-55662050D02*
X43775000Y-55087950D01*
X30870000Y-49180000D02*
X30440000Y-49180000D01*
X28375000Y-56525000D02*
X29100000Y-57250000D01*
X26683950Y-54061000D02*
X27486000Y-54061000D01*
X26683950Y-51859000D02*
X26039000Y-52503950D01*
X27761000Y-51859000D02*
X26683950Y-51859000D01*
X48899000Y-54061000D02*
X50000000Y-52960000D01*
X27486000Y-54061000D02*
X28375000Y-54950000D01*
X26039000Y-53416050D02*
X26683950Y-54061000D01*
X28375000Y-54950000D02*
X28375000Y-56525000D01*
X43775000Y-55087950D02*
X44801950Y-54061000D01*
X26039000Y-52503950D02*
X26039000Y-53416050D01*
X29100000Y-57250000D02*
X42187050Y-57250000D01*
%TO.N,/JOYSTICK_LEFT*%
X29680000Y-52960000D02*
X30781000Y-51859000D01*
X39070000Y-49462599D02*
X39070000Y-33000000D01*
X38040000Y-31970000D02*
X36520000Y-31970000D01*
X39070000Y-33000000D02*
X38040000Y-31970000D01*
X36520000Y-31970000D02*
X35950000Y-31400000D01*
X36673599Y-51859000D02*
X39070000Y-49462599D01*
X30781000Y-51859000D02*
X36673599Y-51859000D01*
%TO.N,/I2C-SCL*%
X30330000Y-29400000D02*
X38724264Y-29400000D01*
X42160000Y-32835736D02*
X42160000Y-33500000D01*
X38724264Y-29400000D02*
X42160000Y-32835736D01*
X28330000Y-31400000D02*
X30330000Y-29400000D01*
%TO.N,/RPI_SPI_CS*%
X41120000Y-52380000D02*
X44820000Y-48680000D01*
X44820000Y-48680000D02*
X48350000Y-48680000D01*
X38490000Y-54310000D02*
X40640000Y-54310000D01*
X40640000Y-54310000D02*
X41120000Y-53830000D01*
X41120000Y-53830000D02*
X41120000Y-52380000D01*
X37300000Y-55500000D02*
X38490000Y-54310000D01*
%TD*%
%TA.AperFunction,Conductor*%
%TO.N,GND*%
G36*
X9898052Y-48371494D02*
G01*
X9965076Y-48391226D01*
X10010793Y-48444063D01*
X10020687Y-48513228D01*
X9991617Y-48576763D01*
X9985644Y-48583175D01*
X9902377Y-48666442D01*
X9797042Y-48824087D01*
X9724488Y-48999248D01*
X9724486Y-48999256D01*
X9687500Y-49185197D01*
X9687500Y-49374802D01*
X9724486Y-49560743D01*
X9724488Y-49560751D01*
X9797042Y-49735912D01*
X9902377Y-49893558D01*
X10036441Y-50027622D01*
X10141300Y-50097686D01*
X10194085Y-50132956D01*
X10194086Y-50132956D01*
X10194087Y-50132957D01*
X10233766Y-50149392D01*
X10369249Y-50205512D01*
X10555197Y-50242499D01*
X10555201Y-50242500D01*
X10555202Y-50242500D01*
X10744799Y-50242500D01*
X10744800Y-50242499D01*
X10930751Y-50205512D01*
X11105915Y-50132956D01*
X11263558Y-50027622D01*
X11397622Y-49893558D01*
X11502956Y-49735915D01*
X11575512Y-49560751D01*
X11612500Y-49374798D01*
X11612500Y-49185202D01*
X11575512Y-48999249D01*
X11502956Y-48824085D01*
X11467686Y-48771300D01*
X11397622Y-48666441D01*
X11315426Y-48584245D01*
X11281941Y-48522922D01*
X11286925Y-48453230D01*
X11328797Y-48397297D01*
X11394261Y-48372880D01*
X11403181Y-48372564D01*
X12045769Y-48373021D01*
X12112790Y-48392752D01*
X12158508Y-48445589D01*
X12168402Y-48514754D01*
X12145996Y-48569904D01*
X12110642Y-48618565D01*
X12020457Y-48795562D01*
X11959075Y-48984476D01*
X11959075Y-48984479D01*
X11928000Y-49180678D01*
X11928000Y-49379321D01*
X11959075Y-49575520D01*
X11959075Y-49575523D01*
X12020457Y-49764437D01*
X12110641Y-49941432D01*
X12137730Y-49978715D01*
X12707037Y-49409408D01*
X12724075Y-49472993D01*
X12789901Y-49587007D01*
X12882993Y-49680099D01*
X12997007Y-49745925D01*
X13060590Y-49762962D01*
X12491283Y-50332268D01*
X12491283Y-50332269D01*
X12528567Y-50359358D01*
X12705562Y-50449542D01*
X12894477Y-50510924D01*
X13090679Y-50542000D01*
X13289321Y-50542000D01*
X13485520Y-50510924D01*
X13485523Y-50510924D01*
X13674437Y-50449542D01*
X13851425Y-50359362D01*
X13888716Y-50332268D01*
X13319410Y-49762962D01*
X13382993Y-49745925D01*
X13497007Y-49680099D01*
X13590099Y-49587007D01*
X13655925Y-49472993D01*
X13672962Y-49409409D01*
X14242268Y-49978715D01*
X14269362Y-49941425D01*
X14359542Y-49764437D01*
X14420924Y-49575523D01*
X14420924Y-49575520D01*
X14452000Y-49379321D01*
X14452000Y-49180678D01*
X14420924Y-48984479D01*
X14420924Y-48984476D01*
X14359542Y-48795562D01*
X14269358Y-48618567D01*
X14235187Y-48571535D01*
X14211707Y-48505729D01*
X14227532Y-48437675D01*
X14277638Y-48388980D01*
X14335589Y-48374649D01*
X14974440Y-48375104D01*
X15041466Y-48394836D01*
X15087183Y-48447673D01*
X15097077Y-48516838D01*
X15068007Y-48580373D01*
X15062034Y-48586785D01*
X14982377Y-48666442D01*
X14877042Y-48824087D01*
X14804488Y-48999248D01*
X14804486Y-48999256D01*
X14767500Y-49185197D01*
X14767500Y-49374802D01*
X14804486Y-49560743D01*
X14804488Y-49560751D01*
X14877042Y-49735912D01*
X14982377Y-49893558D01*
X15116441Y-50027622D01*
X15221300Y-50097686D01*
X15274085Y-50132956D01*
X15274086Y-50132956D01*
X15274087Y-50132957D01*
X15313766Y-50149392D01*
X15449249Y-50205512D01*
X15635197Y-50242499D01*
X15635201Y-50242500D01*
X15635202Y-50242500D01*
X15824799Y-50242500D01*
X15824800Y-50242499D01*
X16010751Y-50205512D01*
X16185915Y-50132956D01*
X16343558Y-50027622D01*
X16477622Y-49893558D01*
X16582956Y-49735915D01*
X16655512Y-49560751D01*
X16692500Y-49374798D01*
X16692500Y-49185202D01*
X16655512Y-48999249D01*
X16582956Y-48824085D01*
X16547686Y-48771300D01*
X16477622Y-48666441D01*
X16399041Y-48587860D01*
X16365556Y-48526537D01*
X16370540Y-48456845D01*
X16412412Y-48400912D01*
X16477876Y-48376495D01*
X16486782Y-48376179D01*
X17512638Y-48376909D01*
X17579661Y-48396641D01*
X17625378Y-48449478D01*
X17635272Y-48518643D01*
X17606202Y-48582178D01*
X17600229Y-48588590D01*
X17522377Y-48666442D01*
X17417042Y-48824087D01*
X17344488Y-48999248D01*
X17344486Y-48999256D01*
X17307500Y-49185197D01*
X17307500Y-49374802D01*
X17344486Y-49560743D01*
X17344488Y-49560751D01*
X17417042Y-49735912D01*
X17522377Y-49893558D01*
X17656441Y-50027622D01*
X17761300Y-50097686D01*
X17814085Y-50132956D01*
X17814086Y-50132956D01*
X17814087Y-50132957D01*
X17853766Y-50149392D01*
X17989249Y-50205512D01*
X18175197Y-50242499D01*
X18175201Y-50242500D01*
X18175202Y-50242500D01*
X18364799Y-50242500D01*
X18364800Y-50242499D01*
X18550751Y-50205512D01*
X18725915Y-50132956D01*
X18883558Y-50027622D01*
X19017622Y-49893558D01*
X19122956Y-49735915D01*
X19195512Y-49560751D01*
X19232500Y-49374798D01*
X19232500Y-49185202D01*
X19195512Y-48999249D01*
X19122956Y-48824085D01*
X19087686Y-48771300D01*
X19017622Y-48666441D01*
X18940849Y-48589668D01*
X18907364Y-48528345D01*
X18912348Y-48458653D01*
X18954220Y-48402720D01*
X19019684Y-48378303D01*
X19028590Y-48377987D01*
X20050833Y-48378714D01*
X20117856Y-48398446D01*
X20163573Y-48451283D01*
X20173467Y-48520448D01*
X20144397Y-48583983D01*
X20138424Y-48590395D01*
X20062377Y-48666442D01*
X19957042Y-48824087D01*
X19884488Y-48999248D01*
X19884486Y-48999256D01*
X19847500Y-49185197D01*
X19847500Y-49374802D01*
X19884486Y-49560743D01*
X19884488Y-49560751D01*
X19957042Y-49735912D01*
X20062377Y-49893558D01*
X20196441Y-50027622D01*
X20301300Y-50097686D01*
X20354085Y-50132956D01*
X20354086Y-50132956D01*
X20354087Y-50132957D01*
X20393766Y-50149392D01*
X20529249Y-50205512D01*
X20715197Y-50242499D01*
X20715201Y-50242500D01*
X20715202Y-50242500D01*
X20904799Y-50242500D01*
X20904800Y-50242499D01*
X21090751Y-50205512D01*
X21265915Y-50132956D01*
X21423558Y-50027622D01*
X21557622Y-49893558D01*
X21662956Y-49735915D01*
X21735512Y-49560751D01*
X21772500Y-49374798D01*
X21772500Y-49185202D01*
X21735512Y-48999249D01*
X21662956Y-48824085D01*
X21627686Y-48771300D01*
X21557622Y-48666441D01*
X21482658Y-48591477D01*
X21449173Y-48530154D01*
X21454157Y-48460462D01*
X21496029Y-48404529D01*
X21561493Y-48380112D01*
X21570421Y-48379796D01*
X22589026Y-48380520D01*
X22656050Y-48400252D01*
X22701767Y-48453089D01*
X22711661Y-48522254D01*
X22682591Y-48585789D01*
X22676618Y-48592201D01*
X22602377Y-48666442D01*
X22497042Y-48824087D01*
X22424488Y-48999248D01*
X22424486Y-48999256D01*
X22387500Y-49185197D01*
X22387500Y-49374802D01*
X22424486Y-49560743D01*
X22424488Y-49560751D01*
X22497042Y-49735912D01*
X22602377Y-49893558D01*
X22736438Y-50027619D01*
X22736442Y-50027622D01*
X22894078Y-50132952D01*
X22894080Y-50132953D01*
X22894085Y-50132956D01*
X22897950Y-50134557D01*
X22952354Y-50178396D01*
X22974421Y-50244689D01*
X22974500Y-50249119D01*
X22974500Y-50804800D01*
X23007638Y-50884800D01*
X23007638Y-50884802D01*
X23016440Y-50906052D01*
X23016441Y-50906054D01*
X23016443Y-50906058D01*
X23016445Y-50906060D01*
X23018181Y-50907796D01*
X23020755Y-50912510D01*
X23023228Y-50916211D01*
X23022896Y-50916432D01*
X23051666Y-50969119D01*
X23054500Y-50995477D01*
X23054500Y-52169505D01*
X23034815Y-52236544D01*
X22982011Y-52282299D01*
X22912853Y-52292243D01*
X22849297Y-52263218D01*
X22842819Y-52257186D01*
X22729657Y-52144024D01*
X22596191Y-52054846D01*
X22557598Y-52029059D01*
X22527915Y-52016764D01*
X22366420Y-51949870D01*
X22366412Y-51949868D01*
X22163469Y-51909500D01*
X22163465Y-51909500D01*
X21956535Y-51909500D01*
X21956530Y-51909500D01*
X21753587Y-51949868D01*
X21753579Y-51949870D01*
X21562403Y-52029058D01*
X21390342Y-52144024D01*
X21244024Y-52290342D01*
X21129058Y-52462403D01*
X21049870Y-52653579D01*
X21049868Y-52653587D01*
X21009500Y-52856530D01*
X21009500Y-53063469D01*
X21049868Y-53266412D01*
X21049870Y-53266420D01*
X21129056Y-53457592D01*
X21129059Y-53457598D01*
X21186541Y-53543626D01*
X21244024Y-53629657D01*
X21390342Y-53775975D01*
X21390345Y-53775977D01*
X21562402Y-53890941D01*
X21753580Y-53970130D01*
X21954876Y-54010170D01*
X21956530Y-54010499D01*
X21956534Y-54010500D01*
X21956535Y-54010500D01*
X22163466Y-54010500D01*
X22163467Y-54010499D01*
X22366420Y-53970130D01*
X22557598Y-53890941D01*
X22729655Y-53775977D01*
X22792621Y-53713011D01*
X22880285Y-53625348D01*
X22882068Y-53627131D01*
X22930674Y-53593998D01*
X23000518Y-53592103D01*
X23060299Y-53628270D01*
X23083385Y-53664533D01*
X23087282Y-53673941D01*
X23087283Y-53673943D01*
X23096442Y-53696057D01*
X23096443Y-53696058D01*
X23707917Y-54307533D01*
X23741402Y-54368855D01*
X23736418Y-54438547D01*
X23707918Y-54482894D01*
X23570271Y-54620541D01*
X23445379Y-54792442D01*
X23348905Y-54981781D01*
X23291656Y-55157974D01*
X23252218Y-55215649D01*
X23187859Y-55242847D01*
X23119013Y-55230932D01*
X23067537Y-55183688D01*
X23059164Y-55167107D01*
X22990943Y-55002405D01*
X22875975Y-54830342D01*
X22729657Y-54684024D01*
X22634638Y-54620535D01*
X22557598Y-54569059D01*
X22557593Y-54569057D01*
X22366420Y-54489870D01*
X22366412Y-54489868D01*
X22163469Y-54449500D01*
X22163465Y-54449500D01*
X21956535Y-54449500D01*
X21956530Y-54449500D01*
X21753587Y-54489868D01*
X21753579Y-54489870D01*
X21562403Y-54569058D01*
X21390342Y-54684024D01*
X21244024Y-54830342D01*
X21129058Y-55002403D01*
X21049870Y-55193579D01*
X21049868Y-55193587D01*
X21009500Y-55396530D01*
X21009500Y-55603469D01*
X21049868Y-55806412D01*
X21049870Y-55806420D01*
X21115939Y-55965925D01*
X21129059Y-55997598D01*
X21160140Y-56044114D01*
X21244024Y-56169657D01*
X21390342Y-56315975D01*
X21390345Y-56315977D01*
X21562402Y-56430941D01*
X21753580Y-56510130D01*
X21956530Y-56550499D01*
X21956534Y-56550500D01*
X21956535Y-56550500D01*
X22163466Y-56550500D01*
X22163467Y-56550499D01*
X22366420Y-56510130D01*
X22557598Y-56430941D01*
X22729655Y-56315977D01*
X22875977Y-56169655D01*
X22990941Y-55997598D01*
X23059165Y-55832889D01*
X23103004Y-55778488D01*
X23169298Y-55756423D01*
X23236998Y-55773702D01*
X23284609Y-55824839D01*
X23291656Y-55842026D01*
X23348904Y-56018216D01*
X23445379Y-56207557D01*
X23570272Y-56379459D01*
X23570276Y-56379464D01*
X23720535Y-56529723D01*
X23720540Y-56529727D01*
X23892442Y-56654620D01*
X24081782Y-56751095D01*
X24283871Y-56816757D01*
X24350000Y-56827231D01*
X24350000Y-55933012D01*
X24407007Y-55965925D01*
X24534174Y-56000000D01*
X24665826Y-56000000D01*
X24792993Y-55965925D01*
X24850000Y-55933012D01*
X24850000Y-56827230D01*
X24916126Y-56816757D01*
X24916129Y-56816757D01*
X25118217Y-56751095D01*
X25307557Y-56654620D01*
X25479459Y-56529727D01*
X25479464Y-56529723D01*
X25629721Y-56379466D01*
X25730834Y-56240295D01*
X25786164Y-56197629D01*
X25855777Y-56191650D01*
X25917573Y-56224255D01*
X25918822Y-56225487D01*
X26933107Y-57239773D01*
X27781153Y-58087819D01*
X27814638Y-58149142D01*
X27809654Y-58218834D01*
X27767782Y-58274767D01*
X27702318Y-58299184D01*
X27693472Y-58299500D01*
X11503481Y-58299500D01*
X11496528Y-58299305D01*
X11193508Y-58282287D01*
X11179690Y-58280730D01*
X10883918Y-58230476D01*
X10870361Y-58227382D01*
X10582074Y-58144328D01*
X10568949Y-58139735D01*
X10291777Y-58024927D01*
X10279249Y-58018894D01*
X10016660Y-57873766D01*
X10004895Y-57866373D01*
X9760222Y-57692768D01*
X9749354Y-57684102D01*
X9571878Y-57525500D01*
X9525645Y-57484183D01*
X9515814Y-57474352D01*
X9454783Y-57406058D01*
X9315892Y-57250639D01*
X9307233Y-57239779D01*
X9133623Y-56995099D01*
X9126236Y-56983344D01*
X8981101Y-56720743D01*
X8975075Y-56708229D01*
X8860263Y-56431049D01*
X8855671Y-56417925D01*
X8853643Y-56410885D01*
X8772614Y-56129627D01*
X8769523Y-56116081D01*
X8719268Y-55820301D01*
X8717713Y-55806500D01*
X8700695Y-55503472D01*
X8700500Y-55496519D01*
X8700500Y-55372149D01*
X10049500Y-55372149D01*
X10049500Y-55627850D01*
X10074839Y-55820309D01*
X10082874Y-55881340D01*
X10147612Y-56122947D01*
X10149050Y-56128312D01*
X10149053Y-56128322D01*
X10246894Y-56364531D01*
X10246899Y-56364542D01*
X10374734Y-56585957D01*
X10374745Y-56585973D01*
X10530388Y-56788811D01*
X10530394Y-56788818D01*
X10711181Y-56969605D01*
X10711188Y-56969611D01*
X10737009Y-56989424D01*
X10914035Y-57125261D01*
X10914042Y-57125265D01*
X11135457Y-57253100D01*
X11135462Y-57253102D01*
X11135465Y-57253104D01*
X11284426Y-57314805D01*
X11363285Y-57347470D01*
X11371687Y-57350950D01*
X11618660Y-57417126D01*
X11872157Y-57450500D01*
X11872164Y-57450500D01*
X12127836Y-57450500D01*
X12127843Y-57450500D01*
X12381340Y-57417126D01*
X12628313Y-57350950D01*
X12864535Y-57253104D01*
X13085965Y-57125261D01*
X13288813Y-56969610D01*
X13469610Y-56788813D01*
X13625261Y-56585965D01*
X13753104Y-56364535D01*
X13850950Y-56128313D01*
X13917126Y-55881340D01*
X13950500Y-55627843D01*
X13950500Y-55372157D01*
X13917126Y-55118660D01*
X13850950Y-54871687D01*
X13753104Y-54635465D01*
X13753102Y-54635462D01*
X13753100Y-54635457D01*
X13625265Y-54414042D01*
X13625261Y-54414035D01*
X13518875Y-54275390D01*
X13469611Y-54211188D01*
X13469605Y-54211181D01*
X13288818Y-54030394D01*
X13288811Y-54030388D01*
X13085973Y-53874745D01*
X13085971Y-53874743D01*
X13085965Y-53874739D01*
X13085960Y-53874736D01*
X13085957Y-53874734D01*
X12864542Y-53746899D01*
X12864531Y-53746894D01*
X12628322Y-53649053D01*
X12628315Y-53649051D01*
X12628313Y-53649050D01*
X12381340Y-53582874D01*
X12325007Y-53575457D01*
X12127850Y-53549500D01*
X12127843Y-53549500D01*
X11872157Y-53549500D01*
X11872149Y-53549500D01*
X11646826Y-53579165D01*
X11618660Y-53582874D01*
X11444063Y-53629657D01*
X11371687Y-53649050D01*
X11371677Y-53649053D01*
X11135468Y-53746894D01*
X11135457Y-53746899D01*
X10914042Y-53874734D01*
X10914026Y-53874745D01*
X10711188Y-54030388D01*
X10711181Y-54030394D01*
X10530394Y-54211181D01*
X10530388Y-54211188D01*
X10374745Y-54414026D01*
X10374734Y-54414042D01*
X10246899Y-54635457D01*
X10246894Y-54635468D01*
X10149053Y-54871677D01*
X10149050Y-54871687D01*
X10087901Y-55099901D01*
X10082874Y-55118661D01*
X10049500Y-55372149D01*
X8700500Y-55372149D01*
X8700500Y-52710000D01*
X15652769Y-52710000D01*
X16546988Y-52710000D01*
X16514075Y-52767007D01*
X16480000Y-52894174D01*
X16480000Y-53025826D01*
X16514075Y-53152993D01*
X16546988Y-53210000D01*
X15652769Y-53210000D01*
X15663242Y-53276126D01*
X15663242Y-53276129D01*
X15728904Y-53478217D01*
X15825379Y-53667557D01*
X15950272Y-53839459D01*
X15950276Y-53839464D01*
X16100535Y-53989723D01*
X16100540Y-53989727D01*
X16272442Y-54114620D01*
X16461782Y-54211095D01*
X16637973Y-54268343D01*
X16695648Y-54307780D01*
X16722847Y-54372139D01*
X16710932Y-54440985D01*
X16663688Y-54492461D01*
X16647108Y-54500835D01*
X16482403Y-54569057D01*
X16310342Y-54684024D01*
X16164024Y-54830342D01*
X16049058Y-55002403D01*
X15969870Y-55193579D01*
X15969868Y-55193587D01*
X15929500Y-55396530D01*
X15929500Y-55603469D01*
X15969868Y-55806412D01*
X15969870Y-55806420D01*
X16035939Y-55965925D01*
X16049059Y-55997598D01*
X16080140Y-56044114D01*
X16164024Y-56169657D01*
X16310342Y-56315975D01*
X16310345Y-56315977D01*
X16482402Y-56430941D01*
X16673580Y-56510130D01*
X16876530Y-56550499D01*
X16876534Y-56550500D01*
X16876535Y-56550500D01*
X17083466Y-56550500D01*
X17083467Y-56550499D01*
X17286420Y-56510130D01*
X17477598Y-56430941D01*
X17649655Y-56315977D01*
X17795977Y-56169655D01*
X17910941Y-55997598D01*
X17990130Y-55806420D01*
X18030500Y-55603465D01*
X18030500Y-55396535D01*
X18030499Y-55396530D01*
X18469500Y-55396530D01*
X18469500Y-55603469D01*
X18509868Y-55806412D01*
X18509870Y-55806420D01*
X18575939Y-55965925D01*
X18589059Y-55997598D01*
X18620140Y-56044114D01*
X18704024Y-56169657D01*
X18850342Y-56315975D01*
X18850345Y-56315977D01*
X19022402Y-56430941D01*
X19213580Y-56510130D01*
X19416530Y-56550499D01*
X19416534Y-56550500D01*
X19416535Y-56550500D01*
X19623466Y-56550500D01*
X19623467Y-56550499D01*
X19826420Y-56510130D01*
X20017598Y-56430941D01*
X20189655Y-56315977D01*
X20335977Y-56169655D01*
X20450941Y-55997598D01*
X20530130Y-55806420D01*
X20570500Y-55603465D01*
X20570500Y-55396535D01*
X20530130Y-55193580D01*
X20450941Y-55002402D01*
X20335977Y-54830345D01*
X20335975Y-54830342D01*
X20189657Y-54684024D01*
X20094638Y-54620535D01*
X20017598Y-54569059D01*
X20017593Y-54569057D01*
X19826420Y-54489870D01*
X19826412Y-54489868D01*
X19623469Y-54449500D01*
X19623465Y-54449500D01*
X19416535Y-54449500D01*
X19416530Y-54449500D01*
X19213587Y-54489868D01*
X19213579Y-54489870D01*
X19022403Y-54569058D01*
X18850342Y-54684024D01*
X18704024Y-54830342D01*
X18589058Y-55002403D01*
X18509870Y-55193579D01*
X18509868Y-55193587D01*
X18469500Y-55396530D01*
X18030499Y-55396530D01*
X17990130Y-55193580D01*
X17910941Y-55002402D01*
X17795977Y-54830345D01*
X17795975Y-54830342D01*
X17649657Y-54684024D01*
X17554638Y-54620535D01*
X17477598Y-54569059D01*
X17477593Y-54569057D01*
X17364466Y-54522198D01*
X17312890Y-54500834D01*
X17258488Y-54456994D01*
X17236423Y-54390700D01*
X17253702Y-54323001D01*
X17304839Y-54275390D01*
X17322026Y-54268343D01*
X17498217Y-54211095D01*
X17687557Y-54114620D01*
X17859459Y-53989727D01*
X17859464Y-53989723D01*
X18009723Y-53839464D01*
X18009727Y-53839459D01*
X18134620Y-53667557D01*
X18231095Y-53478217D01*
X18288343Y-53302026D01*
X18327780Y-53244351D01*
X18392139Y-53217152D01*
X18460985Y-53229066D01*
X18512461Y-53276310D01*
X18520835Y-53292891D01*
X18589056Y-53457592D01*
X18589059Y-53457598D01*
X18646541Y-53543626D01*
X18704024Y-53629657D01*
X18850342Y-53775975D01*
X18850345Y-53775977D01*
X19022402Y-53890941D01*
X19213580Y-53970130D01*
X19414876Y-54010170D01*
X19416530Y-54010499D01*
X19416534Y-54010500D01*
X19416535Y-54010500D01*
X19623466Y-54010500D01*
X19623467Y-54010499D01*
X19826420Y-53970130D01*
X20017598Y-53890941D01*
X20189655Y-53775977D01*
X20335977Y-53629655D01*
X20450941Y-53457598D01*
X20530130Y-53266420D01*
X20570500Y-53063465D01*
X20570500Y-52856535D01*
X20530130Y-52653580D01*
X20450941Y-52462402D01*
X20335977Y-52290345D01*
X20335975Y-52290342D01*
X20189657Y-52144024D01*
X20056191Y-52054846D01*
X20017598Y-52029059D01*
X19987915Y-52016764D01*
X19826420Y-51949870D01*
X19826412Y-51949868D01*
X19623469Y-51909500D01*
X19623465Y-51909500D01*
X19416535Y-51909500D01*
X19416530Y-51909500D01*
X19213587Y-51949868D01*
X19213579Y-51949870D01*
X19022403Y-52029058D01*
X18850342Y-52144024D01*
X18704024Y-52290342D01*
X18589057Y-52462403D01*
X18520835Y-52627108D01*
X18476994Y-52681511D01*
X18410700Y-52703576D01*
X18343000Y-52686297D01*
X18295390Y-52635159D01*
X18288343Y-52617973D01*
X18231095Y-52441782D01*
X18134620Y-52252442D01*
X18009727Y-52080540D01*
X18009723Y-52080535D01*
X17859464Y-51930276D01*
X17859459Y-51930272D01*
X17687557Y-51805379D01*
X17498215Y-51708903D01*
X17296124Y-51643241D01*
X17230000Y-51632768D01*
X17230000Y-52526988D01*
X17172993Y-52494075D01*
X17045826Y-52460000D01*
X16914174Y-52460000D01*
X16787007Y-52494075D01*
X16730000Y-52526988D01*
X16730000Y-51632768D01*
X16729999Y-51632768D01*
X16663875Y-51643241D01*
X16461784Y-51708903D01*
X16272442Y-51805379D01*
X16100540Y-51930272D01*
X16100535Y-51930276D01*
X15950276Y-52080535D01*
X15950272Y-52080540D01*
X15825379Y-52252442D01*
X15728904Y-52441782D01*
X15663242Y-52643870D01*
X15663242Y-52643873D01*
X15652769Y-52710000D01*
X8700500Y-52710000D01*
X8700500Y-48494731D01*
X8720185Y-48427692D01*
X8772989Y-48381937D01*
X8824586Y-48370731D01*
X9898052Y-48371494D01*
G37*
%TD.AperFunction*%
%TA.AperFunction,Conductor*%
G36*
X70503472Y-28700695D02*
G01*
X70806500Y-28717713D01*
X70820301Y-28719268D01*
X71116088Y-28769524D01*
X71129627Y-28772614D01*
X71417930Y-28855673D01*
X71431049Y-28860263D01*
X71708229Y-28975075D01*
X71720743Y-28981101D01*
X71983344Y-29126236D01*
X71995099Y-29133623D01*
X72239779Y-29307233D01*
X72250639Y-29315892D01*
X72474352Y-29515814D01*
X72484183Y-29525645D01*
X72681903Y-29746894D01*
X72684102Y-29749354D01*
X72692768Y-29760222D01*
X72859483Y-29995185D01*
X72866370Y-30004890D01*
X72873766Y-30016660D01*
X72964430Y-30180703D01*
X73018894Y-30279249D01*
X73024927Y-30291777D01*
X73139735Y-30568949D01*
X73144328Y-30582074D01*
X73227382Y-30870361D01*
X73230476Y-30883918D01*
X73280730Y-31179690D01*
X73282287Y-31193508D01*
X73299305Y-31496527D01*
X73299500Y-31503480D01*
X73299500Y-55496519D01*
X73299305Y-55503472D01*
X73282287Y-55806491D01*
X73280730Y-55820309D01*
X73230476Y-56116081D01*
X73227382Y-56129638D01*
X73144328Y-56417925D01*
X73139735Y-56431050D01*
X73024927Y-56708222D01*
X73018894Y-56720750D01*
X72873769Y-56983335D01*
X72866370Y-56995109D01*
X72692771Y-57239773D01*
X72684102Y-57250645D01*
X72484185Y-57474352D01*
X72474352Y-57484185D01*
X72250645Y-57684102D01*
X72239773Y-57692771D01*
X71995109Y-57866370D01*
X71983335Y-57873769D01*
X71720750Y-58018894D01*
X71708222Y-58024927D01*
X71431050Y-58139735D01*
X71417925Y-58144328D01*
X71129638Y-58227382D01*
X71116081Y-58230476D01*
X70820309Y-58280730D01*
X70806491Y-58282287D01*
X70503472Y-58299305D01*
X70496519Y-58299500D01*
X46906527Y-58299500D01*
X46839488Y-58279815D01*
X46793733Y-58227011D01*
X46783789Y-58157853D01*
X46812814Y-58094297D01*
X46818846Y-58087819D01*
X47666892Y-57239773D01*
X48681167Y-56225498D01*
X48742488Y-56192015D01*
X48812180Y-56196999D01*
X48868113Y-56238871D01*
X48869164Y-56240296D01*
X48970272Y-56379459D01*
X48970276Y-56379464D01*
X49120535Y-56529723D01*
X49120540Y-56529727D01*
X49292442Y-56654620D01*
X49481782Y-56751095D01*
X49683871Y-56816757D01*
X49750000Y-56827231D01*
X49750000Y-55933012D01*
X49807007Y-55965925D01*
X49934174Y-56000000D01*
X50065826Y-56000000D01*
X50192993Y-55965925D01*
X50250000Y-55933012D01*
X50250000Y-56827230D01*
X50316126Y-56816757D01*
X50316129Y-56816757D01*
X50518217Y-56751095D01*
X50707557Y-56654620D01*
X50879459Y-56529727D01*
X50879464Y-56529723D01*
X51029723Y-56379464D01*
X51029727Y-56379459D01*
X51154620Y-56207557D01*
X51251095Y-56018217D01*
X51308343Y-55842026D01*
X51347780Y-55784351D01*
X51412139Y-55757152D01*
X51480985Y-55769066D01*
X51532461Y-55816310D01*
X51540835Y-55832891D01*
X51595939Y-55965925D01*
X51609059Y-55997598D01*
X51640140Y-56044114D01*
X51724024Y-56169657D01*
X51870342Y-56315975D01*
X51870345Y-56315977D01*
X52042402Y-56430941D01*
X52233580Y-56510130D01*
X52436530Y-56550499D01*
X52436534Y-56550500D01*
X52436535Y-56550500D01*
X52643466Y-56550500D01*
X52643467Y-56550499D01*
X52846420Y-56510130D01*
X53037598Y-56430941D01*
X53209655Y-56315977D01*
X53355977Y-56169655D01*
X53470941Y-55997598D01*
X53550130Y-55806420D01*
X53590500Y-55603465D01*
X53590500Y-55396535D01*
X53550130Y-55193580D01*
X53470941Y-55002402D01*
X53355977Y-54830345D01*
X53355975Y-54830342D01*
X53209657Y-54684024D01*
X53114638Y-54620535D01*
X53037598Y-54569059D01*
X53037593Y-54569057D01*
X52846420Y-54489870D01*
X52846412Y-54489868D01*
X52643469Y-54449500D01*
X52643465Y-54449500D01*
X52436535Y-54449500D01*
X52436530Y-54449500D01*
X52233587Y-54489868D01*
X52233579Y-54489870D01*
X52042403Y-54569058D01*
X51870342Y-54684024D01*
X51724024Y-54830342D01*
X51609057Y-55002403D01*
X51540835Y-55167108D01*
X51496994Y-55221511D01*
X51430700Y-55243576D01*
X51363000Y-55226297D01*
X51315390Y-55175159D01*
X51308343Y-55157973D01*
X51251095Y-54981782D01*
X51154620Y-54792442D01*
X51029727Y-54620540D01*
X51029723Y-54620535D01*
X50879464Y-54470276D01*
X50879459Y-54470272D01*
X50740295Y-54369164D01*
X50697629Y-54313835D01*
X50691650Y-54244221D01*
X50724255Y-54182426D01*
X50725425Y-54181239D01*
X51334557Y-53572108D01*
X51376500Y-53470850D01*
X51376500Y-53470849D01*
X51380963Y-53460075D01*
X51424805Y-53405671D01*
X51491099Y-53383607D01*
X51558798Y-53400887D01*
X51606408Y-53452024D01*
X51608335Y-53456245D01*
X51609055Y-53457592D01*
X51724024Y-53629657D01*
X51870342Y-53775975D01*
X51870345Y-53775977D01*
X52042402Y-53890941D01*
X52233580Y-53970130D01*
X52434876Y-54010170D01*
X52436530Y-54010499D01*
X52436534Y-54010500D01*
X52436535Y-54010500D01*
X52643466Y-54010500D01*
X52643467Y-54010499D01*
X52846420Y-53970130D01*
X53037598Y-53890941D01*
X53209655Y-53775977D01*
X53355977Y-53629655D01*
X53470941Y-53457598D01*
X53539165Y-53292889D01*
X53583004Y-53238488D01*
X53649298Y-53216423D01*
X53716998Y-53233702D01*
X53764609Y-53284839D01*
X53771656Y-53302026D01*
X53828904Y-53478216D01*
X53925379Y-53667557D01*
X54050272Y-53839459D01*
X54050276Y-53839464D01*
X54200535Y-53989723D01*
X54200540Y-53989727D01*
X54372442Y-54114620D01*
X54561782Y-54211095D01*
X54737973Y-54268343D01*
X54795648Y-54307780D01*
X54822847Y-54372139D01*
X54810932Y-54440985D01*
X54763688Y-54492461D01*
X54747108Y-54500835D01*
X54582403Y-54569057D01*
X54410342Y-54684024D01*
X54264024Y-54830342D01*
X54149058Y-55002403D01*
X54069870Y-55193579D01*
X54069868Y-55193587D01*
X54029500Y-55396530D01*
X54029500Y-55603469D01*
X54069868Y-55806412D01*
X54069870Y-55806420D01*
X54135939Y-55965925D01*
X54149059Y-55997598D01*
X54180140Y-56044114D01*
X54264024Y-56169657D01*
X54410342Y-56315975D01*
X54410345Y-56315977D01*
X54582402Y-56430941D01*
X54773580Y-56510130D01*
X54976530Y-56550499D01*
X54976534Y-56550500D01*
X54976535Y-56550500D01*
X55183466Y-56550500D01*
X55183467Y-56550499D01*
X55386420Y-56510130D01*
X55577598Y-56430941D01*
X55749655Y-56315977D01*
X55895977Y-56169655D01*
X56010941Y-55997598D01*
X56090130Y-55806420D01*
X56130500Y-55603465D01*
X56130500Y-55396535D01*
X56130499Y-55396530D01*
X56569500Y-55396530D01*
X56569500Y-55603469D01*
X56609868Y-55806412D01*
X56609870Y-55806420D01*
X56675939Y-55965925D01*
X56689059Y-55997598D01*
X56720140Y-56044114D01*
X56804024Y-56169657D01*
X56950342Y-56315975D01*
X56950345Y-56315977D01*
X57122402Y-56430941D01*
X57313580Y-56510130D01*
X57516530Y-56550499D01*
X57516534Y-56550500D01*
X57516535Y-56550500D01*
X57723466Y-56550500D01*
X57723467Y-56550499D01*
X57926420Y-56510130D01*
X58117598Y-56430941D01*
X58289655Y-56315977D01*
X58435977Y-56169655D01*
X58550941Y-55997598D01*
X58619165Y-55832889D01*
X58663004Y-55778488D01*
X58729298Y-55756423D01*
X58796998Y-55773702D01*
X58844609Y-55824839D01*
X58851656Y-55842026D01*
X58908904Y-56018216D01*
X59005379Y-56207557D01*
X59130272Y-56379459D01*
X59130276Y-56379464D01*
X59280535Y-56529723D01*
X59280540Y-56529727D01*
X59452442Y-56654620D01*
X59641782Y-56751095D01*
X59843871Y-56816757D01*
X59910000Y-56827231D01*
X59910000Y-55933012D01*
X59967007Y-55965925D01*
X60094174Y-56000000D01*
X60225826Y-56000000D01*
X60352993Y-55965925D01*
X60410000Y-55933012D01*
X60410000Y-56827230D01*
X60476126Y-56816757D01*
X60476129Y-56816757D01*
X60678217Y-56751095D01*
X60867557Y-56654620D01*
X61039459Y-56529727D01*
X61039464Y-56529723D01*
X61189723Y-56379464D01*
X61189727Y-56379459D01*
X61314620Y-56207557D01*
X61411095Y-56018217D01*
X61468343Y-55842026D01*
X61507780Y-55784351D01*
X61572139Y-55757152D01*
X61640985Y-55769066D01*
X61692461Y-55816310D01*
X61700835Y-55832891D01*
X61755939Y-55965925D01*
X61769059Y-55997598D01*
X61800140Y-56044114D01*
X61884024Y-56169657D01*
X62030342Y-56315975D01*
X62030345Y-56315977D01*
X62202402Y-56430941D01*
X62393580Y-56510130D01*
X62596530Y-56550499D01*
X62596534Y-56550500D01*
X62596535Y-56550500D01*
X62803466Y-56550500D01*
X62803467Y-56550499D01*
X63006420Y-56510130D01*
X63197598Y-56430941D01*
X63369655Y-56315977D01*
X63515977Y-56169655D01*
X63630941Y-55997598D01*
X63710130Y-55806420D01*
X63750500Y-55603465D01*
X63750500Y-55396535D01*
X63750499Y-55396530D01*
X64189500Y-55396530D01*
X64189500Y-55603469D01*
X64229868Y-55806412D01*
X64229870Y-55806420D01*
X64295939Y-55965925D01*
X64309059Y-55997598D01*
X64340140Y-56044114D01*
X64424024Y-56169657D01*
X64570342Y-56315975D01*
X64570345Y-56315977D01*
X64742402Y-56430941D01*
X64933580Y-56510130D01*
X65136530Y-56550499D01*
X65136534Y-56550500D01*
X65136535Y-56550500D01*
X65343466Y-56550500D01*
X65343467Y-56550499D01*
X65546420Y-56510130D01*
X65737598Y-56430941D01*
X65909655Y-56315977D01*
X66055977Y-56169655D01*
X66170941Y-55997598D01*
X66250130Y-55806420D01*
X66290500Y-55603465D01*
X66290500Y-55396535D01*
X66285649Y-55372149D01*
X68049500Y-55372149D01*
X68049500Y-55627850D01*
X68074839Y-55820309D01*
X68082874Y-55881340D01*
X68147612Y-56122947D01*
X68149050Y-56128312D01*
X68149053Y-56128322D01*
X68246894Y-56364531D01*
X68246899Y-56364542D01*
X68374734Y-56585957D01*
X68374745Y-56585973D01*
X68530388Y-56788811D01*
X68530394Y-56788818D01*
X68711181Y-56969605D01*
X68711188Y-56969611D01*
X68737009Y-56989424D01*
X68914035Y-57125261D01*
X68914042Y-57125265D01*
X69135457Y-57253100D01*
X69135462Y-57253102D01*
X69135465Y-57253104D01*
X69284426Y-57314805D01*
X69363285Y-57347470D01*
X69371687Y-57350950D01*
X69618660Y-57417126D01*
X69872157Y-57450500D01*
X69872164Y-57450500D01*
X70127836Y-57450500D01*
X70127843Y-57450500D01*
X70381340Y-57417126D01*
X70628313Y-57350950D01*
X70864535Y-57253104D01*
X71085965Y-57125261D01*
X71288813Y-56969610D01*
X71469610Y-56788813D01*
X71625261Y-56585965D01*
X71753104Y-56364535D01*
X71850950Y-56128313D01*
X71917126Y-55881340D01*
X71950500Y-55627843D01*
X71950500Y-55372157D01*
X71917126Y-55118660D01*
X71850950Y-54871687D01*
X71753104Y-54635465D01*
X71753102Y-54635462D01*
X71753100Y-54635457D01*
X71625265Y-54414042D01*
X71625261Y-54414035D01*
X71518875Y-54275390D01*
X71469611Y-54211188D01*
X71469605Y-54211181D01*
X71288818Y-54030394D01*
X71288811Y-54030388D01*
X71085973Y-53874745D01*
X71085971Y-53874743D01*
X71085965Y-53874739D01*
X71085960Y-53874736D01*
X71085957Y-53874734D01*
X70864542Y-53746899D01*
X70864531Y-53746894D01*
X70628322Y-53649053D01*
X70628315Y-53649051D01*
X70628313Y-53649050D01*
X70381340Y-53582874D01*
X70325007Y-53575457D01*
X70127850Y-53549500D01*
X70127843Y-53549500D01*
X69872157Y-53549500D01*
X69872149Y-53549500D01*
X69646826Y-53579165D01*
X69618660Y-53582874D01*
X69444063Y-53629657D01*
X69371687Y-53649050D01*
X69371677Y-53649053D01*
X69135468Y-53746894D01*
X69135457Y-53746899D01*
X68914042Y-53874734D01*
X68914026Y-53874745D01*
X68711188Y-54030388D01*
X68711181Y-54030394D01*
X68530394Y-54211181D01*
X68530388Y-54211188D01*
X68374745Y-54414026D01*
X68374734Y-54414042D01*
X68246899Y-54635457D01*
X68246894Y-54635468D01*
X68149053Y-54871677D01*
X68149050Y-54871687D01*
X68087901Y-55099901D01*
X68082874Y-55118661D01*
X68049500Y-55372149D01*
X66285649Y-55372149D01*
X66259930Y-55242847D01*
X66250130Y-55193580D01*
X66170941Y-55002402D01*
X66055977Y-54830345D01*
X66055975Y-54830342D01*
X65909657Y-54684024D01*
X65814638Y-54620535D01*
X65737598Y-54569059D01*
X65737593Y-54569057D01*
X65546420Y-54489870D01*
X65546412Y-54489868D01*
X65343469Y-54449500D01*
X65343465Y-54449500D01*
X65136535Y-54449500D01*
X65136530Y-54449500D01*
X64933587Y-54489868D01*
X64933579Y-54489870D01*
X64742403Y-54569058D01*
X64570342Y-54684024D01*
X64424024Y-54830342D01*
X64309058Y-55002403D01*
X64229870Y-55193579D01*
X64229868Y-55193587D01*
X64189500Y-55396530D01*
X63750499Y-55396530D01*
X63710130Y-55193580D01*
X63630941Y-55002402D01*
X63515977Y-54830345D01*
X63515975Y-54830342D01*
X63369657Y-54684024D01*
X63274638Y-54620535D01*
X63197598Y-54569059D01*
X63197593Y-54569057D01*
X63006420Y-54489870D01*
X63006412Y-54489868D01*
X62803469Y-54449500D01*
X62803465Y-54449500D01*
X62596535Y-54449500D01*
X62596530Y-54449500D01*
X62393587Y-54489868D01*
X62393579Y-54489870D01*
X62202403Y-54569058D01*
X62030342Y-54684024D01*
X61884024Y-54830342D01*
X61769057Y-55002403D01*
X61700835Y-55167108D01*
X61656994Y-55221511D01*
X61590700Y-55243576D01*
X61523000Y-55226297D01*
X61475390Y-55175159D01*
X61468343Y-55157973D01*
X61411095Y-54981782D01*
X61314620Y-54792442D01*
X61189727Y-54620540D01*
X61189723Y-54620535D01*
X61039464Y-54470276D01*
X61039459Y-54470272D01*
X60867557Y-54345379D01*
X60678216Y-54248904D01*
X60502026Y-54191656D01*
X60444350Y-54152218D01*
X60417152Y-54087860D01*
X60429067Y-54019013D01*
X60476311Y-53967538D01*
X60492882Y-53959168D01*
X60657598Y-53890941D01*
X60829655Y-53775977D01*
X60975977Y-53629655D01*
X61090941Y-53457598D01*
X61170130Y-53266420D01*
X61210500Y-53063465D01*
X61210500Y-52856535D01*
X61210499Y-52856530D01*
X61649500Y-52856530D01*
X61649500Y-53063469D01*
X61689868Y-53266412D01*
X61689870Y-53266420D01*
X61769056Y-53457592D01*
X61769059Y-53457598D01*
X61826541Y-53543626D01*
X61884024Y-53629657D01*
X62030342Y-53775975D01*
X62030345Y-53775977D01*
X62202402Y-53890941D01*
X62393580Y-53970130D01*
X62594876Y-54010170D01*
X62596530Y-54010499D01*
X62596534Y-54010500D01*
X62596535Y-54010500D01*
X62803466Y-54010500D01*
X62803467Y-54010499D01*
X63006420Y-53970130D01*
X63197598Y-53890941D01*
X63369655Y-53775977D01*
X63515977Y-53629655D01*
X63630941Y-53457598D01*
X63710130Y-53266420D01*
X63750500Y-53063465D01*
X63750500Y-52856535D01*
X63710130Y-52653580D01*
X63630941Y-52462402D01*
X63515977Y-52290345D01*
X63515975Y-52290342D01*
X63369657Y-52144024D01*
X63289173Y-52090247D01*
X64189500Y-52090247D01*
X64189500Y-53829752D01*
X64201131Y-53888229D01*
X64201132Y-53888230D01*
X64245447Y-53954552D01*
X64311769Y-53998867D01*
X64311770Y-53998868D01*
X64370247Y-54010499D01*
X64370250Y-54010500D01*
X64370252Y-54010500D01*
X66109750Y-54010500D01*
X66109751Y-54010499D01*
X66124568Y-54007552D01*
X66168229Y-53998868D01*
X66168229Y-53998867D01*
X66168231Y-53998867D01*
X66234552Y-53954552D01*
X66278867Y-53888231D01*
X66278867Y-53888229D01*
X66278868Y-53888229D01*
X66290499Y-53829752D01*
X66290500Y-53829750D01*
X66290500Y-52090249D01*
X66290499Y-52090247D01*
X66278868Y-52031770D01*
X66278867Y-52031769D01*
X66234552Y-51965447D01*
X66168230Y-51921132D01*
X66168229Y-51921131D01*
X66109752Y-51909500D01*
X66109748Y-51909500D01*
X64370252Y-51909500D01*
X64370247Y-51909500D01*
X64311770Y-51921131D01*
X64311769Y-51921132D01*
X64245447Y-51965447D01*
X64201132Y-52031769D01*
X64201131Y-52031770D01*
X64189500Y-52090247D01*
X63289173Y-52090247D01*
X63236191Y-52054846D01*
X63197598Y-52029059D01*
X63167915Y-52016764D01*
X63006420Y-51949870D01*
X63006412Y-51949868D01*
X62803469Y-51909500D01*
X62803465Y-51909500D01*
X62596535Y-51909500D01*
X62596530Y-51909500D01*
X62393587Y-51949868D01*
X62393579Y-51949870D01*
X62202403Y-52029058D01*
X62030342Y-52144024D01*
X61884024Y-52290342D01*
X61769058Y-52462403D01*
X61689870Y-52653579D01*
X61689868Y-52653587D01*
X61649500Y-52856530D01*
X61210499Y-52856530D01*
X61170130Y-52653580D01*
X61090941Y-52462402D01*
X60975977Y-52290345D01*
X60975975Y-52290342D01*
X60829657Y-52144024D01*
X60696191Y-52054846D01*
X60657598Y-52029059D01*
X60627915Y-52016764D01*
X60466420Y-51949870D01*
X60466412Y-51949868D01*
X60263469Y-51909500D01*
X60263465Y-51909500D01*
X60056535Y-51909500D01*
X60056530Y-51909500D01*
X59853587Y-51949868D01*
X59853579Y-51949870D01*
X59662403Y-52029058D01*
X59490342Y-52144024D01*
X59344024Y-52290342D01*
X59229058Y-52462403D01*
X59149870Y-52653579D01*
X59149868Y-52653587D01*
X59109500Y-52856530D01*
X59109500Y-53063469D01*
X59149868Y-53266412D01*
X59149870Y-53266420D01*
X59229056Y-53457592D01*
X59229059Y-53457598D01*
X59286541Y-53543626D01*
X59344024Y-53629657D01*
X59490342Y-53775975D01*
X59662405Y-53890943D01*
X59765043Y-53933456D01*
X59827108Y-53959164D01*
X59881511Y-54003005D01*
X59903576Y-54069299D01*
X59886297Y-54136998D01*
X59835160Y-54184609D01*
X59817974Y-54191656D01*
X59641781Y-54248905D01*
X59452442Y-54345379D01*
X59280540Y-54470272D01*
X59280535Y-54470276D01*
X59130276Y-54620535D01*
X59130272Y-54620540D01*
X59005379Y-54792442D01*
X58908905Y-54981781D01*
X58851656Y-55157974D01*
X58812218Y-55215649D01*
X58747859Y-55242847D01*
X58679013Y-55230932D01*
X58627537Y-55183688D01*
X58619164Y-55167107D01*
X58550943Y-55002405D01*
X58435975Y-54830342D01*
X58289657Y-54684024D01*
X58194638Y-54620535D01*
X58117598Y-54569059D01*
X58117593Y-54569057D01*
X57926420Y-54489870D01*
X57926412Y-54489868D01*
X57723469Y-54449500D01*
X57723465Y-54449500D01*
X57516535Y-54449500D01*
X57516530Y-54449500D01*
X57313587Y-54489868D01*
X57313579Y-54489870D01*
X57122403Y-54569058D01*
X56950342Y-54684024D01*
X56804024Y-54830342D01*
X56689058Y-55002403D01*
X56609870Y-55193579D01*
X56609868Y-55193587D01*
X56569500Y-55396530D01*
X56130499Y-55396530D01*
X56090130Y-55193580D01*
X56010941Y-55002402D01*
X55895977Y-54830345D01*
X55895975Y-54830342D01*
X55749657Y-54684024D01*
X55654638Y-54620535D01*
X55577598Y-54569059D01*
X55577593Y-54569057D01*
X55464466Y-54522198D01*
X55412890Y-54500834D01*
X55358488Y-54456994D01*
X55336423Y-54390700D01*
X55353702Y-54323001D01*
X55404839Y-54275390D01*
X55422026Y-54268343D01*
X55598217Y-54211095D01*
X55787557Y-54114620D01*
X55959459Y-53989727D01*
X55959464Y-53989723D01*
X56109723Y-53839464D01*
X56109727Y-53839459D01*
X56234620Y-53667557D01*
X56331095Y-53478217D01*
X56388343Y-53302026D01*
X56427780Y-53244351D01*
X56492139Y-53217152D01*
X56560985Y-53229066D01*
X56612461Y-53276310D01*
X56620835Y-53292891D01*
X56689056Y-53457592D01*
X56689059Y-53457598D01*
X56746541Y-53543626D01*
X56804024Y-53629657D01*
X56950342Y-53775975D01*
X56950345Y-53775977D01*
X57122402Y-53890941D01*
X57313580Y-53970130D01*
X57514876Y-54010170D01*
X57516530Y-54010499D01*
X57516534Y-54010500D01*
X57516535Y-54010500D01*
X57723466Y-54010500D01*
X57723467Y-54010499D01*
X57926420Y-53970130D01*
X58117598Y-53890941D01*
X58289655Y-53775977D01*
X58435977Y-53629655D01*
X58550941Y-53457598D01*
X58630130Y-53266420D01*
X58670500Y-53063465D01*
X58670500Y-52856535D01*
X58630130Y-52653580D01*
X58550941Y-52462402D01*
X58435977Y-52290345D01*
X58435975Y-52290342D01*
X58289657Y-52144024D01*
X58156191Y-52054846D01*
X58117598Y-52029059D01*
X58087915Y-52016764D01*
X57926420Y-51949870D01*
X57926412Y-51949868D01*
X57723469Y-51909500D01*
X57723465Y-51909500D01*
X57516535Y-51909500D01*
X57516530Y-51909500D01*
X57313587Y-51949868D01*
X57313579Y-51949870D01*
X57122403Y-52029058D01*
X56950342Y-52144024D01*
X56804024Y-52290342D01*
X56689057Y-52462403D01*
X56620835Y-52627108D01*
X56576994Y-52681511D01*
X56510700Y-52703576D01*
X56443000Y-52686297D01*
X56395390Y-52635159D01*
X56388343Y-52617973D01*
X56331095Y-52441782D01*
X56234620Y-52252442D01*
X56109727Y-52080540D01*
X56109723Y-52080535D01*
X55959464Y-51930276D01*
X55959459Y-51930272D01*
X55787557Y-51805379D01*
X55598215Y-51708903D01*
X55396124Y-51643241D01*
X55330000Y-51632768D01*
X55330000Y-52526988D01*
X55272993Y-52494075D01*
X55145826Y-52460000D01*
X55014174Y-52460000D01*
X54887007Y-52494075D01*
X54830000Y-52526988D01*
X54830000Y-51632768D01*
X54829999Y-51632768D01*
X54763875Y-51643241D01*
X54561784Y-51708903D01*
X54372442Y-51805379D01*
X54200540Y-51930272D01*
X54200535Y-51930276D01*
X54050276Y-52080535D01*
X54050272Y-52080540D01*
X53925379Y-52252442D01*
X53828905Y-52441781D01*
X53771656Y-52617974D01*
X53732218Y-52675649D01*
X53667859Y-52702847D01*
X53599013Y-52690932D01*
X53547537Y-52643688D01*
X53539164Y-52627107D01*
X53470943Y-52462405D01*
X53355975Y-52290342D01*
X53209657Y-52144024D01*
X53076191Y-52054846D01*
X53037598Y-52029059D01*
X53007915Y-52016764D01*
X52846420Y-51949870D01*
X52846412Y-51949868D01*
X52643469Y-51909500D01*
X52643465Y-51909500D01*
X52436535Y-51909500D01*
X52436530Y-51909500D01*
X52233587Y-51949868D01*
X52233579Y-51949870D01*
X52042403Y-52029058D01*
X51870342Y-52144024D01*
X51724024Y-52290342D01*
X51653049Y-52396566D01*
X51609061Y-52462400D01*
X51605675Y-52467467D01*
X51604310Y-52466555D01*
X51560891Y-52510753D01*
X51492752Y-52526211D01*
X51427074Y-52502376D01*
X51384708Y-52446816D01*
X51376500Y-52402453D01*
X51376500Y-48210691D01*
X53759500Y-48210691D01*
X53759500Y-48329309D01*
X53790201Y-48443886D01*
X53849511Y-48546613D01*
X53933387Y-48630489D01*
X54036114Y-48689799D01*
X54150691Y-48720500D01*
X54150694Y-48720500D01*
X54269306Y-48720500D01*
X54269309Y-48720500D01*
X54383886Y-48689799D01*
X54486613Y-48630489D01*
X54570489Y-48546613D01*
X54629799Y-48443886D01*
X54660500Y-48329309D01*
X54660500Y-48210691D01*
X54629799Y-48096114D01*
X54570489Y-47993387D01*
X54486613Y-47909511D01*
X54383886Y-47850201D01*
X54269309Y-47819500D01*
X54150691Y-47819500D01*
X54036114Y-47850201D01*
X54036112Y-47850201D01*
X54036112Y-47850202D01*
X53933387Y-47909511D01*
X53933384Y-47909513D01*
X53849513Y-47993384D01*
X53849511Y-47993387D01*
X53790201Y-48096114D01*
X53759500Y-48210691D01*
X51376500Y-48210691D01*
X51376500Y-39839477D01*
X51396185Y-39772438D01*
X51412819Y-39751796D01*
X54277796Y-36886819D01*
X54339119Y-36853334D01*
X54365477Y-36850500D01*
X54434306Y-36850500D01*
X54434309Y-36850500D01*
X54548886Y-36819799D01*
X54651613Y-36760489D01*
X54735489Y-36676613D01*
X54794799Y-36573886D01*
X54825500Y-36459309D01*
X54825500Y-36340691D01*
X54794799Y-36226114D01*
X54735489Y-36123387D01*
X54651613Y-36039511D01*
X54548886Y-35980201D01*
X54434309Y-35949500D01*
X54315691Y-35949500D01*
X54201114Y-35980201D01*
X54201112Y-35980201D01*
X54201112Y-35980202D01*
X54098387Y-36039511D01*
X54098384Y-36039513D01*
X54014513Y-36123384D01*
X54014511Y-36123387D01*
X53955201Y-36226114D01*
X53924500Y-36340691D01*
X53924500Y-36340693D01*
X53924500Y-36409521D01*
X53904815Y-36476560D01*
X53888181Y-36497202D01*
X50944942Y-39440443D01*
X50867444Y-39517940D01*
X50825500Y-39619199D01*
X50825500Y-52016167D01*
X50805815Y-52083206D01*
X50753011Y-52128961D01*
X50683853Y-52138905D01*
X50632610Y-52119270D01*
X50536191Y-52054846D01*
X50497598Y-52029059D01*
X50467915Y-52016764D01*
X50306420Y-51949870D01*
X50306412Y-51949868D01*
X50103469Y-51909500D01*
X50103465Y-51909500D01*
X49896535Y-51909500D01*
X49896530Y-51909500D01*
X49693587Y-51949868D01*
X49693579Y-51949870D01*
X49502403Y-52029058D01*
X49330342Y-52144024D01*
X49184024Y-52290342D01*
X49069058Y-52462403D01*
X48989870Y-52653579D01*
X48989868Y-52653587D01*
X48949500Y-52856530D01*
X48949500Y-53063469D01*
X48989868Y-53266412D01*
X48989871Y-53266424D01*
X49050158Y-53411970D01*
X49057627Y-53481439D01*
X49026352Y-53543918D01*
X49023279Y-53547103D01*
X48821204Y-53749181D01*
X48759881Y-53782666D01*
X48733522Y-53785500D01*
X48403832Y-53785500D01*
X48336793Y-53765815D01*
X48291038Y-53713011D01*
X48281094Y-53643853D01*
X48300730Y-53592610D01*
X48377164Y-53478217D01*
X48390941Y-53457598D01*
X48470130Y-53266420D01*
X48510500Y-53063465D01*
X48510500Y-52856535D01*
X48470130Y-52653580D01*
X48390941Y-52462402D01*
X48275977Y-52290345D01*
X48275975Y-52290342D01*
X48129657Y-52144024D01*
X47996191Y-52054846D01*
X47957598Y-52029059D01*
X47927915Y-52016764D01*
X47766420Y-51949870D01*
X47766412Y-51949868D01*
X47563469Y-51909500D01*
X47563465Y-51909500D01*
X47356535Y-51909500D01*
X47356530Y-51909500D01*
X47153587Y-51949868D01*
X47153579Y-51949870D01*
X46962403Y-52029058D01*
X46790342Y-52144024D01*
X46644024Y-52290342D01*
X46529058Y-52462403D01*
X46449870Y-52653579D01*
X46449868Y-52653587D01*
X46409500Y-52856530D01*
X46409500Y-53063469D01*
X46449868Y-53266412D01*
X46449870Y-53266420D01*
X46529059Y-53457599D01*
X46619270Y-53592610D01*
X46640148Y-53659287D01*
X46621663Y-53726667D01*
X46569684Y-53773357D01*
X46516168Y-53785500D01*
X45863832Y-53785500D01*
X45796793Y-53765815D01*
X45751038Y-53713011D01*
X45741094Y-53643853D01*
X45760730Y-53592610D01*
X45837164Y-53478217D01*
X45850941Y-53457598D01*
X45930130Y-53266420D01*
X45970500Y-53063465D01*
X45970500Y-52856535D01*
X45930130Y-52653580D01*
X45850941Y-52462402D01*
X45735977Y-52290345D01*
X45735975Y-52290342D01*
X45589657Y-52144024D01*
X45456191Y-52054846D01*
X45417598Y-52029059D01*
X45387915Y-52016764D01*
X45226420Y-51949870D01*
X45226412Y-51949868D01*
X45023469Y-51909500D01*
X45023465Y-51909500D01*
X44816535Y-51909500D01*
X44816530Y-51909500D01*
X44613587Y-51949868D01*
X44613579Y-51949870D01*
X44422403Y-52029058D01*
X44250342Y-52144024D01*
X44104024Y-52290342D01*
X43989058Y-52462403D01*
X43909870Y-52653579D01*
X43909868Y-52653587D01*
X43869500Y-52856530D01*
X43869500Y-53063469D01*
X43909868Y-53266412D01*
X43909870Y-53266420D01*
X43989056Y-53457592D01*
X43989059Y-53457598D01*
X44046541Y-53543626D01*
X44104024Y-53629657D01*
X44250342Y-53775975D01*
X44250345Y-53775977D01*
X44377605Y-53861009D01*
X44392678Y-53871080D01*
X44437484Y-53924693D01*
X44446191Y-53994017D01*
X44416037Y-54057045D01*
X44411469Y-54061864D01*
X43698834Y-54774500D01*
X43637511Y-54807985D01*
X43567820Y-54803001D01*
X43511886Y-54761130D01*
X43510835Y-54759704D01*
X43409727Y-54620539D01*
X43259464Y-54470276D01*
X43259459Y-54470272D01*
X43087557Y-54345379D01*
X42898216Y-54248904D01*
X42722026Y-54191656D01*
X42664350Y-54152218D01*
X42637152Y-54087860D01*
X42649067Y-54019013D01*
X42696311Y-53967538D01*
X42712882Y-53959168D01*
X42877598Y-53890941D01*
X43049655Y-53775977D01*
X43195977Y-53629655D01*
X43310941Y-53457598D01*
X43390130Y-53266420D01*
X43430500Y-53063465D01*
X43430500Y-52856535D01*
X43390130Y-52653580D01*
X43310941Y-52462402D01*
X43195977Y-52290345D01*
X43195975Y-52290342D01*
X43049657Y-52144024D01*
X42916191Y-52054846D01*
X42877598Y-52029059D01*
X42847915Y-52016764D01*
X42686420Y-51949870D01*
X42686412Y-51949868D01*
X42483469Y-51909500D01*
X42483465Y-51909500D01*
X42279476Y-51909500D01*
X42212437Y-51889815D01*
X42166682Y-51837011D01*
X42156738Y-51767853D01*
X42185763Y-51704297D01*
X42191795Y-51697819D01*
X42673922Y-51215693D01*
X44897797Y-48991819D01*
X44959120Y-48958334D01*
X44985478Y-48955500D01*
X47937036Y-48955500D01*
X48004075Y-48975185D01*
X48024717Y-48991819D01*
X48073387Y-49040489D01*
X48176114Y-49099799D01*
X48290691Y-49130500D01*
X48290694Y-49130500D01*
X48409306Y-49130500D01*
X48409309Y-49130500D01*
X48523886Y-49099799D01*
X48626613Y-49040489D01*
X48710489Y-48956613D01*
X48769799Y-48853886D01*
X48800500Y-48739309D01*
X48800500Y-48620691D01*
X48769799Y-48506114D01*
X48710489Y-48403387D01*
X48626613Y-48319511D01*
X48523886Y-48260201D01*
X48409309Y-48229500D01*
X48290691Y-48229500D01*
X48176114Y-48260201D01*
X48176112Y-48260201D01*
X48176112Y-48260202D01*
X48073387Y-48319511D01*
X48073384Y-48319513D01*
X48024717Y-48368181D01*
X47963394Y-48401666D01*
X47937036Y-48404500D01*
X44765197Y-48404500D01*
X44710774Y-48427044D01*
X44710773Y-48427044D01*
X44663943Y-48446440D01*
X44663941Y-48446442D01*
X40963942Y-52146443D01*
X40886444Y-52223940D01*
X40886443Y-52223942D01*
X40870028Y-52263569D01*
X40826185Y-52317971D01*
X40759890Y-52340034D01*
X40692192Y-52322753D01*
X40659611Y-52294774D01*
X40655979Y-52290349D01*
X40655977Y-52290345D01*
X40655973Y-52290341D01*
X40655969Y-52290336D01*
X40509657Y-52144024D01*
X40376191Y-52054846D01*
X40337598Y-52029059D01*
X40307915Y-52016764D01*
X40146420Y-51949870D01*
X40146412Y-51949868D01*
X39943469Y-51909500D01*
X39943465Y-51909500D01*
X39736535Y-51909500D01*
X39736530Y-51909500D01*
X39533587Y-51949868D01*
X39533579Y-51949870D01*
X39342403Y-52029058D01*
X39170342Y-52144024D01*
X39024024Y-52290342D01*
X38953049Y-52396566D01*
X38909061Y-52462400D01*
X38905675Y-52467467D01*
X38904310Y-52466555D01*
X38860891Y-52510753D01*
X38792752Y-52526211D01*
X38727074Y-52502376D01*
X38684708Y-52446816D01*
X38676500Y-52402453D01*
X38676500Y-52264477D01*
X38696185Y-52197438D01*
X38712819Y-52176796D01*
X39555307Y-51334309D01*
X40433557Y-50456059D01*
X40445841Y-50426400D01*
X40475500Y-50354800D01*
X40475500Y-33306786D01*
X40495185Y-33239747D01*
X40547989Y-33193992D01*
X40617147Y-33184048D01*
X40661501Y-33199400D01*
X40766108Y-33259796D01*
X40766109Y-33259797D01*
X40766111Y-33259797D01*
X40766114Y-33259799D01*
X40880691Y-33290500D01*
X40880694Y-33290500D01*
X40999306Y-33290500D01*
X40999309Y-33290500D01*
X41113886Y-33259799D01*
X41216613Y-33200489D01*
X41300489Y-33116613D01*
X41359799Y-33013886D01*
X41390500Y-32899309D01*
X41390500Y-32780691D01*
X41390499Y-32780689D01*
X41389439Y-32772635D01*
X41391651Y-32772343D01*
X41393036Y-32714110D01*
X41432196Y-32656246D01*
X41496423Y-32628739D01*
X41565326Y-32640323D01*
X41598830Y-32664181D01*
X41848181Y-32913532D01*
X41881666Y-32974855D01*
X41884500Y-33001213D01*
X41884500Y-33087036D01*
X41864815Y-33154075D01*
X41848181Y-33174717D01*
X41799513Y-33223384D01*
X41799511Y-33223387D01*
X41740201Y-33326114D01*
X41709500Y-33440691D01*
X41709500Y-33559309D01*
X41740201Y-33673886D01*
X41799511Y-33776613D01*
X41883387Y-33860489D01*
X41986114Y-33919799D01*
X42100691Y-33950500D01*
X42100694Y-33950500D01*
X42219306Y-33950500D01*
X42219309Y-33950500D01*
X42333886Y-33919799D01*
X42436613Y-33860489D01*
X42520489Y-33776613D01*
X42579799Y-33673886D01*
X42610500Y-33559309D01*
X42610500Y-33440691D01*
X42579799Y-33326114D01*
X42520489Y-33223387D01*
X42471819Y-33174717D01*
X42438334Y-33113394D01*
X42435500Y-33087036D01*
X42435500Y-32780937D01*
X42435500Y-32780936D01*
X42393557Y-32679678D01*
X42393557Y-32679677D01*
X41086028Y-31372149D01*
X68049500Y-31372149D01*
X68049500Y-31627850D01*
X68067208Y-31762350D01*
X68082874Y-31881340D01*
X68149050Y-32128312D01*
X68149053Y-32128322D01*
X68246894Y-32364531D01*
X68246899Y-32364542D01*
X68374734Y-32585957D01*
X68374745Y-32585973D01*
X68530388Y-32788811D01*
X68530394Y-32788818D01*
X68711181Y-32969605D01*
X68711188Y-32969611D01*
X68768890Y-33013887D01*
X68914035Y-33125261D01*
X68914042Y-33125265D01*
X69135457Y-33253100D01*
X69135462Y-33253102D01*
X69135465Y-33253104D01*
X69225747Y-33290500D01*
X69311722Y-33326112D01*
X69371687Y-33350950D01*
X69618660Y-33417126D01*
X69872157Y-33450500D01*
X69872164Y-33450500D01*
X70127836Y-33450500D01*
X70127843Y-33450500D01*
X70381340Y-33417126D01*
X70628313Y-33350950D01*
X70864535Y-33253104D01*
X71085965Y-33125261D01*
X71288813Y-32969610D01*
X71469610Y-32788813D01*
X71625261Y-32585965D01*
X71753104Y-32364535D01*
X71850950Y-32128313D01*
X71917126Y-31881340D01*
X71950500Y-31627843D01*
X71950500Y-31372157D01*
X71917126Y-31118660D01*
X71850950Y-30871687D01*
X71849813Y-30868943D01*
X71767621Y-30670513D01*
X71753104Y-30635465D01*
X71753102Y-30635462D01*
X71753100Y-30635457D01*
X71625265Y-30414042D01*
X71625261Y-30414035D01*
X71494742Y-30243940D01*
X71469611Y-30211188D01*
X71469605Y-30211181D01*
X71288818Y-30030394D01*
X71288811Y-30030388D01*
X71085973Y-29874745D01*
X71085971Y-29874743D01*
X71085965Y-29874739D01*
X71085960Y-29874736D01*
X71085957Y-29874734D01*
X70864542Y-29746899D01*
X70864531Y-29746894D01*
X70628322Y-29649053D01*
X70628315Y-29649051D01*
X70628313Y-29649050D01*
X70381340Y-29582874D01*
X70325007Y-29575457D01*
X70127850Y-29549500D01*
X70127843Y-29549500D01*
X69872157Y-29549500D01*
X69872149Y-29549500D01*
X69646826Y-29579165D01*
X69618660Y-29582874D01*
X69371687Y-29649050D01*
X69371677Y-29649053D01*
X69135468Y-29746894D01*
X69135457Y-29746899D01*
X68914042Y-29874734D01*
X68914026Y-29874745D01*
X68711188Y-30030388D01*
X68711181Y-30030394D01*
X68530394Y-30211181D01*
X68530388Y-30211188D01*
X68374745Y-30414026D01*
X68374734Y-30414042D01*
X68246899Y-30635457D01*
X68246894Y-30635468D01*
X68149053Y-30871677D01*
X68149050Y-30871687D01*
X68087901Y-31099901D01*
X68082874Y-31118661D01*
X68049500Y-31372149D01*
X41086028Y-31372149D01*
X40633621Y-30919742D01*
X38880323Y-29166444D01*
X38880322Y-29166443D01*
X38779064Y-29124500D01*
X30275200Y-29124500D01*
X30275198Y-29124500D01*
X30203599Y-29154158D01*
X30173939Y-29166443D01*
X28803612Y-30536770D01*
X28742289Y-30570255D01*
X28691740Y-30570706D01*
X28524802Y-30537500D01*
X28524798Y-30537500D01*
X28335202Y-30537500D01*
X28335197Y-30537500D01*
X28149256Y-30574486D01*
X28149248Y-30574488D01*
X27974087Y-30647042D01*
X27816441Y-30752377D01*
X27682377Y-30886441D01*
X27577042Y-31044087D01*
X27504488Y-31219248D01*
X27504486Y-31219256D01*
X27467500Y-31405197D01*
X27467500Y-31594802D01*
X27504486Y-31780743D01*
X27504488Y-31780751D01*
X27577042Y-31955912D01*
X27682377Y-32113558D01*
X27750059Y-32181240D01*
X27783544Y-32242563D01*
X27778560Y-32312255D01*
X27736688Y-32368188D01*
X27671224Y-32392605D01*
X27662356Y-32392921D01*
X26657779Y-32392741D01*
X26590743Y-32373044D01*
X26544997Y-32320232D01*
X26535066Y-32251072D01*
X26564103Y-32187521D01*
X26570106Y-32181073D01*
X26637622Y-32113558D01*
X26742956Y-31955915D01*
X26815512Y-31780751D01*
X26852500Y-31594798D01*
X26852500Y-31405202D01*
X26815512Y-31219249D01*
X26742956Y-31044085D01*
X26707686Y-30991300D01*
X26637622Y-30886441D01*
X26503558Y-30752377D01*
X26345912Y-30647042D01*
X26170751Y-30574488D01*
X26170743Y-30574486D01*
X25984802Y-30537500D01*
X25984798Y-30537500D01*
X25795202Y-30537500D01*
X25795197Y-30537500D01*
X25609256Y-30574486D01*
X25609248Y-30574488D01*
X25434087Y-30647042D01*
X25276441Y-30752377D01*
X25142377Y-30886441D01*
X25037042Y-31044087D01*
X24964488Y-31219248D01*
X24964486Y-31219256D01*
X24927500Y-31405197D01*
X24927500Y-31594802D01*
X24964486Y-31780743D01*
X24964488Y-31780751D01*
X25037042Y-31955912D01*
X25142377Y-32113558D01*
X25209605Y-32180786D01*
X25243090Y-32242109D01*
X25238106Y-32311801D01*
X25196234Y-32367734D01*
X25130770Y-32392151D01*
X25121902Y-32392467D01*
X24118232Y-32392288D01*
X24051196Y-32372591D01*
X24005450Y-32319779D01*
X23995519Y-32250619D01*
X24024556Y-32187069D01*
X24030559Y-32180620D01*
X24097622Y-32113558D01*
X24202956Y-31955915D01*
X24275512Y-31780751D01*
X24312500Y-31594798D01*
X24312500Y-31405202D01*
X24275512Y-31219249D01*
X24202956Y-31044085D01*
X24167686Y-30991300D01*
X24097622Y-30886441D01*
X23963558Y-30752377D01*
X23805912Y-30647042D01*
X23630751Y-30574488D01*
X23630743Y-30574486D01*
X23444802Y-30537500D01*
X23444798Y-30537500D01*
X23255202Y-30537500D01*
X23255197Y-30537500D01*
X23069256Y-30574486D01*
X23069248Y-30574488D01*
X22894087Y-30647042D01*
X22736441Y-30752377D01*
X22602377Y-30886441D01*
X22497042Y-31044087D01*
X22424488Y-31219248D01*
X22424486Y-31219256D01*
X22387500Y-31405197D01*
X22387500Y-31594802D01*
X22424486Y-31780743D01*
X22424488Y-31780751D01*
X22497042Y-31955912D01*
X22602377Y-32113558D01*
X22669152Y-32180333D01*
X22702637Y-32241656D01*
X22697653Y-32311348D01*
X22655781Y-32367281D01*
X22590317Y-32391698D01*
X22581449Y-32392014D01*
X21578686Y-32391834D01*
X21511650Y-32372137D01*
X21465904Y-32319325D01*
X21455973Y-32250165D01*
X21485010Y-32186614D01*
X21491013Y-32180166D01*
X21557622Y-32113558D01*
X21662956Y-31955915D01*
X21735512Y-31780751D01*
X21772500Y-31594798D01*
X21772500Y-31405202D01*
X21735512Y-31219249D01*
X21662956Y-31044085D01*
X21627686Y-30991300D01*
X21557622Y-30886441D01*
X21423558Y-30752377D01*
X21265912Y-30647042D01*
X21090751Y-30574488D01*
X21090743Y-30574486D01*
X20904802Y-30537500D01*
X20904798Y-30537500D01*
X20715202Y-30537500D01*
X20715197Y-30537500D01*
X20529256Y-30574486D01*
X20529248Y-30574488D01*
X20354087Y-30647042D01*
X20196441Y-30752377D01*
X20062377Y-30886441D01*
X19957042Y-31044087D01*
X19884488Y-31219248D01*
X19884486Y-31219256D01*
X19847500Y-31405197D01*
X19847500Y-31594802D01*
X19884486Y-31780743D01*
X19884488Y-31780751D01*
X19957042Y-31955912D01*
X20062377Y-32113558D01*
X20128698Y-32179879D01*
X20162183Y-32241202D01*
X20157199Y-32310894D01*
X20115327Y-32366827D01*
X20049863Y-32391244D01*
X20040995Y-32391560D01*
X19039139Y-32391381D01*
X18972103Y-32371684D01*
X18926357Y-32318872D01*
X18916426Y-32249712D01*
X18945463Y-32186162D01*
X18951466Y-32179713D01*
X19017622Y-32113558D01*
X19122956Y-31955915D01*
X19195512Y-31780751D01*
X19232500Y-31594798D01*
X19232500Y-31405202D01*
X19195512Y-31219249D01*
X19122956Y-31044085D01*
X19087686Y-30991300D01*
X19017622Y-30886441D01*
X18883558Y-30752377D01*
X18725912Y-30647042D01*
X18550751Y-30574488D01*
X18550743Y-30574486D01*
X18364802Y-30537500D01*
X18364798Y-30537500D01*
X18175202Y-30537500D01*
X18175197Y-30537500D01*
X17989256Y-30574486D01*
X17989248Y-30574488D01*
X17814087Y-30647042D01*
X17656441Y-30752377D01*
X17522377Y-30886441D01*
X17417042Y-31044087D01*
X17344488Y-31219248D01*
X17344486Y-31219256D01*
X17307500Y-31405197D01*
X17307500Y-31594802D01*
X17344486Y-31780743D01*
X17344488Y-31780751D01*
X17417042Y-31955912D01*
X17522377Y-32113558D01*
X17588244Y-32179425D01*
X17621729Y-32240748D01*
X17616745Y-32310440D01*
X17574873Y-32366373D01*
X17509409Y-32390790D01*
X17500541Y-32391106D01*
X16499592Y-32390928D01*
X16432556Y-32371232D01*
X16386810Y-32318419D01*
X16376879Y-32249259D01*
X16405915Y-32185709D01*
X16411919Y-32179260D01*
X16477622Y-32113558D01*
X16582956Y-31955915D01*
X16655512Y-31780751D01*
X16692500Y-31594798D01*
X16692500Y-31405202D01*
X16655512Y-31219249D01*
X16582956Y-31044085D01*
X16547686Y-30991300D01*
X16477622Y-30886441D01*
X16343558Y-30752377D01*
X16185912Y-30647042D01*
X16010751Y-30574488D01*
X16010743Y-30574486D01*
X15824802Y-30537500D01*
X15824798Y-30537500D01*
X15635202Y-30537500D01*
X15635197Y-30537500D01*
X15449256Y-30574486D01*
X15449248Y-30574488D01*
X15274087Y-30647042D01*
X15116441Y-30752377D01*
X14982377Y-30886441D01*
X14877042Y-31044087D01*
X14804488Y-31219248D01*
X14804486Y-31219256D01*
X14767500Y-31405197D01*
X14767500Y-31594802D01*
X14804486Y-31780743D01*
X14804488Y-31780751D01*
X14877042Y-31955912D01*
X14982377Y-32113558D01*
X15047790Y-32178971D01*
X15081275Y-32240294D01*
X15076291Y-32309986D01*
X15034419Y-32365919D01*
X14968955Y-32390336D01*
X14960087Y-32390652D01*
X14346242Y-32390542D01*
X14279206Y-32370845D01*
X14233460Y-32318033D01*
X14223529Y-32248873D01*
X14245947Y-32193655D01*
X14269358Y-32161433D01*
X14359542Y-31984437D01*
X14420924Y-31795523D01*
X14420924Y-31795520D01*
X14452000Y-31599321D01*
X14452000Y-31400678D01*
X14420924Y-31204479D01*
X14420924Y-31204476D01*
X14359542Y-31015562D01*
X14269358Y-30838567D01*
X14242268Y-30801283D01*
X13672962Y-31370589D01*
X13655925Y-31307007D01*
X13590099Y-31192993D01*
X13497007Y-31099901D01*
X13382993Y-31034075D01*
X13319409Y-31017037D01*
X13888716Y-30447731D01*
X13888715Y-30447730D01*
X13851432Y-30420641D01*
X13674437Y-30330457D01*
X13485522Y-30269075D01*
X13289321Y-30238000D01*
X13090679Y-30238000D01*
X12894479Y-30269075D01*
X12894476Y-30269075D01*
X12705562Y-30330457D01*
X12528564Y-30420643D01*
X12491283Y-30447729D01*
X12491282Y-30447730D01*
X13060590Y-31017037D01*
X12997007Y-31034075D01*
X12882993Y-31099901D01*
X12789901Y-31192993D01*
X12724075Y-31307007D01*
X12707037Y-31370590D01*
X12137730Y-30801282D01*
X12137729Y-30801283D01*
X12110643Y-30838564D01*
X12020457Y-31015562D01*
X11959075Y-31204476D01*
X11959075Y-31204479D01*
X11928000Y-31400678D01*
X11928000Y-31599321D01*
X11959075Y-31795520D01*
X11959075Y-31795523D01*
X12020457Y-31984437D01*
X12110643Y-32161435D01*
X12133753Y-32193244D01*
X12157233Y-32259050D01*
X12141407Y-32327104D01*
X12091302Y-32375799D01*
X12033413Y-32390129D01*
X11427569Y-32390021D01*
X11360533Y-32370324D01*
X11314787Y-32317512D01*
X11304856Y-32248352D01*
X11333893Y-32184802D01*
X11339897Y-32178353D01*
X11387194Y-32131057D01*
X11412751Y-32099917D01*
X11496143Y-31975112D01*
X11515133Y-31939583D01*
X11572574Y-31800908D01*
X11584268Y-31762358D01*
X11613551Y-31615141D01*
X11617500Y-31575050D01*
X11617500Y-31424950D01*
X11613551Y-31384859D01*
X11584268Y-31237642D01*
X11572574Y-31199092D01*
X11515133Y-31060417D01*
X11506404Y-31044085D01*
X11496150Y-31024900D01*
X11496139Y-31024882D01*
X11412752Y-30900084D01*
X11387194Y-30868943D01*
X11281056Y-30762805D01*
X11249915Y-30737247D01*
X11125117Y-30653860D01*
X11125099Y-30653849D01*
X11089599Y-30634875D01*
X11089577Y-30634864D01*
X11033940Y-30611819D01*
X10982807Y-30590639D01*
X10950909Y-30577426D01*
X10927268Y-30570255D01*
X10912358Y-30565732D01*
X10912353Y-30565731D01*
X10912350Y-30565730D01*
X10765142Y-30536449D01*
X10765143Y-30536449D01*
X10753686Y-30535320D01*
X10725050Y-30532500D01*
X10574950Y-30532500D01*
X10546313Y-30535320D01*
X10534857Y-30536449D01*
X10387649Y-30565730D01*
X10349090Y-30577426D01*
X10210422Y-30634864D01*
X10210400Y-30634875D01*
X10174900Y-30653849D01*
X10174882Y-30653860D01*
X10050084Y-30737247D01*
X10018943Y-30762805D01*
X9912805Y-30868943D01*
X9887247Y-30900084D01*
X9803860Y-31024882D01*
X9803849Y-31024900D01*
X9784875Y-31060400D01*
X9784864Y-31060422D01*
X9727426Y-31199090D01*
X9715730Y-31237649D01*
X9688974Y-31372163D01*
X9686449Y-31384859D01*
X9682500Y-31424950D01*
X9682500Y-31575050D01*
X9683884Y-31589096D01*
X9686449Y-31615142D01*
X9701934Y-31692993D01*
X9715732Y-31762358D01*
X9722566Y-31784888D01*
X9727426Y-31800909D01*
X9784864Y-31939577D01*
X9784875Y-31939599D01*
X9803849Y-31975099D01*
X9803860Y-31975117D01*
X9887247Y-32099915D01*
X9912805Y-32131056D01*
X9959812Y-32178063D01*
X9993297Y-32239386D01*
X9988313Y-32309078D01*
X9946441Y-32365011D01*
X9880977Y-32389428D01*
X9872109Y-32389744D01*
X8824478Y-32389557D01*
X8757442Y-32369860D01*
X8711696Y-32317048D01*
X8700500Y-32265557D01*
X8700500Y-31503480D01*
X8700695Y-31496527D01*
X8704197Y-31434174D01*
X8717713Y-31193497D01*
X8719267Y-31179700D01*
X8769525Y-30883908D01*
X8772613Y-30870376D01*
X8855674Y-30582063D01*
X8860264Y-30568949D01*
X8861597Y-30565732D01*
X8975078Y-30291762D01*
X8981098Y-30279263D01*
X9126240Y-30016646D01*
X9133617Y-30004907D01*
X9307239Y-29760211D01*
X9315885Y-29749368D01*
X9515824Y-29525636D01*
X9525636Y-29515824D01*
X9749368Y-29315885D01*
X9760211Y-29307239D01*
X10004907Y-29133617D01*
X10016646Y-29126240D01*
X10279263Y-28981098D01*
X10291762Y-28975078D01*
X10568956Y-28860261D01*
X10582063Y-28855674D01*
X10870376Y-28772613D01*
X10883908Y-28769525D01*
X11179700Y-28719267D01*
X11193497Y-28717713D01*
X11496528Y-28700695D01*
X11503481Y-28700500D01*
X11539882Y-28700500D01*
X70460118Y-28700500D01*
X70496519Y-28700500D01*
X70503472Y-28700695D01*
G37*
%TD.AperFunction*%
%TA.AperFunction,Conductor*%
G36*
X46969492Y-54356185D02*
G01*
X47015247Y-54408989D01*
X47025191Y-54478147D01*
X46996166Y-54541703D01*
X46967007Y-54564986D01*
X46967467Y-54565675D01*
X46962403Y-54569058D01*
X46962402Y-54569059D01*
X46937796Y-54585500D01*
X46790342Y-54684024D01*
X46644024Y-54830342D01*
X46529058Y-55002403D01*
X46449870Y-55193579D01*
X46449868Y-55193587D01*
X46409500Y-55396530D01*
X46409500Y-55603469D01*
X46449868Y-55806412D01*
X46449870Y-55806420D01*
X46515939Y-55965925D01*
X46529059Y-55997598D01*
X46560140Y-56044114D01*
X46644024Y-56169657D01*
X46790342Y-56315975D01*
X46790345Y-56315977D01*
X46962402Y-56430941D01*
X47153580Y-56510130D01*
X47252081Y-56529723D01*
X47312836Y-56541808D01*
X47374747Y-56574192D01*
X47409321Y-56634908D01*
X47405582Y-56704678D01*
X47376326Y-56751106D01*
X46240254Y-57887181D01*
X46178931Y-57920666D01*
X46152573Y-57923500D01*
X28447428Y-57923500D01*
X28380389Y-57903815D01*
X28359747Y-57887181D01*
X27820036Y-57347470D01*
X27223670Y-56751105D01*
X27190186Y-56689783D01*
X27195170Y-56620091D01*
X27237042Y-56564158D01*
X27287157Y-56541809D01*
X27446420Y-56510130D01*
X27637598Y-56430941D01*
X27809655Y-56315977D01*
X27809658Y-56315974D01*
X27887819Y-56237814D01*
X27949142Y-56204329D01*
X28018834Y-56209313D01*
X28074767Y-56251185D01*
X28099184Y-56316649D01*
X28099500Y-56325495D01*
X28099500Y-56579800D01*
X28141443Y-56681058D01*
X28866443Y-57406058D01*
X28943942Y-57483557D01*
X29045200Y-57525500D01*
X29045201Y-57525500D01*
X42241849Y-57525500D01*
X42241850Y-57525500D01*
X42343108Y-57483557D01*
X42420607Y-57406058D01*
X42420606Y-57406058D01*
X42479175Y-57347489D01*
X42479174Y-57347489D01*
X43818137Y-56008527D01*
X43879458Y-55975044D01*
X43949150Y-55980028D01*
X44005083Y-56021900D01*
X44008909Y-56027306D01*
X44020140Y-56044114D01*
X44104024Y-56169657D01*
X44250342Y-56315975D01*
X44250345Y-56315977D01*
X44422402Y-56430941D01*
X44613580Y-56510130D01*
X44816530Y-56550499D01*
X44816534Y-56550500D01*
X44816535Y-56550500D01*
X45023466Y-56550500D01*
X45023467Y-56550499D01*
X45226420Y-56510130D01*
X45417598Y-56430941D01*
X45589655Y-56315977D01*
X45735977Y-56169655D01*
X45850941Y-55997598D01*
X45930130Y-55806420D01*
X45970500Y-55603465D01*
X45970500Y-55396535D01*
X45930130Y-55193580D01*
X45850941Y-55002402D01*
X45735977Y-54830345D01*
X45735975Y-54830342D01*
X45589657Y-54684024D01*
X45471665Y-54605185D01*
X45417598Y-54569059D01*
X45417596Y-54569058D01*
X45412533Y-54565675D01*
X45413444Y-54564310D01*
X45369247Y-54520891D01*
X45353789Y-54452752D01*
X45377624Y-54387074D01*
X45433184Y-54344708D01*
X45477547Y-54336500D01*
X46902453Y-54336500D01*
X46969492Y-54356185D01*
G37*
%TD.AperFunction*%
%TA.AperFunction,Conductor*%
G36*
X33966544Y-54595185D02*
G01*
X34012299Y-54647989D01*
X34022243Y-54717147D01*
X33993218Y-54780703D01*
X33987186Y-54787181D01*
X33944025Y-54830341D01*
X33944024Y-54830342D01*
X33829058Y-55002403D01*
X33749870Y-55193579D01*
X33749868Y-55193587D01*
X33709500Y-55396530D01*
X33709500Y-55603469D01*
X33749868Y-55806412D01*
X33749870Y-55806420D01*
X33815939Y-55965925D01*
X33829059Y-55997598D01*
X33860140Y-56044114D01*
X33944024Y-56169657D01*
X34090342Y-56315975D01*
X34090345Y-56315977D01*
X34262402Y-56430941D01*
X34453580Y-56510130D01*
X34656530Y-56550499D01*
X34656534Y-56550500D01*
X34656535Y-56550500D01*
X34863466Y-56550500D01*
X34863467Y-56550499D01*
X35066420Y-56510130D01*
X35257598Y-56430941D01*
X35429655Y-56315977D01*
X35575977Y-56169655D01*
X35690941Y-55997598D01*
X35770130Y-55806420D01*
X35810500Y-55603465D01*
X35810500Y-55396535D01*
X35770130Y-55193580D01*
X35690941Y-55002402D01*
X35575977Y-54830345D01*
X35575975Y-54830342D01*
X35532814Y-54787181D01*
X35499329Y-54725858D01*
X35504313Y-54656166D01*
X35546185Y-54600233D01*
X35611649Y-54575816D01*
X35620495Y-54575500D01*
X36439505Y-54575500D01*
X36506544Y-54595185D01*
X36552299Y-54647989D01*
X36562243Y-54717147D01*
X36533218Y-54780703D01*
X36527186Y-54787181D01*
X36484025Y-54830341D01*
X36484024Y-54830342D01*
X36369058Y-55002403D01*
X36289870Y-55193579D01*
X36289868Y-55193587D01*
X36249500Y-55396530D01*
X36249500Y-55603469D01*
X36289868Y-55806412D01*
X36289870Y-55806420D01*
X36355939Y-55965925D01*
X36369059Y-55997598D01*
X36400140Y-56044114D01*
X36484024Y-56169657D01*
X36630342Y-56315975D01*
X36630345Y-56315977D01*
X36802402Y-56430941D01*
X36993580Y-56510130D01*
X37196530Y-56550499D01*
X37196534Y-56550500D01*
X37196535Y-56550500D01*
X37403466Y-56550500D01*
X37403467Y-56550499D01*
X37606420Y-56510130D01*
X37797598Y-56430941D01*
X37969655Y-56315977D01*
X38115977Y-56169655D01*
X38230941Y-55997598D01*
X38310130Y-55806420D01*
X38350500Y-55603465D01*
X38350500Y-55396535D01*
X38310130Y-55193580D01*
X38249839Y-55048027D01*
X38242371Y-54978559D01*
X38273646Y-54916079D01*
X38276660Y-54912954D01*
X38567798Y-54621816D01*
X38629120Y-54588334D01*
X38655478Y-54585500D01*
X38969505Y-54585500D01*
X39036544Y-54605185D01*
X39082299Y-54657989D01*
X39092243Y-54727147D01*
X39063218Y-54790703D01*
X39057186Y-54797181D01*
X39024025Y-54830341D01*
X39024024Y-54830342D01*
X38909058Y-55002403D01*
X38829870Y-55193579D01*
X38829868Y-55193587D01*
X38789500Y-55396530D01*
X38789500Y-55603469D01*
X38829868Y-55806412D01*
X38829870Y-55806420D01*
X38895939Y-55965925D01*
X38909059Y-55997598D01*
X38940140Y-56044114D01*
X39024024Y-56169657D01*
X39170342Y-56315975D01*
X39170345Y-56315977D01*
X39342402Y-56430941D01*
X39533580Y-56510130D01*
X39736530Y-56550499D01*
X39736534Y-56550500D01*
X39736535Y-56550500D01*
X39943466Y-56550500D01*
X39943467Y-56550499D01*
X40146420Y-56510130D01*
X40337598Y-56430941D01*
X40509655Y-56315977D01*
X40655977Y-56169655D01*
X40770941Y-55997598D01*
X40839165Y-55832889D01*
X40883004Y-55778488D01*
X40949298Y-55756423D01*
X41016998Y-55773702D01*
X41064609Y-55824839D01*
X41071656Y-55842026D01*
X41128904Y-56018216D01*
X41225379Y-56207557D01*
X41350272Y-56379459D01*
X41350276Y-56379464D01*
X41500535Y-56529723D01*
X41500540Y-56529727D01*
X41672442Y-56654620D01*
X41840036Y-56740015D01*
X41890832Y-56787990D01*
X41907627Y-56855811D01*
X41885089Y-56921946D01*
X41830374Y-56965397D01*
X41783741Y-56974500D01*
X30276259Y-56974500D01*
X30209220Y-56954815D01*
X30163465Y-56902011D01*
X30153521Y-56832853D01*
X30182546Y-56769297D01*
X30219964Y-56740015D01*
X30387557Y-56654620D01*
X30559459Y-56529727D01*
X30559464Y-56529723D01*
X30709723Y-56379464D01*
X30709727Y-56379459D01*
X30834620Y-56207557D01*
X30931095Y-56018217D01*
X30988343Y-55842026D01*
X31027780Y-55784351D01*
X31092139Y-55757152D01*
X31160985Y-55769066D01*
X31212461Y-55816310D01*
X31220835Y-55832891D01*
X31275939Y-55965925D01*
X31289059Y-55997598D01*
X31320140Y-56044114D01*
X31404024Y-56169657D01*
X31550342Y-56315975D01*
X31550345Y-56315977D01*
X31722402Y-56430941D01*
X31913580Y-56510130D01*
X32116530Y-56550499D01*
X32116534Y-56550500D01*
X32116535Y-56550500D01*
X32323466Y-56550500D01*
X32323467Y-56550499D01*
X32526420Y-56510130D01*
X32717598Y-56430941D01*
X32889655Y-56315977D01*
X33035977Y-56169655D01*
X33150941Y-55997598D01*
X33230130Y-55806420D01*
X33270500Y-55603465D01*
X33270500Y-55396535D01*
X33230130Y-55193580D01*
X33150941Y-55002402D01*
X33035977Y-54830345D01*
X33035975Y-54830342D01*
X32992814Y-54787181D01*
X32959329Y-54725858D01*
X32964313Y-54656166D01*
X33006185Y-54600233D01*
X33071649Y-54575816D01*
X33080495Y-54575500D01*
X33899505Y-54575500D01*
X33966544Y-54595185D01*
G37*
%TD.AperFunction*%
%TA.AperFunction,Conductor*%
G36*
X37941562Y-32265185D02*
G01*
X37962204Y-32281819D01*
X38758181Y-33077796D01*
X38791666Y-33139119D01*
X38794500Y-33165477D01*
X38794500Y-49297121D01*
X38774815Y-49364160D01*
X38758181Y-49384802D01*
X36595803Y-51547181D01*
X36534480Y-51580666D01*
X36508122Y-51583500D01*
X30726199Y-51583500D01*
X30682470Y-51601614D01*
X30682468Y-51601614D01*
X30624943Y-51625440D01*
X30267104Y-51983279D01*
X30205781Y-52016764D01*
X30136089Y-52011780D01*
X30131970Y-52010159D01*
X29986420Y-51949870D01*
X29986412Y-51949868D01*
X29783469Y-51909500D01*
X29783465Y-51909500D01*
X29576535Y-51909500D01*
X29576530Y-51909500D01*
X29373587Y-51949868D01*
X29373579Y-51949870D01*
X29182403Y-52029058D01*
X29010342Y-52144024D01*
X28864024Y-52290342D01*
X28749058Y-52462403D01*
X28669870Y-52653579D01*
X28669868Y-52653587D01*
X28629500Y-52856530D01*
X28629500Y-53063469D01*
X28669868Y-53266412D01*
X28669870Y-53266420D01*
X28749056Y-53457592D01*
X28749059Y-53457598D01*
X28806541Y-53543626D01*
X28864024Y-53629657D01*
X29010342Y-53775975D01*
X29042403Y-53797397D01*
X29087208Y-53851009D01*
X29095916Y-53920334D01*
X29065762Y-53983362D01*
X29006320Y-54020081D01*
X28973513Y-54024500D01*
X28645478Y-54024500D01*
X28578439Y-54004815D01*
X28557797Y-53988181D01*
X28116720Y-53547104D01*
X28083235Y-53485781D01*
X28088219Y-53416089D01*
X28089823Y-53412011D01*
X28150130Y-53266420D01*
X28190500Y-53063465D01*
X28190500Y-52856535D01*
X28150130Y-52653580D01*
X28070941Y-52462402D01*
X27955977Y-52290345D01*
X27955975Y-52290342D01*
X27925305Y-52259672D01*
X27891820Y-52198349D01*
X27896804Y-52128657D01*
X27925303Y-52084311D01*
X27994557Y-52015058D01*
X27994556Y-52015058D01*
X30081539Y-49928075D01*
X30142858Y-49894593D01*
X30212550Y-49899577D01*
X30256897Y-49928078D01*
X30356441Y-50027622D01*
X30461300Y-50097686D01*
X30514085Y-50132956D01*
X30514086Y-50132956D01*
X30514087Y-50132957D01*
X30553766Y-50149392D01*
X30689249Y-50205512D01*
X30875197Y-50242499D01*
X30875201Y-50242500D01*
X30875202Y-50242500D01*
X31064799Y-50242500D01*
X31064800Y-50242499D01*
X31250751Y-50205512D01*
X31425915Y-50132956D01*
X31583558Y-50027622D01*
X31717622Y-49893558D01*
X31822956Y-49735915D01*
X31895512Y-49560751D01*
X31932500Y-49374798D01*
X31932500Y-49185202D01*
X31895512Y-48999249D01*
X31822956Y-48824085D01*
X31787686Y-48771300D01*
X31717622Y-48666441D01*
X31649888Y-48598707D01*
X31616403Y-48537384D01*
X31621387Y-48467692D01*
X31663259Y-48411759D01*
X31728723Y-48387342D01*
X31737632Y-48387026D01*
X32741807Y-48387740D01*
X32808830Y-48407472D01*
X32854547Y-48460309D01*
X32864441Y-48529474D01*
X32835371Y-48593009D01*
X32829398Y-48599421D01*
X32762377Y-48666442D01*
X32657042Y-48824087D01*
X32584488Y-48999248D01*
X32584486Y-48999256D01*
X32547500Y-49185197D01*
X32547500Y-49374802D01*
X32584486Y-49560743D01*
X32584488Y-49560751D01*
X32657042Y-49735912D01*
X32762377Y-49893558D01*
X32896441Y-50027622D01*
X33001300Y-50097686D01*
X33054085Y-50132956D01*
X33054086Y-50132956D01*
X33054087Y-50132957D01*
X33093766Y-50149392D01*
X33229249Y-50205512D01*
X33415197Y-50242499D01*
X33415201Y-50242500D01*
X33415202Y-50242500D01*
X33604799Y-50242500D01*
X33604800Y-50242499D01*
X33790751Y-50205512D01*
X33965915Y-50132956D01*
X34123558Y-50027622D01*
X34257622Y-49893558D01*
X34362956Y-49735915D01*
X34435512Y-49560751D01*
X34472500Y-49374798D01*
X34472500Y-49185202D01*
X34435512Y-48999249D01*
X34362956Y-48824085D01*
X34327686Y-48771300D01*
X34257622Y-48666441D01*
X34191696Y-48600515D01*
X34158211Y-48539192D01*
X34163195Y-48469500D01*
X34205067Y-48413567D01*
X34270531Y-48389150D01*
X34279440Y-48388834D01*
X35280002Y-48389545D01*
X35347025Y-48409277D01*
X35392742Y-48462114D01*
X35402636Y-48531279D01*
X35373566Y-48594814D01*
X35367593Y-48601226D01*
X35302377Y-48666442D01*
X35197042Y-48824087D01*
X35124488Y-48999248D01*
X35124486Y-48999256D01*
X35087500Y-49185197D01*
X35087500Y-49374802D01*
X35124486Y-49560743D01*
X35124488Y-49560751D01*
X35197042Y-49735912D01*
X35302377Y-49893558D01*
X35436441Y-50027622D01*
X35541300Y-50097686D01*
X35594085Y-50132956D01*
X35594086Y-50132956D01*
X35594087Y-50132957D01*
X35633766Y-50149392D01*
X35769249Y-50205512D01*
X35955197Y-50242499D01*
X35955201Y-50242500D01*
X35955202Y-50242500D01*
X36144799Y-50242500D01*
X36144800Y-50242499D01*
X36330751Y-50205512D01*
X36505915Y-50132956D01*
X36663558Y-50027622D01*
X36797622Y-49893558D01*
X36902956Y-49735915D01*
X36975512Y-49560751D01*
X37012500Y-49374798D01*
X37012500Y-49185202D01*
X36975512Y-48999249D01*
X36902956Y-48824085D01*
X36867686Y-48771300D01*
X36797622Y-48666441D01*
X36694075Y-48562894D01*
X36660590Y-48501571D01*
X36665574Y-48431879D01*
X36683797Y-48399186D01*
X36705055Y-48371794D01*
X36733453Y-48360057D01*
X36733458Y-48360051D01*
X36733465Y-48360049D01*
X36764053Y-48329500D01*
X36789895Y-48303695D01*
X36789897Y-48303688D01*
X36789903Y-48303683D01*
X36805736Y-48265526D01*
X36820471Y-48230025D01*
X36820471Y-48230018D01*
X36820474Y-48230011D01*
X36820500Y-48189118D01*
X36820528Y-48150261D01*
X36820527Y-48150259D01*
X36820536Y-48137673D01*
X36820533Y-48137633D01*
X36825899Y-39772438D01*
X36830470Y-32647444D01*
X36830490Y-32647256D01*
X36830497Y-32604314D01*
X36830497Y-32604252D01*
X36830529Y-32555290D01*
X36830506Y-32555180D01*
X36830507Y-32555177D01*
X36799996Y-32481479D01*
X36775691Y-32457165D01*
X36742217Y-32395836D01*
X36747214Y-32326145D01*
X36789096Y-32270219D01*
X36854564Y-32245814D01*
X36863388Y-32245500D01*
X37874523Y-32245500D01*
X37941562Y-32265185D01*
G37*
%TD.AperFunction*%
%TA.AperFunction,Conductor*%
G36*
X31343207Y-52154185D02*
G01*
X31388962Y-52206989D01*
X31398906Y-52276147D01*
X31379270Y-52327390D01*
X31289059Y-52462400D01*
X31209870Y-52653579D01*
X31209868Y-52653587D01*
X31169500Y-52856530D01*
X31169500Y-53063469D01*
X31209868Y-53266412D01*
X31209870Y-53266420D01*
X31289056Y-53457592D01*
X31289059Y-53457598D01*
X31346541Y-53543626D01*
X31404024Y-53629657D01*
X31550342Y-53775975D01*
X31582403Y-53797397D01*
X31627208Y-53851009D01*
X31635916Y-53920334D01*
X31605762Y-53983362D01*
X31546320Y-54020081D01*
X31513513Y-54024500D01*
X30386487Y-54024500D01*
X30319448Y-54004815D01*
X30273693Y-53952011D01*
X30263749Y-53882853D01*
X30292774Y-53819297D01*
X30317597Y-53797397D01*
X30349655Y-53775977D01*
X30495977Y-53629655D01*
X30610941Y-53457598D01*
X30690130Y-53266420D01*
X30730500Y-53063465D01*
X30730500Y-52856535D01*
X30690130Y-52653580D01*
X30629839Y-52508027D01*
X30622371Y-52438559D01*
X30653646Y-52376079D01*
X30656659Y-52372955D01*
X30858798Y-52170816D01*
X30920121Y-52137334D01*
X30946478Y-52134500D01*
X31276168Y-52134500D01*
X31343207Y-52154185D01*
G37*
%TD.AperFunction*%
%TA.AperFunction,Conductor*%
G36*
X36240985Y-53229066D02*
G01*
X36292461Y-53276310D01*
X36300835Y-53292891D01*
X36369056Y-53457592D01*
X36369059Y-53457598D01*
X36426541Y-53543626D01*
X36484024Y-53629657D01*
X36630342Y-53775975D01*
X36662403Y-53797397D01*
X36707208Y-53851009D01*
X36715916Y-53920334D01*
X36685762Y-53983362D01*
X36626320Y-54020081D01*
X36593513Y-54024500D01*
X35898651Y-54024500D01*
X35831612Y-54004815D01*
X35785857Y-53952011D01*
X35775913Y-53882853D01*
X35798333Y-53827615D01*
X35914620Y-53667557D01*
X36011095Y-53478217D01*
X36068343Y-53302026D01*
X36107780Y-53244351D01*
X36172139Y-53217152D01*
X36240985Y-53229066D01*
G37*
%TD.AperFunction*%
%TA.AperFunction,Conductor*%
G36*
X25127220Y-48382325D02*
G01*
X25194245Y-48402057D01*
X25239962Y-48454894D01*
X25249856Y-48524059D01*
X25220786Y-48587594D01*
X25214813Y-48594006D01*
X25142377Y-48666442D01*
X25037042Y-48824087D01*
X24964488Y-48999248D01*
X24964486Y-48999256D01*
X24927500Y-49185197D01*
X24927500Y-49374802D01*
X24964486Y-49560743D01*
X24964488Y-49560751D01*
X25037042Y-49735912D01*
X25142377Y-49893558D01*
X25276441Y-50027622D01*
X25381300Y-50097686D01*
X25434085Y-50132956D01*
X25434086Y-50132956D01*
X25434087Y-50132957D01*
X25473766Y-50149392D01*
X25609249Y-50205512D01*
X25795197Y-50242499D01*
X25795201Y-50242500D01*
X25795202Y-50242500D01*
X25984799Y-50242500D01*
X25984800Y-50242499D01*
X26170751Y-50205512D01*
X26345915Y-50132956D01*
X26503558Y-50027622D01*
X26637622Y-49893558D01*
X26742956Y-49735915D01*
X26815512Y-49560751D01*
X26852500Y-49374798D01*
X26852500Y-49185202D01*
X26815512Y-48999249D01*
X26742956Y-48824085D01*
X26707686Y-48771300D01*
X26637622Y-48666441D01*
X26566273Y-48595092D01*
X26532788Y-48533769D01*
X26537772Y-48464077D01*
X26579644Y-48408144D01*
X26645108Y-48383727D01*
X26654029Y-48383411D01*
X27665415Y-48384130D01*
X27732440Y-48403862D01*
X27778157Y-48456699D01*
X27788051Y-48525864D01*
X27758981Y-48589399D01*
X27753008Y-48595811D01*
X27682377Y-48666442D01*
X27577042Y-48824087D01*
X27504488Y-48999248D01*
X27504486Y-48999256D01*
X27467500Y-49185197D01*
X27467500Y-49374802D01*
X27504486Y-49560743D01*
X27504488Y-49560751D01*
X27577042Y-49735912D01*
X27682377Y-49893558D01*
X27816441Y-50027622D01*
X27921300Y-50097686D01*
X27974085Y-50132956D01*
X27974086Y-50132956D01*
X27974087Y-50132957D01*
X28013766Y-50149392D01*
X28149249Y-50205512D01*
X28335197Y-50242499D01*
X28335201Y-50242500D01*
X28335202Y-50242500D01*
X28524799Y-50242500D01*
X28524799Y-50242499D01*
X28701952Y-50207262D01*
X28771542Y-50213489D01*
X28826719Y-50256352D01*
X28849964Y-50322242D01*
X28833896Y-50390239D01*
X28813823Y-50416560D01*
X27683204Y-51547181D01*
X27621881Y-51580666D01*
X27595523Y-51583500D01*
X26629149Y-51583500D01*
X26557546Y-51613159D01*
X26527900Y-51625440D01*
X26527890Y-51625444D01*
X25805444Y-52347890D01*
X25805442Y-52347893D01*
X25759035Y-52459926D01*
X25715193Y-52514328D01*
X25648899Y-52536392D01*
X25581200Y-52519112D01*
X25533590Y-52467974D01*
X25531659Y-52463745D01*
X25530944Y-52462407D01*
X25530939Y-52462400D01*
X25415977Y-52290345D01*
X25415975Y-52290342D01*
X25269657Y-52144024D01*
X25136191Y-52054846D01*
X25097598Y-52029059D01*
X25067915Y-52016764D01*
X24906420Y-51949870D01*
X24906414Y-51949868D01*
X24801784Y-51929056D01*
X24739874Y-51896671D01*
X24705299Y-51835955D01*
X24709039Y-51766186D01*
X24749906Y-51709514D01*
X24767194Y-51699465D01*
X24766847Y-51698863D01*
X24773886Y-51694799D01*
X24876613Y-51635489D01*
X24960489Y-51551613D01*
X25019799Y-51448886D01*
X25050500Y-51334309D01*
X25050500Y-51215691D01*
X25019799Y-51101114D01*
X24960489Y-50998387D01*
X24876613Y-50914511D01*
X24773886Y-50855201D01*
X24659309Y-50824500D01*
X24540691Y-50824500D01*
X24426114Y-50855201D01*
X24426112Y-50855201D01*
X24426112Y-50855202D01*
X24323387Y-50914511D01*
X24323384Y-50914513D01*
X24239513Y-50998384D01*
X24239511Y-50998387D01*
X24180201Y-51101114D01*
X24149500Y-51215691D01*
X24149500Y-51334309D01*
X24180201Y-51448886D01*
X24239511Y-51551613D01*
X24323387Y-51635489D01*
X24426114Y-51694799D01*
X24433153Y-51698863D01*
X24431802Y-51701201D01*
X24475875Y-51736713D01*
X24497944Y-51803006D01*
X24480669Y-51870706D01*
X24429534Y-51918320D01*
X24398215Y-51929056D01*
X24293585Y-51949868D01*
X24293579Y-51949870D01*
X24102403Y-52029058D01*
X23930342Y-52144024D01*
X23930341Y-52144025D01*
X23817181Y-52257186D01*
X23755858Y-52290671D01*
X23686166Y-52285687D01*
X23630233Y-52243815D01*
X23605816Y-52178351D01*
X23605500Y-52169505D01*
X23605500Y-50775202D01*
X23605500Y-50775200D01*
X23575841Y-50703599D01*
X23563557Y-50673941D01*
X23563555Y-50673939D01*
X23563555Y-50673938D01*
X23561819Y-50672202D01*
X23559240Y-50667479D01*
X23556770Y-50663782D01*
X23557100Y-50663561D01*
X23528334Y-50610879D01*
X23525500Y-50584521D01*
X23525500Y-50328211D01*
X23545185Y-50261172D01*
X23597989Y-50215417D01*
X23625310Y-50206594D01*
X23630751Y-50205512D01*
X23805915Y-50132956D01*
X23963558Y-50027622D01*
X24097622Y-49893558D01*
X24202956Y-49735915D01*
X24275512Y-49560751D01*
X24312500Y-49374798D01*
X24312500Y-49185202D01*
X24275512Y-48999249D01*
X24202956Y-48824085D01*
X24167686Y-48771300D01*
X24097622Y-48666441D01*
X24024465Y-48593284D01*
X23990980Y-48531961D01*
X23995964Y-48462269D01*
X24037836Y-48406336D01*
X24103300Y-48381919D01*
X24112221Y-48381603D01*
X25127220Y-48382325D01*
G37*
%TD.AperFunction*%
%TA.AperFunction,Conductor*%
G36*
X34953039Y-52154185D02*
G01*
X34998794Y-52206989D01*
X35010000Y-52258500D01*
X35010000Y-52526988D01*
X34952993Y-52494075D01*
X34825826Y-52460000D01*
X34694174Y-52460000D01*
X34567007Y-52494075D01*
X34510000Y-52526988D01*
X34510000Y-52258500D01*
X34529685Y-52191461D01*
X34582489Y-52145706D01*
X34634000Y-52134500D01*
X34886000Y-52134500D01*
X34953039Y-52154185D01*
G37*
%TD.AperFunction*%
%TA.AperFunction,Conductor*%
G36*
X37911562Y-30595185D02*
G01*
X37932204Y-30611819D01*
X39888181Y-32567796D01*
X39921666Y-32629119D01*
X39924500Y-32655477D01*
X39924500Y-50134522D01*
X39904815Y-50201561D01*
X39888181Y-50222203D01*
X38244942Y-51865443D01*
X38167444Y-51942940D01*
X38167443Y-51942941D01*
X38167443Y-51942942D01*
X38138929Y-52011780D01*
X38120826Y-52055484D01*
X38119287Y-52054846D01*
X38093507Y-52104128D01*
X38032790Y-52138700D01*
X37963021Y-52134959D01*
X37935387Y-52121126D01*
X37874638Y-52080535D01*
X37797598Y-52029059D01*
X37767915Y-52016764D01*
X37606420Y-51949870D01*
X37606412Y-51949868D01*
X37403469Y-51909500D01*
X37403465Y-51909500D01*
X37312075Y-51909500D01*
X37245036Y-51889815D01*
X37199281Y-51837011D01*
X37189337Y-51767853D01*
X37218362Y-51704297D01*
X37224394Y-51697819D01*
X37473327Y-51448886D01*
X39303558Y-49618657D01*
X39303558Y-49618655D01*
X39303560Y-49618654D01*
X39327543Y-49560751D01*
X39345500Y-49517399D01*
X39345500Y-49407799D01*
X39345500Y-32945200D01*
X39303557Y-32843942D01*
X39226058Y-32766443D01*
X38196058Y-31736443D01*
X38094800Y-31694500D01*
X37136500Y-31694500D01*
X37069461Y-31674815D01*
X37023706Y-31622011D01*
X37012500Y-31570500D01*
X37012500Y-31405201D01*
X37012499Y-31405197D01*
X36979172Y-31237649D01*
X36975512Y-31219249D01*
X36902956Y-31044085D01*
X36867686Y-30991300D01*
X36797622Y-30886441D01*
X36698362Y-30787181D01*
X36664877Y-30725858D01*
X36669861Y-30656166D01*
X36711733Y-30600233D01*
X36777197Y-30575816D01*
X36786043Y-30575500D01*
X37844523Y-30575500D01*
X37911562Y-30595185D01*
G37*
%TD.AperFunction*%
%TA.AperFunction,Conductor*%
G36*
X30203612Y-48385935D02*
G01*
X30270635Y-48405667D01*
X30316352Y-48458504D01*
X30326246Y-48527669D01*
X30297176Y-48591204D01*
X30291203Y-48597616D01*
X30222377Y-48666442D01*
X30117042Y-48824087D01*
X30044488Y-48999248D01*
X30044486Y-48999256D01*
X30006311Y-49191177D01*
X30004518Y-49190820D01*
X29981552Y-49247658D01*
X29972009Y-49258374D01*
X29566560Y-49663823D01*
X29505237Y-49697308D01*
X29435545Y-49692324D01*
X29379612Y-49650452D01*
X29355195Y-49584988D01*
X29357261Y-49551954D01*
X29392500Y-49374798D01*
X29392500Y-49185202D01*
X29355512Y-48999249D01*
X29282956Y-48824085D01*
X29247686Y-48771300D01*
X29177622Y-48666441D01*
X29108080Y-48596899D01*
X29074595Y-48535576D01*
X29079579Y-48465884D01*
X29121451Y-48409951D01*
X29186915Y-48385534D01*
X29195824Y-48385218D01*
X30203612Y-48385935D01*
G37*
%TD.AperFunction*%
%TA.AperFunction,Conductor*%
G36*
X35380996Y-30595185D02*
G01*
X35426751Y-30647989D01*
X35436695Y-30717147D01*
X35407670Y-30780703D01*
X35401638Y-30787181D01*
X35302380Y-30886438D01*
X35302377Y-30886441D01*
X35197042Y-31044087D01*
X35124488Y-31219248D01*
X35124486Y-31219256D01*
X35087500Y-31405197D01*
X35087500Y-31594802D01*
X35124486Y-31780743D01*
X35124488Y-31780751D01*
X35197042Y-31955912D01*
X35302377Y-32113558D01*
X35371419Y-32182600D01*
X35404904Y-32243923D01*
X35399920Y-32313615D01*
X35358048Y-32369548D01*
X35292584Y-32393965D01*
X35283716Y-32394281D01*
X34276418Y-32394102D01*
X34209382Y-32374406D01*
X34163636Y-32321593D01*
X34153705Y-32252433D01*
X34182741Y-32188883D01*
X34188745Y-32182434D01*
X34257622Y-32113558D01*
X34362956Y-31955915D01*
X34435512Y-31780751D01*
X34472500Y-31594798D01*
X34472500Y-31405202D01*
X34435512Y-31219249D01*
X34362956Y-31044085D01*
X34327686Y-30991300D01*
X34257622Y-30886441D01*
X34158362Y-30787181D01*
X34124877Y-30725858D01*
X34129861Y-30656166D01*
X34171733Y-30600233D01*
X34237197Y-30575816D01*
X34246043Y-30575500D01*
X35313957Y-30575500D01*
X35380996Y-30595185D01*
G37*
%TD.AperFunction*%
%TA.AperFunction,Conductor*%
G36*
X33212562Y-29995185D02*
G01*
X33258317Y-30047989D01*
X33268261Y-30117147D01*
X33239236Y-30180703D01*
X33233204Y-30187181D01*
X33176444Y-30243940D01*
X33134500Y-30345199D01*
X33134500Y-30530881D01*
X33114815Y-30597920D01*
X33062011Y-30643675D01*
X33057955Y-30645441D01*
X33054085Y-30647043D01*
X32896441Y-30752377D01*
X32762377Y-30886441D01*
X32657042Y-31044087D01*
X32584488Y-31219248D01*
X32584486Y-31219256D01*
X32547500Y-31405197D01*
X32547500Y-31594802D01*
X32584486Y-31780743D01*
X32584488Y-31780751D01*
X32657042Y-31955912D01*
X32762377Y-32113558D01*
X32830966Y-32182147D01*
X32864451Y-32243470D01*
X32859467Y-32313162D01*
X32817595Y-32369095D01*
X32752131Y-32393512D01*
X32743263Y-32393828D01*
X31736871Y-32393649D01*
X31669835Y-32373953D01*
X31624089Y-32321140D01*
X31614158Y-32251980D01*
X31643194Y-32188430D01*
X31649198Y-32181981D01*
X31717622Y-32113558D01*
X31822956Y-31955915D01*
X31895512Y-31780751D01*
X31932500Y-31594798D01*
X31932500Y-31405202D01*
X31895512Y-31219249D01*
X31822956Y-31044085D01*
X31796408Y-31004354D01*
X31775531Y-30937677D01*
X31794016Y-30870297D01*
X31811825Y-30847788D01*
X32647797Y-30011819D01*
X32709120Y-29978334D01*
X32735478Y-29975500D01*
X33145523Y-29975500D01*
X33212562Y-29995185D01*
G37*
%TD.AperFunction*%
%TA.AperFunction,Conductor*%
G36*
X31972561Y-29695185D02*
G01*
X32018316Y-29747989D01*
X32028260Y-29817147D01*
X31999235Y-29880703D01*
X31993203Y-29887181D01*
X31343612Y-30536770D01*
X31282289Y-30570255D01*
X31231740Y-30570706D01*
X31064802Y-30537500D01*
X31064798Y-30537500D01*
X30875202Y-30537500D01*
X30875197Y-30537500D01*
X30689256Y-30574486D01*
X30689248Y-30574488D01*
X30514087Y-30647042D01*
X30356441Y-30752377D01*
X30222377Y-30886441D01*
X30117042Y-31044087D01*
X30044488Y-31219248D01*
X30044486Y-31219256D01*
X30007500Y-31405197D01*
X30007500Y-31594802D01*
X30044486Y-31780743D01*
X30044488Y-31780751D01*
X30117042Y-31955912D01*
X30222377Y-32113558D01*
X30290512Y-32181693D01*
X30323997Y-32243016D01*
X30319013Y-32312708D01*
X30277141Y-32368641D01*
X30211677Y-32393058D01*
X30202809Y-32393374D01*
X29197325Y-32393195D01*
X29130289Y-32373499D01*
X29084543Y-32320686D01*
X29074612Y-32251526D01*
X29103649Y-32187976D01*
X29109652Y-32181527D01*
X29177622Y-32113558D01*
X29282956Y-31955915D01*
X29355512Y-31780751D01*
X29392500Y-31594798D01*
X29392500Y-31405202D01*
X29355512Y-31219249D01*
X29282956Y-31044085D01*
X29256408Y-31004354D01*
X29235531Y-30937677D01*
X29254016Y-30870297D01*
X29271825Y-30847788D01*
X30407797Y-29711819D01*
X30469120Y-29678334D01*
X30495478Y-29675500D01*
X31905522Y-29675500D01*
X31972561Y-29695185D01*
G37*
%TD.AperFunction*%
%TD*%
M02*
