%TF.GenerationSoftware,KiCad,Pcbnew,9.0.4*%
%TF.CreationDate,2026-03-05T19:36:07-05:00*%
%TF.ProjectId,seedsigner-luckfox-pico-mini,73656564-7369-4676-9e65-722d6c75636b,sdfsdf*%
%TF.SameCoordinates,Original*%
%TF.FileFunction,Soldermask,Top*%
%TF.FilePolarity,Negative*%
%FSLAX46Y46*%
G04 Gerber Fmt 4.6, Leading zero omitted, Abs format (unit mm)*
G04 Created by KiCad (PCBNEW 9.0.4) date 2026-03-05 19:36:07*
%MOMM*%
%LPD*%
G01*
G04 APERTURE LIST*
G04 Aperture macros list*
%AMFreePoly0*
4,1,33,0.221197,0.729189,0.359204,0.672024,0.483408,0.589034,0.589034,0.483408,0.672024,0.359204,0.729189,0.221197,0.758331,0.074689,0.758331,-0.074689,0.729189,-0.221197,0.672024,-0.359204,0.589034,-0.483408,0.483408,-0.589034,0.359204,-0.672024,0.221197,-0.729189,0.074689,-0.758331,-0.074689,-0.758331,-0.221197,-0.729189,-0.359204,-0.672024,-0.483408,-0.589034,-0.589034,-0.483408,
-0.672024,-0.359204,-0.729189,-0.221197,-0.758331,-0.074689,-0.758331,0.074689,-0.729189,0.221197,-0.672024,0.359204,-0.589034,0.483408,-0.483408,0.589034,-0.359204,0.672024,-0.221197,0.729189,-0.074689,0.758331,0.074689,0.758331,0.221197,0.729189,0.221197,0.729189,$1*%
G04 Aperture macros list end*
%ADD10C,1.524000*%
%ADD11FreePoly0,90.000000*%
%ADD12C,3.500000*%
%ADD13R,1.700000X1.700000*%
%ADD14O,1.700000X1.700000*%
G04 APERTURE END LIST*
D10*
%TO.C,U1*%
X9550000Y-49750000D03*
X12090000Y-49750000D03*
X14630000Y-49750000D03*
X17170000Y-49750000D03*
X19710000Y-49750000D03*
X22250000Y-49750000D03*
X24790000Y-49750000D03*
X27330000Y-49750000D03*
X29870000Y-49750000D03*
X32410000Y-49750000D03*
X34950000Y-49750000D03*
X34950000Y-31970000D03*
X32410000Y-31970000D03*
X29870000Y-31970000D03*
X27330000Y-31970000D03*
X24790000Y-31970000D03*
X22250000Y-31970000D03*
X19710000Y-31970000D03*
X17170000Y-31970000D03*
X14630000Y-31970000D03*
X12090000Y-31970000D03*
D11*
X9550000Y-31970000D03*
%TD*%
D12*
%TO.C,U2*%
X70000000Y-55500000D03*
X70000000Y-31500000D03*
X12000000Y-55500000D03*
D13*
X65240000Y-52960000D03*
D14*
X65240000Y-55500000D03*
X62700000Y-52960000D03*
X62700000Y-55500000D03*
X60160000Y-52960000D03*
X60160000Y-55500000D03*
X57620000Y-52960000D03*
X57620000Y-55500000D03*
X55080000Y-52960000D03*
X55080000Y-55500000D03*
X52540000Y-52960000D03*
X52540000Y-55500000D03*
X50000000Y-52960000D03*
X50000000Y-55500000D03*
X47460000Y-52960000D03*
X47460000Y-55500000D03*
X44920000Y-52960000D03*
X44920000Y-55500000D03*
X42380000Y-52960000D03*
X42380000Y-55500000D03*
X39840000Y-52960000D03*
X39840000Y-55500000D03*
X37300000Y-52960000D03*
X37300000Y-55500000D03*
X34760000Y-52960000D03*
X34760000Y-55500000D03*
X32220000Y-52960000D03*
X32220000Y-55500000D03*
X29680000Y-52960000D03*
X29680000Y-55500000D03*
X27140000Y-52960000D03*
X27140000Y-55500000D03*
X24600000Y-52960000D03*
X24600000Y-55500000D03*
X22060000Y-52960000D03*
X22060000Y-55500000D03*
X19520000Y-52960000D03*
X19520000Y-55500000D03*
X16980000Y-52960000D03*
X16980000Y-55500000D03*
%TD*%
M02*
