%TF.GenerationSoftware,KiCad,Pcbnew,10.0.5*%
%TF.CreationDate,2026-07-27T20:54:21-06:00*%
%TF.ProjectId,seedsigner-luckfox-pico-mini,73656564-7369-4676-9e65-722d6c75636b,sdfsdf*%
%TF.SameCoordinates,Original*%
%TF.FileFunction,Legend,Top*%
%TF.FilePolarity,Positive*%
%FSLAX46Y46*%
G04 Gerber Fmt 4.6, Leading zero omitted, Abs format (unit mm)*
G04 Created by KiCad (PCBNEW 10.0.5) date 2026-07-27 20:54:21*
%MOMM*%
%LPD*%
G01*
G04 APERTURE LIST*
G04 Aperture macros list*
%AMFreePoly0*
4,1,33,0.221197,0.729189,0.359204,0.672024,0.483408,0.589034,0.589034,0.483408,0.672024,0.359204,0.729189,0.221197,0.758331,0.074689,0.758331,-0.074689,0.729189,-0.221197,0.672024,-0.359204,0.589034,-0.483408,0.483408,-0.589034,0.359204,-0.672024,0.221197,-0.729189,0.074689,-0.758331,-0.074689,-0.758331,-0.221197,-0.729189,-0.359204,-0.672024,-0.483408,-0.589034,-0.589034,-0.483408,
-0.672024,-0.359204,-0.729189,-0.221197,-0.758331,-0.074689,-0.758331,0.074689,-0.729189,0.221197,-0.672024,0.359204,-0.589034,0.483408,-0.483408,0.589034,-0.359204,0.672024,-0.221197,0.729189,-0.074689,0.758331,0.074689,0.758331,0.221197,0.729189,0.221197,0.729189,$1*%
G04 Aperture macros list end*
%ADD10C,0.704401*%
%ADD11C,0.100000*%
%ADD12C,0.200000*%
%ADD13C,0.300000*%
%ADD14C,0.375000*%
%ADD15C,0.250000*%
%ADD16C,0.120000*%
%ADD17C,0.500000*%
%ADD18C,1.250000*%
%ADD19C,1.524000*%
%ADD20FreePoly0,90.000000*%
%ADD21C,3.500000*%
%ADD22R,1.700000X1.700000*%
%ADD23O,1.700000X1.700000*%
G04 APERTURE END LIST*
D10*
X9772200Y-52410000D02*
G75*
G02*
X9067800Y-52410000I-352200J0D01*
G01*
X9067800Y-52410000D02*
G75*
G02*
X9772200Y-52410000I352200J0D01*
G01*
D11*
X13930000Y-53880000D02*
X20760000Y-53880000D01*
X20760000Y-58250000D01*
X13930000Y-58250000D01*
X13930000Y-53880000D01*
X15069133Y-58127544D02*
X14369133Y-58127544D01*
X14369133Y-58127544D02*
X14869133Y-57894211D01*
X14869133Y-57894211D02*
X14369133Y-57660877D01*
X14369133Y-57660877D02*
X15069133Y-57660877D01*
X15069133Y-57027544D02*
X14702466Y-57027544D01*
X14702466Y-57027544D02*
X14635800Y-57060877D01*
X14635800Y-57060877D02*
X14602466Y-57127544D01*
X14602466Y-57127544D02*
X14602466Y-57260877D01*
X14602466Y-57260877D02*
X14635800Y-57327544D01*
X15035800Y-57027544D02*
X15069133Y-57094211D01*
X15069133Y-57094211D02*
X15069133Y-57260877D01*
X15069133Y-57260877D02*
X15035800Y-57327544D01*
X15035800Y-57327544D02*
X14969133Y-57360877D01*
X14969133Y-57360877D02*
X14902466Y-57360877D01*
X14902466Y-57360877D02*
X14835800Y-57327544D01*
X14835800Y-57327544D02*
X14802466Y-57260877D01*
X14802466Y-57260877D02*
X14802466Y-57094211D01*
X14802466Y-57094211D02*
X14769133Y-57027544D01*
X15069133Y-56760878D02*
X14602466Y-56394211D01*
X14602466Y-56760878D02*
X15069133Y-56394211D01*
X15069133Y-55227544D02*
X15069133Y-55627544D01*
X15069133Y-55427544D02*
X14369133Y-55427544D01*
X14369133Y-55427544D02*
X14469133Y-55494211D01*
X14469133Y-55494211D02*
X14535800Y-55560878D01*
X14535800Y-55560878D02*
X14569133Y-55627544D01*
X14602466Y-54994211D02*
X15069133Y-54827544D01*
X15069133Y-54827544D02*
X14602466Y-54660877D01*
X14669133Y-54294211D02*
X14635800Y-54360878D01*
X14635800Y-54360878D02*
X14602466Y-54394211D01*
X14602466Y-54394211D02*
X14535800Y-54427544D01*
X14535800Y-54427544D02*
X14502466Y-54427544D01*
X14502466Y-54427544D02*
X14435800Y-54394211D01*
X14435800Y-54394211D02*
X14402466Y-54360878D01*
X14402466Y-54360878D02*
X14369133Y-54294211D01*
X14369133Y-54294211D02*
X14369133Y-54160878D01*
X14369133Y-54160878D02*
X14402466Y-54094211D01*
X14402466Y-54094211D02*
X14435800Y-54060878D01*
X14435800Y-54060878D02*
X14502466Y-54027544D01*
X14502466Y-54027544D02*
X14535800Y-54027544D01*
X14535800Y-54027544D02*
X14602466Y-54060878D01*
X14602466Y-54060878D02*
X14635800Y-54094211D01*
X14635800Y-54094211D02*
X14669133Y-54160878D01*
X14669133Y-54160878D02*
X14669133Y-54294211D01*
X14669133Y-54294211D02*
X14702466Y-54360878D01*
X14702466Y-54360878D02*
X14735800Y-54394211D01*
X14735800Y-54394211D02*
X14802466Y-54427544D01*
X14802466Y-54427544D02*
X14935800Y-54427544D01*
X14935800Y-54427544D02*
X15002466Y-54394211D01*
X15002466Y-54394211D02*
X15035800Y-54360878D01*
X15035800Y-54360878D02*
X15069133Y-54294211D01*
X15069133Y-54294211D02*
X15069133Y-54160878D01*
X15069133Y-54160878D02*
X15035800Y-54094211D01*
X15035800Y-54094211D02*
X15002466Y-54060878D01*
X15002466Y-54060878D02*
X14935800Y-54027544D01*
X14935800Y-54027544D02*
X14802466Y-54027544D01*
X14802466Y-54027544D02*
X14735800Y-54060878D01*
X14735800Y-54060878D02*
X14702466Y-54094211D01*
X14702466Y-54094211D02*
X14669133Y-54160878D01*
X16056265Y-57896895D02*
X16056265Y-57096895D01*
X16513408Y-57896895D02*
X16170550Y-57439752D01*
X16513408Y-57096895D02*
X16056265Y-57554038D01*
X17275312Y-57896895D02*
X16818169Y-57896895D01*
X17046741Y-57896895D02*
X17046741Y-57096895D01*
X17046741Y-57096895D02*
X16970550Y-57211180D01*
X16970550Y-57211180D02*
X16894360Y-57287371D01*
X16894360Y-57287371D02*
X16818169Y-57325466D01*
X18837218Y-57896895D02*
X18837218Y-57096895D01*
X19294361Y-57896895D02*
X18951503Y-57439752D01*
X19294361Y-57096895D02*
X18837218Y-57554038D01*
X19599122Y-57173085D02*
X19637218Y-57134990D01*
X19637218Y-57134990D02*
X19713408Y-57096895D01*
X19713408Y-57096895D02*
X19903884Y-57096895D01*
X19903884Y-57096895D02*
X19980075Y-57134990D01*
X19980075Y-57134990D02*
X20018170Y-57173085D01*
X20018170Y-57173085D02*
X20056265Y-57249276D01*
X20056265Y-57249276D02*
X20056265Y-57325466D01*
X20056265Y-57325466D02*
X20018170Y-57439752D01*
X20018170Y-57439752D02*
X19561027Y-57896895D01*
X19561027Y-57896895D02*
X20056265Y-57896895D01*
X21618171Y-57896895D02*
X21618171Y-57096895D01*
X22075314Y-57896895D02*
X21732456Y-57439752D01*
X22075314Y-57096895D02*
X21618171Y-57554038D01*
X22341980Y-57096895D02*
X22837218Y-57096895D01*
X22837218Y-57096895D02*
X22570552Y-57401657D01*
X22570552Y-57401657D02*
X22684837Y-57401657D01*
X22684837Y-57401657D02*
X22761028Y-57439752D01*
X22761028Y-57439752D02*
X22799123Y-57477847D01*
X22799123Y-57477847D02*
X22837218Y-57554038D01*
X22837218Y-57554038D02*
X22837218Y-57744514D01*
X22837218Y-57744514D02*
X22799123Y-57820704D01*
X22799123Y-57820704D02*
X22761028Y-57858800D01*
X22761028Y-57858800D02*
X22684837Y-57896895D01*
X22684837Y-57896895D02*
X22456266Y-57896895D01*
X22456266Y-57896895D02*
X22380075Y-57858800D01*
X22380075Y-57858800D02*
X22341980Y-57820704D01*
X24818171Y-57134990D02*
X24741981Y-57096895D01*
X24741981Y-57096895D02*
X24627695Y-57096895D01*
X24627695Y-57096895D02*
X24513409Y-57134990D01*
X24513409Y-57134990D02*
X24437219Y-57211180D01*
X24437219Y-57211180D02*
X24399124Y-57287371D01*
X24399124Y-57287371D02*
X24361028Y-57439752D01*
X24361028Y-57439752D02*
X24361028Y-57554038D01*
X24361028Y-57554038D02*
X24399124Y-57706419D01*
X24399124Y-57706419D02*
X24437219Y-57782609D01*
X24437219Y-57782609D02*
X24513409Y-57858800D01*
X24513409Y-57858800D02*
X24627695Y-57896895D01*
X24627695Y-57896895D02*
X24703886Y-57896895D01*
X24703886Y-57896895D02*
X24818171Y-57858800D01*
X24818171Y-57858800D02*
X24856267Y-57820704D01*
X24856267Y-57820704D02*
X24856267Y-57554038D01*
X24856267Y-57554038D02*
X24703886Y-57554038D01*
X17005312Y-50754990D02*
X16929122Y-50716895D01*
X16929122Y-50716895D02*
X16814836Y-50716895D01*
X16814836Y-50716895D02*
X16700550Y-50754990D01*
X16700550Y-50754990D02*
X16624360Y-50831180D01*
X16624360Y-50831180D02*
X16586265Y-50907371D01*
X16586265Y-50907371D02*
X16548169Y-51059752D01*
X16548169Y-51059752D02*
X16548169Y-51174038D01*
X16548169Y-51174038D02*
X16586265Y-51326419D01*
X16586265Y-51326419D02*
X16624360Y-51402609D01*
X16624360Y-51402609D02*
X16700550Y-51478800D01*
X16700550Y-51478800D02*
X16814836Y-51516895D01*
X16814836Y-51516895D02*
X16891027Y-51516895D01*
X16891027Y-51516895D02*
X17005312Y-51478800D01*
X17005312Y-51478800D02*
X17043408Y-51440704D01*
X17043408Y-51440704D02*
X17043408Y-51174038D01*
X17043408Y-51174038D02*
X16891027Y-51174038D01*
X18833884Y-50716895D02*
X18833884Y-51288323D01*
X18833884Y-51288323D02*
X18795789Y-51402609D01*
X18795789Y-51402609D02*
X18719598Y-51478800D01*
X18719598Y-51478800D02*
X18605313Y-51516895D01*
X18605313Y-51516895D02*
X18529122Y-51516895D01*
X19671980Y-51516895D02*
X19405313Y-51135942D01*
X19214837Y-51516895D02*
X19214837Y-50716895D01*
X19214837Y-50716895D02*
X19519599Y-50716895D01*
X19519599Y-50716895D02*
X19595789Y-50754990D01*
X19595789Y-50754990D02*
X19633884Y-50793085D01*
X19633884Y-50793085D02*
X19671980Y-50869276D01*
X19671980Y-50869276D02*
X19671980Y-50983561D01*
X19671980Y-50983561D02*
X19633884Y-51059752D01*
X19633884Y-51059752D02*
X19595789Y-51097847D01*
X19595789Y-51097847D02*
X19519599Y-51135942D01*
X19519599Y-51135942D02*
X19214837Y-51135942D01*
X21462456Y-50716895D02*
X21462456Y-51288323D01*
X21462456Y-51288323D02*
X21424361Y-51402609D01*
X21424361Y-51402609D02*
X21348170Y-51478800D01*
X21348170Y-51478800D02*
X21233885Y-51516895D01*
X21233885Y-51516895D02*
X21157694Y-51516895D01*
X21843409Y-51516895D02*
X21843409Y-50716895D01*
X21843409Y-50716895D02*
X22033885Y-50716895D01*
X22033885Y-50716895D02*
X22148171Y-50754990D01*
X22148171Y-50754990D02*
X22224361Y-50831180D01*
X22224361Y-50831180D02*
X22262456Y-50907371D01*
X22262456Y-50907371D02*
X22300552Y-51059752D01*
X22300552Y-51059752D02*
X22300552Y-51174038D01*
X22300552Y-51174038D02*
X22262456Y-51326419D01*
X22262456Y-51326419D02*
X22224361Y-51402609D01*
X22224361Y-51402609D02*
X22148171Y-51478800D01*
X22148171Y-51478800D02*
X22033885Y-51516895D01*
X22033885Y-51516895D02*
X21843409Y-51516895D01*
X24091028Y-50716895D02*
X24091028Y-51288323D01*
X24091028Y-51288323D02*
X24052933Y-51402609D01*
X24052933Y-51402609D02*
X23976742Y-51478800D01*
X23976742Y-51478800D02*
X23862457Y-51516895D01*
X23862457Y-51516895D02*
X23786266Y-51516895D01*
X24471981Y-51516895D02*
X24471981Y-50716895D01*
X24471981Y-50716895D02*
X24776743Y-50716895D01*
X24776743Y-50716895D02*
X24852933Y-50754990D01*
X24852933Y-50754990D02*
X24891028Y-50793085D01*
X24891028Y-50793085D02*
X24929124Y-50869276D01*
X24929124Y-50869276D02*
X24929124Y-50983561D01*
X24929124Y-50983561D02*
X24891028Y-51059752D01*
X24891028Y-51059752D02*
X24852933Y-51097847D01*
X24852933Y-51097847D02*
X24776743Y-51135942D01*
X24776743Y-51135942D02*
X24471981Y-51135942D01*
X26719600Y-50716895D02*
X26719600Y-51288323D01*
X26719600Y-51288323D02*
X26681505Y-51402609D01*
X26681505Y-51402609D02*
X26605314Y-51478800D01*
X26605314Y-51478800D02*
X26491029Y-51516895D01*
X26491029Y-51516895D02*
X26414838Y-51516895D01*
X27100553Y-50716895D02*
X27100553Y-51364514D01*
X27100553Y-51364514D02*
X27138648Y-51440704D01*
X27138648Y-51440704D02*
X27176743Y-51478800D01*
X27176743Y-51478800D02*
X27252934Y-51516895D01*
X27252934Y-51516895D02*
X27405315Y-51516895D01*
X27405315Y-51516895D02*
X27481505Y-51478800D01*
X27481505Y-51478800D02*
X27519600Y-51440704D01*
X27519600Y-51440704D02*
X27557696Y-51364514D01*
X27557696Y-51364514D02*
X27557696Y-50716895D01*
X29386267Y-50716895D02*
X29386267Y-51288323D01*
X29386267Y-51288323D02*
X29348172Y-51402609D01*
X29348172Y-51402609D02*
X29271981Y-51478800D01*
X29271981Y-51478800D02*
X29157696Y-51516895D01*
X29157696Y-51516895D02*
X29081505Y-51516895D01*
X30148172Y-51516895D02*
X29767220Y-51516895D01*
X29767220Y-51516895D02*
X29767220Y-50716895D01*
X34985312Y-50834990D02*
X34909122Y-50796895D01*
X34909122Y-50796895D02*
X34794836Y-50796895D01*
X34794836Y-50796895D02*
X34680550Y-50834990D01*
X34680550Y-50834990D02*
X34604360Y-50911180D01*
X34604360Y-50911180D02*
X34566265Y-50987371D01*
X34566265Y-50987371D02*
X34528169Y-51139752D01*
X34528169Y-51139752D02*
X34528169Y-51254038D01*
X34528169Y-51254038D02*
X34566265Y-51406419D01*
X34566265Y-51406419D02*
X34604360Y-51482609D01*
X34604360Y-51482609D02*
X34680550Y-51558800D01*
X34680550Y-51558800D02*
X34794836Y-51596895D01*
X34794836Y-51596895D02*
X34871027Y-51596895D01*
X34871027Y-51596895D02*
X34985312Y-51558800D01*
X34985312Y-51558800D02*
X35023408Y-51520704D01*
X35023408Y-51520704D02*
X35023408Y-51254038D01*
X35023408Y-51254038D02*
X34871027Y-51254038D01*
X35937693Y-51558800D02*
X36051979Y-51596895D01*
X36051979Y-51596895D02*
X36242455Y-51596895D01*
X36242455Y-51596895D02*
X36318646Y-51558800D01*
X36318646Y-51558800D02*
X36356741Y-51520704D01*
X36356741Y-51520704D02*
X36394836Y-51444514D01*
X36394836Y-51444514D02*
X36394836Y-51368323D01*
X36394836Y-51368323D02*
X36356741Y-51292133D01*
X36356741Y-51292133D02*
X36318646Y-51254038D01*
X36318646Y-51254038D02*
X36242455Y-51215942D01*
X36242455Y-51215942D02*
X36090074Y-51177847D01*
X36090074Y-51177847D02*
X36013884Y-51139752D01*
X36013884Y-51139752D02*
X35975789Y-51101657D01*
X35975789Y-51101657D02*
X35937693Y-51025466D01*
X35937693Y-51025466D02*
X35937693Y-50949276D01*
X35937693Y-50949276D02*
X35975789Y-50873085D01*
X35975789Y-50873085D02*
X36013884Y-50834990D01*
X36013884Y-50834990D02*
X36090074Y-50796895D01*
X36090074Y-50796895D02*
X36280551Y-50796895D01*
X36280551Y-50796895D02*
X36394836Y-50834990D01*
X37194837Y-51520704D02*
X37156741Y-51558800D01*
X37156741Y-51558800D02*
X37042456Y-51596895D01*
X37042456Y-51596895D02*
X36966265Y-51596895D01*
X36966265Y-51596895D02*
X36851979Y-51558800D01*
X36851979Y-51558800D02*
X36775789Y-51482609D01*
X36775789Y-51482609D02*
X36737694Y-51406419D01*
X36737694Y-51406419D02*
X36699598Y-51254038D01*
X36699598Y-51254038D02*
X36699598Y-51139752D01*
X36699598Y-51139752D02*
X36737694Y-50987371D01*
X36737694Y-50987371D02*
X36775789Y-50911180D01*
X36775789Y-50911180D02*
X36851979Y-50834990D01*
X36851979Y-50834990D02*
X36966265Y-50796895D01*
X36966265Y-50796895D02*
X37042456Y-50796895D01*
X37042456Y-50796895D02*
X37156741Y-50834990D01*
X37156741Y-50834990D02*
X37194837Y-50873085D01*
X37918646Y-51596895D02*
X37537694Y-51596895D01*
X37537694Y-51596895D02*
X37537694Y-50796895D01*
X38185313Y-51596895D02*
X38185313Y-50796895D01*
X38642456Y-51596895D02*
X38299598Y-51139752D01*
X38642456Y-50796895D02*
X38185313Y-51254038D01*
X39404361Y-51673085D02*
X40013884Y-51673085D01*
X40813885Y-51596895D02*
X40813885Y-50796895D01*
X40813885Y-50796895D02*
X41080551Y-51368323D01*
X41080551Y-51368323D02*
X41347218Y-50796895D01*
X41347218Y-50796895D02*
X41347218Y-51596895D01*
X41880552Y-50796895D02*
X42032933Y-50796895D01*
X42032933Y-50796895D02*
X42109123Y-50834990D01*
X42109123Y-50834990D02*
X42185314Y-50911180D01*
X42185314Y-50911180D02*
X42223409Y-51063561D01*
X42223409Y-51063561D02*
X42223409Y-51330228D01*
X42223409Y-51330228D02*
X42185314Y-51482609D01*
X42185314Y-51482609D02*
X42109123Y-51558800D01*
X42109123Y-51558800D02*
X42032933Y-51596895D01*
X42032933Y-51596895D02*
X41880552Y-51596895D01*
X41880552Y-51596895D02*
X41804361Y-51558800D01*
X41804361Y-51558800D02*
X41728171Y-51482609D01*
X41728171Y-51482609D02*
X41690075Y-51330228D01*
X41690075Y-51330228D02*
X41690075Y-51063561D01*
X41690075Y-51063561D02*
X41728171Y-50911180D01*
X41728171Y-50911180D02*
X41804361Y-50834990D01*
X41804361Y-50834990D02*
X41880552Y-50796895D01*
X42528170Y-51558800D02*
X42642456Y-51596895D01*
X42642456Y-51596895D02*
X42832932Y-51596895D01*
X42832932Y-51596895D02*
X42909123Y-51558800D01*
X42909123Y-51558800D02*
X42947218Y-51520704D01*
X42947218Y-51520704D02*
X42985313Y-51444514D01*
X42985313Y-51444514D02*
X42985313Y-51368323D01*
X42985313Y-51368323D02*
X42947218Y-51292133D01*
X42947218Y-51292133D02*
X42909123Y-51254038D01*
X42909123Y-51254038D02*
X42832932Y-51215942D01*
X42832932Y-51215942D02*
X42680551Y-51177847D01*
X42680551Y-51177847D02*
X42604361Y-51139752D01*
X42604361Y-51139752D02*
X42566266Y-51101657D01*
X42566266Y-51101657D02*
X42528170Y-51025466D01*
X42528170Y-51025466D02*
X42528170Y-50949276D01*
X42528170Y-50949276D02*
X42566266Y-50873085D01*
X42566266Y-50873085D02*
X42604361Y-50834990D01*
X42604361Y-50834990D02*
X42680551Y-50796895D01*
X42680551Y-50796895D02*
X42871028Y-50796895D01*
X42871028Y-50796895D02*
X42985313Y-50834990D01*
X43328171Y-51596895D02*
X43328171Y-50796895D01*
X44242456Y-50796895D02*
X44737694Y-50796895D01*
X44737694Y-50796895D02*
X44471028Y-51101657D01*
X44471028Y-51101657D02*
X44585313Y-51101657D01*
X44585313Y-51101657D02*
X44661504Y-51139752D01*
X44661504Y-51139752D02*
X44699599Y-51177847D01*
X44699599Y-51177847D02*
X44737694Y-51254038D01*
X44737694Y-51254038D02*
X44737694Y-51444514D01*
X44737694Y-51444514D02*
X44699599Y-51520704D01*
X44699599Y-51520704D02*
X44661504Y-51558800D01*
X44661504Y-51558800D02*
X44585313Y-51596895D01*
X44585313Y-51596895D02*
X44356742Y-51596895D01*
X44356742Y-51596895D02*
X44280551Y-51558800D01*
X44280551Y-51558800D02*
X44242456Y-51520704D01*
X45004361Y-51063561D02*
X45194837Y-51596895D01*
X45194837Y-51596895D02*
X45385314Y-51063561D01*
X45613885Y-50796895D02*
X46109123Y-50796895D01*
X46109123Y-50796895D02*
X45842457Y-51101657D01*
X45842457Y-51101657D02*
X45956742Y-51101657D01*
X45956742Y-51101657D02*
X46032933Y-51139752D01*
X46032933Y-51139752D02*
X46071028Y-51177847D01*
X46071028Y-51177847D02*
X46109123Y-51254038D01*
X46109123Y-51254038D02*
X46109123Y-51444514D01*
X46109123Y-51444514D02*
X46071028Y-51520704D01*
X46071028Y-51520704D02*
X46032933Y-51558800D01*
X46032933Y-51558800D02*
X45956742Y-51596895D01*
X45956742Y-51596895D02*
X45728171Y-51596895D01*
X45728171Y-51596895D02*
X45651980Y-51558800D01*
X45651980Y-51558800D02*
X45613885Y-51520704D01*
X37433408Y-57690704D02*
X37395312Y-57728800D01*
X37395312Y-57728800D02*
X37281027Y-57766895D01*
X37281027Y-57766895D02*
X37204836Y-57766895D01*
X37204836Y-57766895D02*
X37090550Y-57728800D01*
X37090550Y-57728800D02*
X37014360Y-57652609D01*
X37014360Y-57652609D02*
X36976265Y-57576419D01*
X36976265Y-57576419D02*
X36938169Y-57424038D01*
X36938169Y-57424038D02*
X36938169Y-57309752D01*
X36938169Y-57309752D02*
X36976265Y-57157371D01*
X36976265Y-57157371D02*
X37014360Y-57081180D01*
X37014360Y-57081180D02*
X37090550Y-57004990D01*
X37090550Y-57004990D02*
X37204836Y-56966895D01*
X37204836Y-56966895D02*
X37281027Y-56966895D01*
X37281027Y-56966895D02*
X37395312Y-57004990D01*
X37395312Y-57004990D02*
X37433408Y-57043085D01*
X37738169Y-57728800D02*
X37852455Y-57766895D01*
X37852455Y-57766895D02*
X38042931Y-57766895D01*
X38042931Y-57766895D02*
X38119122Y-57728800D01*
X38119122Y-57728800D02*
X38157217Y-57690704D01*
X38157217Y-57690704D02*
X38195312Y-57614514D01*
X38195312Y-57614514D02*
X38195312Y-57538323D01*
X38195312Y-57538323D02*
X38157217Y-57462133D01*
X38157217Y-57462133D02*
X38119122Y-57424038D01*
X38119122Y-57424038D02*
X38042931Y-57385942D01*
X38042931Y-57385942D02*
X37890550Y-57347847D01*
X37890550Y-57347847D02*
X37814360Y-57309752D01*
X37814360Y-57309752D02*
X37776265Y-57271657D01*
X37776265Y-57271657D02*
X37738169Y-57195466D01*
X37738169Y-57195466D02*
X37738169Y-57119276D01*
X37738169Y-57119276D02*
X37776265Y-57043085D01*
X37776265Y-57043085D02*
X37814360Y-57004990D01*
X37814360Y-57004990D02*
X37890550Y-56966895D01*
X37890550Y-56966895D02*
X38081027Y-56966895D01*
X38081027Y-56966895D02*
X38195312Y-57004990D01*
X39147694Y-57766895D02*
X39147694Y-56966895D01*
X39147694Y-56966895D02*
X39338170Y-56966895D01*
X39338170Y-56966895D02*
X39452456Y-57004990D01*
X39452456Y-57004990D02*
X39528646Y-57081180D01*
X39528646Y-57081180D02*
X39566741Y-57157371D01*
X39566741Y-57157371D02*
X39604837Y-57309752D01*
X39604837Y-57309752D02*
X39604837Y-57424038D01*
X39604837Y-57424038D02*
X39566741Y-57576419D01*
X39566741Y-57576419D02*
X39528646Y-57652609D01*
X39528646Y-57652609D02*
X39452456Y-57728800D01*
X39452456Y-57728800D02*
X39338170Y-57766895D01*
X39338170Y-57766895D02*
X39147694Y-57766895D01*
X40404837Y-57690704D02*
X40366741Y-57728800D01*
X40366741Y-57728800D02*
X40252456Y-57766895D01*
X40252456Y-57766895D02*
X40176265Y-57766895D01*
X40176265Y-57766895D02*
X40061979Y-57728800D01*
X40061979Y-57728800D02*
X39985789Y-57652609D01*
X39985789Y-57652609D02*
X39947694Y-57576419D01*
X39947694Y-57576419D02*
X39909598Y-57424038D01*
X39909598Y-57424038D02*
X39909598Y-57309752D01*
X39909598Y-57309752D02*
X39947694Y-57157371D01*
X39947694Y-57157371D02*
X39985789Y-57081180D01*
X39985789Y-57081180D02*
X40061979Y-57004990D01*
X40061979Y-57004990D02*
X40176265Y-56966895D01*
X40176265Y-56966895D02*
X40252456Y-56966895D01*
X40252456Y-56966895D02*
X40366741Y-57004990D01*
X40366741Y-57004990D02*
X40404837Y-57043085D01*
X42385789Y-57004990D02*
X42309599Y-56966895D01*
X42309599Y-56966895D02*
X42195313Y-56966895D01*
X42195313Y-56966895D02*
X42081027Y-57004990D01*
X42081027Y-57004990D02*
X42004837Y-57081180D01*
X42004837Y-57081180D02*
X41966742Y-57157371D01*
X41966742Y-57157371D02*
X41928646Y-57309752D01*
X41928646Y-57309752D02*
X41928646Y-57424038D01*
X41928646Y-57424038D02*
X41966742Y-57576419D01*
X41966742Y-57576419D02*
X42004837Y-57652609D01*
X42004837Y-57652609D02*
X42081027Y-57728800D01*
X42081027Y-57728800D02*
X42195313Y-57766895D01*
X42195313Y-57766895D02*
X42271504Y-57766895D01*
X42271504Y-57766895D02*
X42385789Y-57728800D01*
X42385789Y-57728800D02*
X42423885Y-57690704D01*
X42423885Y-57690704D02*
X42423885Y-57424038D01*
X42423885Y-57424038D02*
X42271504Y-57424038D01*
X44252456Y-57347847D02*
X44366742Y-57385942D01*
X44366742Y-57385942D02*
X44404837Y-57424038D01*
X44404837Y-57424038D02*
X44442933Y-57500228D01*
X44442933Y-57500228D02*
X44442933Y-57614514D01*
X44442933Y-57614514D02*
X44404837Y-57690704D01*
X44404837Y-57690704D02*
X44366742Y-57728800D01*
X44366742Y-57728800D02*
X44290552Y-57766895D01*
X44290552Y-57766895D02*
X43985790Y-57766895D01*
X43985790Y-57766895D02*
X43985790Y-56966895D01*
X43985790Y-56966895D02*
X44252456Y-56966895D01*
X44252456Y-56966895D02*
X44328647Y-57004990D01*
X44328647Y-57004990D02*
X44366742Y-57043085D01*
X44366742Y-57043085D02*
X44404837Y-57119276D01*
X44404837Y-57119276D02*
X44404837Y-57195466D01*
X44404837Y-57195466D02*
X44366742Y-57271657D01*
X44366742Y-57271657D02*
X44328647Y-57309752D01*
X44328647Y-57309752D02*
X44252456Y-57347847D01*
X44252456Y-57347847D02*
X43985790Y-57347847D01*
X45166742Y-57766895D02*
X44785790Y-57766895D01*
X44785790Y-57766895D02*
X44785790Y-56966895D01*
X49613408Y-51456895D02*
X49346741Y-51075942D01*
X49156265Y-51456895D02*
X49156265Y-50656895D01*
X49156265Y-50656895D02*
X49461027Y-50656895D01*
X49461027Y-50656895D02*
X49537217Y-50694990D01*
X49537217Y-50694990D02*
X49575312Y-50733085D01*
X49575312Y-50733085D02*
X49613408Y-50809276D01*
X49613408Y-50809276D02*
X49613408Y-50923561D01*
X49613408Y-50923561D02*
X49575312Y-50999752D01*
X49575312Y-50999752D02*
X49537217Y-51037847D01*
X49537217Y-51037847D02*
X49461027Y-51075942D01*
X49461027Y-51075942D02*
X49156265Y-51075942D01*
X49918169Y-51418800D02*
X50032455Y-51456895D01*
X50032455Y-51456895D02*
X50222931Y-51456895D01*
X50222931Y-51456895D02*
X50299122Y-51418800D01*
X50299122Y-51418800D02*
X50337217Y-51380704D01*
X50337217Y-51380704D02*
X50375312Y-51304514D01*
X50375312Y-51304514D02*
X50375312Y-51228323D01*
X50375312Y-51228323D02*
X50337217Y-51152133D01*
X50337217Y-51152133D02*
X50299122Y-51114038D01*
X50299122Y-51114038D02*
X50222931Y-51075942D01*
X50222931Y-51075942D02*
X50070550Y-51037847D01*
X50070550Y-51037847D02*
X49994360Y-50999752D01*
X49994360Y-50999752D02*
X49956265Y-50961657D01*
X49956265Y-50961657D02*
X49918169Y-50885466D01*
X49918169Y-50885466D02*
X49918169Y-50809276D01*
X49918169Y-50809276D02*
X49956265Y-50733085D01*
X49956265Y-50733085D02*
X49994360Y-50694990D01*
X49994360Y-50694990D02*
X50070550Y-50656895D01*
X50070550Y-50656895D02*
X50261027Y-50656895D01*
X50261027Y-50656895D02*
X50375312Y-50694990D01*
X50603884Y-50656895D02*
X51061027Y-50656895D01*
X50832455Y-51456895D02*
X50832455Y-50656895D01*
X55103408Y-57846895D02*
X54836741Y-57465942D01*
X54646265Y-57846895D02*
X54646265Y-57046895D01*
X54646265Y-57046895D02*
X54951027Y-57046895D01*
X54951027Y-57046895D02*
X55027217Y-57084990D01*
X55027217Y-57084990D02*
X55065312Y-57123085D01*
X55065312Y-57123085D02*
X55103408Y-57199276D01*
X55103408Y-57199276D02*
X55103408Y-57313561D01*
X55103408Y-57313561D02*
X55065312Y-57389752D01*
X55065312Y-57389752D02*
X55027217Y-57427847D01*
X55027217Y-57427847D02*
X54951027Y-57465942D01*
X54951027Y-57465942D02*
X54646265Y-57465942D01*
X55370074Y-57046895D02*
X55903408Y-57846895D01*
X55903408Y-57046895D02*
X55370074Y-57846895D01*
X57312932Y-57046895D02*
X57770075Y-57046895D01*
X57541503Y-57846895D02*
X57541503Y-57046895D01*
X57960551Y-57046895D02*
X58493885Y-57846895D01*
X58493885Y-57046895D02*
X57960551Y-57846895D01*
X60436742Y-57084990D02*
X60360552Y-57046895D01*
X60360552Y-57046895D02*
X60246266Y-57046895D01*
X60246266Y-57046895D02*
X60131980Y-57084990D01*
X60131980Y-57084990D02*
X60055790Y-57161180D01*
X60055790Y-57161180D02*
X60017695Y-57237371D01*
X60017695Y-57237371D02*
X59979599Y-57389752D01*
X59979599Y-57389752D02*
X59979599Y-57504038D01*
X59979599Y-57504038D02*
X60017695Y-57656419D01*
X60017695Y-57656419D02*
X60055790Y-57732609D01*
X60055790Y-57732609D02*
X60131980Y-57808800D01*
X60131980Y-57808800D02*
X60246266Y-57846895D01*
X60246266Y-57846895D02*
X60322457Y-57846895D01*
X60322457Y-57846895D02*
X60436742Y-57808800D01*
X60436742Y-57808800D02*
X60474838Y-57770704D01*
X60474838Y-57770704D02*
X60474838Y-57504038D01*
X60474838Y-57504038D02*
X60322457Y-57504038D01*
X62417695Y-57046895D02*
X62036743Y-57046895D01*
X62036743Y-57046895D02*
X61998647Y-57427847D01*
X61998647Y-57427847D02*
X62036743Y-57389752D01*
X62036743Y-57389752D02*
X62112933Y-57351657D01*
X62112933Y-57351657D02*
X62303409Y-57351657D01*
X62303409Y-57351657D02*
X62379600Y-57389752D01*
X62379600Y-57389752D02*
X62417695Y-57427847D01*
X62417695Y-57427847D02*
X62455790Y-57504038D01*
X62455790Y-57504038D02*
X62455790Y-57694514D01*
X62455790Y-57694514D02*
X62417695Y-57770704D01*
X62417695Y-57770704D02*
X62379600Y-57808800D01*
X62379600Y-57808800D02*
X62303409Y-57846895D01*
X62303409Y-57846895D02*
X62112933Y-57846895D01*
X62112933Y-57846895D02*
X62036743Y-57808800D01*
X62036743Y-57808800D02*
X61998647Y-57770704D01*
X62684362Y-57046895D02*
X62951029Y-57846895D01*
X62951029Y-57846895D02*
X63217695Y-57046895D01*
X65084362Y-57046895D02*
X64703410Y-57046895D01*
X64703410Y-57046895D02*
X64665314Y-57427847D01*
X64665314Y-57427847D02*
X64703410Y-57389752D01*
X64703410Y-57389752D02*
X64779600Y-57351657D01*
X64779600Y-57351657D02*
X64970076Y-57351657D01*
X64970076Y-57351657D02*
X65046267Y-57389752D01*
X65046267Y-57389752D02*
X65084362Y-57427847D01*
X65084362Y-57427847D02*
X65122457Y-57504038D01*
X65122457Y-57504038D02*
X65122457Y-57694514D01*
X65122457Y-57694514D02*
X65084362Y-57770704D01*
X65084362Y-57770704D02*
X65046267Y-57808800D01*
X65046267Y-57808800D02*
X64970076Y-57846895D01*
X64970076Y-57846895D02*
X64779600Y-57846895D01*
X64779600Y-57846895D02*
X64703410Y-57808800D01*
X64703410Y-57808800D02*
X64665314Y-57770704D01*
X65351029Y-57046895D02*
X65617696Y-57846895D01*
X65617696Y-57846895D02*
X65884362Y-57046895D01*
X55595312Y-50424990D02*
X55519122Y-50386895D01*
X55519122Y-50386895D02*
X55404836Y-50386895D01*
X55404836Y-50386895D02*
X55290550Y-50424990D01*
X55290550Y-50424990D02*
X55214360Y-50501180D01*
X55214360Y-50501180D02*
X55176265Y-50577371D01*
X55176265Y-50577371D02*
X55138169Y-50729752D01*
X55138169Y-50729752D02*
X55138169Y-50844038D01*
X55138169Y-50844038D02*
X55176265Y-50996419D01*
X55176265Y-50996419D02*
X55214360Y-51072609D01*
X55214360Y-51072609D02*
X55290550Y-51148800D01*
X55290550Y-51148800D02*
X55404836Y-51186895D01*
X55404836Y-51186895D02*
X55481027Y-51186895D01*
X55481027Y-51186895D02*
X55595312Y-51148800D01*
X55595312Y-51148800D02*
X55633408Y-51110704D01*
X55633408Y-51110704D02*
X55633408Y-50844038D01*
X55633408Y-50844038D02*
X55481027Y-50844038D01*
X57004837Y-51263085D02*
X57614360Y-51263085D01*
X58985789Y-51148800D02*
X59100075Y-51186895D01*
X59100075Y-51186895D02*
X59290551Y-51186895D01*
X59290551Y-51186895D02*
X59366742Y-51148800D01*
X59366742Y-51148800D02*
X59404837Y-51110704D01*
X59404837Y-51110704D02*
X59442932Y-51034514D01*
X59442932Y-51034514D02*
X59442932Y-50958323D01*
X59442932Y-50958323D02*
X59404837Y-50882133D01*
X59404837Y-50882133D02*
X59366742Y-50844038D01*
X59366742Y-50844038D02*
X59290551Y-50805942D01*
X59290551Y-50805942D02*
X59138170Y-50767847D01*
X59138170Y-50767847D02*
X59061980Y-50729752D01*
X59061980Y-50729752D02*
X59023885Y-50691657D01*
X59023885Y-50691657D02*
X58985789Y-50615466D01*
X58985789Y-50615466D02*
X58985789Y-50539276D01*
X58985789Y-50539276D02*
X59023885Y-50463085D01*
X59023885Y-50463085D02*
X59061980Y-50424990D01*
X59061980Y-50424990D02*
X59138170Y-50386895D01*
X59138170Y-50386895D02*
X59328647Y-50386895D01*
X59328647Y-50386895D02*
X59442932Y-50424990D01*
X60242933Y-51110704D02*
X60204837Y-51148800D01*
X60204837Y-51148800D02*
X60090552Y-51186895D01*
X60090552Y-51186895D02*
X60014361Y-51186895D01*
X60014361Y-51186895D02*
X59900075Y-51148800D01*
X59900075Y-51148800D02*
X59823885Y-51072609D01*
X59823885Y-51072609D02*
X59785790Y-50996419D01*
X59785790Y-50996419D02*
X59747694Y-50844038D01*
X59747694Y-50844038D02*
X59747694Y-50729752D01*
X59747694Y-50729752D02*
X59785790Y-50577371D01*
X59785790Y-50577371D02*
X59823885Y-50501180D01*
X59823885Y-50501180D02*
X59900075Y-50424990D01*
X59900075Y-50424990D02*
X60014361Y-50386895D01*
X60014361Y-50386895D02*
X60090552Y-50386895D01*
X60090552Y-50386895D02*
X60204837Y-50424990D01*
X60204837Y-50424990D02*
X60242933Y-50463085D01*
X60966742Y-51186895D02*
X60585790Y-51186895D01*
X60585790Y-51186895D02*
X60585790Y-50386895D01*
X61804837Y-51148800D02*
X61919123Y-51186895D01*
X61919123Y-51186895D02*
X62109599Y-51186895D01*
X62109599Y-51186895D02*
X62185790Y-51148800D01*
X62185790Y-51148800D02*
X62223885Y-51110704D01*
X62223885Y-51110704D02*
X62261980Y-51034514D01*
X62261980Y-51034514D02*
X62261980Y-50958323D01*
X62261980Y-50958323D02*
X62223885Y-50882133D01*
X62223885Y-50882133D02*
X62185790Y-50844038D01*
X62185790Y-50844038D02*
X62109599Y-50805942D01*
X62109599Y-50805942D02*
X61957218Y-50767847D01*
X61957218Y-50767847D02*
X61881028Y-50729752D01*
X61881028Y-50729752D02*
X61842933Y-50691657D01*
X61842933Y-50691657D02*
X61804837Y-50615466D01*
X61804837Y-50615466D02*
X61804837Y-50539276D01*
X61804837Y-50539276D02*
X61842933Y-50463085D01*
X61842933Y-50463085D02*
X61881028Y-50424990D01*
X61881028Y-50424990D02*
X61957218Y-50386895D01*
X61957218Y-50386895D02*
X62147695Y-50386895D01*
X62147695Y-50386895D02*
X62261980Y-50424990D01*
X62604838Y-51186895D02*
X62604838Y-50386895D01*
X62604838Y-50386895D02*
X62795314Y-50386895D01*
X62795314Y-50386895D02*
X62909600Y-50424990D01*
X62909600Y-50424990D02*
X62985790Y-50501180D01*
X62985790Y-50501180D02*
X63023885Y-50577371D01*
X63023885Y-50577371D02*
X63061981Y-50729752D01*
X63061981Y-50729752D02*
X63061981Y-50844038D01*
X63061981Y-50844038D02*
X63023885Y-50996419D01*
X63023885Y-50996419D02*
X62985790Y-51072609D01*
X62985790Y-51072609D02*
X62909600Y-51148800D01*
X62909600Y-51148800D02*
X62795314Y-51186895D01*
X62795314Y-51186895D02*
X62604838Y-51186895D01*
X63366742Y-50958323D02*
X63747695Y-50958323D01*
X63290552Y-51186895D02*
X63557219Y-50386895D01*
X63557219Y-50386895D02*
X63823885Y-51186895D01*
X64623885Y-50386895D02*
X65119123Y-50386895D01*
X65119123Y-50386895D02*
X64852457Y-50691657D01*
X64852457Y-50691657D02*
X64966742Y-50691657D01*
X64966742Y-50691657D02*
X65042933Y-50729752D01*
X65042933Y-50729752D02*
X65081028Y-50767847D01*
X65081028Y-50767847D02*
X65119123Y-50844038D01*
X65119123Y-50844038D02*
X65119123Y-51034514D01*
X65119123Y-51034514D02*
X65081028Y-51110704D01*
X65081028Y-51110704D02*
X65042933Y-51148800D01*
X65042933Y-51148800D02*
X64966742Y-51186895D01*
X64966742Y-51186895D02*
X64738171Y-51186895D01*
X64738171Y-51186895D02*
X64661980Y-51148800D01*
X64661980Y-51148800D02*
X64623885Y-51110704D01*
X65385790Y-50653561D02*
X65576266Y-51186895D01*
X65576266Y-51186895D02*
X65766743Y-50653561D01*
X65995314Y-50386895D02*
X66490552Y-50386895D01*
X66490552Y-50386895D02*
X66223886Y-50691657D01*
X66223886Y-50691657D02*
X66338171Y-50691657D01*
X66338171Y-50691657D02*
X66414362Y-50729752D01*
X66414362Y-50729752D02*
X66452457Y-50767847D01*
X66452457Y-50767847D02*
X66490552Y-50844038D01*
X66490552Y-50844038D02*
X66490552Y-51034514D01*
X66490552Y-51034514D02*
X66452457Y-51110704D01*
X66452457Y-51110704D02*
X66414362Y-51148800D01*
X66414362Y-51148800D02*
X66338171Y-51186895D01*
X66338171Y-51186895D02*
X66109600Y-51186895D01*
X66109600Y-51186895D02*
X66033409Y-51148800D01*
X66033409Y-51148800D02*
X65995314Y-51110704D01*
D12*
X38376259Y-30992054D02*
X39176259Y-30992054D01*
X39176259Y-30992054D02*
X39176259Y-31296816D01*
X39176259Y-31296816D02*
X39138164Y-31373006D01*
X39138164Y-31373006D02*
X39100069Y-31411101D01*
X39100069Y-31411101D02*
X39023878Y-31449197D01*
X39023878Y-31449197D02*
X38909593Y-31449197D01*
X38909593Y-31449197D02*
X38833402Y-31411101D01*
X38833402Y-31411101D02*
X38795307Y-31373006D01*
X38795307Y-31373006D02*
X38757212Y-31296816D01*
X38757212Y-31296816D02*
X38757212Y-30992054D01*
X38376259Y-31792054D02*
X38909593Y-31792054D01*
X39176259Y-31792054D02*
X39138164Y-31753958D01*
X39138164Y-31753958D02*
X39100069Y-31792054D01*
X39100069Y-31792054D02*
X39138164Y-31830149D01*
X39138164Y-31830149D02*
X39176259Y-31792054D01*
X39176259Y-31792054D02*
X39100069Y-31792054D01*
X38414355Y-32515863D02*
X38376259Y-32439672D01*
X38376259Y-32439672D02*
X38376259Y-32287291D01*
X38376259Y-32287291D02*
X38414355Y-32211101D01*
X38414355Y-32211101D02*
X38452450Y-32173006D01*
X38452450Y-32173006D02*
X38528640Y-32134910D01*
X38528640Y-32134910D02*
X38757212Y-32134910D01*
X38757212Y-32134910D02*
X38833402Y-32173006D01*
X38833402Y-32173006D02*
X38871497Y-32211101D01*
X38871497Y-32211101D02*
X38909593Y-32287291D01*
X38909593Y-32287291D02*
X38909593Y-32439672D01*
X38909593Y-32439672D02*
X38871497Y-32515863D01*
X38376259Y-32973005D02*
X38414355Y-32896815D01*
X38414355Y-32896815D02*
X38452450Y-32858720D01*
X38452450Y-32858720D02*
X38528640Y-32820624D01*
X38528640Y-32820624D02*
X38757212Y-32820624D01*
X38757212Y-32820624D02*
X38833402Y-32858720D01*
X38833402Y-32858720D02*
X38871497Y-32896815D01*
X38871497Y-32896815D02*
X38909593Y-32973005D01*
X38909593Y-32973005D02*
X38909593Y-33087291D01*
X38909593Y-33087291D02*
X38871497Y-33163482D01*
X38871497Y-33163482D02*
X38833402Y-33201577D01*
X38833402Y-33201577D02*
X38757212Y-33239672D01*
X38757212Y-33239672D02*
X38528640Y-33239672D01*
X38528640Y-33239672D02*
X38452450Y-33201577D01*
X38452450Y-33201577D02*
X38414355Y-33163482D01*
X38414355Y-33163482D02*
X38376259Y-33087291D01*
X38376259Y-33087291D02*
X38376259Y-32973005D01*
X37088304Y-30992054D02*
X37888304Y-30992054D01*
X37888304Y-30992054D02*
X37888304Y-31296816D01*
X37888304Y-31296816D02*
X37850209Y-31373006D01*
X37850209Y-31373006D02*
X37812114Y-31411101D01*
X37812114Y-31411101D02*
X37735923Y-31449197D01*
X37735923Y-31449197D02*
X37621638Y-31449197D01*
X37621638Y-31449197D02*
X37545447Y-31411101D01*
X37545447Y-31411101D02*
X37507352Y-31373006D01*
X37507352Y-31373006D02*
X37469257Y-31296816D01*
X37469257Y-31296816D02*
X37469257Y-30992054D01*
X37088304Y-31792054D02*
X37888304Y-31792054D01*
X37088304Y-32173006D02*
X37888304Y-32173006D01*
X37888304Y-32173006D02*
X37088304Y-32630149D01*
X37088304Y-32630149D02*
X37888304Y-32630149D01*
X37088304Y-34039672D02*
X37088304Y-33582529D01*
X37088304Y-33811101D02*
X37888304Y-33811101D01*
X37888304Y-33811101D02*
X37774019Y-33734910D01*
X37774019Y-33734910D02*
X37697828Y-33658720D01*
X37697828Y-33658720D02*
X37659733Y-33582529D01*
X37812114Y-34344434D02*
X37850209Y-34382530D01*
X37850209Y-34382530D02*
X37888304Y-34458720D01*
X37888304Y-34458720D02*
X37888304Y-34649196D01*
X37888304Y-34649196D02*
X37850209Y-34725387D01*
X37850209Y-34725387D02*
X37812114Y-34763482D01*
X37812114Y-34763482D02*
X37735923Y-34801577D01*
X37735923Y-34801577D02*
X37659733Y-34801577D01*
X37659733Y-34801577D02*
X37545447Y-34763482D01*
X37545447Y-34763482D02*
X37088304Y-34306339D01*
X37088304Y-34306339D02*
X37088304Y-34801577D01*
X10372054Y-52503740D02*
X10372054Y-51703740D01*
X10372054Y-51703740D02*
X10676816Y-51703740D01*
X10676816Y-51703740D02*
X10753006Y-51741835D01*
X10753006Y-51741835D02*
X10791101Y-51779930D01*
X10791101Y-51779930D02*
X10829197Y-51856121D01*
X10829197Y-51856121D02*
X10829197Y-51970406D01*
X10829197Y-51970406D02*
X10791101Y-52046597D01*
X10791101Y-52046597D02*
X10753006Y-52084692D01*
X10753006Y-52084692D02*
X10676816Y-52122787D01*
X10676816Y-52122787D02*
X10372054Y-52122787D01*
X11172054Y-52503740D02*
X11172054Y-51970406D01*
X11172054Y-51703740D02*
X11133958Y-51741835D01*
X11133958Y-51741835D02*
X11172054Y-51779930D01*
X11172054Y-51779930D02*
X11210149Y-51741835D01*
X11210149Y-51741835D02*
X11172054Y-51703740D01*
X11172054Y-51703740D02*
X11172054Y-51779930D01*
X11895863Y-52465645D02*
X11819672Y-52503740D01*
X11819672Y-52503740D02*
X11667291Y-52503740D01*
X11667291Y-52503740D02*
X11591101Y-52465645D01*
X11591101Y-52465645D02*
X11553006Y-52427549D01*
X11553006Y-52427549D02*
X11514910Y-52351359D01*
X11514910Y-52351359D02*
X11514910Y-52122787D01*
X11514910Y-52122787D02*
X11553006Y-52046597D01*
X11553006Y-52046597D02*
X11591101Y-52008502D01*
X11591101Y-52008502D02*
X11667291Y-51970406D01*
X11667291Y-51970406D02*
X11819672Y-51970406D01*
X11819672Y-51970406D02*
X11895863Y-52008502D01*
X12353005Y-52503740D02*
X12276815Y-52465645D01*
X12276815Y-52465645D02*
X12238720Y-52427549D01*
X12238720Y-52427549D02*
X12200624Y-52351359D01*
X12200624Y-52351359D02*
X12200624Y-52122787D01*
X12200624Y-52122787D02*
X12238720Y-52046597D01*
X12238720Y-52046597D02*
X12276815Y-52008502D01*
X12276815Y-52008502D02*
X12353005Y-51970406D01*
X12353005Y-51970406D02*
X12467291Y-51970406D01*
X12467291Y-51970406D02*
X12543482Y-52008502D01*
X12543482Y-52008502D02*
X12581577Y-52046597D01*
X12581577Y-52046597D02*
X12619672Y-52122787D01*
X12619672Y-52122787D02*
X12619672Y-52351359D01*
X12619672Y-52351359D02*
X12581577Y-52427549D01*
X12581577Y-52427549D02*
X12543482Y-52465645D01*
X12543482Y-52465645D02*
X12467291Y-52503740D01*
X12467291Y-52503740D02*
X12353005Y-52503740D01*
X10372054Y-53791695D02*
X10372054Y-52991695D01*
X10372054Y-52991695D02*
X10676816Y-52991695D01*
X10676816Y-52991695D02*
X10753006Y-53029790D01*
X10753006Y-53029790D02*
X10791101Y-53067885D01*
X10791101Y-53067885D02*
X10829197Y-53144076D01*
X10829197Y-53144076D02*
X10829197Y-53258361D01*
X10829197Y-53258361D02*
X10791101Y-53334552D01*
X10791101Y-53334552D02*
X10753006Y-53372647D01*
X10753006Y-53372647D02*
X10676816Y-53410742D01*
X10676816Y-53410742D02*
X10372054Y-53410742D01*
X11172054Y-53791695D02*
X11172054Y-52991695D01*
X11553006Y-53791695D02*
X11553006Y-52991695D01*
X11553006Y-52991695D02*
X12010149Y-53791695D01*
X12010149Y-53791695D02*
X12010149Y-52991695D01*
X13419672Y-53791695D02*
X12962529Y-53791695D01*
X13191101Y-53791695D02*
X13191101Y-52991695D01*
X13191101Y-52991695D02*
X13114910Y-53105980D01*
X13114910Y-53105980D02*
X13038720Y-53182171D01*
X13038720Y-53182171D02*
X12962529Y-53220266D01*
D13*
X69335912Y-52145489D02*
X67835912Y-52145489D01*
X67835912Y-52145489D02*
X67835912Y-51574060D01*
X67835912Y-51574060D02*
X67907341Y-51431203D01*
X67907341Y-51431203D02*
X67978769Y-51359774D01*
X67978769Y-51359774D02*
X68121626Y-51288346D01*
X68121626Y-51288346D02*
X68335912Y-51288346D01*
X68335912Y-51288346D02*
X68478769Y-51359774D01*
X68478769Y-51359774D02*
X68550198Y-51431203D01*
X68550198Y-51431203D02*
X68621626Y-51574060D01*
X68621626Y-51574060D02*
X68621626Y-52145489D01*
X69335912Y-50431203D02*
X69264484Y-50574060D01*
X69264484Y-50574060D02*
X69121626Y-50645489D01*
X69121626Y-50645489D02*
X67835912Y-50645489D01*
X69335912Y-49216918D02*
X68550198Y-49216918D01*
X68550198Y-49216918D02*
X68407341Y-49288346D01*
X68407341Y-49288346D02*
X68335912Y-49431203D01*
X68335912Y-49431203D02*
X68335912Y-49716918D01*
X68335912Y-49716918D02*
X68407341Y-49859775D01*
X69264484Y-49216918D02*
X69335912Y-49359775D01*
X69335912Y-49359775D02*
X69335912Y-49716918D01*
X69335912Y-49716918D02*
X69264484Y-49859775D01*
X69264484Y-49859775D02*
X69121626Y-49931203D01*
X69121626Y-49931203D02*
X68978769Y-49931203D01*
X68978769Y-49931203D02*
X68835912Y-49859775D01*
X68835912Y-49859775D02*
X68764484Y-49716918D01*
X68764484Y-49716918D02*
X68764484Y-49359775D01*
X68764484Y-49359775D02*
X68693055Y-49216918D01*
X69264484Y-47859775D02*
X69335912Y-48002632D01*
X69335912Y-48002632D02*
X69335912Y-48288346D01*
X69335912Y-48288346D02*
X69264484Y-48431203D01*
X69264484Y-48431203D02*
X69193055Y-48502632D01*
X69193055Y-48502632D02*
X69050198Y-48574060D01*
X69050198Y-48574060D02*
X68621626Y-48574060D01*
X68621626Y-48574060D02*
X68478769Y-48502632D01*
X68478769Y-48502632D02*
X68407341Y-48431203D01*
X68407341Y-48431203D02*
X68335912Y-48288346D01*
X68335912Y-48288346D02*
X68335912Y-48002632D01*
X68335912Y-48002632D02*
X68407341Y-47859775D01*
X69264484Y-46645489D02*
X69335912Y-46788346D01*
X69335912Y-46788346D02*
X69335912Y-47074061D01*
X69335912Y-47074061D02*
X69264484Y-47216918D01*
X69264484Y-47216918D02*
X69121626Y-47288346D01*
X69121626Y-47288346D02*
X68550198Y-47288346D01*
X68550198Y-47288346D02*
X68407341Y-47216918D01*
X68407341Y-47216918D02*
X68335912Y-47074061D01*
X68335912Y-47074061D02*
X68335912Y-46788346D01*
X68335912Y-46788346D02*
X68407341Y-46645489D01*
X68407341Y-46645489D02*
X68550198Y-46574061D01*
X68550198Y-46574061D02*
X68693055Y-46574061D01*
X68693055Y-46574061D02*
X68835912Y-47288346D01*
X67835912Y-44931204D02*
X69335912Y-44574061D01*
X69335912Y-44574061D02*
X68264484Y-44288347D01*
X68264484Y-44288347D02*
X69335912Y-44002632D01*
X69335912Y-44002632D02*
X67835912Y-43645490D01*
X69335912Y-42431204D02*
X68550198Y-42431204D01*
X68550198Y-42431204D02*
X68407341Y-42502632D01*
X68407341Y-42502632D02*
X68335912Y-42645489D01*
X68335912Y-42645489D02*
X68335912Y-42931204D01*
X68335912Y-42931204D02*
X68407341Y-43074061D01*
X69264484Y-42431204D02*
X69335912Y-42574061D01*
X69335912Y-42574061D02*
X69335912Y-42931204D01*
X69335912Y-42931204D02*
X69264484Y-43074061D01*
X69264484Y-43074061D02*
X69121626Y-43145489D01*
X69121626Y-43145489D02*
X68978769Y-43145489D01*
X68978769Y-43145489D02*
X68835912Y-43074061D01*
X68835912Y-43074061D02*
X68764484Y-42931204D01*
X68764484Y-42931204D02*
X68764484Y-42574061D01*
X68764484Y-42574061D02*
X68693055Y-42431204D01*
X68335912Y-41859775D02*
X69335912Y-41502632D01*
X69335912Y-41502632D02*
X68335912Y-41145489D01*
X69264484Y-40002632D02*
X69335912Y-40145489D01*
X69335912Y-40145489D02*
X69335912Y-40431204D01*
X69335912Y-40431204D02*
X69264484Y-40574061D01*
X69264484Y-40574061D02*
X69121626Y-40645489D01*
X69121626Y-40645489D02*
X68550198Y-40645489D01*
X68550198Y-40645489D02*
X68407341Y-40574061D01*
X68407341Y-40574061D02*
X68335912Y-40431204D01*
X68335912Y-40431204D02*
X68335912Y-40145489D01*
X68335912Y-40145489D02*
X68407341Y-40002632D01*
X68407341Y-40002632D02*
X68550198Y-39931204D01*
X68550198Y-39931204D02*
X68693055Y-39931204D01*
X68693055Y-39931204D02*
X68835912Y-40645489D01*
X69264484Y-39359775D02*
X69335912Y-39216918D01*
X69335912Y-39216918D02*
X69335912Y-38931204D01*
X69335912Y-38931204D02*
X69264484Y-38788347D01*
X69264484Y-38788347D02*
X69121626Y-38716918D01*
X69121626Y-38716918D02*
X69050198Y-38716918D01*
X69050198Y-38716918D02*
X68907341Y-38788347D01*
X68907341Y-38788347D02*
X68835912Y-38931204D01*
X68835912Y-38931204D02*
X68835912Y-39145490D01*
X68835912Y-39145490D02*
X68764484Y-39288347D01*
X68764484Y-39288347D02*
X68621626Y-39359775D01*
X68621626Y-39359775D02*
X68550198Y-39359775D01*
X68550198Y-39359775D02*
X68407341Y-39288347D01*
X68407341Y-39288347D02*
X68335912Y-39145490D01*
X68335912Y-39145490D02*
X68335912Y-38931204D01*
X68335912Y-38931204D02*
X68407341Y-38788347D01*
X69335912Y-38074061D02*
X67835912Y-38074061D01*
X69335912Y-37431204D02*
X68550198Y-37431204D01*
X68550198Y-37431204D02*
X68407341Y-37502632D01*
X68407341Y-37502632D02*
X68335912Y-37645489D01*
X68335912Y-37645489D02*
X68335912Y-37859775D01*
X68335912Y-37859775D02*
X68407341Y-38002632D01*
X68407341Y-38002632D02*
X68478769Y-38074061D01*
X69335912Y-36074061D02*
X68550198Y-36074061D01*
X68550198Y-36074061D02*
X68407341Y-36145489D01*
X68407341Y-36145489D02*
X68335912Y-36288346D01*
X68335912Y-36288346D02*
X68335912Y-36574061D01*
X68335912Y-36574061D02*
X68407341Y-36716918D01*
X69264484Y-36074061D02*
X69335912Y-36216918D01*
X69335912Y-36216918D02*
X69335912Y-36574061D01*
X69335912Y-36574061D02*
X69264484Y-36716918D01*
X69264484Y-36716918D02*
X69121626Y-36788346D01*
X69121626Y-36788346D02*
X68978769Y-36788346D01*
X68978769Y-36788346D02*
X68835912Y-36716918D01*
X68835912Y-36716918D02*
X68764484Y-36574061D01*
X68764484Y-36574061D02*
X68764484Y-36216918D01*
X68764484Y-36216918D02*
X68693055Y-36074061D01*
X69335912Y-35359775D02*
X68335912Y-35359775D01*
X68621626Y-35359775D02*
X68478769Y-35288346D01*
X68478769Y-35288346D02*
X68407341Y-35216918D01*
X68407341Y-35216918D02*
X68335912Y-35074060D01*
X68335912Y-35074060D02*
X68335912Y-34931203D01*
X69264484Y-33859775D02*
X69335912Y-34002632D01*
X69335912Y-34002632D02*
X69335912Y-34288347D01*
X69335912Y-34288347D02*
X69264484Y-34431204D01*
X69264484Y-34431204D02*
X69121626Y-34502632D01*
X69121626Y-34502632D02*
X68550198Y-34502632D01*
X68550198Y-34502632D02*
X68407341Y-34431204D01*
X68407341Y-34431204D02*
X68335912Y-34288347D01*
X68335912Y-34288347D02*
X68335912Y-34002632D01*
X68335912Y-34002632D02*
X68407341Y-33859775D01*
X68407341Y-33859775D02*
X68550198Y-33788347D01*
X68550198Y-33788347D02*
X68693055Y-33788347D01*
X68693055Y-33788347D02*
X68835912Y-34502632D01*
X71750828Y-52145489D02*
X70250828Y-52145489D01*
X70965114Y-52145489D02*
X70965114Y-51288346D01*
X71750828Y-51288346D02*
X70250828Y-51288346D01*
X71750828Y-49931203D02*
X70965114Y-49931203D01*
X70965114Y-49931203D02*
X70822257Y-50002631D01*
X70822257Y-50002631D02*
X70750828Y-50145488D01*
X70750828Y-50145488D02*
X70750828Y-50431203D01*
X70750828Y-50431203D02*
X70822257Y-50574060D01*
X71679400Y-49931203D02*
X71750828Y-50074060D01*
X71750828Y-50074060D02*
X71750828Y-50431203D01*
X71750828Y-50431203D02*
X71679400Y-50574060D01*
X71679400Y-50574060D02*
X71536542Y-50645488D01*
X71536542Y-50645488D02*
X71393685Y-50645488D01*
X71393685Y-50645488D02*
X71250828Y-50574060D01*
X71250828Y-50574060D02*
X71179400Y-50431203D01*
X71179400Y-50431203D02*
X71179400Y-50074060D01*
X71179400Y-50074060D02*
X71107971Y-49931203D01*
X70750828Y-49431202D02*
X70750828Y-48859774D01*
X70250828Y-49216917D02*
X71536542Y-49216917D01*
X71536542Y-49216917D02*
X71679400Y-49145488D01*
X71679400Y-49145488D02*
X71750828Y-49002631D01*
X71750828Y-49002631D02*
X71750828Y-48859774D01*
X70750828Y-47431202D02*
X70750828Y-46859774D01*
X70250828Y-47216917D02*
X71536542Y-47216917D01*
X71536542Y-47216917D02*
X71679400Y-47145488D01*
X71679400Y-47145488D02*
X71750828Y-47002631D01*
X71750828Y-47002631D02*
X71750828Y-46859774D01*
X71750828Y-46359774D02*
X70250828Y-46359774D01*
X71750828Y-45716917D02*
X70965114Y-45716917D01*
X70965114Y-45716917D02*
X70822257Y-45788345D01*
X70822257Y-45788345D02*
X70750828Y-45931202D01*
X70750828Y-45931202D02*
X70750828Y-46145488D01*
X70750828Y-46145488D02*
X70822257Y-46288345D01*
X70822257Y-46288345D02*
X70893685Y-46359774D01*
X71750828Y-45002631D02*
X70750828Y-45002631D01*
X70250828Y-45002631D02*
X70322257Y-45074059D01*
X70322257Y-45074059D02*
X70393685Y-45002631D01*
X70393685Y-45002631D02*
X70322257Y-44931202D01*
X70322257Y-44931202D02*
X70250828Y-45002631D01*
X70250828Y-45002631D02*
X70393685Y-45002631D01*
X71679400Y-44359773D02*
X71750828Y-44216916D01*
X71750828Y-44216916D02*
X71750828Y-43931202D01*
X71750828Y-43931202D02*
X71679400Y-43788345D01*
X71679400Y-43788345D02*
X71536542Y-43716916D01*
X71536542Y-43716916D02*
X71465114Y-43716916D01*
X71465114Y-43716916D02*
X71322257Y-43788345D01*
X71322257Y-43788345D02*
X71250828Y-43931202D01*
X71250828Y-43931202D02*
X71250828Y-44145488D01*
X71250828Y-44145488D02*
X71179400Y-44288345D01*
X71179400Y-44288345D02*
X71036542Y-44359773D01*
X71036542Y-44359773D02*
X70965114Y-44359773D01*
X70965114Y-44359773D02*
X70822257Y-44288345D01*
X70822257Y-44288345D02*
X70750828Y-44145488D01*
X70750828Y-44145488D02*
X70750828Y-43931202D01*
X70750828Y-43931202D02*
X70822257Y-43788345D01*
X71679400Y-42002630D02*
X71750828Y-41859773D01*
X71750828Y-41859773D02*
X71750828Y-41574059D01*
X71750828Y-41574059D02*
X71679400Y-41431202D01*
X71679400Y-41431202D02*
X71536542Y-41359773D01*
X71536542Y-41359773D02*
X71465114Y-41359773D01*
X71465114Y-41359773D02*
X71322257Y-41431202D01*
X71322257Y-41431202D02*
X71250828Y-41574059D01*
X71250828Y-41574059D02*
X71250828Y-41788345D01*
X71250828Y-41788345D02*
X71179400Y-41931202D01*
X71179400Y-41931202D02*
X71036542Y-42002630D01*
X71036542Y-42002630D02*
X70965114Y-42002630D01*
X70965114Y-42002630D02*
X70822257Y-41931202D01*
X70822257Y-41931202D02*
X70750828Y-41788345D01*
X70750828Y-41788345D02*
X70750828Y-41574059D01*
X70750828Y-41574059D02*
X70822257Y-41431202D01*
X71750828Y-40716916D02*
X70750828Y-40716916D01*
X70250828Y-40716916D02*
X70322257Y-40788344D01*
X70322257Y-40788344D02*
X70393685Y-40716916D01*
X70393685Y-40716916D02*
X70322257Y-40645487D01*
X70322257Y-40645487D02*
X70250828Y-40716916D01*
X70250828Y-40716916D02*
X70393685Y-40716916D01*
X71750828Y-39359773D02*
X70250828Y-39359773D01*
X71679400Y-39359773D02*
X71750828Y-39502630D01*
X71750828Y-39502630D02*
X71750828Y-39788344D01*
X71750828Y-39788344D02*
X71679400Y-39931201D01*
X71679400Y-39931201D02*
X71607971Y-40002630D01*
X71607971Y-40002630D02*
X71465114Y-40074058D01*
X71465114Y-40074058D02*
X71036542Y-40074058D01*
X71036542Y-40074058D02*
X70893685Y-40002630D01*
X70893685Y-40002630D02*
X70822257Y-39931201D01*
X70822257Y-39931201D02*
X70750828Y-39788344D01*
X70750828Y-39788344D02*
X70750828Y-39502630D01*
X70750828Y-39502630D02*
X70822257Y-39359773D01*
X71679400Y-38074058D02*
X71750828Y-38216915D01*
X71750828Y-38216915D02*
X71750828Y-38502630D01*
X71750828Y-38502630D02*
X71679400Y-38645487D01*
X71679400Y-38645487D02*
X71536542Y-38716915D01*
X71536542Y-38716915D02*
X70965114Y-38716915D01*
X70965114Y-38716915D02*
X70822257Y-38645487D01*
X70822257Y-38645487D02*
X70750828Y-38502630D01*
X70750828Y-38502630D02*
X70750828Y-38216915D01*
X70750828Y-38216915D02*
X70822257Y-38074058D01*
X70822257Y-38074058D02*
X70965114Y-38002630D01*
X70965114Y-38002630D02*
X71107971Y-38002630D01*
X71107971Y-38002630D02*
X71250828Y-38716915D01*
D11*
X7607419Y-50041904D02*
X8416942Y-50041904D01*
X8416942Y-50041904D02*
X8512180Y-49994285D01*
X8512180Y-49994285D02*
X8559800Y-49946666D01*
X8559800Y-49946666D02*
X8607419Y-49851428D01*
X8607419Y-49851428D02*
X8607419Y-49660952D01*
X8607419Y-49660952D02*
X8559800Y-49565714D01*
X8559800Y-49565714D02*
X8512180Y-49518095D01*
X8512180Y-49518095D02*
X8416942Y-49470476D01*
X8416942Y-49470476D02*
X7607419Y-49470476D01*
X8607419Y-48470476D02*
X8607419Y-49041904D01*
X8607419Y-48756190D02*
X7607419Y-48756190D01*
X7607419Y-48756190D02*
X7750276Y-48851428D01*
X7750276Y-48851428D02*
X7845514Y-48946666D01*
X7845514Y-48946666D02*
X7893133Y-49041904D01*
D14*
X7059428Y-43726147D02*
X8273714Y-43726147D01*
X8273714Y-43726147D02*
X8416571Y-43654718D01*
X8416571Y-43654718D02*
X8488000Y-43583290D01*
X8488000Y-43583290D02*
X8559428Y-43440432D01*
X8559428Y-43440432D02*
X8559428Y-43154718D01*
X8559428Y-43154718D02*
X8488000Y-43011861D01*
X8488000Y-43011861D02*
X8416571Y-42940432D01*
X8416571Y-42940432D02*
X8273714Y-42869004D01*
X8273714Y-42869004D02*
X7059428Y-42869004D01*
X8488000Y-42226146D02*
X8559428Y-42011861D01*
X8559428Y-42011861D02*
X8559428Y-41654718D01*
X8559428Y-41654718D02*
X8488000Y-41511861D01*
X8488000Y-41511861D02*
X8416571Y-41440432D01*
X8416571Y-41440432D02*
X8273714Y-41369003D01*
X8273714Y-41369003D02*
X8130857Y-41369003D01*
X8130857Y-41369003D02*
X7988000Y-41440432D01*
X7988000Y-41440432D02*
X7916571Y-41511861D01*
X7916571Y-41511861D02*
X7845142Y-41654718D01*
X7845142Y-41654718D02*
X7773714Y-41940432D01*
X7773714Y-41940432D02*
X7702285Y-42083289D01*
X7702285Y-42083289D02*
X7630857Y-42154718D01*
X7630857Y-42154718D02*
X7488000Y-42226146D01*
X7488000Y-42226146D02*
X7345142Y-42226146D01*
X7345142Y-42226146D02*
X7202285Y-42154718D01*
X7202285Y-42154718D02*
X7130857Y-42083289D01*
X7130857Y-42083289D02*
X7059428Y-41940432D01*
X7059428Y-41940432D02*
X7059428Y-41583289D01*
X7059428Y-41583289D02*
X7130857Y-41369003D01*
X7773714Y-40226147D02*
X7845142Y-40011861D01*
X7845142Y-40011861D02*
X7916571Y-39940432D01*
X7916571Y-39940432D02*
X8059428Y-39869004D01*
X8059428Y-39869004D02*
X8273714Y-39869004D01*
X8273714Y-39869004D02*
X8416571Y-39940432D01*
X8416571Y-39940432D02*
X8488000Y-40011861D01*
X8488000Y-40011861D02*
X8559428Y-40154718D01*
X8559428Y-40154718D02*
X8559428Y-40726147D01*
X8559428Y-40726147D02*
X7059428Y-40726147D01*
X7059428Y-40726147D02*
X7059428Y-40226147D01*
X7059428Y-40226147D02*
X7130857Y-40083290D01*
X7130857Y-40083290D02*
X7202285Y-40011861D01*
X7202285Y-40011861D02*
X7345142Y-39940432D01*
X7345142Y-39940432D02*
X7488000Y-39940432D01*
X7488000Y-39940432D02*
X7630857Y-40011861D01*
X7630857Y-40011861D02*
X7702285Y-40083290D01*
X7702285Y-40083290D02*
X7773714Y-40226147D01*
X7773714Y-40226147D02*
X7773714Y-40726147D01*
X7988000Y-39226147D02*
X7988000Y-38083290D01*
X8416571Y-36511861D02*
X8488000Y-36583289D01*
X8488000Y-36583289D02*
X8559428Y-36797575D01*
X8559428Y-36797575D02*
X8559428Y-36940432D01*
X8559428Y-36940432D02*
X8488000Y-37154718D01*
X8488000Y-37154718D02*
X8345142Y-37297575D01*
X8345142Y-37297575D02*
X8202285Y-37369004D01*
X8202285Y-37369004D02*
X7916571Y-37440432D01*
X7916571Y-37440432D02*
X7702285Y-37440432D01*
X7702285Y-37440432D02*
X7416571Y-37369004D01*
X7416571Y-37369004D02*
X7273714Y-37297575D01*
X7273714Y-37297575D02*
X7130857Y-37154718D01*
X7130857Y-37154718D02*
X7059428Y-36940432D01*
X7059428Y-36940432D02*
X7059428Y-36797575D01*
X7059428Y-36797575D02*
X7130857Y-36583289D01*
X7130857Y-36583289D02*
X7202285Y-36511861D01*
X21304071Y-43819004D02*
X21375500Y-43890432D01*
X21375500Y-43890432D02*
X21446928Y-44104718D01*
X21446928Y-44104718D02*
X21446928Y-44247575D01*
X21446928Y-44247575D02*
X21375500Y-44461861D01*
X21375500Y-44461861D02*
X21232642Y-44604718D01*
X21232642Y-44604718D02*
X21089785Y-44676147D01*
X21089785Y-44676147D02*
X20804071Y-44747575D01*
X20804071Y-44747575D02*
X20589785Y-44747575D01*
X20589785Y-44747575D02*
X20304071Y-44676147D01*
X20304071Y-44676147D02*
X20161214Y-44604718D01*
X20161214Y-44604718D02*
X20018357Y-44461861D01*
X20018357Y-44461861D02*
X19946928Y-44247575D01*
X19946928Y-44247575D02*
X19946928Y-44104718D01*
X19946928Y-44104718D02*
X20018357Y-43890432D01*
X20018357Y-43890432D02*
X20089785Y-43819004D01*
X19946928Y-43176147D02*
X21161214Y-43176147D01*
X21161214Y-43176147D02*
X21304071Y-43104718D01*
X21304071Y-43104718D02*
X21375500Y-43033290D01*
X21375500Y-43033290D02*
X21446928Y-42890432D01*
X21446928Y-42890432D02*
X21446928Y-42604718D01*
X21446928Y-42604718D02*
X21375500Y-42461861D01*
X21375500Y-42461861D02*
X21304071Y-42390432D01*
X21304071Y-42390432D02*
X21161214Y-42319004D01*
X21161214Y-42319004D02*
X19946928Y-42319004D01*
X19946928Y-41819003D02*
X19946928Y-40961861D01*
X21446928Y-41390432D02*
X19946928Y-41390432D01*
X21589785Y-40819004D02*
X21589785Y-39676146D01*
X19946928Y-39033289D02*
X19946928Y-38747575D01*
X19946928Y-38747575D02*
X20018357Y-38604718D01*
X20018357Y-38604718D02*
X20161214Y-38461861D01*
X20161214Y-38461861D02*
X20446928Y-38390432D01*
X20446928Y-38390432D02*
X20946928Y-38390432D01*
X20946928Y-38390432D02*
X21232642Y-38461861D01*
X21232642Y-38461861D02*
X21375500Y-38604718D01*
X21375500Y-38604718D02*
X21446928Y-38747575D01*
X21446928Y-38747575D02*
X21446928Y-39033289D01*
X21446928Y-39033289D02*
X21375500Y-39176147D01*
X21375500Y-39176147D02*
X21232642Y-39319004D01*
X21232642Y-39319004D02*
X20946928Y-39390432D01*
X20946928Y-39390432D02*
X20446928Y-39390432D01*
X20446928Y-39390432D02*
X20161214Y-39319004D01*
X20161214Y-39319004D02*
X20018357Y-39176147D01*
X20018357Y-39176147D02*
X19946928Y-39033289D01*
X19946928Y-37747575D02*
X21161214Y-37747575D01*
X21161214Y-37747575D02*
X21304071Y-37676146D01*
X21304071Y-37676146D02*
X21375500Y-37604718D01*
X21375500Y-37604718D02*
X21446928Y-37461860D01*
X21446928Y-37461860D02*
X21446928Y-37176146D01*
X21446928Y-37176146D02*
X21375500Y-37033289D01*
X21375500Y-37033289D02*
X21304071Y-36961860D01*
X21304071Y-36961860D02*
X21161214Y-36890432D01*
X21161214Y-36890432D02*
X19946928Y-36890432D01*
X19946928Y-36390431D02*
X19946928Y-35533289D01*
X21446928Y-35961860D02*
X19946928Y-35961860D01*
D12*
X6952219Y-57961904D02*
X7761742Y-57961904D01*
X7761742Y-57961904D02*
X7856980Y-57914285D01*
X7856980Y-57914285D02*
X7904600Y-57866666D01*
X7904600Y-57866666D02*
X7952219Y-57771428D01*
X7952219Y-57771428D02*
X7952219Y-57580952D01*
X7952219Y-57580952D02*
X7904600Y-57485714D01*
X7904600Y-57485714D02*
X7856980Y-57438095D01*
X7856980Y-57438095D02*
X7761742Y-57390476D01*
X7761742Y-57390476D02*
X6952219Y-57390476D01*
X7047457Y-56961904D02*
X6999838Y-56914285D01*
X6999838Y-56914285D02*
X6952219Y-56819047D01*
X6952219Y-56819047D02*
X6952219Y-56580952D01*
X6952219Y-56580952D02*
X6999838Y-56485714D01*
X6999838Y-56485714D02*
X7047457Y-56438095D01*
X7047457Y-56438095D02*
X7142695Y-56390476D01*
X7142695Y-56390476D02*
X7237933Y-56390476D01*
X7237933Y-56390476D02*
X7380790Y-56438095D01*
X7380790Y-56438095D02*
X7952219Y-57009523D01*
X7952219Y-57009523D02*
X7952219Y-56390476D01*
%TO.C,U1*%
D15*
X6610000Y-32780000D02*
X37750000Y-32780000D01*
X37750000Y-47780000D01*
X6610000Y-47780000D01*
X6610000Y-32780000D01*
D11*
X9150000Y-35780000D02*
X13650000Y-35780000D01*
X13650000Y-44780000D01*
X9150000Y-44780000D01*
X9150000Y-35780000D01*
D15*
X9150000Y-29580000D02*
X37650000Y-29580000D01*
X37650000Y-51180000D01*
X9150000Y-51180000D01*
X9150000Y-29580000D01*
%TO.C,U2*%
D13*
X8500000Y-31500000D02*
X8500000Y-55500000D01*
X11500000Y-58500000D02*
X70500000Y-58500000D01*
D16*
X15650000Y-51630000D02*
X15650000Y-56830000D01*
D17*
X19000000Y-40000000D02*
X19000000Y-42000000D01*
X19000000Y-42000000D02*
X21000000Y-44000000D01*
X21000000Y-38000000D02*
X19000000Y-40000000D01*
X21000000Y-44000000D02*
X23000000Y-44000000D01*
X23000000Y-38000000D02*
X21000000Y-38000000D01*
X23000000Y-44000000D02*
X25000000Y-42000000D01*
X25000000Y-40000000D02*
X23000000Y-38000000D01*
X25000000Y-42000000D02*
X25000000Y-40000000D01*
X32000000Y-30500000D02*
X32000000Y-49500000D01*
X32000000Y-49500000D02*
X51000000Y-49500000D01*
X51000000Y-30500000D02*
X32000000Y-30500000D01*
X51000000Y-49500000D02*
X51000000Y-30500000D01*
X58000000Y-33500000D02*
X58000000Y-35500000D01*
X58000000Y-35500000D02*
X62000000Y-35500000D01*
X58000000Y-39500000D02*
X58000000Y-41500000D01*
X58000000Y-41500000D02*
X62000000Y-41500000D01*
X58000000Y-45500000D02*
X58000000Y-47500000D01*
X58000000Y-47500000D02*
X62000000Y-47500000D01*
X62000000Y-33500000D02*
X58000000Y-33500000D01*
X62000000Y-35500000D02*
X62000000Y-33500000D01*
X62000000Y-39500000D02*
X58000000Y-39500000D01*
X62000000Y-41500000D02*
X62000000Y-39500000D01*
X62000000Y-45500000D02*
X58000000Y-45500000D01*
X62000000Y-47500000D02*
X62000000Y-45500000D01*
D16*
X63970000Y-51630000D02*
X15650000Y-51630000D01*
X63970000Y-51630000D02*
X63970000Y-54230000D01*
X63970000Y-54230000D02*
X66570000Y-54230000D01*
X65240000Y-51630000D02*
X66570000Y-51630000D01*
X66570000Y-51630000D02*
X66570000Y-52960000D01*
X66570000Y-54230000D02*
X66570000Y-56830000D01*
X66570000Y-56830000D02*
X15650000Y-56830000D01*
D13*
X70500000Y-28500000D02*
X11500000Y-28500000D01*
X73500000Y-55500000D02*
X73500000Y-31500000D01*
X8500000Y-31500000D02*
G75*
G02*
X11500000Y-28500000I3000000J0D01*
G01*
X11500000Y-58500000D02*
G75*
G02*
X8500000Y-55500000I0J3000000D01*
G01*
X70500000Y-28500000D02*
G75*
G02*
X73500000Y-31500000I-1J-3000001D01*
G01*
X73500000Y-55500000D02*
G75*
G02*
X70500000Y-58500000I-3000001J1D01*
G01*
D18*
X22625000Y-41000000D02*
G75*
G02*
X21375000Y-41000000I-625000J0D01*
G01*
X21375000Y-41000000D02*
G75*
G02*
X22625000Y-41000000I625000J0D01*
G01*
%TD*%
%LPC*%
D19*
%TO.C,U1*%
X10650000Y-49280000D03*
X13190000Y-49280000D03*
X15730000Y-49280000D03*
X18270000Y-49280000D03*
X20810000Y-49280000D03*
X23350000Y-49280000D03*
X25890000Y-49280000D03*
X28430000Y-49280000D03*
X30970000Y-49280000D03*
X33510000Y-49280000D03*
X36050000Y-49280000D03*
X36050000Y-31500000D03*
X33510000Y-31500000D03*
X30970000Y-31500000D03*
X28430000Y-31500000D03*
X25890000Y-31500000D03*
X23350000Y-31500000D03*
X20810000Y-31500000D03*
X18270000Y-31500000D03*
X15730000Y-31500000D03*
X13190000Y-31500000D03*
D20*
X10650000Y-31500000D03*
%TD*%
D21*
%TO.C,U2*%
X70000000Y-55500000D03*
X70000000Y-31500000D03*
X12000000Y-55500000D03*
D22*
X65240000Y-52960000D03*
D23*
X65240000Y-55500000D03*
X62700000Y-52960000D03*
X62700000Y-55500000D03*
X60160000Y-52960000D03*
X60160000Y-55500000D03*
X57620000Y-52960000D03*
X57620000Y-55500000D03*
X55080000Y-52960000D03*
X55080000Y-55500000D03*
X52540000Y-52960000D03*
X52540000Y-55500000D03*
X50000000Y-52960000D03*
X50000000Y-55500000D03*
X47460000Y-52960000D03*
X47460000Y-55500000D03*
X44920000Y-52960000D03*
X44920000Y-55500000D03*
X42380000Y-52960000D03*
X42380000Y-55500000D03*
X39840000Y-52960000D03*
X39840000Y-55500000D03*
X37300000Y-52960000D03*
X37300000Y-55500000D03*
X34760000Y-52960000D03*
X34760000Y-55500000D03*
X32220000Y-52960000D03*
X32220000Y-55500000D03*
X29680000Y-52960000D03*
X29680000Y-55500000D03*
X27140000Y-52960000D03*
X27140000Y-55500000D03*
X24600000Y-52960000D03*
X24600000Y-55500000D03*
X22060000Y-52960000D03*
X22060000Y-55500000D03*
X19520000Y-52960000D03*
X19520000Y-55500000D03*
X16980000Y-52960000D03*
X16980000Y-55500000D03*
%TD*%
%LPD*%
M02*
