%TF.GenerationSoftware,KiCad,Pcbnew,10.0.5*%
%TF.CreationDate,2026-07-27T20:54:21-06:00*%
%TF.ProjectId,seedsigner-luckfox-pico-mini,73656564-7369-4676-9e65-722d6c75636b,sdfsdf*%
%TF.SameCoordinates,Original*%
%TF.FileFunction,Copper,L4,Bot*%
%TF.FilePolarity,Positive*%
%FSLAX46Y46*%
G04 Gerber Fmt 4.6, Leading zero omitted, Abs format (unit mm)*
G04 Created by KiCad (PCBNEW 10.0.5) date 2026-07-27 20:54:21*
%MOMM*%
%LPD*%
G01*
G04 APERTURE LIST*
G04 Aperture macros list*
%AMRoundRect*
0 Rectangle with rounded corners*
0 $1 Rounding radius*
0 $2 $3 $4 $5 $6 $7 $8 $9 X,Y pos of 4 corners*
0 Add a 4 corners polygon primitive as box body*
4,1,4,$2,$3,$4,$5,$6,$7,$8,$9,$2,$3,0*
0 Add four circle primitives for the rounded corners*
1,1,$1+$1,$2,$3*
1,1,$1+$1,$4,$5*
1,1,$1+$1,$6,$7*
1,1,$1+$1,$8,$9*
0 Add four rect primitives between the rounded corners*
20,1,$1+$1,$2,$3,$4,$5,0*
20,1,$1+$1,$4,$5,$6,$7,0*
20,1,$1+$1,$6,$7,$8,$9,0*
20,1,$1+$1,$8,$9,$2,$3,0*%
%AMFreePoly0*
4,1,33,0.221197,0.729189,0.359204,0.672024,0.483408,0.589034,0.589034,0.483408,0.672024,0.359204,0.729189,0.221197,0.758331,0.074689,0.758331,-0.074689,0.729189,-0.221197,0.672024,-0.359204,0.589034,-0.483408,0.483408,-0.589034,0.359204,-0.672024,0.221197,-0.729189,0.074689,-0.758331,-0.074689,-0.758331,-0.221197,-0.729189,-0.359204,-0.672024,-0.483408,-0.589034,-0.589034,-0.483408,
-0.672024,-0.359204,-0.729189,-0.221197,-0.758331,-0.074689,-0.758331,0.074689,-0.729189,0.221197,-0.672024,0.359204,-0.589034,0.483408,-0.483408,0.589034,-0.359204,0.672024,-0.221197,0.729189,-0.074689,0.758331,0.074689,0.758331,0.221197,0.729189,0.221197,0.729189,$1*%
%AMFreePoly1*
4,1,23,0.500000,-0.750000,0.000000,-0.750000,0.000000,-0.745722,-0.065263,-0.745722,-0.191342,-0.711940,-0.304381,-0.646677,-0.396677,-0.554381,-0.461940,-0.441342,-0.495722,-0.315263,-0.495722,-0.250000,-0.500000,-0.250000,-0.500000,0.250000,-0.495722,0.250000,-0.495722,0.315263,-0.461940,0.441342,-0.396677,0.554381,-0.304381,0.646677,-0.191342,0.711940,-0.065263,0.745722,0.000000,0.745722,
0.000000,0.750000,0.500000,0.750000,0.500000,-0.750000,0.500000,-0.750000,$1*%
%AMFreePoly2*
4,1,23,0.000000,0.745722,0.065263,0.745722,0.191342,0.711940,0.304381,0.646677,0.396677,0.554381,0.461940,0.441342,0.495722,0.315263,0.495722,0.250000,0.500000,0.250000,0.500000,-0.250000,0.495722,-0.250000,0.495722,-0.315263,0.461940,-0.441342,0.396677,-0.554381,0.304381,-0.646677,0.191342,-0.711940,0.065263,-0.745722,0.000000,-0.745722,0.000000,-0.750000,-0.500000,-0.750000,
-0.500000,0.750000,0.000000,0.750000,0.000000,0.745722,0.000000,0.745722,$1*%
G04 Aperture macros list end*
%TA.AperFunction,EtchedComponent*%
%ADD10C,0.000000*%
%TD*%
%TA.AperFunction,SMDPad,CuDef*%
%ADD11RoundRect,0.168221X0.392517X-0.956779X0.392517X0.956779X-0.392517X0.956779X-0.392517X-0.956779X0*%
%TD*%
%TA.AperFunction,ComponentPad*%
%ADD12C,1.524000*%
%TD*%
%TA.AperFunction,ComponentPad*%
%ADD13FreePoly0,90.000000*%
%TD*%
%TA.AperFunction,SMDPad,CuDef*%
%ADD14RoundRect,0.168221X0.392517X-0.706779X0.392517X0.706779X-0.392517X0.706779X-0.392517X-0.706779X0*%
%TD*%
%TA.AperFunction,WasherPad*%
%ADD15C,3.500000*%
%TD*%
%TA.AperFunction,ComponentPad*%
%ADD16R,1.700000X1.700000*%
%TD*%
%TA.AperFunction,ComponentPad*%
%ADD17O,1.700000X1.700000*%
%TD*%
%TA.AperFunction,SMDPad,CuDef*%
%ADD18FreePoly1,180.000000*%
%TD*%
%TA.AperFunction,SMDPad,CuDef*%
%ADD19FreePoly2,180.000000*%
%TD*%
%TA.AperFunction,SMDPad,CuDef*%
%ADD20FreePoly1,0.000000*%
%TD*%
%TA.AperFunction,SMDPad,CuDef*%
%ADD21FreePoly2,0.000000*%
%TD*%
%TA.AperFunction,ViaPad*%
%ADD22C,0.500000*%
%TD*%
%TA.AperFunction,Conductor*%
%ADD23C,0.150000*%
%TD*%
G04 APERTURE END LIST*
D10*
%TA.AperFunction,EtchedComponent*%
%TO.C,JP3*%
G36*
X54250000Y-40900000D02*
G01*
X53750000Y-40900000D01*
X53750000Y-40300000D01*
X54250000Y-40300000D01*
X54250000Y-40900000D01*
G37*
%TD.AperFunction*%
%TA.AperFunction,EtchedComponent*%
%TO.C,JP1*%
G36*
X63050000Y-46600000D02*
G01*
X62550000Y-46600000D01*
X62550000Y-46000000D01*
X63050000Y-46000000D01*
X63050000Y-46600000D01*
G37*
%TD.AperFunction*%
%TA.AperFunction,EtchedComponent*%
%TO.C,JP5*%
G36*
X54250000Y-35200000D02*
G01*
X53750000Y-35200000D01*
X53750000Y-34600000D01*
X54250000Y-34600000D01*
X54250000Y-35200000D01*
G37*
%TD.AperFunction*%
%TD*%
D11*
%TO.P,U1,1,VBUS_1*%
%TO.N,+5V*%
X10650000Y-50930000D03*
D12*
X10650000Y-49280000D03*
D11*
%TO.P,U1,2,GND_2*%
%TO.N,GND*%
X13190000Y-50930000D03*
D12*
X13190000Y-49280000D03*
D11*
%TO.P,U1,3,3V3(OUT)_3*%
%TO.N,+3.3V*%
X15730000Y-50930000D03*
D12*
X15730000Y-49280000D03*
D11*
%TO.P,U1,4,GPIO1_B2_d_4*%
%TO.N,/UART_TXD*%
X18270000Y-50930000D03*
D12*
X18270000Y-49280000D03*
D11*
%TO.P,U1,5,GPIO1_B3_u_5*%
%TO.N,/UART_RXD*%
X20810000Y-50930000D03*
D12*
X20810000Y-49280000D03*
D11*
%TO.P,U1,6,SPI0_CS0_M0/IO1_C0_d_6*%
%TO.N,Net-(JP5-B)*%
X23350000Y-50930000D03*
D12*
X23350000Y-49280000D03*
D11*
%TO.P,U1,7,SPI0_CLK_M0/IO1_C1_d_7*%
%TO.N,/SPI_SCLK*%
X25890000Y-50930000D03*
D12*
X25890000Y-49280000D03*
D11*
%TO.P,U1,8,SPI0_MOSI_M0/GPIO1_C2_d_8*%
%TO.N,/SPI_MOSI*%
X28430000Y-50930000D03*
D12*
X28430000Y-49280000D03*
D11*
%TO.P,U1,9,SPI0_MISO_M0/GPIO1_C3_d_9*%
%TO.N,/RST*%
X30970000Y-50930000D03*
D12*
X30970000Y-49280000D03*
D11*
%TO.P,U1,10,GPIO1_C4_d_10*%
%TO.N,/DC*%
X33510000Y-50930000D03*
D12*
X33510000Y-49280000D03*
D11*
%TO.P,U1,11,GPIO1_C5_d_11*%
%TO.N,/KEY3*%
X36050000Y-50930000D03*
D12*
X36050000Y-49280000D03*
%TO.P,U1,12,GPIO1_D0_d_12*%
%TO.N,/JOYSTICK_LEFT*%
X36050000Y-31500000D03*
D11*
X36050000Y-29875000D03*
D12*
%TO.P,U1,13,GPIO1_D1_d_13*%
%TO.N,/JOYSTICK_UP*%
X33510000Y-31500000D03*
D11*
X33510000Y-29875000D03*
D12*
%TO.P,U1,14,GPIO1_D2_d_14*%
%TO.N,/I2C-SDA*%
X30970000Y-31500000D03*
D11*
X30970000Y-29875000D03*
D12*
%TO.P,U1,15,GPIO1_D3_d_15*%
%TO.N,/I2C-SCL*%
X28430000Y-31500000D03*
D11*
X28430000Y-29875000D03*
D12*
%TO.P,U1,16,GPIO1_C6_d_16*%
%TO.N,/JOYSTICK_PRESS*%
X25890000Y-31500000D03*
D11*
X25890000Y-29875000D03*
D12*
%TO.P,U1,17,GPIO1_C7_d_17*%
%TO.N,/JOYSTICK_DOWN*%
X23350000Y-31500000D03*
D11*
X23350000Y-29875000D03*
D12*
%TO.P,U1,18,GPIO0_A4_d_18*%
%TO.N,/JOYSTICK_RIGHT*%
X20810000Y-31500000D03*
D11*
X20810000Y-29875000D03*
D12*
%TO.P,U1,19,GPIO4_C0_z_19*%
%TO.N,/KEY1*%
X18270000Y-31500000D03*
D11*
X18270000Y-29875000D03*
D12*
%TO.P,U1,20,GPIO4_C1_z_20*%
%TO.N,/KEY2*%
X15730000Y-31500000D03*
D11*
X15730000Y-29875000D03*
D12*
%TO.P,U1,21,GND_21*%
%TO.N,GND*%
X13190000Y-31500000D03*
D11*
X13190000Y-29875000D03*
D13*
%TO.P,U1,22,1V8(OUT)_22*%
%TO.N,unconnected-(U1-1V8(OUT)-Pad22)*%
X10650000Y-31500000D03*
D14*
X10650000Y-30080000D03*
%TD*%
D15*
%TO.P,U2,*%
%TO.N,*%
X70000000Y-55500000D03*
X70000000Y-31500000D03*
X12000000Y-55500000D03*
D16*
%TO.P,U2,1,3V3_1*%
%TO.N,+3.3V*%
X65240000Y-52960000D03*
D17*
%TO.P,U2,2,5V0_2*%
%TO.N,+5V*%
X65240000Y-55500000D03*
%TO.P,U2,3,I2C-SDA_3*%
%TO.N,/I2C-SDA*%
X62700000Y-52960000D03*
%TO.P,U2,4,5V0_4*%
%TO.N,+5V*%
X62700000Y-55500000D03*
%TO.P,U2,5,I2C-SCL_5*%
%TO.N,/I2C-SCL*%
X60160000Y-52960000D03*
%TO.P,U2,6,GND_6*%
%TO.N,GND*%
X60160000Y-55500000D03*
%TO.P,U2,7*%
%TO.N,N/C*%
X57620000Y-52960000D03*
%TO.P,U2,8,UART-TXDO_8*%
%TO.N,/UART_TXD*%
X57620000Y-55500000D03*
%TO.P,U2,9,GND_9*%
%TO.N,GND*%
X55080000Y-52960000D03*
%TO.P,U2,10,UART-RXDO_10*%
%TO.N,/UART_RXD*%
X55080000Y-55500000D03*
%TO.P,U2,11*%
%TO.N,N/C*%
X52540000Y-52960000D03*
%TO.P,U2,12*%
X52540000Y-55500000D03*
%TO.P,U2,13,RESET_13*%
%TO.N,/RST*%
X50000000Y-52960000D03*
%TO.P,U2,14,GND_14*%
%TO.N,GND*%
X50000000Y-55500000D03*
%TO.P,U2,15*%
%TO.N,N/C*%
X47460000Y-52960000D03*
%TO.P,U2,16*%
X47460000Y-55500000D03*
%TO.P,U2,17,3V3_17*%
%TO.N,+3.3V*%
X44920000Y-52960000D03*
%TO.P,U2,18,BACKLIGHT_18*%
%TO.N,/RPI_BACKLIGHT*%
X44920000Y-55500000D03*
%TO.P,U2,19,SPI_MOSI_19*%
%TO.N,/SPI_MOSI*%
X42380000Y-52960000D03*
%TO.P,U2,20,GND_20*%
%TO.N,GND*%
X42380000Y-55500000D03*
%TO.P,U2,21*%
%TO.N,N/C*%
X39840000Y-52960000D03*
%TO.P,U2,22,DC_22*%
%TO.N,/DC*%
X39840000Y-55500000D03*
%TO.P,U2,23,SPI_SCLK_23*%
%TO.N,/SPI_SCLK*%
X37300000Y-52960000D03*
%TO.P,U2,24,~{SPI_CS0}_24*%
%TO.N,/RPI_SPI_CS*%
X37300000Y-55500000D03*
%TO.P,U2,25,GND_25*%
%TO.N,GND*%
X34760000Y-52960000D03*
%TO.P,U2,26*%
%TO.N,N/C*%
X34760000Y-55500000D03*
%TO.P,U2,27*%
X32220000Y-52960000D03*
%TO.P,U2,28*%
X32220000Y-55500000D03*
%TO.P,U2,29,JS_LEFT_29*%
%TO.N,/JOYSTICK_LEFT*%
X29680000Y-52960000D03*
%TO.P,U2,30,GND_30*%
%TO.N,GND*%
X29680000Y-55500000D03*
%TO.P,U2,31,JS_UP_31*%
%TO.N,/JOYSTICK_UP*%
X27140000Y-52960000D03*
%TO.P,U2,32*%
%TO.N,N/C*%
X27140000Y-55500000D03*
%TO.P,U2,33,JS_PRESS_33*%
%TO.N,/JOYSTICK_PRESS*%
X24600000Y-52960000D03*
%TO.P,U2,34,GND_34*%
%TO.N,GND*%
X24600000Y-55500000D03*
%TO.P,U2,35,JS_DOWN_35*%
%TO.N,/JOYSTICK_DOWN*%
X22060000Y-52960000D03*
%TO.P,U2,36,KEY3_36*%
%TO.N,/KEY3*%
X22060000Y-55500000D03*
%TO.P,U2,37,JS_RIGHT_37*%
%TO.N,/JOYSTICK_RIGHT*%
X19520000Y-52960000D03*
%TO.P,U2,38,KEY2_38*%
%TO.N,/KEY2*%
X19520000Y-55500000D03*
%TO.P,U2,39,GND_39*%
%TO.N,GND*%
X16980000Y-52960000D03*
%TO.P,U2,40,KEY1_40*%
%TO.N,/KEY1*%
X16980000Y-55500000D03*
%TD*%
D18*
%TO.P,JP2,1,A_1*%
%TO.N,/MCU_BACKLIGHT*%
X63450000Y-40600000D03*
D19*
%TO.P,JP2,2,B_2*%
%TO.N,/RPI_BACKLIGHT*%
X62150000Y-40600000D03*
%TD*%
D20*
%TO.P,JP4,1,A_1*%
%TO.N,GND*%
X53350000Y-46300000D03*
D21*
%TO.P,JP4,2,B_2*%
%TO.N,/RPI_SPI_CS*%
X54650000Y-46300000D03*
%TD*%
D18*
%TO.P,JP6,1,A_1*%
%TO.N,/MCU_BACKLIGHT*%
X63450000Y-34900000D03*
D19*
%TO.P,JP6,2,B_2*%
%TO.N,Net-(JP5-B)*%
X62150000Y-34900000D03*
%TD*%
D20*
%TO.P,JP3,1,A_1*%
%TO.N,/MCU_SPI_CS*%
X53350000Y-40600000D03*
D21*
%TO.P,JP3,2,B_2*%
%TO.N,/RPI_SPI_CS*%
X54650000Y-40600000D03*
%TD*%
D18*
%TO.P,JP1,1,A_1*%
%TO.N,+3.3V*%
X63450000Y-46300000D03*
D19*
%TO.P,JP1,2,B_2*%
%TO.N,/RPI_BACKLIGHT*%
X62150000Y-46300000D03*
%TD*%
D20*
%TO.P,JP5,1,A_1*%
%TO.N,/MCU_SPI_CS*%
X53350000Y-34900000D03*
D21*
%TO.P,JP5,2,B_2*%
%TO.N,Net-(JP5-B)*%
X54650000Y-34900000D03*
%TD*%
D22*
%TO.N,GND*%
X58825000Y-56575000D03*
X47275000Y-44925000D03*
X15300000Y-56925000D03*
X34800000Y-31900000D03*
X37300000Y-31495000D03*
X33475000Y-56375000D03*
X52520000Y-49810000D03*
X38500000Y-49000000D03*
X62725000Y-51475000D03*
X24599978Y-48631452D03*
X31120000Y-56390000D03*
X51880000Y-51710000D03*
X43575000Y-48875000D03*
X44700000Y-50025000D03*
X37200000Y-33200000D03*
X47060000Y-37160000D03*
X38525000Y-56350000D03*
X61420000Y-54920000D03*
X36100000Y-56400000D03*
X47200000Y-50325000D03*
X53725000Y-52050000D03*
X41600000Y-34000000D03*
X16900000Y-32000000D03*
X32200000Y-48700000D03*
X29600000Y-32000000D03*
X39680000Y-48800000D03*
X51275000Y-56025000D03*
X45850000Y-31500000D03*
X42760000Y-41180000D03*
X38570000Y-33220000D03*
X19500000Y-32000000D03*
X27100000Y-48700000D03*
X64025000Y-57075000D03*
X43319000Y-53850000D03*
X23175000Y-56575000D03*
X43875000Y-31125000D03*
X43782156Y-56700001D03*
X61500000Y-56675000D03*
X23320000Y-55020000D03*
X46250000Y-29500000D03*
X45800000Y-56600000D03*
X13900000Y-52800000D03*
X27000000Y-32000000D03*
X41700000Y-48600000D03*
X36100000Y-53785000D03*
X34799972Y-48638706D03*
X41350000Y-56300000D03*
X29700000Y-48700000D03*
X19500000Y-48700000D03*
X9200000Y-49000000D03*
X22100000Y-48700000D03*
X50830083Y-54748842D03*
X59000000Y-54810000D03*
X25825000Y-56525000D03*
X39660000Y-33340000D03*
X22000000Y-32000000D03*
X42625000Y-38775000D03*
X56500000Y-43950000D03*
X24500000Y-32000000D03*
X10400000Y-52675000D03*
X15750000Y-54425000D03*
X27770000Y-56660000D03*
X48750000Y-51950000D03*
X53775000Y-53725000D03*
X56775000Y-50375000D03*
X11900000Y-29700000D03*
X56450000Y-37950000D03*
X56725000Y-48100000D03*
X13520000Y-57750000D03*
X56300000Y-54325000D03*
X43625000Y-32700000D03*
X47375000Y-40000000D03*
X32200000Y-32100000D03*
X50210000Y-50120000D03*
X49920000Y-41870000D03*
X42650000Y-44550000D03*
X30960000Y-53630000D03*
X65450000Y-29625000D03*
X18400000Y-56825000D03*
X47110000Y-38360000D03*
X56175000Y-30150000D03*
X45775000Y-51175000D03*
X66875000Y-51075000D03*
%TO.N,Net-(JP5-B)*%
X54375000Y-36400000D03*
%TO.N,/I2C-SDA*%
X40940000Y-32840000D03*
%TO.N,/JOYSTICK_DOWN*%
X24600000Y-51275000D03*
%TO.N,/I2C-SCL*%
X42160000Y-33500000D03*
%TO.N,/RPI_SPI_CS*%
X48350000Y-48680000D03*
X54210000Y-48270000D03*
%TD*%
%TO.N,GND*%
D23*
X51275000Y-56025000D02*
X50525000Y-56025000D01*
X59000000Y-54810000D02*
X59470000Y-54810000D01*
X50525000Y-56025000D02*
X50000000Y-55500000D01*
X15750000Y-54425000D02*
X15750000Y-54190000D01*
X60740000Y-54920000D02*
X60160000Y-55500000D01*
X59470000Y-54810000D02*
X60160000Y-55500000D01*
X15750000Y-54190000D02*
X16980000Y-52960000D01*
X50751158Y-54748842D02*
X50000000Y-55500000D01*
X61420000Y-54920000D02*
X60740000Y-54920000D01*
X23500000Y-54400000D02*
X24600000Y-55500000D01*
X23275000Y-54400000D02*
X23500000Y-54400000D01*
X50830083Y-54748842D02*
X50751158Y-54748842D01*
%TO.N,+5V*%
X65240000Y-55500000D02*
X62700000Y-55500000D01*
%TO.N,+3.3V*%
X65240000Y-48090000D02*
X63450000Y-46300000D01*
X65240000Y-52960000D02*
X65240000Y-48090000D01*
%TO.N,Net-(JP5-B)*%
X62150000Y-34900000D02*
X54650000Y-34900000D01*
X54650000Y-36125000D02*
X54375000Y-36400000D01*
X54650000Y-34900000D02*
X54650000Y-36125000D01*
%TO.N,/DC*%
X34502950Y-54260000D02*
X38600000Y-54260000D01*
X38600000Y-54260000D02*
X39840000Y-55500000D01*
X33360000Y-53117050D02*
X34502950Y-54260000D01*
X33360000Y-51850000D02*
X33360000Y-53117050D01*
%TO.N,/I2C-SDA*%
X61390000Y-54270000D02*
X59540000Y-54270000D01*
X58870000Y-52290000D02*
X57456000Y-50876000D01*
X59540000Y-54270000D02*
X58870000Y-53600000D01*
X47000000Y-40500000D02*
X42750000Y-40500000D01*
X30406000Y-31545389D02*
X30406000Y-30244000D01*
X58870000Y-53600000D02*
X58870000Y-52290000D01*
X52126000Y-50876000D02*
X50000000Y-48750000D01*
X50000000Y-48750000D02*
X50000000Y-43500000D01*
X42750000Y-40500000D02*
X40940000Y-38690000D01*
X57456000Y-50876000D02*
X52126000Y-50876000D01*
X50000000Y-43500000D02*
X47000000Y-40500000D01*
X62700000Y-52960000D02*
X61390000Y-54270000D01*
X40940000Y-38690000D02*
X40940000Y-32840000D01*
%TO.N,/SPI_SCLK*%
X25790000Y-50830000D02*
X26065000Y-51105000D01*
X26065000Y-51105000D02*
X26065000Y-55945280D01*
X43794000Y-55606280D02*
X43794000Y-52394000D01*
X27444720Y-57325000D02*
X42075280Y-57325000D01*
X42075280Y-57325000D02*
X43794000Y-55606280D01*
X38660000Y-51600000D02*
X37300000Y-52960000D01*
X43794000Y-52394000D02*
X43000000Y-51600000D01*
X26065000Y-55945280D02*
X27444720Y-57325000D01*
X43000000Y-51600000D02*
X38660000Y-51600000D01*
%TO.N,/SPI_MOSI*%
X41279000Y-55618050D02*
X41279000Y-54061000D01*
X28450000Y-52020000D02*
X28450000Y-55791694D01*
X29683306Y-57025000D02*
X39872050Y-57025000D01*
X39872050Y-57025000D02*
X41279000Y-55618050D01*
X41279000Y-54061000D02*
X42380000Y-52960000D01*
X28450000Y-55791694D02*
X29683306Y-57025000D01*
%TO.N,/I2C-SCL*%
X43480854Y-37750000D02*
X42160000Y-36429146D01*
X59090000Y-49350000D02*
X53600000Y-49350000D01*
X60160000Y-50420000D02*
X59090000Y-49350000D01*
X47250000Y-37750000D02*
X43480854Y-37750000D01*
X53600000Y-49350000D02*
X51500000Y-47250000D01*
X51500000Y-42000000D02*
X47250000Y-37750000D01*
X51500000Y-47250000D02*
X51500000Y-42000000D01*
X42160000Y-36429146D02*
X42160000Y-33500000D01*
X60160000Y-52960000D02*
X60160000Y-50420000D01*
%TO.N,/RPI_BACKLIGHT*%
X62150000Y-46300000D02*
X62150000Y-40600000D01*
X65119000Y-57551000D02*
X66590000Y-56080000D01*
X44920000Y-55500000D02*
X45420000Y-55500000D01*
X66590000Y-54950000D02*
X65930000Y-54290000D01*
X45420000Y-55500000D02*
X47471000Y-57551000D01*
X65930000Y-54290000D02*
X63920000Y-54290000D01*
X66590000Y-56080000D02*
X66590000Y-54950000D01*
X63920000Y-54290000D02*
X63920000Y-48780000D01*
X63920000Y-48780000D02*
X62150000Y-47010000D01*
X62150000Y-47010000D02*
X62150000Y-46300000D01*
X47471000Y-57551000D02*
X65119000Y-57551000D01*
%TO.N,/RPI_SPI_CS*%
X54650000Y-40600000D02*
X54650000Y-46300000D01*
X54650000Y-47830000D02*
X54210000Y-48270000D01*
X54650000Y-46300000D02*
X54650000Y-47830000D01*
%TO.N,/MCU_BACKLIGHT*%
X63450000Y-40600000D02*
X63450000Y-34900000D01*
%TO.N,/MCU_SPI_CS*%
X53350000Y-34900000D02*
X53350000Y-40600000D01*
%TD*%
%TA.AperFunction,Conductor*%
%TO.N,GND*%
G36*
X70503472Y-28700695D02*
G01*
X70806500Y-28717713D01*
X70820301Y-28719268D01*
X71116088Y-28769524D01*
X71129627Y-28772614D01*
X71417930Y-28855673D01*
X71431049Y-28860263D01*
X71708229Y-28975075D01*
X71720743Y-28981101D01*
X71983344Y-29126236D01*
X71995099Y-29133623D01*
X72239779Y-29307233D01*
X72250639Y-29315892D01*
X72474352Y-29515814D01*
X72484183Y-29525645D01*
X72681903Y-29746894D01*
X72684102Y-29749354D01*
X72692768Y-29760222D01*
X72863084Y-30000260D01*
X72866370Y-30004890D01*
X72873766Y-30016660D01*
X72901754Y-30067299D01*
X73018894Y-30279249D01*
X73024927Y-30291777D01*
X73139735Y-30568949D01*
X73144328Y-30582074D01*
X73227382Y-30870361D01*
X73230476Y-30883918D01*
X73280730Y-31179690D01*
X73282287Y-31193508D01*
X73299305Y-31496527D01*
X73299500Y-31503480D01*
X73299500Y-55496519D01*
X73299305Y-55503472D01*
X73282287Y-55806491D01*
X73280730Y-55820309D01*
X73230476Y-56116081D01*
X73227382Y-56129638D01*
X73144328Y-56417925D01*
X73139735Y-56431050D01*
X73024927Y-56708222D01*
X73018894Y-56720750D01*
X72873769Y-56983335D01*
X72866370Y-56995109D01*
X72692771Y-57239773D01*
X72684102Y-57250645D01*
X72484185Y-57474352D01*
X72474352Y-57484185D01*
X72250645Y-57684102D01*
X72239773Y-57692771D01*
X71995109Y-57866370D01*
X71983335Y-57873769D01*
X71720750Y-58018894D01*
X71708222Y-58024927D01*
X71431050Y-58139735D01*
X71417925Y-58144328D01*
X71129638Y-58227382D01*
X71116081Y-58230476D01*
X70820309Y-58280730D01*
X70806491Y-58282287D01*
X70503472Y-58299305D01*
X70496519Y-58299500D01*
X11503481Y-58299500D01*
X11496528Y-58299305D01*
X11193508Y-58282287D01*
X11179690Y-58280730D01*
X10883918Y-58230476D01*
X10870361Y-58227382D01*
X10582074Y-58144328D01*
X10568949Y-58139735D01*
X10291777Y-58024927D01*
X10279249Y-58018894D01*
X10016660Y-57873766D01*
X10004895Y-57866373D01*
X9760222Y-57692768D01*
X9749354Y-57684102D01*
X9655803Y-57600500D01*
X9525645Y-57484183D01*
X9515814Y-57474352D01*
X9494498Y-57450499D01*
X9315892Y-57250639D01*
X9307233Y-57239779D01*
X9133623Y-56995099D01*
X9126236Y-56983344D01*
X8981101Y-56720743D01*
X8975075Y-56708229D01*
X8860263Y-56431049D01*
X8855671Y-56417925D01*
X8772614Y-56129627D01*
X8769523Y-56116081D01*
X8767018Y-56101338D01*
X8719268Y-55820301D01*
X8717713Y-55806500D01*
X8700695Y-55503472D01*
X8700500Y-55496519D01*
X8700500Y-55372149D01*
X10049500Y-55372149D01*
X10049500Y-55627850D01*
X10074839Y-55820309D01*
X10082874Y-55881340D01*
X10147612Y-56122947D01*
X10149050Y-56128312D01*
X10149053Y-56128322D01*
X10246894Y-56364531D01*
X10246899Y-56364542D01*
X10374734Y-56585957D01*
X10374745Y-56585973D01*
X10530388Y-56788811D01*
X10530394Y-56788818D01*
X10711181Y-56969605D01*
X10711188Y-56969611D01*
X10855638Y-57080452D01*
X10914035Y-57125261D01*
X10914042Y-57125265D01*
X11135457Y-57253100D01*
X11135462Y-57253102D01*
X11135465Y-57253104D01*
X11371687Y-57350950D01*
X11618660Y-57417126D01*
X11872157Y-57450500D01*
X11872164Y-57450500D01*
X12127836Y-57450500D01*
X12127843Y-57450500D01*
X12381340Y-57417126D01*
X12628313Y-57350950D01*
X12864535Y-57253104D01*
X13085965Y-57125261D01*
X13288813Y-56969610D01*
X13469610Y-56788813D01*
X13625261Y-56585965D01*
X13753104Y-56364535D01*
X13850950Y-56128313D01*
X13917126Y-55881340D01*
X13950500Y-55627843D01*
X13950500Y-55372157D01*
X13917126Y-55118660D01*
X13850950Y-54871687D01*
X13847290Y-54862852D01*
X13786646Y-54716443D01*
X13753104Y-54635465D01*
X13753102Y-54635462D01*
X13753100Y-54635457D01*
X13633292Y-54427945D01*
X13625261Y-54414035D01*
X13518875Y-54275390D01*
X13469611Y-54211188D01*
X13469605Y-54211181D01*
X13288818Y-54030394D01*
X13288811Y-54030388D01*
X13085973Y-53874745D01*
X13085971Y-53874743D01*
X13085965Y-53874739D01*
X13085960Y-53874736D01*
X13085957Y-53874734D01*
X12864542Y-53746899D01*
X12864531Y-53746894D01*
X12628322Y-53649053D01*
X12628315Y-53649051D01*
X12628313Y-53649050D01*
X12381340Y-53582874D01*
X12325007Y-53575457D01*
X12127850Y-53549500D01*
X12127843Y-53549500D01*
X11872157Y-53549500D01*
X11872149Y-53549500D01*
X11655780Y-53577987D01*
X11618660Y-53582874D01*
X11444063Y-53629657D01*
X11371687Y-53649050D01*
X11371677Y-53649053D01*
X11135468Y-53746894D01*
X11135457Y-53746899D01*
X10914042Y-53874734D01*
X10914026Y-53874745D01*
X10711188Y-54030388D01*
X10711181Y-54030394D01*
X10530394Y-54211181D01*
X10530388Y-54211188D01*
X10374745Y-54414026D01*
X10374734Y-54414042D01*
X10246899Y-54635457D01*
X10246894Y-54635468D01*
X10149053Y-54871677D01*
X10149050Y-54871687D01*
X10087901Y-55099901D01*
X10082874Y-55118661D01*
X10049500Y-55372149D01*
X8700500Y-55372149D01*
X8700500Y-48494731D01*
X8720185Y-48427692D01*
X8772989Y-48381937D01*
X8824586Y-48370731D01*
X9898052Y-48371494D01*
X9965076Y-48391226D01*
X10010793Y-48444063D01*
X10020687Y-48513228D01*
X9991617Y-48576763D01*
X9985644Y-48583175D01*
X9902377Y-48666442D01*
X9797042Y-48824087D01*
X9724488Y-48999248D01*
X9724486Y-48999256D01*
X9687500Y-49185197D01*
X9687500Y-49374802D01*
X9724486Y-49560743D01*
X9724488Y-49560751D01*
X9797042Y-49735912D01*
X9870071Y-49845207D01*
X9890949Y-49911885D01*
X9889674Y-49931971D01*
X9888762Y-49938232D01*
X9888762Y-51921763D01*
X9889223Y-51924928D01*
X9899205Y-51993443D01*
X9926360Y-52048990D01*
X9953252Y-52103999D01*
X10040262Y-52191009D01*
X10040263Y-52191009D01*
X10040265Y-52191011D01*
X10150819Y-52245057D01*
X10222493Y-52255500D01*
X11077506Y-52255499D01*
X11149181Y-52245057D01*
X11155230Y-52242100D01*
X12231451Y-52242100D01*
X12267611Y-52301915D01*
X12382348Y-52416652D01*
X12521225Y-52500606D01*
X12521224Y-52500606D01*
X12676147Y-52548881D01*
X12676145Y-52548881D01*
X12743475Y-52554999D01*
X13636533Y-52554999D01*
X13703845Y-52548883D01*
X13703852Y-52548881D01*
X13858774Y-52500606D01*
X13997649Y-52416653D01*
X14112395Y-52301906D01*
X14148548Y-52242101D01*
X14148547Y-52242099D01*
X13190000Y-51283553D01*
X12231451Y-52242100D01*
X11155230Y-52242100D01*
X11259735Y-52191011D01*
X11264202Y-52186544D01*
X11268796Y-52181951D01*
X11346747Y-52103999D01*
X11346749Y-52103997D01*
X11400795Y-51993443D01*
X11411238Y-51921769D01*
X11411238Y-51637184D01*
X12129262Y-51637184D01*
X12836447Y-50930000D01*
X12836447Y-50929999D01*
X13543553Y-50929999D01*
X13543553Y-50930001D01*
X14250736Y-51637184D01*
X14250737Y-51637183D01*
X14250737Y-50222815D01*
X14250736Y-50222814D01*
X13543553Y-50929999D01*
X12836447Y-50929999D01*
X12129262Y-50222814D01*
X12129262Y-51637184D01*
X11411238Y-51637184D01*
X11411237Y-49938232D01*
X11409116Y-49923679D01*
X11409035Y-49915311D01*
X11416359Y-49889431D01*
X11420135Y-49862806D01*
X11427789Y-49849049D01*
X11428063Y-49848082D01*
X11428583Y-49847622D01*
X11429918Y-49845223D01*
X11502956Y-49735915D01*
X11575512Y-49560751D01*
X11612500Y-49374798D01*
X11612500Y-49185202D01*
X11575512Y-48999249D01*
X11502956Y-48824085D01*
X11467686Y-48771300D01*
X11397622Y-48666441D01*
X11315426Y-48584245D01*
X11281941Y-48522922D01*
X11286925Y-48453230D01*
X11328797Y-48397297D01*
X11394261Y-48372880D01*
X11403181Y-48372564D01*
X12045769Y-48373021D01*
X12112790Y-48392752D01*
X12158508Y-48445589D01*
X12168402Y-48514754D01*
X12145996Y-48569904D01*
X12110642Y-48618565D01*
X12020457Y-48795562D01*
X11959075Y-48984476D01*
X11959075Y-48984479D01*
X11928000Y-49180678D01*
X11928000Y-49379321D01*
X11959075Y-49575520D01*
X11959075Y-49575523D01*
X11999261Y-49699202D01*
X11999262Y-49699202D01*
X11999262Y-49685071D01*
X12018947Y-49618032D01*
X12071751Y-49572277D01*
X12140909Y-49562333D01*
X12204465Y-49591358D01*
X12210943Y-49597390D01*
X13190000Y-50576447D01*
X14169057Y-49597390D01*
X14230380Y-49563905D01*
X14300072Y-49568889D01*
X14356005Y-49610761D01*
X14380422Y-49676225D01*
X14380738Y-49685071D01*
X14380738Y-49699202D01*
X14420924Y-49575523D01*
X14420924Y-49575520D01*
X14452000Y-49379321D01*
X14452000Y-49180678D01*
X14420924Y-48984479D01*
X14420924Y-48984476D01*
X14359542Y-48795562D01*
X14269358Y-48618567D01*
X14235187Y-48571535D01*
X14211707Y-48505729D01*
X14227532Y-48437675D01*
X14277638Y-48388980D01*
X14335589Y-48374649D01*
X14974440Y-48375104D01*
X15041466Y-48394836D01*
X15087183Y-48447673D01*
X15097077Y-48516838D01*
X15068007Y-48580373D01*
X15062034Y-48586785D01*
X14982377Y-48666442D01*
X14877042Y-48824087D01*
X14804488Y-48999248D01*
X14804486Y-48999256D01*
X14767500Y-49185197D01*
X14767500Y-49374802D01*
X14804486Y-49560743D01*
X14804488Y-49560751D01*
X14877042Y-49735912D01*
X14950071Y-49845207D01*
X14970949Y-49911885D01*
X14969674Y-49931971D01*
X14968762Y-49938232D01*
X14968762Y-51921763D01*
X14969223Y-51924928D01*
X14979205Y-51993443D01*
X15006360Y-52048990D01*
X15033252Y-52103999D01*
X15120262Y-52191009D01*
X15120263Y-52191009D01*
X15120265Y-52191011D01*
X15230819Y-52245057D01*
X15302493Y-52255500D01*
X15621472Y-52255499D01*
X15688509Y-52275183D01*
X15734264Y-52327987D01*
X15744208Y-52397146D01*
X15731959Y-52435786D01*
X15728905Y-52441780D01*
X15663242Y-52643870D01*
X15663242Y-52643873D01*
X15652769Y-52710000D01*
X16546988Y-52710000D01*
X16514075Y-52767007D01*
X16480000Y-52894174D01*
X16480000Y-53025826D01*
X16514075Y-53152993D01*
X16546988Y-53210000D01*
X15652769Y-53210000D01*
X15663242Y-53276126D01*
X15663242Y-53276129D01*
X15728904Y-53478217D01*
X15825379Y-53667557D01*
X15950272Y-53839459D01*
X15950276Y-53839464D01*
X16100535Y-53989723D01*
X16100540Y-53989727D01*
X16272442Y-54114620D01*
X16461782Y-54211095D01*
X16637973Y-54268343D01*
X16695648Y-54307780D01*
X16722847Y-54372139D01*
X16710932Y-54440985D01*
X16663688Y-54492461D01*
X16647108Y-54500835D01*
X16482403Y-54569057D01*
X16310342Y-54684024D01*
X16164024Y-54830342D01*
X16049058Y-55002403D01*
X15969870Y-55193579D01*
X15969868Y-55193587D01*
X15929500Y-55396530D01*
X15929500Y-55603469D01*
X15969868Y-55806412D01*
X15969870Y-55806420D01*
X16035939Y-55965925D01*
X16049059Y-55997598D01*
X16062836Y-56018217D01*
X16164024Y-56169657D01*
X16310342Y-56315975D01*
X16310345Y-56315977D01*
X16482402Y-56430941D01*
X16673580Y-56510130D01*
X16876530Y-56550499D01*
X16876534Y-56550500D01*
X16876535Y-56550500D01*
X17083466Y-56550500D01*
X17083467Y-56550499D01*
X17286420Y-56510130D01*
X17477598Y-56430941D01*
X17649655Y-56315977D01*
X17795977Y-56169655D01*
X17910941Y-55997598D01*
X17990130Y-55806420D01*
X18030500Y-55603465D01*
X18030500Y-55396535D01*
X18030499Y-55396530D01*
X18469500Y-55396530D01*
X18469500Y-55603469D01*
X18509868Y-55806412D01*
X18509870Y-55806420D01*
X18575939Y-55965925D01*
X18589059Y-55997598D01*
X18602836Y-56018217D01*
X18704024Y-56169657D01*
X18850342Y-56315975D01*
X18850345Y-56315977D01*
X19022402Y-56430941D01*
X19213580Y-56510130D01*
X19416530Y-56550499D01*
X19416534Y-56550500D01*
X19416535Y-56550500D01*
X19623466Y-56550500D01*
X19623467Y-56550499D01*
X19826420Y-56510130D01*
X20017598Y-56430941D01*
X20189655Y-56315977D01*
X20335977Y-56169655D01*
X20450941Y-55997598D01*
X20530130Y-55806420D01*
X20570500Y-55603465D01*
X20570500Y-55396535D01*
X20530130Y-55193580D01*
X20450941Y-55002402D01*
X20335977Y-54830345D01*
X20335975Y-54830342D01*
X20189657Y-54684024D01*
X20047319Y-54588918D01*
X20017598Y-54569059D01*
X20017593Y-54569057D01*
X19826420Y-54489870D01*
X19826412Y-54489868D01*
X19623469Y-54449500D01*
X19623465Y-54449500D01*
X19416535Y-54449500D01*
X19416530Y-54449500D01*
X19213587Y-54489868D01*
X19213579Y-54489870D01*
X19022403Y-54569058D01*
X18850342Y-54684024D01*
X18704024Y-54830342D01*
X18589058Y-55002403D01*
X18509870Y-55193579D01*
X18509868Y-55193587D01*
X18469500Y-55396530D01*
X18030499Y-55396530D01*
X17990130Y-55193580D01*
X17910941Y-55002402D01*
X17795977Y-54830345D01*
X17795975Y-54830342D01*
X17649657Y-54684024D01*
X17507319Y-54588918D01*
X17477598Y-54569059D01*
X17477593Y-54569057D01*
X17366144Y-54522893D01*
X17312890Y-54500834D01*
X17258488Y-54456994D01*
X17236423Y-54390700D01*
X17253702Y-54323001D01*
X17304839Y-54275390D01*
X17322026Y-54268343D01*
X17498217Y-54211095D01*
X17687557Y-54114620D01*
X17859459Y-53989727D01*
X17859464Y-53989723D01*
X18009723Y-53839464D01*
X18009727Y-53839459D01*
X18134620Y-53667557D01*
X18231095Y-53478217D01*
X18288343Y-53302026D01*
X18327780Y-53244351D01*
X18392139Y-53217152D01*
X18460985Y-53229066D01*
X18512461Y-53276310D01*
X18520833Y-53292887D01*
X18548673Y-53360099D01*
X18575939Y-53425925D01*
X18589059Y-53457598D01*
X18632713Y-53522931D01*
X18704024Y-53629657D01*
X18850342Y-53775975D01*
X18850345Y-53775977D01*
X19022402Y-53890941D01*
X19213580Y-53970130D01*
X19416530Y-54010499D01*
X19416534Y-54010500D01*
X19416535Y-54010500D01*
X19623466Y-54010500D01*
X19623467Y-54010499D01*
X19826420Y-53970130D01*
X20017598Y-53890941D01*
X20189655Y-53775977D01*
X20335977Y-53629655D01*
X20450941Y-53457598D01*
X20530130Y-53266420D01*
X20570500Y-53063465D01*
X20570500Y-52856535D01*
X20530130Y-52653580D01*
X20464500Y-52495136D01*
X20450942Y-52462404D01*
X20441577Y-52448388D01*
X20420701Y-52381710D01*
X20439187Y-52314330D01*
X20491167Y-52267641D01*
X20544677Y-52255499D01*
X21035319Y-52255499D01*
X21102358Y-52275184D01*
X21148113Y-52327988D01*
X21158057Y-52397146D01*
X21138423Y-52448388D01*
X21129057Y-52462404D01*
X21049870Y-52653579D01*
X21049868Y-52653587D01*
X21009500Y-52856530D01*
X21009500Y-53063469D01*
X21049868Y-53266412D01*
X21049870Y-53266420D01*
X21115939Y-53425925D01*
X21129059Y-53457598D01*
X21172713Y-53522931D01*
X21244024Y-53629657D01*
X21390342Y-53775975D01*
X21390345Y-53775977D01*
X21562402Y-53890941D01*
X21753580Y-53970130D01*
X21956530Y-54010499D01*
X21956534Y-54010500D01*
X21956535Y-54010500D01*
X22163466Y-54010500D01*
X22163467Y-54010499D01*
X22366420Y-53970130D01*
X22557598Y-53890941D01*
X22729655Y-53775977D01*
X22875977Y-53629655D01*
X22990941Y-53457598D01*
X23070130Y-53266420D01*
X23110500Y-53063465D01*
X23110500Y-52856535D01*
X23070130Y-52653580D01*
X23004500Y-52495136D01*
X22990942Y-52462404D01*
X22981577Y-52448388D01*
X22960701Y-52381710D01*
X22979187Y-52314330D01*
X23031167Y-52267641D01*
X23084677Y-52255499D01*
X23575319Y-52255499D01*
X23642358Y-52275184D01*
X23688113Y-52327988D01*
X23698057Y-52397146D01*
X23678423Y-52448388D01*
X23669057Y-52462404D01*
X23589870Y-52653579D01*
X23589868Y-52653587D01*
X23549500Y-52856530D01*
X23549500Y-53063469D01*
X23589868Y-53266412D01*
X23589870Y-53266420D01*
X23655939Y-53425925D01*
X23669059Y-53457598D01*
X23712713Y-53522931D01*
X23784024Y-53629657D01*
X23930342Y-53775975D01*
X24102405Y-53890943D01*
X24177411Y-53922011D01*
X24267108Y-53959164D01*
X24321511Y-54003005D01*
X24343576Y-54069299D01*
X24326297Y-54136998D01*
X24275160Y-54184609D01*
X24257974Y-54191656D01*
X24081781Y-54248905D01*
X23892442Y-54345379D01*
X23720540Y-54470272D01*
X23720535Y-54470276D01*
X23570276Y-54620535D01*
X23570272Y-54620540D01*
X23445379Y-54792442D01*
X23348905Y-54981781D01*
X23291656Y-55157974D01*
X23252218Y-55215649D01*
X23187859Y-55242847D01*
X23119013Y-55230932D01*
X23067537Y-55183688D01*
X23059164Y-55167107D01*
X22990943Y-55002405D01*
X22875975Y-54830342D01*
X22729657Y-54684024D01*
X22587319Y-54588918D01*
X22557598Y-54569059D01*
X22557593Y-54569057D01*
X22366420Y-54489870D01*
X22366412Y-54489868D01*
X22163469Y-54449500D01*
X22163465Y-54449500D01*
X21956535Y-54449500D01*
X21956530Y-54449500D01*
X21753587Y-54489868D01*
X21753579Y-54489870D01*
X21562403Y-54569058D01*
X21390342Y-54684024D01*
X21244024Y-54830342D01*
X21129058Y-55002403D01*
X21049870Y-55193579D01*
X21049868Y-55193587D01*
X21009500Y-55396530D01*
X21009500Y-55603469D01*
X21049868Y-55806412D01*
X21049870Y-55806420D01*
X21115939Y-55965925D01*
X21129059Y-55997598D01*
X21142836Y-56018217D01*
X21244024Y-56169657D01*
X21390342Y-56315975D01*
X21390345Y-56315977D01*
X21562402Y-56430941D01*
X21753580Y-56510130D01*
X21956530Y-56550499D01*
X21956534Y-56550500D01*
X21956535Y-56550500D01*
X22163466Y-56550500D01*
X22163467Y-56550499D01*
X22366420Y-56510130D01*
X22557598Y-56430941D01*
X22729655Y-56315977D01*
X22875977Y-56169655D01*
X22990941Y-55997598D01*
X23059165Y-55832889D01*
X23103004Y-55778488D01*
X23169298Y-55756423D01*
X23236998Y-55773702D01*
X23284609Y-55824839D01*
X23291656Y-55842026D01*
X23348904Y-56018216D01*
X23445379Y-56207557D01*
X23570272Y-56379459D01*
X23570276Y-56379464D01*
X23720535Y-56529723D01*
X23720540Y-56529727D01*
X23892442Y-56654620D01*
X24081782Y-56751095D01*
X24283871Y-56816757D01*
X24350000Y-56827231D01*
X24350000Y-55933012D01*
X24407007Y-55965925D01*
X24534174Y-56000000D01*
X24665826Y-56000000D01*
X24792993Y-55965925D01*
X24850000Y-55933012D01*
X24850000Y-56827230D01*
X24916126Y-56816757D01*
X24916129Y-56816757D01*
X25118217Y-56751095D01*
X25307557Y-56654620D01*
X25479459Y-56529727D01*
X25479464Y-56529723D01*
X25629721Y-56379466D01*
X25746307Y-56218998D01*
X25801637Y-56176332D01*
X25871250Y-56170353D01*
X25933046Y-56202958D01*
X25934301Y-56204196D01*
X26620016Y-56889912D01*
X27288662Y-57558558D01*
X27288664Y-57558560D01*
X27366977Y-57590997D01*
X27389920Y-57600500D01*
X27389922Y-57600500D01*
X42130079Y-57600500D01*
X42130080Y-57600500D01*
X42231338Y-57558557D01*
X42308837Y-57481058D01*
X42308836Y-57481058D01*
X42367405Y-57422489D01*
X42367404Y-57422489D01*
X43803408Y-55986486D01*
X43864729Y-55953003D01*
X43934421Y-55957987D01*
X43990354Y-55999859D01*
X43994189Y-56005278D01*
X44104022Y-56169654D01*
X44104025Y-56169658D01*
X44250342Y-56315975D01*
X44250345Y-56315977D01*
X44422402Y-56430941D01*
X44613580Y-56510130D01*
X44816530Y-56550499D01*
X44816534Y-56550500D01*
X44816535Y-56550500D01*
X45023466Y-56550500D01*
X45023467Y-56550499D01*
X45226420Y-56510130D01*
X45417598Y-56430941D01*
X45589655Y-56315977D01*
X45630326Y-56275305D01*
X45691647Y-56241819D01*
X45761339Y-56246802D01*
X45805689Y-56275304D01*
X47237443Y-57707058D01*
X47314942Y-57784557D01*
X47416200Y-57826500D01*
X47416201Y-57826500D01*
X65173799Y-57826500D01*
X65173800Y-57826500D01*
X65275058Y-57784557D01*
X65352557Y-57707058D01*
X65352556Y-57707058D01*
X65411125Y-57648489D01*
X66823557Y-56236059D01*
X66847259Y-56178837D01*
X66865500Y-56134800D01*
X66865500Y-55372149D01*
X68049500Y-55372149D01*
X68049500Y-55627850D01*
X68074839Y-55820309D01*
X68082874Y-55881340D01*
X68147612Y-56122947D01*
X68149050Y-56128312D01*
X68149053Y-56128322D01*
X68246894Y-56364531D01*
X68246899Y-56364542D01*
X68374734Y-56585957D01*
X68374745Y-56585973D01*
X68530388Y-56788811D01*
X68530394Y-56788818D01*
X68711181Y-56969605D01*
X68711188Y-56969611D01*
X68855638Y-57080452D01*
X68914035Y-57125261D01*
X68914042Y-57125265D01*
X69135457Y-57253100D01*
X69135462Y-57253102D01*
X69135465Y-57253104D01*
X69371687Y-57350950D01*
X69618660Y-57417126D01*
X69872157Y-57450500D01*
X69872164Y-57450500D01*
X70127836Y-57450500D01*
X70127843Y-57450500D01*
X70381340Y-57417126D01*
X70628313Y-57350950D01*
X70864535Y-57253104D01*
X71085965Y-57125261D01*
X71288813Y-56969610D01*
X71469610Y-56788813D01*
X71625261Y-56585965D01*
X71753104Y-56364535D01*
X71850950Y-56128313D01*
X71917126Y-55881340D01*
X71950500Y-55627843D01*
X71950500Y-55372157D01*
X71917126Y-55118660D01*
X71850950Y-54871687D01*
X71847290Y-54862852D01*
X71786646Y-54716443D01*
X71753104Y-54635465D01*
X71753102Y-54635462D01*
X71753100Y-54635457D01*
X71633292Y-54427945D01*
X71625261Y-54414035D01*
X71518875Y-54275390D01*
X71469611Y-54211188D01*
X71469605Y-54211181D01*
X71288818Y-54030394D01*
X71288811Y-54030388D01*
X71085973Y-53874745D01*
X71085971Y-53874743D01*
X71085965Y-53874739D01*
X71085960Y-53874736D01*
X71085957Y-53874734D01*
X70864542Y-53746899D01*
X70864531Y-53746894D01*
X70628322Y-53649053D01*
X70628315Y-53649051D01*
X70628313Y-53649050D01*
X70381340Y-53582874D01*
X70325007Y-53575457D01*
X70127850Y-53549500D01*
X70127843Y-53549500D01*
X69872157Y-53549500D01*
X69872149Y-53549500D01*
X69655780Y-53577987D01*
X69618660Y-53582874D01*
X69444063Y-53629657D01*
X69371687Y-53649050D01*
X69371677Y-53649053D01*
X69135468Y-53746894D01*
X69135457Y-53746899D01*
X68914042Y-53874734D01*
X68914026Y-53874745D01*
X68711188Y-54030388D01*
X68711181Y-54030394D01*
X68530394Y-54211181D01*
X68530388Y-54211188D01*
X68374745Y-54414026D01*
X68374734Y-54414042D01*
X68246899Y-54635457D01*
X68246894Y-54635468D01*
X68149053Y-54871677D01*
X68149050Y-54871687D01*
X68087901Y-55099901D01*
X68082874Y-55118661D01*
X68049500Y-55372149D01*
X66865500Y-55372149D01*
X66865500Y-54895200D01*
X66823557Y-54793942D01*
X66746058Y-54716443D01*
X66191297Y-54161682D01*
X66157812Y-54100359D01*
X66162796Y-54030667D01*
X66204668Y-53974734D01*
X66210073Y-53970908D01*
X66234552Y-53954552D01*
X66278867Y-53888231D01*
X66278867Y-53888229D01*
X66278868Y-53888229D01*
X66290499Y-53829752D01*
X66290500Y-53829750D01*
X66290500Y-52090249D01*
X66290499Y-52090247D01*
X66278868Y-52031770D01*
X66278867Y-52031769D01*
X66234552Y-51965447D01*
X66168230Y-51921132D01*
X66168229Y-51921131D01*
X66109752Y-51909500D01*
X66109748Y-51909500D01*
X65639500Y-51909500D01*
X65572461Y-51889815D01*
X65526706Y-51837011D01*
X65515500Y-51785500D01*
X65515500Y-48035201D01*
X65515500Y-48035200D01*
X65473557Y-47933942D01*
X65473557Y-47933941D01*
X64191819Y-46652203D01*
X64158334Y-46590880D01*
X64155500Y-46564522D01*
X64155500Y-45984179D01*
X64155499Y-45984167D01*
X64148497Y-45930986D01*
X64114422Y-45803819D01*
X64093893Y-45754257D01*
X64028067Y-45640243D01*
X63995409Y-45597683D01*
X63902317Y-45504591D01*
X63902316Y-45504590D01*
X63859759Y-45471934D01*
X63745745Y-45406108D01*
X63745731Y-45406101D01*
X63696188Y-45385580D01*
X63674050Y-45379648D01*
X63569014Y-45351503D01*
X63569009Y-45351502D01*
X63569007Y-45351502D01*
X63515832Y-45344500D01*
X63515826Y-45344500D01*
X62950000Y-45344500D01*
X62949995Y-45344500D01*
X62904272Y-45349651D01*
X62859643Y-45371144D01*
X62790701Y-45382495D01*
X62753659Y-45366951D01*
X62751752Y-45370913D01*
X62739164Y-45364851D01*
X62650004Y-45344500D01*
X62650000Y-45344500D01*
X62549500Y-45344500D01*
X62482461Y-45324815D01*
X62436706Y-45272011D01*
X62425500Y-45220500D01*
X62425500Y-41679500D01*
X62445185Y-41612461D01*
X62497989Y-41566706D01*
X62530017Y-41557040D01*
X62539697Y-41555500D01*
X62650000Y-41555500D01*
X62695728Y-41550348D01*
X62756728Y-41520971D01*
X62774674Y-41518116D01*
X62792031Y-41520346D01*
X62809295Y-41517504D01*
X62826670Y-41524798D01*
X62843974Y-41527023D01*
X62847723Y-41530175D01*
X62848248Y-41529087D01*
X62860835Y-41535148D01*
X62860836Y-41535148D01*
X62860837Y-41535149D01*
X62927428Y-41550348D01*
X62949995Y-41555499D01*
X62950000Y-41555500D01*
X63515820Y-41555500D01*
X63515826Y-41555500D01*
X63569014Y-41548497D01*
X63696181Y-41514422D01*
X63745743Y-41493893D01*
X63859757Y-41428067D01*
X63902317Y-41395409D01*
X63995409Y-41302317D01*
X64028067Y-41259757D01*
X64093893Y-41145743D01*
X64114422Y-41096181D01*
X64148497Y-40969014D01*
X64155500Y-40915826D01*
X64155500Y-40284174D01*
X64148497Y-40230986D01*
X64114422Y-40103819D01*
X64093893Y-40054257D01*
X64028067Y-39940243D01*
X63995409Y-39897683D01*
X63902317Y-39804591D01*
X63859757Y-39771933D01*
X63823089Y-39750763D01*
X63787500Y-39730215D01*
X63739284Y-39679648D01*
X63725500Y-39622828D01*
X63725500Y-35877171D01*
X63745185Y-35810132D01*
X63787501Y-35769784D01*
X63859757Y-35728067D01*
X63902317Y-35695409D01*
X63995409Y-35602317D01*
X64028067Y-35559757D01*
X64093893Y-35445743D01*
X64114422Y-35396181D01*
X64148497Y-35269014D01*
X64155500Y-35215826D01*
X64155500Y-34584174D01*
X64148497Y-34530986D01*
X64114422Y-34403819D01*
X64093893Y-34354257D01*
X64028067Y-34240243D01*
X63995409Y-34197683D01*
X63902317Y-34104591D01*
X63902316Y-34104590D01*
X63859759Y-34071934D01*
X63745745Y-34006108D01*
X63745731Y-34006101D01*
X63696188Y-33985580D01*
X63684675Y-33982495D01*
X63569014Y-33951503D01*
X63569009Y-33951502D01*
X63569007Y-33951502D01*
X63515832Y-33944500D01*
X63515826Y-33944500D01*
X62950000Y-33944500D01*
X62949995Y-33944500D01*
X62904272Y-33949651D01*
X62859643Y-33971144D01*
X62790701Y-33982495D01*
X62753659Y-33966951D01*
X62751752Y-33970913D01*
X62739164Y-33964851D01*
X62650004Y-33944500D01*
X62650000Y-33944500D01*
X62084174Y-33944500D01*
X62084167Y-33944500D01*
X62030992Y-33951502D01*
X62030986Y-33951503D01*
X61903811Y-33985580D01*
X61854268Y-34006101D01*
X61854254Y-34006108D01*
X61740240Y-34071934D01*
X61697683Y-34104590D01*
X61604590Y-34197683D01*
X61571934Y-34240240D01*
X61506108Y-34354254D01*
X61506101Y-34354268D01*
X61485580Y-34403811D01*
X61485578Y-34403819D01*
X61451503Y-34530986D01*
X61451502Y-34530992D01*
X61451073Y-34532594D01*
X61414708Y-34592254D01*
X61351861Y-34622783D01*
X61331298Y-34624500D01*
X55468702Y-34624500D01*
X55401663Y-34604815D01*
X55355908Y-34552011D01*
X55348927Y-34532594D01*
X55348497Y-34530992D01*
X55348497Y-34530986D01*
X55314422Y-34403819D01*
X55293893Y-34354257D01*
X55228067Y-34240243D01*
X55195409Y-34197683D01*
X55102317Y-34104591D01*
X55102316Y-34104590D01*
X55059759Y-34071934D01*
X54945745Y-34006108D01*
X54945731Y-34006101D01*
X54896188Y-33985580D01*
X54884675Y-33982495D01*
X54769014Y-33951503D01*
X54769009Y-33951502D01*
X54769007Y-33951502D01*
X54715832Y-33944500D01*
X54715826Y-33944500D01*
X54150000Y-33944500D01*
X54149995Y-33944500D01*
X54104272Y-33949651D01*
X54059643Y-33971144D01*
X53990701Y-33982495D01*
X53953659Y-33966951D01*
X53951752Y-33970913D01*
X53939164Y-33964851D01*
X53850004Y-33944500D01*
X53850000Y-33944500D01*
X53284174Y-33944500D01*
X53284167Y-33944500D01*
X53230992Y-33951502D01*
X53230986Y-33951503D01*
X53103811Y-33985580D01*
X53054268Y-34006101D01*
X53054254Y-34006108D01*
X52940240Y-34071934D01*
X52897683Y-34104590D01*
X52804590Y-34197683D01*
X52771934Y-34240240D01*
X52706108Y-34354254D01*
X52706101Y-34354268D01*
X52685580Y-34403811D01*
X52651503Y-34530986D01*
X52651502Y-34530992D01*
X52644500Y-34584167D01*
X52644500Y-35215832D01*
X52651502Y-35269007D01*
X52651503Y-35269013D01*
X52685580Y-35396188D01*
X52706101Y-35445731D01*
X52706108Y-35445745D01*
X52771934Y-35559759D01*
X52804590Y-35602316D01*
X52897683Y-35695409D01*
X52940243Y-35728067D01*
X53012499Y-35769784D01*
X53060715Y-35820350D01*
X53074500Y-35877171D01*
X53074500Y-39622828D01*
X53054815Y-39689867D01*
X53012500Y-39730215D01*
X52940241Y-39771934D01*
X52897683Y-39804590D01*
X52804590Y-39897683D01*
X52771934Y-39940240D01*
X52706108Y-40054254D01*
X52706101Y-40054268D01*
X52685580Y-40103811D01*
X52651503Y-40230986D01*
X52651502Y-40230992D01*
X52644500Y-40284167D01*
X52644500Y-40915832D01*
X52651502Y-40969007D01*
X52651503Y-40969013D01*
X52685580Y-41096188D01*
X52706101Y-41145731D01*
X52706108Y-41145745D01*
X52771934Y-41259759D01*
X52804590Y-41302316D01*
X52804591Y-41302317D01*
X52897683Y-41395409D01*
X52940243Y-41428067D01*
X53054257Y-41493893D01*
X53054262Y-41493895D01*
X53054268Y-41493898D01*
X53103811Y-41514419D01*
X53103813Y-41514419D01*
X53103819Y-41514422D01*
X53230986Y-41548497D01*
X53284174Y-41555500D01*
X53284180Y-41555500D01*
X53850003Y-41555500D01*
X53850003Y-41555499D01*
X53895728Y-41550348D01*
X53904724Y-41546015D01*
X53940354Y-41528857D01*
X54009295Y-41517504D01*
X54046336Y-41533055D01*
X54048248Y-41529087D01*
X54060835Y-41535148D01*
X54060836Y-41535148D01*
X54060837Y-41535149D01*
X54127428Y-41550348D01*
X54149995Y-41555499D01*
X54150000Y-41555500D01*
X54250500Y-41555500D01*
X54317539Y-41575185D01*
X54363294Y-41627989D01*
X54374500Y-41679500D01*
X54374500Y-45220500D01*
X54354815Y-45287539D01*
X54302011Y-45333294D01*
X54250500Y-45344500D01*
X54149995Y-45344500D01*
X54104271Y-45349651D01*
X54021873Y-45389333D01*
X53964851Y-45460836D01*
X53944500Y-45549995D01*
X53944500Y-47050004D01*
X53949651Y-47095728D01*
X53989333Y-47178126D01*
X53989334Y-47178127D01*
X54060837Y-47235149D01*
X54136203Y-47252351D01*
X54149995Y-47255499D01*
X54150000Y-47255500D01*
X54250500Y-47255500D01*
X54317539Y-47275185D01*
X54363294Y-47327989D01*
X54374500Y-47379500D01*
X54374500Y-47664521D01*
X54354815Y-47731560D01*
X54338181Y-47752202D01*
X54307202Y-47783181D01*
X54245879Y-47816666D01*
X54219521Y-47819500D01*
X54150691Y-47819500D01*
X54036114Y-47850201D01*
X54036112Y-47850201D01*
X54036112Y-47850202D01*
X53933387Y-47909511D01*
X53933384Y-47909513D01*
X53849513Y-47993384D01*
X53849511Y-47993387D01*
X53790201Y-48096114D01*
X53759500Y-48210691D01*
X53759500Y-48329309D01*
X53790201Y-48443886D01*
X53849511Y-48546613D01*
X53933387Y-48630489D01*
X54036114Y-48689799D01*
X54150691Y-48720500D01*
X54150694Y-48720500D01*
X54269306Y-48720500D01*
X54269309Y-48720500D01*
X54383886Y-48689799D01*
X54486613Y-48630489D01*
X54570489Y-48546613D01*
X54629799Y-48443886D01*
X54660500Y-48329309D01*
X54660500Y-48260476D01*
X54680185Y-48193437D01*
X54696814Y-48172799D01*
X54883557Y-47986058D01*
X54925500Y-47884800D01*
X54925500Y-47277171D01*
X54945185Y-47210132D01*
X54987501Y-47169784D01*
X55024080Y-47148665D01*
X55059757Y-47128067D01*
X55102317Y-47095409D01*
X55195409Y-47002317D01*
X55228067Y-46959757D01*
X55293893Y-46845743D01*
X55314422Y-46796181D01*
X55348497Y-46669014D01*
X55355500Y-46615826D01*
X55355500Y-45984174D01*
X55348497Y-45930986D01*
X55314422Y-45803819D01*
X55293893Y-45754257D01*
X55228067Y-45640243D01*
X55195409Y-45597683D01*
X55102317Y-45504591D01*
X55059757Y-45471933D01*
X55023089Y-45450763D01*
X54987500Y-45430215D01*
X54939284Y-45379648D01*
X54925500Y-45322828D01*
X54925500Y-41577171D01*
X54945185Y-41510132D01*
X54987501Y-41469784D01*
X55059757Y-41428067D01*
X55102317Y-41395409D01*
X55195409Y-41302317D01*
X55228067Y-41259757D01*
X55293893Y-41145743D01*
X55314422Y-41096181D01*
X55348497Y-40969014D01*
X55355500Y-40915826D01*
X55355500Y-40284174D01*
X55348497Y-40230986D01*
X55314422Y-40103819D01*
X55293893Y-40054257D01*
X55228067Y-39940243D01*
X55195409Y-39897683D01*
X55102317Y-39804591D01*
X55102316Y-39804590D01*
X55059759Y-39771934D01*
X54945745Y-39706108D01*
X54945731Y-39706101D01*
X54896188Y-39685580D01*
X54857439Y-39675197D01*
X54769014Y-39651503D01*
X54769009Y-39651502D01*
X54769007Y-39651502D01*
X54715832Y-39644500D01*
X54715826Y-39644500D01*
X54150000Y-39644500D01*
X54149995Y-39644500D01*
X54104272Y-39649651D01*
X54059643Y-39671144D01*
X53990701Y-39682495D01*
X53953659Y-39666951D01*
X53951752Y-39670913D01*
X53939164Y-39664851D01*
X53850004Y-39644500D01*
X53850000Y-39644500D01*
X53749500Y-39644500D01*
X53682461Y-39624815D01*
X53636706Y-39572011D01*
X53625500Y-39520500D01*
X53625500Y-35979500D01*
X53645185Y-35912461D01*
X53697989Y-35866706D01*
X53749500Y-35855500D01*
X53850003Y-35855500D01*
X53850003Y-35855499D01*
X53895728Y-35850348D01*
X53921468Y-35837952D01*
X53940354Y-35828857D01*
X54009295Y-35817504D01*
X54046333Y-35833054D01*
X54048245Y-35829085D01*
X54060835Y-35835147D01*
X54060837Y-35835149D01*
X54060838Y-35835149D01*
X54066659Y-35837952D01*
X54118520Y-35884773D01*
X54136835Y-35952200D01*
X54115789Y-36018824D01*
X54100543Y-36037355D01*
X54014510Y-36123387D01*
X53981940Y-36179801D01*
X53955201Y-36226114D01*
X53924500Y-36340691D01*
X53924500Y-36459309D01*
X53955201Y-36573886D01*
X54014511Y-36676613D01*
X54098387Y-36760489D01*
X54201114Y-36819799D01*
X54315691Y-36850500D01*
X54315694Y-36850500D01*
X54434306Y-36850500D01*
X54434309Y-36850500D01*
X54548886Y-36819799D01*
X54651613Y-36760489D01*
X54735489Y-36676613D01*
X54794799Y-36573886D01*
X54825500Y-36459309D01*
X54825500Y-36390478D01*
X54845185Y-36323439D01*
X54861817Y-36302798D01*
X54883558Y-36281058D01*
X54925500Y-36179800D01*
X54925500Y-36070200D01*
X54925500Y-35877171D01*
X54945185Y-35810132D01*
X54987501Y-35769784D01*
X55059757Y-35728067D01*
X55102317Y-35695409D01*
X55195409Y-35602317D01*
X55228067Y-35559757D01*
X55293893Y-35445743D01*
X55314422Y-35396181D01*
X55348497Y-35269014D01*
X55348497Y-35269007D01*
X55348927Y-35267406D01*
X55385292Y-35207746D01*
X55448139Y-35177217D01*
X55468702Y-35175500D01*
X61331298Y-35175500D01*
X61398337Y-35195185D01*
X61444092Y-35247989D01*
X61451073Y-35267406D01*
X61451502Y-35269007D01*
X61451503Y-35269014D01*
X61485578Y-35396181D01*
X61485580Y-35396188D01*
X61506101Y-35445731D01*
X61506108Y-35445745D01*
X61571934Y-35559759D01*
X61604590Y-35602316D01*
X61604591Y-35602317D01*
X61697683Y-35695409D01*
X61740243Y-35728067D01*
X61854257Y-35793893D01*
X61854262Y-35793895D01*
X61854268Y-35793898D01*
X61903811Y-35814419D01*
X61903813Y-35814419D01*
X61903819Y-35814422D01*
X62030986Y-35848497D01*
X62084174Y-35855500D01*
X62084180Y-35855500D01*
X62650003Y-35855500D01*
X62650003Y-35855499D01*
X62695728Y-35850348D01*
X62721468Y-35837952D01*
X62740354Y-35828857D01*
X62809295Y-35817504D01*
X62846336Y-35833055D01*
X62848248Y-35829087D01*
X62860835Y-35835148D01*
X62860836Y-35835148D01*
X62860837Y-35835149D01*
X62927428Y-35850348D01*
X62949995Y-35855499D01*
X62950000Y-35855500D01*
X63050500Y-35855500D01*
X63117539Y-35875185D01*
X63163294Y-35927989D01*
X63174500Y-35979500D01*
X63174500Y-39520500D01*
X63154815Y-39587539D01*
X63102011Y-39633294D01*
X63069982Y-39642960D01*
X63060302Y-39644500D01*
X62950000Y-39644500D01*
X62904272Y-39649652D01*
X62843275Y-39679027D01*
X62825324Y-39681883D01*
X62807967Y-39679652D01*
X62790701Y-39682495D01*
X62773310Y-39675197D01*
X62756025Y-39672976D01*
X62752276Y-39669824D01*
X62751752Y-39670913D01*
X62739164Y-39664851D01*
X62650004Y-39644500D01*
X62650000Y-39644500D01*
X62084174Y-39644500D01*
X62084167Y-39644500D01*
X62030992Y-39651502D01*
X62030986Y-39651503D01*
X61903811Y-39685580D01*
X61854268Y-39706101D01*
X61854254Y-39706108D01*
X61740240Y-39771934D01*
X61697683Y-39804590D01*
X61604590Y-39897683D01*
X61571934Y-39940240D01*
X61506108Y-40054254D01*
X61506101Y-40054268D01*
X61485580Y-40103811D01*
X61451503Y-40230986D01*
X61451502Y-40230992D01*
X61444500Y-40284167D01*
X61444500Y-40915832D01*
X61451502Y-40969007D01*
X61451503Y-40969013D01*
X61485580Y-41096188D01*
X61506101Y-41145731D01*
X61506108Y-41145745D01*
X61571934Y-41259759D01*
X61604590Y-41302316D01*
X61697683Y-41395409D01*
X61740243Y-41428067D01*
X61812499Y-41469784D01*
X61860715Y-41520350D01*
X61874500Y-41577171D01*
X61874500Y-45322828D01*
X61854815Y-45389867D01*
X61812500Y-45430215D01*
X61740241Y-45471934D01*
X61697683Y-45504590D01*
X61604590Y-45597683D01*
X61571934Y-45640240D01*
X61506108Y-45754254D01*
X61506101Y-45754268D01*
X61485580Y-45803811D01*
X61451503Y-45930986D01*
X61451502Y-45930992D01*
X61444500Y-45984167D01*
X61444500Y-46615832D01*
X61451502Y-46669007D01*
X61451503Y-46669013D01*
X61485580Y-46796188D01*
X61506101Y-46845731D01*
X61506108Y-46845745D01*
X61571934Y-46959759D01*
X61604590Y-47002316D01*
X61604591Y-47002317D01*
X61697683Y-47095409D01*
X61740243Y-47128067D01*
X61854257Y-47193893D01*
X61854262Y-47193895D01*
X61854268Y-47193898D01*
X61903803Y-47214416D01*
X61903809Y-47214417D01*
X61903819Y-47214422D01*
X61955037Y-47228145D01*
X62010624Y-47260239D01*
X63608181Y-48857796D01*
X63641666Y-48919119D01*
X63644500Y-48945477D01*
X63644500Y-52119505D01*
X63624815Y-52186544D01*
X63572011Y-52232299D01*
X63502853Y-52242243D01*
X63439297Y-52213218D01*
X63432819Y-52207186D01*
X63369657Y-52144024D01*
X63225842Y-52047931D01*
X63197598Y-52029059D01*
X63197593Y-52029057D01*
X63006420Y-51949870D01*
X63006412Y-51949868D01*
X62803469Y-51909500D01*
X62803465Y-51909500D01*
X62596535Y-51909500D01*
X62596530Y-51909500D01*
X62393587Y-51949868D01*
X62393579Y-51949870D01*
X62202403Y-52029058D01*
X62030342Y-52144024D01*
X61884024Y-52290342D01*
X61769058Y-52462403D01*
X61689870Y-52653579D01*
X61689868Y-52653587D01*
X61649500Y-52856530D01*
X61649500Y-53063469D01*
X61689868Y-53266412D01*
X61689870Y-53266420D01*
X61750159Y-53411970D01*
X61757628Y-53481440D01*
X61726353Y-53543919D01*
X61723279Y-53547104D01*
X61615584Y-53654800D01*
X61410473Y-53859912D01*
X61312204Y-53958181D01*
X61250881Y-53991666D01*
X61224523Y-53994500D01*
X60909941Y-53994500D01*
X60842902Y-53974815D01*
X60797147Y-53922011D01*
X60787203Y-53852853D01*
X60816228Y-53789297D01*
X60825415Y-53780352D01*
X60825348Y-53780285D01*
X60975974Y-53629658D01*
X60975975Y-53629657D01*
X60975977Y-53629655D01*
X61090941Y-53457598D01*
X61170130Y-53266420D01*
X61210500Y-53063465D01*
X61210500Y-52856535D01*
X61170130Y-52653580D01*
X61090941Y-52462402D01*
X60975977Y-52290345D01*
X60975975Y-52290342D01*
X60829657Y-52144024D01*
X60657595Y-52029057D01*
X60512047Y-51968769D01*
X60457644Y-51924928D01*
X60435579Y-51858633D01*
X60435500Y-51854208D01*
X60435500Y-50365201D01*
X60435498Y-50365196D01*
X60393560Y-50263944D01*
X60393558Y-50263942D01*
X59246059Y-49116444D01*
X59246058Y-49116443D01*
X59144800Y-49074500D01*
X53765478Y-49074500D01*
X53698439Y-49054815D01*
X53677797Y-49038181D01*
X51811819Y-47172203D01*
X51778334Y-47110880D01*
X51775500Y-47084522D01*
X51775500Y-41945201D01*
X51775498Y-41945196D01*
X51733560Y-41843944D01*
X51733558Y-41843942D01*
X47406059Y-37516444D01*
X47406058Y-37516443D01*
X47304800Y-37474500D01*
X43646332Y-37474500D01*
X43579293Y-37454815D01*
X43558651Y-37438181D01*
X42471819Y-36351349D01*
X42438334Y-36290026D01*
X42435500Y-36263668D01*
X42435500Y-33912964D01*
X42455185Y-33845925D01*
X42471819Y-33825283D01*
X42520489Y-33776613D01*
X42579799Y-33673886D01*
X42610500Y-33559309D01*
X42610500Y-33440691D01*
X42579799Y-33326114D01*
X42520489Y-33223387D01*
X42436613Y-33139511D01*
X42333886Y-33080201D01*
X42219309Y-33049500D01*
X42100691Y-33049500D01*
X41986114Y-33080201D01*
X41986112Y-33080201D01*
X41986112Y-33080202D01*
X41883387Y-33139511D01*
X41883384Y-33139513D01*
X41799513Y-33223384D01*
X41799511Y-33223387D01*
X41740201Y-33326114D01*
X41709500Y-33440691D01*
X41709500Y-33559309D01*
X41740201Y-33673886D01*
X41799511Y-33776613D01*
X41799513Y-33776615D01*
X41848181Y-33825283D01*
X41881666Y-33886606D01*
X41884500Y-33912964D01*
X41884500Y-36483948D01*
X41905767Y-36535289D01*
X41905766Y-36535289D01*
X41926441Y-36585201D01*
X41926444Y-36585205D01*
X43324796Y-37983558D01*
X43324798Y-37983560D01*
X43403111Y-38015997D01*
X43426054Y-38025500D01*
X47084523Y-38025500D01*
X47151562Y-38045185D01*
X47172204Y-38061819D01*
X51188181Y-42077796D01*
X51221666Y-42139119D01*
X51224500Y-42165477D01*
X51224500Y-47304800D01*
X51266443Y-47406058D01*
X51266444Y-47406059D01*
X53443938Y-49583555D01*
X53443939Y-49583555D01*
X53443941Y-49583557D01*
X53473595Y-49595839D01*
X53473597Y-49595841D01*
X53473598Y-49595841D01*
X53494570Y-49604527D01*
X53545200Y-49625500D01*
X58924523Y-49625500D01*
X58991562Y-49645185D01*
X59012204Y-49661819D01*
X59848181Y-50497796D01*
X59881666Y-50559119D01*
X59884500Y-50585477D01*
X59884500Y-51854208D01*
X59864815Y-51921247D01*
X59812011Y-51967002D01*
X59807953Y-51968769D01*
X59662404Y-52029057D01*
X59490344Y-52144023D01*
X59351021Y-52283346D01*
X59289698Y-52316830D01*
X59220006Y-52311846D01*
X59164073Y-52269974D01*
X59148779Y-52243117D01*
X59137006Y-52214694D01*
X59103557Y-52133942D01*
X59026058Y-52056443D01*
X57612058Y-50642443D01*
X57510800Y-50600500D01*
X52291477Y-50600500D01*
X52224438Y-50580815D01*
X52203796Y-50564181D01*
X50311819Y-48672204D01*
X50278334Y-48610881D01*
X50275500Y-48584523D01*
X50275500Y-43445201D01*
X50275498Y-43445196D01*
X50233560Y-43343944D01*
X50233558Y-43343942D01*
X47156059Y-40266444D01*
X47156058Y-40266443D01*
X47054800Y-40224500D01*
X42915478Y-40224500D01*
X42848439Y-40204815D01*
X42827797Y-40188181D01*
X41251819Y-38612203D01*
X41218334Y-38550880D01*
X41215500Y-38524522D01*
X41215500Y-33252964D01*
X41235185Y-33185925D01*
X41251819Y-33165283D01*
X41300489Y-33116613D01*
X41359799Y-33013886D01*
X41390500Y-32899309D01*
X41390500Y-32780691D01*
X41359799Y-32666114D01*
X41300489Y-32563387D01*
X41216613Y-32479511D01*
X41113886Y-32420201D01*
X40999309Y-32389500D01*
X40880691Y-32389500D01*
X40766114Y-32420201D01*
X40766112Y-32420201D01*
X40766112Y-32420202D01*
X40663387Y-32479511D01*
X40663384Y-32479513D01*
X40579513Y-32563384D01*
X40579511Y-32563387D01*
X40541141Y-32629846D01*
X40520201Y-32666114D01*
X40489500Y-32780691D01*
X40489500Y-32899309D01*
X40520201Y-33013886D01*
X40579511Y-33116613D01*
X40579513Y-33116615D01*
X40628181Y-33165283D01*
X40661666Y-33226606D01*
X40664500Y-33252964D01*
X40664500Y-38744800D01*
X40706443Y-38846058D01*
X40706444Y-38846059D01*
X42593942Y-40733558D01*
X42593944Y-40733560D01*
X42672257Y-40765997D01*
X42695200Y-40775500D01*
X42804800Y-40775500D01*
X46834523Y-40775500D01*
X46901562Y-40795185D01*
X46922204Y-40811819D01*
X49688181Y-43577796D01*
X49721666Y-43639119D01*
X49724500Y-43665477D01*
X49724500Y-48804802D01*
X49761950Y-48895212D01*
X49766442Y-48906057D01*
X49766443Y-48906058D01*
X51892443Y-51032058D01*
X51969942Y-51109557D01*
X52071200Y-51151500D01*
X57290523Y-51151500D01*
X57357562Y-51171185D01*
X57378204Y-51187819D01*
X57904304Y-51713919D01*
X57937789Y-51775242D01*
X57932805Y-51844934D01*
X57890933Y-51900867D01*
X57825469Y-51925284D01*
X57792433Y-51923218D01*
X57735123Y-51911819D01*
X57723465Y-51909500D01*
X57516535Y-51909500D01*
X57516530Y-51909500D01*
X57313587Y-51949868D01*
X57313579Y-51949870D01*
X57122403Y-52029058D01*
X56950342Y-52144024D01*
X56804024Y-52290342D01*
X56689057Y-52462403D01*
X56620835Y-52627108D01*
X56576994Y-52681511D01*
X56510700Y-52703576D01*
X56443000Y-52686297D01*
X56395390Y-52635159D01*
X56388343Y-52617973D01*
X56331095Y-52441782D01*
X56234620Y-52252442D01*
X56109727Y-52080540D01*
X56109723Y-52080535D01*
X55959464Y-51930276D01*
X55959459Y-51930272D01*
X55787557Y-51805379D01*
X55598215Y-51708903D01*
X55396124Y-51643241D01*
X55330000Y-51632768D01*
X55330000Y-52526988D01*
X55272993Y-52494075D01*
X55145826Y-52460000D01*
X55014174Y-52460000D01*
X54887007Y-52494075D01*
X54830000Y-52526988D01*
X54830000Y-51632768D01*
X54829999Y-51632768D01*
X54763875Y-51643241D01*
X54561784Y-51708903D01*
X54372442Y-51805379D01*
X54200540Y-51930272D01*
X54200535Y-51930276D01*
X54050276Y-52080535D01*
X54050272Y-52080540D01*
X53925379Y-52252442D01*
X53828905Y-52441781D01*
X53771656Y-52617974D01*
X53732218Y-52675649D01*
X53667859Y-52702847D01*
X53599013Y-52690932D01*
X53547537Y-52643688D01*
X53539164Y-52627107D01*
X53470943Y-52462405D01*
X53355975Y-52290342D01*
X53209657Y-52144024D01*
X53065842Y-52047931D01*
X53037598Y-52029059D01*
X53037593Y-52029057D01*
X52846420Y-51949870D01*
X52846412Y-51949868D01*
X52643469Y-51909500D01*
X52643465Y-51909500D01*
X52436535Y-51909500D01*
X52436530Y-51909500D01*
X52233587Y-51949868D01*
X52233579Y-51949870D01*
X52042403Y-52029058D01*
X51870342Y-52144024D01*
X51724024Y-52290342D01*
X51609058Y-52462403D01*
X51529870Y-52653579D01*
X51529868Y-52653587D01*
X51489500Y-52856530D01*
X51489500Y-53063469D01*
X51529868Y-53266412D01*
X51529870Y-53266420D01*
X51595939Y-53425925D01*
X51609059Y-53457598D01*
X51652713Y-53522931D01*
X51724024Y-53629657D01*
X51870342Y-53775975D01*
X51870345Y-53775977D01*
X52042402Y-53890941D01*
X52233580Y-53970130D01*
X52436530Y-54010499D01*
X52436534Y-54010500D01*
X52436535Y-54010500D01*
X52643466Y-54010500D01*
X52643467Y-54010499D01*
X52846420Y-53970130D01*
X53037598Y-53890941D01*
X53209655Y-53775977D01*
X53355977Y-53629655D01*
X53470941Y-53457598D01*
X53539165Y-53292889D01*
X53583004Y-53238488D01*
X53649298Y-53216423D01*
X53716998Y-53233702D01*
X53764609Y-53284839D01*
X53771656Y-53302026D01*
X53828904Y-53478216D01*
X53925379Y-53667557D01*
X54050272Y-53839459D01*
X54050276Y-53839464D01*
X54200535Y-53989723D01*
X54200540Y-53989727D01*
X54372442Y-54114620D01*
X54561782Y-54211095D01*
X54737973Y-54268343D01*
X54795648Y-54307780D01*
X54822847Y-54372139D01*
X54810932Y-54440985D01*
X54763688Y-54492461D01*
X54747108Y-54500835D01*
X54582403Y-54569057D01*
X54410342Y-54684024D01*
X54264024Y-54830342D01*
X54149058Y-55002403D01*
X54069870Y-55193579D01*
X54069868Y-55193587D01*
X54029500Y-55396530D01*
X54029500Y-55603469D01*
X54069868Y-55806412D01*
X54069870Y-55806420D01*
X54135939Y-55965925D01*
X54149059Y-55997598D01*
X54162836Y-56018217D01*
X54264024Y-56169657D01*
X54410342Y-56315975D01*
X54410345Y-56315977D01*
X54582402Y-56430941D01*
X54773580Y-56510130D01*
X54976530Y-56550499D01*
X54976534Y-56550500D01*
X54976535Y-56550500D01*
X55183466Y-56550500D01*
X55183467Y-56550499D01*
X55386420Y-56510130D01*
X55577598Y-56430941D01*
X55749655Y-56315977D01*
X55895977Y-56169655D01*
X56010941Y-55997598D01*
X56090130Y-55806420D01*
X56130500Y-55603465D01*
X56130500Y-55396535D01*
X56090130Y-55193580D01*
X56010941Y-55002402D01*
X55895977Y-54830345D01*
X55895975Y-54830342D01*
X55749657Y-54684024D01*
X55607319Y-54588918D01*
X55577598Y-54569059D01*
X55577593Y-54569057D01*
X55466144Y-54522893D01*
X55412890Y-54500834D01*
X55358488Y-54456994D01*
X55336423Y-54390700D01*
X55353702Y-54323001D01*
X55404839Y-54275390D01*
X55422026Y-54268343D01*
X55598217Y-54211095D01*
X55787557Y-54114620D01*
X55959459Y-53989727D01*
X55959464Y-53989723D01*
X56109723Y-53839464D01*
X56109727Y-53839459D01*
X56234620Y-53667557D01*
X56331095Y-53478217D01*
X56388343Y-53302026D01*
X56427780Y-53244351D01*
X56492139Y-53217152D01*
X56560985Y-53229066D01*
X56612461Y-53276310D01*
X56620833Y-53292887D01*
X56648673Y-53360099D01*
X56675939Y-53425925D01*
X56689059Y-53457598D01*
X56732713Y-53522931D01*
X56804024Y-53629657D01*
X56950342Y-53775975D01*
X56950345Y-53775977D01*
X57122402Y-53890941D01*
X57313580Y-53970130D01*
X57516530Y-54010499D01*
X57516534Y-54010500D01*
X57516535Y-54010500D01*
X57723466Y-54010500D01*
X57723467Y-54010499D01*
X57926420Y-53970130D01*
X58117598Y-53890941D01*
X58289655Y-53775977D01*
X58409482Y-53656149D01*
X58470803Y-53622666D01*
X58540495Y-53627650D01*
X58596429Y-53669521D01*
X58611723Y-53696379D01*
X58632647Y-53746894D01*
X58636442Y-53756056D01*
X58636444Y-53756059D01*
X59227916Y-54347532D01*
X59261401Y-54408855D01*
X59256417Y-54478547D01*
X59227917Y-54522893D01*
X59130276Y-54620535D01*
X59130272Y-54620540D01*
X59005379Y-54792442D01*
X58908905Y-54981781D01*
X58851656Y-55157974D01*
X58812218Y-55215649D01*
X58747859Y-55242847D01*
X58679013Y-55230932D01*
X58627537Y-55183688D01*
X58619164Y-55167107D01*
X58550943Y-55002405D01*
X58435975Y-54830342D01*
X58289657Y-54684024D01*
X58147319Y-54588918D01*
X58117598Y-54569059D01*
X58117593Y-54569057D01*
X57926420Y-54489870D01*
X57926412Y-54489868D01*
X57723469Y-54449500D01*
X57723465Y-54449500D01*
X57516535Y-54449500D01*
X57516530Y-54449500D01*
X57313587Y-54489868D01*
X57313579Y-54489870D01*
X57122403Y-54569058D01*
X56950342Y-54684024D01*
X56804024Y-54830342D01*
X56689058Y-55002403D01*
X56609870Y-55193579D01*
X56609868Y-55193587D01*
X56569500Y-55396530D01*
X56569500Y-55603469D01*
X56609868Y-55806412D01*
X56609870Y-55806420D01*
X56675939Y-55965925D01*
X56689059Y-55997598D01*
X56702836Y-56018217D01*
X56804024Y-56169657D01*
X56950342Y-56315975D01*
X56950345Y-56315977D01*
X57122402Y-56430941D01*
X57313580Y-56510130D01*
X57516530Y-56550499D01*
X57516534Y-56550500D01*
X57516535Y-56550500D01*
X57723466Y-56550500D01*
X57723467Y-56550499D01*
X57926420Y-56510130D01*
X58117598Y-56430941D01*
X58289655Y-56315977D01*
X58435977Y-56169655D01*
X58550941Y-55997598D01*
X58619165Y-55832889D01*
X58663004Y-55778488D01*
X58729298Y-55756423D01*
X58796998Y-55773702D01*
X58844609Y-55824839D01*
X58851656Y-55842026D01*
X58908904Y-56018216D01*
X59005379Y-56207557D01*
X59130272Y-56379459D01*
X59130276Y-56379464D01*
X59280535Y-56529723D01*
X59280540Y-56529727D01*
X59452442Y-56654620D01*
X59641782Y-56751095D01*
X59843871Y-56816757D01*
X59910000Y-56827231D01*
X59910000Y-55933012D01*
X59967007Y-55965925D01*
X60094174Y-56000000D01*
X60225826Y-56000000D01*
X60352993Y-55965925D01*
X60410000Y-55933012D01*
X60410000Y-56827230D01*
X60476126Y-56816757D01*
X60476129Y-56816757D01*
X60678217Y-56751095D01*
X60867557Y-56654620D01*
X61039459Y-56529727D01*
X61039464Y-56529723D01*
X61189723Y-56379464D01*
X61189727Y-56379459D01*
X61314620Y-56207557D01*
X61411095Y-56018217D01*
X61468343Y-55842026D01*
X61507780Y-55784351D01*
X61572139Y-55757152D01*
X61640985Y-55769066D01*
X61692461Y-55816310D01*
X61700833Y-55832887D01*
X61728673Y-55900099D01*
X61755939Y-55965925D01*
X61769059Y-55997598D01*
X61782836Y-56018217D01*
X61884024Y-56169657D01*
X62030342Y-56315975D01*
X62030345Y-56315977D01*
X62202402Y-56430941D01*
X62393580Y-56510130D01*
X62596530Y-56550499D01*
X62596534Y-56550500D01*
X62596535Y-56550500D01*
X62803466Y-56550500D01*
X62803467Y-56550499D01*
X63006420Y-56510130D01*
X63197598Y-56430941D01*
X63369655Y-56315977D01*
X63515977Y-56169655D01*
X63630941Y-55997598D01*
X63637085Y-55982767D01*
X63691230Y-55852048D01*
X63735071Y-55797644D01*
X63801365Y-55775579D01*
X63805791Y-55775500D01*
X64134209Y-55775500D01*
X64201248Y-55795185D01*
X64247003Y-55847989D01*
X64248770Y-55852048D01*
X64309056Y-55997594D01*
X64424024Y-56169657D01*
X64570342Y-56315975D01*
X64570345Y-56315977D01*
X64742402Y-56430941D01*
X64933580Y-56510130D01*
X65136530Y-56550499D01*
X65136534Y-56550500D01*
X65136535Y-56550500D01*
X65343466Y-56550500D01*
X65343466Y-56550499D01*
X65393608Y-56540526D01*
X65424915Y-56534299D01*
X65494506Y-56540526D01*
X65549684Y-56583389D01*
X65572928Y-56649279D01*
X65556860Y-56717276D01*
X65536787Y-56743597D01*
X65041204Y-57239181D01*
X64979881Y-57272666D01*
X64953523Y-57275500D01*
X47636477Y-57275500D01*
X47569438Y-57255815D01*
X47548796Y-57239181D01*
X47024424Y-56714809D01*
X46990939Y-56653486D01*
X46995923Y-56583794D01*
X47037795Y-56527861D01*
X47103259Y-56503444D01*
X47148105Y-56508469D01*
X47153578Y-56510129D01*
X47153580Y-56510130D01*
X47153582Y-56510130D01*
X47153584Y-56510131D01*
X47356530Y-56550499D01*
X47356534Y-56550500D01*
X47356535Y-56550500D01*
X47563466Y-56550500D01*
X47563467Y-56550499D01*
X47766420Y-56510130D01*
X47957598Y-56430941D01*
X48129655Y-56315977D01*
X48275977Y-56169655D01*
X48390941Y-55997598D01*
X48459165Y-55832889D01*
X48503004Y-55778488D01*
X48569298Y-55756423D01*
X48636998Y-55773702D01*
X48684609Y-55824839D01*
X48691656Y-55842026D01*
X48748904Y-56018216D01*
X48845379Y-56207557D01*
X48970272Y-56379459D01*
X48970276Y-56379464D01*
X49120535Y-56529723D01*
X49120540Y-56529727D01*
X49292442Y-56654620D01*
X49481782Y-56751095D01*
X49683871Y-56816757D01*
X49750000Y-56827231D01*
X49750000Y-55933012D01*
X49807007Y-55965925D01*
X49934174Y-56000000D01*
X50065826Y-56000000D01*
X50192993Y-55965925D01*
X50250000Y-55933012D01*
X50250000Y-56827230D01*
X50316126Y-56816757D01*
X50316129Y-56816757D01*
X50518217Y-56751095D01*
X50707557Y-56654620D01*
X50879459Y-56529727D01*
X50879464Y-56529723D01*
X51029723Y-56379464D01*
X51029727Y-56379459D01*
X51154620Y-56207557D01*
X51251095Y-56018217D01*
X51308343Y-55842026D01*
X51347780Y-55784351D01*
X51412139Y-55757152D01*
X51480985Y-55769066D01*
X51532461Y-55816310D01*
X51540833Y-55832887D01*
X51568673Y-55900099D01*
X51595939Y-55965925D01*
X51609059Y-55997598D01*
X51622836Y-56018217D01*
X51724024Y-56169657D01*
X51870342Y-56315975D01*
X51870345Y-56315977D01*
X52042402Y-56430941D01*
X52233580Y-56510130D01*
X52436530Y-56550499D01*
X52436534Y-56550500D01*
X52436535Y-56550500D01*
X52643466Y-56550500D01*
X52643467Y-56550499D01*
X52846420Y-56510130D01*
X53037598Y-56430941D01*
X53209655Y-56315977D01*
X53355977Y-56169655D01*
X53470941Y-55997598D01*
X53550130Y-55806420D01*
X53590500Y-55603465D01*
X53590500Y-55396535D01*
X53550130Y-55193580D01*
X53470941Y-55002402D01*
X53355977Y-54830345D01*
X53355975Y-54830342D01*
X53209657Y-54684024D01*
X53067319Y-54588918D01*
X53037598Y-54569059D01*
X53037593Y-54569057D01*
X52846420Y-54489870D01*
X52846412Y-54489868D01*
X52643469Y-54449500D01*
X52643465Y-54449500D01*
X52436535Y-54449500D01*
X52436530Y-54449500D01*
X52233587Y-54489868D01*
X52233579Y-54489870D01*
X52042403Y-54569058D01*
X51870342Y-54684024D01*
X51724024Y-54830342D01*
X51609057Y-55002403D01*
X51540835Y-55167108D01*
X51496994Y-55221511D01*
X51430700Y-55243576D01*
X51363000Y-55226297D01*
X51315390Y-55175159D01*
X51308343Y-55157973D01*
X51251095Y-54981782D01*
X51154620Y-54792442D01*
X51029727Y-54620540D01*
X51029723Y-54620535D01*
X50879464Y-54470276D01*
X50879459Y-54470272D01*
X50707557Y-54345379D01*
X50518216Y-54248904D01*
X50342026Y-54191656D01*
X50284350Y-54152218D01*
X50257152Y-54087860D01*
X50269067Y-54019013D01*
X50316311Y-53967538D01*
X50332882Y-53959168D01*
X50497598Y-53890941D01*
X50669655Y-53775977D01*
X50815977Y-53629655D01*
X50930941Y-53457598D01*
X51010130Y-53266420D01*
X51050500Y-53063465D01*
X51050500Y-52856535D01*
X51010130Y-52653580D01*
X50930941Y-52462402D01*
X50815977Y-52290345D01*
X50815975Y-52290342D01*
X50669657Y-52144024D01*
X50525842Y-52047931D01*
X50497598Y-52029059D01*
X50497593Y-52029057D01*
X50306420Y-51949870D01*
X50306412Y-51949868D01*
X50103469Y-51909500D01*
X50103465Y-51909500D01*
X49896535Y-51909500D01*
X49896530Y-51909500D01*
X49693587Y-51949868D01*
X49693579Y-51949870D01*
X49502403Y-52029058D01*
X49330342Y-52144024D01*
X49184024Y-52290342D01*
X49069058Y-52462403D01*
X48989870Y-52653579D01*
X48989868Y-52653587D01*
X48949500Y-52856530D01*
X48949500Y-53063469D01*
X48989868Y-53266412D01*
X48989870Y-53266420D01*
X49055939Y-53425925D01*
X49069059Y-53457598D01*
X49112713Y-53522931D01*
X49184024Y-53629657D01*
X49330342Y-53775975D01*
X49502405Y-53890943D01*
X49577411Y-53922011D01*
X49667108Y-53959164D01*
X49721511Y-54003005D01*
X49743576Y-54069299D01*
X49726297Y-54136998D01*
X49675160Y-54184609D01*
X49657974Y-54191656D01*
X49481781Y-54248905D01*
X49292442Y-54345379D01*
X49120540Y-54470272D01*
X49120535Y-54470276D01*
X48970276Y-54620535D01*
X48970272Y-54620540D01*
X48845379Y-54792442D01*
X48748905Y-54981781D01*
X48691656Y-55157974D01*
X48652218Y-55215649D01*
X48587859Y-55242847D01*
X48519013Y-55230932D01*
X48467537Y-55183688D01*
X48459164Y-55167107D01*
X48390943Y-55002405D01*
X48275975Y-54830342D01*
X48129657Y-54684024D01*
X47987319Y-54588918D01*
X47957598Y-54569059D01*
X47957593Y-54569057D01*
X47766420Y-54489870D01*
X47766412Y-54489868D01*
X47563469Y-54449500D01*
X47563465Y-54449500D01*
X47356535Y-54449500D01*
X47356530Y-54449500D01*
X47153587Y-54489868D01*
X47153579Y-54489870D01*
X46962403Y-54569058D01*
X46790342Y-54684024D01*
X46644024Y-54830342D01*
X46529058Y-55002403D01*
X46449870Y-55193579D01*
X46449868Y-55193587D01*
X46409500Y-55396530D01*
X46409500Y-55603469D01*
X46449869Y-55806420D01*
X46451532Y-55811901D01*
X46452155Y-55881768D01*
X46414905Y-55940880D01*
X46351610Y-55970470D01*
X46282366Y-55961143D01*
X46245190Y-55935575D01*
X46006819Y-55697204D01*
X45973334Y-55635881D01*
X45970500Y-55609523D01*
X45970500Y-55396534D01*
X45970499Y-55396530D01*
X45952692Y-55307007D01*
X45930130Y-55193580D01*
X45850941Y-55002402D01*
X45735977Y-54830345D01*
X45735975Y-54830342D01*
X45589657Y-54684024D01*
X45447319Y-54588918D01*
X45417598Y-54569059D01*
X45417593Y-54569057D01*
X45226420Y-54489870D01*
X45226412Y-54489868D01*
X45023469Y-54449500D01*
X45023465Y-54449500D01*
X44816535Y-54449500D01*
X44816530Y-54449500D01*
X44613587Y-54489868D01*
X44613579Y-54489870D01*
X44422403Y-54569058D01*
X44262390Y-54675974D01*
X44195712Y-54696851D01*
X44128332Y-54678366D01*
X44081643Y-54626387D01*
X44069500Y-54572871D01*
X44069500Y-53887128D01*
X44089185Y-53820089D01*
X44141989Y-53774334D01*
X44211147Y-53764390D01*
X44262390Y-53784026D01*
X44422400Y-53890940D01*
X44422401Y-53890940D01*
X44422402Y-53890941D01*
X44613580Y-53970130D01*
X44816530Y-54010499D01*
X44816534Y-54010500D01*
X44816535Y-54010500D01*
X45023466Y-54010500D01*
X45023467Y-54010499D01*
X45226420Y-53970130D01*
X45417598Y-53890941D01*
X45589655Y-53775977D01*
X45735977Y-53629655D01*
X45850941Y-53457598D01*
X45930130Y-53266420D01*
X45970500Y-53063465D01*
X45970500Y-52856535D01*
X45970499Y-52856530D01*
X46409500Y-52856530D01*
X46409500Y-53063469D01*
X46449868Y-53266412D01*
X46449870Y-53266420D01*
X46515939Y-53425925D01*
X46529059Y-53457598D01*
X46572713Y-53522931D01*
X46644024Y-53629657D01*
X46790342Y-53775975D01*
X46790345Y-53775977D01*
X46962402Y-53890941D01*
X47153580Y-53970130D01*
X47356530Y-54010499D01*
X47356534Y-54010500D01*
X47356535Y-54010500D01*
X47563466Y-54010500D01*
X47563467Y-54010499D01*
X47766420Y-53970130D01*
X47957598Y-53890941D01*
X48129655Y-53775977D01*
X48275977Y-53629655D01*
X48390941Y-53457598D01*
X48470130Y-53266420D01*
X48510500Y-53063465D01*
X48510500Y-52856535D01*
X48470130Y-52653580D01*
X48390941Y-52462402D01*
X48275977Y-52290345D01*
X48275975Y-52290342D01*
X48129657Y-52144024D01*
X47985842Y-52047931D01*
X47957598Y-52029059D01*
X47957593Y-52029057D01*
X47766420Y-51949870D01*
X47766412Y-51949868D01*
X47563469Y-51909500D01*
X47563465Y-51909500D01*
X47356535Y-51909500D01*
X47356530Y-51909500D01*
X47153587Y-51949868D01*
X47153579Y-51949870D01*
X46962403Y-52029058D01*
X46790342Y-52144024D01*
X46644024Y-52290342D01*
X46529058Y-52462403D01*
X46449870Y-52653579D01*
X46449868Y-52653587D01*
X46409500Y-52856530D01*
X45970499Y-52856530D01*
X45930130Y-52653580D01*
X45850941Y-52462402D01*
X45735977Y-52290345D01*
X45735975Y-52290342D01*
X45589657Y-52144024D01*
X45445842Y-52047931D01*
X45417598Y-52029059D01*
X45417593Y-52029057D01*
X45226420Y-51949870D01*
X45226412Y-51949868D01*
X45023469Y-51909500D01*
X45023465Y-51909500D01*
X44816535Y-51909500D01*
X44816530Y-51909500D01*
X44613587Y-51949868D01*
X44613579Y-51949870D01*
X44422403Y-52029058D01*
X44250344Y-52144023D01*
X44179672Y-52214695D01*
X44118348Y-52248179D01*
X44048657Y-52243194D01*
X44004310Y-52214694D01*
X43156059Y-51366444D01*
X43156058Y-51366443D01*
X43054800Y-51324500D01*
X38605200Y-51324500D01*
X38605198Y-51324500D01*
X38533599Y-51354158D01*
X38503942Y-51366442D01*
X38503939Y-51366444D01*
X37887104Y-51983279D01*
X37825781Y-52016764D01*
X37756089Y-52011780D01*
X37751970Y-52010159D01*
X37606420Y-51949870D01*
X37606412Y-51949868D01*
X37403469Y-51909500D01*
X37403465Y-51909500D01*
X37196535Y-51909500D01*
X37196530Y-51909500D01*
X36993587Y-51949868D01*
X36993572Y-51949872D01*
X36982684Y-51954382D01*
X36913214Y-51961848D01*
X36850737Y-51930570D01*
X36815087Y-51870479D01*
X36811237Y-51839826D01*
X36811237Y-49938232D01*
X36810326Y-49931981D01*
X36820135Y-49862806D01*
X36829918Y-49845223D01*
X36902956Y-49735915D01*
X36975512Y-49560751D01*
X37012500Y-49374798D01*
X37012500Y-49185202D01*
X36975512Y-48999249D01*
X36902956Y-48824085D01*
X36896268Y-48814075D01*
X36809140Y-48683679D01*
X36809133Y-48683670D01*
X36797622Y-48666442D01*
X36793512Y-48662332D01*
X36793510Y-48662329D01*
X36751872Y-48620691D01*
X47899500Y-48620691D01*
X47899500Y-48739309D01*
X47930201Y-48853886D01*
X47989511Y-48956613D01*
X48073387Y-49040489D01*
X48176114Y-49099799D01*
X48290691Y-49130500D01*
X48290694Y-49130500D01*
X48409306Y-49130500D01*
X48409309Y-49130500D01*
X48523886Y-49099799D01*
X48626613Y-49040489D01*
X48710489Y-48956613D01*
X48769799Y-48853886D01*
X48800500Y-48739309D01*
X48800500Y-48620691D01*
X48769799Y-48506114D01*
X48710489Y-48403387D01*
X48626613Y-48319511D01*
X48523886Y-48260201D01*
X48409309Y-48229500D01*
X48290691Y-48229500D01*
X48176114Y-48260201D01*
X48176112Y-48260201D01*
X48176112Y-48260202D01*
X48073387Y-48319511D01*
X48073384Y-48319513D01*
X47989513Y-48403384D01*
X47989511Y-48403387D01*
X47975853Y-48427044D01*
X47930201Y-48506114D01*
X47899500Y-48620691D01*
X36751872Y-48620691D01*
X36694075Y-48562894D01*
X36660590Y-48501571D01*
X36665574Y-48431879D01*
X36707446Y-48375946D01*
X36720637Y-48369410D01*
X36719843Y-48368059D01*
X36725962Y-48364460D01*
X36731683Y-48361612D01*
X36733439Y-48360455D01*
X36737418Y-48356100D01*
X36764053Y-48329500D01*
X36785991Y-48307593D01*
X36790316Y-48303645D01*
X36790382Y-48303546D01*
X36792618Y-48297138D01*
X36805733Y-48265531D01*
X36805737Y-48265527D01*
X36805736Y-48265527D01*
X36820288Y-48230466D01*
X36820470Y-48230033D01*
X36820473Y-48230014D01*
X36820473Y-48230013D01*
X36820474Y-48230011D01*
X36820500Y-48189118D01*
X36820528Y-48150261D01*
X36820527Y-48150259D01*
X36820536Y-48137673D01*
X36820533Y-48137633D01*
X36820780Y-47752202D01*
X36830470Y-32647444D01*
X36830490Y-32647256D01*
X36830497Y-32604314D01*
X36830497Y-32604252D01*
X36830529Y-32555290D01*
X36830506Y-32555180D01*
X36830507Y-32555177D01*
X36799996Y-32481479D01*
X36743604Y-32425067D01*
X36732963Y-32420657D01*
X36678568Y-32376807D01*
X36656515Y-32310509D01*
X36673807Y-32242812D01*
X36692752Y-32218427D01*
X36797622Y-32113558D01*
X36902956Y-31955915D01*
X36975512Y-31780751D01*
X37012500Y-31594798D01*
X37012500Y-31405202D01*
X37011600Y-31400678D01*
X37009932Y-31392289D01*
X37005926Y-31372149D01*
X68049500Y-31372149D01*
X68049500Y-31627850D01*
X68058077Y-31692993D01*
X68082874Y-31881340D01*
X68149050Y-32128312D01*
X68149053Y-32128322D01*
X68246894Y-32364531D01*
X68246899Y-32364542D01*
X68374734Y-32585957D01*
X68374745Y-32585973D01*
X68530388Y-32788811D01*
X68530394Y-32788818D01*
X68711181Y-32969605D01*
X68711188Y-32969611D01*
X68855312Y-33080201D01*
X68914035Y-33125261D01*
X68914042Y-33125265D01*
X69135457Y-33253100D01*
X69135462Y-33253102D01*
X69135465Y-33253104D01*
X69284426Y-33314805D01*
X69311722Y-33326112D01*
X69371687Y-33350950D01*
X69618660Y-33417126D01*
X69872157Y-33450500D01*
X69872164Y-33450500D01*
X70127836Y-33450500D01*
X70127843Y-33450500D01*
X70381340Y-33417126D01*
X70628313Y-33350950D01*
X70864535Y-33253104D01*
X70864778Y-33252964D01*
X70916011Y-33223384D01*
X71085965Y-33125261D01*
X71288813Y-32969610D01*
X71469610Y-32788813D01*
X71625261Y-32585965D01*
X71753104Y-32364535D01*
X71850950Y-32128313D01*
X71917126Y-31881340D01*
X71950500Y-31627843D01*
X71950500Y-31372157D01*
X71917126Y-31118660D01*
X71850950Y-30871687D01*
X71848912Y-30866768D01*
X71753105Y-30635468D01*
X71753100Y-30635457D01*
X71625265Y-30414042D01*
X71625261Y-30414035D01*
X71521836Y-30279249D01*
X71469611Y-30211188D01*
X71469605Y-30211181D01*
X71288818Y-30030394D01*
X71288811Y-30030388D01*
X71085973Y-29874745D01*
X71085971Y-29874743D01*
X71085965Y-29874739D01*
X71085960Y-29874736D01*
X71085957Y-29874734D01*
X70864542Y-29746899D01*
X70864531Y-29746894D01*
X70628322Y-29649053D01*
X70628315Y-29649051D01*
X70628313Y-29649050D01*
X70381340Y-29582874D01*
X70325007Y-29575457D01*
X70127850Y-29549500D01*
X70127843Y-29549500D01*
X69872157Y-29549500D01*
X69872149Y-29549500D01*
X69646826Y-29579165D01*
X69618660Y-29582874D01*
X69371687Y-29649050D01*
X69371677Y-29649053D01*
X69135468Y-29746894D01*
X69135457Y-29746899D01*
X68914042Y-29874734D01*
X68914026Y-29874745D01*
X68711188Y-30030388D01*
X68711181Y-30030394D01*
X68530394Y-30211181D01*
X68530388Y-30211188D01*
X68374745Y-30414026D01*
X68374734Y-30414042D01*
X68246899Y-30635457D01*
X68246894Y-30635468D01*
X68149053Y-30871677D01*
X68149050Y-30871687D01*
X68087901Y-31099901D01*
X68082874Y-31118661D01*
X68049500Y-31372149D01*
X37005926Y-31372149D01*
X36979172Y-31237649D01*
X36975512Y-31219249D01*
X36902956Y-31044085D01*
X36832133Y-30938091D01*
X36811257Y-30871418D01*
X36811237Y-30869204D01*
X36811237Y-30866775D01*
X36811238Y-30866769D01*
X36811237Y-28883232D01*
X36805284Y-28842373D01*
X36815098Y-28773200D01*
X36860754Y-28720310D01*
X36927757Y-28700500D01*
X70460118Y-28700500D01*
X70496519Y-28700500D01*
X70503472Y-28700695D01*
G37*
%TD.AperFunction*%
%TA.AperFunction,Conductor*%
G36*
X28251207Y-55982767D02*
G01*
X28256026Y-55987335D01*
X29106509Y-56837819D01*
X29139994Y-56899142D01*
X29135010Y-56968834D01*
X29093138Y-57024767D01*
X29027674Y-57049184D01*
X29018828Y-57049500D01*
X27610198Y-57049500D01*
X27543159Y-57029815D01*
X27522517Y-57013181D01*
X27254342Y-56745006D01*
X27220857Y-56683683D01*
X27225841Y-56613991D01*
X27267713Y-56558058D01*
X27317832Y-56535708D01*
X27371301Y-56525071D01*
X27446420Y-56510130D01*
X27637598Y-56430941D01*
X27809655Y-56315977D01*
X27955977Y-56169655D01*
X28065243Y-56006124D01*
X28118854Y-55961320D01*
X28188179Y-55952613D01*
X28251207Y-55982767D01*
G37*
%TD.AperFunction*%
%TA.AperFunction,Conductor*%
G36*
X41192179Y-56196998D02*
G01*
X41248113Y-56238869D01*
X41249164Y-56240295D01*
X41350272Y-56379459D01*
X41350276Y-56379464D01*
X41500535Y-56529723D01*
X41500540Y-56529727D01*
X41672442Y-56654620D01*
X41861784Y-56751096D01*
X41969570Y-56786117D01*
X42027246Y-56825554D01*
X42054445Y-56889912D01*
X42042531Y-56958758D01*
X42018938Y-56991725D01*
X41997488Y-57013177D01*
X41936167Y-57046665D01*
X41909803Y-57049500D01*
X40536527Y-57049500D01*
X40469488Y-57029815D01*
X40423733Y-56977011D01*
X40413789Y-56907853D01*
X40442814Y-56844297D01*
X40448846Y-56837819D01*
X40752366Y-56534299D01*
X41061168Y-56225497D01*
X41122488Y-56192014D01*
X41192179Y-56196998D01*
G37*
%TD.AperFunction*%
%TA.AperFunction,Conductor*%
G36*
X31160985Y-55769066D02*
G01*
X31212461Y-55816310D01*
X31220833Y-55832887D01*
X31248673Y-55900099D01*
X31275939Y-55965925D01*
X31289059Y-55997598D01*
X31302836Y-56018217D01*
X31404024Y-56169657D01*
X31550342Y-56315975D01*
X31550345Y-56315977D01*
X31722402Y-56430941D01*
X31913580Y-56510130D01*
X31913581Y-56510130D01*
X31915534Y-56510939D01*
X31969937Y-56554780D01*
X31992002Y-56621074D01*
X31974723Y-56688773D01*
X31923586Y-56736384D01*
X31868081Y-56749500D01*
X30638256Y-56749500D01*
X30571217Y-56729815D01*
X30525462Y-56677011D01*
X30515518Y-56607853D01*
X30544543Y-56544297D01*
X30557718Y-56531215D01*
X30559467Y-56529720D01*
X30709723Y-56379464D01*
X30709727Y-56379459D01*
X30834620Y-56207557D01*
X30931095Y-56018217D01*
X30988343Y-55842026D01*
X31027780Y-55784351D01*
X31092139Y-55757152D01*
X31160985Y-55769066D01*
G37*
%TD.AperFunction*%
%TA.AperFunction,Conductor*%
G36*
X31262358Y-52275184D02*
G01*
X31308113Y-52327988D01*
X31318057Y-52397146D01*
X31298423Y-52448388D01*
X31289057Y-52462404D01*
X31209870Y-52653579D01*
X31209868Y-52653587D01*
X31169500Y-52856530D01*
X31169500Y-53063469D01*
X31209868Y-53266412D01*
X31209870Y-53266420D01*
X31275939Y-53425925D01*
X31289059Y-53457598D01*
X31332713Y-53522931D01*
X31404024Y-53629657D01*
X31550342Y-53775975D01*
X31550345Y-53775977D01*
X31722402Y-53890941D01*
X31913580Y-53970130D01*
X32116530Y-54010499D01*
X32116534Y-54010500D01*
X32116535Y-54010500D01*
X32323466Y-54010500D01*
X32323467Y-54010499D01*
X32526420Y-53970130D01*
X32717598Y-53890941D01*
X32889655Y-53775977D01*
X33035977Y-53629655D01*
X33131083Y-53487317D01*
X33184692Y-53442515D01*
X33254017Y-53433806D01*
X33317045Y-53463961D01*
X33321861Y-53468527D01*
X33790054Y-53936720D01*
X34251469Y-54398135D01*
X34284954Y-54459458D01*
X34279970Y-54529150D01*
X34238098Y-54585083D01*
X34232679Y-54588918D01*
X34090345Y-54684022D01*
X34090341Y-54684025D01*
X33944024Y-54830342D01*
X33829058Y-55002403D01*
X33749870Y-55193579D01*
X33749868Y-55193587D01*
X33709500Y-55396530D01*
X33709500Y-55603469D01*
X33749868Y-55806412D01*
X33749870Y-55806420D01*
X33815939Y-55965925D01*
X33829059Y-55997598D01*
X33842836Y-56018217D01*
X33944024Y-56169657D01*
X34090342Y-56315975D01*
X34090345Y-56315977D01*
X34262402Y-56430941D01*
X34453580Y-56510130D01*
X34453581Y-56510130D01*
X34455534Y-56510939D01*
X34509937Y-56554780D01*
X34532002Y-56621074D01*
X34514723Y-56688773D01*
X34463586Y-56736384D01*
X34408081Y-56749500D01*
X32571919Y-56749500D01*
X32504880Y-56729815D01*
X32459125Y-56677011D01*
X32449181Y-56607853D01*
X32478206Y-56544297D01*
X32524466Y-56510939D01*
X32526418Y-56510130D01*
X32526420Y-56510130D01*
X32717598Y-56430941D01*
X32889655Y-56315977D01*
X33035977Y-56169655D01*
X33150941Y-55997598D01*
X33230130Y-55806420D01*
X33270500Y-55603465D01*
X33270500Y-55396535D01*
X33230130Y-55193580D01*
X33150941Y-55002402D01*
X33035977Y-54830345D01*
X33035975Y-54830342D01*
X32889657Y-54684024D01*
X32747319Y-54588918D01*
X32717598Y-54569059D01*
X32717593Y-54569057D01*
X32526420Y-54489870D01*
X32526412Y-54489868D01*
X32323469Y-54449500D01*
X32323465Y-54449500D01*
X32116535Y-54449500D01*
X32116530Y-54449500D01*
X31913587Y-54489868D01*
X31913579Y-54489870D01*
X31722403Y-54569058D01*
X31550342Y-54684024D01*
X31404024Y-54830342D01*
X31289057Y-55002403D01*
X31220835Y-55167108D01*
X31176994Y-55221511D01*
X31110700Y-55243576D01*
X31043000Y-55226297D01*
X30995390Y-55175159D01*
X30988343Y-55157973D01*
X30931095Y-54981782D01*
X30834620Y-54792442D01*
X30709727Y-54620540D01*
X30709723Y-54620535D01*
X30559464Y-54470276D01*
X30559459Y-54470272D01*
X30387557Y-54345379D01*
X30198216Y-54248904D01*
X30022026Y-54191656D01*
X29964350Y-54152218D01*
X29937152Y-54087860D01*
X29949067Y-54019013D01*
X29996311Y-53967538D01*
X30012882Y-53959168D01*
X30177598Y-53890941D01*
X30349655Y-53775977D01*
X30495977Y-53629655D01*
X30610941Y-53457598D01*
X30690130Y-53266420D01*
X30730500Y-53063465D01*
X30730500Y-52856535D01*
X30690130Y-52653580D01*
X30624500Y-52495136D01*
X30610942Y-52462404D01*
X30601577Y-52448388D01*
X30580701Y-52381710D01*
X30599187Y-52314330D01*
X30651167Y-52267641D01*
X30704677Y-52255499D01*
X31195319Y-52255499D01*
X31262358Y-52275184D01*
G37*
%TD.AperFunction*%
%TA.AperFunction,Conductor*%
G36*
X36546544Y-54555185D02*
G01*
X36592299Y-54607989D01*
X36602243Y-54677147D01*
X36573218Y-54740703D01*
X36567186Y-54747181D01*
X36484025Y-54830341D01*
X36484024Y-54830342D01*
X36369058Y-55002403D01*
X36289870Y-55193579D01*
X36289868Y-55193587D01*
X36249500Y-55396530D01*
X36249500Y-55603469D01*
X36289868Y-55806412D01*
X36289870Y-55806420D01*
X36355939Y-55965925D01*
X36369059Y-55997598D01*
X36382836Y-56018217D01*
X36484024Y-56169657D01*
X36630342Y-56315975D01*
X36630345Y-56315977D01*
X36802402Y-56430941D01*
X36993580Y-56510130D01*
X36993581Y-56510130D01*
X36995534Y-56510939D01*
X37049937Y-56554780D01*
X37072002Y-56621074D01*
X37054723Y-56688773D01*
X37003586Y-56736384D01*
X36948081Y-56749500D01*
X35111919Y-56749500D01*
X35044880Y-56729815D01*
X34999125Y-56677011D01*
X34989181Y-56607853D01*
X35018206Y-56544297D01*
X35064466Y-56510939D01*
X35066418Y-56510130D01*
X35066420Y-56510130D01*
X35257598Y-56430941D01*
X35429655Y-56315977D01*
X35575977Y-56169655D01*
X35690941Y-55997598D01*
X35770130Y-55806420D01*
X35810500Y-55603465D01*
X35810500Y-55396535D01*
X35770130Y-55193580D01*
X35690941Y-55002402D01*
X35575977Y-54830345D01*
X35575975Y-54830342D01*
X35492814Y-54747181D01*
X35459329Y-54685858D01*
X35464313Y-54616166D01*
X35506185Y-54560233D01*
X35571649Y-54535816D01*
X35580495Y-54535500D01*
X36479505Y-54535500D01*
X36546544Y-54555185D01*
G37*
%TD.AperFunction*%
%TA.AperFunction,Conductor*%
G36*
X38501562Y-54555185D02*
G01*
X38522204Y-54571819D01*
X38863279Y-54912894D01*
X38896764Y-54974217D01*
X38891780Y-55043909D01*
X38890159Y-55048027D01*
X38829871Y-55193575D01*
X38829868Y-55193587D01*
X38789500Y-55396530D01*
X38789500Y-55603469D01*
X38829868Y-55806412D01*
X38829870Y-55806420D01*
X38895939Y-55965925D01*
X38909059Y-55997598D01*
X38922836Y-56018217D01*
X39024024Y-56169657D01*
X39170342Y-56315975D01*
X39170345Y-56315977D01*
X39342402Y-56430941D01*
X39533580Y-56510130D01*
X39533581Y-56510130D01*
X39535534Y-56510939D01*
X39589937Y-56554780D01*
X39612002Y-56621074D01*
X39594723Y-56688773D01*
X39543586Y-56736384D01*
X39488081Y-56749500D01*
X37651919Y-56749500D01*
X37584880Y-56729815D01*
X37539125Y-56677011D01*
X37529181Y-56607853D01*
X37558206Y-56544297D01*
X37604466Y-56510939D01*
X37606418Y-56510130D01*
X37606420Y-56510130D01*
X37797598Y-56430941D01*
X37969655Y-56315977D01*
X38115977Y-56169655D01*
X38230941Y-55997598D01*
X38310130Y-55806420D01*
X38350500Y-55603465D01*
X38350500Y-55396535D01*
X38310130Y-55193580D01*
X38230941Y-55002402D01*
X38115977Y-54830345D01*
X38115975Y-54830342D01*
X38032814Y-54747181D01*
X37999329Y-54685858D01*
X38004313Y-54616166D01*
X38046185Y-54560233D01*
X38111649Y-54535816D01*
X38120495Y-54535500D01*
X38434523Y-54535500D01*
X38501562Y-54555185D01*
G37*
%TD.AperFunction*%
%TA.AperFunction,Conductor*%
G36*
X63563834Y-53684313D02*
G01*
X63619767Y-53726185D01*
X63644184Y-53791649D01*
X63644500Y-53800495D01*
X63644500Y-54344800D01*
X63686443Y-54446058D01*
X63763942Y-54523557D01*
X63865200Y-54565500D01*
X63974800Y-54565500D01*
X64389505Y-54565500D01*
X64456544Y-54585185D01*
X64502299Y-54637989D01*
X64512243Y-54707147D01*
X64483218Y-54770703D01*
X64477186Y-54777181D01*
X64424025Y-54830341D01*
X64424024Y-54830342D01*
X64309056Y-55002405D01*
X64248770Y-55147952D01*
X64204929Y-55202356D01*
X64138635Y-55224421D01*
X64134209Y-55224500D01*
X63805791Y-55224500D01*
X63738752Y-55204815D01*
X63692997Y-55152011D01*
X63691230Y-55147952D01*
X63630943Y-55002405D01*
X63515975Y-54830342D01*
X63369657Y-54684024D01*
X63227319Y-54588918D01*
X63197598Y-54569059D01*
X63197593Y-54569057D01*
X63006420Y-54489870D01*
X63006412Y-54489868D01*
X62803469Y-54449500D01*
X62803465Y-54449500D01*
X62596535Y-54449500D01*
X62596530Y-54449500D01*
X62393587Y-54489868D01*
X62393579Y-54489870D01*
X62202403Y-54569058D01*
X62030342Y-54684024D01*
X61884024Y-54830342D01*
X61769057Y-55002403D01*
X61700835Y-55167108D01*
X61656994Y-55221511D01*
X61590700Y-55243576D01*
X61523000Y-55226297D01*
X61475390Y-55175159D01*
X61468343Y-55157973D01*
X61411095Y-54981782D01*
X61314622Y-54792445D01*
X61278252Y-54742386D01*
X61254772Y-54676579D01*
X61270597Y-54608525D01*
X61320703Y-54559830D01*
X61378570Y-54545500D01*
X61444799Y-54545500D01*
X61444800Y-54545500D01*
X61546058Y-54503557D01*
X61623557Y-54426058D01*
X61623556Y-54426058D01*
X61682125Y-54367489D01*
X62112895Y-53936718D01*
X62174217Y-53903235D01*
X62243909Y-53908219D01*
X62248026Y-53909839D01*
X62393580Y-53970130D01*
X62596530Y-54010499D01*
X62596534Y-54010500D01*
X62596535Y-54010500D01*
X62803466Y-54010500D01*
X62803467Y-54010499D01*
X63006420Y-53970130D01*
X63197598Y-53890941D01*
X63369655Y-53775977D01*
X63398738Y-53746894D01*
X63432819Y-53712814D01*
X63494142Y-53679329D01*
X63563834Y-53684313D01*
G37*
%TD.AperFunction*%
%TA.AperFunction,Conductor*%
G36*
X43477362Y-53463488D02*
G01*
X43514082Y-53522931D01*
X43518500Y-53555737D01*
X43518500Y-54429950D01*
X43498815Y-54496989D01*
X43446011Y-54542744D01*
X43376853Y-54552688D01*
X43313297Y-54523663D01*
X43306819Y-54517631D01*
X43259464Y-54470276D01*
X43259459Y-54470272D01*
X43087557Y-54345379D01*
X42898216Y-54248904D01*
X42722026Y-54191656D01*
X42664350Y-54152218D01*
X42637152Y-54087860D01*
X42649067Y-54019013D01*
X42696311Y-53967538D01*
X42712882Y-53959168D01*
X42877598Y-53890941D01*
X43049655Y-53775977D01*
X43195977Y-53629655D01*
X43291398Y-53486845D01*
X43345009Y-53442041D01*
X43414334Y-53433334D01*
X43477362Y-53463488D01*
G37*
%TD.AperFunction*%
%TA.AperFunction,Conductor*%
G36*
X36240985Y-53229066D02*
G01*
X36292461Y-53276310D01*
X36300833Y-53292887D01*
X36328673Y-53360099D01*
X36355939Y-53425925D01*
X36369059Y-53457598D01*
X36412713Y-53522931D01*
X36484024Y-53629657D01*
X36627186Y-53772819D01*
X36660671Y-53834142D01*
X36655687Y-53903834D01*
X36613815Y-53959767D01*
X36548351Y-53984184D01*
X36539505Y-53984500D01*
X35927713Y-53984500D01*
X35860674Y-53964815D01*
X35814919Y-53912011D01*
X35804975Y-53842853D01*
X35827395Y-53787615D01*
X35914620Y-53667557D01*
X36011095Y-53478217D01*
X36068343Y-53302026D01*
X36107780Y-53244351D01*
X36172139Y-53217152D01*
X36240985Y-53229066D01*
G37*
%TD.AperFunction*%
%TA.AperFunction,Conductor*%
G36*
X17512638Y-48376909D02*
G01*
X17579661Y-48396641D01*
X17625378Y-48449478D01*
X17635272Y-48518643D01*
X17606202Y-48582178D01*
X17600229Y-48588590D01*
X17522377Y-48666442D01*
X17417042Y-48824087D01*
X17344488Y-48999248D01*
X17344486Y-48999256D01*
X17307500Y-49185197D01*
X17307500Y-49374802D01*
X17344486Y-49560743D01*
X17344488Y-49560751D01*
X17417042Y-49735912D01*
X17490071Y-49845207D01*
X17510949Y-49911885D01*
X17509674Y-49931971D01*
X17508762Y-49938232D01*
X17508762Y-51541660D01*
X17489077Y-51608699D01*
X17436273Y-51654454D01*
X17367115Y-51664398D01*
X17346445Y-51659591D01*
X17296125Y-51643241D01*
X17230000Y-51632768D01*
X17230000Y-52526988D01*
X17172993Y-52494075D01*
X17045826Y-52460000D01*
X16914174Y-52460000D01*
X16787007Y-52494075D01*
X16730000Y-52526988D01*
X16730000Y-51632768D01*
X16729999Y-51632768D01*
X16663878Y-51643241D01*
X16663862Y-51643244D01*
X16653551Y-51646595D01*
X16583710Y-51648588D01*
X16523878Y-51612506D01*
X16493052Y-51549804D01*
X16491237Y-51528672D01*
X16491237Y-49938232D01*
X16490326Y-49931981D01*
X16500135Y-49862806D01*
X16509918Y-49845223D01*
X16582956Y-49735915D01*
X16655512Y-49560751D01*
X16692500Y-49374798D01*
X16692500Y-49185202D01*
X16655512Y-48999249D01*
X16582956Y-48824085D01*
X16547686Y-48771300D01*
X16477622Y-48666441D01*
X16399041Y-48587860D01*
X16365556Y-48526537D01*
X16370540Y-48456845D01*
X16412412Y-48400912D01*
X16477876Y-48376495D01*
X16486782Y-48376179D01*
X17512638Y-48376909D01*
G37*
%TD.AperFunction*%
%TA.AperFunction,Conductor*%
G36*
X35280002Y-48389545D02*
G01*
X35347025Y-48409277D01*
X35392742Y-48462114D01*
X35402636Y-48531279D01*
X35373566Y-48594814D01*
X35367593Y-48601226D01*
X35302377Y-48666442D01*
X35197042Y-48824087D01*
X35124488Y-48999248D01*
X35124486Y-48999256D01*
X35087500Y-49185197D01*
X35087500Y-49374802D01*
X35124486Y-49560743D01*
X35124488Y-49560751D01*
X35197042Y-49735912D01*
X35270071Y-49845207D01*
X35290949Y-49911885D01*
X35289674Y-49931971D01*
X35288762Y-49938232D01*
X35288762Y-51541660D01*
X35269077Y-51608699D01*
X35216273Y-51654454D01*
X35147115Y-51664398D01*
X35126445Y-51659591D01*
X35076125Y-51643241D01*
X35010000Y-51632768D01*
X35010000Y-52526988D01*
X34952993Y-52494075D01*
X34825826Y-52460000D01*
X34694174Y-52460000D01*
X34567007Y-52494075D01*
X34510000Y-52526988D01*
X34510000Y-51632768D01*
X34509999Y-51632768D01*
X34443878Y-51643241D01*
X34443862Y-51643244D01*
X34433551Y-51646595D01*
X34363710Y-51648588D01*
X34303878Y-51612506D01*
X34273052Y-51549804D01*
X34271237Y-51528672D01*
X34271237Y-49938232D01*
X34270326Y-49931981D01*
X34280135Y-49862806D01*
X34289918Y-49845223D01*
X34362956Y-49735915D01*
X34435512Y-49560751D01*
X34472500Y-49374798D01*
X34472500Y-49185202D01*
X34435512Y-48999249D01*
X34362956Y-48824085D01*
X34327686Y-48771300D01*
X34257622Y-48666441D01*
X34191696Y-48600515D01*
X34158211Y-48539192D01*
X34163195Y-48469500D01*
X34205067Y-48413567D01*
X34270531Y-48389150D01*
X34279440Y-48388834D01*
X35280002Y-48389545D01*
G37*
%TD.AperFunction*%
%TA.AperFunction,Conductor*%
G36*
X20050833Y-48378714D02*
G01*
X20117856Y-48398446D01*
X20163573Y-48451283D01*
X20173467Y-48520448D01*
X20144397Y-48583983D01*
X20138424Y-48590395D01*
X20062377Y-48666442D01*
X19957042Y-48824087D01*
X19884488Y-48999248D01*
X19884486Y-48999256D01*
X19847500Y-49185197D01*
X19847500Y-49374802D01*
X19884486Y-49560743D01*
X19884488Y-49560751D01*
X19957042Y-49735912D01*
X20030071Y-49845207D01*
X20050949Y-49911885D01*
X20049674Y-49931971D01*
X20048762Y-49938232D01*
X20048762Y-51856388D01*
X20029077Y-51923427D01*
X19976273Y-51969182D01*
X19907115Y-51979126D01*
X19877309Y-51970949D01*
X19826420Y-51949870D01*
X19826412Y-51949868D01*
X19623469Y-51909500D01*
X19623465Y-51909500D01*
X19416535Y-51909500D01*
X19416530Y-51909500D01*
X19213587Y-51949868D01*
X19213572Y-51949872D01*
X19202684Y-51954382D01*
X19133214Y-51961848D01*
X19070737Y-51930570D01*
X19035087Y-51870479D01*
X19031237Y-51839826D01*
X19031237Y-49938232D01*
X19030326Y-49931981D01*
X19040135Y-49862806D01*
X19049918Y-49845223D01*
X19122956Y-49735915D01*
X19195512Y-49560751D01*
X19232500Y-49374798D01*
X19232500Y-49185202D01*
X19195512Y-48999249D01*
X19122956Y-48824085D01*
X19087686Y-48771300D01*
X19017622Y-48666441D01*
X18940849Y-48589668D01*
X18907364Y-48528345D01*
X18912348Y-48458653D01*
X18954220Y-48402720D01*
X19019684Y-48378303D01*
X19028590Y-48377987D01*
X20050833Y-48378714D01*
G37*
%TD.AperFunction*%
%TA.AperFunction,Conductor*%
G36*
X22589026Y-48380520D02*
G01*
X22656050Y-48400252D01*
X22701767Y-48453089D01*
X22711661Y-48522254D01*
X22682591Y-48585789D01*
X22676618Y-48592201D01*
X22602377Y-48666442D01*
X22497042Y-48824087D01*
X22424488Y-48999248D01*
X22424486Y-48999256D01*
X22387500Y-49185197D01*
X22387500Y-49374802D01*
X22424486Y-49560743D01*
X22424488Y-49560751D01*
X22497042Y-49735912D01*
X22570071Y-49845207D01*
X22590949Y-49911885D01*
X22589674Y-49931971D01*
X22588762Y-49938232D01*
X22588762Y-51856388D01*
X22569077Y-51923427D01*
X22516273Y-51969182D01*
X22447115Y-51979126D01*
X22417309Y-51970949D01*
X22366420Y-51949870D01*
X22366412Y-51949868D01*
X22163469Y-51909500D01*
X22163465Y-51909500D01*
X21956535Y-51909500D01*
X21956530Y-51909500D01*
X21753587Y-51949868D01*
X21753572Y-51949872D01*
X21742684Y-51954382D01*
X21673214Y-51961848D01*
X21610737Y-51930570D01*
X21575087Y-51870479D01*
X21571237Y-51839826D01*
X21571237Y-49938232D01*
X21570326Y-49931981D01*
X21580135Y-49862806D01*
X21589918Y-49845223D01*
X21662956Y-49735915D01*
X21735512Y-49560751D01*
X21772500Y-49374798D01*
X21772500Y-49185202D01*
X21735512Y-48999249D01*
X21662956Y-48824085D01*
X21627686Y-48771300D01*
X21557622Y-48666441D01*
X21482658Y-48591477D01*
X21449173Y-48530154D01*
X21454157Y-48460462D01*
X21496029Y-48404529D01*
X21561493Y-48380112D01*
X21570421Y-48379796D01*
X22589026Y-48380520D01*
G37*
%TD.AperFunction*%
%TA.AperFunction,Conductor*%
G36*
X27665415Y-48384130D02*
G01*
X27732440Y-48403862D01*
X27778157Y-48456699D01*
X27788051Y-48525864D01*
X27758981Y-48589399D01*
X27753008Y-48595811D01*
X27682377Y-48666442D01*
X27577042Y-48824087D01*
X27504488Y-48999248D01*
X27504486Y-48999256D01*
X27467500Y-49185197D01*
X27467500Y-49374802D01*
X27504486Y-49560743D01*
X27504488Y-49560751D01*
X27577042Y-49735912D01*
X27650071Y-49845207D01*
X27670949Y-49911885D01*
X27669674Y-49931971D01*
X27668762Y-49938232D01*
X27668762Y-51856388D01*
X27649077Y-51923427D01*
X27596273Y-51969182D01*
X27527115Y-51979126D01*
X27497309Y-51970949D01*
X27446420Y-51949870D01*
X27446412Y-51949868D01*
X27243469Y-51909500D01*
X27243465Y-51909500D01*
X27036535Y-51909500D01*
X27036530Y-51909500D01*
X26833587Y-51949868D01*
X26833572Y-51949872D01*
X26822684Y-51954382D01*
X26753214Y-51961848D01*
X26690737Y-51930570D01*
X26655087Y-51870479D01*
X26651237Y-51839826D01*
X26651237Y-49938232D01*
X26650326Y-49931981D01*
X26660135Y-49862806D01*
X26669918Y-49845223D01*
X26742956Y-49735915D01*
X26815512Y-49560751D01*
X26852500Y-49374798D01*
X26852500Y-49185202D01*
X26815512Y-48999249D01*
X26742956Y-48824085D01*
X26707686Y-48771300D01*
X26637622Y-48666441D01*
X26566273Y-48595092D01*
X26532788Y-48533769D01*
X26537772Y-48464077D01*
X26579644Y-48408144D01*
X26645108Y-48383727D01*
X26654029Y-48383411D01*
X27665415Y-48384130D01*
G37*
%TD.AperFunction*%
%TA.AperFunction,Conductor*%
G36*
X30203612Y-48385935D02*
G01*
X30270635Y-48405667D01*
X30316352Y-48458504D01*
X30326246Y-48527669D01*
X30297176Y-48591204D01*
X30291203Y-48597616D01*
X30222377Y-48666442D01*
X30117042Y-48824087D01*
X30044488Y-48999248D01*
X30044486Y-48999256D01*
X30007500Y-49185197D01*
X30007500Y-49374802D01*
X30044486Y-49560743D01*
X30044488Y-49560751D01*
X30117042Y-49735912D01*
X30190071Y-49845207D01*
X30210949Y-49911885D01*
X30209674Y-49931971D01*
X30208762Y-49938232D01*
X30208762Y-51856388D01*
X30189077Y-51923427D01*
X30136273Y-51969182D01*
X30067115Y-51979126D01*
X30037309Y-51970949D01*
X29986420Y-51949870D01*
X29986412Y-51949868D01*
X29783469Y-51909500D01*
X29783465Y-51909500D01*
X29576535Y-51909500D01*
X29576530Y-51909500D01*
X29373587Y-51949868D01*
X29373572Y-51949872D01*
X29362684Y-51954382D01*
X29293214Y-51961848D01*
X29230737Y-51930570D01*
X29195087Y-51870479D01*
X29191237Y-51839826D01*
X29191237Y-49938232D01*
X29190326Y-49931981D01*
X29200135Y-49862806D01*
X29209918Y-49845223D01*
X29282956Y-49735915D01*
X29355512Y-49560751D01*
X29392500Y-49374798D01*
X29392500Y-49185202D01*
X29355512Y-48999249D01*
X29282956Y-48824085D01*
X29247686Y-48771300D01*
X29177622Y-48666441D01*
X29108080Y-48596899D01*
X29074595Y-48535576D01*
X29079579Y-48465884D01*
X29121451Y-48409951D01*
X29186915Y-48385534D01*
X29195824Y-48385218D01*
X30203612Y-48385935D01*
G37*
%TD.AperFunction*%
%TA.AperFunction,Conductor*%
G36*
X32741807Y-48387740D02*
G01*
X32808830Y-48407472D01*
X32854547Y-48460309D01*
X32864441Y-48529474D01*
X32835371Y-48593009D01*
X32829398Y-48599421D01*
X32762377Y-48666442D01*
X32657042Y-48824087D01*
X32584488Y-48999248D01*
X32584486Y-48999256D01*
X32547500Y-49185197D01*
X32547500Y-49374802D01*
X32584486Y-49560743D01*
X32584488Y-49560751D01*
X32657042Y-49735912D01*
X32730071Y-49845207D01*
X32750949Y-49911885D01*
X32749674Y-49931971D01*
X32748762Y-49938232D01*
X32748762Y-51856388D01*
X32729077Y-51923427D01*
X32676273Y-51969182D01*
X32607115Y-51979126D01*
X32577309Y-51970949D01*
X32526420Y-51949870D01*
X32526412Y-51949868D01*
X32323469Y-51909500D01*
X32323465Y-51909500D01*
X32116535Y-51909500D01*
X32116530Y-51909500D01*
X31913587Y-51949868D01*
X31913572Y-51949872D01*
X31902684Y-51954382D01*
X31833214Y-51961848D01*
X31770737Y-51930570D01*
X31735087Y-51870479D01*
X31731237Y-51839826D01*
X31731237Y-49938232D01*
X31730326Y-49931981D01*
X31740135Y-49862806D01*
X31749918Y-49845223D01*
X31822956Y-49735915D01*
X31895512Y-49560751D01*
X31932500Y-49374798D01*
X31932500Y-49185202D01*
X31895512Y-48999249D01*
X31822956Y-48824085D01*
X31787686Y-48771300D01*
X31717622Y-48666441D01*
X31649888Y-48598707D01*
X31616403Y-48537384D01*
X31621387Y-48467692D01*
X31663259Y-48411759D01*
X31728723Y-48387342D01*
X31737632Y-48387026D01*
X32741807Y-48387740D01*
G37*
%TD.AperFunction*%
%TA.AperFunction,Conductor*%
G36*
X25127220Y-48382325D02*
G01*
X25194245Y-48402057D01*
X25239962Y-48454894D01*
X25249856Y-48524059D01*
X25220786Y-48587594D01*
X25214813Y-48594006D01*
X25142377Y-48666442D01*
X25037042Y-48824087D01*
X24964488Y-48999248D01*
X24964486Y-48999256D01*
X24927500Y-49185197D01*
X24927500Y-49374802D01*
X24964486Y-49560743D01*
X24964488Y-49560751D01*
X25037042Y-49735912D01*
X25110071Y-49845207D01*
X25130949Y-49911885D01*
X25129674Y-49931971D01*
X25128762Y-49938232D01*
X25128762Y-50867298D01*
X25109077Y-50934337D01*
X25056273Y-50980092D01*
X24987115Y-50990036D01*
X24923559Y-50961011D01*
X24917081Y-50954979D01*
X24876615Y-50914513D01*
X24876613Y-50914511D01*
X24773886Y-50855201D01*
X24659309Y-50824500D01*
X24540691Y-50824500D01*
X24426114Y-50855201D01*
X24426112Y-50855201D01*
X24426112Y-50855202D01*
X24323387Y-50914511D01*
X24323380Y-50914516D01*
X24322911Y-50914986D01*
X24322418Y-50915254D01*
X24316941Y-50919458D01*
X24316285Y-50918603D01*
X24261585Y-50948466D01*
X24191894Y-50943476D01*
X24135964Y-50901600D01*
X24111552Y-50836134D01*
X24111237Y-50827298D01*
X24111237Y-49938234D01*
X24111237Y-49938231D01*
X24110326Y-49931981D01*
X24120135Y-49862806D01*
X24129918Y-49845223D01*
X24202956Y-49735915D01*
X24275512Y-49560751D01*
X24312500Y-49374798D01*
X24312500Y-49185202D01*
X24275512Y-48999249D01*
X24202956Y-48824085D01*
X24167686Y-48771300D01*
X24097622Y-48666441D01*
X24024465Y-48593284D01*
X23990980Y-48531961D01*
X23995964Y-48462269D01*
X24037836Y-48406336D01*
X24103300Y-48381919D01*
X24112221Y-48381603D01*
X25127220Y-48382325D01*
G37*
%TD.AperFunction*%
%TA.AperFunction,Conductor*%
G36*
X35239049Y-28720185D02*
G01*
X35284804Y-28772989D01*
X35294748Y-28842147D01*
X35294714Y-28842378D01*
X35288762Y-28883230D01*
X35288762Y-30869202D01*
X35269077Y-30936241D01*
X35267865Y-30938092D01*
X35197046Y-31044080D01*
X35197042Y-31044088D01*
X35124488Y-31219248D01*
X35124486Y-31219256D01*
X35087500Y-31405197D01*
X35087500Y-31594802D01*
X35124486Y-31780743D01*
X35124488Y-31780751D01*
X35197042Y-31955912D01*
X35302377Y-32113558D01*
X35371419Y-32182600D01*
X35404904Y-32243923D01*
X35399920Y-32313615D01*
X35358048Y-32369548D01*
X35292584Y-32393965D01*
X35283716Y-32394281D01*
X34276418Y-32394102D01*
X34209382Y-32374406D01*
X34163636Y-32321593D01*
X34153705Y-32252433D01*
X34182741Y-32188883D01*
X34188745Y-32182434D01*
X34257622Y-32113558D01*
X34362956Y-31955915D01*
X34435512Y-31780751D01*
X34472500Y-31594798D01*
X34472500Y-31405202D01*
X34435512Y-31219249D01*
X34362956Y-31044085D01*
X34292133Y-30938091D01*
X34271257Y-30871418D01*
X34271237Y-30869204D01*
X34271237Y-30866775D01*
X34271238Y-30866769D01*
X34271237Y-28883232D01*
X34265284Y-28842373D01*
X34275098Y-28773200D01*
X34320754Y-28720310D01*
X34387757Y-28700500D01*
X35172010Y-28700500D01*
X35239049Y-28720185D01*
G37*
%TD.AperFunction*%
%TA.AperFunction,Conductor*%
G36*
X32699049Y-28720185D02*
G01*
X32744804Y-28772989D01*
X32754748Y-28842147D01*
X32754714Y-28842378D01*
X32748762Y-28883230D01*
X32748762Y-30869202D01*
X32729077Y-30936241D01*
X32727865Y-30938092D01*
X32657046Y-31044080D01*
X32657042Y-31044088D01*
X32584488Y-31219248D01*
X32584486Y-31219256D01*
X32547500Y-31405197D01*
X32547500Y-31594802D01*
X32584486Y-31780743D01*
X32584488Y-31780751D01*
X32657042Y-31955912D01*
X32762377Y-32113558D01*
X32830966Y-32182147D01*
X32864451Y-32243470D01*
X32859467Y-32313162D01*
X32817595Y-32369095D01*
X32752131Y-32393512D01*
X32743263Y-32393828D01*
X31736871Y-32393649D01*
X31669835Y-32373953D01*
X31624089Y-32321140D01*
X31614158Y-32251980D01*
X31643194Y-32188430D01*
X31649198Y-32181981D01*
X31717622Y-32113558D01*
X31822956Y-31955915D01*
X31895512Y-31780751D01*
X31932500Y-31594798D01*
X31932500Y-31405202D01*
X31895512Y-31219249D01*
X31822956Y-31044085D01*
X31752133Y-30938091D01*
X31731257Y-30871418D01*
X31731237Y-30869204D01*
X31731237Y-30866775D01*
X31731238Y-30866769D01*
X31731237Y-28883232D01*
X31725284Y-28842373D01*
X31735098Y-28773200D01*
X31780754Y-28720310D01*
X31847757Y-28700500D01*
X32632010Y-28700500D01*
X32699049Y-28720185D01*
G37*
%TD.AperFunction*%
%TA.AperFunction,Conductor*%
G36*
X30159049Y-28720185D02*
G01*
X30204804Y-28772989D01*
X30214748Y-28842147D01*
X30214714Y-28842378D01*
X30208762Y-28883230D01*
X30208762Y-30000260D01*
X30189077Y-30067299D01*
X30172448Y-30087936D01*
X30172444Y-30087939D01*
X30130500Y-30189199D01*
X30130500Y-30987850D01*
X30117968Y-31037874D01*
X30119375Y-31038457D01*
X30044488Y-31219248D01*
X30044486Y-31219256D01*
X30007500Y-31405197D01*
X30007500Y-31594802D01*
X30044486Y-31780743D01*
X30044488Y-31780751D01*
X30117042Y-31955912D01*
X30222377Y-32113558D01*
X30290512Y-32181693D01*
X30323997Y-32243016D01*
X30319013Y-32312708D01*
X30277141Y-32368641D01*
X30211677Y-32393058D01*
X30202809Y-32393374D01*
X29197325Y-32393195D01*
X29130289Y-32373499D01*
X29084543Y-32320686D01*
X29074612Y-32251526D01*
X29103649Y-32187976D01*
X29109652Y-32181527D01*
X29177622Y-32113558D01*
X29282956Y-31955915D01*
X29355512Y-31780751D01*
X29392500Y-31594798D01*
X29392500Y-31405202D01*
X29355512Y-31219249D01*
X29282956Y-31044085D01*
X29212133Y-30938091D01*
X29191257Y-30871418D01*
X29191237Y-30869204D01*
X29191237Y-30866775D01*
X29191238Y-30866769D01*
X29191237Y-28883232D01*
X29185284Y-28842373D01*
X29195098Y-28773200D01*
X29240754Y-28720310D01*
X29307757Y-28700500D01*
X30092010Y-28700500D01*
X30159049Y-28720185D01*
G37*
%TD.AperFunction*%
%TA.AperFunction,Conductor*%
G36*
X27619049Y-28720185D02*
G01*
X27664804Y-28772989D01*
X27674748Y-28842147D01*
X27674714Y-28842378D01*
X27668762Y-28883230D01*
X27668762Y-30869202D01*
X27649077Y-30936241D01*
X27647865Y-30938092D01*
X27577046Y-31044080D01*
X27577042Y-31044088D01*
X27504488Y-31219248D01*
X27504486Y-31219256D01*
X27467500Y-31405197D01*
X27467500Y-31594802D01*
X27504486Y-31780743D01*
X27504488Y-31780751D01*
X27577042Y-31955912D01*
X27682377Y-32113558D01*
X27750059Y-32181240D01*
X27783544Y-32242563D01*
X27778560Y-32312255D01*
X27736688Y-32368188D01*
X27671224Y-32392605D01*
X27662356Y-32392921D01*
X26657779Y-32392741D01*
X26590743Y-32373044D01*
X26544997Y-32320232D01*
X26535066Y-32251072D01*
X26564103Y-32187521D01*
X26570106Y-32181073D01*
X26637622Y-32113558D01*
X26742956Y-31955915D01*
X26815512Y-31780751D01*
X26852500Y-31594798D01*
X26852500Y-31405202D01*
X26815512Y-31219249D01*
X26742956Y-31044085D01*
X26672133Y-30938091D01*
X26651257Y-30871418D01*
X26651237Y-30869204D01*
X26651237Y-30866775D01*
X26651238Y-30866769D01*
X26651237Y-28883232D01*
X26645284Y-28842373D01*
X26655098Y-28773200D01*
X26700754Y-28720310D01*
X26767757Y-28700500D01*
X27552010Y-28700500D01*
X27619049Y-28720185D01*
G37*
%TD.AperFunction*%
%TA.AperFunction,Conductor*%
G36*
X25079049Y-28720185D02*
G01*
X25124804Y-28772989D01*
X25134748Y-28842147D01*
X25134714Y-28842378D01*
X25128762Y-28883230D01*
X25128762Y-30869202D01*
X25109077Y-30936241D01*
X25107865Y-30938092D01*
X25037046Y-31044080D01*
X25037042Y-31044088D01*
X24964488Y-31219248D01*
X24964486Y-31219256D01*
X24927500Y-31405197D01*
X24927500Y-31594802D01*
X24964486Y-31780743D01*
X24964488Y-31780751D01*
X25037042Y-31955912D01*
X25142377Y-32113558D01*
X25209605Y-32180786D01*
X25243090Y-32242109D01*
X25238106Y-32311801D01*
X25196234Y-32367734D01*
X25130770Y-32392151D01*
X25121902Y-32392467D01*
X24118232Y-32392288D01*
X24051196Y-32372591D01*
X24005450Y-32319779D01*
X23995519Y-32250619D01*
X24024556Y-32187069D01*
X24030559Y-32180620D01*
X24097622Y-32113558D01*
X24202956Y-31955915D01*
X24275512Y-31780751D01*
X24312500Y-31594798D01*
X24312500Y-31405202D01*
X24275512Y-31219249D01*
X24202956Y-31044085D01*
X24132133Y-30938091D01*
X24111257Y-30871418D01*
X24111237Y-30869204D01*
X24111237Y-30866775D01*
X24111238Y-30866769D01*
X24111237Y-28883232D01*
X24105284Y-28842373D01*
X24115098Y-28773200D01*
X24160754Y-28720310D01*
X24227757Y-28700500D01*
X25012010Y-28700500D01*
X25079049Y-28720185D01*
G37*
%TD.AperFunction*%
%TA.AperFunction,Conductor*%
G36*
X22539049Y-28720185D02*
G01*
X22584804Y-28772989D01*
X22594748Y-28842147D01*
X22594714Y-28842378D01*
X22588762Y-28883230D01*
X22588762Y-30869202D01*
X22569077Y-30936241D01*
X22567865Y-30938092D01*
X22497046Y-31044080D01*
X22497042Y-31044088D01*
X22424488Y-31219248D01*
X22424486Y-31219256D01*
X22387500Y-31405197D01*
X22387500Y-31594802D01*
X22424486Y-31780743D01*
X22424488Y-31780751D01*
X22497042Y-31955912D01*
X22602377Y-32113558D01*
X22669152Y-32180333D01*
X22702637Y-32241656D01*
X22697653Y-32311348D01*
X22655781Y-32367281D01*
X22590317Y-32391698D01*
X22581449Y-32392014D01*
X21578686Y-32391834D01*
X21511650Y-32372137D01*
X21465904Y-32319325D01*
X21455973Y-32250165D01*
X21485010Y-32186614D01*
X21491013Y-32180166D01*
X21557622Y-32113558D01*
X21662956Y-31955915D01*
X21735512Y-31780751D01*
X21772500Y-31594798D01*
X21772500Y-31405202D01*
X21735512Y-31219249D01*
X21662956Y-31044085D01*
X21592133Y-30938091D01*
X21571257Y-30871418D01*
X21571237Y-30869204D01*
X21571237Y-30866775D01*
X21571238Y-30866769D01*
X21571237Y-28883232D01*
X21565284Y-28842373D01*
X21575098Y-28773200D01*
X21620754Y-28720310D01*
X21687757Y-28700500D01*
X22472010Y-28700500D01*
X22539049Y-28720185D01*
G37*
%TD.AperFunction*%
%TA.AperFunction,Conductor*%
G36*
X19999049Y-28720185D02*
G01*
X20044804Y-28772989D01*
X20054748Y-28842147D01*
X20054714Y-28842378D01*
X20048762Y-28883230D01*
X20048762Y-30869202D01*
X20029077Y-30936241D01*
X20027865Y-30938092D01*
X19957046Y-31044080D01*
X19957042Y-31044088D01*
X19884488Y-31219248D01*
X19884486Y-31219256D01*
X19847500Y-31405197D01*
X19847500Y-31594802D01*
X19884486Y-31780743D01*
X19884488Y-31780751D01*
X19957042Y-31955912D01*
X20062377Y-32113558D01*
X20128698Y-32179879D01*
X20162183Y-32241202D01*
X20157199Y-32310894D01*
X20115327Y-32366827D01*
X20049863Y-32391244D01*
X20040995Y-32391560D01*
X19039139Y-32391381D01*
X18972103Y-32371684D01*
X18926357Y-32318872D01*
X18916426Y-32249712D01*
X18945463Y-32186162D01*
X18951466Y-32179713D01*
X19017622Y-32113558D01*
X19122956Y-31955915D01*
X19195512Y-31780751D01*
X19232500Y-31594798D01*
X19232500Y-31405202D01*
X19195512Y-31219249D01*
X19122956Y-31044085D01*
X19052133Y-30938091D01*
X19031257Y-30871418D01*
X19031237Y-30869204D01*
X19031237Y-30866775D01*
X19031238Y-30866769D01*
X19031237Y-28883232D01*
X19025284Y-28842373D01*
X19035098Y-28773200D01*
X19080754Y-28720310D01*
X19147757Y-28700500D01*
X19932010Y-28700500D01*
X19999049Y-28720185D01*
G37*
%TD.AperFunction*%
%TA.AperFunction,Conductor*%
G36*
X17459049Y-28720185D02*
G01*
X17504804Y-28772989D01*
X17514748Y-28842147D01*
X17514714Y-28842378D01*
X17508762Y-28883230D01*
X17508762Y-30869202D01*
X17489077Y-30936241D01*
X17487865Y-30938092D01*
X17417046Y-31044080D01*
X17417042Y-31044088D01*
X17344488Y-31219248D01*
X17344486Y-31219256D01*
X17307500Y-31405197D01*
X17307500Y-31594802D01*
X17344486Y-31780743D01*
X17344488Y-31780751D01*
X17417042Y-31955912D01*
X17522377Y-32113558D01*
X17588244Y-32179425D01*
X17621729Y-32240748D01*
X17616745Y-32310440D01*
X17574873Y-32366373D01*
X17509409Y-32390790D01*
X17500541Y-32391106D01*
X16499592Y-32390928D01*
X16432556Y-32371232D01*
X16386810Y-32318419D01*
X16376879Y-32249259D01*
X16405915Y-32185709D01*
X16411919Y-32179260D01*
X16477622Y-32113558D01*
X16582956Y-31955915D01*
X16655512Y-31780751D01*
X16692500Y-31594798D01*
X16692500Y-31405202D01*
X16655512Y-31219249D01*
X16582956Y-31044085D01*
X16512133Y-30938091D01*
X16491257Y-30871418D01*
X16491237Y-30869204D01*
X16491237Y-30866775D01*
X16491238Y-30866769D01*
X16491237Y-28883232D01*
X16485284Y-28842373D01*
X16495098Y-28773200D01*
X16540754Y-28720310D01*
X16607757Y-28700500D01*
X17392010Y-28700500D01*
X17459049Y-28720185D01*
G37*
%TD.AperFunction*%
%TA.AperFunction,Conductor*%
G36*
X12075399Y-28720185D02*
G01*
X12121154Y-28772989D01*
X12131851Y-28835721D01*
X12129262Y-28864212D01*
X12129262Y-30582185D01*
X13102318Y-29609128D01*
X13163641Y-29575643D01*
X13233332Y-29580627D01*
X13277680Y-29609128D01*
X14250736Y-30582184D01*
X14250737Y-30582183D01*
X14250737Y-28864203D01*
X14248149Y-28835720D01*
X14261686Y-28767175D01*
X14310133Y-28716829D01*
X14371640Y-28700500D01*
X14852010Y-28700500D01*
X14919049Y-28720185D01*
X14964804Y-28772989D01*
X14974748Y-28842147D01*
X14974714Y-28842378D01*
X14968762Y-28883230D01*
X14968762Y-30869202D01*
X14949077Y-30936241D01*
X14947865Y-30938092D01*
X14877046Y-31044080D01*
X14877042Y-31044088D01*
X14804488Y-31219248D01*
X14804486Y-31219256D01*
X14767500Y-31405197D01*
X14767500Y-31594802D01*
X14804486Y-31780743D01*
X14804488Y-31780751D01*
X14877042Y-31955912D01*
X14982377Y-32113558D01*
X15047790Y-32178971D01*
X15081275Y-32240294D01*
X15076291Y-32309986D01*
X15034419Y-32365919D01*
X14968955Y-32390336D01*
X14960087Y-32390652D01*
X14346242Y-32390542D01*
X14279206Y-32370845D01*
X14233460Y-32318033D01*
X14223529Y-32248873D01*
X14245947Y-32193655D01*
X14269358Y-32161433D01*
X14359542Y-31984437D01*
X14420924Y-31795523D01*
X14420924Y-31795520D01*
X14452000Y-31599321D01*
X14452000Y-31400678D01*
X14420924Y-31204479D01*
X14380738Y-31080796D01*
X14380738Y-31119929D01*
X14361053Y-31186968D01*
X14308249Y-31232723D01*
X14239091Y-31242667D01*
X14175535Y-31213642D01*
X14169057Y-31207610D01*
X13190000Y-30228553D01*
X12210943Y-31207610D01*
X12149620Y-31241095D01*
X12079928Y-31236111D01*
X12023995Y-31194239D01*
X11999578Y-31128775D01*
X11999262Y-31119929D01*
X11999262Y-31080796D01*
X11999261Y-31080796D01*
X11959075Y-31204479D01*
X11928000Y-31400678D01*
X11928000Y-31599321D01*
X11959075Y-31795520D01*
X11959075Y-31795523D01*
X12020457Y-31984437D01*
X12110643Y-32161435D01*
X12133753Y-32193244D01*
X12157233Y-32259050D01*
X12141407Y-32327104D01*
X12091302Y-32375799D01*
X12033413Y-32390129D01*
X11427569Y-32390021D01*
X11360533Y-32370324D01*
X11314787Y-32317512D01*
X11304856Y-32248352D01*
X11333893Y-32184802D01*
X11339897Y-32178353D01*
X11387194Y-32131057D01*
X11412751Y-32099917D01*
X11496143Y-31975112D01*
X11515133Y-31939583D01*
X11572574Y-31800908D01*
X11584268Y-31762358D01*
X11613551Y-31615141D01*
X11617500Y-31575050D01*
X11617500Y-31424950D01*
X11613551Y-31384859D01*
X11584268Y-31237642D01*
X11572574Y-31199092D01*
X11515133Y-31060417D01*
X11515124Y-31060400D01*
X11496150Y-31024900D01*
X11496139Y-31024882D01*
X11428613Y-30923822D01*
X11407735Y-30857144D01*
X11409011Y-30837051D01*
X11411238Y-30821769D01*
X11411237Y-29338232D01*
X11400795Y-29266557D01*
X11346749Y-29156003D01*
X11346747Y-29156001D01*
X11346747Y-29156000D01*
X11259737Y-29068990D01*
X11149179Y-29014942D01*
X11077508Y-29004500D01*
X11077507Y-29004500D01*
X10971028Y-29004500D01*
X10903989Y-28984815D01*
X10858234Y-28932011D01*
X10848290Y-28862853D01*
X10877315Y-28799297D01*
X10936093Y-28761523D01*
X10950257Y-28758252D01*
X11179700Y-28719267D01*
X11193497Y-28717713D01*
X11496528Y-28700695D01*
X11503481Y-28700500D01*
X11539882Y-28700500D01*
X12008360Y-28700500D01*
X12075399Y-28720185D01*
G37*
%TD.AperFunction*%
%TD*%
M02*
