%TF.GenerationSoftware,KiCad,Pcbnew,10.0.5*%
%TF.CreationDate,2026-07-27T20:54:21-06:00*%
%TF.ProjectId,seedsigner-luckfox-pico-mini,73656564-7369-4676-9e65-722d6c75636b,sdfsdf*%
%TF.SameCoordinates,Original*%
%TF.FileFunction,Copper,L1,Top*%
%TF.FilePolarity,Positive*%
%FSLAX46Y46*%
G04 Gerber Fmt 4.6, Leading zero omitted, Abs format (unit mm)*
G04 Created by KiCad (PCBNEW 10.0.5) date 2026-07-27 20:54:21*
%MOMM*%
%LPD*%
G01*
G04 APERTURE LIST*
G04 Aperture macros list*
%AMFreePoly0*
4,1,33,0.221197,0.729189,0.359204,0.672024,0.483408,0.589034,0.589034,0.483408,0.672024,0.359204,0.729189,0.221197,0.758331,0.074689,0.758331,-0.074689,0.729189,-0.221197,0.672024,-0.359204,0.589034,-0.483408,0.483408,-0.589034,0.359204,-0.672024,0.221197,-0.729189,0.074689,-0.758331,-0.074689,-0.758331,-0.221197,-0.729189,-0.359204,-0.672024,-0.483408,-0.589034,-0.589034,-0.483408,
-0.672024,-0.359204,-0.729189,-0.221197,-0.758331,-0.074689,-0.758331,0.074689,-0.729189,0.221197,-0.672024,0.359204,-0.589034,0.483408,-0.483408,0.589034,-0.359204,0.672024,-0.221197,0.729189,-0.074689,0.758331,0.074689,0.758331,0.221197,0.729189,0.221197,0.729189,$1*%
G04 Aperture macros list end*
%TA.AperFunction,ComponentPad*%
%ADD10C,1.524000*%
%TD*%
%TA.AperFunction,ComponentPad*%
%ADD11FreePoly0,90.000000*%
%TD*%
%TA.AperFunction,WasherPad*%
%ADD12C,3.500000*%
%TD*%
%TA.AperFunction,ComponentPad*%
%ADD13R,1.700000X1.700000*%
%TD*%
%TA.AperFunction,ComponentPad*%
%ADD14O,1.700000X1.700000*%
%TD*%
%TA.AperFunction,ViaPad*%
%ADD15C,0.500000*%
%TD*%
%TA.AperFunction,Conductor*%
%ADD16C,0.150000*%
%TD*%
%TA.AperFunction,Conductor*%
%ADD17C,0.300000*%
%TD*%
G04 APERTURE END LIST*
D10*
%TO.P,U1,1,VBUS_1*%
%TO.N,+5V*%
X10650000Y-49280000D03*
%TO.P,U1,2,GND_2*%
%TO.N,GND*%
X13190000Y-49280000D03*
%TO.P,U1,3,3V3(OUT)_3*%
%TO.N,+3.3V*%
X15730000Y-49280000D03*
%TO.P,U1,4,GPIO1_B2_d_4*%
%TO.N,/UART_TXD*%
X18270000Y-49280000D03*
%TO.P,U1,5,GPIO1_B3_u_5*%
%TO.N,/UART_RXD*%
X20810000Y-49280000D03*
%TO.P,U1,6,SPI0_CS0_M0/IO1_C0_d_6*%
%TO.N,Net-(JP5-B)*%
X23350000Y-49280000D03*
%TO.P,U1,7,SPI0_CLK_M0/IO1_C1_d_7*%
%TO.N,/SPI_SCLK*%
X25890000Y-49280000D03*
%TO.P,U1,8,SPI0_MOSI_M0/GPIO1_C2_d_8*%
%TO.N,/SPI_MOSI*%
X28430000Y-49280000D03*
%TO.P,U1,9,SPI0_MISO_M0/GPIO1_C3_d_9*%
%TO.N,/RST*%
X30970000Y-49280000D03*
%TO.P,U1,10,GPIO1_C4_d_10*%
%TO.N,/DC*%
X33510000Y-49280000D03*
%TO.P,U1,11,GPIO1_C5_d_11*%
%TO.N,/KEY3*%
X36050000Y-49280000D03*
%TO.P,U1,12,GPIO1_D0_d_12*%
%TO.N,/JOYSTICK_LEFT*%
X36050000Y-31500000D03*
%TO.P,U1,13,GPIO1_D1_d_13*%
%TO.N,/JOYSTICK_UP*%
X33510000Y-31500000D03*
%TO.P,U1,14,GPIO1_D2_d_14*%
%TO.N,/I2C-SDA*%
X30970000Y-31500000D03*
%TO.P,U1,15,GPIO1_D3_d_15*%
%TO.N,/I2C-SCL*%
X28430000Y-31500000D03*
%TO.P,U1,16,GPIO1_C6_d_16*%
%TO.N,/JOYSTICK_PRESS*%
X25890000Y-31500000D03*
%TO.P,U1,17,GPIO1_C7_d_17*%
%TO.N,/JOYSTICK_DOWN*%
X23350000Y-31500000D03*
%TO.P,U1,18,GPIO0_A4_d_18*%
%TO.N,/JOYSTICK_RIGHT*%
X20810000Y-31500000D03*
%TO.P,U1,19,GPIO4_C0_z_19*%
%TO.N,/KEY1*%
X18270000Y-31500000D03*
%TO.P,U1,20,GPIO4_C1_z_20*%
%TO.N,/KEY2*%
X15730000Y-31500000D03*
%TO.P,U1,21,GND_21*%
%TO.N,GND*%
X13190000Y-31500000D03*
D11*
%TO.P,U1,22,1V8(OUT)_22*%
%TO.N,unconnected-(U1-1V8(OUT)-Pad22)*%
X10650000Y-31500000D03*
%TD*%
D12*
%TO.P,U2,*%
%TO.N,*%
X70000000Y-55500000D03*
X70000000Y-31500000D03*
X12000000Y-55500000D03*
D13*
%TO.P,U2,1,3V3_1*%
%TO.N,+3.3V*%
X65240000Y-52960000D03*
D14*
%TO.P,U2,2,5V0_2*%
%TO.N,+5V*%
X65240000Y-55500000D03*
%TO.P,U2,3,I2C-SDA_3*%
%TO.N,/I2C-SDA*%
X62700000Y-52960000D03*
%TO.P,U2,4,5V0_4*%
%TO.N,+5V*%
X62700000Y-55500000D03*
%TO.P,U2,5,I2C-SCL_5*%
%TO.N,/I2C-SCL*%
X60160000Y-52960000D03*
%TO.P,U2,6,GND_6*%
%TO.N,GND*%
X60160000Y-55500000D03*
%TO.P,U2,7*%
%TO.N,N/C*%
X57620000Y-52960000D03*
%TO.P,U2,8,UART-TXDO_8*%
%TO.N,/UART_TXD*%
X57620000Y-55500000D03*
%TO.P,U2,9,GND_9*%
%TO.N,GND*%
X55080000Y-52960000D03*
%TO.P,U2,10,UART-RXDO_10*%
%TO.N,/UART_RXD*%
X55080000Y-55500000D03*
%TO.P,U2,11*%
%TO.N,N/C*%
X52540000Y-52960000D03*
%TO.P,U2,12*%
X52540000Y-55500000D03*
%TO.P,U2,13,RESET_13*%
%TO.N,/RST*%
X50000000Y-52960000D03*
%TO.P,U2,14,GND_14*%
%TO.N,GND*%
X50000000Y-55500000D03*
%TO.P,U2,15*%
%TO.N,N/C*%
X47460000Y-52960000D03*
%TO.P,U2,16*%
X47460000Y-55500000D03*
%TO.P,U2,17,3V3_17*%
%TO.N,+3.3V*%
X44920000Y-52960000D03*
%TO.P,U2,18,BACKLIGHT_18*%
%TO.N,/RPI_BACKLIGHT*%
X44920000Y-55500000D03*
%TO.P,U2,19,SPI_MOSI_19*%
%TO.N,/SPI_MOSI*%
X42380000Y-52960000D03*
%TO.P,U2,20,GND_20*%
%TO.N,GND*%
X42380000Y-55500000D03*
%TO.P,U2,21*%
%TO.N,N/C*%
X39840000Y-52960000D03*
%TO.P,U2,22,DC_22*%
%TO.N,/DC*%
X39840000Y-55500000D03*
%TO.P,U2,23,SPI_SCLK_23*%
%TO.N,/SPI_SCLK*%
X37300000Y-52960000D03*
%TO.P,U2,24,~{SPI_CS0}_24*%
%TO.N,/RPI_SPI_CS*%
X37300000Y-55500000D03*
%TO.P,U2,25,GND_25*%
%TO.N,GND*%
X34760000Y-52960000D03*
%TO.P,U2,26*%
%TO.N,N/C*%
X34760000Y-55500000D03*
%TO.P,U2,27*%
X32220000Y-52960000D03*
%TO.P,U2,28*%
X32220000Y-55500000D03*
%TO.P,U2,29,JS_LEFT_29*%
%TO.N,/JOYSTICK_LEFT*%
X29680000Y-52960000D03*
%TO.P,U2,30,GND_30*%
%TO.N,GND*%
X29680000Y-55500000D03*
%TO.P,U2,31,JS_UP_31*%
%TO.N,/JOYSTICK_UP*%
X27140000Y-52960000D03*
%TO.P,U2,32*%
%TO.N,N/C*%
X27140000Y-55500000D03*
%TO.P,U2,33,JS_PRESS_33*%
%TO.N,/JOYSTICK_PRESS*%
X24600000Y-52960000D03*
%TO.P,U2,34,GND_34*%
%TO.N,GND*%
X24600000Y-55500000D03*
%TO.P,U2,35,JS_DOWN_35*%
%TO.N,/JOYSTICK_DOWN*%
X22060000Y-52960000D03*
%TO.P,U2,36,KEY3_36*%
%TO.N,/KEY3*%
X22060000Y-55500000D03*
%TO.P,U2,37,JS_RIGHT_37*%
%TO.N,/JOYSTICK_RIGHT*%
X19520000Y-52960000D03*
%TO.P,U2,38,KEY2_38*%
%TO.N,/KEY2*%
X19520000Y-55500000D03*
%TO.P,U2,39,GND_39*%
%TO.N,GND*%
X16980000Y-52960000D03*
%TO.P,U2,40,KEY1_40*%
%TO.N,/KEY1*%
X16980000Y-55500000D03*
%TD*%
D15*
%TO.N,GND*%
X58825000Y-56575000D03*
X47275000Y-44925000D03*
X15300000Y-56925000D03*
X34800000Y-31900000D03*
X37300000Y-31495000D03*
X33475000Y-56375000D03*
X52520000Y-49810000D03*
X38500000Y-49000000D03*
X62725000Y-51475000D03*
X24599978Y-48631452D03*
X31120000Y-56390000D03*
X51880000Y-51710000D03*
X43575000Y-48875000D03*
X44700000Y-50025000D03*
X37200000Y-33200000D03*
X47060000Y-37160000D03*
X38525000Y-56350000D03*
X61420000Y-54920000D03*
X36100000Y-56400000D03*
X47200000Y-50325000D03*
X53725000Y-52050000D03*
X41600000Y-34000000D03*
X16900000Y-32000000D03*
X32200000Y-48700000D03*
X29600000Y-32000000D03*
X39680000Y-48800000D03*
X51275000Y-56025000D03*
X45850000Y-31500000D03*
X42760000Y-41180000D03*
X38570000Y-33220000D03*
X19500000Y-32000000D03*
X27100000Y-48700000D03*
X64025000Y-57075000D03*
X43319000Y-53850000D03*
X23175000Y-56575000D03*
X43875000Y-31125000D03*
X43782156Y-56700001D03*
X61500000Y-56675000D03*
X23320000Y-55020000D03*
X46250000Y-29500000D03*
X45800000Y-56600000D03*
X13900000Y-52800000D03*
X27000000Y-32000000D03*
X41700000Y-48600000D03*
X36100000Y-53785000D03*
X34799972Y-48638706D03*
X41350000Y-56300000D03*
X29700000Y-48700000D03*
X19500000Y-48700000D03*
X9200000Y-49000000D03*
X22100000Y-48700000D03*
X50830083Y-54748842D03*
X59000000Y-54810000D03*
X25825000Y-56525000D03*
X39660000Y-33340000D03*
X22000000Y-32000000D03*
X42625000Y-38775000D03*
X56500000Y-43950000D03*
X24500000Y-32000000D03*
X10400000Y-52675000D03*
X15750000Y-54425000D03*
X27770000Y-56660000D03*
X48750000Y-51950000D03*
X53775000Y-53725000D03*
X56775000Y-50375000D03*
X11900000Y-29700000D03*
X56450000Y-37950000D03*
X56725000Y-48100000D03*
X13520000Y-57750000D03*
X56300000Y-54325000D03*
X43625000Y-32700000D03*
X47375000Y-40000000D03*
X32200000Y-32100000D03*
X50210000Y-50120000D03*
X49920000Y-41870000D03*
X42650000Y-44550000D03*
X30960000Y-53630000D03*
X65450000Y-29625000D03*
X18400000Y-56825000D03*
X47110000Y-38360000D03*
X56175000Y-30150000D03*
X45775000Y-51175000D03*
X66875000Y-51075000D03*
%TO.N,Net-(JP5-B)*%
X54375000Y-36400000D03*
%TO.N,/I2C-SDA*%
X40940000Y-32840000D03*
%TO.N,/JOYSTICK_DOWN*%
X24600000Y-51275000D03*
%TO.N,/I2C-SCL*%
X42160000Y-33500000D03*
%TO.N,/RPI_SPI_CS*%
X48350000Y-48680000D03*
X54210000Y-48270000D03*
%TD*%
%TO.N,GND*%
D16*
X56300000Y-54180000D02*
X56300000Y-54325000D01*
X35060000Y-52960000D02*
X34760000Y-52960000D01*
X41350000Y-56300000D02*
X41580000Y-56300000D01*
X43782156Y-56700001D02*
X43580001Y-56700001D01*
X43580001Y-56700001D02*
X42380000Y-55500000D01*
X50751158Y-54748842D02*
X50000000Y-55500000D01*
X50830083Y-54748842D02*
X50751158Y-54748842D01*
X55080000Y-52960000D02*
X56300000Y-54180000D01*
D17*
X35885000Y-53785000D02*
X35060000Y-52960000D01*
D16*
X36100000Y-53785000D02*
X35885000Y-53785000D01*
X51275000Y-56025000D02*
X50525000Y-56025000D01*
X41580000Y-56300000D02*
X42380000Y-55500000D01*
X50525000Y-56025000D02*
X50000000Y-55500000D01*
%TO.N,+5V*%
X15424000Y-58149000D02*
X14200000Y-56925000D01*
X14200000Y-54400000D02*
X10550000Y-50750000D01*
X65240000Y-56885000D02*
X63976000Y-58149000D01*
X63976000Y-58149000D02*
X15424000Y-58149000D01*
X10550000Y-50750000D02*
X10550000Y-49180000D01*
X14200000Y-56925000D02*
X14200000Y-54400000D01*
X65240000Y-55500000D02*
X65240000Y-56885000D01*
%TO.N,/JOYSTICK_PRESS*%
X36100000Y-50900000D02*
X37980000Y-49020000D01*
X26660000Y-50900000D02*
X36100000Y-50900000D01*
X37980000Y-49020000D02*
X37980000Y-33013521D01*
X27390000Y-29800000D02*
X25780000Y-31410000D01*
X24600000Y-52960000D02*
X26660000Y-50900000D01*
X37980000Y-31180000D02*
X36600000Y-29800000D01*
X36600000Y-29800000D02*
X27390000Y-29800000D01*
X37980000Y-32586479D02*
X37980000Y-31180000D01*
X37974000Y-33007521D02*
X37974000Y-32592479D01*
X37980000Y-33013521D02*
X37974000Y-33007521D01*
X37974000Y-32592479D02*
X37980000Y-32586479D01*
%TO.N,+3.3V*%
X17000000Y-57700000D02*
X15025000Y-55725000D01*
X65240000Y-52960000D02*
X63975000Y-54225000D01*
X44920000Y-52960000D02*
X46980000Y-50900000D01*
X63180000Y-50900000D02*
X65240000Y-52960000D01*
X63975000Y-56125000D02*
X62400000Y-57700000D01*
X62400000Y-57700000D02*
X17000000Y-57700000D01*
X15025000Y-55725000D02*
X15025000Y-49785000D01*
X63975000Y-54225000D02*
X63975000Y-56125000D01*
X15025000Y-49785000D02*
X15630000Y-49180000D01*
X46980000Y-50900000D02*
X63180000Y-50900000D01*
%TO.N,/UART_TXD*%
X18081000Y-53078050D02*
X18081000Y-49750000D01*
X19638050Y-54061000D02*
X19063950Y-54061000D01*
X57620000Y-55500000D02*
X55920000Y-57200000D01*
X21864950Y-57200000D02*
X20621000Y-55956050D01*
X55920000Y-57200000D02*
X21864950Y-57200000D01*
X20621000Y-55956050D02*
X20621000Y-55043950D01*
X20621000Y-55043950D02*
X19638050Y-54061000D01*
X19063950Y-54061000D02*
X18081000Y-53078050D01*
%TO.N,/UART_RXD*%
X21880000Y-54350000D02*
X20621000Y-53091000D01*
X53930000Y-54350000D02*
X51139762Y-54350000D01*
X50512190Y-54350000D02*
X21880000Y-54350000D01*
X51139762Y-54350000D02*
X51037604Y-54247842D01*
X50621404Y-54249000D02*
X50613190Y-54249000D01*
X20621000Y-53091000D02*
X20621000Y-49750000D01*
X55080000Y-55500000D02*
X53930000Y-54350000D01*
X51037604Y-54247842D02*
X50622562Y-54247842D01*
X50622562Y-54247842D02*
X50621404Y-54249000D01*
X50613190Y-54249000D02*
X50512190Y-54350000D01*
%TO.N,/JOYSTICK_DOWN*%
X22060000Y-51680000D02*
X22060000Y-52960000D01*
X22570000Y-51170000D02*
X22060000Y-51680000D01*
X24495000Y-51170000D02*
X22570000Y-51170000D01*
X24600000Y-51275000D02*
X24495000Y-51170000D01*
%TO.N,/RPI_SPI_CS*%
X53800000Y-48680000D02*
X48350000Y-48680000D01*
X54210000Y-48270000D02*
X53800000Y-48680000D01*
%TD*%
%TA.AperFunction,Conductor*%
%TO.N,GND*%
G36*
X9898052Y-48371494D02*
G01*
X9965076Y-48391226D01*
X10010793Y-48444063D01*
X10020687Y-48513228D01*
X9991617Y-48576763D01*
X9985644Y-48583175D01*
X9902377Y-48666442D01*
X9797042Y-48824087D01*
X9724488Y-48999248D01*
X9724486Y-48999256D01*
X9687500Y-49185197D01*
X9687500Y-49374802D01*
X9724486Y-49560743D01*
X9724488Y-49560751D01*
X9797042Y-49735912D01*
X9902377Y-49893558D01*
X10036438Y-50027619D01*
X10036442Y-50027622D01*
X10194078Y-50132952D01*
X10194080Y-50132953D01*
X10194085Y-50132956D01*
X10197950Y-50134557D01*
X10252354Y-50178396D01*
X10274421Y-50244689D01*
X10274500Y-50249119D01*
X10274500Y-50804800D01*
X10311656Y-50894500D01*
X10311657Y-50894504D01*
X10316441Y-50906056D01*
X12923480Y-53513095D01*
X12956965Y-53574418D01*
X12951981Y-53644110D01*
X12910109Y-53700043D01*
X12844645Y-53724460D01*
X12788347Y-53715337D01*
X12628328Y-53649055D01*
X12628316Y-53649051D01*
X12628313Y-53649050D01*
X12381340Y-53582874D01*
X12325007Y-53575457D01*
X12127850Y-53549500D01*
X12127843Y-53549500D01*
X11872157Y-53549500D01*
X11872149Y-53549500D01*
X11646826Y-53579165D01*
X11618660Y-53582874D01*
X11444063Y-53629657D01*
X11371687Y-53649050D01*
X11371677Y-53649053D01*
X11135468Y-53746894D01*
X11135457Y-53746899D01*
X10914042Y-53874734D01*
X10914026Y-53874745D01*
X10711188Y-54030388D01*
X10711181Y-54030394D01*
X10530394Y-54211181D01*
X10530388Y-54211188D01*
X10374745Y-54414026D01*
X10374734Y-54414042D01*
X10246899Y-54635457D01*
X10246894Y-54635468D01*
X10149053Y-54871677D01*
X10149050Y-54871687D01*
X10082874Y-55118660D01*
X10079165Y-55146826D01*
X10049500Y-55372149D01*
X10049500Y-55627850D01*
X10074839Y-55820309D01*
X10082874Y-55881340D01*
X10147612Y-56122947D01*
X10149050Y-56128312D01*
X10149053Y-56128322D01*
X10246894Y-56364531D01*
X10246899Y-56364542D01*
X10374734Y-56585957D01*
X10374745Y-56585973D01*
X10530388Y-56788811D01*
X10530394Y-56788818D01*
X10711181Y-56969605D01*
X10711188Y-56969611D01*
X10737009Y-56989424D01*
X10914035Y-57125261D01*
X10914042Y-57125265D01*
X11135457Y-57253100D01*
X11135462Y-57253102D01*
X11135465Y-57253104D01*
X11371687Y-57350950D01*
X11618660Y-57417126D01*
X11872157Y-57450500D01*
X11872164Y-57450500D01*
X12127836Y-57450500D01*
X12127843Y-57450500D01*
X12381340Y-57417126D01*
X12628313Y-57350950D01*
X12864535Y-57253104D01*
X13085965Y-57125261D01*
X13288813Y-56969610D01*
X13469610Y-56788813D01*
X13625261Y-56585965D01*
X13693113Y-56468441D01*
X13743680Y-56420226D01*
X13812287Y-56407003D01*
X13877152Y-56432971D01*
X13917680Y-56489886D01*
X13924500Y-56530442D01*
X13924500Y-56979802D01*
X13951068Y-57043941D01*
X13966442Y-57081056D01*
X13966444Y-57081059D01*
X14973203Y-58087819D01*
X15006688Y-58149142D01*
X15001704Y-58218834D01*
X14959832Y-58274767D01*
X14894368Y-58299184D01*
X14885522Y-58299500D01*
X11503481Y-58299500D01*
X11496528Y-58299305D01*
X11193508Y-58282287D01*
X11179690Y-58280730D01*
X10883918Y-58230476D01*
X10870361Y-58227382D01*
X10582074Y-58144328D01*
X10568949Y-58139735D01*
X10291777Y-58024927D01*
X10279249Y-58018894D01*
X10016660Y-57873766D01*
X10004895Y-57866373D01*
X9760222Y-57692768D01*
X9749354Y-57684102D01*
X9731668Y-57668297D01*
X9525645Y-57484183D01*
X9515814Y-57474352D01*
X9494498Y-57450499D01*
X9315892Y-57250639D01*
X9307233Y-57239779D01*
X9133623Y-56995099D01*
X9126236Y-56983344D01*
X8981101Y-56720743D01*
X8975075Y-56708229D01*
X8860263Y-56431049D01*
X8855671Y-56417925D01*
X8854375Y-56413426D01*
X8772614Y-56129627D01*
X8769523Y-56116081D01*
X8768848Y-56112108D01*
X8719268Y-55820301D01*
X8717713Y-55806500D01*
X8700695Y-55503472D01*
X8700500Y-55496519D01*
X8700500Y-48494731D01*
X8720185Y-48427692D01*
X8772989Y-48381937D01*
X8824586Y-48370731D01*
X9898052Y-48371494D01*
G37*
%TD.AperFunction*%
%TA.AperFunction,Conductor*%
G36*
X70503472Y-28700695D02*
G01*
X70806500Y-28717713D01*
X70820301Y-28719268D01*
X71116088Y-28769524D01*
X71129627Y-28772614D01*
X71417930Y-28855673D01*
X71431049Y-28860263D01*
X71708229Y-28975075D01*
X71720743Y-28981101D01*
X71983344Y-29126236D01*
X71995099Y-29133623D01*
X72239779Y-29307233D01*
X72250639Y-29315892D01*
X72474352Y-29515814D01*
X72484183Y-29525645D01*
X72681903Y-29746894D01*
X72684102Y-29749354D01*
X72692768Y-29760222D01*
X72774022Y-29874739D01*
X72866370Y-30004890D01*
X72873766Y-30016660D01*
X72917166Y-30095185D01*
X73018894Y-30279249D01*
X73024927Y-30291777D01*
X73139735Y-30568949D01*
X73144328Y-30582074D01*
X73227382Y-30870361D01*
X73230476Y-30883918D01*
X73280730Y-31179690D01*
X73282287Y-31193508D01*
X73299305Y-31496527D01*
X73299500Y-31503480D01*
X73299500Y-55496519D01*
X73299305Y-55503472D01*
X73282287Y-55806491D01*
X73280730Y-55820309D01*
X73230476Y-56116081D01*
X73227382Y-56129638D01*
X73144328Y-56417925D01*
X73139735Y-56431050D01*
X73024927Y-56708222D01*
X73018894Y-56720750D01*
X72873769Y-56983335D01*
X72866370Y-56995109D01*
X72692771Y-57239773D01*
X72684102Y-57250645D01*
X72484185Y-57474352D01*
X72474352Y-57484185D01*
X72250645Y-57684102D01*
X72239773Y-57692771D01*
X71995109Y-57866370D01*
X71983335Y-57873769D01*
X71720750Y-58018894D01*
X71708222Y-58024927D01*
X71431050Y-58139735D01*
X71417925Y-58144328D01*
X71129638Y-58227382D01*
X71116081Y-58230476D01*
X70820309Y-58280730D01*
X70806491Y-58282287D01*
X70503472Y-58299305D01*
X70496519Y-58299500D01*
X64514477Y-58299500D01*
X64447438Y-58279815D01*
X64401683Y-58227011D01*
X64391739Y-58157853D01*
X64420764Y-58094297D01*
X64426796Y-58087819D01*
X64852796Y-57661819D01*
X65473557Y-57041058D01*
X65515500Y-56939800D01*
X65515500Y-56605791D01*
X65535185Y-56538752D01*
X65587989Y-56492997D01*
X65592048Y-56491230D01*
X65737594Y-56430943D01*
X65737595Y-56430942D01*
X65737598Y-56430941D01*
X65909655Y-56315977D01*
X66055977Y-56169655D01*
X66170941Y-55997598D01*
X66250130Y-55806420D01*
X66290500Y-55603465D01*
X66290500Y-55396535D01*
X66285649Y-55372149D01*
X68049500Y-55372149D01*
X68049500Y-55627850D01*
X68074839Y-55820309D01*
X68082874Y-55881340D01*
X68147612Y-56122947D01*
X68149050Y-56128312D01*
X68149053Y-56128322D01*
X68246894Y-56364531D01*
X68246899Y-56364542D01*
X68374734Y-56585957D01*
X68374745Y-56585973D01*
X68530388Y-56788811D01*
X68530394Y-56788818D01*
X68711181Y-56969605D01*
X68711188Y-56969611D01*
X68737009Y-56989424D01*
X68914035Y-57125261D01*
X68914042Y-57125265D01*
X69135457Y-57253100D01*
X69135462Y-57253102D01*
X69135465Y-57253104D01*
X69371687Y-57350950D01*
X69618660Y-57417126D01*
X69872157Y-57450500D01*
X69872164Y-57450500D01*
X70127836Y-57450500D01*
X70127843Y-57450500D01*
X70381340Y-57417126D01*
X70628313Y-57350950D01*
X70864535Y-57253104D01*
X71085965Y-57125261D01*
X71288813Y-56969610D01*
X71469610Y-56788813D01*
X71625261Y-56585965D01*
X71753104Y-56364535D01*
X71850950Y-56128313D01*
X71917126Y-55881340D01*
X71950500Y-55627843D01*
X71950500Y-55372157D01*
X71917126Y-55118660D01*
X71850950Y-54871687D01*
X71753104Y-54635465D01*
X71753102Y-54635462D01*
X71753100Y-54635457D01*
X71625265Y-54414042D01*
X71625261Y-54414035D01*
X71518875Y-54275390D01*
X71469611Y-54211188D01*
X71469605Y-54211181D01*
X71288818Y-54030394D01*
X71288811Y-54030388D01*
X71085973Y-53874745D01*
X71085971Y-53874743D01*
X71085965Y-53874739D01*
X71085960Y-53874736D01*
X71085957Y-53874734D01*
X70864542Y-53746899D01*
X70864531Y-53746894D01*
X70628322Y-53649053D01*
X70628315Y-53649051D01*
X70628313Y-53649050D01*
X70381340Y-53582874D01*
X70325007Y-53575457D01*
X70127850Y-53549500D01*
X70127843Y-53549500D01*
X69872157Y-53549500D01*
X69872149Y-53549500D01*
X69646826Y-53579165D01*
X69618660Y-53582874D01*
X69444063Y-53629657D01*
X69371687Y-53649050D01*
X69371677Y-53649053D01*
X69135468Y-53746894D01*
X69135457Y-53746899D01*
X68914042Y-53874734D01*
X68914026Y-53874745D01*
X68711188Y-54030388D01*
X68711181Y-54030394D01*
X68530394Y-54211181D01*
X68530388Y-54211188D01*
X68374745Y-54414026D01*
X68374734Y-54414042D01*
X68246899Y-54635457D01*
X68246894Y-54635468D01*
X68149053Y-54871677D01*
X68149050Y-54871687D01*
X68082874Y-55118660D01*
X68079165Y-55146826D01*
X68049500Y-55372149D01*
X66285649Y-55372149D01*
X66259930Y-55242847D01*
X66250130Y-55193580D01*
X66170941Y-55002402D01*
X66055977Y-54830345D01*
X66055975Y-54830342D01*
X65909657Y-54684024D01*
X65775082Y-54594105D01*
X65737598Y-54569059D01*
X65737593Y-54569057D01*
X65546420Y-54489870D01*
X65546412Y-54489868D01*
X65343469Y-54449500D01*
X65343465Y-54449500D01*
X65136535Y-54449500D01*
X65136530Y-54449500D01*
X64933587Y-54489868D01*
X64933579Y-54489870D01*
X64742403Y-54569058D01*
X64570342Y-54684024D01*
X64570341Y-54684025D01*
X64462181Y-54792186D01*
X64400858Y-54825671D01*
X64331166Y-54820687D01*
X64275233Y-54778815D01*
X64250816Y-54713351D01*
X64250500Y-54704505D01*
X64250500Y-54390477D01*
X64270185Y-54323438D01*
X64286819Y-54302796D01*
X64542796Y-54046819D01*
X64604119Y-54013334D01*
X64630477Y-54010500D01*
X66109750Y-54010500D01*
X66109751Y-54010499D01*
X66131366Y-54006200D01*
X66168229Y-53998868D01*
X66168229Y-53998867D01*
X66168231Y-53998867D01*
X66234552Y-53954552D01*
X66278867Y-53888231D01*
X66278867Y-53888229D01*
X66278868Y-53888229D01*
X66288568Y-53839459D01*
X66290500Y-53829748D01*
X66290500Y-52090252D01*
X66290500Y-52090249D01*
X66290499Y-52090247D01*
X66278868Y-52031770D01*
X66278867Y-52031769D01*
X66234552Y-51965447D01*
X66168230Y-51921132D01*
X66168229Y-51921131D01*
X66109752Y-51909500D01*
X66109748Y-51909500D01*
X64630477Y-51909500D01*
X64563438Y-51889815D01*
X64542796Y-51873181D01*
X63336059Y-50666444D01*
X63336058Y-50666443D01*
X63234800Y-50624500D01*
X46925200Y-50624500D01*
X46925199Y-50624500D01*
X46823940Y-50666444D01*
X45507104Y-51983279D01*
X45445781Y-52016764D01*
X45376089Y-52011780D01*
X45371970Y-52010159D01*
X45226420Y-51949870D01*
X45226412Y-51949868D01*
X45023469Y-51909500D01*
X45023465Y-51909500D01*
X44816535Y-51909500D01*
X44816530Y-51909500D01*
X44613587Y-51949868D01*
X44613579Y-51949870D01*
X44422403Y-52029058D01*
X44250342Y-52144024D01*
X44104024Y-52290342D01*
X43989058Y-52462403D01*
X43909870Y-52653579D01*
X43909868Y-52653587D01*
X43869500Y-52856530D01*
X43869500Y-53063469D01*
X43909868Y-53266412D01*
X43909870Y-53266420D01*
X43982419Y-53441569D01*
X43989059Y-53457598D01*
X44026141Y-53513095D01*
X44104024Y-53629657D01*
X44250342Y-53775975D01*
X44250345Y-53775977D01*
X44357234Y-53847398D01*
X44402040Y-53901009D01*
X44410747Y-53970334D01*
X44380593Y-54033362D01*
X44321150Y-54070082D01*
X44288344Y-54074500D01*
X43011656Y-54074500D01*
X42944617Y-54054815D01*
X42898862Y-54002011D01*
X42888918Y-53932853D01*
X42917943Y-53869297D01*
X42942763Y-53847398D01*
X43049655Y-53775977D01*
X43195977Y-53629655D01*
X43310941Y-53457598D01*
X43390130Y-53266420D01*
X43430500Y-53063465D01*
X43430500Y-52856535D01*
X43390130Y-52653580D01*
X43310941Y-52462402D01*
X43195977Y-52290345D01*
X43195975Y-52290342D01*
X43049657Y-52144024D01*
X42954638Y-52080535D01*
X42877598Y-52029059D01*
X42877593Y-52029057D01*
X42686420Y-51949870D01*
X42686412Y-51949868D01*
X42483469Y-51909500D01*
X42483465Y-51909500D01*
X42276535Y-51909500D01*
X42276530Y-51909500D01*
X42073587Y-51949868D01*
X42073579Y-51949870D01*
X41882403Y-52029058D01*
X41710342Y-52144024D01*
X41564024Y-52290342D01*
X41449058Y-52462403D01*
X41369870Y-52653579D01*
X41369868Y-52653587D01*
X41329500Y-52856530D01*
X41329500Y-53063469D01*
X41369868Y-53266412D01*
X41369870Y-53266420D01*
X41442419Y-53441569D01*
X41449059Y-53457598D01*
X41486141Y-53513095D01*
X41564024Y-53629657D01*
X41710342Y-53775975D01*
X41710345Y-53775977D01*
X41817234Y-53847398D01*
X41862040Y-53901009D01*
X41870747Y-53970334D01*
X41840593Y-54033362D01*
X41781150Y-54070082D01*
X41748344Y-54074500D01*
X40471656Y-54074500D01*
X40404617Y-54054815D01*
X40358862Y-54002011D01*
X40348918Y-53932853D01*
X40377943Y-53869297D01*
X40402763Y-53847398D01*
X40509655Y-53775977D01*
X40655977Y-53629655D01*
X40770941Y-53457598D01*
X40850130Y-53266420D01*
X40890500Y-53063465D01*
X40890500Y-52856535D01*
X40850130Y-52653580D01*
X40770941Y-52462402D01*
X40655977Y-52290345D01*
X40655975Y-52290342D01*
X40509657Y-52144024D01*
X40414638Y-52080535D01*
X40337598Y-52029059D01*
X40337593Y-52029057D01*
X40146420Y-51949870D01*
X40146412Y-51949868D01*
X39943469Y-51909500D01*
X39943465Y-51909500D01*
X39736535Y-51909500D01*
X39736530Y-51909500D01*
X39533587Y-51949868D01*
X39533579Y-51949870D01*
X39342403Y-52029058D01*
X39170342Y-52144024D01*
X39024024Y-52290342D01*
X38909058Y-52462403D01*
X38829870Y-52653579D01*
X38829868Y-52653587D01*
X38789500Y-52856530D01*
X38789500Y-53063469D01*
X38829868Y-53266412D01*
X38829870Y-53266420D01*
X38902419Y-53441569D01*
X38909059Y-53457598D01*
X38946141Y-53513095D01*
X39024024Y-53629657D01*
X39170342Y-53775975D01*
X39170345Y-53775977D01*
X39277234Y-53847398D01*
X39322040Y-53901009D01*
X39330747Y-53970334D01*
X39300593Y-54033362D01*
X39241150Y-54070082D01*
X39208344Y-54074500D01*
X37931656Y-54074500D01*
X37864617Y-54054815D01*
X37818862Y-54002011D01*
X37808918Y-53932853D01*
X37837943Y-53869297D01*
X37862763Y-53847398D01*
X37969655Y-53775977D01*
X38115977Y-53629655D01*
X38230941Y-53457598D01*
X38310130Y-53266420D01*
X38350500Y-53063465D01*
X38350500Y-52856535D01*
X38310130Y-52653580D01*
X38230941Y-52462402D01*
X38115977Y-52290345D01*
X38115975Y-52290342D01*
X37969657Y-52144024D01*
X37874638Y-52080535D01*
X37797598Y-52029059D01*
X37797593Y-52029057D01*
X37606420Y-51949870D01*
X37606412Y-51949868D01*
X37403469Y-51909500D01*
X37403465Y-51909500D01*
X37196535Y-51909500D01*
X37196530Y-51909500D01*
X36993587Y-51949868D01*
X36993579Y-51949870D01*
X36802403Y-52029058D01*
X36630342Y-52144024D01*
X36484024Y-52290342D01*
X36369057Y-52462403D01*
X36300835Y-52627108D01*
X36256994Y-52681511D01*
X36190700Y-52703576D01*
X36123000Y-52686297D01*
X36075390Y-52635159D01*
X36068343Y-52617973D01*
X36011095Y-52441782D01*
X35914620Y-52252442D01*
X35789727Y-52080540D01*
X35789723Y-52080535D01*
X35639464Y-51930276D01*
X35639459Y-51930272D01*
X35467557Y-51805379D01*
X35278215Y-51708903D01*
X35076124Y-51643241D01*
X35010000Y-51632768D01*
X35010000Y-52526988D01*
X34952993Y-52494075D01*
X34825826Y-52460000D01*
X34694174Y-52460000D01*
X34567007Y-52494075D01*
X34510000Y-52526988D01*
X34510000Y-51632768D01*
X34509999Y-51632768D01*
X34443875Y-51643241D01*
X34241784Y-51708903D01*
X34052442Y-51805379D01*
X33880540Y-51930272D01*
X33880535Y-51930276D01*
X33730276Y-52080535D01*
X33730272Y-52080540D01*
X33605379Y-52252442D01*
X33508905Y-52441781D01*
X33451656Y-52617974D01*
X33412218Y-52675649D01*
X33347859Y-52702847D01*
X33279013Y-52690932D01*
X33227537Y-52643688D01*
X33219164Y-52627107D01*
X33150943Y-52462405D01*
X33035975Y-52290342D01*
X32889657Y-52144024D01*
X32794638Y-52080535D01*
X32717598Y-52029059D01*
X32717593Y-52029057D01*
X32526420Y-51949870D01*
X32526412Y-51949868D01*
X32323469Y-51909500D01*
X32323465Y-51909500D01*
X32116535Y-51909500D01*
X32116530Y-51909500D01*
X31913587Y-51949868D01*
X31913579Y-51949870D01*
X31722403Y-52029058D01*
X31550342Y-52144024D01*
X31404024Y-52290342D01*
X31289058Y-52462403D01*
X31209870Y-52653579D01*
X31209868Y-52653587D01*
X31169500Y-52856530D01*
X31169500Y-53063469D01*
X31209868Y-53266412D01*
X31209870Y-53266420D01*
X31282419Y-53441569D01*
X31289059Y-53457598D01*
X31326141Y-53513095D01*
X31404024Y-53629657D01*
X31550342Y-53775975D01*
X31550345Y-53775977D01*
X31657234Y-53847398D01*
X31702040Y-53901009D01*
X31710747Y-53970334D01*
X31680593Y-54033362D01*
X31621150Y-54070082D01*
X31588344Y-54074500D01*
X30311656Y-54074500D01*
X30244617Y-54054815D01*
X30198862Y-54002011D01*
X30188918Y-53932853D01*
X30217943Y-53869297D01*
X30242763Y-53847398D01*
X30349655Y-53775977D01*
X30495977Y-53629655D01*
X30610941Y-53457598D01*
X30690130Y-53266420D01*
X30730500Y-53063465D01*
X30730500Y-52856535D01*
X30690130Y-52653580D01*
X30610941Y-52462402D01*
X30495977Y-52290345D01*
X30495975Y-52290342D01*
X30349657Y-52144024D01*
X30254638Y-52080535D01*
X30177598Y-52029059D01*
X30177593Y-52029057D01*
X29986420Y-51949870D01*
X29986412Y-51949868D01*
X29783469Y-51909500D01*
X29783465Y-51909500D01*
X29576535Y-51909500D01*
X29576530Y-51909500D01*
X29373587Y-51949868D01*
X29373579Y-51949870D01*
X29182403Y-52029058D01*
X29010342Y-52144024D01*
X28864024Y-52290342D01*
X28749058Y-52462403D01*
X28669870Y-52653579D01*
X28669868Y-52653587D01*
X28629500Y-52856530D01*
X28629500Y-53063469D01*
X28669868Y-53266412D01*
X28669870Y-53266420D01*
X28742419Y-53441569D01*
X28749059Y-53457598D01*
X28786141Y-53513095D01*
X28864024Y-53629657D01*
X29010342Y-53775975D01*
X29010345Y-53775977D01*
X29117234Y-53847398D01*
X29162040Y-53901009D01*
X29170747Y-53970334D01*
X29140593Y-54033362D01*
X29081150Y-54070082D01*
X29048344Y-54074500D01*
X27771656Y-54074500D01*
X27704617Y-54054815D01*
X27658862Y-54002011D01*
X27648918Y-53932853D01*
X27677943Y-53869297D01*
X27702763Y-53847398D01*
X27809655Y-53775977D01*
X27955977Y-53629655D01*
X28070941Y-53457598D01*
X28150130Y-53266420D01*
X28190500Y-53063465D01*
X28190500Y-52856535D01*
X28150130Y-52653580D01*
X28070941Y-52462402D01*
X27955977Y-52290345D01*
X27955975Y-52290342D01*
X27809657Y-52144024D01*
X27714638Y-52080535D01*
X27637598Y-52029059D01*
X27637593Y-52029057D01*
X27446420Y-51949870D01*
X27446412Y-51949868D01*
X27243469Y-51909500D01*
X27243465Y-51909500D01*
X27036535Y-51909500D01*
X27036530Y-51909500D01*
X26833587Y-51949868D01*
X26833579Y-51949870D01*
X26642403Y-52029058D01*
X26470342Y-52144024D01*
X26324024Y-52290342D01*
X26209058Y-52462403D01*
X26129870Y-52653579D01*
X26129868Y-52653587D01*
X26089500Y-52856530D01*
X26089500Y-53063469D01*
X26129868Y-53266412D01*
X26129870Y-53266420D01*
X26202419Y-53441569D01*
X26209059Y-53457598D01*
X26246141Y-53513095D01*
X26324024Y-53629657D01*
X26470342Y-53775975D01*
X26470345Y-53775977D01*
X26577234Y-53847398D01*
X26622040Y-53901009D01*
X26630747Y-53970334D01*
X26600593Y-54033362D01*
X26541150Y-54070082D01*
X26508344Y-54074500D01*
X25231656Y-54074500D01*
X25164617Y-54054815D01*
X25118862Y-54002011D01*
X25108918Y-53932853D01*
X25137943Y-53869297D01*
X25162763Y-53847398D01*
X25269655Y-53775977D01*
X25415977Y-53629655D01*
X25530941Y-53457598D01*
X25610130Y-53266420D01*
X25650500Y-53063465D01*
X25650500Y-52856535D01*
X25610130Y-52653580D01*
X25549838Y-52508024D01*
X25542370Y-52438559D01*
X25573645Y-52376080D01*
X25576690Y-52372923D01*
X26737796Y-51211819D01*
X26799119Y-51178334D01*
X26825477Y-51175500D01*
X36154799Y-51175500D01*
X36154800Y-51175500D01*
X36256058Y-51133557D01*
X36333557Y-51056058D01*
X36333556Y-51056058D01*
X36392125Y-50997489D01*
X38213557Y-49176059D01*
X38234623Y-49125200D01*
X38255500Y-49074800D01*
X38255500Y-48620691D01*
X47899500Y-48620691D01*
X47899500Y-48739309D01*
X47930201Y-48853886D01*
X47989511Y-48956613D01*
X48073387Y-49040489D01*
X48176114Y-49099799D01*
X48290691Y-49130500D01*
X48290694Y-49130500D01*
X48409306Y-49130500D01*
X48409309Y-49130500D01*
X48523886Y-49099799D01*
X48626613Y-49040489D01*
X48675283Y-48991819D01*
X48736606Y-48958334D01*
X48762964Y-48955500D01*
X53854799Y-48955500D01*
X53854800Y-48955500D01*
X53956058Y-48913557D01*
X54033557Y-48836058D01*
X54033556Y-48836058D01*
X54092144Y-48777471D01*
X54092145Y-48777469D01*
X54097878Y-48771735D01*
X54112801Y-48756815D01*
X54174126Y-48723333D01*
X54200478Y-48720500D01*
X54269306Y-48720500D01*
X54269309Y-48720500D01*
X54383886Y-48689799D01*
X54486613Y-48630489D01*
X54570489Y-48546613D01*
X54629799Y-48443886D01*
X54660500Y-48329309D01*
X54660500Y-48210691D01*
X54629799Y-48096114D01*
X54570489Y-47993387D01*
X54486613Y-47909511D01*
X54383886Y-47850201D01*
X54269309Y-47819500D01*
X54150691Y-47819500D01*
X54036114Y-47850201D01*
X54036112Y-47850201D01*
X54036112Y-47850202D01*
X53933387Y-47909511D01*
X53933384Y-47909513D01*
X53849513Y-47993384D01*
X53849511Y-47993387D01*
X53790201Y-48096114D01*
X53759500Y-48210691D01*
X53759500Y-48210693D01*
X53759500Y-48279521D01*
X53739815Y-48346560D01*
X53723226Y-48367157D01*
X53722248Y-48368136D01*
X53660942Y-48401653D01*
X53634522Y-48404500D01*
X48762964Y-48404500D01*
X48695925Y-48384815D01*
X48675283Y-48368181D01*
X48626615Y-48319513D01*
X48626613Y-48319511D01*
X48523886Y-48260201D01*
X48409309Y-48229500D01*
X48290691Y-48229500D01*
X48176114Y-48260201D01*
X48176112Y-48260201D01*
X48176112Y-48260202D01*
X48073387Y-48319511D01*
X48073384Y-48319513D01*
X47989513Y-48403384D01*
X47989511Y-48403387D01*
X47975853Y-48427044D01*
X47930201Y-48506114D01*
X47899500Y-48620691D01*
X38255500Y-48620691D01*
X38255500Y-36340691D01*
X53924500Y-36340691D01*
X53924500Y-36459309D01*
X53955201Y-36573886D01*
X54014511Y-36676613D01*
X54098387Y-36760489D01*
X54201114Y-36819799D01*
X54315691Y-36850500D01*
X54315694Y-36850500D01*
X54434306Y-36850500D01*
X54434309Y-36850500D01*
X54548886Y-36819799D01*
X54651613Y-36760489D01*
X54735489Y-36676613D01*
X54794799Y-36573886D01*
X54825500Y-36459309D01*
X54825500Y-36340691D01*
X54794799Y-36226114D01*
X54735489Y-36123387D01*
X54651613Y-36039511D01*
X54548886Y-35980201D01*
X54434309Y-35949500D01*
X54315691Y-35949500D01*
X54201114Y-35980201D01*
X54201112Y-35980201D01*
X54201112Y-35980202D01*
X54098387Y-36039511D01*
X54098384Y-36039513D01*
X54014513Y-36123384D01*
X54014511Y-36123387D01*
X53955201Y-36226114D01*
X53924500Y-36340691D01*
X38255500Y-36340691D01*
X38255500Y-33440691D01*
X41709500Y-33440691D01*
X41709500Y-33559309D01*
X41740201Y-33673886D01*
X41799511Y-33776613D01*
X41883387Y-33860489D01*
X41986114Y-33919799D01*
X42100691Y-33950500D01*
X42100694Y-33950500D01*
X42219306Y-33950500D01*
X42219309Y-33950500D01*
X42333886Y-33919799D01*
X42436613Y-33860489D01*
X42520489Y-33776613D01*
X42579799Y-33673886D01*
X42610500Y-33559309D01*
X42610500Y-33440691D01*
X42579799Y-33326114D01*
X42520489Y-33223387D01*
X42436613Y-33139511D01*
X42333886Y-33080201D01*
X42219309Y-33049500D01*
X42100691Y-33049500D01*
X41986114Y-33080201D01*
X41986112Y-33080201D01*
X41986112Y-33080202D01*
X41883387Y-33139511D01*
X41883384Y-33139513D01*
X41799513Y-33223384D01*
X41799511Y-33223387D01*
X41740201Y-33326114D01*
X41709500Y-33440691D01*
X38255500Y-33440691D01*
X38255500Y-32958721D01*
X38255499Y-32958719D01*
X38254723Y-32954817D01*
X38254523Y-32954506D01*
X38254162Y-32952000D01*
X38253117Y-32946743D01*
X38253398Y-32946686D01*
X38249500Y-32919571D01*
X38249500Y-32780691D01*
X40489500Y-32780691D01*
X40489500Y-32899309D01*
X40520201Y-33013886D01*
X40579511Y-33116613D01*
X40663387Y-33200489D01*
X40766114Y-33259799D01*
X40880691Y-33290500D01*
X40880694Y-33290500D01*
X40999306Y-33290500D01*
X40999309Y-33290500D01*
X41113886Y-33259799D01*
X41216613Y-33200489D01*
X41300489Y-33116613D01*
X41359799Y-33013886D01*
X41390500Y-32899309D01*
X41390500Y-32780691D01*
X41359799Y-32666114D01*
X41300489Y-32563387D01*
X41216613Y-32479511D01*
X41113886Y-32420201D01*
X40999309Y-32389500D01*
X40880691Y-32389500D01*
X40766114Y-32420201D01*
X40766112Y-32420201D01*
X40766112Y-32420202D01*
X40663387Y-32479511D01*
X40663384Y-32479513D01*
X40579513Y-32563384D01*
X40579511Y-32563387D01*
X40526177Y-32655764D01*
X40520201Y-32666114D01*
X40489500Y-32780691D01*
X38249500Y-32780691D01*
X38249500Y-32680430D01*
X38254837Y-32653601D01*
X38253117Y-32653259D01*
X38255500Y-32641277D01*
X38255500Y-31372149D01*
X68049500Y-31372149D01*
X68049500Y-31627850D01*
X68058077Y-31692993D01*
X68082874Y-31881340D01*
X68149050Y-32128312D01*
X68149053Y-32128322D01*
X68246894Y-32364531D01*
X68246899Y-32364542D01*
X68374734Y-32585957D01*
X68374745Y-32585973D01*
X68530388Y-32788811D01*
X68530394Y-32788818D01*
X68711181Y-32969605D01*
X68711188Y-32969611D01*
X68832010Y-33062321D01*
X68914035Y-33125261D01*
X68914042Y-33125265D01*
X69135457Y-33253100D01*
X69135462Y-33253102D01*
X69135465Y-33253104D01*
X69225747Y-33290500D01*
X69311722Y-33326112D01*
X69371687Y-33350950D01*
X69618660Y-33417126D01*
X69872157Y-33450500D01*
X69872164Y-33450500D01*
X70127836Y-33450500D01*
X70127843Y-33450500D01*
X70381340Y-33417126D01*
X70628313Y-33350950D01*
X70864535Y-33253104D01*
X71085965Y-33125261D01*
X71288813Y-32969610D01*
X71469610Y-32788813D01*
X71625261Y-32585965D01*
X71753104Y-32364535D01*
X71850950Y-32128313D01*
X71917126Y-31881340D01*
X71950500Y-31627843D01*
X71950500Y-31372157D01*
X71917126Y-31118660D01*
X71850950Y-30871687D01*
X71849813Y-30868943D01*
X71753105Y-30635468D01*
X71753100Y-30635457D01*
X71625265Y-30414042D01*
X71625261Y-30414035D01*
X71514029Y-30269075D01*
X71469611Y-30211188D01*
X71469605Y-30211181D01*
X71288818Y-30030394D01*
X71288811Y-30030388D01*
X71085973Y-29874745D01*
X71085971Y-29874743D01*
X71085965Y-29874739D01*
X71085960Y-29874736D01*
X71085957Y-29874734D01*
X70864542Y-29746899D01*
X70864531Y-29746894D01*
X70628322Y-29649053D01*
X70628315Y-29649051D01*
X70628313Y-29649050D01*
X70381340Y-29582874D01*
X70325007Y-29575457D01*
X70127850Y-29549500D01*
X70127843Y-29549500D01*
X69872157Y-29549500D01*
X69872149Y-29549500D01*
X69646826Y-29579165D01*
X69618660Y-29582874D01*
X69371687Y-29649050D01*
X69371677Y-29649053D01*
X69135468Y-29746894D01*
X69135457Y-29746899D01*
X68914042Y-29874734D01*
X68914026Y-29874745D01*
X68711188Y-30030388D01*
X68711181Y-30030394D01*
X68530394Y-30211181D01*
X68530388Y-30211188D01*
X68374745Y-30414026D01*
X68374734Y-30414042D01*
X68246899Y-30635457D01*
X68246894Y-30635468D01*
X68149053Y-30871677D01*
X68149050Y-30871687D01*
X68087901Y-31099901D01*
X68082874Y-31118661D01*
X68049500Y-31372149D01*
X38255500Y-31372149D01*
X38255500Y-31125201D01*
X38255499Y-31125198D01*
X38228666Y-31060418D01*
X38228665Y-31060414D01*
X38213559Y-31023945D01*
X38213558Y-31023942D01*
X36756058Y-29566443D01*
X36654800Y-29524500D01*
X27444800Y-29524500D01*
X27335200Y-29524500D01*
X27335199Y-29524500D01*
X27233940Y-29566444D01*
X26263613Y-30536770D01*
X26202290Y-30570255D01*
X26151741Y-30570706D01*
X25984802Y-30537500D01*
X25984798Y-30537500D01*
X25795202Y-30537500D01*
X25795197Y-30537500D01*
X25609256Y-30574486D01*
X25609248Y-30574488D01*
X25434087Y-30647042D01*
X25276441Y-30752377D01*
X25142377Y-30886441D01*
X25037042Y-31044087D01*
X24964488Y-31219248D01*
X24964486Y-31219256D01*
X24927500Y-31405197D01*
X24927500Y-31594802D01*
X24964486Y-31780743D01*
X24964488Y-31780751D01*
X25037042Y-31955912D01*
X25142377Y-32113558D01*
X25209605Y-32180786D01*
X25243090Y-32242109D01*
X25238106Y-32311801D01*
X25196234Y-32367734D01*
X25130770Y-32392151D01*
X25121902Y-32392467D01*
X24118232Y-32392288D01*
X24051196Y-32372591D01*
X24005450Y-32319779D01*
X23995519Y-32250619D01*
X24024556Y-32187069D01*
X24030559Y-32180620D01*
X24097622Y-32113558D01*
X24202956Y-31955915D01*
X24275512Y-31780751D01*
X24312500Y-31594798D01*
X24312500Y-31405202D01*
X24275512Y-31219249D01*
X24219392Y-31083766D01*
X24202957Y-31044087D01*
X24196267Y-31034075D01*
X24167686Y-30991300D01*
X24097622Y-30886441D01*
X23963558Y-30752377D01*
X23805912Y-30647042D01*
X23630751Y-30574488D01*
X23630743Y-30574486D01*
X23444802Y-30537500D01*
X23444798Y-30537500D01*
X23255202Y-30537500D01*
X23255197Y-30537500D01*
X23069256Y-30574486D01*
X23069248Y-30574488D01*
X22894087Y-30647042D01*
X22736441Y-30752377D01*
X22602377Y-30886441D01*
X22497042Y-31044087D01*
X22424488Y-31219248D01*
X22424486Y-31219256D01*
X22387500Y-31405197D01*
X22387500Y-31594802D01*
X22424486Y-31780743D01*
X22424488Y-31780751D01*
X22497042Y-31955912D01*
X22602377Y-32113558D01*
X22669152Y-32180333D01*
X22702637Y-32241656D01*
X22697653Y-32311348D01*
X22655781Y-32367281D01*
X22590317Y-32391698D01*
X22581449Y-32392014D01*
X21578686Y-32391834D01*
X21511650Y-32372137D01*
X21465904Y-32319325D01*
X21455973Y-32250165D01*
X21485010Y-32186614D01*
X21491013Y-32180166D01*
X21557622Y-32113558D01*
X21662956Y-31955915D01*
X21735512Y-31780751D01*
X21772500Y-31594798D01*
X21772500Y-31405202D01*
X21735512Y-31219249D01*
X21679392Y-31083766D01*
X21662957Y-31044087D01*
X21656267Y-31034075D01*
X21627686Y-30991300D01*
X21557622Y-30886441D01*
X21423558Y-30752377D01*
X21265912Y-30647042D01*
X21090751Y-30574488D01*
X21090743Y-30574486D01*
X20904802Y-30537500D01*
X20904798Y-30537500D01*
X20715202Y-30537500D01*
X20715197Y-30537500D01*
X20529256Y-30574486D01*
X20529248Y-30574488D01*
X20354087Y-30647042D01*
X20196441Y-30752377D01*
X20062377Y-30886441D01*
X19957042Y-31044087D01*
X19884488Y-31219248D01*
X19884486Y-31219256D01*
X19847500Y-31405197D01*
X19847500Y-31594802D01*
X19884486Y-31780743D01*
X19884488Y-31780751D01*
X19957042Y-31955912D01*
X20062377Y-32113558D01*
X20128698Y-32179879D01*
X20162183Y-32241202D01*
X20157199Y-32310894D01*
X20115327Y-32366827D01*
X20049863Y-32391244D01*
X20040995Y-32391560D01*
X19039139Y-32391381D01*
X18972103Y-32371684D01*
X18926357Y-32318872D01*
X18916426Y-32249712D01*
X18945463Y-32186162D01*
X18951466Y-32179713D01*
X19017622Y-32113558D01*
X19122956Y-31955915D01*
X19195512Y-31780751D01*
X19232500Y-31594798D01*
X19232500Y-31405202D01*
X19195512Y-31219249D01*
X19139392Y-31083766D01*
X19122957Y-31044087D01*
X19116267Y-31034075D01*
X19087686Y-30991300D01*
X19017622Y-30886441D01*
X18883558Y-30752377D01*
X18725912Y-30647042D01*
X18550751Y-30574488D01*
X18550743Y-30574486D01*
X18364802Y-30537500D01*
X18364798Y-30537500D01*
X18175202Y-30537500D01*
X18175197Y-30537500D01*
X17989256Y-30574486D01*
X17989248Y-30574488D01*
X17814087Y-30647042D01*
X17656441Y-30752377D01*
X17522377Y-30886441D01*
X17417042Y-31044087D01*
X17344488Y-31219248D01*
X17344486Y-31219256D01*
X17307500Y-31405197D01*
X17307500Y-31594802D01*
X17344486Y-31780743D01*
X17344488Y-31780751D01*
X17417042Y-31955912D01*
X17522377Y-32113558D01*
X17588244Y-32179425D01*
X17621729Y-32240748D01*
X17616745Y-32310440D01*
X17574873Y-32366373D01*
X17509409Y-32390790D01*
X17500541Y-32391106D01*
X16499592Y-32390928D01*
X16432556Y-32371232D01*
X16386810Y-32318419D01*
X16376879Y-32249259D01*
X16405915Y-32185709D01*
X16411919Y-32179260D01*
X16477622Y-32113558D01*
X16582956Y-31955915D01*
X16655512Y-31780751D01*
X16692500Y-31594798D01*
X16692500Y-31405202D01*
X16655512Y-31219249D01*
X16599392Y-31083766D01*
X16582957Y-31044087D01*
X16576267Y-31034075D01*
X16547686Y-30991300D01*
X16477622Y-30886441D01*
X16343558Y-30752377D01*
X16185912Y-30647042D01*
X16010751Y-30574488D01*
X16010743Y-30574486D01*
X15824802Y-30537500D01*
X15824798Y-30537500D01*
X15635202Y-30537500D01*
X15635197Y-30537500D01*
X15449256Y-30574486D01*
X15449248Y-30574488D01*
X15274087Y-30647042D01*
X15116441Y-30752377D01*
X14982377Y-30886441D01*
X14877042Y-31044087D01*
X14804488Y-31219248D01*
X14804486Y-31219256D01*
X14767500Y-31405197D01*
X14767500Y-31594802D01*
X14804486Y-31780743D01*
X14804488Y-31780751D01*
X14877042Y-31955912D01*
X14982377Y-32113558D01*
X15047790Y-32178971D01*
X15081275Y-32240294D01*
X15076291Y-32309986D01*
X15034419Y-32365919D01*
X14968955Y-32390336D01*
X14960087Y-32390652D01*
X14346242Y-32390542D01*
X14279206Y-32370845D01*
X14233460Y-32318033D01*
X14223529Y-32248873D01*
X14245947Y-32193655D01*
X14269358Y-32161433D01*
X14359542Y-31984437D01*
X14420924Y-31795523D01*
X14420924Y-31795520D01*
X14452000Y-31599321D01*
X14452000Y-31400678D01*
X14420924Y-31204479D01*
X14420924Y-31204476D01*
X14359542Y-31015562D01*
X14269358Y-30838567D01*
X14242268Y-30801283D01*
X13672962Y-31370589D01*
X13655925Y-31307007D01*
X13590099Y-31192993D01*
X13497007Y-31099901D01*
X13382993Y-31034075D01*
X13319409Y-31017037D01*
X13888716Y-30447731D01*
X13888715Y-30447730D01*
X13851432Y-30420641D01*
X13674437Y-30330457D01*
X13485522Y-30269075D01*
X13289321Y-30238000D01*
X13090679Y-30238000D01*
X12894479Y-30269075D01*
X12894476Y-30269075D01*
X12705562Y-30330457D01*
X12528564Y-30420643D01*
X12491283Y-30447729D01*
X12491282Y-30447730D01*
X13060590Y-31017037D01*
X12997007Y-31034075D01*
X12882993Y-31099901D01*
X12789901Y-31192993D01*
X12724075Y-31307007D01*
X12707037Y-31370590D01*
X12137730Y-30801282D01*
X12137729Y-30801283D01*
X12110643Y-30838564D01*
X12020457Y-31015562D01*
X11959075Y-31204476D01*
X11959075Y-31204479D01*
X11928000Y-31400678D01*
X11928000Y-31599321D01*
X11959075Y-31795520D01*
X11959075Y-31795523D01*
X12020457Y-31984437D01*
X12110643Y-32161435D01*
X12133753Y-32193244D01*
X12157233Y-32259050D01*
X12141407Y-32327104D01*
X12091302Y-32375799D01*
X12033413Y-32390129D01*
X11427569Y-32390021D01*
X11360533Y-32370324D01*
X11314787Y-32317512D01*
X11304856Y-32248352D01*
X11333893Y-32184802D01*
X11339897Y-32178353D01*
X11387194Y-32131057D01*
X11412751Y-32099917D01*
X11496143Y-31975112D01*
X11515133Y-31939583D01*
X11572574Y-31800908D01*
X11584268Y-31762358D01*
X11613551Y-31615141D01*
X11617500Y-31575050D01*
X11617500Y-31424950D01*
X11613551Y-31384859D01*
X11584268Y-31237642D01*
X11572574Y-31199092D01*
X11515133Y-31060417D01*
X11506404Y-31044085D01*
X11496150Y-31024900D01*
X11496139Y-31024882D01*
X11412752Y-30900084D01*
X11387194Y-30868943D01*
X11281056Y-30762805D01*
X11249915Y-30737247D01*
X11125117Y-30653860D01*
X11125099Y-30653849D01*
X11089599Y-30634875D01*
X11089577Y-30634864D01*
X11050474Y-30618667D01*
X10982807Y-30590639D01*
X10950909Y-30577426D01*
X10927268Y-30570255D01*
X10912358Y-30565732D01*
X10912353Y-30565731D01*
X10912350Y-30565730D01*
X10765142Y-30536449D01*
X10765143Y-30536449D01*
X10753686Y-30535320D01*
X10725050Y-30532500D01*
X10574950Y-30532500D01*
X10546313Y-30535320D01*
X10534857Y-30536449D01*
X10387649Y-30565730D01*
X10349090Y-30577426D01*
X10210422Y-30634864D01*
X10210400Y-30634875D01*
X10174900Y-30653849D01*
X10174882Y-30653860D01*
X10050084Y-30737247D01*
X10018943Y-30762805D01*
X9912805Y-30868943D01*
X9887247Y-30900084D01*
X9803860Y-31024882D01*
X9803849Y-31024900D01*
X9784875Y-31060400D01*
X9784867Y-31060418D01*
X9727426Y-31199090D01*
X9715730Y-31237649D01*
X9688974Y-31372163D01*
X9686449Y-31384859D01*
X9682500Y-31424950D01*
X9682500Y-31575050D01*
X9683884Y-31589096D01*
X9686449Y-31615142D01*
X9701934Y-31692993D01*
X9715732Y-31762358D01*
X9722566Y-31784888D01*
X9727426Y-31800909D01*
X9784864Y-31939577D01*
X9784875Y-31939599D01*
X9803849Y-31975099D01*
X9803860Y-31975117D01*
X9887247Y-32099915D01*
X9912805Y-32131056D01*
X9959812Y-32178063D01*
X9993297Y-32239386D01*
X9988313Y-32309078D01*
X9946441Y-32365011D01*
X9880977Y-32389428D01*
X9872109Y-32389744D01*
X8824478Y-32389557D01*
X8757442Y-32369860D01*
X8711696Y-32317048D01*
X8700500Y-32265557D01*
X8700500Y-31503480D01*
X8700695Y-31496527D01*
X8704197Y-31434174D01*
X8717713Y-31193497D01*
X8719267Y-31179700D01*
X8769525Y-30883908D01*
X8772613Y-30870376D01*
X8855674Y-30582063D01*
X8860264Y-30568949D01*
X8861597Y-30565732D01*
X8975078Y-30291762D01*
X8981098Y-30279263D01*
X9126240Y-30016646D01*
X9133617Y-30004907D01*
X9307239Y-29760211D01*
X9315885Y-29749368D01*
X9515824Y-29525636D01*
X9525636Y-29515824D01*
X9749368Y-29315885D01*
X9760211Y-29307239D01*
X10004907Y-29133617D01*
X10016646Y-29126240D01*
X10279263Y-28981098D01*
X10291762Y-28975078D01*
X10568956Y-28860261D01*
X10582063Y-28855674D01*
X10870376Y-28772613D01*
X10883908Y-28769525D01*
X11179700Y-28719267D01*
X11193497Y-28717713D01*
X11496528Y-28700695D01*
X11503481Y-28700500D01*
X11539882Y-28700500D01*
X70460118Y-28700500D01*
X70496519Y-28700500D01*
X70503472Y-28700695D01*
G37*
%TD.AperFunction*%
%TA.AperFunction,Conductor*%
G36*
X12045769Y-48373021D02*
G01*
X12112790Y-48392752D01*
X12158508Y-48445589D01*
X12168402Y-48514754D01*
X12145996Y-48569904D01*
X12110642Y-48618565D01*
X12020457Y-48795562D01*
X11959075Y-48984476D01*
X11959075Y-48984479D01*
X11928000Y-49180678D01*
X11928000Y-49379321D01*
X11959075Y-49575520D01*
X11959075Y-49575523D01*
X12020457Y-49764437D01*
X12110641Y-49941432D01*
X12137730Y-49978715D01*
X12707037Y-49409408D01*
X12724075Y-49472993D01*
X12789901Y-49587007D01*
X12882993Y-49680099D01*
X12997007Y-49745925D01*
X13060590Y-49762962D01*
X12491283Y-50332268D01*
X12491283Y-50332269D01*
X12528567Y-50359358D01*
X12705562Y-50449542D01*
X12894477Y-50510924D01*
X13090679Y-50542000D01*
X13289321Y-50542000D01*
X13485520Y-50510924D01*
X13485523Y-50510924D01*
X13674437Y-50449542D01*
X13851425Y-50359362D01*
X13888716Y-50332268D01*
X13319410Y-49762962D01*
X13382993Y-49745925D01*
X13497007Y-49680099D01*
X13590099Y-49587007D01*
X13655925Y-49472993D01*
X13672962Y-49409409D01*
X14242268Y-49978715D01*
X14269362Y-49941425D01*
X14359542Y-49764437D01*
X14420924Y-49575523D01*
X14420924Y-49575520D01*
X14452000Y-49379321D01*
X14452000Y-49180678D01*
X14420924Y-48984479D01*
X14420924Y-48984476D01*
X14359542Y-48795562D01*
X14269358Y-48618567D01*
X14235187Y-48571535D01*
X14211707Y-48505729D01*
X14227532Y-48437675D01*
X14277638Y-48388980D01*
X14335589Y-48374649D01*
X14974440Y-48375104D01*
X15041466Y-48394836D01*
X15087183Y-48447673D01*
X15097077Y-48516838D01*
X15068007Y-48580373D01*
X15062034Y-48586785D01*
X14982377Y-48666442D01*
X14877042Y-48824087D01*
X14804488Y-48999248D01*
X14804486Y-48999256D01*
X14767500Y-49185197D01*
X14767500Y-49185201D01*
X14767500Y-49185202D01*
X14767500Y-49374798D01*
X14767501Y-49374802D01*
X14802081Y-49548651D01*
X14795853Y-49618243D01*
X14795024Y-49620295D01*
X14749500Y-49730197D01*
X14749500Y-55779802D01*
X14779144Y-55851367D01*
X14791442Y-55881056D01*
X14791444Y-55881059D01*
X16572203Y-57661819D01*
X16605688Y-57723142D01*
X16600704Y-57792834D01*
X16558832Y-57848767D01*
X16493368Y-57873184D01*
X16484522Y-57873500D01*
X15589478Y-57873500D01*
X15522439Y-57853815D01*
X15501797Y-57837181D01*
X14511819Y-56847203D01*
X14478334Y-56785880D01*
X14475500Y-56759522D01*
X14475500Y-54345201D01*
X14475499Y-54345196D01*
X14471897Y-54336501D01*
X14471896Y-54336499D01*
X14433558Y-54243942D01*
X10861819Y-50672203D01*
X10828334Y-50610880D01*
X10825500Y-50584522D01*
X10825500Y-50328211D01*
X10845185Y-50261172D01*
X10897989Y-50215417D01*
X10905339Y-50212341D01*
X10915076Y-50208629D01*
X10930751Y-50205512D01*
X11105915Y-50132956D01*
X11263558Y-50027622D01*
X11397622Y-49893558D01*
X11502956Y-49735915D01*
X11575512Y-49560751D01*
X11612500Y-49374798D01*
X11612500Y-49185202D01*
X11575512Y-48999249D01*
X11515300Y-48853886D01*
X11502957Y-48824087D01*
X11496267Y-48814075D01*
X11467686Y-48771300D01*
X11397622Y-48666441D01*
X11315426Y-48584245D01*
X11281941Y-48522922D01*
X11286925Y-48453230D01*
X11328797Y-48397297D01*
X11394261Y-48372880D01*
X11403181Y-48372564D01*
X12045769Y-48373021D01*
G37*
%TD.AperFunction*%
%TA.AperFunction,Conductor*%
G36*
X64411112Y-56162191D02*
G01*
X64435519Y-56181152D01*
X64570342Y-56315975D01*
X64742405Y-56430943D01*
X64887952Y-56491230D01*
X64942356Y-56535071D01*
X64964421Y-56601365D01*
X64964500Y-56605791D01*
X64964500Y-56719523D01*
X64944815Y-56786562D01*
X64928181Y-56807204D01*
X63898204Y-57837181D01*
X63836881Y-57870666D01*
X63810523Y-57873500D01*
X62915476Y-57873500D01*
X62848437Y-57853815D01*
X62802682Y-57801011D01*
X62792738Y-57731853D01*
X62821763Y-57668297D01*
X62827795Y-57661819D01*
X63015262Y-57474352D01*
X64208557Y-56281059D01*
X64229064Y-56231550D01*
X64233277Y-56221380D01*
X64277118Y-56166977D01*
X64343413Y-56144912D01*
X64411112Y-56162191D01*
G37*
%TD.AperFunction*%
%TA.AperFunction,Conductor*%
G36*
X18297573Y-53684256D02*
G01*
X18298834Y-53685500D01*
X18380473Y-53767139D01*
X18907891Y-54294557D01*
X18930206Y-54303800D01*
X19019924Y-54340963D01*
X19074328Y-54384805D01*
X19096392Y-54451099D01*
X19079112Y-54518798D01*
X19027975Y-54566408D01*
X19023753Y-54568335D01*
X19022407Y-54569055D01*
X18850342Y-54684024D01*
X18704024Y-54830342D01*
X18589058Y-55002403D01*
X18509870Y-55193579D01*
X18509868Y-55193587D01*
X18469500Y-55396530D01*
X18469500Y-55603469D01*
X18509868Y-55806412D01*
X18509870Y-55806420D01*
X18575939Y-55965925D01*
X18589059Y-55997598D01*
X18602836Y-56018217D01*
X18704024Y-56169657D01*
X18850342Y-56315975D01*
X18850345Y-56315977D01*
X19022402Y-56430941D01*
X19213580Y-56510130D01*
X19378714Y-56542977D01*
X19416530Y-56550499D01*
X19416534Y-56550500D01*
X19416535Y-56550500D01*
X19623466Y-56550500D01*
X19623467Y-56550499D01*
X19826420Y-56510130D01*
X20017598Y-56430941D01*
X20189655Y-56315977D01*
X20302803Y-56202828D01*
X20364124Y-56169345D01*
X20433816Y-56174329D01*
X20478164Y-56202830D01*
X21488154Y-57212819D01*
X21521639Y-57274142D01*
X21516655Y-57343834D01*
X21474783Y-57399767D01*
X21409319Y-57424184D01*
X21400473Y-57424500D01*
X17165478Y-57424500D01*
X17098439Y-57404815D01*
X17077797Y-57388181D01*
X16282162Y-56592546D01*
X16248677Y-56531223D01*
X16253661Y-56461531D01*
X16295533Y-56405598D01*
X16360997Y-56381181D01*
X16429270Y-56396033D01*
X16438731Y-56401761D01*
X16482402Y-56430941D01*
X16673580Y-56510130D01*
X16838714Y-56542977D01*
X16876530Y-56550499D01*
X16876534Y-56550500D01*
X16876535Y-56550500D01*
X17083466Y-56550500D01*
X17083467Y-56550499D01*
X17286420Y-56510130D01*
X17477598Y-56430941D01*
X17649655Y-56315977D01*
X17795977Y-56169655D01*
X17910941Y-55997598D01*
X17990130Y-55806420D01*
X18030500Y-55603465D01*
X18030500Y-55396535D01*
X17990130Y-55193580D01*
X17910941Y-55002402D01*
X17795977Y-54830345D01*
X17795975Y-54830342D01*
X17649657Y-54684024D01*
X17515082Y-54594105D01*
X17477598Y-54569059D01*
X17477593Y-54569057D01*
X17344952Y-54514115D01*
X17312890Y-54500834D01*
X17258488Y-54456994D01*
X17236423Y-54390700D01*
X17253702Y-54323001D01*
X17304839Y-54275390D01*
X17322026Y-54268343D01*
X17498217Y-54211095D01*
X17687557Y-54114620D01*
X17859459Y-53989727D01*
X17859464Y-53989723D01*
X18009727Y-53839460D01*
X18110835Y-53700296D01*
X18166164Y-53657630D01*
X18235778Y-53651651D01*
X18297573Y-53684256D01*
G37*
%TD.AperFunction*%
%TA.AperFunction,Conductor*%
G36*
X58796998Y-55773702D02*
G01*
X58844609Y-55824839D01*
X58851656Y-55842026D01*
X58908904Y-56018216D01*
X59005379Y-56207557D01*
X59130272Y-56379459D01*
X59130276Y-56379464D01*
X59280535Y-56529723D01*
X59280540Y-56529727D01*
X59452442Y-56654620D01*
X59641782Y-56751095D01*
X59843871Y-56816757D01*
X59910000Y-56827231D01*
X59910000Y-55933012D01*
X59967007Y-55965925D01*
X60094174Y-56000000D01*
X60225826Y-56000000D01*
X60352993Y-55965925D01*
X60410000Y-55933012D01*
X60410000Y-56827230D01*
X60476126Y-56816757D01*
X60476129Y-56816757D01*
X60678217Y-56751095D01*
X60867557Y-56654620D01*
X61039459Y-56529727D01*
X61039464Y-56529723D01*
X61189723Y-56379464D01*
X61189727Y-56379459D01*
X61314620Y-56207557D01*
X61411095Y-56018217D01*
X61468343Y-55842026D01*
X61507780Y-55784351D01*
X61572139Y-55757152D01*
X61640985Y-55769066D01*
X61692461Y-55816310D01*
X61700833Y-55832887D01*
X61720786Y-55881058D01*
X61755939Y-55965925D01*
X61769059Y-55997598D01*
X61782836Y-56018217D01*
X61884024Y-56169657D01*
X62030342Y-56315975D01*
X62030345Y-56315977D01*
X62202402Y-56430941D01*
X62393580Y-56510130D01*
X62558714Y-56542977D01*
X62596530Y-56550499D01*
X62596534Y-56550500D01*
X62596535Y-56550500D01*
X62803466Y-56550500D01*
X62803466Y-56550499D01*
X62847465Y-56541748D01*
X62917057Y-56547975D01*
X62972234Y-56590838D01*
X62995479Y-56656728D01*
X62979411Y-56724725D01*
X62959338Y-56751046D01*
X62322204Y-57388181D01*
X62260881Y-57421666D01*
X62234523Y-57424500D01*
X56384476Y-57424500D01*
X56317437Y-57404815D01*
X56271682Y-57352011D01*
X56261738Y-57282853D01*
X56290763Y-57219297D01*
X56296795Y-57212819D01*
X56621433Y-56888181D01*
X57032896Y-56476718D01*
X57094217Y-56443235D01*
X57163909Y-56448219D01*
X57168026Y-56449839D01*
X57313580Y-56510130D01*
X57478714Y-56542977D01*
X57516530Y-56550499D01*
X57516534Y-56550500D01*
X57516535Y-56550500D01*
X57723466Y-56550500D01*
X57723467Y-56550499D01*
X57926420Y-56510130D01*
X58117598Y-56430941D01*
X58289655Y-56315977D01*
X58435977Y-56169655D01*
X58550941Y-55997598D01*
X58619165Y-55832889D01*
X58663004Y-55778488D01*
X58729298Y-55756423D01*
X58796998Y-55773702D01*
G37*
%TD.AperFunction*%
%TA.AperFunction,Conductor*%
G36*
X23236998Y-55773702D02*
G01*
X23284609Y-55824839D01*
X23291656Y-55842026D01*
X23348904Y-56018216D01*
X23445379Y-56207557D01*
X23570272Y-56379459D01*
X23570276Y-56379464D01*
X23720535Y-56529723D01*
X23720540Y-56529727D01*
X23892446Y-56654623D01*
X23892447Y-56654624D01*
X23961906Y-56690016D01*
X24012702Y-56737990D01*
X24029497Y-56805811D01*
X24006959Y-56871946D01*
X23952244Y-56915397D01*
X23905611Y-56924500D01*
X22030427Y-56924500D01*
X21963388Y-56904815D01*
X21942746Y-56888181D01*
X21806840Y-56752275D01*
X21773355Y-56690952D01*
X21778339Y-56621260D01*
X21820211Y-56565327D01*
X21885675Y-56540910D01*
X21918712Y-56542977D01*
X21943841Y-56547975D01*
X21956532Y-56550499D01*
X21956534Y-56550500D01*
X21956535Y-56550500D01*
X22163466Y-56550500D01*
X22163467Y-56550499D01*
X22366420Y-56510130D01*
X22557598Y-56430941D01*
X22729655Y-56315977D01*
X22875977Y-56169655D01*
X22990941Y-55997598D01*
X23059165Y-55832889D01*
X23103004Y-55778488D01*
X23169298Y-55756423D01*
X23236998Y-55773702D01*
G37*
%TD.AperFunction*%
%TA.AperFunction,Conductor*%
G36*
X28316998Y-55773702D02*
G01*
X28364609Y-55824839D01*
X28371656Y-55842026D01*
X28428904Y-56018216D01*
X28525379Y-56207557D01*
X28650272Y-56379459D01*
X28650276Y-56379464D01*
X28800535Y-56529723D01*
X28800540Y-56529727D01*
X28972446Y-56654623D01*
X28972447Y-56654624D01*
X29041906Y-56690016D01*
X29092702Y-56737990D01*
X29109497Y-56805811D01*
X29086959Y-56871946D01*
X29032244Y-56915397D01*
X28985611Y-56924500D01*
X25294389Y-56924500D01*
X25227350Y-56904815D01*
X25181595Y-56852011D01*
X25171651Y-56782853D01*
X25200676Y-56719297D01*
X25238094Y-56690016D01*
X25307552Y-56654624D01*
X25307553Y-56654623D01*
X25479459Y-56529727D01*
X25479464Y-56529723D01*
X25629723Y-56379464D01*
X25629727Y-56379459D01*
X25754620Y-56207557D01*
X25851095Y-56018217D01*
X25908343Y-55842026D01*
X25947780Y-55784351D01*
X26012139Y-55757152D01*
X26080985Y-55769066D01*
X26132461Y-55816310D01*
X26140833Y-55832887D01*
X26160786Y-55881058D01*
X26195939Y-55965925D01*
X26209059Y-55997598D01*
X26222836Y-56018217D01*
X26324024Y-56169657D01*
X26470342Y-56315975D01*
X26470345Y-56315977D01*
X26642402Y-56430941D01*
X26833580Y-56510130D01*
X26998714Y-56542977D01*
X27036530Y-56550499D01*
X27036534Y-56550500D01*
X27036535Y-56550500D01*
X27243466Y-56550500D01*
X27243467Y-56550499D01*
X27446420Y-56510130D01*
X27637598Y-56430941D01*
X27809655Y-56315977D01*
X27955977Y-56169655D01*
X28070941Y-55997598D01*
X28139165Y-55832889D01*
X28183004Y-55778488D01*
X28249298Y-55756423D01*
X28316998Y-55773702D01*
G37*
%TD.AperFunction*%
%TA.AperFunction,Conductor*%
G36*
X33916998Y-54645185D02*
G01*
X33962753Y-54697989D01*
X33972697Y-54767147D01*
X33947156Y-54825111D01*
X33947408Y-54825279D01*
X33946453Y-54826707D01*
X33945810Y-54828168D01*
X33944022Y-54830346D01*
X33829058Y-55002403D01*
X33749870Y-55193579D01*
X33749868Y-55193587D01*
X33709500Y-55396530D01*
X33709500Y-55603469D01*
X33749868Y-55806412D01*
X33749870Y-55806420D01*
X33815939Y-55965925D01*
X33829059Y-55997598D01*
X33842836Y-56018217D01*
X33944024Y-56169657D01*
X34090342Y-56315975D01*
X34090345Y-56315977D01*
X34262402Y-56430941D01*
X34453580Y-56510130D01*
X34618714Y-56542977D01*
X34656530Y-56550499D01*
X34656534Y-56550500D01*
X34656535Y-56550500D01*
X34863466Y-56550500D01*
X34863467Y-56550499D01*
X35066420Y-56510130D01*
X35257598Y-56430941D01*
X35429655Y-56315977D01*
X35575977Y-56169655D01*
X35690941Y-55997598D01*
X35770130Y-55806420D01*
X35810500Y-55603465D01*
X35810500Y-55396535D01*
X35770130Y-55193580D01*
X35690941Y-55002402D01*
X35575977Y-54830345D01*
X35575972Y-54830340D01*
X35574190Y-54828168D01*
X35573610Y-54826802D01*
X35572592Y-54825279D01*
X35572880Y-54825085D01*
X35546875Y-54763858D01*
X35558664Y-54694991D01*
X35605815Y-54643429D01*
X35670041Y-54625500D01*
X36389959Y-54625500D01*
X36456998Y-54645185D01*
X36502753Y-54697989D01*
X36512697Y-54767147D01*
X36487156Y-54825111D01*
X36487408Y-54825279D01*
X36486453Y-54826707D01*
X36485810Y-54828168D01*
X36484022Y-54830346D01*
X36369058Y-55002403D01*
X36289870Y-55193579D01*
X36289868Y-55193587D01*
X36249500Y-55396530D01*
X36249500Y-55603469D01*
X36289868Y-55806412D01*
X36289870Y-55806420D01*
X36355939Y-55965925D01*
X36369059Y-55997598D01*
X36382836Y-56018217D01*
X36484024Y-56169657D01*
X36630342Y-56315975D01*
X36630345Y-56315977D01*
X36802402Y-56430941D01*
X36993580Y-56510130D01*
X37158714Y-56542977D01*
X37196530Y-56550499D01*
X37196534Y-56550500D01*
X37196535Y-56550500D01*
X37403466Y-56550500D01*
X37403467Y-56550499D01*
X37606420Y-56510130D01*
X37797598Y-56430941D01*
X37969655Y-56315977D01*
X38115977Y-56169655D01*
X38230941Y-55997598D01*
X38310130Y-55806420D01*
X38350500Y-55603465D01*
X38350500Y-55396535D01*
X38310130Y-55193580D01*
X38230941Y-55002402D01*
X38115977Y-54830345D01*
X38115972Y-54830340D01*
X38114190Y-54828168D01*
X38113610Y-54826802D01*
X38112592Y-54825279D01*
X38112880Y-54825085D01*
X38086875Y-54763858D01*
X38098664Y-54694991D01*
X38145815Y-54643429D01*
X38210041Y-54625500D01*
X38929959Y-54625500D01*
X38996998Y-54645185D01*
X39042753Y-54697989D01*
X39052697Y-54767147D01*
X39027156Y-54825111D01*
X39027408Y-54825279D01*
X39026453Y-54826707D01*
X39025810Y-54828168D01*
X39024022Y-54830346D01*
X38909058Y-55002403D01*
X38829870Y-55193579D01*
X38829868Y-55193587D01*
X38789500Y-55396530D01*
X38789500Y-55603469D01*
X38829868Y-55806412D01*
X38829870Y-55806420D01*
X38895939Y-55965925D01*
X38909059Y-55997598D01*
X38922836Y-56018217D01*
X39024024Y-56169657D01*
X39170342Y-56315975D01*
X39170345Y-56315977D01*
X39342402Y-56430941D01*
X39533580Y-56510130D01*
X39698714Y-56542977D01*
X39736530Y-56550499D01*
X39736534Y-56550500D01*
X39736535Y-56550500D01*
X39943466Y-56550500D01*
X39943467Y-56550499D01*
X40146420Y-56510130D01*
X40337598Y-56430941D01*
X40509655Y-56315977D01*
X40655977Y-56169655D01*
X40770941Y-55997598D01*
X40839165Y-55832889D01*
X40883004Y-55778488D01*
X40949298Y-55756423D01*
X41016998Y-55773702D01*
X41064609Y-55824839D01*
X41071656Y-55842026D01*
X41128904Y-56018216D01*
X41225379Y-56207557D01*
X41350272Y-56379459D01*
X41350276Y-56379464D01*
X41500535Y-56529723D01*
X41500540Y-56529727D01*
X41672446Y-56654623D01*
X41672447Y-56654624D01*
X41741906Y-56690016D01*
X41792702Y-56737990D01*
X41809497Y-56805811D01*
X41786959Y-56871946D01*
X41732244Y-56915397D01*
X41685611Y-56924500D01*
X30374389Y-56924500D01*
X30307350Y-56904815D01*
X30261595Y-56852011D01*
X30251651Y-56782853D01*
X30280676Y-56719297D01*
X30318094Y-56690016D01*
X30387552Y-56654624D01*
X30387553Y-56654623D01*
X30559459Y-56529727D01*
X30559464Y-56529723D01*
X30709723Y-56379464D01*
X30709727Y-56379459D01*
X30834620Y-56207557D01*
X30931095Y-56018217D01*
X30988343Y-55842026D01*
X31027780Y-55784351D01*
X31092139Y-55757152D01*
X31160985Y-55769066D01*
X31212461Y-55816310D01*
X31220833Y-55832887D01*
X31240786Y-55881058D01*
X31275939Y-55965925D01*
X31289059Y-55997598D01*
X31302836Y-56018217D01*
X31404024Y-56169657D01*
X31550342Y-56315975D01*
X31550345Y-56315977D01*
X31722402Y-56430941D01*
X31913580Y-56510130D01*
X32078714Y-56542977D01*
X32116530Y-56550499D01*
X32116534Y-56550500D01*
X32116535Y-56550500D01*
X32323466Y-56550500D01*
X32323467Y-56550499D01*
X32526420Y-56510130D01*
X32717598Y-56430941D01*
X32889655Y-56315977D01*
X33035977Y-56169655D01*
X33150941Y-55997598D01*
X33230130Y-55806420D01*
X33270500Y-55603465D01*
X33270500Y-55396535D01*
X33230130Y-55193580D01*
X33150941Y-55002402D01*
X33035977Y-54830345D01*
X33035972Y-54830340D01*
X33034190Y-54828168D01*
X33033610Y-54826802D01*
X33032592Y-54825279D01*
X33032880Y-54825085D01*
X33006875Y-54763858D01*
X33018664Y-54694991D01*
X33065815Y-54643429D01*
X33130041Y-54625500D01*
X33849959Y-54625500D01*
X33916998Y-54645185D01*
G37*
%TD.AperFunction*%
%TA.AperFunction,Conductor*%
G36*
X46616998Y-54645185D02*
G01*
X46662753Y-54697989D01*
X46672697Y-54767147D01*
X46647156Y-54825111D01*
X46647408Y-54825279D01*
X46646453Y-54826707D01*
X46645810Y-54828168D01*
X46644022Y-54830346D01*
X46529058Y-55002403D01*
X46449870Y-55193579D01*
X46449868Y-55193587D01*
X46409500Y-55396530D01*
X46409500Y-55603469D01*
X46449868Y-55806412D01*
X46449870Y-55806420D01*
X46515939Y-55965925D01*
X46529059Y-55997598D01*
X46542836Y-56018217D01*
X46644024Y-56169657D01*
X46790342Y-56315975D01*
X46790345Y-56315977D01*
X46962402Y-56430941D01*
X47153580Y-56510130D01*
X47318714Y-56542977D01*
X47356530Y-56550499D01*
X47356534Y-56550500D01*
X47356535Y-56550500D01*
X47563466Y-56550500D01*
X47563467Y-56550499D01*
X47766420Y-56510130D01*
X47957598Y-56430941D01*
X48129655Y-56315977D01*
X48275977Y-56169655D01*
X48390941Y-55997598D01*
X48459165Y-55832889D01*
X48503004Y-55778488D01*
X48569298Y-55756423D01*
X48636998Y-55773702D01*
X48684609Y-55824839D01*
X48691656Y-55842026D01*
X48748904Y-56018216D01*
X48845379Y-56207557D01*
X48970272Y-56379459D01*
X48970276Y-56379464D01*
X49120535Y-56529723D01*
X49120540Y-56529727D01*
X49292446Y-56654623D01*
X49292447Y-56654624D01*
X49361906Y-56690016D01*
X49412702Y-56737990D01*
X49429497Y-56805811D01*
X49406959Y-56871946D01*
X49352244Y-56915397D01*
X49305611Y-56924500D01*
X43074389Y-56924500D01*
X43007350Y-56904815D01*
X42961595Y-56852011D01*
X42951651Y-56782853D01*
X42980676Y-56719297D01*
X43018094Y-56690016D01*
X43087552Y-56654624D01*
X43087553Y-56654623D01*
X43259459Y-56529727D01*
X43259464Y-56529723D01*
X43409723Y-56379464D01*
X43409727Y-56379459D01*
X43534620Y-56207557D01*
X43631095Y-56018217D01*
X43688343Y-55842026D01*
X43727780Y-55784351D01*
X43792139Y-55757152D01*
X43860985Y-55769066D01*
X43912461Y-55816310D01*
X43920833Y-55832887D01*
X43940786Y-55881058D01*
X43975939Y-55965925D01*
X43989059Y-55997598D01*
X44002836Y-56018217D01*
X44104024Y-56169657D01*
X44250342Y-56315975D01*
X44250345Y-56315977D01*
X44422402Y-56430941D01*
X44613580Y-56510130D01*
X44778714Y-56542977D01*
X44816530Y-56550499D01*
X44816534Y-56550500D01*
X44816535Y-56550500D01*
X45023466Y-56550500D01*
X45023467Y-56550499D01*
X45226420Y-56510130D01*
X45417598Y-56430941D01*
X45589655Y-56315977D01*
X45735977Y-56169655D01*
X45850941Y-55997598D01*
X45930130Y-55806420D01*
X45970500Y-55603465D01*
X45970500Y-55396535D01*
X45930130Y-55193580D01*
X45850941Y-55002402D01*
X45735977Y-54830345D01*
X45735972Y-54830340D01*
X45734190Y-54828168D01*
X45733610Y-54826802D01*
X45732592Y-54825279D01*
X45732880Y-54825085D01*
X45706875Y-54763858D01*
X45718664Y-54694991D01*
X45765815Y-54643429D01*
X45830041Y-54625500D01*
X46549959Y-54625500D01*
X46616998Y-54645185D01*
G37*
%TD.AperFunction*%
%TA.AperFunction,Conductor*%
G36*
X63081562Y-51195185D02*
G01*
X63102204Y-51211819D01*
X64153181Y-52262796D01*
X64186666Y-52324119D01*
X64189500Y-52350477D01*
X64189500Y-53569522D01*
X64169815Y-53636561D01*
X64153181Y-53657203D01*
X63818942Y-53991443D01*
X63741444Y-54068940D01*
X63699500Y-54170199D01*
X63699500Y-54714505D01*
X63679815Y-54781544D01*
X63627011Y-54827299D01*
X63557853Y-54837243D01*
X63494297Y-54808218D01*
X63487819Y-54802186D01*
X63369657Y-54684024D01*
X63235082Y-54594105D01*
X63197598Y-54569059D01*
X63197593Y-54569057D01*
X63006420Y-54489870D01*
X63006412Y-54489868D01*
X62803469Y-54449500D01*
X62803465Y-54449500D01*
X62596535Y-54449500D01*
X62596530Y-54449500D01*
X62393587Y-54489868D01*
X62393579Y-54489870D01*
X62202403Y-54569058D01*
X62030342Y-54684024D01*
X61884024Y-54830342D01*
X61769057Y-55002403D01*
X61700835Y-55167108D01*
X61656994Y-55221511D01*
X61590700Y-55243576D01*
X61523000Y-55226297D01*
X61475390Y-55175159D01*
X61468343Y-55157973D01*
X61411095Y-54981782D01*
X61314620Y-54792442D01*
X61189727Y-54620540D01*
X61189723Y-54620535D01*
X61039464Y-54470276D01*
X61039459Y-54470272D01*
X60867557Y-54345379D01*
X60678216Y-54248904D01*
X60502026Y-54191656D01*
X60444350Y-54152218D01*
X60417152Y-54087860D01*
X60429067Y-54019013D01*
X60476311Y-53967538D01*
X60492882Y-53959168D01*
X60657598Y-53890941D01*
X60829655Y-53775977D01*
X60975977Y-53629655D01*
X61090941Y-53457598D01*
X61170130Y-53266420D01*
X61210500Y-53063465D01*
X61210500Y-52856535D01*
X61210499Y-52856530D01*
X61649500Y-52856530D01*
X61649500Y-53063469D01*
X61689868Y-53266412D01*
X61689870Y-53266420D01*
X61762419Y-53441569D01*
X61769059Y-53457598D01*
X61806141Y-53513095D01*
X61884024Y-53629657D01*
X62030342Y-53775975D01*
X62030345Y-53775977D01*
X62202402Y-53890941D01*
X62393580Y-53970130D01*
X62596530Y-54010499D01*
X62596534Y-54010500D01*
X62596535Y-54010500D01*
X62803466Y-54010500D01*
X62803467Y-54010499D01*
X63006420Y-53970130D01*
X63197598Y-53890941D01*
X63369655Y-53775977D01*
X63515977Y-53629655D01*
X63630941Y-53457598D01*
X63710130Y-53266420D01*
X63750500Y-53063465D01*
X63750500Y-52856535D01*
X63710130Y-52653580D01*
X63630941Y-52462402D01*
X63515977Y-52290345D01*
X63515975Y-52290342D01*
X63369657Y-52144024D01*
X63274638Y-52080535D01*
X63197598Y-52029059D01*
X63197593Y-52029057D01*
X63006420Y-51949870D01*
X63006412Y-51949868D01*
X62803469Y-51909500D01*
X62803465Y-51909500D01*
X62596535Y-51909500D01*
X62596530Y-51909500D01*
X62393587Y-51949868D01*
X62393579Y-51949870D01*
X62202403Y-52029058D01*
X62030342Y-52144024D01*
X61884024Y-52290342D01*
X61769058Y-52462403D01*
X61689870Y-52653579D01*
X61689868Y-52653587D01*
X61649500Y-52856530D01*
X61210499Y-52856530D01*
X61170130Y-52653580D01*
X61090941Y-52462402D01*
X60975977Y-52290345D01*
X60975975Y-52290342D01*
X60829657Y-52144024D01*
X60734638Y-52080535D01*
X60657598Y-52029059D01*
X60657593Y-52029057D01*
X60466420Y-51949870D01*
X60466412Y-51949868D01*
X60263469Y-51909500D01*
X60263465Y-51909500D01*
X60056535Y-51909500D01*
X60056530Y-51909500D01*
X59853587Y-51949868D01*
X59853579Y-51949870D01*
X59662403Y-52029058D01*
X59490342Y-52144024D01*
X59344024Y-52290342D01*
X59229058Y-52462403D01*
X59149870Y-52653579D01*
X59149868Y-52653587D01*
X59109500Y-52856530D01*
X59109500Y-53063469D01*
X59149868Y-53266412D01*
X59149870Y-53266420D01*
X59222419Y-53441569D01*
X59229059Y-53457598D01*
X59266141Y-53513095D01*
X59344024Y-53629657D01*
X59490342Y-53775975D01*
X59662405Y-53890943D01*
X59758750Y-53930850D01*
X59827108Y-53959164D01*
X59881511Y-54003005D01*
X59903576Y-54069299D01*
X59886297Y-54136998D01*
X59835160Y-54184609D01*
X59817974Y-54191656D01*
X59641781Y-54248905D01*
X59452442Y-54345379D01*
X59280540Y-54470272D01*
X59280535Y-54470276D01*
X59130276Y-54620535D01*
X59130272Y-54620540D01*
X59005379Y-54792442D01*
X58908905Y-54981781D01*
X58851656Y-55157974D01*
X58812218Y-55215649D01*
X58747859Y-55242847D01*
X58679013Y-55230932D01*
X58627537Y-55183688D01*
X58619164Y-55167107D01*
X58550943Y-55002405D01*
X58435975Y-54830342D01*
X58289657Y-54684024D01*
X58155082Y-54594105D01*
X58117598Y-54569059D01*
X58117593Y-54569057D01*
X57926420Y-54489870D01*
X57926412Y-54489868D01*
X57723469Y-54449500D01*
X57723465Y-54449500D01*
X57516535Y-54449500D01*
X57516530Y-54449500D01*
X57313587Y-54489868D01*
X57313579Y-54489870D01*
X57122403Y-54569058D01*
X56950342Y-54684024D01*
X56804024Y-54830342D01*
X56689058Y-55002403D01*
X56609870Y-55193579D01*
X56609868Y-55193587D01*
X56569500Y-55396530D01*
X56569500Y-55603469D01*
X56609868Y-55806412D01*
X56609870Y-55806420D01*
X56670159Y-55951970D01*
X56677628Y-56021440D01*
X56646353Y-56083919D01*
X56643279Y-56087104D01*
X56414409Y-56315975D01*
X56039433Y-56690952D01*
X55842204Y-56888181D01*
X55780881Y-56921666D01*
X55754523Y-56924500D01*
X50694389Y-56924500D01*
X50627350Y-56904815D01*
X50581595Y-56852011D01*
X50571651Y-56782853D01*
X50600676Y-56719297D01*
X50638094Y-56690016D01*
X50707552Y-56654624D01*
X50707553Y-56654623D01*
X50879459Y-56529727D01*
X50879464Y-56529723D01*
X51029723Y-56379464D01*
X51029727Y-56379459D01*
X51154620Y-56207557D01*
X51251095Y-56018217D01*
X51308343Y-55842026D01*
X51347780Y-55784351D01*
X51412139Y-55757152D01*
X51480985Y-55769066D01*
X51532461Y-55816310D01*
X51540833Y-55832887D01*
X51560786Y-55881058D01*
X51595939Y-55965925D01*
X51609059Y-55997598D01*
X51622836Y-56018217D01*
X51724024Y-56169657D01*
X51870342Y-56315975D01*
X51870345Y-56315977D01*
X52042402Y-56430941D01*
X52233580Y-56510130D01*
X52398714Y-56542977D01*
X52436530Y-56550499D01*
X52436534Y-56550500D01*
X52436535Y-56550500D01*
X52643466Y-56550500D01*
X52643467Y-56550499D01*
X52846420Y-56510130D01*
X53037598Y-56430941D01*
X53209655Y-56315977D01*
X53355977Y-56169655D01*
X53470941Y-55997598D01*
X53550130Y-55806420D01*
X53590500Y-55603465D01*
X53590500Y-55396535D01*
X53550130Y-55193580D01*
X53470941Y-55002402D01*
X53355977Y-54830345D01*
X53355972Y-54830340D01*
X53354190Y-54828168D01*
X53353610Y-54826802D01*
X53352592Y-54825279D01*
X53352880Y-54825085D01*
X53326875Y-54763858D01*
X53338664Y-54694991D01*
X53385815Y-54643429D01*
X53450041Y-54625500D01*
X53764523Y-54625500D01*
X53831562Y-54645185D01*
X53852204Y-54661819D01*
X54103279Y-54912895D01*
X54136764Y-54974218D01*
X54131780Y-55043910D01*
X54130159Y-55048028D01*
X54069871Y-55193575D01*
X54069868Y-55193587D01*
X54029500Y-55396530D01*
X54029500Y-55603469D01*
X54069868Y-55806412D01*
X54069870Y-55806420D01*
X54135939Y-55965925D01*
X54149059Y-55997598D01*
X54162836Y-56018217D01*
X54264024Y-56169657D01*
X54410342Y-56315975D01*
X54410345Y-56315977D01*
X54582402Y-56430941D01*
X54773580Y-56510130D01*
X54938714Y-56542977D01*
X54976530Y-56550499D01*
X54976534Y-56550500D01*
X54976535Y-56550500D01*
X55183466Y-56550500D01*
X55183467Y-56550499D01*
X55386420Y-56510130D01*
X55577598Y-56430941D01*
X55749655Y-56315977D01*
X55895977Y-56169655D01*
X56010941Y-55997598D01*
X56090130Y-55806420D01*
X56130500Y-55603465D01*
X56130500Y-55396535D01*
X56090130Y-55193580D01*
X56010941Y-55002402D01*
X55895977Y-54830345D01*
X55895975Y-54830342D01*
X55749657Y-54684024D01*
X55615082Y-54594105D01*
X55577598Y-54569059D01*
X55577593Y-54569057D01*
X55444952Y-54514115D01*
X55412890Y-54500834D01*
X55358488Y-54456994D01*
X55336423Y-54390700D01*
X55353702Y-54323001D01*
X55404839Y-54275390D01*
X55422026Y-54268343D01*
X55598217Y-54211095D01*
X55787557Y-54114620D01*
X55959459Y-53989727D01*
X55959464Y-53989723D01*
X56109723Y-53839464D01*
X56109727Y-53839459D01*
X56234620Y-53667557D01*
X56331095Y-53478217D01*
X56388343Y-53302026D01*
X56427780Y-53244351D01*
X56492139Y-53217152D01*
X56560985Y-53229066D01*
X56612461Y-53276310D01*
X56620835Y-53292891D01*
X56682419Y-53441569D01*
X56689059Y-53457598D01*
X56726141Y-53513095D01*
X56804024Y-53629657D01*
X56950342Y-53775975D01*
X56950345Y-53775977D01*
X57122402Y-53890941D01*
X57313580Y-53970130D01*
X57516530Y-54010499D01*
X57516534Y-54010500D01*
X57516535Y-54010500D01*
X57723466Y-54010500D01*
X57723467Y-54010499D01*
X57926420Y-53970130D01*
X58117598Y-53890941D01*
X58289655Y-53775977D01*
X58435977Y-53629655D01*
X58550941Y-53457598D01*
X58630130Y-53266420D01*
X58670500Y-53063465D01*
X58670500Y-52856535D01*
X58630130Y-52653580D01*
X58550941Y-52462402D01*
X58435977Y-52290345D01*
X58435975Y-52290342D01*
X58289657Y-52144024D01*
X58194638Y-52080535D01*
X58117598Y-52029059D01*
X58117593Y-52029057D01*
X57926420Y-51949870D01*
X57926412Y-51949868D01*
X57723469Y-51909500D01*
X57723465Y-51909500D01*
X57516535Y-51909500D01*
X57516530Y-51909500D01*
X57313587Y-51949868D01*
X57313579Y-51949870D01*
X57122403Y-52029058D01*
X56950342Y-52144024D01*
X56804024Y-52290342D01*
X56689057Y-52462403D01*
X56620835Y-52627108D01*
X56576994Y-52681511D01*
X56510700Y-52703576D01*
X56443000Y-52686297D01*
X56395390Y-52635159D01*
X56388343Y-52617973D01*
X56331095Y-52441782D01*
X56234620Y-52252442D01*
X56109727Y-52080540D01*
X56109723Y-52080535D01*
X55959464Y-51930276D01*
X55959459Y-51930272D01*
X55787557Y-51805379D01*
X55598215Y-51708903D01*
X55396124Y-51643241D01*
X55330000Y-51632768D01*
X55330000Y-52526988D01*
X55272993Y-52494075D01*
X55145826Y-52460000D01*
X55014174Y-52460000D01*
X54887007Y-52494075D01*
X54830000Y-52526988D01*
X54830000Y-51632768D01*
X54829999Y-51632768D01*
X54763875Y-51643241D01*
X54561784Y-51708903D01*
X54372442Y-51805379D01*
X54200540Y-51930272D01*
X54200535Y-51930276D01*
X54050276Y-52080535D01*
X54050272Y-52080540D01*
X53925379Y-52252442D01*
X53828905Y-52441781D01*
X53771656Y-52617974D01*
X53732218Y-52675649D01*
X53667859Y-52702847D01*
X53599013Y-52690932D01*
X53547537Y-52643688D01*
X53539164Y-52627107D01*
X53470943Y-52462405D01*
X53355975Y-52290342D01*
X53209657Y-52144024D01*
X53114638Y-52080535D01*
X53037598Y-52029059D01*
X53037593Y-52029057D01*
X52846420Y-51949870D01*
X52846412Y-51949868D01*
X52643469Y-51909500D01*
X52643465Y-51909500D01*
X52436535Y-51909500D01*
X52436530Y-51909500D01*
X52233587Y-51949868D01*
X52233579Y-51949870D01*
X52042403Y-52029058D01*
X51870342Y-52144024D01*
X51724024Y-52290342D01*
X51609058Y-52462403D01*
X51529870Y-52653579D01*
X51529868Y-52653587D01*
X51489500Y-52856530D01*
X51489500Y-53063469D01*
X51529868Y-53266412D01*
X51529870Y-53266420D01*
X51602419Y-53441569D01*
X51609059Y-53457598D01*
X51646141Y-53513095D01*
X51724024Y-53629657D01*
X51870342Y-53775975D01*
X51870345Y-53775977D01*
X51977234Y-53847398D01*
X52022040Y-53901009D01*
X52030747Y-53970334D01*
X52000593Y-54033362D01*
X51941150Y-54070082D01*
X51908344Y-54074500D01*
X51305239Y-54074500D01*
X51238200Y-54054815D01*
X51217558Y-54038181D01*
X51193663Y-54014286D01*
X51193662Y-54014285D01*
X51174143Y-54006200D01*
X51092404Y-53972342D01*
X50772653Y-53972342D01*
X50705614Y-53952657D01*
X50659859Y-53899853D01*
X50649915Y-53830695D01*
X50678940Y-53767139D01*
X50684972Y-53760661D01*
X50815974Y-53629658D01*
X50815975Y-53629657D01*
X50815977Y-53629655D01*
X50930941Y-53457598D01*
X51010130Y-53266420D01*
X51050500Y-53063465D01*
X51050500Y-52856535D01*
X51010130Y-52653580D01*
X50930941Y-52462402D01*
X50815977Y-52290345D01*
X50815975Y-52290342D01*
X50669657Y-52144024D01*
X50574638Y-52080535D01*
X50497598Y-52029059D01*
X50497593Y-52029057D01*
X50306420Y-51949870D01*
X50306412Y-51949868D01*
X50103469Y-51909500D01*
X50103465Y-51909500D01*
X49896535Y-51909500D01*
X49896530Y-51909500D01*
X49693587Y-51949868D01*
X49693579Y-51949870D01*
X49502403Y-52029058D01*
X49330342Y-52144024D01*
X49184024Y-52290342D01*
X49069058Y-52462403D01*
X48989870Y-52653579D01*
X48989868Y-52653587D01*
X48949500Y-52856530D01*
X48949500Y-53063469D01*
X48989868Y-53266412D01*
X48989870Y-53266420D01*
X49062419Y-53441569D01*
X49069059Y-53457598D01*
X49106141Y-53513095D01*
X49184024Y-53629657D01*
X49330342Y-53775975D01*
X49330345Y-53775977D01*
X49437234Y-53847398D01*
X49482040Y-53901009D01*
X49490747Y-53970334D01*
X49460593Y-54033362D01*
X49401150Y-54070082D01*
X49368344Y-54074500D01*
X48091656Y-54074500D01*
X48024617Y-54054815D01*
X47978862Y-54002011D01*
X47968918Y-53932853D01*
X47997943Y-53869297D01*
X48022763Y-53847398D01*
X48129655Y-53775977D01*
X48275977Y-53629655D01*
X48390941Y-53457598D01*
X48470130Y-53266420D01*
X48510500Y-53063465D01*
X48510500Y-52856535D01*
X48470130Y-52653580D01*
X48390941Y-52462402D01*
X48275977Y-52290345D01*
X48275975Y-52290342D01*
X48129657Y-52144024D01*
X48034638Y-52080535D01*
X47957598Y-52029059D01*
X47957593Y-52029057D01*
X47766420Y-51949870D01*
X47766412Y-51949868D01*
X47563469Y-51909500D01*
X47563465Y-51909500D01*
X47356535Y-51909500D01*
X47356530Y-51909500D01*
X47153587Y-51949868D01*
X47153579Y-51949870D01*
X46962403Y-52029058D01*
X46790342Y-52144024D01*
X46644024Y-52290342D01*
X46529058Y-52462403D01*
X46449870Y-52653579D01*
X46449868Y-52653587D01*
X46409500Y-52856530D01*
X46409500Y-53063469D01*
X46449868Y-53266412D01*
X46449870Y-53266420D01*
X46522419Y-53441569D01*
X46529059Y-53457598D01*
X46566141Y-53513095D01*
X46644024Y-53629657D01*
X46790342Y-53775975D01*
X46790345Y-53775977D01*
X46897234Y-53847398D01*
X46942040Y-53901009D01*
X46950747Y-53970334D01*
X46920593Y-54033362D01*
X46861150Y-54070082D01*
X46828344Y-54074500D01*
X45551656Y-54074500D01*
X45484617Y-54054815D01*
X45438862Y-54002011D01*
X45428918Y-53932853D01*
X45457943Y-53869297D01*
X45482763Y-53847398D01*
X45589655Y-53775977D01*
X45735977Y-53629655D01*
X45850941Y-53457598D01*
X45930130Y-53266420D01*
X45970500Y-53063465D01*
X45970500Y-52856535D01*
X45930130Y-52653580D01*
X45869838Y-52508024D01*
X45862370Y-52438559D01*
X45893645Y-52376080D01*
X45896690Y-52372923D01*
X47057796Y-51211819D01*
X47119119Y-51178334D01*
X47145477Y-51175500D01*
X63014523Y-51175500D01*
X63081562Y-51195185D01*
G37*
%TD.AperFunction*%
%TA.AperFunction,Conductor*%
G36*
X17512638Y-48376909D02*
G01*
X17579661Y-48396641D01*
X17625378Y-48449478D01*
X17635272Y-48518643D01*
X17606202Y-48582178D01*
X17600229Y-48588590D01*
X17522377Y-48666442D01*
X17417042Y-48824087D01*
X17344488Y-48999248D01*
X17344486Y-48999256D01*
X17307500Y-49185197D01*
X17307500Y-49374802D01*
X17344486Y-49560743D01*
X17344488Y-49560751D01*
X17417042Y-49735912D01*
X17522377Y-49893558D01*
X17656439Y-50027620D01*
X17656442Y-50027622D01*
X17750391Y-50090396D01*
X17795195Y-50144007D01*
X17805500Y-50193498D01*
X17805500Y-51663123D01*
X17785815Y-51730162D01*
X17733011Y-51775917D01*
X17663853Y-51785861D01*
X17625205Y-51773608D01*
X17498214Y-51708903D01*
X17498216Y-51708903D01*
X17296124Y-51643241D01*
X17230000Y-51632768D01*
X17230000Y-52526988D01*
X17172993Y-52494075D01*
X17045826Y-52460000D01*
X16914174Y-52460000D01*
X16787007Y-52494075D01*
X16730000Y-52526988D01*
X16730000Y-51632768D01*
X16729999Y-51632768D01*
X16663875Y-51643241D01*
X16461784Y-51708903D01*
X16272442Y-51805379D01*
X16100540Y-51930272D01*
X16100535Y-51930276D01*
X15950276Y-52080535D01*
X15950272Y-52080540D01*
X15825379Y-52252442D01*
X15728904Y-52441782D01*
X15663242Y-52643870D01*
X15663242Y-52643873D01*
X15652769Y-52710000D01*
X16546988Y-52710000D01*
X16514075Y-52767007D01*
X16480000Y-52894174D01*
X16480000Y-53025826D01*
X16514075Y-53152993D01*
X16546988Y-53210000D01*
X15652769Y-53210000D01*
X15663242Y-53276126D01*
X15663242Y-53276129D01*
X15728904Y-53478217D01*
X15825379Y-53667557D01*
X15950272Y-53839459D01*
X15950276Y-53839464D01*
X16100535Y-53989723D01*
X16100540Y-53989727D01*
X16272442Y-54114620D01*
X16461782Y-54211095D01*
X16637973Y-54268343D01*
X16695648Y-54307780D01*
X16722847Y-54372139D01*
X16710932Y-54440985D01*
X16663688Y-54492461D01*
X16647108Y-54500835D01*
X16482403Y-54569057D01*
X16310342Y-54684024D01*
X16164024Y-54830342D01*
X16049058Y-55002403D01*
X15969870Y-55193579D01*
X15969868Y-55193587D01*
X15929500Y-55396530D01*
X15929500Y-55603469D01*
X15969868Y-55806412D01*
X15969870Y-55806420D01*
X16035939Y-55965925D01*
X16049059Y-55997598D01*
X16062836Y-56018217D01*
X16078237Y-56041266D01*
X16099114Y-56107943D01*
X16080629Y-56175323D01*
X16028650Y-56222013D01*
X15959680Y-56233189D01*
X15895616Y-56205303D01*
X15887453Y-56197837D01*
X15336819Y-55647203D01*
X15303334Y-55585880D01*
X15300500Y-55559522D01*
X15300500Y-50327018D01*
X15320185Y-50259979D01*
X15372989Y-50214224D01*
X15442147Y-50204280D01*
X15448691Y-50205401D01*
X15449248Y-50205511D01*
X15449249Y-50205512D01*
X15635199Y-50242499D01*
X15635201Y-50242500D01*
X15635202Y-50242500D01*
X15824799Y-50242500D01*
X15824800Y-50242499D01*
X16010751Y-50205512D01*
X16185915Y-50132956D01*
X16343558Y-50027622D01*
X16477622Y-49893558D01*
X16582956Y-49735915D01*
X16655512Y-49560751D01*
X16692500Y-49374798D01*
X16692500Y-49185202D01*
X16655512Y-48999249D01*
X16595300Y-48853886D01*
X16582957Y-48824087D01*
X16576267Y-48814075D01*
X16547686Y-48771300D01*
X16477622Y-48666441D01*
X16399041Y-48587860D01*
X16365556Y-48526537D01*
X16370540Y-48456845D01*
X16412412Y-48400912D01*
X16477876Y-48376495D01*
X16486782Y-48376179D01*
X17512638Y-48376909D01*
G37*
%TD.AperFunction*%
%TA.AperFunction,Conductor*%
G36*
X23395129Y-54645185D02*
G01*
X23440884Y-54697989D01*
X23450828Y-54767147D01*
X23438575Y-54805795D01*
X23348905Y-54981781D01*
X23291656Y-55157974D01*
X23252218Y-55215649D01*
X23187859Y-55242847D01*
X23119013Y-55230932D01*
X23067537Y-55183688D01*
X23059164Y-55167107D01*
X22990943Y-55002405D01*
X22972109Y-54974218D01*
X22875977Y-54830345D01*
X22875972Y-54830340D01*
X22874190Y-54828168D01*
X22873610Y-54826802D01*
X22872592Y-54825279D01*
X22872880Y-54825085D01*
X22846875Y-54763858D01*
X22858664Y-54694991D01*
X22905815Y-54643429D01*
X22970041Y-54625500D01*
X23328090Y-54625500D01*
X23395129Y-54645185D01*
G37*
%TD.AperFunction*%
%TA.AperFunction,Conductor*%
G36*
X36240985Y-53229066D02*
G01*
X36292461Y-53276310D01*
X36300835Y-53292891D01*
X36362419Y-53441569D01*
X36369059Y-53457598D01*
X36406141Y-53513095D01*
X36484024Y-53629657D01*
X36630342Y-53775975D01*
X36630345Y-53775977D01*
X36737234Y-53847398D01*
X36782040Y-53901009D01*
X36790747Y-53970334D01*
X36760593Y-54033362D01*
X36701150Y-54070082D01*
X36668344Y-54074500D01*
X35854050Y-54074500D01*
X35787011Y-54054815D01*
X35741256Y-54002011D01*
X35731312Y-53932853D01*
X35760337Y-53869297D01*
X35766369Y-53862819D01*
X35789723Y-53839464D01*
X35789727Y-53839459D01*
X35914620Y-53667557D01*
X36011095Y-53478217D01*
X36068343Y-53302026D01*
X36107780Y-53244351D01*
X36172139Y-53217152D01*
X36240985Y-53229066D01*
G37*
%TD.AperFunction*%
%TA.AperFunction,Conductor*%
G36*
X53716998Y-53233702D02*
G01*
X53764609Y-53284839D01*
X53771656Y-53302026D01*
X53828904Y-53478216D01*
X53925379Y-53667557D01*
X54050272Y-53839459D01*
X54050276Y-53839464D01*
X54073631Y-53862819D01*
X54107116Y-53924142D01*
X54102132Y-53993834D01*
X54060260Y-54049767D01*
X53994796Y-54074184D01*
X53985950Y-54074500D01*
X53171656Y-54074500D01*
X53104617Y-54054815D01*
X53058862Y-54002011D01*
X53048918Y-53932853D01*
X53077943Y-53869297D01*
X53102763Y-53847398D01*
X53209655Y-53775977D01*
X53355977Y-53629655D01*
X53470941Y-53457598D01*
X53539165Y-53292889D01*
X53583004Y-53238488D01*
X53649298Y-53216423D01*
X53716998Y-53233702D01*
G37*
%TD.AperFunction*%
%TA.AperFunction,Conductor*%
G36*
X20050833Y-48378714D02*
G01*
X20117856Y-48398446D01*
X20163573Y-48451283D01*
X20173467Y-48520448D01*
X20144397Y-48583983D01*
X20138424Y-48590395D01*
X20062377Y-48666442D01*
X19957042Y-48824087D01*
X19884488Y-48999248D01*
X19884486Y-48999256D01*
X19847500Y-49185197D01*
X19847500Y-49374802D01*
X19884486Y-49560743D01*
X19884488Y-49560751D01*
X19957042Y-49735912D01*
X20062377Y-49893558D01*
X20196439Y-50027620D01*
X20196442Y-50027622D01*
X20290391Y-50090396D01*
X20335195Y-50144007D01*
X20345500Y-50193498D01*
X20345500Y-52016167D01*
X20325815Y-52083206D01*
X20273011Y-52128961D01*
X20203853Y-52138905D01*
X20152610Y-52119270D01*
X20072078Y-52065461D01*
X20017598Y-52029059D01*
X20017593Y-52029057D01*
X19826420Y-51949870D01*
X19826412Y-51949868D01*
X19623469Y-51909500D01*
X19623465Y-51909500D01*
X19416535Y-51909500D01*
X19416530Y-51909500D01*
X19213587Y-51949868D01*
X19213579Y-51949870D01*
X19022403Y-52029058D01*
X18850342Y-52144024D01*
X18704024Y-52290342D01*
X18663844Y-52350477D01*
X18602838Y-52441781D01*
X18585675Y-52467467D01*
X18584310Y-52466555D01*
X18540891Y-52510753D01*
X18472752Y-52526211D01*
X18407074Y-52502376D01*
X18364708Y-52446816D01*
X18356500Y-52402453D01*
X18356500Y-50345915D01*
X18376185Y-50278876D01*
X18428989Y-50233121D01*
X18456309Y-50224298D01*
X18506952Y-50214224D01*
X18550751Y-50205512D01*
X18725915Y-50132956D01*
X18883558Y-50027622D01*
X19017622Y-49893558D01*
X19122956Y-49735915D01*
X19195512Y-49560751D01*
X19232500Y-49374798D01*
X19232500Y-49185202D01*
X19195512Y-48999249D01*
X19135300Y-48853886D01*
X19122957Y-48824087D01*
X19116267Y-48814075D01*
X19087686Y-48771300D01*
X19017622Y-48666441D01*
X18940849Y-48589668D01*
X18907364Y-48528345D01*
X18912348Y-48458653D01*
X18954220Y-48402720D01*
X19019684Y-48378303D01*
X19028590Y-48377987D01*
X20050833Y-48378714D01*
G37*
%TD.AperFunction*%
%TA.AperFunction,Conductor*%
G36*
X22589026Y-48380520D02*
G01*
X22656050Y-48400252D01*
X22701767Y-48453089D01*
X22711661Y-48522254D01*
X22682591Y-48585789D01*
X22676618Y-48592201D01*
X22602377Y-48666442D01*
X22497042Y-48824087D01*
X22424488Y-48999248D01*
X22424486Y-48999256D01*
X22387500Y-49185197D01*
X22387500Y-49374802D01*
X22424486Y-49560743D01*
X22424488Y-49560751D01*
X22497042Y-49735912D01*
X22602377Y-49893558D01*
X22736441Y-50027622D01*
X22830388Y-50090395D01*
X22894085Y-50132956D01*
X22894086Y-50132956D01*
X22894087Y-50132957D01*
X22920499Y-50143897D01*
X23069249Y-50205512D01*
X23255197Y-50242499D01*
X23255201Y-50242500D01*
X23255202Y-50242500D01*
X23444799Y-50242500D01*
X23444800Y-50242499D01*
X23630751Y-50205512D01*
X23805915Y-50132956D01*
X23963558Y-50027622D01*
X24097622Y-49893558D01*
X24202956Y-49735915D01*
X24275512Y-49560751D01*
X24312500Y-49374798D01*
X24312500Y-49185202D01*
X24275512Y-48999249D01*
X24215300Y-48853886D01*
X24202957Y-48824087D01*
X24196267Y-48814075D01*
X24167686Y-48771300D01*
X24097622Y-48666441D01*
X24024465Y-48593284D01*
X23990980Y-48531961D01*
X23995964Y-48462269D01*
X24037836Y-48406336D01*
X24103300Y-48381919D01*
X24112221Y-48381603D01*
X25127220Y-48382325D01*
X25194245Y-48402057D01*
X25239962Y-48454894D01*
X25249856Y-48524059D01*
X25220786Y-48587594D01*
X25214813Y-48594006D01*
X25142377Y-48666442D01*
X25037042Y-48824087D01*
X24964488Y-48999248D01*
X24964486Y-48999256D01*
X24927500Y-49185197D01*
X24927500Y-49374802D01*
X24964486Y-49560743D01*
X24964488Y-49560751D01*
X25037042Y-49735912D01*
X25142377Y-49893558D01*
X25276441Y-50027622D01*
X25370388Y-50090395D01*
X25434085Y-50132956D01*
X25434086Y-50132956D01*
X25434087Y-50132957D01*
X25460499Y-50143897D01*
X25609249Y-50205512D01*
X25795197Y-50242499D01*
X25795201Y-50242500D01*
X25795202Y-50242500D01*
X25984799Y-50242500D01*
X25984800Y-50242499D01*
X26170751Y-50205512D01*
X26345915Y-50132956D01*
X26503558Y-50027622D01*
X26637622Y-49893558D01*
X26742956Y-49735915D01*
X26815512Y-49560751D01*
X26852500Y-49374798D01*
X26852500Y-49185202D01*
X26815512Y-48999249D01*
X26755300Y-48853886D01*
X26742957Y-48824087D01*
X26736267Y-48814075D01*
X26707686Y-48771300D01*
X26637622Y-48666441D01*
X26566273Y-48595092D01*
X26532788Y-48533769D01*
X26537772Y-48464077D01*
X26579644Y-48408144D01*
X26645108Y-48383727D01*
X26654029Y-48383411D01*
X27665415Y-48384130D01*
X27732440Y-48403862D01*
X27778157Y-48456699D01*
X27788051Y-48525864D01*
X27758981Y-48589399D01*
X27753008Y-48595811D01*
X27682377Y-48666442D01*
X27577042Y-48824087D01*
X27504488Y-48999248D01*
X27504486Y-48999256D01*
X27467500Y-49185197D01*
X27467500Y-49374802D01*
X27504486Y-49560743D01*
X27504488Y-49560751D01*
X27577042Y-49735912D01*
X27682377Y-49893558D01*
X27816441Y-50027622D01*
X27910388Y-50090395D01*
X27974085Y-50132956D01*
X27974086Y-50132956D01*
X27974087Y-50132957D01*
X28000499Y-50143897D01*
X28149249Y-50205512D01*
X28335197Y-50242499D01*
X28335201Y-50242500D01*
X28335202Y-50242500D01*
X28524799Y-50242500D01*
X28524800Y-50242499D01*
X28710751Y-50205512D01*
X28885915Y-50132956D01*
X29043558Y-50027622D01*
X29177622Y-49893558D01*
X29282956Y-49735915D01*
X29355512Y-49560751D01*
X29392500Y-49374798D01*
X29392500Y-49185202D01*
X29355512Y-48999249D01*
X29295300Y-48853886D01*
X29282957Y-48824087D01*
X29276267Y-48814075D01*
X29247686Y-48771300D01*
X29177622Y-48666441D01*
X29108080Y-48596899D01*
X29074595Y-48535576D01*
X29079579Y-48465884D01*
X29121451Y-48409951D01*
X29186915Y-48385534D01*
X29195824Y-48385218D01*
X30203612Y-48385935D01*
X30270635Y-48405667D01*
X30316352Y-48458504D01*
X30326246Y-48527669D01*
X30297176Y-48591204D01*
X30291203Y-48597616D01*
X30222377Y-48666442D01*
X30117042Y-48824087D01*
X30044488Y-48999248D01*
X30044486Y-48999256D01*
X30007500Y-49185197D01*
X30007500Y-49374802D01*
X30044486Y-49560743D01*
X30044488Y-49560751D01*
X30117042Y-49735912D01*
X30222377Y-49893558D01*
X30356441Y-50027622D01*
X30450388Y-50090395D01*
X30514085Y-50132956D01*
X30514086Y-50132956D01*
X30514087Y-50132957D01*
X30540499Y-50143897D01*
X30689249Y-50205512D01*
X30875197Y-50242499D01*
X30875201Y-50242500D01*
X30875202Y-50242500D01*
X31064799Y-50242500D01*
X31064800Y-50242499D01*
X31250751Y-50205512D01*
X31425915Y-50132956D01*
X31583558Y-50027622D01*
X31717622Y-49893558D01*
X31822956Y-49735915D01*
X31895512Y-49560751D01*
X31932500Y-49374798D01*
X31932500Y-49185202D01*
X31895512Y-48999249D01*
X31835300Y-48853886D01*
X31822957Y-48824087D01*
X31816267Y-48814075D01*
X31787686Y-48771300D01*
X31717622Y-48666441D01*
X31649888Y-48598707D01*
X31616403Y-48537384D01*
X31621387Y-48467692D01*
X31663259Y-48411759D01*
X31728723Y-48387342D01*
X31737632Y-48387026D01*
X32741807Y-48387740D01*
X32808830Y-48407472D01*
X32854547Y-48460309D01*
X32864441Y-48529474D01*
X32835371Y-48593009D01*
X32829398Y-48599421D01*
X32762377Y-48666442D01*
X32657042Y-48824087D01*
X32584488Y-48999248D01*
X32584486Y-48999256D01*
X32547500Y-49185197D01*
X32547500Y-49374802D01*
X32584486Y-49560743D01*
X32584488Y-49560751D01*
X32657042Y-49735912D01*
X32762377Y-49893558D01*
X32896441Y-50027622D01*
X32990388Y-50090395D01*
X33054085Y-50132956D01*
X33054086Y-50132956D01*
X33054087Y-50132957D01*
X33080499Y-50143897D01*
X33229249Y-50205512D01*
X33415197Y-50242499D01*
X33415201Y-50242500D01*
X33415202Y-50242500D01*
X33604799Y-50242500D01*
X33604800Y-50242499D01*
X33790751Y-50205512D01*
X33965915Y-50132956D01*
X34123558Y-50027622D01*
X34257622Y-49893558D01*
X34362956Y-49735915D01*
X34435512Y-49560751D01*
X34472500Y-49374798D01*
X34472500Y-49185202D01*
X34435512Y-48999249D01*
X34375300Y-48853886D01*
X34362957Y-48824087D01*
X34356267Y-48814075D01*
X34327686Y-48771300D01*
X34257622Y-48666441D01*
X34191696Y-48600515D01*
X34158211Y-48539192D01*
X34163195Y-48469500D01*
X34205067Y-48413567D01*
X34270531Y-48389150D01*
X34279440Y-48388834D01*
X35280002Y-48389545D01*
X35347025Y-48409277D01*
X35392742Y-48462114D01*
X35402636Y-48531279D01*
X35373566Y-48594814D01*
X35367593Y-48601226D01*
X35302377Y-48666442D01*
X35197042Y-48824087D01*
X35124488Y-48999248D01*
X35124486Y-48999256D01*
X35087500Y-49185197D01*
X35087500Y-49374802D01*
X35124486Y-49560743D01*
X35124488Y-49560751D01*
X35197042Y-49735912D01*
X35302377Y-49893558D01*
X35436441Y-50027622D01*
X35530388Y-50090395D01*
X35594085Y-50132956D01*
X35594086Y-50132956D01*
X35594087Y-50132957D01*
X35620499Y-50143897D01*
X35769249Y-50205512D01*
X35955197Y-50242499D01*
X35955201Y-50242500D01*
X36068523Y-50242500D01*
X36135562Y-50262185D01*
X36181317Y-50314989D01*
X36191261Y-50384147D01*
X36162236Y-50447703D01*
X36156204Y-50454181D01*
X36022204Y-50588181D01*
X35960881Y-50621666D01*
X35934523Y-50624500D01*
X26605199Y-50624500D01*
X26503940Y-50666444D01*
X25187104Y-51983279D01*
X25125781Y-52016764D01*
X25056089Y-52011780D01*
X25051970Y-52010159D01*
X24906420Y-51949870D01*
X24906414Y-51949868D01*
X24801784Y-51929056D01*
X24739874Y-51896671D01*
X24705299Y-51835955D01*
X24709039Y-51766186D01*
X24749906Y-51709514D01*
X24767194Y-51699465D01*
X24766847Y-51698863D01*
X24773886Y-51694799D01*
X24876613Y-51635489D01*
X24960489Y-51551613D01*
X25019799Y-51448886D01*
X25050500Y-51334309D01*
X25050500Y-51215691D01*
X25019799Y-51101114D01*
X24960489Y-50998387D01*
X24876613Y-50914511D01*
X24773886Y-50855201D01*
X24659309Y-50824500D01*
X24540691Y-50824500D01*
X24435505Y-50852684D01*
X24426110Y-50855202D01*
X24386820Y-50877887D01*
X24324820Y-50894500D01*
X22515197Y-50894500D01*
X22442774Y-50924500D01*
X22413943Y-50936442D01*
X22413940Y-50936444D01*
X21826444Y-51523940D01*
X21784500Y-51625199D01*
X21784500Y-51854208D01*
X21764815Y-51921247D01*
X21712011Y-51967002D01*
X21707953Y-51968769D01*
X21562404Y-52029057D01*
X21390342Y-52144024D01*
X21244024Y-52290342D01*
X21203844Y-52350477D01*
X21142838Y-52441781D01*
X21125675Y-52467467D01*
X21124310Y-52466555D01*
X21080891Y-52510753D01*
X21012752Y-52526211D01*
X20947074Y-52502376D01*
X20904708Y-52446816D01*
X20896500Y-52402453D01*
X20896500Y-50345915D01*
X20916185Y-50278876D01*
X20968989Y-50233121D01*
X20996309Y-50224298D01*
X21046952Y-50214224D01*
X21090751Y-50205512D01*
X21265915Y-50132956D01*
X21423558Y-50027622D01*
X21557622Y-49893558D01*
X21662956Y-49735915D01*
X21735512Y-49560751D01*
X21772500Y-49374798D01*
X21772500Y-49185202D01*
X21735512Y-48999249D01*
X21675300Y-48853886D01*
X21662957Y-48824087D01*
X21656267Y-48814075D01*
X21627686Y-48771300D01*
X21557622Y-48666441D01*
X21482658Y-48591477D01*
X21449173Y-48530154D01*
X21454157Y-48460462D01*
X21496029Y-48404529D01*
X21561493Y-48380112D01*
X21570421Y-48379796D01*
X22589026Y-48380520D01*
G37*
%TD.AperFunction*%
%TA.AperFunction,Conductor*%
G36*
X36501562Y-30095185D02*
G01*
X36522204Y-30111819D01*
X37668181Y-31257796D01*
X37701666Y-31319119D01*
X37704500Y-31345477D01*
X37704500Y-32498529D01*
X37699164Y-32525359D01*
X37700883Y-32525701D01*
X37698500Y-32537681D01*
X37698500Y-33062319D01*
X37700883Y-33074301D01*
X37699162Y-33074643D01*
X37704500Y-33101472D01*
X37704500Y-48854522D01*
X37684815Y-48921561D01*
X37668181Y-48942203D01*
X37224181Y-49386203D01*
X37162858Y-49419688D01*
X37093166Y-49414704D01*
X37037233Y-49372832D01*
X37012816Y-49307368D01*
X37012500Y-49298522D01*
X37012500Y-49185201D01*
X37012499Y-49185197D01*
X37001619Y-49130500D01*
X36975512Y-48999249D01*
X36915300Y-48853886D01*
X36902957Y-48824087D01*
X36896267Y-48814075D01*
X36867686Y-48771300D01*
X36797622Y-48666441D01*
X36694075Y-48562894D01*
X36660590Y-48501571D01*
X36665574Y-48431879D01*
X36683797Y-48399186D01*
X36705055Y-48371794D01*
X36733453Y-48360057D01*
X36733458Y-48360051D01*
X36733465Y-48360049D01*
X36764053Y-48329500D01*
X36789895Y-48303695D01*
X36789897Y-48303688D01*
X36789903Y-48303683D01*
X36805736Y-48265526D01*
X36820471Y-48230025D01*
X36820471Y-48230018D01*
X36820474Y-48230011D01*
X36820500Y-48189118D01*
X36820528Y-48150261D01*
X36820527Y-48150259D01*
X36820536Y-48137673D01*
X36820533Y-48137633D01*
X36820737Y-47819500D01*
X36830470Y-32647444D01*
X36830490Y-32647256D01*
X36830497Y-32604314D01*
X36830497Y-32604252D01*
X36830529Y-32555290D01*
X36830506Y-32555180D01*
X36830507Y-32555177D01*
X36799996Y-32481479D01*
X36743604Y-32425067D01*
X36732963Y-32420657D01*
X36678568Y-32376807D01*
X36656515Y-32310509D01*
X36673807Y-32242812D01*
X36692752Y-32218427D01*
X36797622Y-32113558D01*
X36902956Y-31955915D01*
X36975512Y-31780751D01*
X37012500Y-31594798D01*
X37012500Y-31405202D01*
X36975512Y-31219249D01*
X36919392Y-31083766D01*
X36902957Y-31044087D01*
X36896267Y-31034075D01*
X36867686Y-30991300D01*
X36797622Y-30886441D01*
X36663558Y-30752377D01*
X36505912Y-30647042D01*
X36330751Y-30574488D01*
X36330743Y-30574486D01*
X36144802Y-30537500D01*
X36144798Y-30537500D01*
X35955202Y-30537500D01*
X35955197Y-30537500D01*
X35769256Y-30574486D01*
X35769248Y-30574488D01*
X35594087Y-30647042D01*
X35436441Y-30752377D01*
X35302377Y-30886441D01*
X35197042Y-31044087D01*
X35124488Y-31219248D01*
X35124486Y-31219256D01*
X35087500Y-31405197D01*
X35087500Y-31594802D01*
X35124486Y-31780743D01*
X35124488Y-31780751D01*
X35197042Y-31955912D01*
X35302377Y-32113558D01*
X35371419Y-32182600D01*
X35404904Y-32243923D01*
X35399920Y-32313615D01*
X35358048Y-32369548D01*
X35292584Y-32393965D01*
X35283716Y-32394281D01*
X34276418Y-32394102D01*
X34209382Y-32374406D01*
X34163636Y-32321593D01*
X34153705Y-32252433D01*
X34182741Y-32188883D01*
X34188745Y-32182434D01*
X34257622Y-32113558D01*
X34362956Y-31955915D01*
X34435512Y-31780751D01*
X34472500Y-31594798D01*
X34472500Y-31405202D01*
X34435512Y-31219249D01*
X34379392Y-31083766D01*
X34362957Y-31044087D01*
X34356267Y-31034075D01*
X34327686Y-30991300D01*
X34257622Y-30886441D01*
X34123558Y-30752377D01*
X33965912Y-30647042D01*
X33790751Y-30574488D01*
X33790743Y-30574486D01*
X33604802Y-30537500D01*
X33604798Y-30537500D01*
X33415202Y-30537500D01*
X33415197Y-30537500D01*
X33229256Y-30574486D01*
X33229248Y-30574488D01*
X33054087Y-30647042D01*
X32896441Y-30752377D01*
X32762377Y-30886441D01*
X32657042Y-31044087D01*
X32584488Y-31219248D01*
X32584486Y-31219256D01*
X32547500Y-31405197D01*
X32547500Y-31594802D01*
X32584486Y-31780743D01*
X32584488Y-31780751D01*
X32657042Y-31955912D01*
X32762377Y-32113558D01*
X32830966Y-32182147D01*
X32864451Y-32243470D01*
X32859467Y-32313162D01*
X32817595Y-32369095D01*
X32752131Y-32393512D01*
X32743263Y-32393828D01*
X31736871Y-32393649D01*
X31669835Y-32373953D01*
X31624089Y-32321140D01*
X31614158Y-32251980D01*
X31643194Y-32188430D01*
X31649198Y-32181981D01*
X31717622Y-32113558D01*
X31822956Y-31955915D01*
X31895512Y-31780751D01*
X31932500Y-31594798D01*
X31932500Y-31405202D01*
X31895512Y-31219249D01*
X31839392Y-31083766D01*
X31822957Y-31044087D01*
X31816267Y-31034075D01*
X31787686Y-30991300D01*
X31717622Y-30886441D01*
X31583558Y-30752377D01*
X31425912Y-30647042D01*
X31250751Y-30574488D01*
X31250743Y-30574486D01*
X31064802Y-30537500D01*
X31064798Y-30537500D01*
X30875202Y-30537500D01*
X30875197Y-30537500D01*
X30689256Y-30574486D01*
X30689248Y-30574488D01*
X30514087Y-30647042D01*
X30356441Y-30752377D01*
X30222377Y-30886441D01*
X30117042Y-31044087D01*
X30044488Y-31219248D01*
X30044486Y-31219256D01*
X30007500Y-31405197D01*
X30007500Y-31594802D01*
X30044486Y-31780743D01*
X30044488Y-31780751D01*
X30117042Y-31955912D01*
X30222377Y-32113558D01*
X30290512Y-32181693D01*
X30323997Y-32243016D01*
X30319013Y-32312708D01*
X30277141Y-32368641D01*
X30211677Y-32393058D01*
X30202809Y-32393374D01*
X29197325Y-32393195D01*
X29130289Y-32373499D01*
X29084543Y-32320686D01*
X29074612Y-32251526D01*
X29103649Y-32187976D01*
X29109652Y-32181527D01*
X29177622Y-32113558D01*
X29282956Y-31955915D01*
X29355512Y-31780751D01*
X29392500Y-31594798D01*
X29392500Y-31405202D01*
X29355512Y-31219249D01*
X29299392Y-31083766D01*
X29282957Y-31044087D01*
X29276267Y-31034075D01*
X29247686Y-30991300D01*
X29177622Y-30886441D01*
X29043558Y-30752377D01*
X28885912Y-30647042D01*
X28710751Y-30574488D01*
X28710743Y-30574486D01*
X28524802Y-30537500D01*
X28524798Y-30537500D01*
X28335202Y-30537500D01*
X28335197Y-30537500D01*
X28149256Y-30574486D01*
X28149248Y-30574488D01*
X27974087Y-30647042D01*
X27816441Y-30752377D01*
X27682377Y-30886441D01*
X27577042Y-31044087D01*
X27504488Y-31219248D01*
X27504486Y-31219256D01*
X27467500Y-31405197D01*
X27467500Y-31594802D01*
X27504486Y-31780743D01*
X27504488Y-31780751D01*
X27577042Y-31955912D01*
X27682377Y-32113558D01*
X27750059Y-32181240D01*
X27783544Y-32242563D01*
X27778560Y-32312255D01*
X27736688Y-32368188D01*
X27671224Y-32392605D01*
X27662356Y-32392921D01*
X26657779Y-32392741D01*
X26590743Y-32373044D01*
X26544997Y-32320232D01*
X26535066Y-32251072D01*
X26564103Y-32187521D01*
X26570106Y-32181073D01*
X26637622Y-32113558D01*
X26742956Y-31955915D01*
X26815512Y-31780751D01*
X26852500Y-31594798D01*
X26852500Y-31405202D01*
X26815512Y-31219249D01*
X26759392Y-31083766D01*
X26742957Y-31044087D01*
X26716409Y-31004355D01*
X26695531Y-30937677D01*
X26714016Y-30870297D01*
X26731825Y-30847788D01*
X27467796Y-30111819D01*
X27529119Y-30078334D01*
X27555477Y-30075500D01*
X36434523Y-30075500D01*
X36501562Y-30095185D01*
G37*
%TD.AperFunction*%
%TD*%
M02*
