%TF.GenerationSoftware,KiCad,Pcbnew,10.0.5*%
%TF.CreationDate,2026-07-27T20:54:21-06:00*%
%TF.ProjectId,seedsigner-luckfox-pico-mini,73656564-7369-4676-9e65-722d6c75636b,sdfsdf*%
%TF.SameCoordinates,Original*%
%TF.FileFunction,Copper,L3,Inr*%
%TF.FilePolarity,Positive*%
%FSLAX46Y46*%
G04 Gerber Fmt 4.6, Leading zero omitted, Abs format (unit mm)*
G04 Created by KiCad (PCBNEW 10.0.5) date 2026-07-27 20:54:21*
%MOMM*%
%LPD*%
G01*
G04 APERTURE LIST*
G04 Aperture macros list*
%AMFreePoly0*
4,1,33,0.221197,0.729189,0.359204,0.672024,0.483408,0.589034,0.589034,0.483408,0.672024,0.359204,0.729189,0.221197,0.758331,0.074689,0.758331,-0.074689,0.729189,-0.221197,0.672024,-0.359204,0.589034,-0.483408,0.483408,-0.589034,0.359204,-0.672024,0.221197,-0.729189,0.074689,-0.758331,-0.074689,-0.758331,-0.221197,-0.729189,-0.359204,-0.672024,-0.483408,-0.589034,-0.589034,-0.483408,
-0.672024,-0.359204,-0.729189,-0.221197,-0.758331,-0.074689,-0.758331,0.074689,-0.729189,0.221197,-0.672024,0.359204,-0.589034,0.483408,-0.483408,0.589034,-0.359204,0.672024,-0.221197,0.729189,-0.074689,0.758331,0.074689,0.758331,0.221197,0.729189,0.221197,0.729189,$1*%
G04 Aperture macros list end*
%TA.AperFunction,ComponentPad*%
%ADD10C,1.524000*%
%TD*%
%TA.AperFunction,ComponentPad*%
%ADD11FreePoly0,90.000000*%
%TD*%
%TA.AperFunction,WasherPad*%
%ADD12C,3.500000*%
%TD*%
%TA.AperFunction,ComponentPad*%
%ADD13R,1.700000X1.700000*%
%TD*%
%TA.AperFunction,ComponentPad*%
%ADD14O,1.700000X1.700000*%
%TD*%
%TA.AperFunction,ViaPad*%
%ADD15C,0.500000*%
%TD*%
%TA.AperFunction,Conductor*%
%ADD16C,0.300000*%
%TD*%
%TA.AperFunction,Conductor*%
%ADD17C,0.150000*%
%TD*%
G04 APERTURE END LIST*
D10*
%TO.N,+5V*%
%TO.C,U1*%
X10650000Y-49280000D03*
%TO.N,GND*%
X13190000Y-49280000D03*
%TO.N,+3.3V*%
X15730000Y-49280000D03*
%TO.N,/UART_TXD*%
X18270000Y-49280000D03*
%TO.N,/UART_RXD*%
X20810000Y-49280000D03*
%TO.N,Net-(JP5-B)*%
X23350000Y-49280000D03*
%TO.N,/SPI_SCLK*%
X25890000Y-49280000D03*
%TO.N,/SPI_MOSI*%
X28430000Y-49280000D03*
%TO.N,/RST*%
X30970000Y-49280000D03*
%TO.N,/DC*%
X33510000Y-49280000D03*
%TO.N,/KEY3*%
X36050000Y-49280000D03*
%TO.N,/JOYSTICK_LEFT*%
X36050000Y-31500000D03*
%TO.N,/JOYSTICK_UP*%
X33510000Y-31500000D03*
%TO.N,/I2C-SDA*%
X30970000Y-31500000D03*
%TO.N,/I2C-SCL*%
X28430000Y-31500000D03*
%TO.N,/JOYSTICK_PRESS*%
X25890000Y-31500000D03*
%TO.N,/JOYSTICK_DOWN*%
X23350000Y-31500000D03*
%TO.N,/JOYSTICK_RIGHT*%
X20810000Y-31500000D03*
%TO.N,/KEY1*%
X18270000Y-31500000D03*
%TO.N,/KEY2*%
X15730000Y-31500000D03*
%TO.N,GND*%
X13190000Y-31500000D03*
D11*
%TO.N,unconnected-(U1-1V8(OUT)-Pad22)*%
X10650000Y-31500000D03*
%TD*%
D12*
%TO.N,*%
%TO.C,U2*%
X70000000Y-55500000D03*
X70000000Y-31500000D03*
X12000000Y-55500000D03*
D13*
%TO.N,+3.3V*%
X65240000Y-52960000D03*
D14*
%TO.N,+5V*%
X65240000Y-55500000D03*
%TO.N,/I2C-SDA*%
X62700000Y-52960000D03*
%TO.N,+5V*%
X62700000Y-55500000D03*
%TO.N,/I2C-SCL*%
X60160000Y-52960000D03*
%TO.N,GND*%
X60160000Y-55500000D03*
%TO.N,N/C*%
X57620000Y-52960000D03*
%TO.N,/UART_TXD*%
X57620000Y-55500000D03*
%TO.N,GND*%
X55080000Y-52960000D03*
%TO.N,/UART_RXD*%
X55080000Y-55500000D03*
%TO.N,N/C*%
X52540000Y-52960000D03*
X52540000Y-55500000D03*
%TO.N,/RST*%
X50000000Y-52960000D03*
%TO.N,GND*%
X50000000Y-55500000D03*
%TO.N,N/C*%
X47460000Y-52960000D03*
X47460000Y-55500000D03*
%TO.N,+3.3V*%
X44920000Y-52960000D03*
%TO.N,/RPI_BACKLIGHT*%
X44920000Y-55500000D03*
%TO.N,/SPI_MOSI*%
X42380000Y-52960000D03*
%TO.N,GND*%
X42380000Y-55500000D03*
%TO.N,N/C*%
X39840000Y-52960000D03*
%TO.N,/DC*%
X39840000Y-55500000D03*
%TO.N,/SPI_SCLK*%
X37300000Y-52960000D03*
%TO.N,/RPI_SPI_CS*%
X37300000Y-55500000D03*
%TO.N,GND*%
X34760000Y-52960000D03*
%TO.N,N/C*%
X34760000Y-55500000D03*
X32220000Y-52960000D03*
X32220000Y-55500000D03*
%TO.N,/JOYSTICK_LEFT*%
X29680000Y-52960000D03*
%TO.N,GND*%
X29680000Y-55500000D03*
%TO.N,/JOYSTICK_UP*%
X27140000Y-52960000D03*
%TO.N,N/C*%
X27140000Y-55500000D03*
%TO.N,/JOYSTICK_PRESS*%
X24600000Y-52960000D03*
%TO.N,GND*%
X24600000Y-55500000D03*
%TO.N,/JOYSTICK_DOWN*%
X22060000Y-52960000D03*
%TO.N,/KEY3*%
X22060000Y-55500000D03*
%TO.N,/JOYSTICK_RIGHT*%
X19520000Y-52960000D03*
%TO.N,/KEY2*%
X19520000Y-55500000D03*
%TO.N,GND*%
X16980000Y-52960000D03*
%TO.N,/KEY1*%
X16980000Y-55500000D03*
%TD*%
D15*
%TO.N,GND*%
X58825000Y-56575000D03*
X47275000Y-44925000D03*
X15300000Y-56925000D03*
X34800000Y-31900000D03*
X37300000Y-31495000D03*
X33475000Y-56375000D03*
X52520000Y-49810000D03*
X38500000Y-49000000D03*
X62725000Y-51475000D03*
X24599978Y-48631452D03*
X31120000Y-56390000D03*
X51880000Y-51710000D03*
X43575000Y-48875000D03*
X44700000Y-50025000D03*
X37200000Y-33200000D03*
X47060000Y-37160000D03*
X38525000Y-56350000D03*
X61420000Y-54920000D03*
X36100000Y-56400000D03*
X47200000Y-50325000D03*
X53725000Y-52050000D03*
X41600000Y-34000000D03*
X16900000Y-32000000D03*
X32200000Y-48700000D03*
X29600000Y-32000000D03*
X39680000Y-48800000D03*
X51275000Y-56025000D03*
X45850000Y-31500000D03*
X42760000Y-41180000D03*
X38570000Y-33220000D03*
X19500000Y-32000000D03*
X27100000Y-48700000D03*
X64025000Y-57075000D03*
X43319000Y-53850000D03*
X23175000Y-56575000D03*
X43875000Y-31125000D03*
X43782156Y-56700001D03*
X61500000Y-56675000D03*
X23320000Y-55020000D03*
X46250000Y-29500000D03*
X45800000Y-56600000D03*
X13900000Y-52800000D03*
X27000000Y-32000000D03*
X41700000Y-48600000D03*
X36100000Y-53785000D03*
X34799972Y-48638706D03*
X41350000Y-56300000D03*
X29700000Y-48700000D03*
X19500000Y-48700000D03*
X9200000Y-49000000D03*
X22100000Y-48700000D03*
X50830083Y-54748842D03*
X59000000Y-54810000D03*
X25825000Y-56525000D03*
X39660000Y-33340000D03*
X22000000Y-32000000D03*
X42625000Y-38775000D03*
X56500000Y-43950000D03*
X24500000Y-32000000D03*
X10400000Y-52675000D03*
X15750000Y-54425000D03*
X27770000Y-56660000D03*
X48750000Y-51950000D03*
X53775000Y-53725000D03*
X56775000Y-50375000D03*
X11900000Y-29700000D03*
X56450000Y-37950000D03*
X56725000Y-48100000D03*
X13520000Y-57750000D03*
X56300000Y-54325000D03*
X43625000Y-32700000D03*
X47375000Y-40000000D03*
X32200000Y-32100000D03*
X50210000Y-50120000D03*
X49920000Y-41870000D03*
X42650000Y-44550000D03*
X30960000Y-53630000D03*
X65450000Y-29625000D03*
X18400000Y-56825000D03*
X47110000Y-38360000D03*
X56175000Y-30150000D03*
X45775000Y-51175000D03*
X66875000Y-51075000D03*
%TO.N,Net-(JP5-B)*%
X54375000Y-36400000D03*
%TO.N,/I2C-SDA*%
X40940000Y-32840000D03*
%TO.N,/JOYSTICK_DOWN*%
X24600000Y-51275000D03*
%TO.N,/I2C-SCL*%
X42160000Y-33500000D03*
%TO.N,/RPI_SPI_CS*%
X48350000Y-48680000D03*
X54210000Y-48270000D03*
%TD*%
%TO.N,GND*%
D16*
X33520000Y-54200000D02*
X34760000Y-52960000D01*
D17*
X25701000Y-54399000D02*
X24600000Y-55500000D01*
X29680000Y-55500000D02*
X28579000Y-54399000D01*
D16*
X30980000Y-54200000D02*
X33520000Y-54200000D01*
D17*
X28579000Y-54399000D02*
X25701000Y-54399000D01*
D16*
X29680000Y-55500000D02*
X30980000Y-54200000D01*
%TO.N,/KEY2*%
D17*
X45450000Y-57899000D02*
X46359000Y-56990000D01*
X18130000Y-28900000D02*
X15630000Y-31400000D01*
X46359000Y-56990000D02*
X46359000Y-31284000D01*
X43975000Y-28900000D02*
X18130000Y-28900000D01*
X46359000Y-31284000D02*
X43975000Y-28900000D01*
X19520000Y-55500000D02*
X21919000Y-57899000D01*
X21919000Y-57899000D02*
X45450000Y-57899000D01*
%TO.N,/JOYSTICK_DOWN*%
X24600000Y-51275000D02*
X24950000Y-50925000D01*
X40500000Y-50925000D02*
X43275000Y-48150000D01*
X23250000Y-30841479D02*
X23250000Y-31400000D01*
X40300000Y-30300000D02*
X23791479Y-30300000D01*
X24950000Y-50925000D02*
X40500000Y-50925000D01*
X43275000Y-48150000D02*
X43275000Y-33275000D01*
X23791479Y-30300000D02*
X23250000Y-30841479D01*
X43275000Y-33275000D02*
X40300000Y-30300000D01*
%TO.N,/KEY3*%
X20595000Y-54035000D02*
X19074720Y-54035000D01*
X19074720Y-54035000D02*
X18445000Y-53405280D01*
X18445000Y-52514720D02*
X20659720Y-50300000D01*
X22060000Y-55500000D02*
X20595000Y-54035000D01*
X20659720Y-50300000D02*
X34830000Y-50300000D01*
X34830000Y-50300000D02*
X35950000Y-49180000D01*
X18445000Y-53405280D02*
X18445000Y-52514720D01*
%TO.N,/KEY1*%
X45400000Y-31775000D02*
X42925000Y-29300000D01*
X42925000Y-29300000D02*
X20270000Y-29300000D01*
X20621000Y-55956050D02*
X22114950Y-57450000D01*
X16980000Y-55500000D02*
X18081000Y-54399000D01*
X43819000Y-52406000D02*
X45400000Y-50825000D01*
X18081000Y-54399000D02*
X19976050Y-54399000D01*
X19976050Y-54399000D02*
X20621000Y-55043950D01*
X45400000Y-50825000D02*
X45400000Y-31775000D01*
X42325050Y-57450000D02*
X43765831Y-56009219D01*
X22114950Y-57450000D02*
X42325050Y-57450000D01*
X43819000Y-55956050D02*
X43819000Y-52406000D01*
X20270000Y-29300000D02*
X18170000Y-31400000D01*
X20621000Y-55043950D02*
X20621000Y-55956050D01*
%TO.N,/JOYSTICK_RIGHT*%
X44325000Y-32600000D02*
X41525000Y-29800000D01*
X44325000Y-49125000D02*
X44325000Y-32600000D01*
X20802370Y-29800000D02*
X20710000Y-29892370D01*
X41525000Y-29800000D02*
X20802370Y-29800000D01*
X20710000Y-29892370D02*
X20710000Y-31400000D01*
X41700000Y-51750000D02*
X44325000Y-49125000D01*
X19520000Y-52960000D02*
X20730000Y-51750000D01*
X20730000Y-51750000D02*
X41700000Y-51750000D01*
%TD*%
%TA.AperFunction,Conductor*%
%TO.N,GND*%
G36*
X9898052Y-48371494D02*
G01*
X9965076Y-48391226D01*
X10010793Y-48444063D01*
X10020687Y-48513228D01*
X9991617Y-48576763D01*
X9985644Y-48583175D01*
X9902377Y-48666442D01*
X9797042Y-48824087D01*
X9724488Y-48999248D01*
X9724486Y-48999256D01*
X9687500Y-49185197D01*
X9687500Y-49374802D01*
X9724486Y-49560743D01*
X9724488Y-49560751D01*
X9797042Y-49735912D01*
X9902377Y-49893558D01*
X10036441Y-50027622D01*
X10069741Y-50049872D01*
X10194085Y-50132956D01*
X10369249Y-50205512D01*
X10555197Y-50242499D01*
X10555201Y-50242500D01*
X10555202Y-50242500D01*
X10744799Y-50242500D01*
X10744800Y-50242499D01*
X10930751Y-50205512D01*
X11105915Y-50132956D01*
X11263558Y-50027622D01*
X11397622Y-49893558D01*
X11502956Y-49735915D01*
X11575512Y-49560751D01*
X11612500Y-49374798D01*
X11612500Y-49185202D01*
X11575512Y-48999249D01*
X11502956Y-48824085D01*
X11467686Y-48771300D01*
X11397622Y-48666441D01*
X11315426Y-48584245D01*
X11281941Y-48522922D01*
X11286925Y-48453230D01*
X11328797Y-48397297D01*
X11394261Y-48372880D01*
X11403181Y-48372564D01*
X12045769Y-48373021D01*
X12112790Y-48392752D01*
X12158508Y-48445589D01*
X12168402Y-48514754D01*
X12145996Y-48569904D01*
X12110642Y-48618565D01*
X12020457Y-48795562D01*
X11959075Y-48984476D01*
X11959075Y-48984479D01*
X11928000Y-49180678D01*
X11928000Y-49379321D01*
X11959075Y-49575520D01*
X11959075Y-49575523D01*
X12020457Y-49764437D01*
X12110641Y-49941432D01*
X12137730Y-49978715D01*
X12707037Y-49409408D01*
X12724075Y-49472993D01*
X12789901Y-49587007D01*
X12882993Y-49680099D01*
X12997007Y-49745925D01*
X13060590Y-49762962D01*
X12491283Y-50332268D01*
X12491283Y-50332269D01*
X12528567Y-50359358D01*
X12705562Y-50449542D01*
X12894477Y-50510924D01*
X13090679Y-50542000D01*
X13289321Y-50542000D01*
X13485520Y-50510924D01*
X13485523Y-50510924D01*
X13674437Y-50449542D01*
X13851425Y-50359362D01*
X13888716Y-50332268D01*
X13319410Y-49762962D01*
X13382993Y-49745925D01*
X13497007Y-49680099D01*
X13590099Y-49587007D01*
X13655925Y-49472993D01*
X13672962Y-49409409D01*
X14242268Y-49978715D01*
X14269362Y-49941425D01*
X14359542Y-49764437D01*
X14420924Y-49575523D01*
X14420924Y-49575520D01*
X14452000Y-49379321D01*
X14452000Y-49180678D01*
X14420924Y-48984479D01*
X14420924Y-48984476D01*
X14359542Y-48795562D01*
X14269358Y-48618567D01*
X14235187Y-48571535D01*
X14211707Y-48505729D01*
X14227532Y-48437675D01*
X14277638Y-48388980D01*
X14335589Y-48374649D01*
X14974440Y-48375104D01*
X15041466Y-48394836D01*
X15087183Y-48447673D01*
X15097077Y-48516838D01*
X15068007Y-48580373D01*
X15062034Y-48586785D01*
X14982377Y-48666442D01*
X14877042Y-48824087D01*
X14804488Y-48999248D01*
X14804486Y-48999256D01*
X14767500Y-49185197D01*
X14767500Y-49374802D01*
X14804486Y-49560743D01*
X14804488Y-49560751D01*
X14877042Y-49735912D01*
X14982377Y-49893558D01*
X15116441Y-50027622D01*
X15149741Y-50049872D01*
X15274085Y-50132956D01*
X15449249Y-50205512D01*
X15635197Y-50242499D01*
X15635201Y-50242500D01*
X15635202Y-50242500D01*
X15824799Y-50242500D01*
X15824800Y-50242499D01*
X16010751Y-50205512D01*
X16185915Y-50132956D01*
X16343558Y-50027622D01*
X16477622Y-49893558D01*
X16582956Y-49735915D01*
X16655512Y-49560751D01*
X16692500Y-49374798D01*
X16692500Y-49185202D01*
X16655512Y-48999249D01*
X16582956Y-48824085D01*
X16547686Y-48771300D01*
X16477622Y-48666441D01*
X16399041Y-48587860D01*
X16365556Y-48526537D01*
X16370540Y-48456845D01*
X16412412Y-48400912D01*
X16477876Y-48376495D01*
X16486782Y-48376179D01*
X17512638Y-48376909D01*
X17579661Y-48396641D01*
X17625378Y-48449478D01*
X17635272Y-48518643D01*
X17606202Y-48582178D01*
X17600229Y-48588590D01*
X17522377Y-48666442D01*
X17417042Y-48824087D01*
X17344488Y-48999248D01*
X17344486Y-48999256D01*
X17307500Y-49185197D01*
X17307500Y-49374802D01*
X17344486Y-49560743D01*
X17344488Y-49560751D01*
X17417042Y-49735912D01*
X17522377Y-49893558D01*
X17656441Y-50027622D01*
X17689741Y-50049872D01*
X17814085Y-50132956D01*
X17989249Y-50205512D01*
X18175197Y-50242499D01*
X18175201Y-50242500D01*
X18175202Y-50242500D01*
X18364799Y-50242500D01*
X18364800Y-50242499D01*
X18550751Y-50205512D01*
X18725915Y-50132956D01*
X18883558Y-50027622D01*
X19017622Y-49893558D01*
X19122956Y-49735915D01*
X19195512Y-49560751D01*
X19232500Y-49374798D01*
X19232500Y-49185202D01*
X19195512Y-48999249D01*
X19122956Y-48824085D01*
X19087686Y-48771300D01*
X19017622Y-48666441D01*
X18940849Y-48589668D01*
X18907364Y-48528345D01*
X18912348Y-48458653D01*
X18954220Y-48402720D01*
X19019684Y-48378303D01*
X19028590Y-48377987D01*
X20050833Y-48378714D01*
X20117856Y-48398446D01*
X20163573Y-48451283D01*
X20173467Y-48520448D01*
X20144397Y-48583983D01*
X20138424Y-48590395D01*
X20062377Y-48666442D01*
X19957042Y-48824087D01*
X19884488Y-48999248D01*
X19884486Y-48999256D01*
X19847500Y-49185197D01*
X19847500Y-49374802D01*
X19884486Y-49560743D01*
X19884488Y-49560751D01*
X19957042Y-49735912D01*
X20062377Y-49893558D01*
X20196438Y-50027619D01*
X20196442Y-50027622D01*
X20278247Y-50082283D01*
X20323052Y-50135895D01*
X20331759Y-50205220D01*
X20301604Y-50268248D01*
X20297037Y-50273066D01*
X18314307Y-52255797D01*
X18252984Y-52289282D01*
X18183292Y-52284298D01*
X18127359Y-52242426D01*
X18126308Y-52241001D01*
X18009727Y-52080539D01*
X17859464Y-51930276D01*
X17859459Y-51930272D01*
X17687557Y-51805379D01*
X17498215Y-51708903D01*
X17296124Y-51643241D01*
X17230000Y-51632768D01*
X17230000Y-52526988D01*
X17172993Y-52494075D01*
X17045826Y-52460000D01*
X16914174Y-52460000D01*
X16787007Y-52494075D01*
X16730000Y-52526988D01*
X16730000Y-51632768D01*
X16729999Y-51632768D01*
X16663875Y-51643241D01*
X16461784Y-51708903D01*
X16272442Y-51805379D01*
X16100540Y-51930272D01*
X16100535Y-51930276D01*
X15950276Y-52080535D01*
X15950272Y-52080540D01*
X15825379Y-52252442D01*
X15728904Y-52441782D01*
X15663242Y-52643870D01*
X15663242Y-52643873D01*
X15652769Y-52710000D01*
X16546988Y-52710000D01*
X16514075Y-52767007D01*
X16480000Y-52894174D01*
X16480000Y-53025826D01*
X16514075Y-53152993D01*
X16546988Y-53210000D01*
X15652769Y-53210000D01*
X15663242Y-53276126D01*
X15663242Y-53276129D01*
X15728904Y-53478217D01*
X15825379Y-53667557D01*
X15950272Y-53839459D01*
X15950276Y-53839464D01*
X16100535Y-53989723D01*
X16100540Y-53989727D01*
X16272442Y-54114620D01*
X16461782Y-54211095D01*
X16637973Y-54268343D01*
X16695648Y-54307780D01*
X16722847Y-54372139D01*
X16710932Y-54440985D01*
X16663688Y-54492461D01*
X16647108Y-54500835D01*
X16482403Y-54569057D01*
X16310342Y-54684024D01*
X16164024Y-54830342D01*
X16049058Y-55002403D01*
X15969870Y-55193579D01*
X15969868Y-55193587D01*
X15929500Y-55396530D01*
X15929500Y-55603469D01*
X15969868Y-55806412D01*
X15969870Y-55806420D01*
X16035939Y-55965925D01*
X16049059Y-55997598D01*
X16062836Y-56018217D01*
X16164024Y-56169657D01*
X16310342Y-56315975D01*
X16310345Y-56315977D01*
X16482402Y-56430941D01*
X16673580Y-56510130D01*
X16828323Y-56540910D01*
X16876530Y-56550499D01*
X16876534Y-56550500D01*
X16876535Y-56550500D01*
X17083466Y-56550500D01*
X17083467Y-56550499D01*
X17286420Y-56510130D01*
X17477598Y-56430941D01*
X17649655Y-56315977D01*
X17795977Y-56169655D01*
X17910941Y-55997598D01*
X17990130Y-55806420D01*
X18030500Y-55603465D01*
X18030500Y-55396535D01*
X17990130Y-55193580D01*
X17929839Y-55048027D01*
X17922371Y-54978559D01*
X17953646Y-54916079D01*
X17956659Y-54912955D01*
X18158798Y-54710816D01*
X18220121Y-54677334D01*
X18246478Y-54674500D01*
X18576168Y-54674500D01*
X18643207Y-54694185D01*
X18688962Y-54746989D01*
X18698906Y-54816147D01*
X18679270Y-54867390D01*
X18589059Y-55002400D01*
X18509870Y-55193579D01*
X18509868Y-55193587D01*
X18469500Y-55396530D01*
X18469500Y-55603469D01*
X18509868Y-55806412D01*
X18509870Y-55806420D01*
X18575939Y-55965925D01*
X18589059Y-55997598D01*
X18602836Y-56018217D01*
X18704024Y-56169657D01*
X18850342Y-56315975D01*
X18850345Y-56315977D01*
X19022402Y-56430941D01*
X19213580Y-56510130D01*
X19368323Y-56540910D01*
X19416530Y-56550499D01*
X19416534Y-56550500D01*
X19416535Y-56550500D01*
X19623466Y-56550500D01*
X19623467Y-56550499D01*
X19826420Y-56510130D01*
X19971972Y-56449839D01*
X20041439Y-56442371D01*
X20103918Y-56473646D01*
X20107104Y-56476720D01*
X21718203Y-58087819D01*
X21751688Y-58149142D01*
X21746704Y-58218834D01*
X21704832Y-58274767D01*
X21639368Y-58299184D01*
X21630522Y-58299500D01*
X11503481Y-58299500D01*
X11496528Y-58299305D01*
X11193508Y-58282287D01*
X11179690Y-58280730D01*
X10883918Y-58230476D01*
X10870361Y-58227382D01*
X10582074Y-58144328D01*
X10568949Y-58139735D01*
X10291777Y-58024927D01*
X10279249Y-58018894D01*
X10238676Y-57996470D01*
X10016660Y-57873766D01*
X10004895Y-57866373D01*
X9760222Y-57692768D01*
X9749354Y-57684102D01*
X9681540Y-57623500D01*
X9525645Y-57484183D01*
X9515814Y-57474352D01*
X9459931Y-57411819D01*
X9315892Y-57250639D01*
X9307233Y-57239779D01*
X9133623Y-56995099D01*
X9126236Y-56983344D01*
X8981101Y-56720743D01*
X8975075Y-56708229D01*
X8860263Y-56431049D01*
X8855671Y-56417925D01*
X8844591Y-56379464D01*
X8772614Y-56129627D01*
X8769523Y-56116081D01*
X8766805Y-56100084D01*
X8719268Y-55820301D01*
X8717713Y-55806500D01*
X8700695Y-55503472D01*
X8700500Y-55496519D01*
X8700500Y-55372149D01*
X10049500Y-55372149D01*
X10049500Y-55627850D01*
X10074839Y-55820309D01*
X10082874Y-55881340D01*
X10147612Y-56122947D01*
X10149050Y-56128312D01*
X10149053Y-56128322D01*
X10246894Y-56364531D01*
X10246899Y-56364542D01*
X10374734Y-56585957D01*
X10374745Y-56585973D01*
X10530388Y-56788811D01*
X10530394Y-56788818D01*
X10711181Y-56969605D01*
X10711188Y-56969611D01*
X10737009Y-56989424D01*
X10914035Y-57125261D01*
X10914042Y-57125265D01*
X11135457Y-57253100D01*
X11135462Y-57253102D01*
X11135465Y-57253104D01*
X11371687Y-57350950D01*
X11618660Y-57417126D01*
X11872157Y-57450500D01*
X11872164Y-57450500D01*
X12127836Y-57450500D01*
X12127843Y-57450500D01*
X12381340Y-57417126D01*
X12628313Y-57350950D01*
X12864535Y-57253104D01*
X13085965Y-57125261D01*
X13288813Y-56969610D01*
X13469610Y-56788813D01*
X13625261Y-56585965D01*
X13753104Y-56364535D01*
X13850950Y-56128313D01*
X13917126Y-55881340D01*
X13950500Y-55627843D01*
X13950500Y-55372157D01*
X13917126Y-55118660D01*
X13850950Y-54871687D01*
X13753104Y-54635465D01*
X13753102Y-54635462D01*
X13753100Y-54635457D01*
X13625265Y-54414042D01*
X13625261Y-54414035D01*
X13518875Y-54275390D01*
X13469611Y-54211188D01*
X13469605Y-54211181D01*
X13288818Y-54030394D01*
X13288811Y-54030388D01*
X13085973Y-53874745D01*
X13085971Y-53874743D01*
X13085965Y-53874739D01*
X13085960Y-53874736D01*
X13085957Y-53874734D01*
X12864542Y-53746899D01*
X12864531Y-53746894D01*
X12628322Y-53649053D01*
X12628315Y-53649051D01*
X12628313Y-53649050D01*
X12381340Y-53582874D01*
X12325007Y-53575457D01*
X12127850Y-53549500D01*
X12127843Y-53549500D01*
X11872157Y-53549500D01*
X11872149Y-53549500D01*
X11646826Y-53579165D01*
X11618660Y-53582874D01*
X11371687Y-53649050D01*
X11371677Y-53649053D01*
X11135468Y-53746894D01*
X11135457Y-53746899D01*
X10914042Y-53874734D01*
X10914026Y-53874745D01*
X10711188Y-54030388D01*
X10711181Y-54030394D01*
X10530394Y-54211181D01*
X10530388Y-54211188D01*
X10374745Y-54414026D01*
X10374734Y-54414042D01*
X10246899Y-54635457D01*
X10246894Y-54635468D01*
X10149053Y-54871677D01*
X10149050Y-54871687D01*
X10087901Y-55099901D01*
X10082874Y-55118661D01*
X10049500Y-55372149D01*
X8700500Y-55372149D01*
X8700500Y-48494731D01*
X8720185Y-48427692D01*
X8772989Y-48381937D01*
X8824586Y-48370731D01*
X9898052Y-48371494D01*
G37*
%TD.AperFunction*%
%TA.AperFunction,Conductor*%
G36*
X70503472Y-28700695D02*
G01*
X70806500Y-28717713D01*
X70820301Y-28719268D01*
X71116088Y-28769524D01*
X71129627Y-28772614D01*
X71417930Y-28855673D01*
X71431049Y-28860263D01*
X71708229Y-28975075D01*
X71720743Y-28981101D01*
X71983344Y-29126236D01*
X71995099Y-29133623D01*
X72239779Y-29307233D01*
X72250639Y-29315892D01*
X72474352Y-29515814D01*
X72484183Y-29525645D01*
X72681903Y-29746894D01*
X72684102Y-29749354D01*
X72692768Y-29760222D01*
X72774022Y-29874739D01*
X72866370Y-30004890D01*
X72873766Y-30016660D01*
X72989386Y-30225858D01*
X73018894Y-30279249D01*
X73024927Y-30291777D01*
X73139735Y-30568949D01*
X73144328Y-30582074D01*
X73227382Y-30870361D01*
X73230476Y-30883918D01*
X73280730Y-31179690D01*
X73282287Y-31193508D01*
X73299305Y-31496527D01*
X73299500Y-31503480D01*
X73299500Y-55496519D01*
X73299305Y-55503472D01*
X73282287Y-55806491D01*
X73280730Y-55820309D01*
X73230476Y-56116081D01*
X73227382Y-56129638D01*
X73144328Y-56417925D01*
X73139735Y-56431050D01*
X73024927Y-56708222D01*
X73018894Y-56720750D01*
X72873769Y-56983335D01*
X72866370Y-56995109D01*
X72692771Y-57239773D01*
X72684102Y-57250645D01*
X72484185Y-57474352D01*
X72474352Y-57484185D01*
X72250645Y-57684102D01*
X72239773Y-57692771D01*
X71995109Y-57866370D01*
X71983335Y-57873769D01*
X71720750Y-58018894D01*
X71708222Y-58024927D01*
X71431050Y-58139735D01*
X71417925Y-58144328D01*
X71129638Y-58227382D01*
X71116081Y-58230476D01*
X70820309Y-58280730D01*
X70806491Y-58282287D01*
X70503472Y-58299305D01*
X70496519Y-58299500D01*
X45738477Y-58299500D01*
X45671438Y-58279815D01*
X45625683Y-58227011D01*
X45615739Y-58157853D01*
X45644764Y-58094297D01*
X45650782Y-58087832D01*
X45683557Y-58055058D01*
X45683556Y-58055058D01*
X46592557Y-57146059D01*
X46604841Y-57116400D01*
X46634500Y-57044800D01*
X46634500Y-56443832D01*
X46654185Y-56376793D01*
X46706989Y-56331038D01*
X46776147Y-56321094D01*
X46827390Y-56340730D01*
X46962400Y-56430940D01*
X46962401Y-56430940D01*
X46962402Y-56430941D01*
X47153580Y-56510130D01*
X47308323Y-56540910D01*
X47356530Y-56550499D01*
X47356534Y-56550500D01*
X47356535Y-56550500D01*
X47563466Y-56550500D01*
X47563467Y-56550499D01*
X47766420Y-56510130D01*
X47957598Y-56430941D01*
X48129655Y-56315977D01*
X48275977Y-56169655D01*
X48390941Y-55997598D01*
X48459165Y-55832889D01*
X48503004Y-55778488D01*
X48569298Y-55756423D01*
X48636998Y-55773702D01*
X48684609Y-55824839D01*
X48691656Y-55842026D01*
X48748904Y-56018216D01*
X48845379Y-56207557D01*
X48970272Y-56379459D01*
X48970276Y-56379464D01*
X49120535Y-56529723D01*
X49120540Y-56529727D01*
X49292442Y-56654620D01*
X49481782Y-56751095D01*
X49683871Y-56816757D01*
X49750000Y-56827231D01*
X49750000Y-55933012D01*
X49807007Y-55965925D01*
X49934174Y-56000000D01*
X50065826Y-56000000D01*
X50192993Y-55965925D01*
X50250000Y-55933012D01*
X50250000Y-56827230D01*
X50316126Y-56816757D01*
X50316129Y-56816757D01*
X50518217Y-56751095D01*
X50707557Y-56654620D01*
X50879459Y-56529727D01*
X50879464Y-56529723D01*
X51029723Y-56379464D01*
X51029727Y-56379459D01*
X51154620Y-56207557D01*
X51251095Y-56018217D01*
X51308343Y-55842026D01*
X51347780Y-55784351D01*
X51412139Y-55757152D01*
X51480985Y-55769066D01*
X51532461Y-55816310D01*
X51540833Y-55832887D01*
X51544581Y-55841935D01*
X51595939Y-55965925D01*
X51609059Y-55997598D01*
X51622836Y-56018217D01*
X51724024Y-56169657D01*
X51870342Y-56315975D01*
X51870345Y-56315977D01*
X52042402Y-56430941D01*
X52233580Y-56510130D01*
X52388323Y-56540910D01*
X52436530Y-56550499D01*
X52436534Y-56550500D01*
X52436535Y-56550500D01*
X52643466Y-56550500D01*
X52643467Y-56550499D01*
X52846420Y-56510130D01*
X53037598Y-56430941D01*
X53209655Y-56315977D01*
X53355977Y-56169655D01*
X53470941Y-55997598D01*
X53550130Y-55806420D01*
X53590500Y-55603465D01*
X53590500Y-55396535D01*
X53550130Y-55193580D01*
X53470941Y-55002402D01*
X53355977Y-54830345D01*
X53355975Y-54830342D01*
X53209657Y-54684024D01*
X53114638Y-54620535D01*
X53037598Y-54569059D01*
X53037593Y-54569057D01*
X52846420Y-54489870D01*
X52846412Y-54489868D01*
X52643469Y-54449500D01*
X52643465Y-54449500D01*
X52436535Y-54449500D01*
X52436530Y-54449500D01*
X52233587Y-54489868D01*
X52233579Y-54489870D01*
X52042403Y-54569058D01*
X51870342Y-54684024D01*
X51724024Y-54830342D01*
X51609057Y-55002403D01*
X51540835Y-55167108D01*
X51496994Y-55221511D01*
X51430700Y-55243576D01*
X51363000Y-55226297D01*
X51315390Y-55175159D01*
X51308343Y-55157973D01*
X51251095Y-54981782D01*
X51154620Y-54792442D01*
X51029727Y-54620540D01*
X51029723Y-54620535D01*
X50879464Y-54470276D01*
X50879459Y-54470272D01*
X50707557Y-54345379D01*
X50518216Y-54248904D01*
X50342026Y-54191656D01*
X50284350Y-54152218D01*
X50257152Y-54087860D01*
X50269067Y-54019013D01*
X50316311Y-53967538D01*
X50332882Y-53959168D01*
X50497598Y-53890941D01*
X50669655Y-53775977D01*
X50815977Y-53629655D01*
X50930941Y-53457598D01*
X51010130Y-53266420D01*
X51050500Y-53063465D01*
X51050500Y-52856535D01*
X51050499Y-52856530D01*
X51489500Y-52856530D01*
X51489500Y-53063469D01*
X51529868Y-53266412D01*
X51529870Y-53266420D01*
X51595939Y-53425925D01*
X51609059Y-53457598D01*
X51622836Y-53478217D01*
X51724024Y-53629657D01*
X51870342Y-53775975D01*
X51870345Y-53775977D01*
X52042402Y-53890941D01*
X52233580Y-53970130D01*
X52378052Y-53998867D01*
X52436530Y-54010499D01*
X52436534Y-54010500D01*
X52436535Y-54010500D01*
X52643466Y-54010500D01*
X52643467Y-54010499D01*
X52846420Y-53970130D01*
X53037598Y-53890941D01*
X53209655Y-53775977D01*
X53355977Y-53629655D01*
X53470941Y-53457598D01*
X53539165Y-53292889D01*
X53583004Y-53238488D01*
X53649298Y-53216423D01*
X53716998Y-53233702D01*
X53764609Y-53284839D01*
X53771656Y-53302026D01*
X53828904Y-53478216D01*
X53925379Y-53667557D01*
X54050272Y-53839459D01*
X54050276Y-53839464D01*
X54200535Y-53989723D01*
X54200540Y-53989727D01*
X54372442Y-54114620D01*
X54561782Y-54211095D01*
X54737973Y-54268343D01*
X54795648Y-54307780D01*
X54822847Y-54372139D01*
X54810932Y-54440985D01*
X54763688Y-54492461D01*
X54747108Y-54500835D01*
X54582403Y-54569057D01*
X54410342Y-54684024D01*
X54264024Y-54830342D01*
X54149058Y-55002403D01*
X54069870Y-55193579D01*
X54069868Y-55193587D01*
X54029500Y-55396530D01*
X54029500Y-55603469D01*
X54069868Y-55806412D01*
X54069870Y-55806420D01*
X54135939Y-55965925D01*
X54149059Y-55997598D01*
X54162836Y-56018217D01*
X54264024Y-56169657D01*
X54410342Y-56315975D01*
X54410345Y-56315977D01*
X54582402Y-56430941D01*
X54773580Y-56510130D01*
X54928323Y-56540910D01*
X54976530Y-56550499D01*
X54976534Y-56550500D01*
X54976535Y-56550500D01*
X55183466Y-56550500D01*
X55183467Y-56550499D01*
X55386420Y-56510130D01*
X55577598Y-56430941D01*
X55749655Y-56315977D01*
X55895977Y-56169655D01*
X56010941Y-55997598D01*
X56090130Y-55806420D01*
X56130500Y-55603465D01*
X56130500Y-55396535D01*
X56130499Y-55396530D01*
X56569500Y-55396530D01*
X56569500Y-55603469D01*
X56609868Y-55806412D01*
X56609870Y-55806420D01*
X56675939Y-55965925D01*
X56689059Y-55997598D01*
X56702836Y-56018217D01*
X56804024Y-56169657D01*
X56950342Y-56315975D01*
X56950345Y-56315977D01*
X57122402Y-56430941D01*
X57313580Y-56510130D01*
X57468323Y-56540910D01*
X57516530Y-56550499D01*
X57516534Y-56550500D01*
X57516535Y-56550500D01*
X57723466Y-56550500D01*
X57723467Y-56550499D01*
X57926420Y-56510130D01*
X58117598Y-56430941D01*
X58289655Y-56315977D01*
X58435977Y-56169655D01*
X58550941Y-55997598D01*
X58619165Y-55832889D01*
X58663004Y-55778488D01*
X58729298Y-55756423D01*
X58796998Y-55773702D01*
X58844609Y-55824839D01*
X58851656Y-55842026D01*
X58908904Y-56018216D01*
X59005379Y-56207557D01*
X59130272Y-56379459D01*
X59130276Y-56379464D01*
X59280535Y-56529723D01*
X59280540Y-56529727D01*
X59452442Y-56654620D01*
X59641782Y-56751095D01*
X59843871Y-56816757D01*
X59910000Y-56827231D01*
X59910000Y-55933012D01*
X59967007Y-55965925D01*
X60094174Y-56000000D01*
X60225826Y-56000000D01*
X60352993Y-55965925D01*
X60410000Y-55933012D01*
X60410000Y-56827230D01*
X60476126Y-56816757D01*
X60476129Y-56816757D01*
X60678217Y-56751095D01*
X60867557Y-56654620D01*
X61039459Y-56529727D01*
X61039464Y-56529723D01*
X61189723Y-56379464D01*
X61189727Y-56379459D01*
X61314620Y-56207557D01*
X61411095Y-56018217D01*
X61468343Y-55842026D01*
X61507780Y-55784351D01*
X61572139Y-55757152D01*
X61640985Y-55769066D01*
X61692461Y-55816310D01*
X61700833Y-55832887D01*
X61704581Y-55841935D01*
X61755939Y-55965925D01*
X61769059Y-55997598D01*
X61782836Y-56018217D01*
X61884024Y-56169657D01*
X62030342Y-56315975D01*
X62030345Y-56315977D01*
X62202402Y-56430941D01*
X62393580Y-56510130D01*
X62548323Y-56540910D01*
X62596530Y-56550499D01*
X62596534Y-56550500D01*
X62596535Y-56550500D01*
X62803466Y-56550500D01*
X62803467Y-56550499D01*
X63006420Y-56510130D01*
X63197598Y-56430941D01*
X63369655Y-56315977D01*
X63515977Y-56169655D01*
X63630941Y-55997598D01*
X63710130Y-55806420D01*
X63750500Y-55603465D01*
X63750500Y-55396535D01*
X63750499Y-55396530D01*
X64189500Y-55396530D01*
X64189500Y-55603469D01*
X64229868Y-55806412D01*
X64229870Y-55806420D01*
X64295939Y-55965925D01*
X64309059Y-55997598D01*
X64322836Y-56018217D01*
X64424024Y-56169657D01*
X64570342Y-56315975D01*
X64570345Y-56315977D01*
X64742402Y-56430941D01*
X64933580Y-56510130D01*
X65088323Y-56540910D01*
X65136530Y-56550499D01*
X65136534Y-56550500D01*
X65136535Y-56550500D01*
X65343466Y-56550500D01*
X65343467Y-56550499D01*
X65546420Y-56510130D01*
X65737598Y-56430941D01*
X65909655Y-56315977D01*
X66055977Y-56169655D01*
X66170941Y-55997598D01*
X66250130Y-55806420D01*
X66290500Y-55603465D01*
X66290500Y-55396535D01*
X66285649Y-55372149D01*
X68049500Y-55372149D01*
X68049500Y-55627850D01*
X68074839Y-55820309D01*
X68082874Y-55881340D01*
X68147612Y-56122947D01*
X68149050Y-56128312D01*
X68149053Y-56128322D01*
X68246894Y-56364531D01*
X68246899Y-56364542D01*
X68374734Y-56585957D01*
X68374745Y-56585973D01*
X68530388Y-56788811D01*
X68530394Y-56788818D01*
X68711181Y-56969605D01*
X68711188Y-56969611D01*
X68737009Y-56989424D01*
X68914035Y-57125261D01*
X68914042Y-57125265D01*
X69135457Y-57253100D01*
X69135462Y-57253102D01*
X69135465Y-57253104D01*
X69371687Y-57350950D01*
X69618660Y-57417126D01*
X69872157Y-57450500D01*
X69872164Y-57450500D01*
X70127836Y-57450500D01*
X70127843Y-57450500D01*
X70381340Y-57417126D01*
X70628313Y-57350950D01*
X70864535Y-57253104D01*
X71085965Y-57125261D01*
X71288813Y-56969610D01*
X71469610Y-56788813D01*
X71625261Y-56585965D01*
X71753104Y-56364535D01*
X71850950Y-56128313D01*
X71917126Y-55881340D01*
X71950500Y-55627843D01*
X71950500Y-55372157D01*
X71917126Y-55118660D01*
X71850950Y-54871687D01*
X71753104Y-54635465D01*
X71753102Y-54635462D01*
X71753100Y-54635457D01*
X71625265Y-54414042D01*
X71625261Y-54414035D01*
X71518875Y-54275390D01*
X71469611Y-54211188D01*
X71469605Y-54211181D01*
X71288818Y-54030394D01*
X71288811Y-54030388D01*
X71085973Y-53874745D01*
X71085971Y-53874743D01*
X71085965Y-53874739D01*
X71085960Y-53874736D01*
X71085957Y-53874734D01*
X70864542Y-53746899D01*
X70864531Y-53746894D01*
X70628322Y-53649053D01*
X70628315Y-53649051D01*
X70628313Y-53649050D01*
X70381340Y-53582874D01*
X70325007Y-53575457D01*
X70127850Y-53549500D01*
X70127843Y-53549500D01*
X69872157Y-53549500D01*
X69872149Y-53549500D01*
X69646826Y-53579165D01*
X69618660Y-53582874D01*
X69371687Y-53649050D01*
X69371677Y-53649053D01*
X69135468Y-53746894D01*
X69135457Y-53746899D01*
X68914042Y-53874734D01*
X68914026Y-53874745D01*
X68711188Y-54030388D01*
X68711181Y-54030394D01*
X68530394Y-54211181D01*
X68530388Y-54211188D01*
X68374745Y-54414026D01*
X68374734Y-54414042D01*
X68246899Y-54635457D01*
X68246894Y-54635468D01*
X68149053Y-54871677D01*
X68149050Y-54871687D01*
X68087901Y-55099901D01*
X68082874Y-55118661D01*
X68049500Y-55372149D01*
X66285649Y-55372149D01*
X66259930Y-55242847D01*
X66250130Y-55193580D01*
X66170941Y-55002402D01*
X66055977Y-54830345D01*
X66055975Y-54830342D01*
X65909657Y-54684024D01*
X65814638Y-54620535D01*
X65737598Y-54569059D01*
X65737593Y-54569057D01*
X65546420Y-54489870D01*
X65546412Y-54489868D01*
X65343469Y-54449500D01*
X65343465Y-54449500D01*
X65136535Y-54449500D01*
X65136530Y-54449500D01*
X64933587Y-54489868D01*
X64933579Y-54489870D01*
X64742403Y-54569058D01*
X64570342Y-54684024D01*
X64424024Y-54830342D01*
X64309058Y-55002403D01*
X64229870Y-55193579D01*
X64229868Y-55193587D01*
X64189500Y-55396530D01*
X63750499Y-55396530D01*
X63710130Y-55193580D01*
X63630941Y-55002402D01*
X63515977Y-54830345D01*
X63515975Y-54830342D01*
X63369657Y-54684024D01*
X63274638Y-54620535D01*
X63197598Y-54569059D01*
X63197593Y-54569057D01*
X63006420Y-54489870D01*
X63006412Y-54489868D01*
X62803469Y-54449500D01*
X62803465Y-54449500D01*
X62596535Y-54449500D01*
X62596530Y-54449500D01*
X62393587Y-54489868D01*
X62393579Y-54489870D01*
X62202403Y-54569058D01*
X62030342Y-54684024D01*
X61884024Y-54830342D01*
X61769057Y-55002403D01*
X61700835Y-55167108D01*
X61656994Y-55221511D01*
X61590700Y-55243576D01*
X61523000Y-55226297D01*
X61475390Y-55175159D01*
X61468343Y-55157973D01*
X61411095Y-54981782D01*
X61314620Y-54792442D01*
X61189727Y-54620540D01*
X61189723Y-54620535D01*
X61039464Y-54470276D01*
X61039459Y-54470272D01*
X60867557Y-54345379D01*
X60678216Y-54248904D01*
X60502026Y-54191656D01*
X60444350Y-54152218D01*
X60417152Y-54087860D01*
X60429067Y-54019013D01*
X60476311Y-53967538D01*
X60492882Y-53959168D01*
X60657598Y-53890941D01*
X60829655Y-53775977D01*
X60975977Y-53629655D01*
X61090941Y-53457598D01*
X61170130Y-53266420D01*
X61210500Y-53063465D01*
X61210500Y-52856535D01*
X61210499Y-52856530D01*
X61649500Y-52856530D01*
X61649500Y-53063469D01*
X61689868Y-53266412D01*
X61689870Y-53266420D01*
X61755939Y-53425925D01*
X61769059Y-53457598D01*
X61782836Y-53478217D01*
X61884024Y-53629657D01*
X62030342Y-53775975D01*
X62030345Y-53775977D01*
X62202402Y-53890941D01*
X62393580Y-53970130D01*
X62538052Y-53998867D01*
X62596530Y-54010499D01*
X62596534Y-54010500D01*
X62596535Y-54010500D01*
X62803466Y-54010500D01*
X62803467Y-54010499D01*
X63006420Y-53970130D01*
X63197598Y-53890941D01*
X63369655Y-53775977D01*
X63515977Y-53629655D01*
X63630941Y-53457598D01*
X63710130Y-53266420D01*
X63750500Y-53063465D01*
X63750500Y-52856535D01*
X63710130Y-52653580D01*
X63630941Y-52462402D01*
X63515977Y-52290345D01*
X63515975Y-52290342D01*
X63369657Y-52144024D01*
X63289173Y-52090247D01*
X64189500Y-52090247D01*
X64189500Y-53829752D01*
X64201131Y-53888229D01*
X64201132Y-53888230D01*
X64245447Y-53954552D01*
X64311769Y-53998867D01*
X64311770Y-53998868D01*
X64370247Y-54010499D01*
X64370250Y-54010500D01*
X64370252Y-54010500D01*
X66109750Y-54010500D01*
X66109751Y-54010499D01*
X66124568Y-54007552D01*
X66168229Y-53998868D01*
X66168229Y-53998867D01*
X66168231Y-53998867D01*
X66234552Y-53954552D01*
X66278867Y-53888231D01*
X66278867Y-53888229D01*
X66278868Y-53888229D01*
X66290499Y-53829752D01*
X66290500Y-53829750D01*
X66290500Y-52090249D01*
X66290499Y-52090247D01*
X66278868Y-52031770D01*
X66278867Y-52031769D01*
X66234552Y-51965447D01*
X66168230Y-51921132D01*
X66168229Y-51921131D01*
X66109752Y-51909500D01*
X66109748Y-51909500D01*
X64370252Y-51909500D01*
X64370247Y-51909500D01*
X64311770Y-51921131D01*
X64311769Y-51921132D01*
X64245447Y-51965447D01*
X64201132Y-52031769D01*
X64201131Y-52031770D01*
X64189500Y-52090247D01*
X63289173Y-52090247D01*
X63274638Y-52080535D01*
X63197598Y-52029059D01*
X63167915Y-52016764D01*
X63006420Y-51949870D01*
X63006412Y-51949868D01*
X62803469Y-51909500D01*
X62803465Y-51909500D01*
X62596535Y-51909500D01*
X62596530Y-51909500D01*
X62393587Y-51949868D01*
X62393579Y-51949870D01*
X62202403Y-52029058D01*
X62030342Y-52144024D01*
X61884024Y-52290342D01*
X61769058Y-52462403D01*
X61689870Y-52653579D01*
X61689868Y-52653587D01*
X61649500Y-52856530D01*
X61210499Y-52856530D01*
X61170130Y-52653580D01*
X61090941Y-52462402D01*
X60975977Y-52290345D01*
X60975975Y-52290342D01*
X60829657Y-52144024D01*
X60734638Y-52080535D01*
X60657598Y-52029059D01*
X60627915Y-52016764D01*
X60466420Y-51949870D01*
X60466412Y-51949868D01*
X60263469Y-51909500D01*
X60263465Y-51909500D01*
X60056535Y-51909500D01*
X60056530Y-51909500D01*
X59853587Y-51949868D01*
X59853579Y-51949870D01*
X59662403Y-52029058D01*
X59490342Y-52144024D01*
X59344024Y-52290342D01*
X59229058Y-52462403D01*
X59149870Y-52653579D01*
X59149868Y-52653587D01*
X59109500Y-52856530D01*
X59109500Y-53063469D01*
X59149868Y-53266412D01*
X59149870Y-53266420D01*
X59215939Y-53425925D01*
X59229059Y-53457598D01*
X59242836Y-53478217D01*
X59344024Y-53629657D01*
X59490342Y-53775975D01*
X59662405Y-53890943D01*
X59765043Y-53933456D01*
X59827108Y-53959164D01*
X59881511Y-54003005D01*
X59903576Y-54069299D01*
X59886297Y-54136998D01*
X59835160Y-54184609D01*
X59817974Y-54191656D01*
X59641781Y-54248905D01*
X59452442Y-54345379D01*
X59280540Y-54470272D01*
X59280535Y-54470276D01*
X59130276Y-54620535D01*
X59130272Y-54620540D01*
X59005379Y-54792442D01*
X58908905Y-54981781D01*
X58851656Y-55157974D01*
X58812218Y-55215649D01*
X58747859Y-55242847D01*
X58679013Y-55230932D01*
X58627537Y-55183688D01*
X58619164Y-55167107D01*
X58550943Y-55002405D01*
X58435975Y-54830342D01*
X58289657Y-54684024D01*
X58194638Y-54620535D01*
X58117598Y-54569059D01*
X58117593Y-54569057D01*
X57926420Y-54489870D01*
X57926412Y-54489868D01*
X57723469Y-54449500D01*
X57723465Y-54449500D01*
X57516535Y-54449500D01*
X57516530Y-54449500D01*
X57313587Y-54489868D01*
X57313579Y-54489870D01*
X57122403Y-54569058D01*
X56950342Y-54684024D01*
X56804024Y-54830342D01*
X56689058Y-55002403D01*
X56609870Y-55193579D01*
X56609868Y-55193587D01*
X56569500Y-55396530D01*
X56130499Y-55396530D01*
X56090130Y-55193580D01*
X56010941Y-55002402D01*
X55895977Y-54830345D01*
X55895975Y-54830342D01*
X55749657Y-54684024D01*
X55654638Y-54620535D01*
X55577598Y-54569059D01*
X55577593Y-54569057D01*
X55467076Y-54523279D01*
X55412890Y-54500834D01*
X55358488Y-54456994D01*
X55336423Y-54390700D01*
X55353702Y-54323001D01*
X55404839Y-54275390D01*
X55422026Y-54268343D01*
X55598217Y-54211095D01*
X55787557Y-54114620D01*
X55959459Y-53989727D01*
X55959464Y-53989723D01*
X56109723Y-53839464D01*
X56109727Y-53839459D01*
X56234620Y-53667557D01*
X56331095Y-53478217D01*
X56388343Y-53302026D01*
X56427780Y-53244351D01*
X56492139Y-53217152D01*
X56560985Y-53229066D01*
X56612461Y-53276310D01*
X56620835Y-53292891D01*
X56675939Y-53425925D01*
X56689059Y-53457598D01*
X56702836Y-53478217D01*
X56804024Y-53629657D01*
X56950342Y-53775975D01*
X56950345Y-53775977D01*
X57122402Y-53890941D01*
X57313580Y-53970130D01*
X57458052Y-53998867D01*
X57516530Y-54010499D01*
X57516534Y-54010500D01*
X57516535Y-54010500D01*
X57723466Y-54010500D01*
X57723467Y-54010499D01*
X57926420Y-53970130D01*
X58117598Y-53890941D01*
X58289655Y-53775977D01*
X58435977Y-53629655D01*
X58550941Y-53457598D01*
X58630130Y-53266420D01*
X58670500Y-53063465D01*
X58670500Y-52856535D01*
X58630130Y-52653580D01*
X58550941Y-52462402D01*
X58435977Y-52290345D01*
X58435975Y-52290342D01*
X58289657Y-52144024D01*
X58194638Y-52080535D01*
X58117598Y-52029059D01*
X58087915Y-52016764D01*
X57926420Y-51949870D01*
X57926412Y-51949868D01*
X57723469Y-51909500D01*
X57723465Y-51909500D01*
X57516535Y-51909500D01*
X57516530Y-51909500D01*
X57313587Y-51949868D01*
X57313579Y-51949870D01*
X57122403Y-52029058D01*
X56950342Y-52144024D01*
X56804024Y-52290342D01*
X56689057Y-52462403D01*
X56620835Y-52627108D01*
X56576994Y-52681511D01*
X56510700Y-52703576D01*
X56443000Y-52686297D01*
X56395390Y-52635159D01*
X56388343Y-52617973D01*
X56331095Y-52441782D01*
X56234620Y-52252442D01*
X56109727Y-52080540D01*
X56109723Y-52080535D01*
X55959464Y-51930276D01*
X55959459Y-51930272D01*
X55787557Y-51805379D01*
X55598215Y-51708903D01*
X55396124Y-51643241D01*
X55330000Y-51632768D01*
X55330000Y-52526988D01*
X55272993Y-52494075D01*
X55145826Y-52460000D01*
X55014174Y-52460000D01*
X54887007Y-52494075D01*
X54830000Y-52526988D01*
X54830000Y-51632768D01*
X54829999Y-51632768D01*
X54763875Y-51643241D01*
X54561784Y-51708903D01*
X54372442Y-51805379D01*
X54200540Y-51930272D01*
X54200535Y-51930276D01*
X54050276Y-52080535D01*
X54050272Y-52080540D01*
X53925379Y-52252442D01*
X53828905Y-52441781D01*
X53771656Y-52617974D01*
X53732218Y-52675649D01*
X53667859Y-52702847D01*
X53599013Y-52690932D01*
X53547537Y-52643688D01*
X53539164Y-52627107D01*
X53470943Y-52462405D01*
X53355975Y-52290342D01*
X53209657Y-52144024D01*
X53114638Y-52080535D01*
X53037598Y-52029059D01*
X53007915Y-52016764D01*
X52846420Y-51949870D01*
X52846412Y-51949868D01*
X52643469Y-51909500D01*
X52643465Y-51909500D01*
X52436535Y-51909500D01*
X52436530Y-51909500D01*
X52233587Y-51949868D01*
X52233579Y-51949870D01*
X52042403Y-52029058D01*
X51870342Y-52144024D01*
X51724024Y-52290342D01*
X51609058Y-52462403D01*
X51529870Y-52653579D01*
X51529868Y-52653587D01*
X51489500Y-52856530D01*
X51050499Y-52856530D01*
X51010130Y-52653580D01*
X50930941Y-52462402D01*
X50815977Y-52290345D01*
X50815975Y-52290342D01*
X50669657Y-52144024D01*
X50574638Y-52080535D01*
X50497598Y-52029059D01*
X50467915Y-52016764D01*
X50306420Y-51949870D01*
X50306412Y-51949868D01*
X50103469Y-51909500D01*
X50103465Y-51909500D01*
X49896535Y-51909500D01*
X49896530Y-51909500D01*
X49693587Y-51949868D01*
X49693579Y-51949870D01*
X49502403Y-52029058D01*
X49330342Y-52144024D01*
X49184024Y-52290342D01*
X49069058Y-52462403D01*
X48989870Y-52653579D01*
X48989868Y-52653587D01*
X48949500Y-52856530D01*
X48949500Y-53063469D01*
X48989868Y-53266412D01*
X48989870Y-53266420D01*
X49055939Y-53425925D01*
X49069059Y-53457598D01*
X49082836Y-53478217D01*
X49184024Y-53629657D01*
X49330342Y-53775975D01*
X49502405Y-53890943D01*
X49605043Y-53933456D01*
X49667108Y-53959164D01*
X49721511Y-54003005D01*
X49743576Y-54069299D01*
X49726297Y-54136998D01*
X49675160Y-54184609D01*
X49657974Y-54191656D01*
X49481781Y-54248905D01*
X49292442Y-54345379D01*
X49120540Y-54470272D01*
X49120535Y-54470276D01*
X48970276Y-54620535D01*
X48970272Y-54620540D01*
X48845379Y-54792442D01*
X48748905Y-54981781D01*
X48691656Y-55157974D01*
X48652218Y-55215649D01*
X48587859Y-55242847D01*
X48519013Y-55230932D01*
X48467537Y-55183688D01*
X48459164Y-55167107D01*
X48390943Y-55002405D01*
X48275975Y-54830342D01*
X48129657Y-54684024D01*
X48034638Y-54620535D01*
X47957598Y-54569059D01*
X47957593Y-54569057D01*
X47766420Y-54489870D01*
X47766412Y-54489868D01*
X47563469Y-54449500D01*
X47563465Y-54449500D01*
X47356535Y-54449500D01*
X47356530Y-54449500D01*
X47153587Y-54489868D01*
X47153579Y-54489870D01*
X46962403Y-54569058D01*
X46827390Y-54659270D01*
X46760712Y-54680147D01*
X46693332Y-54661662D01*
X46646643Y-54609683D01*
X46634500Y-54556167D01*
X46634500Y-53903832D01*
X46654185Y-53836793D01*
X46706989Y-53791038D01*
X46776147Y-53781094D01*
X46827390Y-53800730D01*
X46962400Y-53890940D01*
X46962401Y-53890940D01*
X46962402Y-53890941D01*
X47153580Y-53970130D01*
X47298052Y-53998867D01*
X47356530Y-54010499D01*
X47356534Y-54010500D01*
X47356535Y-54010500D01*
X47563466Y-54010500D01*
X47563467Y-54010499D01*
X47766420Y-53970130D01*
X47957598Y-53890941D01*
X48129655Y-53775977D01*
X48275977Y-53629655D01*
X48390941Y-53457598D01*
X48470130Y-53266420D01*
X48510500Y-53063465D01*
X48510500Y-52856535D01*
X48470130Y-52653580D01*
X48390941Y-52462402D01*
X48275977Y-52290345D01*
X48275975Y-52290342D01*
X48129657Y-52144024D01*
X48034638Y-52080535D01*
X47957598Y-52029059D01*
X47927915Y-52016764D01*
X47766420Y-51949870D01*
X47766412Y-51949868D01*
X47563469Y-51909500D01*
X47563465Y-51909500D01*
X47356535Y-51909500D01*
X47356530Y-51909500D01*
X47153587Y-51949868D01*
X47153579Y-51949870D01*
X46962403Y-52029058D01*
X46827390Y-52119270D01*
X46760712Y-52140147D01*
X46693332Y-52121662D01*
X46646643Y-52069683D01*
X46634500Y-52016167D01*
X46634500Y-48620691D01*
X47899500Y-48620691D01*
X47899500Y-48739309D01*
X47930201Y-48853886D01*
X47989511Y-48956613D01*
X48073387Y-49040489D01*
X48176114Y-49099799D01*
X48290691Y-49130500D01*
X48290694Y-49130500D01*
X48409306Y-49130500D01*
X48409309Y-49130500D01*
X48523886Y-49099799D01*
X48626613Y-49040489D01*
X48710489Y-48956613D01*
X48769799Y-48853886D01*
X48800500Y-48739309D01*
X48800500Y-48620691D01*
X48769799Y-48506114D01*
X48710489Y-48403387D01*
X48626613Y-48319511D01*
X48523886Y-48260201D01*
X48409309Y-48229500D01*
X48290691Y-48229500D01*
X48176114Y-48260201D01*
X48176112Y-48260201D01*
X48176112Y-48260202D01*
X48073387Y-48319511D01*
X48073384Y-48319513D01*
X47989513Y-48403384D01*
X47989511Y-48403387D01*
X47975853Y-48427044D01*
X47930201Y-48506114D01*
X47899500Y-48620691D01*
X46634500Y-48620691D01*
X46634500Y-48210691D01*
X53759500Y-48210691D01*
X53759500Y-48329309D01*
X53790201Y-48443886D01*
X53849511Y-48546613D01*
X53933387Y-48630489D01*
X54036114Y-48689799D01*
X54150691Y-48720500D01*
X54150694Y-48720500D01*
X54269306Y-48720500D01*
X54269309Y-48720500D01*
X54383886Y-48689799D01*
X54486613Y-48630489D01*
X54570489Y-48546613D01*
X54629799Y-48443886D01*
X54660500Y-48329309D01*
X54660500Y-48210691D01*
X54629799Y-48096114D01*
X54570489Y-47993387D01*
X54486613Y-47909511D01*
X54383886Y-47850201D01*
X54269309Y-47819500D01*
X54150691Y-47819500D01*
X54036114Y-47850201D01*
X54036112Y-47850201D01*
X54036112Y-47850202D01*
X53933387Y-47909511D01*
X53933384Y-47909513D01*
X53849513Y-47993384D01*
X53849511Y-47993387D01*
X53790201Y-48096114D01*
X53759500Y-48210691D01*
X46634500Y-48210691D01*
X46634500Y-36340691D01*
X53924500Y-36340691D01*
X53924500Y-36459309D01*
X53955201Y-36573886D01*
X54014511Y-36676613D01*
X54098387Y-36760489D01*
X54201114Y-36819799D01*
X54315691Y-36850500D01*
X54315694Y-36850500D01*
X54434306Y-36850500D01*
X54434309Y-36850500D01*
X54548886Y-36819799D01*
X54651613Y-36760489D01*
X54735489Y-36676613D01*
X54794799Y-36573886D01*
X54825500Y-36459309D01*
X54825500Y-36340691D01*
X54794799Y-36226114D01*
X54735489Y-36123387D01*
X54651613Y-36039511D01*
X54548886Y-35980201D01*
X54434309Y-35949500D01*
X54315691Y-35949500D01*
X54201114Y-35980201D01*
X54201112Y-35980201D01*
X54201112Y-35980202D01*
X54098387Y-36039511D01*
X54098384Y-36039513D01*
X54014513Y-36123384D01*
X54014511Y-36123387D01*
X53955201Y-36226114D01*
X53924500Y-36340691D01*
X46634500Y-36340691D01*
X46634500Y-31372149D01*
X68049500Y-31372149D01*
X68049500Y-31627850D01*
X68061659Y-31720200D01*
X68082874Y-31881340D01*
X68149050Y-32128312D01*
X68149053Y-32128322D01*
X68246894Y-32364531D01*
X68246899Y-32364542D01*
X68374734Y-32585957D01*
X68374745Y-32585973D01*
X68530388Y-32788811D01*
X68530394Y-32788818D01*
X68711181Y-32969605D01*
X68711188Y-32969611D01*
X68855312Y-33080201D01*
X68914035Y-33125261D01*
X68914042Y-33125265D01*
X69135457Y-33253100D01*
X69135462Y-33253102D01*
X69135465Y-33253104D01*
X69225747Y-33290500D01*
X69311722Y-33326112D01*
X69371687Y-33350950D01*
X69618660Y-33417126D01*
X69872157Y-33450500D01*
X69872164Y-33450500D01*
X70127836Y-33450500D01*
X70127843Y-33450500D01*
X70381340Y-33417126D01*
X70628313Y-33350950D01*
X70864535Y-33253104D01*
X71085965Y-33125261D01*
X71288813Y-32969610D01*
X71469610Y-32788813D01*
X71625261Y-32585965D01*
X71753104Y-32364535D01*
X71850950Y-32128313D01*
X71917126Y-31881340D01*
X71950500Y-31627843D01*
X71950500Y-31372157D01*
X71917126Y-31118660D01*
X71850950Y-30871687D01*
X71849813Y-30868943D01*
X71762568Y-30658313D01*
X71753104Y-30635465D01*
X71753102Y-30635462D01*
X71753100Y-30635457D01*
X71625265Y-30414042D01*
X71625261Y-30414035D01*
X71514029Y-30269075D01*
X71469611Y-30211188D01*
X71469605Y-30211181D01*
X71288818Y-30030394D01*
X71288811Y-30030388D01*
X71085973Y-29874745D01*
X71085971Y-29874743D01*
X71085965Y-29874739D01*
X71085960Y-29874736D01*
X71085957Y-29874734D01*
X70864542Y-29746899D01*
X70864531Y-29746894D01*
X70628322Y-29649053D01*
X70628315Y-29649051D01*
X70628313Y-29649050D01*
X70381340Y-29582874D01*
X70325007Y-29575457D01*
X70127850Y-29549500D01*
X70127843Y-29549500D01*
X69872157Y-29549500D01*
X69872149Y-29549500D01*
X69646826Y-29579165D01*
X69618660Y-29582874D01*
X69371687Y-29649050D01*
X69371677Y-29649053D01*
X69135468Y-29746894D01*
X69135457Y-29746899D01*
X68914042Y-29874734D01*
X68914026Y-29874745D01*
X68711188Y-30030388D01*
X68711181Y-30030394D01*
X68530394Y-30211181D01*
X68530388Y-30211188D01*
X68374745Y-30414026D01*
X68374734Y-30414042D01*
X68246899Y-30635457D01*
X68246894Y-30635468D01*
X68149053Y-30871677D01*
X68149050Y-30871687D01*
X68087901Y-31099901D01*
X68082874Y-31118661D01*
X68049500Y-31372149D01*
X46634500Y-31372149D01*
X46634500Y-31229201D01*
X46634499Y-31229197D01*
X46599997Y-31145903D01*
X46592557Y-31127942D01*
X46592557Y-31127941D01*
X44376795Y-28912180D01*
X44343311Y-28850858D01*
X44348295Y-28781166D01*
X44390167Y-28725233D01*
X44455631Y-28700816D01*
X44464477Y-28700500D01*
X70460118Y-28700500D01*
X70496519Y-28700500D01*
X70503472Y-28700695D01*
G37*
%TD.AperFunction*%
%TA.AperFunction,Conductor*%
G36*
X46032916Y-55957615D02*
G01*
X46075288Y-56013170D01*
X46083500Y-56057546D01*
X46083500Y-56824522D01*
X46063815Y-56891561D01*
X46047181Y-56912203D01*
X45372204Y-57587181D01*
X45310881Y-57620666D01*
X45284523Y-57623500D01*
X42840527Y-57623500D01*
X42773488Y-57603815D01*
X42727733Y-57551011D01*
X42717789Y-57481853D01*
X42746814Y-57418297D01*
X42752846Y-57411819D01*
X43961835Y-56202830D01*
X44023158Y-56169345D01*
X44092850Y-56174329D01*
X44137197Y-56202830D01*
X44250342Y-56315975D01*
X44250345Y-56315977D01*
X44422402Y-56430941D01*
X44613580Y-56510130D01*
X44768323Y-56540910D01*
X44816530Y-56550499D01*
X44816534Y-56550500D01*
X44816535Y-56550500D01*
X45023466Y-56550500D01*
X45023467Y-56550499D01*
X45226420Y-56510130D01*
X45417598Y-56430941D01*
X45589655Y-56315977D01*
X45735977Y-56169655D01*
X45850941Y-55997598D01*
X45850943Y-55997594D01*
X45854325Y-55992533D01*
X45855690Y-55993445D01*
X45899098Y-55949252D01*
X45967234Y-55933787D01*
X46032916Y-55957615D01*
G37*
%TD.AperFunction*%
%TA.AperFunction,Conductor*%
G36*
X31436544Y-52045185D02*
G01*
X31482299Y-52097989D01*
X31492243Y-52167147D01*
X31463218Y-52230703D01*
X31457186Y-52237181D01*
X31404025Y-52290341D01*
X31404024Y-52290342D01*
X31289058Y-52462403D01*
X31209870Y-52653579D01*
X31209868Y-52653587D01*
X31169500Y-52856530D01*
X31169500Y-53063469D01*
X31209868Y-53266412D01*
X31209870Y-53266420D01*
X31275939Y-53425925D01*
X31289059Y-53457598D01*
X31302836Y-53478217D01*
X31404024Y-53629657D01*
X31550342Y-53775975D01*
X31550345Y-53775977D01*
X31722402Y-53890941D01*
X31913580Y-53970130D01*
X32058052Y-53998867D01*
X32116530Y-54010499D01*
X32116534Y-54010500D01*
X32116535Y-54010500D01*
X32323466Y-54010500D01*
X32323467Y-54010499D01*
X32526420Y-53970130D01*
X32717598Y-53890941D01*
X32889655Y-53775977D01*
X33035977Y-53629655D01*
X33150941Y-53457598D01*
X33219165Y-53292889D01*
X33263004Y-53238488D01*
X33329298Y-53216423D01*
X33396998Y-53233702D01*
X33444609Y-53284839D01*
X33451656Y-53302026D01*
X33508904Y-53478216D01*
X33605379Y-53667557D01*
X33730272Y-53839459D01*
X33730276Y-53839464D01*
X33880535Y-53989723D01*
X33880540Y-53989727D01*
X34052442Y-54114620D01*
X34241782Y-54211095D01*
X34417973Y-54268343D01*
X34475648Y-54307780D01*
X34502847Y-54372139D01*
X34490932Y-54440985D01*
X34443688Y-54492461D01*
X34427108Y-54500835D01*
X34262403Y-54569057D01*
X34090342Y-54684024D01*
X33944024Y-54830342D01*
X33829058Y-55002403D01*
X33749870Y-55193579D01*
X33749868Y-55193587D01*
X33709500Y-55396530D01*
X33709500Y-55603469D01*
X33749868Y-55806412D01*
X33749870Y-55806420D01*
X33815939Y-55965925D01*
X33829059Y-55997598D01*
X33842836Y-56018217D01*
X33944024Y-56169657D01*
X34090342Y-56315975D01*
X34090345Y-56315977D01*
X34262402Y-56430941D01*
X34453580Y-56510130D01*
X34608323Y-56540910D01*
X34656530Y-56550499D01*
X34656534Y-56550500D01*
X34656535Y-56550500D01*
X34863466Y-56550500D01*
X34863467Y-56550499D01*
X35066420Y-56510130D01*
X35257598Y-56430941D01*
X35429655Y-56315977D01*
X35575977Y-56169655D01*
X35690941Y-55997598D01*
X35770130Y-55806420D01*
X35810500Y-55603465D01*
X35810500Y-55396535D01*
X35810499Y-55396530D01*
X36249500Y-55396530D01*
X36249500Y-55603469D01*
X36289868Y-55806412D01*
X36289870Y-55806420D01*
X36355939Y-55965925D01*
X36369059Y-55997598D01*
X36382836Y-56018217D01*
X36484024Y-56169657D01*
X36630342Y-56315975D01*
X36630345Y-56315977D01*
X36802402Y-56430941D01*
X36993580Y-56510130D01*
X37148323Y-56540910D01*
X37196530Y-56550499D01*
X37196534Y-56550500D01*
X37196535Y-56550500D01*
X37403466Y-56550500D01*
X37403467Y-56550499D01*
X37606420Y-56510130D01*
X37797598Y-56430941D01*
X37969655Y-56315977D01*
X38115977Y-56169655D01*
X38230941Y-55997598D01*
X38310130Y-55806420D01*
X38350500Y-55603465D01*
X38350500Y-55396535D01*
X38310130Y-55193580D01*
X38230941Y-55002402D01*
X38115977Y-54830345D01*
X38115975Y-54830342D01*
X37969657Y-54684024D01*
X37874638Y-54620535D01*
X37797598Y-54569059D01*
X37797593Y-54569057D01*
X37606420Y-54489870D01*
X37606412Y-54489868D01*
X37403469Y-54449500D01*
X37403465Y-54449500D01*
X37196535Y-54449500D01*
X37196530Y-54449500D01*
X36993587Y-54489868D01*
X36993579Y-54489870D01*
X36802403Y-54569058D01*
X36630342Y-54684024D01*
X36484024Y-54830342D01*
X36369058Y-55002403D01*
X36289870Y-55193579D01*
X36289868Y-55193587D01*
X36249500Y-55396530D01*
X35810499Y-55396530D01*
X35770130Y-55193580D01*
X35690941Y-55002402D01*
X35575977Y-54830345D01*
X35575975Y-54830342D01*
X35429657Y-54684024D01*
X35334638Y-54620535D01*
X35257598Y-54569059D01*
X35257593Y-54569057D01*
X35147076Y-54523279D01*
X35092890Y-54500834D01*
X35038488Y-54456994D01*
X35016423Y-54390700D01*
X35033702Y-54323001D01*
X35084839Y-54275390D01*
X35102026Y-54268343D01*
X35278217Y-54211095D01*
X35467557Y-54114620D01*
X35639459Y-53989727D01*
X35639464Y-53989723D01*
X35789723Y-53839464D01*
X35789727Y-53839459D01*
X35914620Y-53667557D01*
X36011095Y-53478217D01*
X36068343Y-53302026D01*
X36107780Y-53244351D01*
X36172139Y-53217152D01*
X36240985Y-53229066D01*
X36292461Y-53276310D01*
X36300835Y-53292891D01*
X36355939Y-53425925D01*
X36369059Y-53457598D01*
X36382836Y-53478217D01*
X36484024Y-53629657D01*
X36630342Y-53775975D01*
X36630345Y-53775977D01*
X36802402Y-53890941D01*
X36993580Y-53970130D01*
X37138052Y-53998867D01*
X37196530Y-54010499D01*
X37196534Y-54010500D01*
X37196535Y-54010500D01*
X37403466Y-54010500D01*
X37403467Y-54010499D01*
X37606420Y-53970130D01*
X37797598Y-53890941D01*
X37969655Y-53775977D01*
X38115977Y-53629655D01*
X38230941Y-53457598D01*
X38310130Y-53266420D01*
X38350500Y-53063465D01*
X38350500Y-52856535D01*
X38310130Y-52653580D01*
X38230941Y-52462402D01*
X38115977Y-52290345D01*
X38115975Y-52290342D01*
X38062814Y-52237181D01*
X38029329Y-52175858D01*
X38034313Y-52106166D01*
X38076185Y-52050233D01*
X38141649Y-52025816D01*
X38150495Y-52025500D01*
X38989505Y-52025500D01*
X39056544Y-52045185D01*
X39102299Y-52097989D01*
X39112243Y-52167147D01*
X39083218Y-52230703D01*
X39077186Y-52237181D01*
X39024025Y-52290341D01*
X39024024Y-52290342D01*
X38909058Y-52462403D01*
X38829870Y-52653579D01*
X38829868Y-52653587D01*
X38789500Y-52856530D01*
X38789500Y-53063469D01*
X38829868Y-53266412D01*
X38829870Y-53266420D01*
X38895939Y-53425925D01*
X38909059Y-53457598D01*
X38922836Y-53478217D01*
X39024024Y-53629657D01*
X39170342Y-53775975D01*
X39170345Y-53775977D01*
X39342402Y-53890941D01*
X39533580Y-53970130D01*
X39678052Y-53998867D01*
X39736530Y-54010499D01*
X39736534Y-54010500D01*
X39736535Y-54010500D01*
X39943466Y-54010500D01*
X39943467Y-54010499D01*
X40146420Y-53970130D01*
X40337598Y-53890941D01*
X40509655Y-53775977D01*
X40655977Y-53629655D01*
X40770941Y-53457598D01*
X40850130Y-53266420D01*
X40890500Y-53063465D01*
X40890500Y-52856535D01*
X40850130Y-52653580D01*
X40770941Y-52462402D01*
X40655977Y-52290345D01*
X40655975Y-52290342D01*
X40602814Y-52237181D01*
X40569329Y-52175858D01*
X40574313Y-52106166D01*
X40616185Y-52050233D01*
X40681649Y-52025816D01*
X40690495Y-52025500D01*
X41529505Y-52025500D01*
X41596544Y-52045185D01*
X41642299Y-52097989D01*
X41652243Y-52167147D01*
X41623218Y-52230703D01*
X41617186Y-52237181D01*
X41564025Y-52290341D01*
X41564024Y-52290342D01*
X41449058Y-52462403D01*
X41369870Y-52653579D01*
X41369868Y-52653587D01*
X41329500Y-52856530D01*
X41329500Y-53063469D01*
X41369868Y-53266412D01*
X41369870Y-53266420D01*
X41435939Y-53425925D01*
X41449059Y-53457598D01*
X41462836Y-53478217D01*
X41564024Y-53629657D01*
X41710342Y-53775975D01*
X41882405Y-53890943D01*
X41985043Y-53933456D01*
X42047108Y-53959164D01*
X42101511Y-54003005D01*
X42123576Y-54069299D01*
X42106297Y-54136998D01*
X42055160Y-54184609D01*
X42037974Y-54191656D01*
X41861781Y-54248905D01*
X41672442Y-54345379D01*
X41500540Y-54470272D01*
X41500535Y-54470276D01*
X41350276Y-54620535D01*
X41350272Y-54620540D01*
X41225379Y-54792442D01*
X41128905Y-54981781D01*
X41071656Y-55157974D01*
X41032218Y-55215649D01*
X40967859Y-55242847D01*
X40899013Y-55230932D01*
X40847537Y-55183688D01*
X40839164Y-55167107D01*
X40770943Y-55002405D01*
X40655975Y-54830342D01*
X40509657Y-54684024D01*
X40414638Y-54620535D01*
X40337598Y-54569059D01*
X40337593Y-54569057D01*
X40146420Y-54489870D01*
X40146412Y-54489868D01*
X39943469Y-54449500D01*
X39943465Y-54449500D01*
X39736535Y-54449500D01*
X39736530Y-54449500D01*
X39533587Y-54489868D01*
X39533579Y-54489870D01*
X39342403Y-54569058D01*
X39170342Y-54684024D01*
X39024024Y-54830342D01*
X38909058Y-55002403D01*
X38829870Y-55193579D01*
X38829868Y-55193587D01*
X38789500Y-55396530D01*
X38789500Y-55603469D01*
X38829868Y-55806412D01*
X38829870Y-55806420D01*
X38895939Y-55965925D01*
X38909059Y-55997598D01*
X38922836Y-56018217D01*
X39024024Y-56169657D01*
X39170342Y-56315975D01*
X39170345Y-56315977D01*
X39342402Y-56430941D01*
X39533580Y-56510130D01*
X39688323Y-56540910D01*
X39736530Y-56550499D01*
X39736534Y-56550500D01*
X39736535Y-56550500D01*
X39943466Y-56550500D01*
X39943467Y-56550499D01*
X40146420Y-56510130D01*
X40337598Y-56430941D01*
X40509655Y-56315977D01*
X40655977Y-56169655D01*
X40770941Y-55997598D01*
X40839165Y-55832889D01*
X40883004Y-55778488D01*
X40949298Y-55756423D01*
X41016998Y-55773702D01*
X41064609Y-55824839D01*
X41071656Y-55842026D01*
X41128904Y-56018216D01*
X41225379Y-56207557D01*
X41350272Y-56379459D01*
X41350276Y-56379464D01*
X41500535Y-56529723D01*
X41500540Y-56529727D01*
X41672442Y-56654620D01*
X41861782Y-56751095D01*
X42063869Y-56816757D01*
X42063874Y-56816758D01*
X42259287Y-56847708D01*
X42322422Y-56877637D01*
X42359354Y-56936948D01*
X42358356Y-57006811D01*
X42327572Y-57057861D01*
X42247255Y-57138180D01*
X42185933Y-57171666D01*
X42159573Y-57174500D01*
X22280428Y-57174500D01*
X22213389Y-57154815D01*
X22192747Y-57138181D01*
X21806841Y-56752275D01*
X21773356Y-56690952D01*
X21778340Y-56621260D01*
X21820212Y-56565327D01*
X21885676Y-56540910D01*
X21918714Y-56542977D01*
X21956533Y-56550499D01*
X21956534Y-56550500D01*
X21956535Y-56550500D01*
X22163466Y-56550500D01*
X22163467Y-56550499D01*
X22366420Y-56510130D01*
X22557598Y-56430941D01*
X22729655Y-56315977D01*
X22875977Y-56169655D01*
X22990941Y-55997598D01*
X23059165Y-55832889D01*
X23103004Y-55778488D01*
X23169298Y-55756423D01*
X23236998Y-55773702D01*
X23284609Y-55824839D01*
X23291656Y-55842026D01*
X23348904Y-56018216D01*
X23445379Y-56207557D01*
X23570272Y-56379459D01*
X23570276Y-56379464D01*
X23720535Y-56529723D01*
X23720540Y-56529727D01*
X23892442Y-56654620D01*
X24081782Y-56751095D01*
X24283871Y-56816757D01*
X24350000Y-56827231D01*
X24350000Y-55933012D01*
X24407007Y-55965925D01*
X24534174Y-56000000D01*
X24665826Y-56000000D01*
X24792993Y-55965925D01*
X24850000Y-55933012D01*
X24850000Y-56827230D01*
X24916126Y-56816757D01*
X24916129Y-56816757D01*
X25118217Y-56751095D01*
X25307557Y-56654620D01*
X25479459Y-56529727D01*
X25479464Y-56529723D01*
X25629723Y-56379464D01*
X25629727Y-56379459D01*
X25754620Y-56207557D01*
X25851095Y-56018217D01*
X25908343Y-55842026D01*
X25947780Y-55784351D01*
X26012139Y-55757152D01*
X26080985Y-55769066D01*
X26132461Y-55816310D01*
X26140833Y-55832887D01*
X26144581Y-55841935D01*
X26195939Y-55965925D01*
X26209059Y-55997598D01*
X26222836Y-56018217D01*
X26324024Y-56169657D01*
X26470342Y-56315975D01*
X26470345Y-56315977D01*
X26642402Y-56430941D01*
X26833580Y-56510130D01*
X26988323Y-56540910D01*
X27036530Y-56550499D01*
X27036534Y-56550500D01*
X27036535Y-56550500D01*
X27243466Y-56550500D01*
X27243467Y-56550499D01*
X27446420Y-56510130D01*
X27637598Y-56430941D01*
X27809655Y-56315977D01*
X27955977Y-56169655D01*
X28070941Y-55997598D01*
X28139165Y-55832889D01*
X28183004Y-55778488D01*
X28249298Y-55756423D01*
X28316998Y-55773702D01*
X28364609Y-55824839D01*
X28371656Y-55842026D01*
X28428904Y-56018216D01*
X28525379Y-56207557D01*
X28650272Y-56379459D01*
X28650276Y-56379464D01*
X28800535Y-56529723D01*
X28800540Y-56529727D01*
X28972442Y-56654620D01*
X29161782Y-56751095D01*
X29363871Y-56816757D01*
X29430000Y-56827231D01*
X29430000Y-55933012D01*
X29487007Y-55965925D01*
X29614174Y-56000000D01*
X29745826Y-56000000D01*
X29872993Y-55965925D01*
X29930000Y-55933012D01*
X29930000Y-56827230D01*
X29996126Y-56816757D01*
X29996129Y-56816757D01*
X30198217Y-56751095D01*
X30387557Y-56654620D01*
X30559459Y-56529727D01*
X30559464Y-56529723D01*
X30709723Y-56379464D01*
X30709727Y-56379459D01*
X30834620Y-56207557D01*
X30931095Y-56018217D01*
X30988343Y-55842026D01*
X31027780Y-55784351D01*
X31092139Y-55757152D01*
X31160985Y-55769066D01*
X31212461Y-55816310D01*
X31220833Y-55832887D01*
X31224581Y-55841935D01*
X31275939Y-55965925D01*
X31289059Y-55997598D01*
X31302836Y-56018217D01*
X31404024Y-56169657D01*
X31550342Y-56315975D01*
X31550345Y-56315977D01*
X31722402Y-56430941D01*
X31913580Y-56510130D01*
X32068323Y-56540910D01*
X32116530Y-56550499D01*
X32116534Y-56550500D01*
X32116535Y-56550500D01*
X32323466Y-56550500D01*
X32323467Y-56550499D01*
X32526420Y-56510130D01*
X32717598Y-56430941D01*
X32889655Y-56315977D01*
X33035977Y-56169655D01*
X33150941Y-55997598D01*
X33230130Y-55806420D01*
X33270500Y-55603465D01*
X33270500Y-55396535D01*
X33230130Y-55193580D01*
X33150941Y-55002402D01*
X33035977Y-54830345D01*
X33035975Y-54830342D01*
X32889657Y-54684024D01*
X32794638Y-54620535D01*
X32717598Y-54569059D01*
X32717593Y-54569057D01*
X32526420Y-54489870D01*
X32526412Y-54489868D01*
X32323469Y-54449500D01*
X32323465Y-54449500D01*
X32116535Y-54449500D01*
X32116530Y-54449500D01*
X31913587Y-54489868D01*
X31913579Y-54489870D01*
X31722403Y-54569058D01*
X31550342Y-54684024D01*
X31404024Y-54830342D01*
X31289057Y-55002403D01*
X31220835Y-55167108D01*
X31176994Y-55221511D01*
X31110700Y-55243576D01*
X31043000Y-55226297D01*
X30995390Y-55175159D01*
X30988343Y-55157973D01*
X30931095Y-54981782D01*
X30834620Y-54792442D01*
X30709727Y-54620540D01*
X30709723Y-54620535D01*
X30559464Y-54470276D01*
X30559459Y-54470272D01*
X30387557Y-54345379D01*
X30198216Y-54248904D01*
X30022026Y-54191656D01*
X29964350Y-54152218D01*
X29937152Y-54087860D01*
X29949067Y-54019013D01*
X29996311Y-53967538D01*
X30012882Y-53959168D01*
X30177598Y-53890941D01*
X30349655Y-53775977D01*
X30495977Y-53629655D01*
X30610941Y-53457598D01*
X30690130Y-53266420D01*
X30730500Y-53063465D01*
X30730500Y-52856535D01*
X30690130Y-52653580D01*
X30610941Y-52462402D01*
X30495977Y-52290345D01*
X30495975Y-52290342D01*
X30442814Y-52237181D01*
X30409329Y-52175858D01*
X30414313Y-52106166D01*
X30456185Y-52050233D01*
X30521649Y-52025816D01*
X30530495Y-52025500D01*
X31369505Y-52025500D01*
X31436544Y-52045185D01*
G37*
%TD.AperFunction*%
%TA.AperFunction,Conductor*%
G36*
X26356544Y-52045185D02*
G01*
X26402299Y-52097989D01*
X26412243Y-52167147D01*
X26383218Y-52230703D01*
X26377186Y-52237181D01*
X26324025Y-52290341D01*
X26324024Y-52290342D01*
X26209058Y-52462403D01*
X26129870Y-52653579D01*
X26129868Y-52653587D01*
X26089500Y-52856530D01*
X26089500Y-53063469D01*
X26129868Y-53266412D01*
X26129870Y-53266420D01*
X26195939Y-53425925D01*
X26209059Y-53457598D01*
X26222836Y-53478217D01*
X26324024Y-53629657D01*
X26470342Y-53775975D01*
X26470345Y-53775977D01*
X26642402Y-53890941D01*
X26833580Y-53970130D01*
X26978052Y-53998867D01*
X27036530Y-54010499D01*
X27036534Y-54010500D01*
X27036535Y-54010500D01*
X27243466Y-54010500D01*
X27243467Y-54010499D01*
X27446420Y-53970130D01*
X27637598Y-53890941D01*
X27809655Y-53775977D01*
X27955977Y-53629655D01*
X28070941Y-53457598D01*
X28150130Y-53266420D01*
X28190500Y-53063465D01*
X28190500Y-52856535D01*
X28150130Y-52653580D01*
X28070941Y-52462402D01*
X27955977Y-52290345D01*
X27955975Y-52290342D01*
X27902814Y-52237181D01*
X27869329Y-52175858D01*
X27874313Y-52106166D01*
X27916185Y-52050233D01*
X27981649Y-52025816D01*
X27990495Y-52025500D01*
X28829505Y-52025500D01*
X28896544Y-52045185D01*
X28942299Y-52097989D01*
X28952243Y-52167147D01*
X28923218Y-52230703D01*
X28917186Y-52237181D01*
X28864025Y-52290341D01*
X28864024Y-52290342D01*
X28749058Y-52462403D01*
X28669870Y-52653579D01*
X28669868Y-52653587D01*
X28629500Y-52856530D01*
X28629500Y-53063469D01*
X28669868Y-53266412D01*
X28669870Y-53266420D01*
X28735939Y-53425925D01*
X28749059Y-53457598D01*
X28762836Y-53478217D01*
X28864024Y-53629657D01*
X29010342Y-53775975D01*
X29182405Y-53890943D01*
X29285043Y-53933456D01*
X29347108Y-53959164D01*
X29401511Y-54003005D01*
X29423576Y-54069299D01*
X29406297Y-54136998D01*
X29355160Y-54184609D01*
X29337974Y-54191656D01*
X29161781Y-54248905D01*
X28972442Y-54345379D01*
X28800540Y-54470272D01*
X28800535Y-54470276D01*
X28650276Y-54620535D01*
X28650272Y-54620540D01*
X28525379Y-54792442D01*
X28428905Y-54981781D01*
X28371656Y-55157974D01*
X28332218Y-55215649D01*
X28267859Y-55242847D01*
X28199013Y-55230932D01*
X28147537Y-55183688D01*
X28139164Y-55167107D01*
X28070943Y-55002405D01*
X27955975Y-54830342D01*
X27809657Y-54684024D01*
X27714638Y-54620535D01*
X27637598Y-54569059D01*
X27637593Y-54569057D01*
X27446420Y-54489870D01*
X27446412Y-54489868D01*
X27243469Y-54449500D01*
X27243465Y-54449500D01*
X27036535Y-54449500D01*
X27036530Y-54449500D01*
X26833587Y-54489868D01*
X26833579Y-54489870D01*
X26642403Y-54569058D01*
X26470342Y-54684024D01*
X26324024Y-54830342D01*
X26209057Y-55002403D01*
X26140835Y-55167108D01*
X26096994Y-55221511D01*
X26030700Y-55243576D01*
X25963000Y-55226297D01*
X25915390Y-55175159D01*
X25908343Y-55157973D01*
X25851095Y-54981782D01*
X25754620Y-54792442D01*
X25629727Y-54620540D01*
X25629723Y-54620535D01*
X25479464Y-54470276D01*
X25479459Y-54470272D01*
X25307557Y-54345379D01*
X25118216Y-54248904D01*
X24942026Y-54191656D01*
X24884350Y-54152218D01*
X24857152Y-54087860D01*
X24869067Y-54019013D01*
X24916311Y-53967538D01*
X24932882Y-53959168D01*
X25097598Y-53890941D01*
X25269655Y-53775977D01*
X25415977Y-53629655D01*
X25530941Y-53457598D01*
X25610130Y-53266420D01*
X25650500Y-53063465D01*
X25650500Y-52856535D01*
X25610130Y-52653580D01*
X25530941Y-52462402D01*
X25415977Y-52290345D01*
X25415975Y-52290342D01*
X25362814Y-52237181D01*
X25329329Y-52175858D01*
X25334313Y-52106166D01*
X25376185Y-52050233D01*
X25441649Y-52025816D01*
X25450495Y-52025500D01*
X26289505Y-52025500D01*
X26356544Y-52045185D01*
G37*
%TD.AperFunction*%
%TA.AperFunction,Conductor*%
G36*
X21276544Y-52045185D02*
G01*
X21322299Y-52097989D01*
X21332243Y-52167147D01*
X21303218Y-52230703D01*
X21297186Y-52237181D01*
X21244025Y-52290341D01*
X21244024Y-52290342D01*
X21129058Y-52462403D01*
X21049870Y-52653579D01*
X21049868Y-52653587D01*
X21009500Y-52856530D01*
X21009500Y-53063469D01*
X21049868Y-53266412D01*
X21049870Y-53266420D01*
X21115939Y-53425925D01*
X21129059Y-53457598D01*
X21142836Y-53478217D01*
X21244024Y-53629657D01*
X21390342Y-53775975D01*
X21390345Y-53775977D01*
X21562402Y-53890941D01*
X21753580Y-53970130D01*
X21898052Y-53998867D01*
X21956530Y-54010499D01*
X21956534Y-54010500D01*
X21956535Y-54010500D01*
X22163466Y-54010500D01*
X22163467Y-54010499D01*
X22366420Y-53970130D01*
X22557598Y-53890941D01*
X22729655Y-53775977D01*
X22875977Y-53629655D01*
X22990941Y-53457598D01*
X23070130Y-53266420D01*
X23110500Y-53063465D01*
X23110500Y-52856535D01*
X23070130Y-52653580D01*
X22990941Y-52462402D01*
X22875977Y-52290345D01*
X22875975Y-52290342D01*
X22822814Y-52237181D01*
X22789329Y-52175858D01*
X22794313Y-52106166D01*
X22836185Y-52050233D01*
X22901649Y-52025816D01*
X22910495Y-52025500D01*
X23749505Y-52025500D01*
X23816544Y-52045185D01*
X23862299Y-52097989D01*
X23872243Y-52167147D01*
X23843218Y-52230703D01*
X23837186Y-52237181D01*
X23784025Y-52290341D01*
X23784024Y-52290342D01*
X23669058Y-52462403D01*
X23589870Y-52653579D01*
X23589868Y-52653587D01*
X23549500Y-52856530D01*
X23549500Y-53063469D01*
X23589868Y-53266412D01*
X23589870Y-53266420D01*
X23655939Y-53425925D01*
X23669059Y-53457598D01*
X23682836Y-53478217D01*
X23784024Y-53629657D01*
X23930342Y-53775975D01*
X24102405Y-53890943D01*
X24205043Y-53933456D01*
X24267108Y-53959164D01*
X24321511Y-54003005D01*
X24343576Y-54069299D01*
X24326297Y-54136998D01*
X24275160Y-54184609D01*
X24257974Y-54191656D01*
X24081781Y-54248905D01*
X23892442Y-54345379D01*
X23720540Y-54470272D01*
X23720535Y-54470276D01*
X23570276Y-54620535D01*
X23570272Y-54620540D01*
X23445379Y-54792442D01*
X23348905Y-54981781D01*
X23291656Y-55157974D01*
X23252218Y-55215649D01*
X23187859Y-55242847D01*
X23119013Y-55230932D01*
X23067537Y-55183688D01*
X23059164Y-55167107D01*
X22990943Y-55002405D01*
X22875975Y-54830342D01*
X22729657Y-54684024D01*
X22634638Y-54620535D01*
X22557598Y-54569059D01*
X22557593Y-54569057D01*
X22366420Y-54489870D01*
X22366412Y-54489868D01*
X22163469Y-54449500D01*
X22163465Y-54449500D01*
X21956535Y-54449500D01*
X21956530Y-54449500D01*
X21753587Y-54489868D01*
X21753575Y-54489871D01*
X21608027Y-54550159D01*
X21538558Y-54557628D01*
X21476079Y-54526353D01*
X21472894Y-54523279D01*
X20751059Y-53801444D01*
X20751058Y-53801443D01*
X20649800Y-53759500D01*
X20481205Y-53759500D01*
X20414166Y-53739815D01*
X20368411Y-53687011D01*
X20358467Y-53617853D01*
X20378102Y-53566610D01*
X20410885Y-53517546D01*
X20450941Y-53457598D01*
X20530130Y-53266420D01*
X20570500Y-53063465D01*
X20570500Y-52856535D01*
X20530130Y-52653580D01*
X20469839Y-52508027D01*
X20462371Y-52438559D01*
X20493646Y-52376079D01*
X20496660Y-52372954D01*
X20807799Y-52061816D01*
X20869120Y-52028334D01*
X20895478Y-52025500D01*
X21209505Y-52025500D01*
X21276544Y-52045185D01*
G37*
%TD.AperFunction*%
%TA.AperFunction,Conductor*%
G36*
X43492916Y-53417615D02*
G01*
X43535288Y-53473170D01*
X43543500Y-53517546D01*
X43543500Y-54454950D01*
X43523815Y-54521989D01*
X43471011Y-54567744D01*
X43401853Y-54577688D01*
X43338297Y-54548663D01*
X43331819Y-54542631D01*
X43259464Y-54470276D01*
X43259459Y-54470272D01*
X43087557Y-54345379D01*
X42898216Y-54248904D01*
X42722026Y-54191656D01*
X42664350Y-54152218D01*
X42637152Y-54087860D01*
X42649067Y-54019013D01*
X42696311Y-53967538D01*
X42712882Y-53959168D01*
X42877598Y-53890941D01*
X43049655Y-53775977D01*
X43195977Y-53629655D01*
X43310941Y-53457598D01*
X43310943Y-53457594D01*
X43314325Y-53452533D01*
X43315690Y-53453445D01*
X43359098Y-53409252D01*
X43427234Y-53393787D01*
X43492916Y-53417615D01*
G37*
%TD.AperFunction*%
%TA.AperFunction,Conductor*%
G36*
X42826562Y-29595185D02*
G01*
X42847204Y-29611819D01*
X45088181Y-31852796D01*
X45121666Y-31914119D01*
X45124500Y-31940477D01*
X45124500Y-50659522D01*
X45104815Y-50726561D01*
X45088181Y-50747203D01*
X43662942Y-52172443D01*
X43585444Y-52249940D01*
X43585443Y-52249941D01*
X43585443Y-52249942D01*
X43584406Y-52252445D01*
X43543500Y-52351199D01*
X43543500Y-52402453D01*
X43523815Y-52469492D01*
X43471011Y-52515247D01*
X43401853Y-52525191D01*
X43338297Y-52496166D01*
X43315013Y-52467007D01*
X43314325Y-52467467D01*
X43309282Y-52459920D01*
X43195977Y-52290345D01*
X43195975Y-52290342D01*
X43049657Y-52144024D01*
X42954638Y-52080535D01*
X42877598Y-52029059D01*
X42847915Y-52016764D01*
X42686420Y-51949870D01*
X42686412Y-51949868D01*
X42483469Y-51909500D01*
X42483465Y-51909500D01*
X42276535Y-51909500D01*
X42245013Y-51915770D01*
X42175421Y-51909541D01*
X42120245Y-51866678D01*
X42097001Y-51800788D01*
X42113070Y-51732791D01*
X42133138Y-51706475D01*
X44558558Y-49281058D01*
X44558558Y-49281056D01*
X44558560Y-49281055D01*
X44586262Y-49214174D01*
X44600500Y-49179800D01*
X44600500Y-49070200D01*
X44600500Y-32545200D01*
X44558557Y-32443942D01*
X44481058Y-32366443D01*
X41901796Y-29787181D01*
X41868311Y-29725858D01*
X41873295Y-29656166D01*
X41915167Y-29600233D01*
X41980631Y-29575816D01*
X41989477Y-29575500D01*
X42759523Y-29575500D01*
X42826562Y-29595185D01*
G37*
%TD.AperFunction*%
%TA.AperFunction,Conductor*%
G36*
X43876562Y-29195185D02*
G01*
X43897204Y-29211819D01*
X46047181Y-31361796D01*
X46080666Y-31423119D01*
X46083500Y-31449477D01*
X46083500Y-52402453D01*
X46063815Y-52469492D01*
X46011011Y-52515247D01*
X45941853Y-52525191D01*
X45878297Y-52496166D01*
X45855013Y-52467007D01*
X45854325Y-52467467D01*
X45849282Y-52459920D01*
X45735977Y-52290345D01*
X45735975Y-52290342D01*
X45589657Y-52144024D01*
X45494638Y-52080535D01*
X45417598Y-52029059D01*
X45387915Y-52016764D01*
X45226420Y-51949870D01*
X45226412Y-51949868D01*
X45023469Y-51909500D01*
X45023465Y-51909500D01*
X45004476Y-51909500D01*
X44937437Y-51889815D01*
X44891682Y-51837011D01*
X44881738Y-51767853D01*
X44910763Y-51704297D01*
X44916788Y-51697826D01*
X45633558Y-50981058D01*
X45633558Y-50981056D01*
X45633560Y-50981055D01*
X45654529Y-50930429D01*
X45675500Y-50879800D01*
X45675500Y-50770200D01*
X45675500Y-31720200D01*
X45667340Y-31700500D01*
X45664231Y-31692993D01*
X45633560Y-31618944D01*
X45633558Y-31618942D01*
X44545497Y-30530881D01*
X43401795Y-29387180D01*
X43368311Y-29325858D01*
X43373295Y-29256166D01*
X43415167Y-29200233D01*
X43480631Y-29175816D01*
X43489477Y-29175500D01*
X43809523Y-29175500D01*
X43876562Y-29195185D01*
G37*
%TD.AperFunction*%
%TA.AperFunction,Conductor*%
G36*
X41426562Y-30095185D02*
G01*
X41447204Y-30111819D01*
X44013181Y-32677796D01*
X44046666Y-32739119D01*
X44049500Y-32765477D01*
X44049500Y-48959522D01*
X44029815Y-49026561D01*
X44013181Y-49047203D01*
X41622204Y-51438181D01*
X41560881Y-51471666D01*
X41534523Y-51474500D01*
X25173438Y-51474500D01*
X25106399Y-51454815D01*
X25060644Y-51402011D01*
X25051718Y-51342436D01*
X25050500Y-51342436D01*
X25050500Y-51324500D01*
X25070185Y-51257461D01*
X25122989Y-51211706D01*
X25174500Y-51200500D01*
X40554799Y-51200500D01*
X40554800Y-51200500D01*
X40656058Y-51158557D01*
X40733557Y-51081058D01*
X40733556Y-51081058D01*
X40792125Y-51022489D01*
X40792124Y-51022489D01*
X43508558Y-48306058D01*
X43508558Y-48306056D01*
X43508560Y-48306055D01*
X43529529Y-48255429D01*
X43550500Y-48204800D01*
X43550500Y-48095200D01*
X43550500Y-33220200D01*
X43517077Y-33139511D01*
X43508557Y-33118941D01*
X40676795Y-30287180D01*
X40643311Y-30225858D01*
X40648295Y-30156166D01*
X40690167Y-30100233D01*
X40755631Y-30075816D01*
X40764477Y-30075500D01*
X41359523Y-30075500D01*
X41426562Y-30095185D01*
G37*
%TD.AperFunction*%
%TA.AperFunction,Conductor*%
G36*
X40201562Y-30595185D02*
G01*
X40222204Y-30611819D01*
X42511842Y-32901457D01*
X42545327Y-32962780D01*
X42540343Y-33032472D01*
X42498471Y-33088405D01*
X42433007Y-33112822D01*
X42364734Y-33097970D01*
X42362161Y-33096525D01*
X42333889Y-33080202D01*
X42333890Y-33080202D01*
X42324494Y-33077684D01*
X42219309Y-33049500D01*
X42100691Y-33049500D01*
X41986114Y-33080201D01*
X41986112Y-33080201D01*
X41986112Y-33080202D01*
X41883387Y-33139511D01*
X41883384Y-33139513D01*
X41799513Y-33223384D01*
X41799511Y-33223387D01*
X41740201Y-33326114D01*
X41709500Y-33440691D01*
X41709500Y-33559309D01*
X41740201Y-33673886D01*
X41799511Y-33776613D01*
X41883387Y-33860489D01*
X41986114Y-33919799D01*
X42100691Y-33950500D01*
X42100694Y-33950500D01*
X42219306Y-33950500D01*
X42219309Y-33950500D01*
X42333886Y-33919799D01*
X42436613Y-33860489D01*
X42520489Y-33776613D01*
X42579799Y-33673886D01*
X42610500Y-33559309D01*
X42610500Y-33440691D01*
X42579799Y-33326114D01*
X42563473Y-33297838D01*
X42547001Y-33229939D01*
X42569853Y-33163912D01*
X42624774Y-33120721D01*
X42694327Y-33114079D01*
X42756430Y-33146094D01*
X42758542Y-33148157D01*
X42963181Y-33352796D01*
X42996666Y-33414119D01*
X42999500Y-33440477D01*
X42999500Y-47984522D01*
X42979815Y-48051561D01*
X42963181Y-48072203D01*
X40422204Y-50613181D01*
X40360881Y-50646666D01*
X40334523Y-50649500D01*
X35169478Y-50649500D01*
X35102439Y-50629815D01*
X35056684Y-50577011D01*
X35046740Y-50507853D01*
X35075765Y-50444297D01*
X35081797Y-50437819D01*
X35122116Y-50397499D01*
X35122129Y-50397484D01*
X35397785Y-50121828D01*
X35459106Y-50088345D01*
X35528798Y-50093329D01*
X35554354Y-50106408D01*
X35594085Y-50132956D01*
X35769249Y-50205512D01*
X35955197Y-50242499D01*
X35955201Y-50242500D01*
X35955202Y-50242500D01*
X36144799Y-50242500D01*
X36144800Y-50242499D01*
X36330751Y-50205512D01*
X36505915Y-50132956D01*
X36663558Y-50027622D01*
X36797622Y-49893558D01*
X36902956Y-49735915D01*
X36975512Y-49560751D01*
X37012500Y-49374798D01*
X37012500Y-49185202D01*
X36975512Y-48999249D01*
X36902956Y-48824085D01*
X36867686Y-48771300D01*
X36797622Y-48666441D01*
X36694075Y-48562894D01*
X36660590Y-48501571D01*
X36665574Y-48431879D01*
X36683797Y-48399186D01*
X36705055Y-48371794D01*
X36733453Y-48360057D01*
X36733458Y-48360051D01*
X36733465Y-48360049D01*
X36764053Y-48329500D01*
X36789895Y-48303695D01*
X36789897Y-48303688D01*
X36789903Y-48303683D01*
X36805736Y-48265526D01*
X36820471Y-48230025D01*
X36820471Y-48230018D01*
X36820474Y-48230011D01*
X36820500Y-48189118D01*
X36820528Y-48150261D01*
X36820527Y-48150259D01*
X36820536Y-48137673D01*
X36820533Y-48137633D01*
X36820737Y-47819500D01*
X36830384Y-32780691D01*
X40489500Y-32780691D01*
X40489500Y-32899309D01*
X40520201Y-33013886D01*
X40579511Y-33116613D01*
X40663387Y-33200489D01*
X40766114Y-33259799D01*
X40880691Y-33290500D01*
X40880694Y-33290500D01*
X40999306Y-33290500D01*
X40999309Y-33290500D01*
X41113886Y-33259799D01*
X41216613Y-33200489D01*
X41300489Y-33116613D01*
X41359799Y-33013886D01*
X41390500Y-32899309D01*
X41390500Y-32780691D01*
X41359799Y-32666114D01*
X41300489Y-32563387D01*
X41216613Y-32479511D01*
X41113886Y-32420201D01*
X40999309Y-32389500D01*
X40880691Y-32389500D01*
X40766114Y-32420201D01*
X40766112Y-32420201D01*
X40766112Y-32420202D01*
X40663387Y-32479511D01*
X40663384Y-32479513D01*
X40579513Y-32563384D01*
X40579511Y-32563387D01*
X40541141Y-32629846D01*
X40520201Y-32666114D01*
X40489500Y-32780691D01*
X36830384Y-32780691D01*
X36830469Y-32647445D01*
X36830490Y-32647257D01*
X36830497Y-32604314D01*
X36830497Y-32604252D01*
X36830529Y-32555290D01*
X36830506Y-32555180D01*
X36830507Y-32555177D01*
X36799996Y-32481479D01*
X36743604Y-32425067D01*
X36732963Y-32420657D01*
X36678568Y-32376807D01*
X36656515Y-32310509D01*
X36673807Y-32242812D01*
X36692752Y-32218427D01*
X36797622Y-32113558D01*
X36902956Y-31955915D01*
X36975512Y-31780751D01*
X37012500Y-31594798D01*
X37012500Y-31405202D01*
X36975512Y-31219249D01*
X36902956Y-31044085D01*
X36867686Y-30991300D01*
X36797622Y-30886441D01*
X36698362Y-30787181D01*
X36664877Y-30725858D01*
X36669861Y-30656166D01*
X36711733Y-30600233D01*
X36777197Y-30575816D01*
X36786043Y-30575500D01*
X40134523Y-30575500D01*
X40201562Y-30595185D01*
G37*
%TD.AperFunction*%
%TA.AperFunction,Conductor*%
G36*
X22589026Y-48380520D02*
G01*
X22656050Y-48400252D01*
X22701767Y-48453089D01*
X22711661Y-48522254D01*
X22682591Y-48585789D01*
X22676618Y-48592201D01*
X22602377Y-48666442D01*
X22497042Y-48824087D01*
X22424488Y-48999248D01*
X22424486Y-48999256D01*
X22387500Y-49185197D01*
X22387500Y-49374802D01*
X22424486Y-49560743D01*
X22424488Y-49560751D01*
X22497042Y-49735912D01*
X22497043Y-49735914D01*
X22497044Y-49735915D01*
X22503732Y-49745925D01*
X22560985Y-49831609D01*
X22581863Y-49898287D01*
X22563378Y-49965667D01*
X22511400Y-50012357D01*
X22457883Y-50024500D01*
X21702117Y-50024500D01*
X21635078Y-50004815D01*
X21589323Y-49952011D01*
X21579379Y-49882853D01*
X21599015Y-49831609D01*
X21633499Y-49780000D01*
X21662956Y-49735915D01*
X21735512Y-49560751D01*
X21772500Y-49374798D01*
X21772500Y-49185202D01*
X21735512Y-48999249D01*
X21662956Y-48824085D01*
X21627686Y-48771300D01*
X21557622Y-48666441D01*
X21482658Y-48591477D01*
X21449173Y-48530154D01*
X21454157Y-48460462D01*
X21496029Y-48404529D01*
X21561493Y-48380112D01*
X21570421Y-48379796D01*
X22589026Y-48380520D01*
G37*
%TD.AperFunction*%
%TA.AperFunction,Conductor*%
G36*
X25127220Y-48382325D02*
G01*
X25194245Y-48402057D01*
X25239962Y-48454894D01*
X25249856Y-48524059D01*
X25220786Y-48587594D01*
X25214813Y-48594006D01*
X25142377Y-48666442D01*
X25037042Y-48824087D01*
X24964488Y-48999248D01*
X24964486Y-48999256D01*
X24927500Y-49185197D01*
X24927500Y-49374802D01*
X24964486Y-49560743D01*
X24964488Y-49560751D01*
X25037042Y-49735912D01*
X25037043Y-49735914D01*
X25037044Y-49735915D01*
X25043732Y-49745925D01*
X25100985Y-49831609D01*
X25121863Y-49898287D01*
X25103378Y-49965667D01*
X25051400Y-50012357D01*
X24997883Y-50024500D01*
X24242117Y-50024500D01*
X24175078Y-50004815D01*
X24129323Y-49952011D01*
X24119379Y-49882853D01*
X24139015Y-49831609D01*
X24173499Y-49780000D01*
X24202956Y-49735915D01*
X24275512Y-49560751D01*
X24312500Y-49374798D01*
X24312500Y-49185202D01*
X24275512Y-48999249D01*
X24202956Y-48824085D01*
X24167686Y-48771300D01*
X24097622Y-48666441D01*
X24024465Y-48593284D01*
X23990980Y-48531961D01*
X23995964Y-48462269D01*
X24037836Y-48406336D01*
X24103300Y-48381919D01*
X24112221Y-48381603D01*
X25127220Y-48382325D01*
G37*
%TD.AperFunction*%
%TA.AperFunction,Conductor*%
G36*
X27665415Y-48384130D02*
G01*
X27732440Y-48403862D01*
X27778157Y-48456699D01*
X27788051Y-48525864D01*
X27758981Y-48589399D01*
X27753008Y-48595811D01*
X27682377Y-48666442D01*
X27577042Y-48824087D01*
X27504488Y-48999248D01*
X27504486Y-48999256D01*
X27467500Y-49185197D01*
X27467500Y-49374802D01*
X27504486Y-49560743D01*
X27504488Y-49560751D01*
X27577042Y-49735912D01*
X27577043Y-49735914D01*
X27577044Y-49735915D01*
X27583732Y-49745925D01*
X27640985Y-49831609D01*
X27661863Y-49898287D01*
X27643378Y-49965667D01*
X27591400Y-50012357D01*
X27537883Y-50024500D01*
X26782117Y-50024500D01*
X26715078Y-50004815D01*
X26669323Y-49952011D01*
X26659379Y-49882853D01*
X26679015Y-49831609D01*
X26713499Y-49780000D01*
X26742956Y-49735915D01*
X26815512Y-49560751D01*
X26852500Y-49374798D01*
X26852500Y-49185202D01*
X26815512Y-48999249D01*
X26742956Y-48824085D01*
X26707686Y-48771300D01*
X26637622Y-48666441D01*
X26566273Y-48595092D01*
X26532788Y-48533769D01*
X26537772Y-48464077D01*
X26579644Y-48408144D01*
X26645108Y-48383727D01*
X26654029Y-48383411D01*
X27665415Y-48384130D01*
G37*
%TD.AperFunction*%
%TA.AperFunction,Conductor*%
G36*
X30203612Y-48385935D02*
G01*
X30270635Y-48405667D01*
X30316352Y-48458504D01*
X30326246Y-48527669D01*
X30297176Y-48591204D01*
X30291203Y-48597616D01*
X30222377Y-48666442D01*
X30117042Y-48824087D01*
X30044488Y-48999248D01*
X30044486Y-48999256D01*
X30007500Y-49185197D01*
X30007500Y-49374802D01*
X30044486Y-49560743D01*
X30044488Y-49560751D01*
X30117042Y-49735912D01*
X30117043Y-49735914D01*
X30117044Y-49735915D01*
X30123732Y-49745925D01*
X30180985Y-49831609D01*
X30201863Y-49898287D01*
X30183378Y-49965667D01*
X30131400Y-50012357D01*
X30077883Y-50024500D01*
X29322117Y-50024500D01*
X29255078Y-50004815D01*
X29209323Y-49952011D01*
X29199379Y-49882853D01*
X29219015Y-49831609D01*
X29253499Y-49780000D01*
X29282956Y-49735915D01*
X29355512Y-49560751D01*
X29392500Y-49374798D01*
X29392500Y-49185202D01*
X29355512Y-48999249D01*
X29282956Y-48824085D01*
X29247686Y-48771300D01*
X29177622Y-48666441D01*
X29108080Y-48596899D01*
X29074595Y-48535576D01*
X29079579Y-48465884D01*
X29121451Y-48409951D01*
X29186915Y-48385534D01*
X29195824Y-48385218D01*
X30203612Y-48385935D01*
G37*
%TD.AperFunction*%
%TA.AperFunction,Conductor*%
G36*
X32741807Y-48387740D02*
G01*
X32808830Y-48407472D01*
X32854547Y-48460309D01*
X32864441Y-48529474D01*
X32835371Y-48593009D01*
X32829398Y-48599421D01*
X32762377Y-48666442D01*
X32657042Y-48824087D01*
X32584488Y-48999248D01*
X32584486Y-48999256D01*
X32547500Y-49185197D01*
X32547500Y-49374802D01*
X32584486Y-49560743D01*
X32584488Y-49560751D01*
X32657042Y-49735912D01*
X32657043Y-49735914D01*
X32657044Y-49735915D01*
X32663732Y-49745925D01*
X32720985Y-49831609D01*
X32741863Y-49898287D01*
X32723378Y-49965667D01*
X32671400Y-50012357D01*
X32617883Y-50024500D01*
X31862117Y-50024500D01*
X31795078Y-50004815D01*
X31749323Y-49952011D01*
X31739379Y-49882853D01*
X31759015Y-49831609D01*
X31793499Y-49780000D01*
X31822956Y-49735915D01*
X31895512Y-49560751D01*
X31932500Y-49374798D01*
X31932500Y-49185202D01*
X31895512Y-48999249D01*
X31822956Y-48824085D01*
X31787686Y-48771300D01*
X31717622Y-48666441D01*
X31649888Y-48598707D01*
X31616403Y-48537384D01*
X31621387Y-48467692D01*
X31663259Y-48411759D01*
X31728723Y-48387342D01*
X31737632Y-48387026D01*
X32741807Y-48387740D01*
G37*
%TD.AperFunction*%
%TA.AperFunction,Conductor*%
G36*
X35280002Y-48389545D02*
G01*
X35347025Y-48409277D01*
X35392742Y-48462114D01*
X35402636Y-48531279D01*
X35373566Y-48594814D01*
X35367593Y-48601226D01*
X35302377Y-48666442D01*
X35197042Y-48824087D01*
X35124488Y-48999248D01*
X35124486Y-48999256D01*
X35087500Y-49185197D01*
X35087500Y-49374802D01*
X35120706Y-49541740D01*
X35114479Y-49611332D01*
X35086770Y-49653612D01*
X34752202Y-49988182D01*
X34690882Y-50021666D01*
X34664523Y-50024500D01*
X34402117Y-50024500D01*
X34335078Y-50004815D01*
X34289323Y-49952011D01*
X34279379Y-49882853D01*
X34299015Y-49831609D01*
X34333499Y-49780000D01*
X34362956Y-49735915D01*
X34435512Y-49560751D01*
X34472500Y-49374798D01*
X34472500Y-49185202D01*
X34435512Y-48999249D01*
X34362956Y-48824085D01*
X34327686Y-48771300D01*
X34257622Y-48666441D01*
X34191696Y-48600515D01*
X34158211Y-48539192D01*
X34163195Y-48469500D01*
X34205067Y-48413567D01*
X34270531Y-48389150D01*
X34279440Y-48388834D01*
X35280002Y-48389545D01*
G37*
%TD.AperFunction*%
%TA.AperFunction,Conductor*%
G36*
X35380996Y-30595185D02*
G01*
X35426751Y-30647989D01*
X35436695Y-30717147D01*
X35407670Y-30780703D01*
X35401638Y-30787181D01*
X35302380Y-30886438D01*
X35302377Y-30886441D01*
X35197042Y-31044087D01*
X35124488Y-31219248D01*
X35124486Y-31219256D01*
X35087500Y-31405197D01*
X35087500Y-31594802D01*
X35124486Y-31780743D01*
X35124488Y-31780751D01*
X35197042Y-31955912D01*
X35302377Y-32113558D01*
X35371419Y-32182600D01*
X35404904Y-32243923D01*
X35399920Y-32313615D01*
X35358048Y-32369548D01*
X35292584Y-32393965D01*
X35283716Y-32394281D01*
X34276418Y-32394102D01*
X34209382Y-32374406D01*
X34163636Y-32321593D01*
X34153705Y-32252433D01*
X34182741Y-32188883D01*
X34188745Y-32182434D01*
X34257622Y-32113558D01*
X34362956Y-31955915D01*
X34435512Y-31780751D01*
X34472500Y-31594798D01*
X34472500Y-31405202D01*
X34435512Y-31219249D01*
X34362956Y-31044085D01*
X34327686Y-30991300D01*
X34257622Y-30886441D01*
X34158362Y-30787181D01*
X34124877Y-30725858D01*
X34129861Y-30656166D01*
X34171733Y-30600233D01*
X34237197Y-30575816D01*
X34246043Y-30575500D01*
X35313957Y-30575500D01*
X35380996Y-30595185D01*
G37*
%TD.AperFunction*%
%TA.AperFunction,Conductor*%
G36*
X32840996Y-30595185D02*
G01*
X32886751Y-30647989D01*
X32896695Y-30717147D01*
X32867670Y-30780703D01*
X32861638Y-30787181D01*
X32762380Y-30886438D01*
X32762377Y-30886441D01*
X32657042Y-31044087D01*
X32584488Y-31219248D01*
X32584486Y-31219256D01*
X32547500Y-31405197D01*
X32547500Y-31594802D01*
X32584486Y-31780743D01*
X32584488Y-31780751D01*
X32657042Y-31955912D01*
X32762377Y-32113558D01*
X32830966Y-32182147D01*
X32864451Y-32243470D01*
X32859467Y-32313162D01*
X32817595Y-32369095D01*
X32752131Y-32393512D01*
X32743263Y-32393828D01*
X31736871Y-32393649D01*
X31669835Y-32373953D01*
X31624089Y-32321140D01*
X31614158Y-32251980D01*
X31643194Y-32188430D01*
X31649198Y-32181981D01*
X31717622Y-32113558D01*
X31822956Y-31955915D01*
X31895512Y-31780751D01*
X31932500Y-31594798D01*
X31932500Y-31405202D01*
X31895512Y-31219249D01*
X31822956Y-31044085D01*
X31787686Y-30991300D01*
X31717622Y-30886441D01*
X31618362Y-30787181D01*
X31584877Y-30725858D01*
X31589861Y-30656166D01*
X31631733Y-30600233D01*
X31697197Y-30575816D01*
X31706043Y-30575500D01*
X32773957Y-30575500D01*
X32840996Y-30595185D01*
G37*
%TD.AperFunction*%
%TA.AperFunction,Conductor*%
G36*
X30300996Y-30595185D02*
G01*
X30346751Y-30647989D01*
X30356695Y-30717147D01*
X30327670Y-30780703D01*
X30321638Y-30787181D01*
X30222380Y-30886438D01*
X30222377Y-30886441D01*
X30117042Y-31044087D01*
X30044488Y-31219248D01*
X30044486Y-31219256D01*
X30007500Y-31405197D01*
X30007500Y-31594802D01*
X30044486Y-31780743D01*
X30044488Y-31780751D01*
X30117042Y-31955912D01*
X30222377Y-32113558D01*
X30290512Y-32181693D01*
X30323997Y-32243016D01*
X30319013Y-32312708D01*
X30277141Y-32368641D01*
X30211677Y-32393058D01*
X30202809Y-32393374D01*
X29197325Y-32393195D01*
X29130289Y-32373499D01*
X29084543Y-32320686D01*
X29074612Y-32251526D01*
X29103649Y-32187976D01*
X29109652Y-32181527D01*
X29177622Y-32113558D01*
X29282956Y-31955915D01*
X29355512Y-31780751D01*
X29392500Y-31594798D01*
X29392500Y-31405202D01*
X29355512Y-31219249D01*
X29282956Y-31044085D01*
X29247686Y-30991300D01*
X29177622Y-30886441D01*
X29078362Y-30787181D01*
X29044877Y-30725858D01*
X29049861Y-30656166D01*
X29091733Y-30600233D01*
X29157197Y-30575816D01*
X29166043Y-30575500D01*
X30233957Y-30575500D01*
X30300996Y-30595185D01*
G37*
%TD.AperFunction*%
%TA.AperFunction,Conductor*%
G36*
X27760996Y-30595185D02*
G01*
X27806751Y-30647989D01*
X27816695Y-30717147D01*
X27787670Y-30780703D01*
X27781638Y-30787181D01*
X27682380Y-30886438D01*
X27682377Y-30886441D01*
X27577042Y-31044087D01*
X27504488Y-31219248D01*
X27504486Y-31219256D01*
X27467500Y-31405197D01*
X27467500Y-31594802D01*
X27504486Y-31780743D01*
X27504488Y-31780751D01*
X27577042Y-31955912D01*
X27682377Y-32113558D01*
X27750059Y-32181240D01*
X27783544Y-32242563D01*
X27778560Y-32312255D01*
X27736688Y-32368188D01*
X27671224Y-32392605D01*
X27662356Y-32392921D01*
X26657779Y-32392741D01*
X26590743Y-32373044D01*
X26544997Y-32320232D01*
X26535066Y-32251072D01*
X26564103Y-32187521D01*
X26570106Y-32181073D01*
X26637622Y-32113558D01*
X26742956Y-31955915D01*
X26815512Y-31780751D01*
X26852500Y-31594798D01*
X26852500Y-31405202D01*
X26815512Y-31219249D01*
X26742956Y-31044085D01*
X26707686Y-30991300D01*
X26637622Y-30886441D01*
X26538362Y-30787181D01*
X26504877Y-30725858D01*
X26509861Y-30656166D01*
X26551733Y-30600233D01*
X26617197Y-30575816D01*
X26626043Y-30575500D01*
X27693957Y-30575500D01*
X27760996Y-30595185D01*
G37*
%TD.AperFunction*%
%TA.AperFunction,Conductor*%
G36*
X25220996Y-30595185D02*
G01*
X25266751Y-30647989D01*
X25276695Y-30717147D01*
X25247670Y-30780703D01*
X25241638Y-30787181D01*
X25142380Y-30886438D01*
X25142377Y-30886441D01*
X25037042Y-31044087D01*
X24964488Y-31219248D01*
X24964486Y-31219256D01*
X24927500Y-31405197D01*
X24927500Y-31594802D01*
X24964486Y-31780743D01*
X24964488Y-31780751D01*
X25037042Y-31955912D01*
X25142377Y-32113558D01*
X25209605Y-32180786D01*
X25243090Y-32242109D01*
X25238106Y-32311801D01*
X25196234Y-32367734D01*
X25130770Y-32392151D01*
X25121902Y-32392467D01*
X24118232Y-32392288D01*
X24051196Y-32372591D01*
X24005450Y-32319779D01*
X23995519Y-32250619D01*
X24024556Y-32187069D01*
X24030559Y-32180620D01*
X24097622Y-32113558D01*
X24202956Y-31955915D01*
X24275512Y-31780751D01*
X24312500Y-31594798D01*
X24312500Y-31405202D01*
X24275512Y-31219249D01*
X24202956Y-31044085D01*
X24167686Y-30991300D01*
X24097622Y-30886441D01*
X23998362Y-30787181D01*
X23964877Y-30725858D01*
X23969861Y-30656166D01*
X24011733Y-30600233D01*
X24077197Y-30575816D01*
X24086043Y-30575500D01*
X25153957Y-30575500D01*
X25220996Y-30595185D01*
G37*
%TD.AperFunction*%
%TA.AperFunction,Conductor*%
G36*
X23394041Y-30095185D02*
G01*
X23439796Y-30147989D01*
X23449740Y-30217147D01*
X23420715Y-30280703D01*
X23414702Y-30287161D01*
X23221559Y-30480304D01*
X23168405Y-30533458D01*
X23107082Y-30566942D01*
X23104915Y-30567393D01*
X23069256Y-30574486D01*
X23069248Y-30574488D01*
X22894087Y-30647042D01*
X22736441Y-30752377D01*
X22602377Y-30886441D01*
X22497042Y-31044087D01*
X22424488Y-31219248D01*
X22424486Y-31219256D01*
X22387500Y-31405197D01*
X22387500Y-31594802D01*
X22424486Y-31780743D01*
X22424488Y-31780751D01*
X22497042Y-31955912D01*
X22602377Y-32113558D01*
X22669152Y-32180333D01*
X22702637Y-32241656D01*
X22697653Y-32311348D01*
X22655781Y-32367281D01*
X22590317Y-32391698D01*
X22581449Y-32392014D01*
X21578686Y-32391834D01*
X21511650Y-32372137D01*
X21465904Y-32319325D01*
X21455973Y-32250165D01*
X21485010Y-32186614D01*
X21491013Y-32180166D01*
X21557622Y-32113558D01*
X21662956Y-31955915D01*
X21735512Y-31780751D01*
X21772500Y-31594798D01*
X21772500Y-31405202D01*
X21735512Y-31219249D01*
X21662956Y-31044085D01*
X21627686Y-30991300D01*
X21557622Y-30886441D01*
X21423558Y-30752377D01*
X21265912Y-30647042D01*
X21090751Y-30574488D01*
X21090743Y-30574486D01*
X21085309Y-30573405D01*
X21023398Y-30541020D01*
X20988824Y-30480304D01*
X20985500Y-30451788D01*
X20985500Y-30199500D01*
X21005185Y-30132461D01*
X21057989Y-30086706D01*
X21109500Y-30075500D01*
X23327002Y-30075500D01*
X23394041Y-30095185D01*
G37*
%TD.AperFunction*%
%TA.AperFunction,Conductor*%
G36*
X20354052Y-29708077D02*
G01*
X20409985Y-29749949D01*
X20434402Y-29815413D01*
X20433782Y-29825357D01*
X20434500Y-29825357D01*
X20434500Y-30530881D01*
X20414815Y-30597920D01*
X20362011Y-30643675D01*
X20357955Y-30645441D01*
X20354085Y-30647043D01*
X20196441Y-30752377D01*
X20062377Y-30886441D01*
X19957042Y-31044087D01*
X19884488Y-31219248D01*
X19884486Y-31219256D01*
X19847500Y-31405197D01*
X19847500Y-31594802D01*
X19884486Y-31780743D01*
X19884488Y-31780751D01*
X19957042Y-31955912D01*
X20062377Y-32113558D01*
X20128698Y-32179879D01*
X20162183Y-32241202D01*
X20157199Y-32310894D01*
X20115327Y-32366827D01*
X20049863Y-32391244D01*
X20040995Y-32391560D01*
X19039139Y-32391381D01*
X18972103Y-32371684D01*
X18926357Y-32318872D01*
X18916426Y-32249712D01*
X18945463Y-32186162D01*
X18951466Y-32179713D01*
X19017622Y-32113558D01*
X19122956Y-31955915D01*
X19195512Y-31780751D01*
X19232500Y-31594798D01*
X19232500Y-31405202D01*
X19195512Y-31219249D01*
X19122956Y-31044085D01*
X19096408Y-31004354D01*
X19075531Y-30937677D01*
X19094016Y-30870297D01*
X19111825Y-30847788D01*
X20223038Y-29736577D01*
X20284360Y-29703093D01*
X20354052Y-29708077D01*
G37*
%TD.AperFunction*%
%TA.AperFunction,Conductor*%
G36*
X19772561Y-29195185D02*
G01*
X19818316Y-29247989D01*
X19828260Y-29317147D01*
X19799235Y-29380703D01*
X19793203Y-29387181D01*
X18643612Y-30536770D01*
X18582289Y-30570255D01*
X18531740Y-30570706D01*
X18364802Y-30537500D01*
X18364798Y-30537500D01*
X18175202Y-30537500D01*
X18175197Y-30537500D01*
X17989256Y-30574486D01*
X17989248Y-30574488D01*
X17814087Y-30647042D01*
X17656441Y-30752377D01*
X17522377Y-30886441D01*
X17417042Y-31044087D01*
X17344488Y-31219248D01*
X17344486Y-31219256D01*
X17307500Y-31405197D01*
X17307500Y-31594802D01*
X17344486Y-31780743D01*
X17344488Y-31780751D01*
X17417042Y-31955912D01*
X17522377Y-32113558D01*
X17588244Y-32179425D01*
X17621729Y-32240748D01*
X17616745Y-32310440D01*
X17574873Y-32366373D01*
X17509409Y-32390790D01*
X17500541Y-32391106D01*
X16499592Y-32390928D01*
X16432556Y-32371232D01*
X16386810Y-32318419D01*
X16376879Y-32249259D01*
X16405915Y-32185709D01*
X16411919Y-32179260D01*
X16477622Y-32113558D01*
X16582956Y-31955915D01*
X16655512Y-31780751D01*
X16692500Y-31594798D01*
X16692500Y-31405202D01*
X16655512Y-31219249D01*
X16582956Y-31044085D01*
X16556408Y-31004354D01*
X16535531Y-30937677D01*
X16554016Y-30870297D01*
X16571826Y-30847787D01*
X18207796Y-29211819D01*
X18269119Y-29178334D01*
X18295477Y-29175500D01*
X19705522Y-29175500D01*
X19772561Y-29195185D01*
G37*
%TD.AperFunction*%
%TA.AperFunction,Conductor*%
G36*
X17707562Y-28720185D02*
G01*
X17753317Y-28772989D01*
X17763261Y-28842147D01*
X17734236Y-28905703D01*
X17728204Y-28912181D01*
X16103613Y-30536770D01*
X16042290Y-30570255D01*
X15991741Y-30570706D01*
X15824802Y-30537500D01*
X15824798Y-30537500D01*
X15635202Y-30537500D01*
X15635197Y-30537500D01*
X15449256Y-30574486D01*
X15449248Y-30574488D01*
X15274087Y-30647042D01*
X15116441Y-30752377D01*
X14982377Y-30886441D01*
X14877042Y-31044087D01*
X14804488Y-31219248D01*
X14804486Y-31219256D01*
X14767500Y-31405197D01*
X14767500Y-31594802D01*
X14804486Y-31780743D01*
X14804488Y-31780751D01*
X14877042Y-31955912D01*
X14982377Y-32113558D01*
X15047790Y-32178971D01*
X15081275Y-32240294D01*
X15076291Y-32309986D01*
X15034419Y-32365919D01*
X14968955Y-32390336D01*
X14960087Y-32390652D01*
X14346242Y-32390542D01*
X14279206Y-32370845D01*
X14233460Y-32318033D01*
X14223529Y-32248873D01*
X14245947Y-32193655D01*
X14269358Y-32161433D01*
X14359542Y-31984437D01*
X14420924Y-31795523D01*
X14420924Y-31795520D01*
X14452000Y-31599321D01*
X14452000Y-31400678D01*
X14420924Y-31204479D01*
X14420924Y-31204476D01*
X14359542Y-31015562D01*
X14269358Y-30838567D01*
X14242268Y-30801283D01*
X13672962Y-31370589D01*
X13655925Y-31307007D01*
X13590099Y-31192993D01*
X13497007Y-31099901D01*
X13382993Y-31034075D01*
X13319409Y-31017037D01*
X13888716Y-30447731D01*
X13888715Y-30447730D01*
X13851432Y-30420641D01*
X13674437Y-30330457D01*
X13485522Y-30269075D01*
X13289321Y-30238000D01*
X13090679Y-30238000D01*
X12894479Y-30269075D01*
X12894476Y-30269075D01*
X12705562Y-30330457D01*
X12528564Y-30420643D01*
X12491283Y-30447729D01*
X12491282Y-30447730D01*
X13060590Y-31017037D01*
X12997007Y-31034075D01*
X12882993Y-31099901D01*
X12789901Y-31192993D01*
X12724075Y-31307007D01*
X12707037Y-31370590D01*
X12137730Y-30801282D01*
X12137729Y-30801283D01*
X12110643Y-30838564D01*
X12020457Y-31015562D01*
X11959075Y-31204476D01*
X11959075Y-31204479D01*
X11928000Y-31400678D01*
X11928000Y-31599321D01*
X11959075Y-31795520D01*
X11959075Y-31795523D01*
X12020457Y-31984437D01*
X12110643Y-32161435D01*
X12133753Y-32193244D01*
X12157233Y-32259050D01*
X12141407Y-32327104D01*
X12091302Y-32375799D01*
X12033413Y-32390129D01*
X11427569Y-32390021D01*
X11360533Y-32370324D01*
X11314787Y-32317512D01*
X11304856Y-32248352D01*
X11333893Y-32184802D01*
X11339897Y-32178353D01*
X11387194Y-32131057D01*
X11412751Y-32099917D01*
X11496143Y-31975112D01*
X11515133Y-31939583D01*
X11572574Y-31800908D01*
X11584268Y-31762358D01*
X11613551Y-31615141D01*
X11617500Y-31575050D01*
X11617500Y-31424950D01*
X11613551Y-31384859D01*
X11584268Y-31237642D01*
X11572574Y-31199092D01*
X11515133Y-31060417D01*
X11506404Y-31044085D01*
X11496150Y-31024900D01*
X11496139Y-31024882D01*
X11412752Y-30900084D01*
X11387194Y-30868943D01*
X11281056Y-30762805D01*
X11249915Y-30737247D01*
X11125117Y-30653860D01*
X11125099Y-30653849D01*
X11089599Y-30634875D01*
X11089577Y-30634864D01*
X11033940Y-30611819D01*
X10982807Y-30590639D01*
X10950909Y-30577426D01*
X10927268Y-30570255D01*
X10912358Y-30565732D01*
X10912353Y-30565731D01*
X10912350Y-30565730D01*
X10765142Y-30536449D01*
X10765143Y-30536449D01*
X10753686Y-30535320D01*
X10725050Y-30532500D01*
X10574950Y-30532500D01*
X10546313Y-30535320D01*
X10534857Y-30536449D01*
X10387649Y-30565730D01*
X10349090Y-30577426D01*
X10210422Y-30634864D01*
X10210400Y-30634875D01*
X10174900Y-30653849D01*
X10174882Y-30653860D01*
X10050084Y-30737247D01*
X10018943Y-30762805D01*
X9912805Y-30868943D01*
X9887247Y-30900084D01*
X9803860Y-31024882D01*
X9803849Y-31024900D01*
X9784875Y-31060400D01*
X9784864Y-31060422D01*
X9727426Y-31199090D01*
X9715730Y-31237649D01*
X9688974Y-31372163D01*
X9686449Y-31384859D01*
X9682500Y-31424950D01*
X9682500Y-31575050D01*
X9683884Y-31589096D01*
X9686449Y-31615142D01*
X9707346Y-31720201D01*
X9715732Y-31762358D01*
X9722566Y-31784888D01*
X9727426Y-31800909D01*
X9784864Y-31939577D01*
X9784875Y-31939599D01*
X9803849Y-31975099D01*
X9803860Y-31975117D01*
X9887247Y-32099915D01*
X9912805Y-32131056D01*
X9959812Y-32178063D01*
X9993297Y-32239386D01*
X9988313Y-32309078D01*
X9946441Y-32365011D01*
X9880977Y-32389428D01*
X9872109Y-32389744D01*
X8824478Y-32389557D01*
X8757442Y-32369860D01*
X8711696Y-32317048D01*
X8700500Y-32265557D01*
X8700500Y-31503480D01*
X8700695Y-31496527D01*
X8704197Y-31434174D01*
X8717713Y-31193497D01*
X8719267Y-31179700D01*
X8769525Y-30883908D01*
X8772613Y-30870376D01*
X8855674Y-30582063D01*
X8860264Y-30568949D01*
X8860909Y-30567393D01*
X8975078Y-30291762D01*
X8981098Y-30279263D01*
X9126240Y-30016646D01*
X9133617Y-30004907D01*
X9307239Y-29760211D01*
X9315885Y-29749368D01*
X9515824Y-29525636D01*
X9525636Y-29515824D01*
X9749368Y-29315885D01*
X9760211Y-29307239D01*
X10004907Y-29133617D01*
X10016646Y-29126240D01*
X10279263Y-28981098D01*
X10291762Y-28975078D01*
X10568956Y-28860261D01*
X10582063Y-28855674D01*
X10870376Y-28772613D01*
X10883908Y-28769525D01*
X11179700Y-28719267D01*
X11193497Y-28717713D01*
X11496528Y-28700695D01*
X11503481Y-28700500D01*
X11539882Y-28700500D01*
X17640523Y-28700500D01*
X17707562Y-28720185D01*
G37*
%TD.AperFunction*%
%TD*%
M02*
