M48
; DRILL file {KiCad 9.0.4} date 2026-03-05T19:36:07-0500
; FORMAT={-:-/ absolute / inch / decimal}
; #@! TF.CreationDate,2026-03-05T19:36:07-05:00
; #@! TF.GenerationSoftware,Kicad,Pcbnew,9.0.4
; #@! TF.FileFunction,Plated,1,4,PTH
FMAT,2
INCH
; #@! TA.AperFunction,Plated,PTH,ViaDrill
T1C0.0118
; #@! TA.AperFunction,Plated,PTH,ComponentDrill
T2C0.0394
%
G90
G05
T1
X0.4094Y-2.0738
X0.422Y-1.9339
X0.438Y-1.1752
X0.5323Y-2.2736
X0.562Y-2.0561
X0.6024Y-2.2411
X0.6201Y-2.1427
X0.7197Y-1.1693
X0.7244Y-2.2372
X0.7248Y-1.9244
X0.7283Y-1.2874
X0.8218Y-1.2352
X0.9124Y-2.2274
X0.9181Y-2.1661
X0.9193Y-1.2382
X0.9382Y-2.0146
X1.0157Y-1.2844
X1.0167Y-2.2254
X1.0197Y-1.9843
X1.0933Y-2.2307
X1.1171Y-1.2864
X1.1181Y-1.9843
X1.2146Y-1.2864
X1.2189Y-2.1114
X1.2252Y-2.2201
X1.315Y-1.2864
X1.3179Y-2.2195
X1.3189Y-1.9843
X1.4183Y-1.2894
X1.4213Y-2.2205
X1.4587Y-1.2382
X1.5157Y-1.9291
X1.5167Y-2.2185
X1.5185Y-1.3079
X1.5614Y-1.3126
X1.5622Y-1.9213
X1.622Y-2.0167
X1.628Y-2.2165
X1.6378Y-1.2988
X1.6417Y-1.9134
X1.6781Y-1.5266
X1.6791Y-1.7539
X1.6835Y-1.6213
X1.7055Y-2.1201
X1.7156Y-1.9242
X1.7175Y-1.2874
X1.7237Y-2.2323
X1.7274Y-1.2254
X1.7598Y-1.9695
X1.8022Y-2.0148
X1.8031Y-2.2283
X1.8051Y-1.2402
X1.8209Y-1.1614
X1.8528Y-1.463
X1.8547Y-1.5102
X1.8583Y-1.9813
X1.8612Y-1.7687
X1.8652Y-1.5748
X1.9193Y-2.0453
X1.9654Y-1.6484
X1.9768Y-1.9732
X2.0012Y-2.1555
X2.0187Y-2.2057
X2.0425Y-2.0358
X2.0677Y-1.961
X2.1152Y-2.0492
X2.1171Y-2.1152
X2.1407Y-1.4331
X2.2116Y-1.187
X2.2165Y-2.1388
X2.2224Y-1.4941
X2.2244Y-1.7303
X2.2333Y-1.8937
X2.2352Y-1.9833
X2.3159Y-2.2274
X2.3228Y-2.1579
X2.4181Y-2.1622
X2.4213Y-2.2313
X2.4695Y-2.0266
X2.5207Y-2.247
X2.5768Y-1.1663
X2.6329Y-2.0108
T2
X0.376Y-1.2587
X0.376Y-1.9587
X0.476Y-1.2587
X0.476Y-1.9587
X0.576Y-1.2587
X0.576Y-1.9587
X0.6685Y-2.085
X0.6685Y-2.185
X0.676Y-1.2587
X0.676Y-1.9587
X0.7685Y-2.085
X0.7685Y-2.185
X0.776Y-1.2587
X0.776Y-1.9587
X0.8685Y-2.085
X0.8685Y-2.185
X0.876Y-1.2587
X0.876Y-1.9587
X0.9685Y-2.085
X0.9685Y-2.185
X0.976Y-1.2587
X0.976Y-1.9587
X1.0685Y-2.085
X1.0685Y-2.185
X1.076Y-1.2587
X1.076Y-1.9587
X1.1685Y-2.085
X1.1685Y-2.185
X1.176Y-1.2587
X1.176Y-1.9587
X1.2685Y-2.085
X1.2685Y-2.185
X1.276Y-1.2587
X1.276Y-1.9587
X1.3685Y-2.085
X1.3685Y-2.185
X1.376Y-1.2587
X1.376Y-1.9587
X1.4685Y-2.085
X1.4685Y-2.185
X1.5685Y-2.085
X1.5685Y-2.185
X1.6685Y-2.085
X1.6685Y-2.185
X1.7685Y-2.085
X1.7685Y-2.185
X1.8685Y-2.085
X1.8685Y-2.185
X1.9685Y-2.085
X1.9685Y-2.185
X2.0685Y-2.085
X2.0685Y-2.185
X2.1685Y-2.085
X2.1685Y-2.185
X2.2685Y-2.085
X2.2685Y-2.185
X2.3685Y-2.085
X2.3685Y-2.185
X2.4685Y-2.085
X2.4685Y-2.185
X2.5685Y-2.085
X2.5685Y-2.185
M30
