%TF.GenerationSoftware,KiCad,Pcbnew,9.0.4*%
%TF.CreationDate,2026-03-05T19:36:07-05:00*%
%TF.ProjectId,seedsigner-luckfox-pico-mini,73656564-7369-4676-9e65-722d6c75636b,sdfsdf*%
%TF.SameCoordinates,Original*%
%TF.FileFunction,Copper,L4,Bot*%
%TF.FilePolarity,Positive*%
%FSLAX46Y46*%
G04 Gerber Fmt 4.6, Leading zero omitted, Abs format (unit mm)*
G04 Created by KiCad (PCBNEW 9.0.4) date 2026-03-05 19:36:07*
%MOMM*%
%LPD*%
G01*
G04 APERTURE LIST*
G04 Aperture macros list*
%AMRoundRect*
0 Rectangle with rounded corners*
0 $1 Rounding radius*
0 $2 $3 $4 $5 $6 $7 $8 $9 X,Y pos of 4 corners*
0 Add a 4 corners polygon primitive as box body*
4,1,4,$2,$3,$4,$5,$6,$7,$8,$9,$2,$3,0*
0 Add four circle primitives for the rounded corners*
1,1,$1+$1,$2,$3*
1,1,$1+$1,$4,$5*
1,1,$1+$1,$6,$7*
1,1,$1+$1,$8,$9*
0 Add four rect primitives between the rounded corners*
20,1,$1+$1,$2,$3,$4,$5,0*
20,1,$1+$1,$4,$5,$6,$7,0*
20,1,$1+$1,$6,$7,$8,$9,0*
20,1,$1+$1,$8,$9,$2,$3,0*%
%AMFreePoly0*
4,1,33,0.221197,0.729189,0.359204,0.672024,0.483408,0.589034,0.589034,0.483408,0.672024,0.359204,0.729189,0.221197,0.758331,0.074689,0.758331,-0.074689,0.729189,-0.221197,0.672024,-0.359204,0.589034,-0.483408,0.483408,-0.589034,0.359204,-0.672024,0.221197,-0.729189,0.074689,-0.758331,-0.074689,-0.758331,-0.221197,-0.729189,-0.359204,-0.672024,-0.483408,-0.589034,-0.589034,-0.483408,
-0.672024,-0.359204,-0.729189,-0.221197,-0.758331,-0.074689,-0.758331,0.074689,-0.729189,0.221197,-0.672024,0.359204,-0.589034,0.483408,-0.483408,0.589034,-0.359204,0.672024,-0.221197,0.729189,-0.074689,0.758331,0.074689,0.758331,0.221197,0.729189,0.221197,0.729189,$1*%
%AMFreePoly1*
4,1,23,0.500000,-0.750000,0.000000,-0.750000,0.000000,-0.745722,-0.065263,-0.745722,-0.191342,-0.711940,-0.304381,-0.646677,-0.396677,-0.554381,-0.461940,-0.441342,-0.495722,-0.315263,-0.495722,-0.250000,-0.500000,-0.250000,-0.500000,0.250000,-0.495722,0.250000,-0.495722,0.315263,-0.461940,0.441342,-0.396677,0.554381,-0.304381,0.646677,-0.191342,0.711940,-0.065263,0.745722,0.000000,0.745722,
0.000000,0.750000,0.500000,0.750000,0.500000,-0.750000,0.500000,-0.750000,$1*%
%AMFreePoly2*
4,1,23,0.000000,0.745722,0.065263,0.745722,0.191342,0.711940,0.304381,0.646677,0.396677,0.554381,0.461940,0.441342,0.495722,0.315263,0.495722,0.250000,0.500000,0.250000,0.500000,-0.250000,0.495722,-0.250000,0.495722,-0.315263,0.461940,-0.441342,0.396677,-0.554381,0.304381,-0.646677,0.191342,-0.711940,0.065263,-0.745722,0.000000,-0.745722,0.000000,-0.750000,-0.500000,-0.750000,
-0.500000,0.750000,0.000000,0.750000,0.000000,0.745722,0.000000,0.745722,$1*%
G04 Aperture macros list end*
%TA.AperFunction,EtchedComponent*%
%ADD10C,0.000000*%
%TD*%
%TA.AperFunction,SMDPad,CuDef*%
%ADD11RoundRect,0.168221X0.392517X-0.568160X0.392517X0.568160X-0.392517X0.568160X-0.392517X-0.568160X0*%
%TD*%
%TA.AperFunction,ComponentPad*%
%ADD12C,1.524000*%
%TD*%
%TA.AperFunction,SMDPad,CuDef*%
%ADD13RoundRect,0.168221X0.392517X-0.544541X0.392517X0.544541X-0.392517X0.544541X-0.392517X-0.544541X0*%
%TD*%
%TA.AperFunction,SMDPad,CuDef*%
%ADD14RoundRect,0.168221X0.392517X-0.454541X0.392517X0.454541X-0.392517X0.454541X-0.392517X-0.454541X0*%
%TD*%
%TA.AperFunction,ComponentPad*%
%ADD15FreePoly0,90.000000*%
%TD*%
%TA.AperFunction,SMDPad,CuDef*%
%ADD16RoundRect,0.162221X0.378517X-0.425541X0.378517X0.425541X-0.378517X0.425541X-0.378517X-0.425541X0*%
%TD*%
%TA.AperFunction,WasherPad*%
%ADD17C,3.500000*%
%TD*%
%TA.AperFunction,ComponentPad*%
%ADD18R,1.700000X1.700000*%
%TD*%
%TA.AperFunction,ComponentPad*%
%ADD19O,1.700000X1.700000*%
%TD*%
%TA.AperFunction,SMDPad,CuDef*%
%ADD20FreePoly1,180.000000*%
%TD*%
%TA.AperFunction,SMDPad,CuDef*%
%ADD21FreePoly2,180.000000*%
%TD*%
%TA.AperFunction,SMDPad,CuDef*%
%ADD22FreePoly1,0.000000*%
%TD*%
%TA.AperFunction,SMDPad,CuDef*%
%ADD23FreePoly2,0.000000*%
%TD*%
%TA.AperFunction,ViaPad*%
%ADD24C,0.500000*%
%TD*%
%TA.AperFunction,Conductor*%
%ADD25C,0.200000*%
%TD*%
%TA.AperFunction,Conductor*%
%ADD26C,0.300000*%
%TD*%
%TA.AperFunction,Conductor*%
%ADD27C,0.400000*%
%TD*%
%TA.AperFunction,Conductor*%
%ADD28C,0.150000*%
%TD*%
G04 APERTURE END LIST*
D10*
%TA.AperFunction,EtchedComponent*%
%TO.C,JP3*%
G36*
X54250000Y-40900000D02*
G01*
X53750000Y-40900000D01*
X53750000Y-40300000D01*
X54250000Y-40300000D01*
X54250000Y-40900000D01*
G37*
%TD.AperFunction*%
%TA.AperFunction,EtchedComponent*%
%TO.C,JP1*%
G36*
X63050000Y-46600000D02*
G01*
X62550000Y-46600000D01*
X62550000Y-46000000D01*
X63050000Y-46000000D01*
X63050000Y-46600000D01*
G37*
%TD.AperFunction*%
%TA.AperFunction,EtchedComponent*%
%TO.C,JP5*%
G36*
X54250000Y-35200000D02*
G01*
X53750000Y-35200000D01*
X53750000Y-34600000D01*
X54250000Y-34600000D01*
X54250000Y-35200000D01*
G37*
%TD.AperFunction*%
%TD*%
D11*
%TO.P,U1,1,VBUS*%
%TO.N,+5V*%
X9570738Y-51013619D03*
D12*
X9550000Y-49750000D03*
D11*
%TO.P,U1,2,GND*%
%TO.N,GND*%
X12090000Y-51013619D03*
D12*
X12090000Y-49750000D03*
D11*
%TO.P,U1,3,3V3(OUT)*%
%TO.N,+3.3V*%
X14630000Y-51013619D03*
D12*
X14630000Y-49750000D03*
D11*
%TO.P,U1,4,GPIO1_B2_d*%
%TO.N,/UART_TXD*%
X17149262Y-51013619D03*
D12*
X17170000Y-49750000D03*
D11*
%TO.P,U1,5,GPIO1_B3_u*%
%TO.N,/UART_RXD*%
X19751476Y-51013619D03*
D12*
X19710000Y-49750000D03*
D11*
%TO.P,U1,6,SPI0_CS0_M0/IO1_C0_d*%
%TO.N,Net-(JP5-B)*%
X22270738Y-51013619D03*
D12*
X22250000Y-49750000D03*
D11*
%TO.P,U1,7,SPI0_CLK_M0/IO1_C1_d*%
%TO.N,/SPI_SCLK*%
X24810738Y-51013619D03*
D12*
X24790000Y-49750000D03*
D11*
%TO.P,U1,8,SPI0_MOSI_M0/GPIO1_C2_d*%
%TO.N,/SPI_MOSI*%
X27330000Y-51013619D03*
D12*
X27330000Y-49750000D03*
D11*
%TO.P,U1,9,SPI0_MISO_M0/GPIO1_C3_d*%
%TO.N,/RST*%
X29890738Y-51013619D03*
D12*
X29870000Y-49750000D03*
D11*
%TO.P,U1,10,GPIO1_C4_d*%
%TO.N,/DC*%
X32410000Y-51013619D03*
D12*
X32410000Y-49750000D03*
D11*
%TO.P,U1,11,GPIO1_C5_d*%
%TO.N,/KEY3*%
X34950000Y-51013619D03*
D12*
X34950000Y-49750000D03*
%TO.P,U1,12,GPIO1_D0_d*%
%TO.N,/JOYSTICK_LEFT*%
X34950000Y-31970000D03*
D13*
X34950000Y-30712763D03*
D12*
%TO.P,U1,13,GPIO1_D1_d*%
%TO.N,/JOYSTICK_UP*%
X32410000Y-31970000D03*
D13*
X32410000Y-30712763D03*
D12*
%TO.P,U1,14,GPIO1_D2_d*%
%TO.N,/I2C-SDA*%
X29870000Y-31970000D03*
D13*
X29890738Y-30712763D03*
D12*
%TO.P,U1,15,GPIO1_D3_d*%
%TO.N,/I2C-SCL*%
X27330000Y-31970000D03*
D13*
X27330000Y-30712763D03*
D12*
%TO.P,U1,16,GPIO1_C6_d*%
%TO.N,/JOYSTICK_PRESS*%
X24790000Y-31970000D03*
D13*
X24810738Y-30712763D03*
D12*
%TO.P,U1,17,GPIO1_C7_d*%
%TO.N,/JOYSTICK_DOWN*%
X22250000Y-31970000D03*
D13*
X22270738Y-30712763D03*
D12*
%TO.P,U1,18,GPIO0_A4_d*%
%TO.N,/JOYSTICK_RIGHT*%
X19710000Y-31970000D03*
D14*
X19751476Y-30802763D03*
D12*
%TO.P,U1,19,GPIO4_C0_z*%
%TO.N,/KEY1*%
X17170000Y-31970000D03*
D13*
X17149262Y-30712763D03*
D12*
%TO.P,U1,20,GPIO4_C1_z*%
%TO.N,/KEY2*%
X14630000Y-31970000D03*
D13*
X14630000Y-30712763D03*
D12*
%TO.P,U1,21,GND*%
%TO.N,GND*%
X12090000Y-31970000D03*
D13*
X12090000Y-30712763D03*
D15*
%TO.P,U1,22,1V8(OUT)*%
%TO.N,unconnected-(U1-1V8(OUT)-Pad22)*%
X9550000Y-31970000D03*
D16*
X9590738Y-30837763D03*
%TD*%
D17*
%TO.P,U2,*%
%TO.N,*%
X70000000Y-55500000D03*
X70000000Y-31500000D03*
X12000000Y-55500000D03*
D18*
%TO.P,U2,1,3V3*%
%TO.N,+3.3V*%
X65240000Y-52960000D03*
D19*
%TO.P,U2,2,5V0*%
%TO.N,+5V*%
X65240000Y-55500000D03*
%TO.P,U2,3,I2C-SDA*%
%TO.N,/I2C-SDA*%
X62700000Y-52960000D03*
%TO.P,U2,4,5V0*%
%TO.N,+5V*%
X62700000Y-55500000D03*
%TO.P,U2,5,I2C-SCL*%
%TO.N,/I2C-SCL*%
X60160000Y-52960000D03*
%TO.P,U2,6,GND*%
%TO.N,GND*%
X60160000Y-55500000D03*
%TO.P,U2,7*%
%TO.N,N/C*%
X57620000Y-52960000D03*
%TO.P,U2,8,UART-TXDO*%
%TO.N,/UART_TXD*%
X57620000Y-55500000D03*
%TO.P,U2,9,GND*%
%TO.N,GND*%
X55080000Y-52960000D03*
%TO.P,U2,10,UART-RXDO*%
%TO.N,/UART_RXD*%
X55080000Y-55500000D03*
%TO.P,U2,11*%
%TO.N,N/C*%
X52540000Y-52960000D03*
%TO.P,U2,12*%
X52540000Y-55500000D03*
%TO.P,U2,13,RESET*%
%TO.N,/RST*%
X50000000Y-52960000D03*
%TO.P,U2,14,GND*%
%TO.N,GND*%
X50000000Y-55500000D03*
%TO.P,U2,15*%
%TO.N,N/C*%
X47460000Y-52960000D03*
%TO.P,U2,16*%
X47460000Y-55500000D03*
%TO.P,U2,17,3V3*%
%TO.N,+3.3V*%
X44920000Y-52960000D03*
%TO.P,U2,18,BACKLIGHT*%
%TO.N,/BACKLIGHT*%
X44920000Y-55500000D03*
%TO.P,U2,19,SPI_MOSI*%
%TO.N,/SPI_MOSI*%
X42380000Y-52960000D03*
%TO.P,U2,20,GND*%
%TO.N,GND*%
X42380000Y-55500000D03*
%TO.P,U2,21*%
%TO.N,N/C*%
X39840000Y-52960000D03*
%TO.P,U2,22,DC*%
%TO.N,/DC*%
X39840000Y-55500000D03*
%TO.P,U2,23,SPI_SCLK*%
%TO.N,/SPI_SCLK*%
X37300000Y-52960000D03*
%TO.P,U2,24,~{SPI_CS0}*%
%TO.N,/SPI_CS*%
X37300000Y-55500000D03*
%TO.P,U2,25,GND*%
%TO.N,GND*%
X34760000Y-52960000D03*
%TO.P,U2,26*%
%TO.N,N/C*%
X34760000Y-55500000D03*
%TO.P,U2,27*%
X32220000Y-52960000D03*
%TO.P,U2,28*%
X32220000Y-55500000D03*
%TO.P,U2,29,JS_LEFT*%
%TO.N,/JOYSTICK_LEFT*%
X29680000Y-52960000D03*
%TO.P,U2,30,GND*%
%TO.N,GND*%
X29680000Y-55500000D03*
%TO.P,U2,31,JS_UP*%
%TO.N,/JOYSTICK_UP*%
X27140000Y-52960000D03*
%TO.P,U2,32*%
%TO.N,N/C*%
X27140000Y-55500000D03*
%TO.P,U2,33,JS_PRESS*%
%TO.N,/JOYSTICK_PRESS*%
X24600000Y-52960000D03*
%TO.P,U2,34,GND*%
%TO.N,GND*%
X24600000Y-55500000D03*
%TO.P,U2,35,JS_DOWN*%
%TO.N,/JOYSTICK_DOWN*%
X22060000Y-52960000D03*
%TO.P,U2,36,KEY3*%
%TO.N,/KEY3*%
X22060000Y-55500000D03*
%TO.P,U2,37,JS_RIGHT*%
%TO.N,/JOYSTICK_RIGHT*%
X19520000Y-52960000D03*
%TO.P,U2,38,KEY2*%
%TO.N,/KEY2*%
X19520000Y-55500000D03*
%TO.P,U2,39,GND*%
%TO.N,GND*%
X16980000Y-52960000D03*
%TO.P,U2,40,KEY1*%
%TO.N,/KEY1*%
X16980000Y-55500000D03*
%TD*%
D20*
%TO.P,JP2,1,A*%
%TO.N,/MCU_BACKLIGHT*%
X63450000Y-40600000D03*
D21*
%TO.P,JP2,2,B*%
%TO.N,/RPI_BACKLIGHT*%
X62150000Y-40600000D03*
%TD*%
D22*
%TO.P,JP4,1,A*%
%TO.N,GND*%
X53350000Y-46300000D03*
D23*
%TO.P,JP4,2,B*%
%TO.N,/RPI_SPI_CS*%
X54650000Y-46300000D03*
%TD*%
D20*
%TO.P,JP6,1,A*%
%TO.N,/MCU_BACKLIGHT*%
X63450000Y-34900000D03*
D21*
%TO.P,JP6,2,B*%
%TO.N,Net-(JP5-B)*%
X62150000Y-34900000D03*
%TD*%
D22*
%TO.P,JP3,1,A*%
%TO.N,/MCU_SPI_CS*%
X53350000Y-40600000D03*
D23*
%TO.P,JP3,2,B*%
%TO.N,/RPI_SPI_CS*%
X54650000Y-40600000D03*
%TD*%
D20*
%TO.P,JP1,1,A*%
%TO.N,+3.3V*%
X63450000Y-46300000D03*
D21*
%TO.P,JP1,2,B*%
%TO.N,/RPI_BACKLIGHT*%
X62150000Y-46300000D03*
%TD*%
D22*
%TO.P,JP5,1,A*%
%TO.N,/MCU_SPI_CS*%
X53350000Y-34900000D03*
D23*
%TO.P,JP5,2,B*%
%TO.N,Net-(JP5-B)*%
X54650000Y-34900000D03*
%TD*%
D24*
%TO.N,GND*%
X58825000Y-56575000D03*
X47275000Y-44925000D03*
X15300000Y-56925000D03*
X33400000Y-32675000D03*
X37050000Y-31450000D03*
X33475000Y-56375000D03*
X52520000Y-49810000D03*
X38500000Y-49000000D03*
X62725000Y-51475000D03*
X25900000Y-50400000D03*
X31120000Y-56390000D03*
X51880000Y-51710000D03*
X43575000Y-48875000D03*
X44700000Y-50025000D03*
X36025000Y-32750000D03*
X47060000Y-37160000D03*
X38525000Y-56350000D03*
X61420000Y-54920000D03*
X36100000Y-56400000D03*
X33500000Y-50400000D03*
X47200000Y-50325000D03*
X53725000Y-52050000D03*
X41600000Y-32990000D03*
X18280000Y-29700000D03*
X28375000Y-32675000D03*
X39680000Y-48800000D03*
X51275000Y-56025000D03*
X45850000Y-31500000D03*
X42760000Y-41180000D03*
X38570000Y-33220000D03*
X18500000Y-32700000D03*
X64025000Y-57075000D03*
X43319000Y-53850000D03*
X23175000Y-56575000D03*
X43875000Y-31125000D03*
X43782156Y-56700001D03*
X61500000Y-56675000D03*
X41200000Y-51225000D03*
X23320000Y-55020000D03*
X46250000Y-29500000D03*
X28400000Y-50400000D03*
X45800000Y-56600000D03*
X14275000Y-52225000D03*
X25800000Y-32625000D03*
X41700000Y-48600000D03*
X41350000Y-56300000D03*
X18410000Y-48880000D03*
X10720000Y-49120000D03*
X50830083Y-54748842D03*
X59000000Y-54810000D03*
X25825000Y-56525000D03*
X39660000Y-33340000D03*
X20873554Y-31373554D03*
X42625000Y-38775000D03*
X56500000Y-43950000D03*
X23350000Y-31450000D03*
X10400000Y-52675000D03*
X15750000Y-54425000D03*
X27770000Y-56660000D03*
X48750000Y-51950000D03*
X53775000Y-53725000D03*
X56775000Y-50375000D03*
X11125000Y-29850000D03*
X56450000Y-37950000D03*
X56725000Y-48100000D03*
X13520000Y-57750000D03*
X56300000Y-54325000D03*
X43625000Y-32700000D03*
X47375000Y-40000000D03*
X30850000Y-32675000D03*
X50210000Y-50120000D03*
X49920000Y-41870000D03*
X42650000Y-44550000D03*
X30960000Y-53630000D03*
X65450000Y-29625000D03*
X18400000Y-56825000D03*
X47110000Y-38360000D03*
X56175000Y-30150000D03*
X45775000Y-51175000D03*
X66875000Y-51075000D03*
%TO.N,/JOYSTICK_DOWN*%
X23830000Y-51170000D03*
%TO.N,Net-(JP5-B)*%
X54375000Y-36400000D03*
%TD*%
D25*
%TO.N,/I2C-SCL*%
X29162763Y-28970000D02*
X27330000Y-30802763D01*
X39270000Y-28970000D02*
X29162763Y-28970000D01*
X42160000Y-36429146D02*
X42160000Y-31860000D01*
X47250000Y-37750000D02*
X43480854Y-37750000D01*
X51500000Y-47250000D02*
X51500000Y-42000000D01*
X43480854Y-37750000D02*
X42160000Y-36429146D01*
X59090000Y-49350000D02*
X53600000Y-49350000D01*
X51500000Y-42000000D02*
X47250000Y-37750000D01*
X60160000Y-50420000D02*
X59090000Y-49350000D01*
X42160000Y-31860000D02*
X39270000Y-28970000D01*
X53600000Y-49350000D02*
X51500000Y-47250000D01*
X60160000Y-52960000D02*
X60160000Y-50420000D01*
%TO.N,/I2C-SDA*%
X31263501Y-29430000D02*
X29890738Y-30802763D01*
X37530000Y-29430000D02*
X31263501Y-29430000D01*
X40940000Y-32840000D02*
X37530000Y-29430000D01*
X40940000Y-38690000D02*
X40940000Y-32840000D01*
X42750000Y-40500000D02*
X40940000Y-38690000D01*
X47000000Y-40500000D02*
X42750000Y-40500000D01*
X50000000Y-43500000D02*
X47000000Y-40500000D01*
X57456000Y-50876000D02*
X52126000Y-50876000D01*
X58870000Y-53600000D02*
X58870000Y-52290000D01*
X50000000Y-48750000D02*
X50000000Y-43500000D01*
X59540000Y-54270000D02*
X58870000Y-53600000D01*
X58870000Y-52290000D02*
X57456000Y-50876000D01*
X52126000Y-50876000D02*
X50000000Y-48750000D01*
X61390000Y-54270000D02*
X59540000Y-54270000D01*
X62700000Y-52960000D02*
X61390000Y-54270000D01*
D26*
%TO.N,GND*%
X59000000Y-54810000D02*
X59470000Y-54810000D01*
X59470000Y-54810000D02*
X60160000Y-55500000D01*
X60740000Y-54920000D02*
X60160000Y-55500000D01*
X61420000Y-54920000D02*
X60740000Y-54920000D01*
D27*
X51275000Y-56025000D02*
X50525000Y-56025000D01*
X50525000Y-56025000D02*
X50000000Y-55500000D01*
D28*
X15750000Y-54425000D02*
X15750000Y-54190000D01*
D27*
X15750000Y-54190000D02*
X16980000Y-52960000D01*
X50751158Y-54748842D02*
X50000000Y-55500000D01*
X23500000Y-54400000D02*
X24600000Y-55500000D01*
D28*
X23275000Y-54400000D02*
X23500000Y-54400000D01*
D27*
X50830083Y-54748842D02*
X50751158Y-54748842D01*
D25*
%TO.N,+3.3V*%
X65240000Y-48090000D02*
X63450000Y-46300000D01*
X65240000Y-52960000D02*
X65240000Y-48090000D01*
%TO.N,/JOYSTICK_UP*%
X32220000Y-32020000D02*
X32471389Y-32020000D01*
%TO.N,/DC*%
X34502950Y-54260000D02*
X38600000Y-54260000D01*
X38600000Y-54260000D02*
X39840000Y-55500000D01*
X32410000Y-50900000D02*
X33360000Y-51850000D01*
X33360000Y-53117050D02*
X34502950Y-54260000D01*
X33360000Y-51850000D02*
X33360000Y-53117050D01*
D28*
%TO.N,/SPI_MOSI*%
X41279000Y-55618050D02*
X41279000Y-54061000D01*
X28450000Y-52020000D02*
X28450000Y-55791694D01*
X29683306Y-57025000D02*
X39872050Y-57025000D01*
X27330000Y-50900000D02*
X28450000Y-52020000D01*
X39872050Y-57025000D02*
X41279000Y-55618050D01*
X41279000Y-54061000D02*
X42380000Y-52960000D01*
X28450000Y-55791694D02*
X29683306Y-57025000D01*
D25*
X27140000Y-49800000D02*
X26903611Y-49800000D01*
%TO.N,/KEY3*%
X34760000Y-49800000D02*
X35001389Y-49800000D01*
%TO.N,/RST*%
X29680000Y-49800000D02*
X29926389Y-49800000D01*
%TO.N,/SPI_SCLK*%
X36287000Y-51947000D02*
X37300000Y-52960000D01*
X35369599Y-48737000D02*
X36287000Y-49654401D01*
X36287000Y-49654401D02*
X36287000Y-51947000D01*
X25803000Y-48737000D02*
X35369599Y-48737000D01*
X24790000Y-49750000D02*
X25803000Y-48737000D01*
%TO.N,/RPI_BACKLIGHT*%
X62150000Y-46300000D02*
X62150000Y-40600000D01*
%TO.N,/MCU_BACKLIGHT*%
X63450000Y-40600000D02*
X63450000Y-34900000D01*
%TO.N,Net-(JP5-B)*%
X62150000Y-34900000D02*
X54650000Y-34900000D01*
X54650000Y-36125000D02*
X54375000Y-36400000D01*
X54650000Y-34900000D02*
X54650000Y-36125000D01*
D26*
%TO.N,+5V*%
X65240000Y-55500000D02*
X62700000Y-55500000D01*
D25*
%TO.N,/RPI_SPI_CS*%
X54650000Y-40600000D02*
X54650000Y-46300000D01*
%TO.N,/MCU_SPI_CS*%
X53350000Y-34900000D02*
X53350000Y-40600000D01*
%TO.N,/I2C-SDA*%
X30200389Y-31751000D02*
X29662389Y-31751000D01*
X30406000Y-31545389D02*
X30406000Y-30244000D01*
X29662389Y-31751000D02*
X29931389Y-32020000D01*
X29931389Y-32020000D02*
X29680000Y-32020000D01*
X29931389Y-32020000D02*
X30406000Y-31545389D01*
%TD*%
%TA.AperFunction,Conductor*%
%TO.N,GND*%
G36*
X70503472Y-28700695D02*
G01*
X70806503Y-28717713D01*
X70820301Y-28719267D01*
X71116080Y-28769522D01*
X71129634Y-28772615D01*
X71159313Y-28781166D01*
X71417927Y-28855672D01*
X71431051Y-28860265D01*
X71708222Y-28975072D01*
X71720744Y-28981101D01*
X71923184Y-29092986D01*
X71983328Y-29126227D01*
X71995102Y-29133625D01*
X72239789Y-29307239D01*
X72250657Y-29315907D01*
X72474352Y-29515815D01*
X72484184Y-29525647D01*
X72641614Y-29701810D01*
X72667253Y-29730500D01*
X72684092Y-29749342D01*
X72692762Y-29760213D01*
X72716959Y-29794315D01*
X72866374Y-30004897D01*
X72873772Y-30016671D01*
X73018894Y-30279248D01*
X73024927Y-30291777D01*
X73139734Y-30568948D01*
X73144327Y-30582072D01*
X73227383Y-30870363D01*
X73230477Y-30883920D01*
X73280730Y-31179688D01*
X73282287Y-31193506D01*
X73299305Y-31496527D01*
X73299500Y-31503480D01*
X73299500Y-55496519D01*
X73299305Y-55503472D01*
X73282287Y-55806493D01*
X73280730Y-55820311D01*
X73230477Y-56116079D01*
X73227383Y-56129636D01*
X73144327Y-56417927D01*
X73139734Y-56431051D01*
X73024927Y-56708222D01*
X73018894Y-56720751D01*
X72873772Y-56983328D01*
X72866374Y-56995102D01*
X72692763Y-57239785D01*
X72684092Y-57250657D01*
X72484184Y-57474352D01*
X72474352Y-57484184D01*
X72250657Y-57684092D01*
X72239785Y-57692763D01*
X71995102Y-57866374D01*
X71983328Y-57873772D01*
X71720751Y-58018894D01*
X71708222Y-58024927D01*
X71431051Y-58139734D01*
X71417927Y-58144327D01*
X71129636Y-58227383D01*
X71116079Y-58230477D01*
X70820311Y-58280730D01*
X70806493Y-58282287D01*
X70503472Y-58299305D01*
X70496519Y-58299500D01*
X11503481Y-58299500D01*
X11496528Y-58299305D01*
X11193506Y-58282287D01*
X11179688Y-58280730D01*
X10883920Y-58230477D01*
X10870363Y-58227383D01*
X10582072Y-58144327D01*
X10568948Y-58139734D01*
X10291777Y-58024927D01*
X10279248Y-58018894D01*
X10016671Y-57873772D01*
X10004897Y-57866374D01*
X9760214Y-57692763D01*
X9749342Y-57684092D01*
X9525647Y-57484184D01*
X9515815Y-57474352D01*
X9318094Y-57253104D01*
X9315904Y-57250653D01*
X9307236Y-57239785D01*
X9224010Y-57122489D01*
X9133625Y-56995102D01*
X9126227Y-56983328D01*
X8997876Y-56751095D01*
X8981101Y-56720744D01*
X8975072Y-56708222D01*
X8860265Y-56431051D01*
X8855672Y-56417927D01*
X8772616Y-56129636D01*
X8769522Y-56116079D01*
X8752895Y-56018217D01*
X8719267Y-55820301D01*
X8717713Y-55806503D01*
X8700695Y-55503472D01*
X8700500Y-55496519D01*
X8700500Y-55372149D01*
X10049500Y-55372149D01*
X10049500Y-55627850D01*
X10074839Y-55820311D01*
X10082874Y-55881340D01*
X10119550Y-56018216D01*
X10149050Y-56128312D01*
X10149053Y-56128322D01*
X10246894Y-56364531D01*
X10246899Y-56364542D01*
X10374734Y-56585957D01*
X10374745Y-56585973D01*
X10530388Y-56788811D01*
X10530394Y-56788818D01*
X10711181Y-56969605D01*
X10711188Y-56969611D01*
X10737009Y-56989424D01*
X10914035Y-57125261D01*
X10914042Y-57125265D01*
X11135457Y-57253100D01*
X11135462Y-57253102D01*
X11135465Y-57253104D01*
X11371687Y-57350950D01*
X11618660Y-57417126D01*
X11872157Y-57450500D01*
X11872164Y-57450500D01*
X12127836Y-57450500D01*
X12127843Y-57450500D01*
X12381340Y-57417126D01*
X12628313Y-57350950D01*
X12864535Y-57253104D01*
X13085965Y-57125261D01*
X13288813Y-56969610D01*
X13469610Y-56788813D01*
X13625261Y-56585965D01*
X13753104Y-56364535D01*
X13850950Y-56128313D01*
X13917126Y-55881340D01*
X13950500Y-55627843D01*
X13950500Y-55372157D01*
X13917126Y-55118660D01*
X13850950Y-54871687D01*
X13847290Y-54862852D01*
X13769751Y-54675654D01*
X13753104Y-54635465D01*
X13753102Y-54635462D01*
X13753100Y-54635457D01*
X13625265Y-54414042D01*
X13625261Y-54414035D01*
X13518875Y-54275390D01*
X13469611Y-54211188D01*
X13469605Y-54211181D01*
X13288818Y-54030394D01*
X13288811Y-54030388D01*
X13085973Y-53874745D01*
X13085971Y-53874743D01*
X13085965Y-53874739D01*
X13085960Y-53874736D01*
X13085957Y-53874734D01*
X12864542Y-53746899D01*
X12864531Y-53746894D01*
X12628322Y-53649053D01*
X12628315Y-53649051D01*
X12628313Y-53649050D01*
X12381340Y-53582874D01*
X12325007Y-53575457D01*
X12127850Y-53549500D01*
X12127843Y-53549500D01*
X11872157Y-53549500D01*
X11872149Y-53549500D01*
X11646826Y-53579165D01*
X11618660Y-53582874D01*
X11444063Y-53629657D01*
X11371687Y-53649050D01*
X11371677Y-53649053D01*
X11135468Y-53746894D01*
X11135457Y-53746899D01*
X10914042Y-53874734D01*
X10914026Y-53874745D01*
X10711188Y-54030388D01*
X10711181Y-54030394D01*
X10530394Y-54211181D01*
X10530388Y-54211188D01*
X10374745Y-54414026D01*
X10374734Y-54414042D01*
X10246899Y-54635457D01*
X10246894Y-54635468D01*
X10149053Y-54871677D01*
X10149050Y-54871687D01*
X10087901Y-55099901D01*
X10082874Y-55118661D01*
X10049500Y-55372149D01*
X8700500Y-55372149D01*
X8700500Y-52135452D01*
X11321717Y-52135452D01*
X11421222Y-52195604D01*
X11576151Y-52243882D01*
X11643475Y-52249999D01*
X12536533Y-52249999D01*
X12603844Y-52243883D01*
X12758780Y-52195603D01*
X12858280Y-52135452D01*
X12858281Y-52135452D01*
X12090000Y-51367171D01*
X11321717Y-52135452D01*
X8700500Y-52135452D01*
X8700500Y-51924871D01*
X8720185Y-51857832D01*
X8772989Y-51812077D01*
X8842147Y-51802133D01*
X8905703Y-51831158D01*
X8912181Y-51837190D01*
X8961000Y-51886009D01*
X8961001Y-51886009D01*
X8961003Y-51886011D01*
X9071557Y-51940057D01*
X9143231Y-51950500D01*
X9998244Y-51950499D01*
X10069919Y-51940057D01*
X10180473Y-51886011D01*
X10267487Y-51798997D01*
X10321533Y-51688443D01*
X10331976Y-51616769D01*
X10331975Y-50410470D01*
X10327083Y-50376893D01*
X10336896Y-50307720D01*
X10346679Y-50290137D01*
X10402956Y-50205915D01*
X10475512Y-50030751D01*
X10512500Y-49844798D01*
X10512500Y-49655202D01*
X10512500Y-49655201D01*
X10512500Y-49655199D01*
X10488493Y-49534511D01*
X10475512Y-49469249D01*
X10402956Y-49294085D01*
X10360396Y-49230390D01*
X10297622Y-49136441D01*
X10163558Y-49002377D01*
X10005912Y-48897042D01*
X9830751Y-48824488D01*
X9830745Y-48824486D01*
X9793381Y-48817054D01*
X9731470Y-48784669D01*
X9696896Y-48723953D01*
X9700637Y-48654183D01*
X9741503Y-48597511D01*
X9806522Y-48571930D01*
X9817649Y-48571437D01*
X11267087Y-48572468D01*
X11334112Y-48592200D01*
X11379829Y-48645037D01*
X11388660Y-48695108D01*
X11960590Y-49267037D01*
X11897007Y-49284075D01*
X11782993Y-49349901D01*
X11689901Y-49442993D01*
X11624075Y-49557007D01*
X11607037Y-49620590D01*
X11037730Y-49051282D01*
X11037729Y-49051283D01*
X11010643Y-49088564D01*
X10920457Y-49265562D01*
X10859075Y-49454476D01*
X10859075Y-49454479D01*
X10828000Y-49650678D01*
X10828000Y-49849321D01*
X10859075Y-50045520D01*
X10859075Y-50045523D01*
X10920457Y-50234437D01*
X11010639Y-50411427D01*
X11010986Y-50411994D01*
X11011058Y-50412251D01*
X11012853Y-50415773D01*
X11012152Y-50416129D01*
X11029262Y-50476790D01*
X11029262Y-51635796D01*
X11035378Y-51703104D01*
X11035380Y-51703114D01*
X11038129Y-51711937D01*
X11825543Y-50924524D01*
X11886866Y-50891039D01*
X11956558Y-50896023D01*
X12000905Y-50924524D01*
X12089999Y-51013618D01*
X12179093Y-50924524D01*
X12240416Y-50891039D01*
X12310108Y-50896023D01*
X12354456Y-50924524D01*
X13141869Y-51711937D01*
X13144619Y-51703114D01*
X13144619Y-51703113D01*
X13150737Y-51635786D01*
X13150737Y-50476791D01*
X13167848Y-50416130D01*
X13167147Y-50415773D01*
X13168944Y-50412244D01*
X13169017Y-50411989D01*
X13169361Y-50411427D01*
X13259542Y-50234437D01*
X13320924Y-50045523D01*
X13320924Y-50045520D01*
X13352000Y-49849321D01*
X13352000Y-49650678D01*
X13320924Y-49454479D01*
X13320924Y-49454476D01*
X13259542Y-49265562D01*
X13169358Y-49088567D01*
X13142268Y-49051283D01*
X12572962Y-49620589D01*
X12555925Y-49557007D01*
X12490099Y-49442993D01*
X12397007Y-49349901D01*
X12282993Y-49284075D01*
X12219409Y-49267037D01*
X12792238Y-48694208D01*
X12803838Y-48638990D01*
X12852889Y-48589233D01*
X12913175Y-48573639D01*
X14346329Y-48574658D01*
X14413351Y-48594389D01*
X14459068Y-48647226D01*
X14468962Y-48716391D01*
X14439892Y-48779926D01*
X14381087Y-48817659D01*
X14370431Y-48820274D01*
X14349252Y-48824487D01*
X14349248Y-48824488D01*
X14174087Y-48897042D01*
X14016441Y-49002377D01*
X13882377Y-49136441D01*
X13777042Y-49294087D01*
X13704488Y-49469248D01*
X13704486Y-49469256D01*
X13667500Y-49655197D01*
X13667500Y-49844802D01*
X13704486Y-50030743D01*
X13704488Y-50030751D01*
X13777042Y-50205911D01*
X13777047Y-50205921D01*
X13850338Y-50315607D01*
X13871216Y-50382284D01*
X13869941Y-50402373D01*
X13868762Y-50410466D01*
X13868762Y-51616763D01*
X13871535Y-51635796D01*
X13879205Y-51688443D01*
X13894001Y-51718709D01*
X13933252Y-51798999D01*
X14020262Y-51886009D01*
X14020263Y-51886009D01*
X14020265Y-51886011D01*
X14130819Y-51940057D01*
X14202493Y-51950500D01*
X15057506Y-51950499D01*
X15129181Y-51940057D01*
X15239735Y-51886011D01*
X15326749Y-51798997D01*
X15380795Y-51688443D01*
X15391238Y-51616769D01*
X15391237Y-50410470D01*
X15390058Y-50402381D01*
X15399866Y-50333208D01*
X15409655Y-50315615D01*
X15482956Y-50205915D01*
X15555512Y-50030751D01*
X15592500Y-49844798D01*
X15592500Y-49655202D01*
X15592499Y-49655199D01*
X15592499Y-49655197D01*
X15587490Y-49630017D01*
X15555512Y-49469249D01*
X15482956Y-49294085D01*
X15440396Y-49230390D01*
X15377622Y-49136441D01*
X15243558Y-49002377D01*
X15085912Y-48897042D01*
X14910751Y-48824488D01*
X14910749Y-48824487D01*
X14891604Y-48820679D01*
X14829694Y-48788292D01*
X14795122Y-48727575D01*
X14798863Y-48657806D01*
X14839731Y-48601135D01*
X14904750Y-48575555D01*
X14915855Y-48575063D01*
X16877278Y-48576458D01*
X16944300Y-48596189D01*
X16990017Y-48649026D01*
X16999911Y-48718191D01*
X16970841Y-48781726D01*
X16912036Y-48819459D01*
X16901384Y-48822073D01*
X16889255Y-48824486D01*
X16889248Y-48824488D01*
X16714087Y-48897042D01*
X16556441Y-49002377D01*
X16422377Y-49136441D01*
X16317042Y-49294087D01*
X16244488Y-49469248D01*
X16244486Y-49469256D01*
X16207500Y-49655197D01*
X16207500Y-49844802D01*
X16244486Y-50030743D01*
X16244488Y-50030751D01*
X16317042Y-50205911D01*
X16317043Y-50205913D01*
X16317044Y-50205915D01*
X16373313Y-50290128D01*
X16394191Y-50356804D01*
X16392916Y-50376893D01*
X16388025Y-50410466D01*
X16388024Y-50410472D01*
X16388024Y-51616765D01*
X16392798Y-51649532D01*
X16382983Y-51718709D01*
X16337325Y-51771597D01*
X16326390Y-51777890D01*
X16272442Y-51805378D01*
X16100540Y-51930272D01*
X16100535Y-51930276D01*
X15950276Y-52080535D01*
X15950272Y-52080540D01*
X15825379Y-52252442D01*
X15728904Y-52441782D01*
X15663242Y-52643870D01*
X15663242Y-52643873D01*
X15652769Y-52710000D01*
X16546988Y-52710000D01*
X16514075Y-52767007D01*
X16480000Y-52894174D01*
X16480000Y-53025826D01*
X16514075Y-53152993D01*
X16546988Y-53210000D01*
X15652769Y-53210000D01*
X15663242Y-53276126D01*
X15663242Y-53276129D01*
X15728904Y-53478217D01*
X15825379Y-53667557D01*
X15950272Y-53839459D01*
X15950276Y-53839464D01*
X16100535Y-53989723D01*
X16100540Y-53989727D01*
X16272442Y-54114620D01*
X16461782Y-54211095D01*
X16637973Y-54268343D01*
X16695648Y-54307780D01*
X16722847Y-54372139D01*
X16710932Y-54440985D01*
X16663688Y-54492461D01*
X16647108Y-54500835D01*
X16482403Y-54569057D01*
X16310342Y-54684024D01*
X16164024Y-54830342D01*
X16049058Y-55002403D01*
X15969870Y-55193579D01*
X15969868Y-55193587D01*
X15929500Y-55396530D01*
X15929500Y-55603469D01*
X15969868Y-55806412D01*
X15969870Y-55806420D01*
X16035939Y-55965925D01*
X16049059Y-55997598D01*
X16062836Y-56018217D01*
X16164024Y-56169657D01*
X16310342Y-56315975D01*
X16310345Y-56315977D01*
X16482402Y-56430941D01*
X16673580Y-56510130D01*
X16876530Y-56550499D01*
X16876534Y-56550500D01*
X16876535Y-56550500D01*
X17083466Y-56550500D01*
X17083467Y-56550499D01*
X17286420Y-56510130D01*
X17477598Y-56430941D01*
X17649655Y-56315977D01*
X17795977Y-56169655D01*
X17910941Y-55997598D01*
X17990130Y-55806420D01*
X18030500Y-55603465D01*
X18030500Y-55396535D01*
X18030499Y-55396530D01*
X18469500Y-55396530D01*
X18469500Y-55603469D01*
X18509868Y-55806412D01*
X18509870Y-55806420D01*
X18575939Y-55965925D01*
X18589059Y-55997598D01*
X18602836Y-56018217D01*
X18704024Y-56169657D01*
X18850342Y-56315975D01*
X18850345Y-56315977D01*
X19022402Y-56430941D01*
X19213580Y-56510130D01*
X19416530Y-56550499D01*
X19416534Y-56550500D01*
X19416535Y-56550500D01*
X19623466Y-56550500D01*
X19623467Y-56550499D01*
X19826420Y-56510130D01*
X20017598Y-56430941D01*
X20189655Y-56315977D01*
X20335977Y-56169655D01*
X20450941Y-55997598D01*
X20530130Y-55806420D01*
X20570500Y-55603465D01*
X20570500Y-55396535D01*
X20530130Y-55193580D01*
X20450941Y-55002402D01*
X20335977Y-54830345D01*
X20335975Y-54830342D01*
X20189657Y-54684024D01*
X20034249Y-54580185D01*
X20017598Y-54569059D01*
X20017593Y-54569057D01*
X19826420Y-54489870D01*
X19826412Y-54489868D01*
X19623469Y-54449500D01*
X19623465Y-54449500D01*
X19416535Y-54449500D01*
X19416530Y-54449500D01*
X19213587Y-54489868D01*
X19213579Y-54489870D01*
X19022403Y-54569058D01*
X18850342Y-54684024D01*
X18704024Y-54830342D01*
X18589058Y-55002403D01*
X18509870Y-55193579D01*
X18509868Y-55193587D01*
X18469500Y-55396530D01*
X18030499Y-55396530D01*
X17990130Y-55193580D01*
X17910941Y-55002402D01*
X17795977Y-54830345D01*
X17795975Y-54830342D01*
X17649657Y-54684024D01*
X17494249Y-54580185D01*
X17477598Y-54569059D01*
X17477593Y-54569057D01*
X17349498Y-54515998D01*
X17312890Y-54500834D01*
X17258488Y-54456994D01*
X17236423Y-54390700D01*
X17253702Y-54323001D01*
X17304839Y-54275390D01*
X17322026Y-54268343D01*
X17498217Y-54211095D01*
X17687557Y-54114620D01*
X17859459Y-53989727D01*
X17859464Y-53989723D01*
X18009723Y-53839464D01*
X18009727Y-53839459D01*
X18134620Y-53667557D01*
X18231095Y-53478217D01*
X18288343Y-53302026D01*
X18327780Y-53244351D01*
X18392139Y-53217152D01*
X18460985Y-53229066D01*
X18512461Y-53276310D01*
X18520835Y-53292891D01*
X18575939Y-53425925D01*
X18589059Y-53457598D01*
X18630032Y-53518919D01*
X18704024Y-53629657D01*
X18850342Y-53775975D01*
X18850345Y-53775977D01*
X19022402Y-53890941D01*
X19213580Y-53970130D01*
X19416530Y-54010499D01*
X19416534Y-54010500D01*
X19416535Y-54010500D01*
X19623466Y-54010500D01*
X19623467Y-54010499D01*
X19826420Y-53970130D01*
X20017598Y-53890941D01*
X20189655Y-53775977D01*
X20335977Y-53629655D01*
X20450941Y-53457598D01*
X20530130Y-53266420D01*
X20570500Y-53063465D01*
X20570500Y-52856535D01*
X20530130Y-52653580D01*
X20450941Y-52462402D01*
X20335977Y-52290345D01*
X20335975Y-52290342D01*
X20193670Y-52148037D01*
X20160185Y-52086714D01*
X20165169Y-52017022D01*
X20207041Y-51961089D01*
X20244752Y-51941880D01*
X20250642Y-51940059D01*
X20250657Y-51940057D01*
X20361211Y-51886011D01*
X20448225Y-51798997D01*
X20502271Y-51688443D01*
X20512714Y-51616769D01*
X20512713Y-50410470D01*
X20504109Y-50351413D01*
X20513922Y-50282239D01*
X20523708Y-50264652D01*
X20562956Y-50205915D01*
X20635512Y-50030751D01*
X20672500Y-49844798D01*
X20672500Y-49655202D01*
X20672499Y-49655199D01*
X20672499Y-49655197D01*
X20667490Y-49630017D01*
X20635512Y-49469249D01*
X20562956Y-49294085D01*
X20520396Y-49230390D01*
X20457622Y-49136441D01*
X20323558Y-49002377D01*
X20165912Y-48897042D01*
X20052680Y-48850140D01*
X19990751Y-48824488D01*
X19989839Y-48824306D01*
X19989407Y-48824080D01*
X19984919Y-48822719D01*
X19985177Y-48821868D01*
X19927928Y-48791923D01*
X19893353Y-48731207D01*
X19897092Y-48661438D01*
X19937957Y-48604765D01*
X20002975Y-48579183D01*
X20014109Y-48578689D01*
X21939175Y-48580058D01*
X21954124Y-48584459D01*
X21969698Y-48583896D01*
X21986954Y-48594124D01*
X22006200Y-48599790D01*
X22016397Y-48611575D01*
X22029803Y-48619521D01*
X22038791Y-48637457D01*
X22051917Y-48652627D01*
X22054123Y-48668052D01*
X22061106Y-48681986D01*
X22058970Y-48701933D01*
X22061811Y-48721792D01*
X22055327Y-48735963D01*
X22053668Y-48751459D01*
X22041087Y-48767084D01*
X22032741Y-48785327D01*
X22019023Y-48794490D01*
X22009852Y-48805882D01*
X21978298Y-48821695D01*
X21978295Y-48821696D01*
X21975081Y-48822719D01*
X21969248Y-48824488D01*
X21794087Y-48897042D01*
X21636441Y-49002377D01*
X21502377Y-49136441D01*
X21397042Y-49294087D01*
X21324488Y-49469248D01*
X21324486Y-49469256D01*
X21287500Y-49655197D01*
X21287500Y-49844802D01*
X21324486Y-50030743D01*
X21324488Y-50030751D01*
X21397042Y-50205912D01*
X21488602Y-50342941D01*
X21509480Y-50409619D01*
X21509500Y-50411832D01*
X21509500Y-51616763D01*
X21512273Y-51635796D01*
X21519943Y-51688443D01*
X21534739Y-51718709D01*
X21573990Y-51798999D01*
X21602048Y-51827057D01*
X21635533Y-51888380D01*
X21630549Y-51958072D01*
X21588677Y-52014005D01*
X21567662Y-52025973D01*
X21567776Y-52026186D01*
X21562407Y-52029055D01*
X21390342Y-52144024D01*
X21244024Y-52290342D01*
X21129058Y-52462403D01*
X21049870Y-52653579D01*
X21049868Y-52653587D01*
X21009500Y-52856530D01*
X21009500Y-53063469D01*
X21049868Y-53266412D01*
X21049870Y-53266420D01*
X21115939Y-53425925D01*
X21129059Y-53457598D01*
X21170032Y-53518919D01*
X21244024Y-53629657D01*
X21390342Y-53775975D01*
X21390345Y-53775977D01*
X21562402Y-53890941D01*
X21753580Y-53970130D01*
X21956530Y-54010499D01*
X21956534Y-54010500D01*
X21956535Y-54010500D01*
X22163466Y-54010500D01*
X22163467Y-54010499D01*
X22366420Y-53970130D01*
X22557598Y-53890941D01*
X22729655Y-53775977D01*
X22875977Y-53629655D01*
X22990941Y-53457598D01*
X23070130Y-53266420D01*
X23110500Y-53063465D01*
X23110500Y-52856535D01*
X23070130Y-52653580D01*
X22990941Y-52462402D01*
X22875977Y-52290345D01*
X22875975Y-52290342D01*
X22728687Y-52143054D01*
X22695202Y-52081731D01*
X22700186Y-52012039D01*
X22742058Y-51956106D01*
X22761909Y-51943972D01*
X22769916Y-51940057D01*
X22769919Y-51940057D01*
X22880473Y-51886011D01*
X22967487Y-51798997D01*
X23021533Y-51688443D01*
X23031976Y-51616769D01*
X23031975Y-50410470D01*
X23027083Y-50376893D01*
X23036896Y-50307720D01*
X23046679Y-50290137D01*
X23102956Y-50205915D01*
X23175512Y-50030751D01*
X23212500Y-49844798D01*
X23212500Y-49655202D01*
X23212499Y-49655199D01*
X23212499Y-49655197D01*
X23207490Y-49630017D01*
X23175512Y-49469249D01*
X23102956Y-49294085D01*
X23060396Y-49230390D01*
X22997622Y-49136441D01*
X22863558Y-49002377D01*
X22705912Y-48897042D01*
X22530749Y-48824487D01*
X22526374Y-48823160D01*
X22467937Y-48784859D01*
X22439484Y-48721046D01*
X22450047Y-48651979D01*
X22496274Y-48599588D01*
X22562460Y-48580501D01*
X24473234Y-48581860D01*
X24540258Y-48601592D01*
X24585975Y-48654429D01*
X24595869Y-48723594D01*
X24566799Y-48787129D01*
X24514435Y-48821091D01*
X24514877Y-48822157D01*
X24334087Y-48897042D01*
X24176441Y-49002377D01*
X24042377Y-49136441D01*
X23937042Y-49294087D01*
X23864488Y-49469248D01*
X23864486Y-49469256D01*
X23827500Y-49655197D01*
X23827500Y-49844802D01*
X23864486Y-50030743D01*
X23864488Y-50030751D01*
X23937042Y-50205912D01*
X24028602Y-50342941D01*
X24034252Y-50360987D01*
X24044477Y-50376897D01*
X24048928Y-50407858D01*
X24049480Y-50409619D01*
X24049500Y-50411832D01*
X24049500Y-50600823D01*
X24029815Y-50667862D01*
X23977011Y-50713617D01*
X23907853Y-50723561D01*
X23893411Y-50720599D01*
X23889310Y-50719500D01*
X23889309Y-50719500D01*
X23770691Y-50719500D01*
X23656114Y-50750201D01*
X23656112Y-50750201D01*
X23656112Y-50750202D01*
X23553387Y-50809511D01*
X23553384Y-50809513D01*
X23469513Y-50893384D01*
X23469511Y-50893387D01*
X23410201Y-50996114D01*
X23379500Y-51110691D01*
X23379500Y-51229309D01*
X23410201Y-51343886D01*
X23469511Y-51446613D01*
X23553387Y-51530489D01*
X23656114Y-51589799D01*
X23770691Y-51620500D01*
X23770694Y-51620500D01*
X23889307Y-51620500D01*
X23889309Y-51620500D01*
X23912186Y-51614370D01*
X23982035Y-51616031D01*
X24039898Y-51655193D01*
X24050159Y-51669602D01*
X24059408Y-51684775D01*
X24059943Y-51688443D01*
X24113989Y-51798997D01*
X24152529Y-51837537D01*
X24160246Y-51850196D01*
X24165607Y-51870203D01*
X24175533Y-51888380D01*
X24174468Y-51903266D01*
X24178332Y-51917684D01*
X24172026Y-51937411D01*
X24170549Y-51958072D01*
X24161603Y-51970021D01*
X24157060Y-51984237D01*
X24141089Y-51997424D01*
X24128677Y-52014005D01*
X24107662Y-52025973D01*
X24107776Y-52026186D01*
X24103470Y-52028487D01*
X24103184Y-52028724D01*
X24102982Y-52028748D01*
X24102407Y-52029055D01*
X23930342Y-52144024D01*
X23784024Y-52290342D01*
X23669058Y-52462403D01*
X23589870Y-52653579D01*
X23589868Y-52653587D01*
X23549500Y-52856530D01*
X23549500Y-53063469D01*
X23589868Y-53266412D01*
X23589870Y-53266420D01*
X23655939Y-53425925D01*
X23669059Y-53457598D01*
X23710032Y-53518919D01*
X23784024Y-53629657D01*
X23930342Y-53775975D01*
X24102405Y-53890943D01*
X24204378Y-53933181D01*
X24267108Y-53959164D01*
X24321511Y-54003005D01*
X24343576Y-54069299D01*
X24326297Y-54136998D01*
X24275160Y-54184609D01*
X24257974Y-54191656D01*
X24081781Y-54248905D01*
X23892442Y-54345379D01*
X23720540Y-54470272D01*
X23720535Y-54470276D01*
X23570276Y-54620535D01*
X23570272Y-54620540D01*
X23445379Y-54792442D01*
X23348905Y-54981781D01*
X23291656Y-55157974D01*
X23252218Y-55215649D01*
X23187859Y-55242847D01*
X23119013Y-55230932D01*
X23067537Y-55183688D01*
X23059164Y-55167107D01*
X23051838Y-55149421D01*
X23018490Y-55068910D01*
X22990943Y-55002405D01*
X22875975Y-54830342D01*
X22729657Y-54684024D01*
X22574249Y-54580185D01*
X22557598Y-54569059D01*
X22557593Y-54569057D01*
X22366420Y-54489870D01*
X22366412Y-54489868D01*
X22163469Y-54449500D01*
X22163465Y-54449500D01*
X21956535Y-54449500D01*
X21956530Y-54449500D01*
X21753587Y-54489868D01*
X21753579Y-54489870D01*
X21562403Y-54569058D01*
X21390342Y-54684024D01*
X21244024Y-54830342D01*
X21129058Y-55002403D01*
X21049870Y-55193579D01*
X21049868Y-55193587D01*
X21009500Y-55396530D01*
X21009500Y-55603469D01*
X21049868Y-55806412D01*
X21049870Y-55806420D01*
X21115939Y-55965925D01*
X21129059Y-55997598D01*
X21142836Y-56018217D01*
X21244024Y-56169657D01*
X21390342Y-56315975D01*
X21390345Y-56315977D01*
X21562402Y-56430941D01*
X21753580Y-56510130D01*
X21956530Y-56550499D01*
X21956534Y-56550500D01*
X21956535Y-56550500D01*
X22163466Y-56550500D01*
X22163467Y-56550499D01*
X22366420Y-56510130D01*
X22557598Y-56430941D01*
X22729655Y-56315977D01*
X22875977Y-56169655D01*
X22990941Y-55997598D01*
X23059165Y-55832889D01*
X23103004Y-55778488D01*
X23169298Y-55756423D01*
X23236998Y-55773702D01*
X23284609Y-55824839D01*
X23291656Y-55842026D01*
X23348904Y-56018216D01*
X23445379Y-56207557D01*
X23570272Y-56379459D01*
X23570276Y-56379464D01*
X23720535Y-56529723D01*
X23720540Y-56529727D01*
X23892442Y-56654620D01*
X24081782Y-56751095D01*
X24283871Y-56816757D01*
X24350000Y-56827231D01*
X24350000Y-55933012D01*
X24407007Y-55965925D01*
X24534174Y-56000000D01*
X24665826Y-56000000D01*
X24792993Y-55965925D01*
X24850000Y-55933012D01*
X24850000Y-56827230D01*
X24916126Y-56816757D01*
X24916129Y-56816757D01*
X25118217Y-56751095D01*
X25307557Y-56654620D01*
X25479459Y-56529727D01*
X25479464Y-56529723D01*
X25629723Y-56379464D01*
X25629727Y-56379459D01*
X25754620Y-56207557D01*
X25851095Y-56018217D01*
X25908343Y-55842026D01*
X25947780Y-55784351D01*
X26012139Y-55757152D01*
X26080985Y-55769066D01*
X26132461Y-55816310D01*
X26140833Y-55832887D01*
X26157301Y-55872644D01*
X26195939Y-55965925D01*
X26209059Y-55997598D01*
X26222836Y-56018217D01*
X26324024Y-56169657D01*
X26470342Y-56315975D01*
X26470345Y-56315977D01*
X26642402Y-56430941D01*
X26833580Y-56510130D01*
X27036530Y-56550499D01*
X27036534Y-56550500D01*
X27036535Y-56550500D01*
X27243466Y-56550500D01*
X27243467Y-56550499D01*
X27446420Y-56510130D01*
X27637598Y-56430941D01*
X27809655Y-56315977D01*
X27955977Y-56169655D01*
X28065243Y-56006124D01*
X28118854Y-55961320D01*
X28188179Y-55952613D01*
X28251207Y-55982767D01*
X28256026Y-55987335D01*
X29527244Y-57258555D01*
X29527245Y-57258555D01*
X29527247Y-57258557D01*
X29556901Y-57270839D01*
X29556903Y-57270841D01*
X29556904Y-57270841D01*
X29577876Y-57279527D01*
X29628506Y-57300500D01*
X29628509Y-57300500D01*
X39926849Y-57300500D01*
X39926850Y-57300500D01*
X40028108Y-57258557D01*
X40105607Y-57181058D01*
X40105606Y-57181058D01*
X40164175Y-57122489D01*
X41061167Y-56225497D01*
X41122488Y-56192014D01*
X41192180Y-56196998D01*
X41248113Y-56238870D01*
X41249164Y-56240295D01*
X41350272Y-56379459D01*
X41350276Y-56379464D01*
X41500535Y-56529723D01*
X41500540Y-56529727D01*
X41672442Y-56654620D01*
X41861782Y-56751095D01*
X42063871Y-56816757D01*
X42130000Y-56827231D01*
X42130000Y-55933012D01*
X42187007Y-55965925D01*
X42314174Y-56000000D01*
X42445826Y-56000000D01*
X42572993Y-55965925D01*
X42630000Y-55933012D01*
X42630000Y-56827230D01*
X42696126Y-56816757D01*
X42696129Y-56816757D01*
X42898217Y-56751095D01*
X43087557Y-56654620D01*
X43259459Y-56529727D01*
X43259464Y-56529723D01*
X43409723Y-56379464D01*
X43409727Y-56379459D01*
X43534620Y-56207557D01*
X43631095Y-56018217D01*
X43688343Y-55842026D01*
X43727780Y-55784351D01*
X43792139Y-55757152D01*
X43860985Y-55769066D01*
X43912461Y-55816310D01*
X43920833Y-55832887D01*
X43937301Y-55872644D01*
X43975939Y-55965925D01*
X43989059Y-55997598D01*
X44002836Y-56018217D01*
X44104024Y-56169657D01*
X44250342Y-56315975D01*
X44250345Y-56315977D01*
X44422402Y-56430941D01*
X44613580Y-56510130D01*
X44816530Y-56550499D01*
X44816534Y-56550500D01*
X44816535Y-56550500D01*
X45023466Y-56550500D01*
X45023467Y-56550499D01*
X45226420Y-56510130D01*
X45417598Y-56430941D01*
X45589655Y-56315977D01*
X45735977Y-56169655D01*
X45850941Y-55997598D01*
X45930130Y-55806420D01*
X45970500Y-55603465D01*
X45970500Y-55396535D01*
X45970499Y-55396530D01*
X46409500Y-55396530D01*
X46409500Y-55603469D01*
X46449868Y-55806412D01*
X46449870Y-55806420D01*
X46515939Y-55965925D01*
X46529059Y-55997598D01*
X46542836Y-56018217D01*
X46644024Y-56169657D01*
X46790342Y-56315975D01*
X46790345Y-56315977D01*
X46962402Y-56430941D01*
X47153580Y-56510130D01*
X47356530Y-56550499D01*
X47356534Y-56550500D01*
X47356535Y-56550500D01*
X47563466Y-56550500D01*
X47563467Y-56550499D01*
X47766420Y-56510130D01*
X47957598Y-56430941D01*
X48129655Y-56315977D01*
X48275977Y-56169655D01*
X48390941Y-55997598D01*
X48459165Y-55832889D01*
X48503004Y-55778488D01*
X48569298Y-55756423D01*
X48636998Y-55773702D01*
X48684609Y-55824839D01*
X48691656Y-55842026D01*
X48748904Y-56018216D01*
X48845379Y-56207557D01*
X48970272Y-56379459D01*
X48970276Y-56379464D01*
X49120535Y-56529723D01*
X49120540Y-56529727D01*
X49292442Y-56654620D01*
X49481782Y-56751095D01*
X49683871Y-56816757D01*
X49750000Y-56827231D01*
X49750000Y-55933012D01*
X49807007Y-55965925D01*
X49934174Y-56000000D01*
X50065826Y-56000000D01*
X50192993Y-55965925D01*
X50250000Y-55933012D01*
X50250000Y-56827230D01*
X50316126Y-56816757D01*
X50316129Y-56816757D01*
X50518217Y-56751095D01*
X50707557Y-56654620D01*
X50879459Y-56529727D01*
X50879464Y-56529723D01*
X51029723Y-56379464D01*
X51029727Y-56379459D01*
X51154620Y-56207557D01*
X51251095Y-56018217D01*
X51308343Y-55842026D01*
X51347780Y-55784351D01*
X51412139Y-55757152D01*
X51480985Y-55769066D01*
X51532461Y-55816310D01*
X51540833Y-55832887D01*
X51557301Y-55872644D01*
X51595939Y-55965925D01*
X51609059Y-55997598D01*
X51622836Y-56018217D01*
X51724024Y-56169657D01*
X51870342Y-56315975D01*
X51870345Y-56315977D01*
X52042402Y-56430941D01*
X52233580Y-56510130D01*
X52436530Y-56550499D01*
X52436534Y-56550500D01*
X52436535Y-56550500D01*
X52643466Y-56550500D01*
X52643467Y-56550499D01*
X52846420Y-56510130D01*
X53037598Y-56430941D01*
X53209655Y-56315977D01*
X53355977Y-56169655D01*
X53470941Y-55997598D01*
X53550130Y-55806420D01*
X53590500Y-55603465D01*
X53590500Y-55396535D01*
X53550130Y-55193580D01*
X53470941Y-55002402D01*
X53355977Y-54830345D01*
X53355975Y-54830342D01*
X53209657Y-54684024D01*
X53054249Y-54580185D01*
X53037598Y-54569059D01*
X53037593Y-54569057D01*
X52846420Y-54489870D01*
X52846412Y-54489868D01*
X52643469Y-54449500D01*
X52643465Y-54449500D01*
X52436535Y-54449500D01*
X52436530Y-54449500D01*
X52233587Y-54489868D01*
X52233579Y-54489870D01*
X52042403Y-54569058D01*
X51870342Y-54684024D01*
X51724024Y-54830342D01*
X51609057Y-55002403D01*
X51540835Y-55167108D01*
X51496994Y-55221511D01*
X51430700Y-55243576D01*
X51363000Y-55226297D01*
X51315390Y-55175159D01*
X51308343Y-55157973D01*
X51251095Y-54981782D01*
X51154620Y-54792442D01*
X51029727Y-54620540D01*
X51029723Y-54620535D01*
X50879464Y-54470276D01*
X50879459Y-54470272D01*
X50707557Y-54345379D01*
X50518216Y-54248904D01*
X50342026Y-54191656D01*
X50284350Y-54152218D01*
X50257152Y-54087860D01*
X50269067Y-54019013D01*
X50316311Y-53967538D01*
X50332882Y-53959168D01*
X50497598Y-53890941D01*
X50669655Y-53775977D01*
X50815977Y-53629655D01*
X50930941Y-53457598D01*
X51010130Y-53266420D01*
X51050500Y-53063465D01*
X51050500Y-52856535D01*
X51010130Y-52653580D01*
X50930941Y-52462402D01*
X50815977Y-52290345D01*
X50815975Y-52290342D01*
X50669657Y-52144024D01*
X50501655Y-52031770D01*
X50497598Y-52029059D01*
X50497593Y-52029057D01*
X50306420Y-51949870D01*
X50306412Y-51949868D01*
X50103469Y-51909500D01*
X50103465Y-51909500D01*
X49896535Y-51909500D01*
X49896530Y-51909500D01*
X49693587Y-51949868D01*
X49693579Y-51949870D01*
X49502403Y-52029058D01*
X49330342Y-52144024D01*
X49184024Y-52290342D01*
X49069058Y-52462403D01*
X48989870Y-52653579D01*
X48989868Y-52653587D01*
X48949500Y-52856530D01*
X48949500Y-53063469D01*
X48989868Y-53266412D01*
X48989870Y-53266420D01*
X49055939Y-53425925D01*
X49069059Y-53457598D01*
X49110032Y-53518919D01*
X49184024Y-53629657D01*
X49330342Y-53775975D01*
X49502405Y-53890943D01*
X49604378Y-53933181D01*
X49667108Y-53959164D01*
X49721511Y-54003005D01*
X49743576Y-54069299D01*
X49726297Y-54136998D01*
X49675160Y-54184609D01*
X49657974Y-54191656D01*
X49481781Y-54248905D01*
X49292442Y-54345379D01*
X49120540Y-54470272D01*
X49120535Y-54470276D01*
X48970276Y-54620535D01*
X48970272Y-54620540D01*
X48845379Y-54792442D01*
X48748905Y-54981781D01*
X48691656Y-55157974D01*
X48652218Y-55215649D01*
X48587859Y-55242847D01*
X48519013Y-55230932D01*
X48467537Y-55183688D01*
X48459164Y-55167107D01*
X48451838Y-55149421D01*
X48418490Y-55068910D01*
X48390943Y-55002405D01*
X48275975Y-54830342D01*
X48129657Y-54684024D01*
X47974249Y-54580185D01*
X47957598Y-54569059D01*
X47957593Y-54569057D01*
X47766420Y-54489870D01*
X47766412Y-54489868D01*
X47563469Y-54449500D01*
X47563465Y-54449500D01*
X47356535Y-54449500D01*
X47356530Y-54449500D01*
X47153587Y-54489868D01*
X47153579Y-54489870D01*
X46962403Y-54569058D01*
X46790342Y-54684024D01*
X46644024Y-54830342D01*
X46529058Y-55002403D01*
X46449870Y-55193579D01*
X46449868Y-55193587D01*
X46409500Y-55396530D01*
X45970499Y-55396530D01*
X45930130Y-55193580D01*
X45850941Y-55002402D01*
X45735977Y-54830345D01*
X45735975Y-54830342D01*
X45589657Y-54684024D01*
X45434249Y-54580185D01*
X45417598Y-54569059D01*
X45417593Y-54569057D01*
X45226420Y-54489870D01*
X45226412Y-54489868D01*
X45023469Y-54449500D01*
X45023465Y-54449500D01*
X44816535Y-54449500D01*
X44816530Y-54449500D01*
X44613587Y-54489868D01*
X44613579Y-54489870D01*
X44422403Y-54569058D01*
X44250342Y-54684024D01*
X44104024Y-54830342D01*
X43989057Y-55002403D01*
X43920835Y-55167108D01*
X43876994Y-55221511D01*
X43810700Y-55243576D01*
X43743000Y-55226297D01*
X43695390Y-55175159D01*
X43688343Y-55157973D01*
X43631095Y-54981782D01*
X43534620Y-54792442D01*
X43409727Y-54620540D01*
X43409723Y-54620535D01*
X43259464Y-54470276D01*
X43259459Y-54470272D01*
X43087557Y-54345379D01*
X42898216Y-54248904D01*
X42722026Y-54191656D01*
X42664350Y-54152218D01*
X42637152Y-54087860D01*
X42649067Y-54019013D01*
X42696311Y-53967538D01*
X42712882Y-53959168D01*
X42877598Y-53890941D01*
X43049655Y-53775977D01*
X43195977Y-53629655D01*
X43310941Y-53457598D01*
X43390130Y-53266420D01*
X43430500Y-53063465D01*
X43430500Y-52856535D01*
X43430499Y-52856530D01*
X43869500Y-52856530D01*
X43869500Y-53063469D01*
X43909868Y-53266412D01*
X43909870Y-53266420D01*
X43975939Y-53425925D01*
X43989059Y-53457598D01*
X44030032Y-53518919D01*
X44104024Y-53629657D01*
X44250342Y-53775975D01*
X44250345Y-53775977D01*
X44422402Y-53890941D01*
X44613580Y-53970130D01*
X44816530Y-54010499D01*
X44816534Y-54010500D01*
X44816535Y-54010500D01*
X45023466Y-54010500D01*
X45023467Y-54010499D01*
X45226420Y-53970130D01*
X45417598Y-53890941D01*
X45589655Y-53775977D01*
X45735977Y-53629655D01*
X45850941Y-53457598D01*
X45930130Y-53266420D01*
X45970500Y-53063465D01*
X45970500Y-52856535D01*
X45970499Y-52856530D01*
X46409500Y-52856530D01*
X46409500Y-53063469D01*
X46449868Y-53266412D01*
X46449870Y-53266420D01*
X46515939Y-53425925D01*
X46529059Y-53457598D01*
X46570032Y-53518919D01*
X46644024Y-53629657D01*
X46790342Y-53775975D01*
X46790345Y-53775977D01*
X46962402Y-53890941D01*
X47153580Y-53970130D01*
X47356530Y-54010499D01*
X47356534Y-54010500D01*
X47356535Y-54010500D01*
X47563466Y-54010500D01*
X47563467Y-54010499D01*
X47766420Y-53970130D01*
X47957598Y-53890941D01*
X48129655Y-53775977D01*
X48275977Y-53629655D01*
X48390941Y-53457598D01*
X48470130Y-53266420D01*
X48510500Y-53063465D01*
X48510500Y-52856535D01*
X48470130Y-52653580D01*
X48390941Y-52462402D01*
X48275977Y-52290345D01*
X48275975Y-52290342D01*
X48129657Y-52144024D01*
X47961655Y-52031770D01*
X47957598Y-52029059D01*
X47957593Y-52029057D01*
X47766420Y-51949870D01*
X47766412Y-51949868D01*
X47563469Y-51909500D01*
X47563465Y-51909500D01*
X47356535Y-51909500D01*
X47356530Y-51909500D01*
X47153587Y-51949868D01*
X47153579Y-51949870D01*
X46962403Y-52029058D01*
X46790342Y-52144024D01*
X46644024Y-52290342D01*
X46529058Y-52462403D01*
X46449870Y-52653579D01*
X46449868Y-52653587D01*
X46409500Y-52856530D01*
X45970499Y-52856530D01*
X45930130Y-52653580D01*
X45850941Y-52462402D01*
X45735977Y-52290345D01*
X45735975Y-52290342D01*
X45589657Y-52144024D01*
X45421655Y-52031770D01*
X45417598Y-52029059D01*
X45417593Y-52029057D01*
X45226420Y-51949870D01*
X45226412Y-51949868D01*
X45023469Y-51909500D01*
X45023465Y-51909500D01*
X44816535Y-51909500D01*
X44816530Y-51909500D01*
X44613587Y-51949868D01*
X44613579Y-51949870D01*
X44422403Y-52029058D01*
X44250342Y-52144024D01*
X44104024Y-52290342D01*
X43989058Y-52462403D01*
X43909870Y-52653579D01*
X43909868Y-52653587D01*
X43869500Y-52856530D01*
X43430499Y-52856530D01*
X43390130Y-52653580D01*
X43310941Y-52462402D01*
X43195977Y-52290345D01*
X43195975Y-52290342D01*
X43049657Y-52144024D01*
X42881655Y-52031770D01*
X42877598Y-52029059D01*
X42877593Y-52029057D01*
X42686420Y-51949870D01*
X42686412Y-51949868D01*
X42483469Y-51909500D01*
X42483465Y-51909500D01*
X42276535Y-51909500D01*
X42276530Y-51909500D01*
X42073587Y-51949868D01*
X42073579Y-51949870D01*
X41882403Y-52029058D01*
X41710342Y-52144024D01*
X41564024Y-52290342D01*
X41449058Y-52462403D01*
X41369870Y-52653579D01*
X41369868Y-52653587D01*
X41329500Y-52856530D01*
X41329500Y-53063469D01*
X41369868Y-53266412D01*
X41369870Y-53266420D01*
X41430159Y-53411970D01*
X41437628Y-53481440D01*
X41406353Y-53543919D01*
X41403297Y-53547086D01*
X41122942Y-53827443D01*
X41045444Y-53904940D01*
X41045443Y-53904941D01*
X41045443Y-53904942D01*
X41014361Y-53979979D01*
X41003500Y-54006200D01*
X41003500Y-54942453D01*
X40983815Y-55009492D01*
X40931011Y-55055247D01*
X40861853Y-55065191D01*
X40798297Y-55036166D01*
X40775013Y-55007007D01*
X40774325Y-55007467D01*
X40768813Y-54999218D01*
X40655977Y-54830345D01*
X40655975Y-54830342D01*
X40509657Y-54684024D01*
X40354249Y-54580185D01*
X40337598Y-54569059D01*
X40337593Y-54569057D01*
X40146420Y-54489870D01*
X40146412Y-54489868D01*
X39943469Y-54449500D01*
X39943465Y-54449500D01*
X39736535Y-54449500D01*
X39736530Y-54449500D01*
X39533587Y-54489868D01*
X39533579Y-54489870D01*
X39413029Y-54539804D01*
X39343559Y-54547273D01*
X39281080Y-54515998D01*
X39277895Y-54512924D01*
X38784512Y-54019541D01*
X38784504Y-54019535D01*
X38761405Y-54006199D01*
X38761405Y-54006198D01*
X38761402Y-54006198D01*
X38715994Y-53979981D01*
X38715991Y-53979979D01*
X38676882Y-53969500D01*
X38639562Y-53959500D01*
X38639560Y-53959500D01*
X38085495Y-53959500D01*
X38018456Y-53939815D01*
X37972701Y-53887011D01*
X37962757Y-53817853D01*
X37991782Y-53754297D01*
X37997814Y-53747819D01*
X38115974Y-53629658D01*
X38115975Y-53629657D01*
X38115977Y-53629655D01*
X38230941Y-53457598D01*
X38310130Y-53266420D01*
X38350500Y-53063465D01*
X38350500Y-52856535D01*
X38350499Y-52856530D01*
X38789500Y-52856530D01*
X38789500Y-53063469D01*
X38829868Y-53266412D01*
X38829870Y-53266420D01*
X38895939Y-53425925D01*
X38909059Y-53457598D01*
X38950032Y-53518919D01*
X39024024Y-53629657D01*
X39170342Y-53775975D01*
X39170345Y-53775977D01*
X39342402Y-53890941D01*
X39533580Y-53970130D01*
X39736530Y-54010499D01*
X39736534Y-54010500D01*
X39736535Y-54010500D01*
X39943466Y-54010500D01*
X39943467Y-54010499D01*
X40146420Y-53970130D01*
X40337598Y-53890941D01*
X40509655Y-53775977D01*
X40655977Y-53629655D01*
X40770941Y-53457598D01*
X40850130Y-53266420D01*
X40890500Y-53063465D01*
X40890500Y-52856535D01*
X40850130Y-52653580D01*
X40770941Y-52462402D01*
X40655977Y-52290345D01*
X40655975Y-52290342D01*
X40509657Y-52144024D01*
X40341655Y-52031770D01*
X40337598Y-52029059D01*
X40337593Y-52029057D01*
X40146420Y-51949870D01*
X40146412Y-51949868D01*
X39943469Y-51909500D01*
X39943465Y-51909500D01*
X39736535Y-51909500D01*
X39736530Y-51909500D01*
X39533587Y-51949868D01*
X39533579Y-51949870D01*
X39342403Y-52029058D01*
X39170342Y-52144024D01*
X39024024Y-52290342D01*
X38909058Y-52462403D01*
X38829870Y-52653579D01*
X38829868Y-52653587D01*
X38789500Y-52856530D01*
X38350499Y-52856530D01*
X38310130Y-52653580D01*
X38230941Y-52462402D01*
X38115977Y-52290345D01*
X38115975Y-52290342D01*
X37969657Y-52144024D01*
X37801655Y-52031770D01*
X37797598Y-52029059D01*
X37797593Y-52029057D01*
X37606420Y-51949870D01*
X37606412Y-51949868D01*
X37403469Y-51909500D01*
X37403465Y-51909500D01*
X37196535Y-51909500D01*
X37196530Y-51909500D01*
X36993587Y-51949868D01*
X36993579Y-51949870D01*
X36873029Y-51999804D01*
X36853151Y-52001941D01*
X36834422Y-52008927D01*
X36819125Y-52005599D01*
X36803559Y-52007273D01*
X36785681Y-51998324D01*
X36766149Y-51994075D01*
X36743860Y-51977389D01*
X36741080Y-51975998D01*
X36737895Y-51972924D01*
X36623819Y-51858848D01*
X36590334Y-51797525D01*
X36587500Y-51771167D01*
X36587500Y-49614840D01*
X36587500Y-49614839D01*
X36567021Y-49538412D01*
X36564769Y-49534511D01*
X36527464Y-49469896D01*
X36527458Y-49469888D01*
X35859271Y-48801701D01*
X35825786Y-48740378D01*
X35830770Y-48670686D01*
X35872642Y-48614753D01*
X35938106Y-48590336D01*
X35947030Y-48590020D01*
X36579978Y-48590471D01*
X36579985Y-48590474D01*
X36625890Y-48590502D01*
X36625891Y-48590503D01*
X36625892Y-48590503D01*
X36626003Y-48590503D01*
X36649547Y-48590520D01*
X36656618Y-48591108D01*
X36658275Y-48591014D01*
X36659735Y-48590527D01*
X36659739Y-48590528D01*
X36659741Y-48590525D01*
X36659744Y-48590525D01*
X36659749Y-48590526D01*
X36659779Y-48590513D01*
X36663925Y-48589134D01*
X36663925Y-48589133D01*
X36663931Y-48589132D01*
X36669301Y-48587344D01*
X36674216Y-48584544D01*
X36692333Y-48577054D01*
X36733453Y-48560057D01*
X36733457Y-48560052D01*
X36733461Y-48560051D01*
X36761540Y-48532008D01*
X36785098Y-48508483D01*
X36789319Y-48504709D01*
X36789891Y-48503698D01*
X36789895Y-48503695D01*
X36789896Y-48503691D01*
X36789901Y-48503687D01*
X36789908Y-48503667D01*
X36791623Y-48500643D01*
X36793419Y-48495207D01*
X36812388Y-48449500D01*
X36820307Y-48430419D01*
X36820471Y-48430030D01*
X36820474Y-48430017D01*
X36820514Y-48370027D01*
X36820514Y-48370021D01*
X36820514Y-48369857D01*
X36820528Y-48350261D01*
X36820527Y-48350260D01*
X36820540Y-48331894D01*
X36820538Y-48331874D01*
X36820616Y-48214471D01*
X36830473Y-33334963D01*
X36830492Y-33334918D01*
X36830499Y-33295343D01*
X36830526Y-33255251D01*
X36830526Y-33255199D01*
X36815098Y-33217936D01*
X36815098Y-33217935D01*
X36815091Y-33217919D01*
X36800051Y-33181539D01*
X36800049Y-33181537D01*
X36800047Y-33181532D01*
X36799995Y-33181453D01*
X36771382Y-33152831D01*
X36771382Y-33152830D01*
X36771342Y-33152791D01*
X36771338Y-33152788D01*
X36770402Y-33151851D01*
X36743687Y-33125100D01*
X36743640Y-33125080D01*
X36743604Y-33125044D01*
X36743600Y-33125042D01*
X36720547Y-33115488D01*
X36705986Y-33109454D01*
X36670015Y-33094527D01*
X36669965Y-33094526D01*
X36669917Y-33094507D01*
X36669548Y-33094506D01*
X36669546Y-33094506D01*
X36629014Y-33094499D01*
X36629013Y-33094499D01*
X36628960Y-33094498D01*
X36628960Y-33094499D01*
X36628935Y-33094498D01*
X36626827Y-33094497D01*
X36590251Y-33094474D01*
X36590207Y-33094491D01*
X36578568Y-33094489D01*
X36578567Y-33094488D01*
X35374259Y-33094275D01*
X35307223Y-33074579D01*
X35261477Y-33021766D01*
X35251546Y-32952606D01*
X35280582Y-32889056D01*
X35326825Y-32855716D01*
X35405915Y-32822956D01*
X35563558Y-32717622D01*
X35697622Y-32583558D01*
X35802956Y-32425915D01*
X35875512Y-32250751D01*
X35912500Y-32064798D01*
X35912500Y-31875202D01*
X35875512Y-31689249D01*
X35802956Y-31514085D01*
X35727598Y-31401304D01*
X35706721Y-31334628D01*
X35707997Y-31314535D01*
X35711238Y-31292295D01*
X35711237Y-30133232D01*
X35700795Y-30061557D01*
X35646749Y-29951003D01*
X35646747Y-29951001D01*
X35646747Y-29951000D01*
X35637928Y-29942181D01*
X35604443Y-29880858D01*
X35609427Y-29811166D01*
X35651299Y-29755233D01*
X35716763Y-29730816D01*
X35725609Y-29730500D01*
X37354167Y-29730500D01*
X37421206Y-29750185D01*
X37441848Y-29766819D01*
X40603181Y-32928152D01*
X40636666Y-32989475D01*
X40639500Y-33015833D01*
X40639500Y-38729562D01*
X40653152Y-38780513D01*
X40659979Y-38805990D01*
X40659982Y-38805995D01*
X40699535Y-38874504D01*
X40699539Y-38874509D01*
X40699540Y-38874511D01*
X42565489Y-40740460D01*
X42634012Y-40780022D01*
X42710438Y-40800500D01*
X46824167Y-40800500D01*
X46891206Y-40820185D01*
X46911848Y-40836819D01*
X49663181Y-43588152D01*
X49696666Y-43649475D01*
X49699500Y-43675833D01*
X49699500Y-48789562D01*
X49708749Y-48824080D01*
X49719979Y-48865990D01*
X49719982Y-48865995D01*
X49759535Y-48934504D01*
X49759539Y-48934509D01*
X49759540Y-48934511D01*
X51885540Y-51060511D01*
X51941489Y-51116460D01*
X51941491Y-51116461D01*
X51941495Y-51116464D01*
X52010004Y-51156017D01*
X52010011Y-51156021D01*
X52086438Y-51176500D01*
X52165562Y-51176500D01*
X57280167Y-51176500D01*
X57347206Y-51196185D01*
X57367848Y-51212819D01*
X57860170Y-51705141D01*
X57893655Y-51766464D01*
X57888671Y-51836156D01*
X57846799Y-51892089D01*
X57781335Y-51916506D01*
X57748298Y-51914439D01*
X57723469Y-51909500D01*
X57723465Y-51909500D01*
X57516535Y-51909500D01*
X57516530Y-51909500D01*
X57313587Y-51949868D01*
X57313579Y-51949870D01*
X57122403Y-52029058D01*
X56950342Y-52144024D01*
X56804024Y-52290342D01*
X56689057Y-52462403D01*
X56620835Y-52627108D01*
X56576994Y-52681511D01*
X56510700Y-52703576D01*
X56443000Y-52686297D01*
X56395390Y-52635159D01*
X56388343Y-52617973D01*
X56331095Y-52441782D01*
X56234620Y-52252442D01*
X56109727Y-52080540D01*
X56109723Y-52080535D01*
X55959464Y-51930276D01*
X55959459Y-51930272D01*
X55787557Y-51805379D01*
X55598215Y-51708903D01*
X55396124Y-51643241D01*
X55330000Y-51632768D01*
X55330000Y-52526988D01*
X55272993Y-52494075D01*
X55145826Y-52460000D01*
X55014174Y-52460000D01*
X54887007Y-52494075D01*
X54830000Y-52526988D01*
X54830000Y-51632768D01*
X54829999Y-51632768D01*
X54763875Y-51643241D01*
X54561784Y-51708903D01*
X54372442Y-51805379D01*
X54200540Y-51930272D01*
X54200535Y-51930276D01*
X54050276Y-52080535D01*
X54050272Y-52080540D01*
X53925379Y-52252442D01*
X53828905Y-52441781D01*
X53771656Y-52617974D01*
X53732218Y-52675649D01*
X53667859Y-52702847D01*
X53599013Y-52690932D01*
X53547537Y-52643688D01*
X53539164Y-52627107D01*
X53470943Y-52462405D01*
X53355975Y-52290342D01*
X53209657Y-52144024D01*
X53041655Y-52031770D01*
X53037598Y-52029059D01*
X53037593Y-52029057D01*
X52846420Y-51949870D01*
X52846412Y-51949868D01*
X52643469Y-51909500D01*
X52643465Y-51909500D01*
X52436535Y-51909500D01*
X52436530Y-51909500D01*
X52233587Y-51949868D01*
X52233579Y-51949870D01*
X52042403Y-52029058D01*
X51870342Y-52144024D01*
X51724024Y-52290342D01*
X51609058Y-52462403D01*
X51529870Y-52653579D01*
X51529868Y-52653587D01*
X51489500Y-52856530D01*
X51489500Y-53063469D01*
X51529868Y-53266412D01*
X51529870Y-53266420D01*
X51595939Y-53425925D01*
X51609059Y-53457598D01*
X51650032Y-53518919D01*
X51724024Y-53629657D01*
X51870342Y-53775975D01*
X51870345Y-53775977D01*
X52042402Y-53890941D01*
X52233580Y-53970130D01*
X52436530Y-54010499D01*
X52436534Y-54010500D01*
X52436535Y-54010500D01*
X52643466Y-54010500D01*
X52643467Y-54010499D01*
X52846420Y-53970130D01*
X53037598Y-53890941D01*
X53209655Y-53775977D01*
X53355977Y-53629655D01*
X53470941Y-53457598D01*
X53539165Y-53292889D01*
X53583004Y-53238488D01*
X53649298Y-53216423D01*
X53716998Y-53233702D01*
X53764609Y-53284839D01*
X53771656Y-53302026D01*
X53828904Y-53478216D01*
X53925379Y-53667557D01*
X54050272Y-53839459D01*
X54050276Y-53839464D01*
X54200535Y-53989723D01*
X54200540Y-53989727D01*
X54372442Y-54114620D01*
X54561782Y-54211095D01*
X54737973Y-54268343D01*
X54795648Y-54307780D01*
X54822847Y-54372139D01*
X54810932Y-54440985D01*
X54763688Y-54492461D01*
X54747108Y-54500835D01*
X54582403Y-54569057D01*
X54410342Y-54684024D01*
X54264024Y-54830342D01*
X54149058Y-55002403D01*
X54069870Y-55193579D01*
X54069868Y-55193587D01*
X54029500Y-55396530D01*
X54029500Y-55603469D01*
X54069868Y-55806412D01*
X54069870Y-55806420D01*
X54135939Y-55965925D01*
X54149059Y-55997598D01*
X54162836Y-56018217D01*
X54264024Y-56169657D01*
X54410342Y-56315975D01*
X54410345Y-56315977D01*
X54582402Y-56430941D01*
X54773580Y-56510130D01*
X54976530Y-56550499D01*
X54976534Y-56550500D01*
X54976535Y-56550500D01*
X55183466Y-56550500D01*
X55183467Y-56550499D01*
X55386420Y-56510130D01*
X55577598Y-56430941D01*
X55749655Y-56315977D01*
X55895977Y-56169655D01*
X56010941Y-55997598D01*
X56090130Y-55806420D01*
X56130500Y-55603465D01*
X56130500Y-55396535D01*
X56090130Y-55193580D01*
X56010941Y-55002402D01*
X55895977Y-54830345D01*
X55895975Y-54830342D01*
X55749657Y-54684024D01*
X55594249Y-54580185D01*
X55577598Y-54569059D01*
X55577593Y-54569057D01*
X55449498Y-54515998D01*
X55412890Y-54500834D01*
X55358488Y-54456994D01*
X55336423Y-54390700D01*
X55353702Y-54323001D01*
X55404839Y-54275390D01*
X55422026Y-54268343D01*
X55598217Y-54211095D01*
X55787557Y-54114620D01*
X55959459Y-53989727D01*
X55959464Y-53989723D01*
X56109723Y-53839464D01*
X56109727Y-53839459D01*
X56234620Y-53667557D01*
X56331095Y-53478217D01*
X56388343Y-53302026D01*
X56427780Y-53244351D01*
X56492139Y-53217152D01*
X56560985Y-53229066D01*
X56612461Y-53276310D01*
X56620835Y-53292891D01*
X56675939Y-53425925D01*
X56689059Y-53457598D01*
X56730032Y-53518919D01*
X56804024Y-53629657D01*
X56950342Y-53775975D01*
X56950345Y-53775977D01*
X57122402Y-53890941D01*
X57313580Y-53970130D01*
X57516530Y-54010499D01*
X57516534Y-54010500D01*
X57516535Y-54010500D01*
X57723466Y-54010500D01*
X57723467Y-54010499D01*
X57926420Y-53970130D01*
X58117598Y-53890941D01*
X58289655Y-53775977D01*
X58388363Y-53677268D01*
X58449684Y-53643785D01*
X58519376Y-53648769D01*
X58575310Y-53690640D01*
X58585780Y-53709027D01*
X58585915Y-53708950D01*
X58607821Y-53746894D01*
X58607823Y-53746896D01*
X58629540Y-53784511D01*
X58629542Y-53784513D01*
X59210239Y-54365210D01*
X59243724Y-54426533D01*
X59238740Y-54496225D01*
X59210240Y-54540572D01*
X59130271Y-54620541D01*
X59005379Y-54792442D01*
X58908905Y-54981781D01*
X58851656Y-55157974D01*
X58812218Y-55215649D01*
X58747859Y-55242847D01*
X58679013Y-55230932D01*
X58627537Y-55183688D01*
X58619164Y-55167107D01*
X58611838Y-55149421D01*
X58578490Y-55068910D01*
X58550943Y-55002405D01*
X58435975Y-54830342D01*
X58289657Y-54684024D01*
X58134249Y-54580185D01*
X58117598Y-54569059D01*
X58117593Y-54569057D01*
X57926420Y-54489870D01*
X57926412Y-54489868D01*
X57723469Y-54449500D01*
X57723465Y-54449500D01*
X57516535Y-54449500D01*
X57516530Y-54449500D01*
X57313587Y-54489868D01*
X57313579Y-54489870D01*
X57122403Y-54569058D01*
X56950342Y-54684024D01*
X56804024Y-54830342D01*
X56689058Y-55002403D01*
X56609870Y-55193579D01*
X56609868Y-55193587D01*
X56569500Y-55396530D01*
X56569500Y-55603469D01*
X56609868Y-55806412D01*
X56609870Y-55806420D01*
X56675939Y-55965925D01*
X56689059Y-55997598D01*
X56702836Y-56018217D01*
X56804024Y-56169657D01*
X56950342Y-56315975D01*
X56950345Y-56315977D01*
X57122402Y-56430941D01*
X57313580Y-56510130D01*
X57516530Y-56550499D01*
X57516534Y-56550500D01*
X57516535Y-56550500D01*
X57723466Y-56550500D01*
X57723467Y-56550499D01*
X57926420Y-56510130D01*
X58117598Y-56430941D01*
X58289655Y-56315977D01*
X58435977Y-56169655D01*
X58550941Y-55997598D01*
X58619165Y-55832889D01*
X58663004Y-55778488D01*
X58729298Y-55756423D01*
X58796998Y-55773702D01*
X58844609Y-55824839D01*
X58851656Y-55842026D01*
X58908904Y-56018216D01*
X59005379Y-56207557D01*
X59130272Y-56379459D01*
X59130276Y-56379464D01*
X59280535Y-56529723D01*
X59280540Y-56529727D01*
X59452442Y-56654620D01*
X59641782Y-56751095D01*
X59843871Y-56816757D01*
X59910000Y-56827231D01*
X59910000Y-55933012D01*
X59967007Y-55965925D01*
X60094174Y-56000000D01*
X60225826Y-56000000D01*
X60352993Y-55965925D01*
X60410000Y-55933012D01*
X60410000Y-56827230D01*
X60476126Y-56816757D01*
X60476129Y-56816757D01*
X60678217Y-56751095D01*
X60867557Y-56654620D01*
X61039459Y-56529727D01*
X61039464Y-56529723D01*
X61189723Y-56379464D01*
X61189727Y-56379459D01*
X61314620Y-56207557D01*
X61411095Y-56018217D01*
X61468343Y-55842026D01*
X61507780Y-55784351D01*
X61572139Y-55757152D01*
X61640985Y-55769066D01*
X61692461Y-55816310D01*
X61700833Y-55832887D01*
X61717301Y-55872644D01*
X61755939Y-55965925D01*
X61769059Y-55997598D01*
X61782836Y-56018217D01*
X61884024Y-56169657D01*
X62030342Y-56315975D01*
X62030345Y-56315977D01*
X62202402Y-56430941D01*
X62393580Y-56510130D01*
X62596530Y-56550499D01*
X62596534Y-56550500D01*
X62596535Y-56550500D01*
X62803466Y-56550500D01*
X62803467Y-56550499D01*
X63006420Y-56510130D01*
X63197598Y-56430941D01*
X63369655Y-56315977D01*
X63515977Y-56169655D01*
X63630941Y-55997598D01*
X63637085Y-55982767D01*
X63660164Y-55927048D01*
X63704005Y-55872644D01*
X63770299Y-55850579D01*
X63774725Y-55850500D01*
X64165275Y-55850500D01*
X64232314Y-55870185D01*
X64278069Y-55922989D01*
X64279836Y-55927048D01*
X64309056Y-55997594D01*
X64424024Y-56169657D01*
X64570342Y-56315975D01*
X64570345Y-56315977D01*
X64742402Y-56430941D01*
X64933580Y-56510130D01*
X65136530Y-56550499D01*
X65136534Y-56550500D01*
X65136535Y-56550500D01*
X65343466Y-56550500D01*
X65343467Y-56550499D01*
X65546420Y-56510130D01*
X65737598Y-56430941D01*
X65909655Y-56315977D01*
X66055977Y-56169655D01*
X66170941Y-55997598D01*
X66250130Y-55806420D01*
X66290500Y-55603465D01*
X66290500Y-55396535D01*
X66285649Y-55372149D01*
X68049500Y-55372149D01*
X68049500Y-55627850D01*
X68074839Y-55820311D01*
X68082874Y-55881340D01*
X68119550Y-56018216D01*
X68149050Y-56128312D01*
X68149053Y-56128322D01*
X68246894Y-56364531D01*
X68246899Y-56364542D01*
X68374734Y-56585957D01*
X68374745Y-56585973D01*
X68530388Y-56788811D01*
X68530394Y-56788818D01*
X68711181Y-56969605D01*
X68711188Y-56969611D01*
X68737009Y-56989424D01*
X68914035Y-57125261D01*
X68914042Y-57125265D01*
X69135457Y-57253100D01*
X69135462Y-57253102D01*
X69135465Y-57253104D01*
X69371687Y-57350950D01*
X69618660Y-57417126D01*
X69872157Y-57450500D01*
X69872164Y-57450500D01*
X70127836Y-57450500D01*
X70127843Y-57450500D01*
X70381340Y-57417126D01*
X70628313Y-57350950D01*
X70864535Y-57253104D01*
X71085965Y-57125261D01*
X71288813Y-56969610D01*
X71469610Y-56788813D01*
X71625261Y-56585965D01*
X71753104Y-56364535D01*
X71850950Y-56128313D01*
X71917126Y-55881340D01*
X71950500Y-55627843D01*
X71950500Y-55372157D01*
X71917126Y-55118660D01*
X71850950Y-54871687D01*
X71847290Y-54862852D01*
X71769751Y-54675654D01*
X71753104Y-54635465D01*
X71753102Y-54635462D01*
X71753100Y-54635457D01*
X71625265Y-54414042D01*
X71625261Y-54414035D01*
X71518875Y-54275390D01*
X71469611Y-54211188D01*
X71469605Y-54211181D01*
X71288818Y-54030394D01*
X71288811Y-54030388D01*
X71085973Y-53874745D01*
X71085971Y-53874743D01*
X71085965Y-53874739D01*
X71085960Y-53874736D01*
X71085957Y-53874734D01*
X70864542Y-53746899D01*
X70864531Y-53746894D01*
X70628322Y-53649053D01*
X70628315Y-53649051D01*
X70628313Y-53649050D01*
X70381340Y-53582874D01*
X70325007Y-53575457D01*
X70127850Y-53549500D01*
X70127843Y-53549500D01*
X69872157Y-53549500D01*
X69872149Y-53549500D01*
X69646826Y-53579165D01*
X69618660Y-53582874D01*
X69444063Y-53629657D01*
X69371687Y-53649050D01*
X69371677Y-53649053D01*
X69135468Y-53746894D01*
X69135457Y-53746899D01*
X68914042Y-53874734D01*
X68914026Y-53874745D01*
X68711188Y-54030388D01*
X68711181Y-54030394D01*
X68530394Y-54211181D01*
X68530388Y-54211188D01*
X68374745Y-54414026D01*
X68374734Y-54414042D01*
X68246899Y-54635457D01*
X68246894Y-54635468D01*
X68149053Y-54871677D01*
X68149050Y-54871687D01*
X68087901Y-55099901D01*
X68082874Y-55118661D01*
X68049500Y-55372149D01*
X66285649Y-55372149D01*
X66259930Y-55242847D01*
X66250130Y-55193580D01*
X66170941Y-55002402D01*
X66055977Y-54830345D01*
X66055975Y-54830342D01*
X65909657Y-54684024D01*
X65754249Y-54580185D01*
X65737598Y-54569059D01*
X65737593Y-54569057D01*
X65546420Y-54489870D01*
X65546412Y-54489868D01*
X65343469Y-54449500D01*
X65343465Y-54449500D01*
X65136535Y-54449500D01*
X65136530Y-54449500D01*
X64933587Y-54489868D01*
X64933579Y-54489870D01*
X64742403Y-54569058D01*
X64570342Y-54684024D01*
X64424024Y-54830342D01*
X64309056Y-55002405D01*
X64279836Y-55072952D01*
X64235995Y-55127356D01*
X64169701Y-55149421D01*
X64165275Y-55149500D01*
X63774725Y-55149500D01*
X63707686Y-55129815D01*
X63661931Y-55077011D01*
X63660164Y-55072952D01*
X63630943Y-55002405D01*
X63515975Y-54830342D01*
X63369657Y-54684024D01*
X63214249Y-54580185D01*
X63197598Y-54569059D01*
X63197593Y-54569057D01*
X63006420Y-54489870D01*
X63006412Y-54489868D01*
X62803469Y-54449500D01*
X62803465Y-54449500D01*
X62596535Y-54449500D01*
X62596530Y-54449500D01*
X62393587Y-54489868D01*
X62393579Y-54489870D01*
X62202403Y-54569058D01*
X62030342Y-54684024D01*
X61884024Y-54830342D01*
X61769057Y-55002403D01*
X61700835Y-55167108D01*
X61656994Y-55221511D01*
X61590700Y-55243576D01*
X61523000Y-55226297D01*
X61475390Y-55175159D01*
X61468343Y-55157973D01*
X61411095Y-54981782D01*
X61314620Y-54792442D01*
X61296416Y-54767385D01*
X61272936Y-54701578D01*
X61288762Y-54633525D01*
X61338868Y-54584830D01*
X61396734Y-54570500D01*
X61429560Y-54570500D01*
X61429562Y-54570500D01*
X61505989Y-54550021D01*
X61574511Y-54510460D01*
X61630460Y-54454511D01*
X62137896Y-53947073D01*
X62199217Y-53913590D01*
X62268908Y-53918574D01*
X62273007Y-53920186D01*
X62393580Y-53970130D01*
X62596530Y-54010499D01*
X62596534Y-54010500D01*
X62596535Y-54010500D01*
X62803466Y-54010500D01*
X62803467Y-54010499D01*
X63006420Y-53970130D01*
X63197598Y-53890941D01*
X63369655Y-53775977D01*
X63515977Y-53629655D01*
X63630941Y-53457598D01*
X63710130Y-53266420D01*
X63750500Y-53063465D01*
X63750500Y-52856535D01*
X63710130Y-52653580D01*
X63630941Y-52462402D01*
X63515977Y-52290345D01*
X63515975Y-52290342D01*
X63369657Y-52144024D01*
X63201655Y-52031770D01*
X63197598Y-52029059D01*
X63197593Y-52029057D01*
X63006420Y-51949870D01*
X63006412Y-51949868D01*
X62803469Y-51909500D01*
X62803465Y-51909500D01*
X62596535Y-51909500D01*
X62596530Y-51909500D01*
X62393587Y-51949868D01*
X62393579Y-51949870D01*
X62202403Y-52029058D01*
X62030342Y-52144024D01*
X61884024Y-52290342D01*
X61769058Y-52462403D01*
X61689870Y-52653579D01*
X61689868Y-52653587D01*
X61649500Y-52856530D01*
X61649500Y-53063469D01*
X61689868Y-53266412D01*
X61689871Y-53266424D01*
X61739803Y-53386971D01*
X61747272Y-53456440D01*
X61715997Y-53518919D01*
X61712923Y-53522104D01*
X61301848Y-53933181D01*
X61240525Y-53966666D01*
X61214167Y-53969500D01*
X60935495Y-53969500D01*
X60868456Y-53949815D01*
X60822701Y-53897011D01*
X60812757Y-53827853D01*
X60841782Y-53764297D01*
X60847814Y-53757819D01*
X60975974Y-53629658D01*
X60975975Y-53629657D01*
X60975977Y-53629655D01*
X61090941Y-53457598D01*
X61170130Y-53266420D01*
X61210500Y-53063465D01*
X61210500Y-52856535D01*
X61170130Y-52653580D01*
X61090941Y-52462402D01*
X60975977Y-52290345D01*
X60975975Y-52290342D01*
X60829657Y-52144024D01*
X60657595Y-52029057D01*
X60537047Y-51979124D01*
X60482643Y-51935282D01*
X60460579Y-51868988D01*
X60460500Y-51864563D01*
X60460500Y-50380440D01*
X60460499Y-50380436D01*
X60457525Y-50369338D01*
X60449342Y-50338795D01*
X60440022Y-50304012D01*
X60400460Y-50235489D01*
X59274511Y-49109540D01*
X59274509Y-49109539D01*
X59274504Y-49109535D01*
X59205995Y-49069982D01*
X59205990Y-49069979D01*
X59180513Y-49063152D01*
X59129562Y-49049500D01*
X59129560Y-49049500D01*
X53775833Y-49049500D01*
X53708794Y-49029815D01*
X53688152Y-49013181D01*
X51836819Y-47161848D01*
X51803334Y-47100525D01*
X51800500Y-47074167D01*
X51800500Y-41960440D01*
X51800500Y-41960438D01*
X51780022Y-41884012D01*
X51740460Y-41815489D01*
X47434511Y-37509540D01*
X47434509Y-37509539D01*
X47434504Y-37509535D01*
X47365995Y-37469982D01*
X47365990Y-37469979D01*
X47340513Y-37463152D01*
X47289562Y-37449500D01*
X47289560Y-37449500D01*
X43656687Y-37449500D01*
X43589648Y-37429815D01*
X43569006Y-37413181D01*
X42496819Y-36340994D01*
X42463334Y-36279671D01*
X42460500Y-36253313D01*
X42460500Y-34584167D01*
X52644500Y-34584167D01*
X52644500Y-35215832D01*
X52651502Y-35269007D01*
X52651503Y-35269013D01*
X52685580Y-35396188D01*
X52706101Y-35445731D01*
X52706108Y-35445745D01*
X52771934Y-35559759D01*
X52804590Y-35602316D01*
X52897681Y-35695407D01*
X52897690Y-35695415D01*
X52940240Y-35728065D01*
X52940243Y-35728067D01*
X52987498Y-35755349D01*
X53035715Y-35805915D01*
X53049500Y-35862737D01*
X53049500Y-39637261D01*
X53029815Y-39704300D01*
X52987502Y-39744647D01*
X52940246Y-39771930D01*
X52897681Y-39804592D01*
X52804590Y-39897683D01*
X52771934Y-39940240D01*
X52706108Y-40054254D01*
X52706101Y-40054268D01*
X52685580Y-40103811D01*
X52651503Y-40230986D01*
X52651502Y-40230992D01*
X52644500Y-40284167D01*
X52644500Y-40915832D01*
X52651502Y-40969007D01*
X52651503Y-40969013D01*
X52685580Y-41096188D01*
X52706101Y-41145731D01*
X52706108Y-41145745D01*
X52771934Y-41259759D01*
X52804590Y-41302316D01*
X52804591Y-41302317D01*
X52897683Y-41395409D01*
X52940243Y-41428067D01*
X53054257Y-41493893D01*
X53054262Y-41493895D01*
X53054268Y-41493898D01*
X53103811Y-41514419D01*
X53103813Y-41514419D01*
X53103819Y-41514422D01*
X53230986Y-41548497D01*
X53284174Y-41555500D01*
X53284180Y-41555500D01*
X53850003Y-41555500D01*
X53850003Y-41555499D01*
X53895728Y-41550348D01*
X53904724Y-41546015D01*
X53940354Y-41528857D01*
X54009295Y-41517504D01*
X54014731Y-41518295D01*
X54046380Y-41523620D01*
X54060837Y-41535149D01*
X54150000Y-41555500D01*
X54235857Y-41555500D01*
X54246074Y-41557219D01*
X54268556Y-41568142D01*
X54292539Y-41575185D01*
X54299439Y-41583148D01*
X54308918Y-41587754D01*
X54321927Y-41609100D01*
X54338294Y-41627989D01*
X54340989Y-41640380D01*
X54345278Y-41647417D01*
X54345005Y-41658838D01*
X54349500Y-41679500D01*
X54349500Y-45220500D01*
X54329815Y-45287539D01*
X54277011Y-45333294D01*
X54225500Y-45344500D01*
X54149995Y-45344500D01*
X54104271Y-45349651D01*
X54021873Y-45389333D01*
X53964851Y-45460836D01*
X53944500Y-45549995D01*
X53944500Y-47050004D01*
X53949651Y-47095728D01*
X53989333Y-47178126D01*
X53989334Y-47178127D01*
X54060837Y-47235149D01*
X54127428Y-47250348D01*
X54149995Y-47255499D01*
X54150000Y-47255500D01*
X54715820Y-47255500D01*
X54715826Y-47255500D01*
X54769014Y-47248497D01*
X54896181Y-47214422D01*
X54945743Y-47193893D01*
X55059757Y-47128067D01*
X55102317Y-47095409D01*
X55195409Y-47002317D01*
X55228067Y-46959757D01*
X55293893Y-46845743D01*
X55314422Y-46796181D01*
X55348497Y-46669014D01*
X55355500Y-46615826D01*
X55355500Y-45984174D01*
X55348497Y-45930986D01*
X55314422Y-45803819D01*
X55293893Y-45754257D01*
X55228067Y-45640243D01*
X55195409Y-45597683D01*
X55102318Y-45504592D01*
X55102319Y-45504592D01*
X55059753Y-45471930D01*
X55012498Y-45444647D01*
X54964283Y-45394079D01*
X54950500Y-45337261D01*
X54950500Y-41562737D01*
X54970185Y-41495698D01*
X55012500Y-41455350D01*
X55059757Y-41428067D01*
X55102317Y-41395409D01*
X55195409Y-41302317D01*
X55228067Y-41259757D01*
X55293893Y-41145743D01*
X55314422Y-41096181D01*
X55348497Y-40969014D01*
X55355500Y-40915826D01*
X55355500Y-40284174D01*
X55348497Y-40230986D01*
X55314422Y-40103819D01*
X55293893Y-40054257D01*
X55228067Y-39940243D01*
X55195409Y-39897683D01*
X55102317Y-39804591D01*
X55102316Y-39804590D01*
X55059759Y-39771934D01*
X54945745Y-39706108D01*
X54945731Y-39706101D01*
X54896188Y-39685580D01*
X54881723Y-39681704D01*
X54769014Y-39651503D01*
X54769009Y-39651502D01*
X54769007Y-39651502D01*
X54715832Y-39644500D01*
X54715826Y-39644500D01*
X54150000Y-39644500D01*
X54149995Y-39644500D01*
X54104272Y-39649651D01*
X54059643Y-39671144D01*
X53990701Y-39682495D01*
X53985268Y-39681704D01*
X53953618Y-39676379D01*
X53939163Y-39664851D01*
X53850000Y-39644500D01*
X53764143Y-39644500D01*
X53753926Y-39642781D01*
X53731441Y-39631856D01*
X53707461Y-39624815D01*
X53700561Y-39616852D01*
X53691082Y-39612247D01*
X53678071Y-39590897D01*
X53661706Y-39572011D01*
X53659010Y-39559619D01*
X53654722Y-39552583D01*
X53654994Y-39541161D01*
X53650500Y-39520500D01*
X53650500Y-35979500D01*
X53670185Y-35912461D01*
X53722989Y-35866706D01*
X53774500Y-35855500D01*
X53850003Y-35855500D01*
X53850003Y-35855499D01*
X53895728Y-35850348D01*
X53921024Y-35838166D01*
X53940354Y-35828857D01*
X54009295Y-35817504D01*
X54048397Y-35829068D01*
X54060740Y-35835072D01*
X54060837Y-35835149D01*
X54060952Y-35835175D01*
X54067101Y-35838166D01*
X54092742Y-35861500D01*
X54118520Y-35884773D01*
X54118587Y-35885020D01*
X54118776Y-35885192D01*
X54127739Y-35918715D01*
X54136835Y-35952200D01*
X54136758Y-35952443D01*
X54136824Y-35952690D01*
X54126230Y-35985771D01*
X54115789Y-36018824D01*
X54115553Y-36019109D01*
X54115515Y-36019231D01*
X54115325Y-36019387D01*
X54100543Y-36037355D01*
X54014510Y-36123387D01*
X53990738Y-36164562D01*
X53955201Y-36226114D01*
X53924500Y-36340691D01*
X53924500Y-36459309D01*
X53955201Y-36573886D01*
X54014511Y-36676613D01*
X54098387Y-36760489D01*
X54201114Y-36819799D01*
X54315691Y-36850500D01*
X54315694Y-36850500D01*
X54434306Y-36850500D01*
X54434309Y-36850500D01*
X54548886Y-36819799D01*
X54651613Y-36760489D01*
X54735489Y-36676613D01*
X54794799Y-36573886D01*
X54825500Y-36459309D01*
X54825500Y-36425833D01*
X54845185Y-36358794D01*
X54861819Y-36338152D01*
X54890460Y-36309511D01*
X54930022Y-36240988D01*
X54950500Y-36164562D01*
X54950500Y-36085438D01*
X54950500Y-35862737D01*
X54970185Y-35795698D01*
X55012500Y-35755350D01*
X55059757Y-35728067D01*
X55102317Y-35695409D01*
X55195409Y-35602317D01*
X55228067Y-35559757D01*
X55293893Y-35445743D01*
X55314422Y-35396181D01*
X55342229Y-35292403D01*
X55378593Y-35232746D01*
X55441440Y-35202217D01*
X55462003Y-35200500D01*
X61337997Y-35200500D01*
X61405036Y-35220185D01*
X61450791Y-35272989D01*
X61457768Y-35292395D01*
X61485578Y-35396181D01*
X61485580Y-35396188D01*
X61506101Y-35445731D01*
X61506108Y-35445745D01*
X61571934Y-35559759D01*
X61604590Y-35602316D01*
X61604591Y-35602317D01*
X61697683Y-35695409D01*
X61740243Y-35728067D01*
X61854257Y-35793893D01*
X61854262Y-35793895D01*
X61854268Y-35793898D01*
X61903811Y-35814419D01*
X61903813Y-35814419D01*
X61903819Y-35814422D01*
X62030986Y-35848497D01*
X62084174Y-35855500D01*
X62084180Y-35855500D01*
X62650003Y-35855500D01*
X62650003Y-35855499D01*
X62695728Y-35850348D01*
X62721024Y-35838166D01*
X62740354Y-35828857D01*
X62809295Y-35817504D01*
X62814731Y-35818295D01*
X62846380Y-35823620D01*
X62860837Y-35835149D01*
X62950000Y-35855500D01*
X63035857Y-35855500D01*
X63046074Y-35857219D01*
X63068556Y-35868142D01*
X63092539Y-35875185D01*
X63099439Y-35883148D01*
X63108918Y-35887754D01*
X63121927Y-35909100D01*
X63138294Y-35927989D01*
X63140989Y-35940380D01*
X63145278Y-35947417D01*
X63145005Y-35958838D01*
X63149500Y-35979500D01*
X63149500Y-39520500D01*
X63129815Y-39587539D01*
X63077011Y-39633294D01*
X63025500Y-39644500D01*
X62949995Y-39644500D01*
X62904272Y-39649651D01*
X62859643Y-39671144D01*
X62790701Y-39682495D01*
X62753659Y-39666951D01*
X62751752Y-39670913D01*
X62739164Y-39664851D01*
X62650004Y-39644500D01*
X62650000Y-39644500D01*
X62084174Y-39644500D01*
X62084167Y-39644500D01*
X62030992Y-39651502D01*
X62030986Y-39651503D01*
X61903811Y-39685580D01*
X61854268Y-39706101D01*
X61854254Y-39706108D01*
X61740240Y-39771934D01*
X61697683Y-39804590D01*
X61604590Y-39897683D01*
X61571934Y-39940240D01*
X61506108Y-40054254D01*
X61506101Y-40054268D01*
X61485580Y-40103811D01*
X61451503Y-40230986D01*
X61451502Y-40230992D01*
X61444500Y-40284167D01*
X61444500Y-40915832D01*
X61451502Y-40969007D01*
X61451503Y-40969013D01*
X61485580Y-41096188D01*
X61506101Y-41145731D01*
X61506108Y-41145745D01*
X61571934Y-41259759D01*
X61604590Y-41302316D01*
X61697681Y-41395407D01*
X61697690Y-41395415D01*
X61740240Y-41428065D01*
X61740243Y-41428067D01*
X61787498Y-41455349D01*
X61835715Y-41505915D01*
X61849500Y-41562737D01*
X61849500Y-45337261D01*
X61829815Y-45404300D01*
X61787502Y-45444647D01*
X61740246Y-45471930D01*
X61697681Y-45504592D01*
X61604590Y-45597683D01*
X61571934Y-45640240D01*
X61506108Y-45754254D01*
X61506101Y-45754268D01*
X61485580Y-45803811D01*
X61451503Y-45930986D01*
X61451502Y-45930992D01*
X61444500Y-45984167D01*
X61444500Y-46615832D01*
X61451502Y-46669007D01*
X61451503Y-46669013D01*
X61485580Y-46796188D01*
X61506101Y-46845731D01*
X61506108Y-46845745D01*
X61571934Y-46959759D01*
X61604590Y-47002316D01*
X61604591Y-47002317D01*
X61697683Y-47095409D01*
X61740243Y-47128067D01*
X61854257Y-47193893D01*
X61854262Y-47193895D01*
X61854268Y-47193898D01*
X61903811Y-47214419D01*
X61903813Y-47214419D01*
X61903819Y-47214422D01*
X62030986Y-47248497D01*
X62084174Y-47255500D01*
X62084180Y-47255500D01*
X62650003Y-47255500D01*
X62650003Y-47255499D01*
X62695728Y-47250348D01*
X62704724Y-47246015D01*
X62740354Y-47228857D01*
X62809295Y-47217504D01*
X62846336Y-47233055D01*
X62848248Y-47229087D01*
X62860835Y-47235148D01*
X62860836Y-47235148D01*
X62860837Y-47235149D01*
X62927428Y-47250348D01*
X62949995Y-47255499D01*
X62950000Y-47255500D01*
X63515820Y-47255500D01*
X63515826Y-47255500D01*
X63569014Y-47248497D01*
X63696181Y-47214422D01*
X63745743Y-47193893D01*
X63773134Y-47178078D01*
X63841032Y-47161606D01*
X63907059Y-47184458D01*
X63922814Y-47197785D01*
X64903181Y-48178152D01*
X64936666Y-48239475D01*
X64939500Y-48265833D01*
X64939500Y-51785500D01*
X64919815Y-51852539D01*
X64867011Y-51898294D01*
X64815500Y-51909500D01*
X64370247Y-51909500D01*
X64311770Y-51921131D01*
X64311769Y-51921132D01*
X64245447Y-51965447D01*
X64201132Y-52031769D01*
X64201131Y-52031770D01*
X64189500Y-52090247D01*
X64189500Y-53829752D01*
X64201131Y-53888229D01*
X64201132Y-53888230D01*
X64245447Y-53954552D01*
X64311769Y-53998867D01*
X64311770Y-53998868D01*
X64370247Y-54010499D01*
X64370250Y-54010500D01*
X64370252Y-54010500D01*
X66109750Y-54010500D01*
X66109751Y-54010499D01*
X66131376Y-54006198D01*
X66168229Y-53998868D01*
X66168229Y-53998867D01*
X66168231Y-53998867D01*
X66234552Y-53954552D01*
X66278867Y-53888231D01*
X66278867Y-53888229D01*
X66278868Y-53888229D01*
X66290499Y-53829752D01*
X66290500Y-53829750D01*
X66290500Y-52090249D01*
X66290499Y-52090247D01*
X66278868Y-52031770D01*
X66278867Y-52031769D01*
X66234552Y-51965447D01*
X66168230Y-51921132D01*
X66168229Y-51921131D01*
X66109752Y-51909500D01*
X66109748Y-51909500D01*
X65664500Y-51909500D01*
X65597461Y-51889815D01*
X65551706Y-51837011D01*
X65540500Y-51785500D01*
X65540500Y-48050439D01*
X65520020Y-47974009D01*
X65520017Y-47974004D01*
X65480464Y-47905495D01*
X65480458Y-47905487D01*
X64191819Y-46616848D01*
X64158334Y-46555525D01*
X64155500Y-46529167D01*
X64155500Y-45984179D01*
X64155499Y-45984167D01*
X64148497Y-45930986D01*
X64114422Y-45803819D01*
X64093893Y-45754257D01*
X64028067Y-45640243D01*
X63995409Y-45597683D01*
X63902317Y-45504591D01*
X63902316Y-45504590D01*
X63859759Y-45471934D01*
X63745745Y-45406108D01*
X63745731Y-45406101D01*
X63696188Y-45385580D01*
X63681723Y-45381704D01*
X63569014Y-45351503D01*
X63569009Y-45351502D01*
X63569007Y-45351502D01*
X63515832Y-45344500D01*
X63515826Y-45344500D01*
X62950000Y-45344500D01*
X62949995Y-45344500D01*
X62904272Y-45349651D01*
X62859643Y-45371144D01*
X62790701Y-45382495D01*
X62785268Y-45381704D01*
X62753618Y-45376379D01*
X62739163Y-45364851D01*
X62650000Y-45344500D01*
X62564143Y-45344500D01*
X62553926Y-45342781D01*
X62531441Y-45331856D01*
X62507461Y-45324815D01*
X62500561Y-45316852D01*
X62491082Y-45312247D01*
X62478071Y-45290897D01*
X62461706Y-45272011D01*
X62459010Y-45259619D01*
X62454722Y-45252583D01*
X62454994Y-45241161D01*
X62450500Y-45220500D01*
X62450500Y-41679500D01*
X62470185Y-41612461D01*
X62522989Y-41566706D01*
X62574500Y-41555500D01*
X62650003Y-41555500D01*
X62650003Y-41555499D01*
X62695728Y-41550348D01*
X62704724Y-41546015D01*
X62740354Y-41528857D01*
X62809295Y-41517504D01*
X62846336Y-41533055D01*
X62848248Y-41529087D01*
X62860835Y-41535148D01*
X62860836Y-41535148D01*
X62860837Y-41535149D01*
X62927428Y-41550348D01*
X62949995Y-41555499D01*
X62950000Y-41555500D01*
X63515820Y-41555500D01*
X63515826Y-41555500D01*
X63569014Y-41548497D01*
X63696181Y-41514422D01*
X63745743Y-41493893D01*
X63859757Y-41428067D01*
X63902317Y-41395409D01*
X63995409Y-41302317D01*
X64028067Y-41259757D01*
X64093893Y-41145743D01*
X64114422Y-41096181D01*
X64148497Y-40969014D01*
X64155500Y-40915826D01*
X64155500Y-40284174D01*
X64148497Y-40230986D01*
X64114422Y-40103819D01*
X64093893Y-40054257D01*
X64028067Y-39940243D01*
X63995409Y-39897683D01*
X63902318Y-39804592D01*
X63902319Y-39804592D01*
X63859753Y-39771930D01*
X63812498Y-39744647D01*
X63764283Y-39694079D01*
X63750500Y-39637261D01*
X63750500Y-35862737D01*
X63770185Y-35795698D01*
X63812500Y-35755350D01*
X63859757Y-35728067D01*
X63902317Y-35695409D01*
X63995409Y-35602317D01*
X64028067Y-35559757D01*
X64093893Y-35445743D01*
X64114422Y-35396181D01*
X64148497Y-35269014D01*
X64155500Y-35215826D01*
X64155500Y-34584174D01*
X64148497Y-34530986D01*
X64114422Y-34403819D01*
X64093893Y-34354257D01*
X64028067Y-34240243D01*
X63995409Y-34197683D01*
X63902317Y-34104591D01*
X63902316Y-34104590D01*
X63859759Y-34071934D01*
X63745745Y-34006108D01*
X63745731Y-34006101D01*
X63696188Y-33985580D01*
X63684675Y-33982495D01*
X63569014Y-33951503D01*
X63569009Y-33951502D01*
X63569007Y-33951502D01*
X63515832Y-33944500D01*
X63515826Y-33944500D01*
X62950000Y-33944500D01*
X62949995Y-33944500D01*
X62904272Y-33949651D01*
X62859643Y-33971144D01*
X62790701Y-33982495D01*
X62753659Y-33966951D01*
X62751752Y-33970913D01*
X62739164Y-33964851D01*
X62650004Y-33944500D01*
X62650000Y-33944500D01*
X62084174Y-33944500D01*
X62084167Y-33944500D01*
X62030992Y-33951502D01*
X62030986Y-33951503D01*
X61903811Y-33985580D01*
X61854268Y-34006101D01*
X61854254Y-34006108D01*
X61740240Y-34071934D01*
X61697683Y-34104590D01*
X61604590Y-34197683D01*
X61571934Y-34240240D01*
X61506108Y-34354254D01*
X61506101Y-34354268D01*
X61485580Y-34403811D01*
X61485578Y-34403819D01*
X61457770Y-34507596D01*
X61421407Y-34567254D01*
X61358560Y-34597783D01*
X61337997Y-34599500D01*
X55462003Y-34599500D01*
X55394964Y-34579815D01*
X55349209Y-34527011D01*
X55342231Y-34507604D01*
X55314422Y-34403819D01*
X55293893Y-34354257D01*
X55228067Y-34240243D01*
X55195409Y-34197683D01*
X55102317Y-34104591D01*
X55102316Y-34104590D01*
X55059759Y-34071934D01*
X54945745Y-34006108D01*
X54945731Y-34006101D01*
X54896188Y-33985580D01*
X54884675Y-33982495D01*
X54769014Y-33951503D01*
X54769009Y-33951502D01*
X54769007Y-33951502D01*
X54715832Y-33944500D01*
X54715826Y-33944500D01*
X54150000Y-33944500D01*
X54149995Y-33944500D01*
X54104272Y-33949651D01*
X54059643Y-33971144D01*
X53990701Y-33982495D01*
X53953659Y-33966951D01*
X53951752Y-33970913D01*
X53939164Y-33964851D01*
X53850004Y-33944500D01*
X53850000Y-33944500D01*
X53284174Y-33944500D01*
X53284167Y-33944500D01*
X53230992Y-33951502D01*
X53230986Y-33951503D01*
X53103811Y-33985580D01*
X53054268Y-34006101D01*
X53054254Y-34006108D01*
X52940240Y-34071934D01*
X52897683Y-34104590D01*
X52804590Y-34197683D01*
X52771934Y-34240240D01*
X52706108Y-34354254D01*
X52706101Y-34354268D01*
X52685580Y-34403811D01*
X52651503Y-34530986D01*
X52651502Y-34530992D01*
X52644500Y-34584167D01*
X42460500Y-34584167D01*
X42460500Y-31820439D01*
X42440020Y-31744009D01*
X42440017Y-31744004D01*
X42400464Y-31675495D01*
X42400458Y-31675487D01*
X42097120Y-31372149D01*
X68049500Y-31372149D01*
X68049500Y-31627850D01*
X68064794Y-31744011D01*
X68082874Y-31881340D01*
X68149050Y-32128312D01*
X68149053Y-32128322D01*
X68246894Y-32364531D01*
X68246899Y-32364542D01*
X68374734Y-32585957D01*
X68374745Y-32585973D01*
X68530388Y-32788811D01*
X68530394Y-32788818D01*
X68711181Y-32969605D01*
X68711188Y-32969611D01*
X68777393Y-33020412D01*
X68914035Y-33125261D01*
X68914042Y-33125265D01*
X69135457Y-33253100D01*
X69135462Y-33253102D01*
X69135465Y-33253104D01*
X69237442Y-33295344D01*
X69363123Y-33347403D01*
X69371687Y-33350950D01*
X69618660Y-33417126D01*
X69872157Y-33450500D01*
X69872164Y-33450500D01*
X70127836Y-33450500D01*
X70127843Y-33450500D01*
X70381340Y-33417126D01*
X70628313Y-33350950D01*
X70864535Y-33253104D01*
X71085965Y-33125261D01*
X71288813Y-32969610D01*
X71469610Y-32788813D01*
X71625261Y-32585965D01*
X71753104Y-32364535D01*
X71850950Y-32128313D01*
X71917126Y-31881340D01*
X71950500Y-31627843D01*
X71950500Y-31372157D01*
X71917126Y-31118660D01*
X71850950Y-30871687D01*
X71835895Y-30835342D01*
X71753105Y-30635468D01*
X71753100Y-30635457D01*
X71625265Y-30414042D01*
X71625261Y-30414035D01*
X71547911Y-30313231D01*
X71469611Y-30211188D01*
X71469605Y-30211181D01*
X71288818Y-30030394D01*
X71288811Y-30030388D01*
X71085973Y-29874745D01*
X71085971Y-29874743D01*
X71085965Y-29874739D01*
X71085960Y-29874736D01*
X71085957Y-29874734D01*
X70864542Y-29746899D01*
X70864531Y-29746894D01*
X70628322Y-29649053D01*
X70628315Y-29649051D01*
X70628313Y-29649050D01*
X70381340Y-29582874D01*
X70325007Y-29575457D01*
X70127850Y-29549500D01*
X70127843Y-29549500D01*
X69872157Y-29549500D01*
X69872149Y-29549500D01*
X69646826Y-29579165D01*
X69618660Y-29582874D01*
X69371687Y-29649050D01*
X69371677Y-29649053D01*
X69135468Y-29746894D01*
X69135457Y-29746899D01*
X68914042Y-29874734D01*
X68914026Y-29874745D01*
X68711188Y-30030388D01*
X68711181Y-30030394D01*
X68530394Y-30211181D01*
X68530388Y-30211188D01*
X68374745Y-30414026D01*
X68374734Y-30414042D01*
X68246899Y-30635457D01*
X68246894Y-30635468D01*
X68149053Y-30871677D01*
X68149050Y-30871687D01*
X68082874Y-31118661D01*
X68049500Y-31372149D01*
X42097120Y-31372149D01*
X39637152Y-28912181D01*
X39603667Y-28850858D01*
X39608651Y-28781166D01*
X39650523Y-28725233D01*
X39715987Y-28700816D01*
X39724833Y-28700500D01*
X70460118Y-28700500D01*
X70496519Y-28700500D01*
X70503472Y-28700695D01*
G37*
%TD.AperFunction*%
%TA.AperFunction,Conductor*%
G36*
X31160985Y-55769066D02*
G01*
X31212461Y-55816310D01*
X31220833Y-55832887D01*
X31237301Y-55872644D01*
X31275939Y-55965925D01*
X31289059Y-55997598D01*
X31302836Y-56018217D01*
X31404024Y-56169657D01*
X31550342Y-56315975D01*
X31550345Y-56315977D01*
X31722402Y-56430941D01*
X31913580Y-56510130D01*
X31913581Y-56510130D01*
X31915534Y-56510939D01*
X31969937Y-56554780D01*
X31992002Y-56621074D01*
X31974723Y-56688773D01*
X31923586Y-56736384D01*
X31868081Y-56749500D01*
X30638256Y-56749500D01*
X30571217Y-56729815D01*
X30525462Y-56677011D01*
X30515518Y-56607853D01*
X30544543Y-56544297D01*
X30557718Y-56531215D01*
X30559467Y-56529720D01*
X30709723Y-56379464D01*
X30709727Y-56379459D01*
X30834620Y-56207557D01*
X30931095Y-56018217D01*
X30988343Y-55842026D01*
X31027780Y-55784351D01*
X31092139Y-55757152D01*
X31160985Y-55769066D01*
G37*
%TD.AperFunction*%
%TA.AperFunction,Conductor*%
G36*
X31563540Y-49057185D02*
G01*
X31609295Y-49109989D01*
X31619239Y-49179147D01*
X31599603Y-49230390D01*
X31557045Y-49294082D01*
X31557043Y-49294086D01*
X31484488Y-49469248D01*
X31484486Y-49469256D01*
X31447500Y-49655197D01*
X31447500Y-49844802D01*
X31484486Y-50030743D01*
X31484488Y-50030751D01*
X31557042Y-50205911D01*
X31557047Y-50205921D01*
X31630338Y-50315607D01*
X31651216Y-50382284D01*
X31649941Y-50402373D01*
X31648762Y-50410466D01*
X31648762Y-51616763D01*
X31651535Y-51635796D01*
X31659205Y-51688443D01*
X31674001Y-51718709D01*
X31713252Y-51798999D01*
X31748138Y-51833885D01*
X31781623Y-51895208D01*
X31776639Y-51964900D01*
X31734767Y-52020833D01*
X31727376Y-52025538D01*
X31727467Y-52025675D01*
X31722403Y-52029058D01*
X31722402Y-52029059D01*
X31718345Y-52031770D01*
X31550342Y-52144024D01*
X31404024Y-52290342D01*
X31289058Y-52462403D01*
X31209870Y-52653579D01*
X31209868Y-52653587D01*
X31169500Y-52856530D01*
X31169500Y-53063469D01*
X31209868Y-53266412D01*
X31209870Y-53266420D01*
X31275939Y-53425925D01*
X31289059Y-53457598D01*
X31330032Y-53518919D01*
X31404024Y-53629657D01*
X31550342Y-53775975D01*
X31550345Y-53775977D01*
X31722402Y-53890941D01*
X31913580Y-53970130D01*
X32116530Y-54010499D01*
X32116534Y-54010500D01*
X32116535Y-54010500D01*
X32323466Y-54010500D01*
X32323467Y-54010499D01*
X32526420Y-53970130D01*
X32717598Y-53890941D01*
X32889655Y-53775977D01*
X33035977Y-53629655D01*
X33116920Y-53508513D01*
X33170531Y-53463709D01*
X33239856Y-53455002D01*
X33302884Y-53485156D01*
X33307703Y-53489724D01*
X34230275Y-54412296D01*
X34263760Y-54473619D01*
X34258776Y-54543311D01*
X34216904Y-54599244D01*
X34211485Y-54603079D01*
X34090345Y-54684022D01*
X34090341Y-54684025D01*
X33944024Y-54830342D01*
X33829058Y-55002403D01*
X33749870Y-55193579D01*
X33749868Y-55193587D01*
X33709500Y-55396530D01*
X33709500Y-55603469D01*
X33749868Y-55806412D01*
X33749870Y-55806420D01*
X33815939Y-55965925D01*
X33829059Y-55997598D01*
X33842836Y-56018217D01*
X33944024Y-56169657D01*
X34090342Y-56315975D01*
X34090345Y-56315977D01*
X34262402Y-56430941D01*
X34453580Y-56510130D01*
X34453581Y-56510130D01*
X34455534Y-56510939D01*
X34509937Y-56554780D01*
X34532002Y-56621074D01*
X34514723Y-56688773D01*
X34463586Y-56736384D01*
X34408081Y-56749500D01*
X32571919Y-56749500D01*
X32504880Y-56729815D01*
X32459125Y-56677011D01*
X32449181Y-56607853D01*
X32478206Y-56544297D01*
X32524466Y-56510939D01*
X32526418Y-56510130D01*
X32526420Y-56510130D01*
X32717598Y-56430941D01*
X32889655Y-56315977D01*
X33035977Y-56169655D01*
X33150941Y-55997598D01*
X33230130Y-55806420D01*
X33270500Y-55603465D01*
X33270500Y-55396535D01*
X33230130Y-55193580D01*
X33150941Y-55002402D01*
X33035977Y-54830345D01*
X33035975Y-54830342D01*
X32889657Y-54684024D01*
X32734249Y-54580185D01*
X32717598Y-54569059D01*
X32717593Y-54569057D01*
X32526420Y-54489870D01*
X32526412Y-54489868D01*
X32323469Y-54449500D01*
X32323465Y-54449500D01*
X32116535Y-54449500D01*
X32116530Y-54449500D01*
X31913587Y-54489868D01*
X31913579Y-54489870D01*
X31722403Y-54569058D01*
X31550342Y-54684024D01*
X31404024Y-54830342D01*
X31289057Y-55002403D01*
X31220835Y-55167108D01*
X31176994Y-55221511D01*
X31110700Y-55243576D01*
X31043000Y-55226297D01*
X30995390Y-55175159D01*
X30988343Y-55157973D01*
X30931095Y-54981782D01*
X30834620Y-54792442D01*
X30709727Y-54620540D01*
X30709723Y-54620535D01*
X30559464Y-54470276D01*
X30559459Y-54470272D01*
X30387557Y-54345379D01*
X30198216Y-54248904D01*
X30022026Y-54191656D01*
X29964350Y-54152218D01*
X29937152Y-54087860D01*
X29949067Y-54019013D01*
X29996311Y-53967538D01*
X30012882Y-53959168D01*
X30177598Y-53890941D01*
X30349655Y-53775977D01*
X30495977Y-53629655D01*
X30610941Y-53457598D01*
X30690130Y-53266420D01*
X30730500Y-53063465D01*
X30730500Y-52856535D01*
X30690130Y-52653580D01*
X30610941Y-52462402D01*
X30495977Y-52290345D01*
X30495975Y-52290342D01*
X30348687Y-52143054D01*
X30315202Y-52081731D01*
X30320186Y-52012039D01*
X30362058Y-51956106D01*
X30381909Y-51943972D01*
X30389916Y-51940057D01*
X30389919Y-51940057D01*
X30500473Y-51886011D01*
X30587487Y-51798997D01*
X30641533Y-51688443D01*
X30651976Y-51616769D01*
X30651975Y-50410470D01*
X30647083Y-50376893D01*
X30656896Y-50307720D01*
X30666679Y-50290137D01*
X30722956Y-50205915D01*
X30795512Y-50030751D01*
X30832500Y-49844798D01*
X30832500Y-49655202D01*
X30832499Y-49655199D01*
X30832499Y-49655197D01*
X30827490Y-49630017D01*
X30795512Y-49469249D01*
X30722956Y-49294085D01*
X30716268Y-49284075D01*
X30680397Y-49230390D01*
X30659519Y-49163713D01*
X30678004Y-49096333D01*
X30729983Y-49049643D01*
X30783499Y-49037500D01*
X31496501Y-49037500D01*
X31563540Y-49057185D01*
G37*
%TD.AperFunction*%
%TA.AperFunction,Conductor*%
G36*
X36475750Y-54566738D02*
G01*
X36497839Y-54568318D01*
X36508622Y-54576390D01*
X36521544Y-54580185D01*
X36536043Y-54596918D01*
X36553772Y-54610190D01*
X36558479Y-54622810D01*
X36567299Y-54632989D01*
X36570450Y-54654906D01*
X36578189Y-54675654D01*
X36575326Y-54688814D01*
X36577243Y-54702147D01*
X36568043Y-54722290D01*
X36563337Y-54743927D01*
X36550068Y-54761652D01*
X36548218Y-54765703D01*
X36542186Y-54772181D01*
X36484025Y-54830341D01*
X36484024Y-54830342D01*
X36369058Y-55002403D01*
X36289870Y-55193579D01*
X36289868Y-55193587D01*
X36249500Y-55396530D01*
X36249500Y-55603469D01*
X36289868Y-55806412D01*
X36289870Y-55806420D01*
X36355939Y-55965925D01*
X36369059Y-55997598D01*
X36382836Y-56018217D01*
X36484024Y-56169657D01*
X36630342Y-56315975D01*
X36630345Y-56315977D01*
X36802402Y-56430941D01*
X36993580Y-56510130D01*
X36993581Y-56510130D01*
X36995534Y-56510939D01*
X37049937Y-56554780D01*
X37072002Y-56621074D01*
X37054723Y-56688773D01*
X37003586Y-56736384D01*
X36948081Y-56749500D01*
X35111919Y-56749500D01*
X35044880Y-56729815D01*
X34999125Y-56677011D01*
X34989181Y-56607853D01*
X35018206Y-56544297D01*
X35064466Y-56510939D01*
X35066418Y-56510130D01*
X35066420Y-56510130D01*
X35257598Y-56430941D01*
X35429655Y-56315977D01*
X35575977Y-56169655D01*
X35690941Y-55997598D01*
X35770130Y-55806420D01*
X35810500Y-55603465D01*
X35810500Y-55396535D01*
X35770130Y-55193580D01*
X35690941Y-55002402D01*
X35575977Y-54830345D01*
X35575975Y-54830342D01*
X35517814Y-54772181D01*
X35484329Y-54710858D01*
X35489313Y-54641166D01*
X35531185Y-54585233D01*
X35596649Y-54560816D01*
X35605495Y-54560500D01*
X36454505Y-54560500D01*
X36475750Y-54566738D01*
G37*
%TD.AperFunction*%
%TA.AperFunction,Conductor*%
G36*
X38491206Y-54580185D02*
G01*
X38511848Y-54596819D01*
X38852924Y-54937895D01*
X38886409Y-54999218D01*
X38881425Y-55068910D01*
X38879804Y-55073029D01*
X38829870Y-55193579D01*
X38829868Y-55193587D01*
X38789500Y-55396530D01*
X38789500Y-55603469D01*
X38829868Y-55806412D01*
X38829870Y-55806420D01*
X38895939Y-55965925D01*
X38909059Y-55997598D01*
X38922836Y-56018217D01*
X39024024Y-56169657D01*
X39170342Y-56315975D01*
X39170345Y-56315977D01*
X39342402Y-56430941D01*
X39533580Y-56510130D01*
X39533581Y-56510130D01*
X39535534Y-56510939D01*
X39589937Y-56554780D01*
X39612002Y-56621074D01*
X39594723Y-56688773D01*
X39543586Y-56736384D01*
X39488081Y-56749500D01*
X37651919Y-56749500D01*
X37584880Y-56729815D01*
X37539125Y-56677011D01*
X37529181Y-56607853D01*
X37558206Y-56544297D01*
X37604466Y-56510939D01*
X37606418Y-56510130D01*
X37606420Y-56510130D01*
X37797598Y-56430941D01*
X37969655Y-56315977D01*
X38115977Y-56169655D01*
X38230941Y-55997598D01*
X38310130Y-55806420D01*
X38350500Y-55603465D01*
X38350500Y-55396535D01*
X38310130Y-55193580D01*
X38230941Y-55002402D01*
X38115977Y-54830345D01*
X38115975Y-54830342D01*
X38057814Y-54772181D01*
X38024329Y-54710858D01*
X38029313Y-54641166D01*
X38071185Y-54585233D01*
X38136649Y-54560816D01*
X38145495Y-54560500D01*
X38424167Y-54560500D01*
X38491206Y-54580185D01*
G37*
%TD.AperFunction*%
%TA.AperFunction,Conductor*%
G36*
X26483540Y-49057185D02*
G01*
X26529295Y-49109989D01*
X26539239Y-49179147D01*
X26519603Y-49230390D01*
X26477045Y-49294082D01*
X26477043Y-49294086D01*
X26404488Y-49469248D01*
X26404486Y-49469256D01*
X26367500Y-49655197D01*
X26367500Y-49844802D01*
X26404486Y-50030743D01*
X26404488Y-50030751D01*
X26477042Y-50205911D01*
X26477047Y-50205921D01*
X26550338Y-50315607D01*
X26571216Y-50382284D01*
X26569941Y-50402373D01*
X26568762Y-50410466D01*
X26568762Y-51616763D01*
X26571535Y-51635796D01*
X26579205Y-51688443D01*
X26594001Y-51718709D01*
X26633252Y-51798999D01*
X26668138Y-51833885D01*
X26701623Y-51895208D01*
X26696639Y-51964900D01*
X26654767Y-52020833D01*
X26647376Y-52025538D01*
X26647467Y-52025675D01*
X26642403Y-52029058D01*
X26642402Y-52029059D01*
X26638345Y-52031770D01*
X26470342Y-52144024D01*
X26324024Y-52290342D01*
X26209058Y-52462403D01*
X26129870Y-52653579D01*
X26129868Y-52653587D01*
X26089500Y-52856530D01*
X26089500Y-53063469D01*
X26129868Y-53266412D01*
X26129870Y-53266420D01*
X26195939Y-53425925D01*
X26209059Y-53457598D01*
X26250032Y-53518919D01*
X26324024Y-53629657D01*
X26470342Y-53775975D01*
X26470345Y-53775977D01*
X26642402Y-53890941D01*
X26833580Y-53970130D01*
X27036530Y-54010499D01*
X27036534Y-54010500D01*
X27036535Y-54010500D01*
X27243466Y-54010500D01*
X27243467Y-54010499D01*
X27446420Y-53970130D01*
X27637598Y-53890941D01*
X27809655Y-53775977D01*
X27882818Y-53702814D01*
X27960285Y-53625348D01*
X27961527Y-53626590D01*
X28012387Y-53591944D01*
X28082231Y-53590070D01*
X28142001Y-53626254D01*
X28172720Y-53689008D01*
X28174500Y-53709941D01*
X28174500Y-54750058D01*
X28154815Y-54817097D01*
X28102011Y-54862852D01*
X28032853Y-54872796D01*
X27969297Y-54843771D01*
X27960352Y-54834584D01*
X27960285Y-54834652D01*
X27809657Y-54684024D01*
X27654249Y-54580185D01*
X27637598Y-54569059D01*
X27637593Y-54569057D01*
X27446420Y-54489870D01*
X27446412Y-54489868D01*
X27243469Y-54449500D01*
X27243465Y-54449500D01*
X27036535Y-54449500D01*
X27036530Y-54449500D01*
X26833587Y-54489868D01*
X26833579Y-54489870D01*
X26642403Y-54569058D01*
X26470342Y-54684024D01*
X26324024Y-54830342D01*
X26209057Y-55002403D01*
X26140835Y-55167108D01*
X26096994Y-55221511D01*
X26030700Y-55243576D01*
X25963000Y-55226297D01*
X25915390Y-55175159D01*
X25908343Y-55157973D01*
X25851095Y-54981782D01*
X25754620Y-54792442D01*
X25629727Y-54620540D01*
X25629723Y-54620535D01*
X25479464Y-54470276D01*
X25479459Y-54470272D01*
X25307557Y-54345379D01*
X25118216Y-54248904D01*
X24942026Y-54191656D01*
X24884350Y-54152218D01*
X24857152Y-54087860D01*
X24869067Y-54019013D01*
X24916311Y-53967538D01*
X24932882Y-53959168D01*
X25097598Y-53890941D01*
X25269655Y-53775977D01*
X25415977Y-53629655D01*
X25530941Y-53457598D01*
X25610130Y-53266420D01*
X25650500Y-53063465D01*
X25650500Y-52856535D01*
X25610130Y-52653580D01*
X25530941Y-52462402D01*
X25415977Y-52290345D01*
X25415975Y-52290342D01*
X25268687Y-52143054D01*
X25235202Y-52081731D01*
X25240186Y-52012039D01*
X25282058Y-51956106D01*
X25301909Y-51943972D01*
X25309916Y-51940057D01*
X25309919Y-51940057D01*
X25420473Y-51886011D01*
X25507487Y-51798997D01*
X25561533Y-51688443D01*
X25571976Y-51616769D01*
X25571975Y-50410470D01*
X25567083Y-50376893D01*
X25576896Y-50307720D01*
X25586679Y-50290137D01*
X25642956Y-50205915D01*
X25715512Y-50030751D01*
X25752500Y-49844798D01*
X25752500Y-49655202D01*
X25752499Y-49655199D01*
X25752499Y-49655197D01*
X25747490Y-49630017D01*
X25715512Y-49469249D01*
X25682842Y-49390380D01*
X25675374Y-49320912D01*
X25706649Y-49258433D01*
X25709723Y-49255247D01*
X25891152Y-49073819D01*
X25952475Y-49040334D01*
X25978833Y-49037500D01*
X26416501Y-49037500D01*
X26483540Y-49057185D01*
G37*
%TD.AperFunction*%
%TA.AperFunction,Conductor*%
G36*
X19408225Y-48578258D02*
G01*
X19475250Y-48597990D01*
X19520967Y-48650827D01*
X19530861Y-48719992D01*
X19501791Y-48783527D01*
X19442986Y-48821260D01*
X19432330Y-48823875D01*
X19429252Y-48824487D01*
X19429248Y-48824488D01*
X19254087Y-48897042D01*
X19096441Y-49002377D01*
X18962377Y-49136441D01*
X18857042Y-49294087D01*
X18784488Y-49469248D01*
X18784486Y-49469256D01*
X18747500Y-49655197D01*
X18747500Y-49844802D01*
X18784486Y-50030743D01*
X18784488Y-50030751D01*
X18857042Y-50205912D01*
X18965762Y-50368623D01*
X18964691Y-50369338D01*
X18989403Y-50427507D01*
X18990238Y-50441873D01*
X18990238Y-51616763D01*
X18993011Y-51635796D01*
X19000681Y-51688443D01*
X19015477Y-51718709D01*
X19054728Y-51798999D01*
X19076712Y-51820983D01*
X19110197Y-51882306D01*
X19105213Y-51951998D01*
X19063341Y-52007931D01*
X19036488Y-52023223D01*
X19022406Y-52029056D01*
X18850342Y-52144024D01*
X18704024Y-52290342D01*
X18589057Y-52462403D01*
X18520835Y-52627108D01*
X18476994Y-52681511D01*
X18410700Y-52703576D01*
X18343000Y-52686297D01*
X18295390Y-52635159D01*
X18288343Y-52617973D01*
X18231095Y-52441782D01*
X18134620Y-52252442D01*
X18009727Y-52080540D01*
X18009723Y-52080535D01*
X17869926Y-51940738D01*
X17836441Y-51879415D01*
X17841425Y-51809723D01*
X17846202Y-51798606D01*
X17900057Y-51688443D01*
X17910500Y-51616769D01*
X17910499Y-50411832D01*
X17930184Y-50344794D01*
X17931397Y-50342942D01*
X17931398Y-50342941D01*
X18022956Y-50205915D01*
X18095512Y-50030751D01*
X18132500Y-49844798D01*
X18132500Y-49655202D01*
X18132499Y-49655199D01*
X18132499Y-49655197D01*
X18127490Y-49630017D01*
X18095512Y-49469249D01*
X18022956Y-49294085D01*
X17980396Y-49230390D01*
X17917622Y-49136441D01*
X17783558Y-49002377D01*
X17625912Y-48897042D01*
X17450751Y-48824488D01*
X17450742Y-48824485D01*
X17440717Y-48822491D01*
X17378807Y-48790103D01*
X17344236Y-48729386D01*
X17347979Y-48659616D01*
X17388848Y-48602946D01*
X17453868Y-48577368D01*
X17464971Y-48576876D01*
X19408225Y-48578258D01*
G37*
%TD.AperFunction*%
%TA.AperFunction,Conductor*%
G36*
X39161206Y-29290185D02*
G01*
X39181848Y-29306819D01*
X41823181Y-31948152D01*
X41856666Y-32009475D01*
X41859500Y-32035833D01*
X41859500Y-36468708D01*
X41869739Y-36506921D01*
X41879979Y-36545137D01*
X41879980Y-36545138D01*
X41902713Y-36584512D01*
X41902713Y-36584513D01*
X41919535Y-36613650D01*
X41919539Y-36613655D01*
X41919540Y-36613657D01*
X43296343Y-37990460D01*
X43364866Y-38030022D01*
X43441292Y-38050500D01*
X43520416Y-38050500D01*
X47074167Y-38050500D01*
X47141206Y-38070185D01*
X47161848Y-38086819D01*
X51163181Y-42088152D01*
X51196666Y-42149475D01*
X51199500Y-42175833D01*
X51199500Y-47289562D01*
X51213152Y-47340513D01*
X51219979Y-47365990D01*
X51219982Y-47365995D01*
X51259535Y-47434504D01*
X51259539Y-47434509D01*
X51259540Y-47434511D01*
X53359540Y-49534511D01*
X53415489Y-49590460D01*
X53415491Y-49590461D01*
X53415495Y-49590464D01*
X53484004Y-49630017D01*
X53484011Y-49630021D01*
X53560438Y-49650500D01*
X53639562Y-49650500D01*
X58914167Y-49650500D01*
X58981206Y-49670185D01*
X59001848Y-49686819D01*
X59823181Y-50508152D01*
X59856666Y-50569475D01*
X59859500Y-50595833D01*
X59859500Y-51864563D01*
X59839815Y-51931602D01*
X59787011Y-51977357D01*
X59782953Y-51979124D01*
X59662404Y-52029057D01*
X59490344Y-52144023D01*
X59367470Y-52266897D01*
X59306147Y-52300381D01*
X59236455Y-52295397D01*
X59180522Y-52253525D01*
X59160016Y-52211312D01*
X59150021Y-52174011D01*
X59124326Y-52129505D01*
X59110464Y-52105495D01*
X59110458Y-52105487D01*
X57640512Y-50635541D01*
X57640511Y-50635540D01*
X57613558Y-50619979D01*
X57613558Y-50619977D01*
X57613555Y-50619977D01*
X57571994Y-50595981D01*
X57571991Y-50595979D01*
X57533775Y-50585739D01*
X57495562Y-50575500D01*
X57495560Y-50575500D01*
X52301833Y-50575500D01*
X52234794Y-50555815D01*
X52214152Y-50539181D01*
X50336819Y-48661848D01*
X50303334Y-48600525D01*
X50300500Y-48574167D01*
X50300500Y-43460440D01*
X50300500Y-43460438D01*
X50280022Y-43384012D01*
X50240460Y-43315489D01*
X47184511Y-40259540D01*
X47184509Y-40259539D01*
X47184504Y-40259535D01*
X47115995Y-40219982D01*
X47115990Y-40219979D01*
X47090513Y-40213152D01*
X47039562Y-40199500D01*
X47039560Y-40199500D01*
X42925833Y-40199500D01*
X42858794Y-40179815D01*
X42838152Y-40163181D01*
X41276819Y-38601848D01*
X41243334Y-38540525D01*
X41240500Y-38514167D01*
X41240500Y-32800439D01*
X41222363Y-32732752D01*
X41220021Y-32724011D01*
X41186168Y-32665375D01*
X41180464Y-32655495D01*
X41180458Y-32655487D01*
X38007152Y-29482181D01*
X37973667Y-29420858D01*
X37978651Y-29351166D01*
X38020523Y-29295233D01*
X38085987Y-29270816D01*
X38094833Y-29270500D01*
X39094167Y-29270500D01*
X39161206Y-29290185D01*
G37*
%TD.AperFunction*%
%TA.AperFunction,Conductor*%
G36*
X28966252Y-49040363D02*
G01*
X28976336Y-49039097D01*
X28999211Y-49050041D01*
X29023540Y-49057185D01*
X29030194Y-49064864D01*
X29039363Y-49069251D01*
X29052691Y-49090827D01*
X29069295Y-49109989D01*
X29070741Y-49120046D01*
X29076083Y-49128694D01*
X29075630Y-49154050D01*
X29079239Y-49179147D01*
X29074984Y-49190250D01*
X29074836Y-49198553D01*
X29059603Y-49230390D01*
X29017045Y-49294082D01*
X29017043Y-49294086D01*
X28944488Y-49469248D01*
X28944486Y-49469256D01*
X28907500Y-49655197D01*
X28907500Y-49844802D01*
X28944486Y-50030743D01*
X28944488Y-50030751D01*
X29017042Y-50205912D01*
X29108602Y-50342941D01*
X29129480Y-50409619D01*
X29129500Y-50411832D01*
X29129500Y-51616763D01*
X29132273Y-51635796D01*
X29139943Y-51688443D01*
X29154739Y-51718709D01*
X29193990Y-51798999D01*
X29222048Y-51827057D01*
X29255533Y-51888380D01*
X29250549Y-51958072D01*
X29208677Y-52014005D01*
X29187662Y-52025973D01*
X29187776Y-52026186D01*
X29182407Y-52029055D01*
X29010342Y-52144024D01*
X29010341Y-52144025D01*
X28937181Y-52217186D01*
X28875858Y-52250671D01*
X28806166Y-52245687D01*
X28750233Y-52203815D01*
X28725816Y-52138351D01*
X28725500Y-52129505D01*
X28725500Y-51965201D01*
X28725500Y-51965200D01*
X28694169Y-51889562D01*
X28694169Y-51889560D01*
X28683559Y-51863946D01*
X28683557Y-51863941D01*
X28409413Y-51589797D01*
X28127556Y-51307940D01*
X28094071Y-51246617D01*
X28091237Y-51220259D01*
X28091237Y-50410473D01*
X28091237Y-50410470D01*
X28090058Y-50402381D01*
X28099866Y-50333208D01*
X28109655Y-50315615D01*
X28182956Y-50205915D01*
X28255512Y-50030751D01*
X28292500Y-49844798D01*
X28292500Y-49655202D01*
X28292499Y-49655199D01*
X28292499Y-49655197D01*
X28287490Y-49630017D01*
X28255512Y-49469249D01*
X28182956Y-49294085D01*
X28176268Y-49284075D01*
X28140397Y-49230390D01*
X28119519Y-49163713D01*
X28138004Y-49096333D01*
X28189983Y-49049643D01*
X28243499Y-49037500D01*
X28956501Y-49037500D01*
X28966252Y-49040363D01*
G37*
%TD.AperFunction*%
%TA.AperFunction,Conductor*%
G36*
X34103540Y-49057185D02*
G01*
X34149295Y-49109989D01*
X34159239Y-49179147D01*
X34139603Y-49230390D01*
X34097045Y-49294082D01*
X34097043Y-49294086D01*
X34024488Y-49469248D01*
X34024486Y-49469256D01*
X33987500Y-49655197D01*
X33987500Y-49844802D01*
X34024486Y-50030743D01*
X34024488Y-50030751D01*
X34097042Y-50205911D01*
X34097047Y-50205921D01*
X34170338Y-50315607D01*
X34191216Y-50382284D01*
X34189941Y-50402373D01*
X34188762Y-50410466D01*
X34188762Y-51616766D01*
X34192103Y-51639697D01*
X34182287Y-51708873D01*
X34136630Y-51761762D01*
X34125694Y-51768054D01*
X34052444Y-51805377D01*
X33880540Y-51930272D01*
X33880535Y-51930276D01*
X33872181Y-51938631D01*
X33810858Y-51972116D01*
X33741166Y-51967132D01*
X33685233Y-51925260D01*
X33660816Y-51859796D01*
X33660500Y-51850950D01*
X33660500Y-51810439D01*
X33660308Y-51809723D01*
X33640021Y-51734011D01*
X33640017Y-51734004D01*
X33600464Y-51665495D01*
X33600458Y-51665487D01*
X33207556Y-51272585D01*
X33174071Y-51211262D01*
X33171237Y-51184904D01*
X33171237Y-50410473D01*
X33171237Y-50410470D01*
X33170058Y-50402381D01*
X33179866Y-50333208D01*
X33189655Y-50315615D01*
X33262956Y-50205915D01*
X33335512Y-50030751D01*
X33372500Y-49844798D01*
X33372500Y-49655202D01*
X33372499Y-49655199D01*
X33372499Y-49655197D01*
X33367490Y-49630017D01*
X33335512Y-49469249D01*
X33262956Y-49294085D01*
X33256268Y-49284075D01*
X33220397Y-49230390D01*
X33199519Y-49163713D01*
X33218004Y-49096333D01*
X33269983Y-49049643D01*
X33323499Y-49037500D01*
X34036501Y-49037500D01*
X34103540Y-49057185D01*
G37*
%TD.AperFunction*%
%TA.AperFunction,Conductor*%
G36*
X34241430Y-29750185D02*
G01*
X34287185Y-29802989D01*
X34297129Y-29872147D01*
X34268104Y-29935703D01*
X34262072Y-29942181D01*
X34253252Y-29951000D01*
X34199204Y-30061558D01*
X34188762Y-30133230D01*
X34188762Y-31292297D01*
X34192003Y-31314540D01*
X34182188Y-31383717D01*
X34172400Y-31401304D01*
X34097050Y-31514073D01*
X34097042Y-31514088D01*
X34024488Y-31689248D01*
X34024486Y-31689256D01*
X33987500Y-31875197D01*
X33987500Y-32064802D01*
X34024486Y-32250743D01*
X34024488Y-32250751D01*
X34097042Y-32425912D01*
X34202377Y-32583558D01*
X34336441Y-32717622D01*
X34441300Y-32787686D01*
X34494085Y-32822956D01*
X34494086Y-32822956D01*
X34494087Y-32822957D01*
X34494089Y-32822958D01*
X34543435Y-32843397D01*
X34572080Y-32855263D01*
X34572805Y-32855563D01*
X34627209Y-32899403D01*
X34649274Y-32965698D01*
X34631995Y-33033397D01*
X34580858Y-33081008D01*
X34525331Y-33094124D01*
X32835349Y-33093824D01*
X32768313Y-33074128D01*
X32722567Y-33021315D01*
X32712636Y-32952155D01*
X32741672Y-32888605D01*
X32787917Y-32855263D01*
X32865915Y-32822956D01*
X33023558Y-32717622D01*
X33157622Y-32583558D01*
X33262956Y-32425915D01*
X33335512Y-32250751D01*
X33372500Y-32064798D01*
X33372500Y-31875202D01*
X33335512Y-31689249D01*
X33262956Y-31514085D01*
X33187598Y-31401304D01*
X33166721Y-31334628D01*
X33167997Y-31314535D01*
X33171238Y-31292295D01*
X33171237Y-30133232D01*
X33160795Y-30061557D01*
X33106749Y-29951003D01*
X33106747Y-29951001D01*
X33106747Y-29951000D01*
X33097928Y-29942181D01*
X33064443Y-29880858D01*
X33069427Y-29811166D01*
X33111299Y-29755233D01*
X33176763Y-29730816D01*
X33185609Y-29730500D01*
X34174391Y-29730500D01*
X34241430Y-29750185D01*
G37*
%TD.AperFunction*%
%TA.AperFunction,Conductor*%
G36*
X31701430Y-29750185D02*
G01*
X31747185Y-29802989D01*
X31757129Y-29872147D01*
X31728104Y-29935703D01*
X31722072Y-29942181D01*
X31713252Y-29951000D01*
X31659204Y-30061558D01*
X31648762Y-30133230D01*
X31648762Y-31292297D01*
X31652003Y-31314540D01*
X31642188Y-31383717D01*
X31632400Y-31401304D01*
X31557050Y-31514073D01*
X31557042Y-31514088D01*
X31484488Y-31689248D01*
X31484486Y-31689256D01*
X31447500Y-31875197D01*
X31447500Y-32064802D01*
X31484486Y-32250743D01*
X31484488Y-32250751D01*
X31557042Y-32425912D01*
X31662377Y-32583558D01*
X31796441Y-32717622D01*
X31901300Y-32787686D01*
X31954085Y-32822956D01*
X31954086Y-32822956D01*
X31954087Y-32822957D01*
X31983495Y-32835138D01*
X32030991Y-32854812D01*
X32031716Y-32855112D01*
X32086119Y-32898953D01*
X32108184Y-32965247D01*
X32090905Y-33032946D01*
X32039768Y-33080557D01*
X31984241Y-33093673D01*
X30296439Y-33093373D01*
X30229403Y-33073677D01*
X30183657Y-33020864D01*
X30173726Y-32951704D01*
X30202762Y-32888154D01*
X30249007Y-32854812D01*
X30296539Y-32835124D01*
X30325913Y-32822957D01*
X30325913Y-32822956D01*
X30325915Y-32822956D01*
X30483558Y-32717622D01*
X30617622Y-32583558D01*
X30722956Y-32425915D01*
X30795512Y-32250751D01*
X30832500Y-32064798D01*
X30832500Y-31875202D01*
X30795512Y-31689249D01*
X30722956Y-31514085D01*
X30722954Y-31514082D01*
X30721144Y-31510696D01*
X30706500Y-31452238D01*
X30706500Y-30463334D01*
X30726185Y-30396295D01*
X30742819Y-30375653D01*
X31351653Y-29766819D01*
X31378580Y-29752115D01*
X31404399Y-29735523D01*
X31410599Y-29734631D01*
X31412976Y-29733334D01*
X31439334Y-29730500D01*
X31634391Y-29730500D01*
X31701430Y-29750185D01*
G37*
%TD.AperFunction*%
%TA.AperFunction,Conductor*%
G36*
X30765707Y-29290185D02*
G01*
X30811462Y-29342989D01*
X30821406Y-29412147D01*
X30792381Y-29475703D01*
X30786354Y-29482175D01*
X30619479Y-29649050D01*
X30493847Y-29774682D01*
X30432524Y-29808167D01*
X30388288Y-29809705D01*
X30318245Y-29799500D01*
X29463236Y-29799500D01*
X29391557Y-29809943D01*
X29281000Y-29863990D01*
X29193990Y-29951000D01*
X29139942Y-30061558D01*
X29129500Y-30133230D01*
X29129500Y-31292300D01*
X29129825Y-31296775D01*
X29127923Y-31296912D01*
X29119197Y-31358272D01*
X29109426Y-31375824D01*
X29017045Y-31514082D01*
X29017043Y-31514086D01*
X28944488Y-31689248D01*
X28944486Y-31689256D01*
X28907500Y-31875197D01*
X28907500Y-32064802D01*
X28944486Y-32250743D01*
X28944488Y-32250751D01*
X29017042Y-32425912D01*
X29122377Y-32583558D01*
X29256441Y-32717622D01*
X29414086Y-32822957D01*
X29470427Y-32846293D01*
X29490625Y-32854660D01*
X29545028Y-32898501D01*
X29567093Y-32964795D01*
X29549814Y-33032494D01*
X29498677Y-33080105D01*
X29443150Y-33093221D01*
X27757528Y-33092921D01*
X27690492Y-33073225D01*
X27644746Y-33020412D01*
X27634815Y-32951252D01*
X27663852Y-32887702D01*
X27710094Y-32854362D01*
X27785915Y-32822956D01*
X27943558Y-32717622D01*
X28077622Y-32583558D01*
X28182956Y-32425915D01*
X28255512Y-32250751D01*
X28292500Y-32064798D01*
X28292500Y-31875202D01*
X28255512Y-31689249D01*
X28182956Y-31514085D01*
X28107598Y-31401304D01*
X28086721Y-31334628D01*
X28087997Y-31314535D01*
X28091238Y-31292295D01*
X28091237Y-30517856D01*
X28110921Y-30450818D01*
X28127551Y-30430181D01*
X29250915Y-29306819D01*
X29312238Y-29273334D01*
X29338596Y-29270500D01*
X30698668Y-29270500D01*
X30765707Y-29290185D01*
G37*
%TD.AperFunction*%
%TA.AperFunction,Conductor*%
G36*
X28774969Y-28720185D02*
G01*
X28820724Y-28772989D01*
X28830668Y-28842147D01*
X28801643Y-28905703D01*
X28795613Y-28912178D01*
X28356625Y-29351166D01*
X27933109Y-29774682D01*
X27871786Y-29808167D01*
X27827550Y-29809705D01*
X27757507Y-29799500D01*
X26902498Y-29799500D01*
X26830819Y-29809943D01*
X26720262Y-29863990D01*
X26633252Y-29951000D01*
X26579204Y-30061558D01*
X26568762Y-30133230D01*
X26568762Y-31292297D01*
X26572003Y-31314540D01*
X26562188Y-31383717D01*
X26552400Y-31401304D01*
X26477050Y-31514073D01*
X26477042Y-31514088D01*
X26404488Y-31689248D01*
X26404486Y-31689256D01*
X26367500Y-31875197D01*
X26367500Y-32064802D01*
X26404486Y-32250743D01*
X26404488Y-32250751D01*
X26477042Y-32425912D01*
X26582377Y-32583558D01*
X26716441Y-32717622D01*
X26821300Y-32787686D01*
X26874085Y-32822956D01*
X26874086Y-32822956D01*
X26874087Y-32822957D01*
X26874089Y-32822958D01*
X26914424Y-32839665D01*
X26949534Y-32854208D01*
X27003938Y-32898048D01*
X27026003Y-32964342D01*
X27008724Y-33032042D01*
X26957587Y-33079653D01*
X26902060Y-33092769D01*
X25218618Y-33092470D01*
X25151582Y-33072774D01*
X25105836Y-33019961D01*
X25095905Y-32950801D01*
X25124941Y-32887251D01*
X25171187Y-32853909D01*
X25245915Y-32822956D01*
X25403558Y-32717622D01*
X25537622Y-32583558D01*
X25642956Y-32425915D01*
X25715512Y-32250751D01*
X25752500Y-32064798D01*
X25752500Y-31875202D01*
X25715512Y-31689249D01*
X25642956Y-31514085D01*
X25642954Y-31514082D01*
X25642952Y-31514078D01*
X25584625Y-31426786D01*
X25563747Y-31360109D01*
X25565023Y-31340017D01*
X25567361Y-31323966D01*
X25571976Y-31292295D01*
X25571975Y-30133232D01*
X25561533Y-30061557D01*
X25507487Y-29951003D01*
X25507485Y-29951001D01*
X25507485Y-29951000D01*
X25420475Y-29863990D01*
X25309917Y-29809942D01*
X25238245Y-29799500D01*
X24383236Y-29799500D01*
X24311557Y-29809943D01*
X24201000Y-29863990D01*
X24113990Y-29951000D01*
X24059942Y-30061558D01*
X24049500Y-30133230D01*
X24049500Y-31292300D01*
X24049825Y-31296775D01*
X24047923Y-31296912D01*
X24039197Y-31358272D01*
X24029426Y-31375824D01*
X23937045Y-31514082D01*
X23937043Y-31514086D01*
X23864488Y-31689248D01*
X23864486Y-31689256D01*
X23827500Y-31875197D01*
X23827500Y-32064802D01*
X23864486Y-32250743D01*
X23864488Y-32250751D01*
X23937042Y-32425912D01*
X24042377Y-32583558D01*
X24176441Y-32717622D01*
X24281300Y-32787686D01*
X24334085Y-32822956D01*
X24334086Y-32822956D01*
X24334087Y-32822957D01*
X24408444Y-32853757D01*
X24462847Y-32897598D01*
X24484912Y-32963893D01*
X24467633Y-33031592D01*
X24416495Y-33079202D01*
X24360969Y-33092318D01*
X22679708Y-33092019D01*
X22612672Y-33072323D01*
X22566926Y-33019510D01*
X22556995Y-32950350D01*
X22586031Y-32886800D01*
X22632277Y-32853458D01*
X22632647Y-32853305D01*
X22676505Y-32835138D01*
X22705913Y-32822957D01*
X22705913Y-32822956D01*
X22705915Y-32822956D01*
X22863558Y-32717622D01*
X22997622Y-32583558D01*
X23102956Y-32425915D01*
X23175512Y-32250751D01*
X23212500Y-32064798D01*
X23212500Y-31875202D01*
X23175512Y-31689249D01*
X23102956Y-31514085D01*
X23102954Y-31514082D01*
X23102952Y-31514078D01*
X23044625Y-31426786D01*
X23023747Y-31360109D01*
X23025023Y-31340017D01*
X23027361Y-31323966D01*
X23031976Y-31292295D01*
X23031975Y-30133232D01*
X23021533Y-30061557D01*
X22967487Y-29951003D01*
X22967485Y-29951001D01*
X22967485Y-29951000D01*
X22880475Y-29863990D01*
X22769917Y-29809942D01*
X22698245Y-29799500D01*
X21843236Y-29799500D01*
X21771557Y-29809943D01*
X21661000Y-29863990D01*
X21573990Y-29951000D01*
X21519942Y-30061558D01*
X21509500Y-30133230D01*
X21509500Y-31292300D01*
X21509825Y-31296775D01*
X21507923Y-31296912D01*
X21499197Y-31358272D01*
X21489426Y-31375824D01*
X21397045Y-31514082D01*
X21397043Y-31514086D01*
X21324488Y-31689248D01*
X21324486Y-31689256D01*
X21287500Y-31875197D01*
X21287500Y-32064802D01*
X21324486Y-32250743D01*
X21324488Y-32250751D01*
X21397042Y-32425912D01*
X21502377Y-32583558D01*
X21636441Y-32717622D01*
X21741300Y-32787686D01*
X21794085Y-32822956D01*
X21794086Y-32822956D01*
X21794087Y-32822957D01*
X21867353Y-32853305D01*
X21921756Y-32897146D01*
X21943821Y-32963440D01*
X21926542Y-33031140D01*
X21875404Y-33078750D01*
X21819878Y-33091866D01*
X20140797Y-33091567D01*
X20073761Y-33071870D01*
X20028015Y-33019058D01*
X20018084Y-32949898D01*
X20047121Y-32886348D01*
X20093361Y-32853008D01*
X20165915Y-32822956D01*
X20323558Y-32717622D01*
X20457622Y-32583558D01*
X20562956Y-32425915D01*
X20635512Y-32250751D01*
X20672500Y-32064798D01*
X20672500Y-31875202D01*
X20635512Y-31689249D01*
X20562956Y-31514085D01*
X20521649Y-31452266D01*
X20500772Y-31385590D01*
X20502048Y-31365497D01*
X20503101Y-31358272D01*
X20512714Y-31292295D01*
X20512713Y-30313232D01*
X20502271Y-30241557D01*
X20448225Y-30131003D01*
X20448223Y-30131001D01*
X20448223Y-30131000D01*
X20361213Y-30043990D01*
X20333393Y-30030390D01*
X20250657Y-29989943D01*
X20250655Y-29989942D01*
X20178983Y-29979500D01*
X19323974Y-29979500D01*
X19252295Y-29989943D01*
X19141738Y-30043990D01*
X19054728Y-30131000D01*
X19000680Y-30241558D01*
X18990238Y-30313230D01*
X18990238Y-31278124D01*
X18970553Y-31345163D01*
X18962733Y-31355909D01*
X18857042Y-31514087D01*
X18784488Y-31689248D01*
X18784486Y-31689256D01*
X18747500Y-31875197D01*
X18747500Y-32064802D01*
X18784486Y-32250743D01*
X18784488Y-32250751D01*
X18857042Y-32425912D01*
X18962377Y-32583558D01*
X19096441Y-32717622D01*
X19201300Y-32787686D01*
X19254085Y-32822956D01*
X19254086Y-32822956D01*
X19254087Y-32822957D01*
X19254089Y-32822958D01*
X19326262Y-32852853D01*
X19380666Y-32896694D01*
X19402731Y-32962988D01*
X19385452Y-33030687D01*
X19334315Y-33078298D01*
X19278788Y-33091414D01*
X17601887Y-33091116D01*
X17534851Y-33071420D01*
X17489105Y-33018607D01*
X17479174Y-32949447D01*
X17508210Y-32885897D01*
X17554457Y-32852555D01*
X17558103Y-32851045D01*
X17625915Y-32822956D01*
X17783558Y-32717622D01*
X17917622Y-32583558D01*
X18022956Y-32425915D01*
X18095512Y-32250751D01*
X18132500Y-32064798D01*
X18132500Y-31875202D01*
X18095512Y-31689249D01*
X18022956Y-31514085D01*
X17930572Y-31375824D01*
X17909695Y-31309147D01*
X17910484Y-31296788D01*
X17910176Y-31296766D01*
X17910499Y-31292300D01*
X17910500Y-31292295D01*
X17910499Y-30133232D01*
X17900057Y-30061557D01*
X17846011Y-29951003D01*
X17846009Y-29951001D01*
X17846009Y-29951000D01*
X17758999Y-29863990D01*
X17648441Y-29809942D01*
X17576769Y-29799500D01*
X16721760Y-29799500D01*
X16650081Y-29809943D01*
X16539524Y-29863990D01*
X16452514Y-29951000D01*
X16398466Y-30061558D01*
X16388024Y-30133230D01*
X16388024Y-31292289D01*
X16388678Y-31296775D01*
X16394821Y-31338943D01*
X16394978Y-31340017D01*
X16385163Y-31409194D01*
X16375376Y-31426782D01*
X16317044Y-31514084D01*
X16244488Y-31689248D01*
X16244486Y-31689256D01*
X16207500Y-31875197D01*
X16207500Y-32064802D01*
X16244486Y-32250743D01*
X16244488Y-32250751D01*
X16317042Y-32425912D01*
X16422377Y-32583558D01*
X16556441Y-32717622D01*
X16661300Y-32787686D01*
X16714085Y-32822956D01*
X16714086Y-32822956D01*
X16714087Y-32822957D01*
X16714089Y-32822958D01*
X16785171Y-32852401D01*
X16839575Y-32896242D01*
X16861640Y-32962536D01*
X16844361Y-33030235D01*
X16793224Y-33077846D01*
X16737697Y-33090962D01*
X15062976Y-33090665D01*
X14995940Y-33070969D01*
X14950194Y-33018156D01*
X14940263Y-32948996D01*
X14969299Y-32885446D01*
X15015546Y-32852104D01*
X15085910Y-32822958D01*
X15085909Y-32822958D01*
X15085915Y-32822956D01*
X15243558Y-32717622D01*
X15377622Y-32583558D01*
X15482956Y-32425915D01*
X15555512Y-32250751D01*
X15592500Y-32064798D01*
X15592500Y-31875202D01*
X15555512Y-31689249D01*
X15482956Y-31514085D01*
X15407598Y-31401304D01*
X15386721Y-31334628D01*
X15387997Y-31314535D01*
X15391238Y-31292295D01*
X15391237Y-30133232D01*
X15380795Y-30061557D01*
X15326749Y-29951003D01*
X15326747Y-29951001D01*
X15326747Y-29951000D01*
X15239737Y-29863990D01*
X15129179Y-29809942D01*
X15057507Y-29799500D01*
X14202498Y-29799500D01*
X14130819Y-29809943D01*
X14020262Y-29863990D01*
X13933252Y-29951000D01*
X13879204Y-30061558D01*
X13868762Y-30133230D01*
X13868762Y-31292297D01*
X13872003Y-31314540D01*
X13862188Y-31383717D01*
X13852400Y-31401304D01*
X13777050Y-31514073D01*
X13777042Y-31514088D01*
X13704488Y-31689248D01*
X13704486Y-31689256D01*
X13667500Y-31875197D01*
X13667500Y-32064802D01*
X13704486Y-32250743D01*
X13704488Y-32250751D01*
X13777042Y-32425912D01*
X13882377Y-32583558D01*
X14016441Y-32717622D01*
X14121300Y-32787686D01*
X14174085Y-32822956D01*
X14174086Y-32822956D01*
X14174087Y-32822957D01*
X14244082Y-32851950D01*
X14298485Y-32895791D01*
X14320550Y-32962085D01*
X14303271Y-33029785D01*
X14252133Y-33077395D01*
X14196607Y-33090511D01*
X12908069Y-33090282D01*
X12841033Y-33070586D01*
X12820410Y-33053963D01*
X12219410Y-32452962D01*
X12282993Y-32435925D01*
X12397007Y-32370099D01*
X12490099Y-32277007D01*
X12555925Y-32162993D01*
X12572962Y-32099409D01*
X13142268Y-32668715D01*
X13169362Y-32631425D01*
X13259542Y-32454437D01*
X13320924Y-32265523D01*
X13320924Y-32265520D01*
X13352000Y-32069321D01*
X13352000Y-31870678D01*
X13320924Y-31674479D01*
X13320924Y-31674476D01*
X13259542Y-31485562D01*
X13169357Y-31308565D01*
X13169011Y-31308000D01*
X13168938Y-31307743D01*
X13167147Y-31304227D01*
X13167846Y-31303870D01*
X13150737Y-31243208D01*
X13150737Y-30114203D01*
X13144621Y-30046892D01*
X13144619Y-30046885D01*
X13136259Y-30020055D01*
X13136258Y-30020055D01*
X12354456Y-30801857D01*
X12293133Y-30835342D01*
X12223441Y-30830358D01*
X12179094Y-30801857D01*
X12090000Y-30712763D01*
X12000905Y-30801858D01*
X11939582Y-30835343D01*
X11869890Y-30830359D01*
X11825543Y-30801858D01*
X11043740Y-30020055D01*
X11043739Y-30020055D01*
X11035382Y-30046877D01*
X11035380Y-30046886D01*
X11029262Y-30114213D01*
X11029262Y-31243209D01*
X11012157Y-31303873D01*
X11012853Y-31304228D01*
X11011071Y-31307724D01*
X11010998Y-31307985D01*
X11010645Y-31308560D01*
X10920457Y-31485562D01*
X10859075Y-31674476D01*
X10859075Y-31674479D01*
X10828000Y-31870678D01*
X10828000Y-32069321D01*
X10859075Y-32265520D01*
X10859075Y-32265523D01*
X10920457Y-32454437D01*
X11010641Y-32631432D01*
X11037730Y-32668715D01*
X11607037Y-32099408D01*
X11624075Y-32162993D01*
X11689901Y-32277007D01*
X11782993Y-32370099D01*
X11897007Y-32435925D01*
X11960590Y-32452962D01*
X11359878Y-33053673D01*
X11298555Y-33087158D01*
X11272175Y-33089992D01*
X9998213Y-33089765D01*
X9931177Y-33070068D01*
X9885431Y-33017256D01*
X9875500Y-32948096D01*
X9904537Y-32884546D01*
X9950780Y-32851205D01*
X9989583Y-32835133D01*
X10025112Y-32816143D01*
X10149917Y-32732751D01*
X10181057Y-32707194D01*
X10287194Y-32601057D01*
X10312751Y-32569917D01*
X10396143Y-32445112D01*
X10415133Y-32409583D01*
X10472574Y-32270908D01*
X10484268Y-32232358D01*
X10513551Y-32085141D01*
X10517500Y-32045050D01*
X10517500Y-31894950D01*
X10513551Y-31854859D01*
X10484268Y-31707642D01*
X10472574Y-31669092D01*
X10415133Y-31530417D01*
X10406406Y-31514089D01*
X10396150Y-31494900D01*
X10396139Y-31494882D01*
X10346351Y-31420369D01*
X10325473Y-31353691D01*
X10326749Y-31333600D01*
X10326943Y-31332269D01*
X10331976Y-31297725D01*
X10331975Y-30377802D01*
X10321703Y-30307293D01*
X10268536Y-30198538D01*
X10268534Y-30198536D01*
X10268534Y-30198535D01*
X10182940Y-30112941D01*
X10074181Y-30059772D01*
X10003676Y-30049500D01*
X9342002Y-30049500D01*
X9330585Y-30046147D01*
X9318742Y-30047299D01*
X9297678Y-30036484D01*
X9274963Y-30029815D01*
X9267171Y-30020822D01*
X9256585Y-30015388D01*
X9244710Y-29994902D01*
X9229208Y-29977011D01*
X9227514Y-29965234D01*
X9221547Y-29954939D01*
X9222633Y-29931286D01*
X9219264Y-29907853D01*
X9224287Y-29895274D01*
X9224753Y-29885143D01*
X9240873Y-29853745D01*
X9271953Y-29809943D01*
X9307237Y-29760213D01*
X9315896Y-29749354D01*
X9444320Y-29605648D01*
X11336436Y-29605648D01*
X12090000Y-30359211D01*
X12090001Y-30359211D01*
X12843562Y-29605648D01*
X12843561Y-29605647D01*
X12758779Y-29554395D01*
X12758775Y-29554393D01*
X12603852Y-29506118D01*
X12603854Y-29506118D01*
X12536524Y-29500000D01*
X11643465Y-29500000D01*
X11576154Y-29506116D01*
X11576147Y-29506118D01*
X11421224Y-29554393D01*
X11421218Y-29554396D01*
X11336437Y-29605647D01*
X11336436Y-29605648D01*
X9444320Y-29605648D01*
X9515824Y-29525636D01*
X9525647Y-29515815D01*
X9543344Y-29500000D01*
X9749354Y-29315896D01*
X9760201Y-29307245D01*
X10004902Y-29133621D01*
X10016665Y-29126230D01*
X10279262Y-28981097D01*
X10291768Y-28975075D01*
X10568948Y-28860265D01*
X10582068Y-28855673D01*
X10870369Y-28772614D01*
X10883915Y-28769523D01*
X11179700Y-28719267D01*
X11193494Y-28717713D01*
X11496528Y-28700695D01*
X11503481Y-28700500D01*
X11539882Y-28700500D01*
X28707930Y-28700500D01*
X28774969Y-28720185D01*
G37*
%TD.AperFunction*%
%TD*%
M02*
