%TF.GenerationSoftware,KiCad,Pcbnew,10.0.5*%
%TF.CreationDate,2026-07-27T17:25:57-06:00*%
%TF.ProjectId,seedsigner-luckfox-pico-max,73656564-7369-4676-9e65-722d6c75636b,sdfsdf*%
%TF.SameCoordinates,Original*%
%TF.FileFunction,Paste,Top*%
%TF.FilePolarity,Positive*%
%FSLAX46Y46*%
G04 Gerber Fmt 4.6, Leading zero omitted, Abs format (unit mm)*
G04 Created by KiCad (PCBNEW 10.0.5) date 2026-07-27 17:25:57*
%MOMM*%
%LPD*%
G01*
G04 APERTURE LIST*
G04 Aperture macros list*
%AMRoundRect*
0 Rectangle with rounded corners*
0 $1 Rounding radius*
0 $2 $3 $4 $5 $6 $7 $8 $9 X,Y pos of 4 corners*
0 Add a 4 corners polygon primitive as box body*
4,1,4,$2,$3,$4,$5,$6,$7,$8,$9,$2,$3,0*
0 Add four circle primitives for the rounded corners*
1,1,$1+$1,$2,$3*
1,1,$1+$1,$4,$5*
1,1,$1+$1,$6,$7*
1,1,$1+$1,$8,$9*
0 Add four rect primitives between the rounded corners*
20,1,$1+$1,$2,$3,$4,$5,0*
20,1,$1+$1,$4,$5,$6,$7,0*
20,1,$1+$1,$6,$7,$8,$9,0*
20,1,$1+$1,$8,$9,$2,$3,0*%
G04 Aperture macros list end*
%ADD10RoundRect,0.162221X0.378517X-0.425541X0.378517X0.425541X-0.378517X0.425541X-0.378517X-0.425541X0*%
%ADD11RoundRect,0.162221X-0.378517X0.425541X-0.378517X-0.425541X0.378517X-0.425541X0.378517X0.425541X0*%
G04 APERTURE END LIST*
D10*
%TO.C,U3*%
X23990000Y-50940000D03*
X26530000Y-50940000D03*
X29070000Y-50940000D03*
X31610000Y-50940000D03*
X34150000Y-50940000D03*
X36690000Y-50940000D03*
X39230000Y-50940000D03*
D11*
X41770000Y-50940000D03*
D10*
X44310000Y-50940000D03*
X46850000Y-50940000D03*
X49390000Y-50940000D03*
X51930000Y-50940000D03*
X54470000Y-50940000D03*
X57010000Y-50940000D03*
X59550000Y-50940000D03*
X62090000Y-50940000D03*
X64630000Y-50940000D03*
X67170000Y-50940000D03*
X69710000Y-50940000D03*
X72250000Y-50940000D03*
X72250000Y-30740000D03*
X69710000Y-30740000D03*
X67170000Y-30740000D03*
X64630000Y-30740000D03*
X62090000Y-30740000D03*
X59550000Y-30740000D03*
X57010000Y-30740000D03*
X54470000Y-30740000D03*
X51930000Y-30740000D03*
X49390000Y-30740000D03*
X46850000Y-30740000D03*
X44310000Y-30740000D03*
X41770000Y-30740000D03*
X39230000Y-30740000D03*
X36690000Y-30740000D03*
X34150000Y-30740000D03*
X31610000Y-30740000D03*
X29070000Y-30740000D03*
X26530000Y-30740000D03*
X23990000Y-30740000D03*
%TD*%
M02*
