%TF.GenerationSoftware,KiCad,Pcbnew,10.0.5*%
%TF.CreationDate,2026-07-27T17:25:57-06:00*%
%TF.ProjectId,seedsigner-luckfox-pico-max,73656564-7369-4676-9e65-722d6c75636b,sdfsdf*%
%TF.SameCoordinates,Original*%
%TF.FileFunction,Legend,Top*%
%TF.FilePolarity,Positive*%
%FSLAX46Y46*%
G04 Gerber Fmt 4.6, Leading zero omitted, Abs format (unit mm)*
G04 Created by KiCad (PCBNEW 10.0.5) date 2026-07-27 17:25:57*
%MOMM*%
%LPD*%
G01*
G04 APERTURE LIST*
G04 Aperture macros list*
%AMRoundRect*
0 Rectangle with rounded corners*
0 $1 Rounding radius*
0 $2 $3 $4 $5 $6 $7 $8 $9 X,Y pos of 4 corners*
0 Add a 4 corners polygon primitive as box body*
4,1,4,$2,$3,$4,$5,$6,$7,$8,$9,$2,$3,0*
0 Add four circle primitives for the rounded corners*
1,1,$1+$1,$2,$3*
1,1,$1+$1,$4,$5*
1,1,$1+$1,$6,$7*
1,1,$1+$1,$8,$9*
0 Add four rect primitives between the rounded corners*
20,1,$1+$1,$2,$3,$4,$5,0*
20,1,$1+$1,$4,$5,$6,$7,0*
20,1,$1+$1,$6,$7,$8,$9,0*
20,1,$1+$1,$8,$9,$2,$3,0*%
G04 Aperture macros list end*
%ADD10C,0.704401*%
%ADD11C,0.100000*%
%ADD12C,0.200000*%
%ADD13C,0.300000*%
%ADD14C,0.120000*%
%ADD15C,0.500000*%
%ADD16C,1.250000*%
%ADD17RoundRect,0.162221X0.378517X-0.425541X0.378517X0.425541X-0.378517X0.425541X-0.378517X-0.425541X0*%
%ADD18C,1.600000*%
%ADD19RoundRect,0.162221X-0.378517X0.425541X-0.378517X-0.425541X0.378517X-0.425541X0.378517X0.425541X0*%
%ADD20C,3.500000*%
%ADD21R,1.700000X1.700000*%
%ADD22O,1.700000X1.700000*%
G04 APERTURE END LIST*
D10*
X22452200Y-49720000D02*
G75*
G02*
X21747800Y-49720000I-352200J0D01*
G01*
X21747800Y-49720000D02*
G75*
G02*
X22452200Y-49720000I352200J0D01*
G01*
D11*
X16056265Y-57896895D02*
X16056265Y-57096895D01*
X16513408Y-57896895D02*
X16170550Y-57439752D01*
X16513408Y-57096895D02*
X16056265Y-57554038D01*
X17275312Y-57896895D02*
X16818169Y-57896895D01*
X17046741Y-57896895D02*
X17046741Y-57096895D01*
X17046741Y-57096895D02*
X16970550Y-57211180D01*
X16970550Y-57211180D02*
X16894360Y-57287371D01*
X16894360Y-57287371D02*
X16818169Y-57325466D01*
X18837218Y-57896895D02*
X18837218Y-57096895D01*
X19294361Y-57896895D02*
X18951503Y-57439752D01*
X19294361Y-57096895D02*
X18837218Y-57554038D01*
X19599122Y-57173085D02*
X19637218Y-57134990D01*
X19637218Y-57134990D02*
X19713408Y-57096895D01*
X19713408Y-57096895D02*
X19903884Y-57096895D01*
X19903884Y-57096895D02*
X19980075Y-57134990D01*
X19980075Y-57134990D02*
X20018170Y-57173085D01*
X20018170Y-57173085D02*
X20056265Y-57249276D01*
X20056265Y-57249276D02*
X20056265Y-57325466D01*
X20056265Y-57325466D02*
X20018170Y-57439752D01*
X20018170Y-57439752D02*
X19561027Y-57896895D01*
X19561027Y-57896895D02*
X20056265Y-57896895D01*
X21618171Y-57896895D02*
X21618171Y-57096895D01*
X22075314Y-57896895D02*
X21732456Y-57439752D01*
X22075314Y-57096895D02*
X21618171Y-57554038D01*
X22341980Y-57096895D02*
X22837218Y-57096895D01*
X22837218Y-57096895D02*
X22570552Y-57401657D01*
X22570552Y-57401657D02*
X22684837Y-57401657D01*
X22684837Y-57401657D02*
X22761028Y-57439752D01*
X22761028Y-57439752D02*
X22799123Y-57477847D01*
X22799123Y-57477847D02*
X22837218Y-57554038D01*
X22837218Y-57554038D02*
X22837218Y-57744514D01*
X22837218Y-57744514D02*
X22799123Y-57820704D01*
X22799123Y-57820704D02*
X22761028Y-57858800D01*
X22761028Y-57858800D02*
X22684837Y-57896895D01*
X22684837Y-57896895D02*
X22456266Y-57896895D01*
X22456266Y-57896895D02*
X22380075Y-57858800D01*
X22380075Y-57858800D02*
X22341980Y-57820704D01*
X24818171Y-57134990D02*
X24741981Y-57096895D01*
X24741981Y-57096895D02*
X24627695Y-57096895D01*
X24627695Y-57096895D02*
X24513409Y-57134990D01*
X24513409Y-57134990D02*
X24437219Y-57211180D01*
X24437219Y-57211180D02*
X24399124Y-57287371D01*
X24399124Y-57287371D02*
X24361028Y-57439752D01*
X24361028Y-57439752D02*
X24361028Y-57554038D01*
X24361028Y-57554038D02*
X24399124Y-57706419D01*
X24399124Y-57706419D02*
X24437219Y-57782609D01*
X24437219Y-57782609D02*
X24513409Y-57858800D01*
X24513409Y-57858800D02*
X24627695Y-57896895D01*
X24627695Y-57896895D02*
X24703886Y-57896895D01*
X24703886Y-57896895D02*
X24818171Y-57858800D01*
X24818171Y-57858800D02*
X24856267Y-57820704D01*
X24856267Y-57820704D02*
X24856267Y-57554038D01*
X24856267Y-57554038D02*
X24703886Y-57554038D01*
D12*
X18502054Y-49673740D02*
X18502054Y-48873740D01*
X18502054Y-48873740D02*
X18806816Y-48873740D01*
X18806816Y-48873740D02*
X18883006Y-48911835D01*
X18883006Y-48911835D02*
X18921101Y-48949930D01*
X18921101Y-48949930D02*
X18959197Y-49026121D01*
X18959197Y-49026121D02*
X18959197Y-49140406D01*
X18959197Y-49140406D02*
X18921101Y-49216597D01*
X18921101Y-49216597D02*
X18883006Y-49254692D01*
X18883006Y-49254692D02*
X18806816Y-49292787D01*
X18806816Y-49292787D02*
X18502054Y-49292787D01*
X19302054Y-49673740D02*
X19302054Y-49140406D01*
X19302054Y-48873740D02*
X19263958Y-48911835D01*
X19263958Y-48911835D02*
X19302054Y-48949930D01*
X19302054Y-48949930D02*
X19340149Y-48911835D01*
X19340149Y-48911835D02*
X19302054Y-48873740D01*
X19302054Y-48873740D02*
X19302054Y-48949930D01*
X20025863Y-49635645D02*
X19949672Y-49673740D01*
X19949672Y-49673740D02*
X19797291Y-49673740D01*
X19797291Y-49673740D02*
X19721101Y-49635645D01*
X19721101Y-49635645D02*
X19683006Y-49597549D01*
X19683006Y-49597549D02*
X19644910Y-49521359D01*
X19644910Y-49521359D02*
X19644910Y-49292787D01*
X19644910Y-49292787D02*
X19683006Y-49216597D01*
X19683006Y-49216597D02*
X19721101Y-49178502D01*
X19721101Y-49178502D02*
X19797291Y-49140406D01*
X19797291Y-49140406D02*
X19949672Y-49140406D01*
X19949672Y-49140406D02*
X20025863Y-49178502D01*
X20483005Y-49673740D02*
X20406815Y-49635645D01*
X20406815Y-49635645D02*
X20368720Y-49597549D01*
X20368720Y-49597549D02*
X20330624Y-49521359D01*
X20330624Y-49521359D02*
X20330624Y-49292787D01*
X20330624Y-49292787D02*
X20368720Y-49216597D01*
X20368720Y-49216597D02*
X20406815Y-49178502D01*
X20406815Y-49178502D02*
X20483005Y-49140406D01*
X20483005Y-49140406D02*
X20597291Y-49140406D01*
X20597291Y-49140406D02*
X20673482Y-49178502D01*
X20673482Y-49178502D02*
X20711577Y-49216597D01*
X20711577Y-49216597D02*
X20749672Y-49292787D01*
X20749672Y-49292787D02*
X20749672Y-49521359D01*
X20749672Y-49521359D02*
X20711577Y-49597549D01*
X20711577Y-49597549D02*
X20673482Y-49635645D01*
X20673482Y-49635645D02*
X20597291Y-49673740D01*
X20597291Y-49673740D02*
X20483005Y-49673740D01*
X18502054Y-50961695D02*
X18502054Y-50161695D01*
X18502054Y-50161695D02*
X18806816Y-50161695D01*
X18806816Y-50161695D02*
X18883006Y-50199790D01*
X18883006Y-50199790D02*
X18921101Y-50237885D01*
X18921101Y-50237885D02*
X18959197Y-50314076D01*
X18959197Y-50314076D02*
X18959197Y-50428361D01*
X18959197Y-50428361D02*
X18921101Y-50504552D01*
X18921101Y-50504552D02*
X18883006Y-50542647D01*
X18883006Y-50542647D02*
X18806816Y-50580742D01*
X18806816Y-50580742D02*
X18502054Y-50580742D01*
X19302054Y-50961695D02*
X19302054Y-50161695D01*
X19683006Y-50961695D02*
X19683006Y-50161695D01*
X19683006Y-50161695D02*
X20140149Y-50961695D01*
X20140149Y-50961695D02*
X20140149Y-50161695D01*
X21549672Y-50961695D02*
X21092529Y-50961695D01*
X21321101Y-50961695D02*
X21321101Y-50161695D01*
X21321101Y-50161695D02*
X21244910Y-50275980D01*
X21244910Y-50275980D02*
X21168720Y-50352171D01*
X21168720Y-50352171D02*
X21092529Y-50390266D01*
D11*
X55103408Y-57846895D02*
X54836741Y-57465942D01*
X54646265Y-57846895D02*
X54646265Y-57046895D01*
X54646265Y-57046895D02*
X54951027Y-57046895D01*
X54951027Y-57046895D02*
X55027217Y-57084990D01*
X55027217Y-57084990D02*
X55065312Y-57123085D01*
X55065312Y-57123085D02*
X55103408Y-57199276D01*
X55103408Y-57199276D02*
X55103408Y-57313561D01*
X55103408Y-57313561D02*
X55065312Y-57389752D01*
X55065312Y-57389752D02*
X55027217Y-57427847D01*
X55027217Y-57427847D02*
X54951027Y-57465942D01*
X54951027Y-57465942D02*
X54646265Y-57465942D01*
X55370074Y-57046895D02*
X55903408Y-57846895D01*
X55903408Y-57046895D02*
X55370074Y-57846895D01*
X57312932Y-57046895D02*
X57770075Y-57046895D01*
X57541503Y-57846895D02*
X57541503Y-57046895D01*
X57960551Y-57046895D02*
X58493885Y-57846895D01*
X58493885Y-57046895D02*
X57960551Y-57846895D01*
X60436742Y-57084990D02*
X60360552Y-57046895D01*
X60360552Y-57046895D02*
X60246266Y-57046895D01*
X60246266Y-57046895D02*
X60131980Y-57084990D01*
X60131980Y-57084990D02*
X60055790Y-57161180D01*
X60055790Y-57161180D02*
X60017695Y-57237371D01*
X60017695Y-57237371D02*
X59979599Y-57389752D01*
X59979599Y-57389752D02*
X59979599Y-57504038D01*
X59979599Y-57504038D02*
X60017695Y-57656419D01*
X60017695Y-57656419D02*
X60055790Y-57732609D01*
X60055790Y-57732609D02*
X60131980Y-57808800D01*
X60131980Y-57808800D02*
X60246266Y-57846895D01*
X60246266Y-57846895D02*
X60322457Y-57846895D01*
X60322457Y-57846895D02*
X60436742Y-57808800D01*
X60436742Y-57808800D02*
X60474838Y-57770704D01*
X60474838Y-57770704D02*
X60474838Y-57504038D01*
X60474838Y-57504038D02*
X60322457Y-57504038D01*
X62417695Y-57046895D02*
X62036743Y-57046895D01*
X62036743Y-57046895D02*
X61998647Y-57427847D01*
X61998647Y-57427847D02*
X62036743Y-57389752D01*
X62036743Y-57389752D02*
X62112933Y-57351657D01*
X62112933Y-57351657D02*
X62303409Y-57351657D01*
X62303409Y-57351657D02*
X62379600Y-57389752D01*
X62379600Y-57389752D02*
X62417695Y-57427847D01*
X62417695Y-57427847D02*
X62455790Y-57504038D01*
X62455790Y-57504038D02*
X62455790Y-57694514D01*
X62455790Y-57694514D02*
X62417695Y-57770704D01*
X62417695Y-57770704D02*
X62379600Y-57808800D01*
X62379600Y-57808800D02*
X62303409Y-57846895D01*
X62303409Y-57846895D02*
X62112933Y-57846895D01*
X62112933Y-57846895D02*
X62036743Y-57808800D01*
X62036743Y-57808800D02*
X61998647Y-57770704D01*
X62684362Y-57046895D02*
X62951029Y-57846895D01*
X62951029Y-57846895D02*
X63217695Y-57046895D01*
X65084362Y-57046895D02*
X64703410Y-57046895D01*
X64703410Y-57046895D02*
X64665314Y-57427847D01*
X64665314Y-57427847D02*
X64703410Y-57389752D01*
X64703410Y-57389752D02*
X64779600Y-57351657D01*
X64779600Y-57351657D02*
X64970076Y-57351657D01*
X64970076Y-57351657D02*
X65046267Y-57389752D01*
X65046267Y-57389752D02*
X65084362Y-57427847D01*
X65084362Y-57427847D02*
X65122457Y-57504038D01*
X65122457Y-57504038D02*
X65122457Y-57694514D01*
X65122457Y-57694514D02*
X65084362Y-57770704D01*
X65084362Y-57770704D02*
X65046267Y-57808800D01*
X65046267Y-57808800D02*
X64970076Y-57846895D01*
X64970076Y-57846895D02*
X64779600Y-57846895D01*
X64779600Y-57846895D02*
X64703410Y-57808800D01*
X64703410Y-57808800D02*
X64665314Y-57770704D01*
X65351029Y-57046895D02*
X65617696Y-57846895D01*
X65617696Y-57846895D02*
X65884362Y-57046895D01*
X37433408Y-57690704D02*
X37395312Y-57728800D01*
X37395312Y-57728800D02*
X37281027Y-57766895D01*
X37281027Y-57766895D02*
X37204836Y-57766895D01*
X37204836Y-57766895D02*
X37090550Y-57728800D01*
X37090550Y-57728800D02*
X37014360Y-57652609D01*
X37014360Y-57652609D02*
X36976265Y-57576419D01*
X36976265Y-57576419D02*
X36938169Y-57424038D01*
X36938169Y-57424038D02*
X36938169Y-57309752D01*
X36938169Y-57309752D02*
X36976265Y-57157371D01*
X36976265Y-57157371D02*
X37014360Y-57081180D01*
X37014360Y-57081180D02*
X37090550Y-57004990D01*
X37090550Y-57004990D02*
X37204836Y-56966895D01*
X37204836Y-56966895D02*
X37281027Y-56966895D01*
X37281027Y-56966895D02*
X37395312Y-57004990D01*
X37395312Y-57004990D02*
X37433408Y-57043085D01*
X37738169Y-57728800D02*
X37852455Y-57766895D01*
X37852455Y-57766895D02*
X38042931Y-57766895D01*
X38042931Y-57766895D02*
X38119122Y-57728800D01*
X38119122Y-57728800D02*
X38157217Y-57690704D01*
X38157217Y-57690704D02*
X38195312Y-57614514D01*
X38195312Y-57614514D02*
X38195312Y-57538323D01*
X38195312Y-57538323D02*
X38157217Y-57462133D01*
X38157217Y-57462133D02*
X38119122Y-57424038D01*
X38119122Y-57424038D02*
X38042931Y-57385942D01*
X38042931Y-57385942D02*
X37890550Y-57347847D01*
X37890550Y-57347847D02*
X37814360Y-57309752D01*
X37814360Y-57309752D02*
X37776265Y-57271657D01*
X37776265Y-57271657D02*
X37738169Y-57195466D01*
X37738169Y-57195466D02*
X37738169Y-57119276D01*
X37738169Y-57119276D02*
X37776265Y-57043085D01*
X37776265Y-57043085D02*
X37814360Y-57004990D01*
X37814360Y-57004990D02*
X37890550Y-56966895D01*
X37890550Y-56966895D02*
X38081027Y-56966895D01*
X38081027Y-56966895D02*
X38195312Y-57004990D01*
X39147694Y-57766895D02*
X39147694Y-56966895D01*
X39147694Y-56966895D02*
X39338170Y-56966895D01*
X39338170Y-56966895D02*
X39452456Y-57004990D01*
X39452456Y-57004990D02*
X39528646Y-57081180D01*
X39528646Y-57081180D02*
X39566741Y-57157371D01*
X39566741Y-57157371D02*
X39604837Y-57309752D01*
X39604837Y-57309752D02*
X39604837Y-57424038D01*
X39604837Y-57424038D02*
X39566741Y-57576419D01*
X39566741Y-57576419D02*
X39528646Y-57652609D01*
X39528646Y-57652609D02*
X39452456Y-57728800D01*
X39452456Y-57728800D02*
X39338170Y-57766895D01*
X39338170Y-57766895D02*
X39147694Y-57766895D01*
X40404837Y-57690704D02*
X40366741Y-57728800D01*
X40366741Y-57728800D02*
X40252456Y-57766895D01*
X40252456Y-57766895D02*
X40176265Y-57766895D01*
X40176265Y-57766895D02*
X40061979Y-57728800D01*
X40061979Y-57728800D02*
X39985789Y-57652609D01*
X39985789Y-57652609D02*
X39947694Y-57576419D01*
X39947694Y-57576419D02*
X39909598Y-57424038D01*
X39909598Y-57424038D02*
X39909598Y-57309752D01*
X39909598Y-57309752D02*
X39947694Y-57157371D01*
X39947694Y-57157371D02*
X39985789Y-57081180D01*
X39985789Y-57081180D02*
X40061979Y-57004990D01*
X40061979Y-57004990D02*
X40176265Y-56966895D01*
X40176265Y-56966895D02*
X40252456Y-56966895D01*
X40252456Y-56966895D02*
X40366741Y-57004990D01*
X40366741Y-57004990D02*
X40404837Y-57043085D01*
X42385789Y-57004990D02*
X42309599Y-56966895D01*
X42309599Y-56966895D02*
X42195313Y-56966895D01*
X42195313Y-56966895D02*
X42081027Y-57004990D01*
X42081027Y-57004990D02*
X42004837Y-57081180D01*
X42004837Y-57081180D02*
X41966742Y-57157371D01*
X41966742Y-57157371D02*
X41928646Y-57309752D01*
X41928646Y-57309752D02*
X41928646Y-57424038D01*
X41928646Y-57424038D02*
X41966742Y-57576419D01*
X41966742Y-57576419D02*
X42004837Y-57652609D01*
X42004837Y-57652609D02*
X42081027Y-57728800D01*
X42081027Y-57728800D02*
X42195313Y-57766895D01*
X42195313Y-57766895D02*
X42271504Y-57766895D01*
X42271504Y-57766895D02*
X42385789Y-57728800D01*
X42385789Y-57728800D02*
X42423885Y-57690704D01*
X42423885Y-57690704D02*
X42423885Y-57424038D01*
X42423885Y-57424038D02*
X42271504Y-57424038D01*
X44252456Y-57347847D02*
X44366742Y-57385942D01*
X44366742Y-57385942D02*
X44404837Y-57424038D01*
X44404837Y-57424038D02*
X44442933Y-57500228D01*
X44442933Y-57500228D02*
X44442933Y-57614514D01*
X44442933Y-57614514D02*
X44404837Y-57690704D01*
X44404837Y-57690704D02*
X44366742Y-57728800D01*
X44366742Y-57728800D02*
X44290552Y-57766895D01*
X44290552Y-57766895D02*
X43985790Y-57766895D01*
X43985790Y-57766895D02*
X43985790Y-56966895D01*
X43985790Y-56966895D02*
X44252456Y-56966895D01*
X44252456Y-56966895D02*
X44328647Y-57004990D01*
X44328647Y-57004990D02*
X44366742Y-57043085D01*
X44366742Y-57043085D02*
X44404837Y-57119276D01*
X44404837Y-57119276D02*
X44404837Y-57195466D01*
X44404837Y-57195466D02*
X44366742Y-57271657D01*
X44366742Y-57271657D02*
X44328647Y-57309752D01*
X44328647Y-57309752D02*
X44252456Y-57347847D01*
X44252456Y-57347847D02*
X43985790Y-57347847D01*
X45166742Y-57766895D02*
X44785790Y-57766895D01*
X44785790Y-57766895D02*
X44785790Y-56966895D01*
X55595312Y-50424990D02*
X55519122Y-50386895D01*
X55519122Y-50386895D02*
X55404836Y-50386895D01*
X55404836Y-50386895D02*
X55290550Y-50424990D01*
X55290550Y-50424990D02*
X55214360Y-50501180D01*
X55214360Y-50501180D02*
X55176265Y-50577371D01*
X55176265Y-50577371D02*
X55138169Y-50729752D01*
X55138169Y-50729752D02*
X55138169Y-50844038D01*
X55138169Y-50844038D02*
X55176265Y-50996419D01*
X55176265Y-50996419D02*
X55214360Y-51072609D01*
X55214360Y-51072609D02*
X55290550Y-51148800D01*
X55290550Y-51148800D02*
X55404836Y-51186895D01*
X55404836Y-51186895D02*
X55481027Y-51186895D01*
X55481027Y-51186895D02*
X55595312Y-51148800D01*
X55595312Y-51148800D02*
X55633408Y-51110704D01*
X55633408Y-51110704D02*
X55633408Y-50844038D01*
X55633408Y-50844038D02*
X55481027Y-50844038D01*
X57004837Y-51263085D02*
X57614360Y-51263085D01*
X58985789Y-51148800D02*
X59100075Y-51186895D01*
X59100075Y-51186895D02*
X59290551Y-51186895D01*
X59290551Y-51186895D02*
X59366742Y-51148800D01*
X59366742Y-51148800D02*
X59404837Y-51110704D01*
X59404837Y-51110704D02*
X59442932Y-51034514D01*
X59442932Y-51034514D02*
X59442932Y-50958323D01*
X59442932Y-50958323D02*
X59404837Y-50882133D01*
X59404837Y-50882133D02*
X59366742Y-50844038D01*
X59366742Y-50844038D02*
X59290551Y-50805942D01*
X59290551Y-50805942D02*
X59138170Y-50767847D01*
X59138170Y-50767847D02*
X59061980Y-50729752D01*
X59061980Y-50729752D02*
X59023885Y-50691657D01*
X59023885Y-50691657D02*
X58985789Y-50615466D01*
X58985789Y-50615466D02*
X58985789Y-50539276D01*
X58985789Y-50539276D02*
X59023885Y-50463085D01*
X59023885Y-50463085D02*
X59061980Y-50424990D01*
X59061980Y-50424990D02*
X59138170Y-50386895D01*
X59138170Y-50386895D02*
X59328647Y-50386895D01*
X59328647Y-50386895D02*
X59442932Y-50424990D01*
X60242933Y-51110704D02*
X60204837Y-51148800D01*
X60204837Y-51148800D02*
X60090552Y-51186895D01*
X60090552Y-51186895D02*
X60014361Y-51186895D01*
X60014361Y-51186895D02*
X59900075Y-51148800D01*
X59900075Y-51148800D02*
X59823885Y-51072609D01*
X59823885Y-51072609D02*
X59785790Y-50996419D01*
X59785790Y-50996419D02*
X59747694Y-50844038D01*
X59747694Y-50844038D02*
X59747694Y-50729752D01*
X59747694Y-50729752D02*
X59785790Y-50577371D01*
X59785790Y-50577371D02*
X59823885Y-50501180D01*
X59823885Y-50501180D02*
X59900075Y-50424990D01*
X59900075Y-50424990D02*
X60014361Y-50386895D01*
X60014361Y-50386895D02*
X60090552Y-50386895D01*
X60090552Y-50386895D02*
X60204837Y-50424990D01*
X60204837Y-50424990D02*
X60242933Y-50463085D01*
X60966742Y-51186895D02*
X60585790Y-51186895D01*
X60585790Y-51186895D02*
X60585790Y-50386895D01*
X61804837Y-51148800D02*
X61919123Y-51186895D01*
X61919123Y-51186895D02*
X62109599Y-51186895D01*
X62109599Y-51186895D02*
X62185790Y-51148800D01*
X62185790Y-51148800D02*
X62223885Y-51110704D01*
X62223885Y-51110704D02*
X62261980Y-51034514D01*
X62261980Y-51034514D02*
X62261980Y-50958323D01*
X62261980Y-50958323D02*
X62223885Y-50882133D01*
X62223885Y-50882133D02*
X62185790Y-50844038D01*
X62185790Y-50844038D02*
X62109599Y-50805942D01*
X62109599Y-50805942D02*
X61957218Y-50767847D01*
X61957218Y-50767847D02*
X61881028Y-50729752D01*
X61881028Y-50729752D02*
X61842933Y-50691657D01*
X61842933Y-50691657D02*
X61804837Y-50615466D01*
X61804837Y-50615466D02*
X61804837Y-50539276D01*
X61804837Y-50539276D02*
X61842933Y-50463085D01*
X61842933Y-50463085D02*
X61881028Y-50424990D01*
X61881028Y-50424990D02*
X61957218Y-50386895D01*
X61957218Y-50386895D02*
X62147695Y-50386895D01*
X62147695Y-50386895D02*
X62261980Y-50424990D01*
X62604838Y-51186895D02*
X62604838Y-50386895D01*
X62604838Y-50386895D02*
X62795314Y-50386895D01*
X62795314Y-50386895D02*
X62909600Y-50424990D01*
X62909600Y-50424990D02*
X62985790Y-50501180D01*
X62985790Y-50501180D02*
X63023885Y-50577371D01*
X63023885Y-50577371D02*
X63061981Y-50729752D01*
X63061981Y-50729752D02*
X63061981Y-50844038D01*
X63061981Y-50844038D02*
X63023885Y-50996419D01*
X63023885Y-50996419D02*
X62985790Y-51072609D01*
X62985790Y-51072609D02*
X62909600Y-51148800D01*
X62909600Y-51148800D02*
X62795314Y-51186895D01*
X62795314Y-51186895D02*
X62604838Y-51186895D01*
X63366742Y-50958323D02*
X63747695Y-50958323D01*
X63290552Y-51186895D02*
X63557219Y-50386895D01*
X63557219Y-50386895D02*
X63823885Y-51186895D01*
X64623885Y-50386895D02*
X65119123Y-50386895D01*
X65119123Y-50386895D02*
X64852457Y-50691657D01*
X64852457Y-50691657D02*
X64966742Y-50691657D01*
X64966742Y-50691657D02*
X65042933Y-50729752D01*
X65042933Y-50729752D02*
X65081028Y-50767847D01*
X65081028Y-50767847D02*
X65119123Y-50844038D01*
X65119123Y-50844038D02*
X65119123Y-51034514D01*
X65119123Y-51034514D02*
X65081028Y-51110704D01*
X65081028Y-51110704D02*
X65042933Y-51148800D01*
X65042933Y-51148800D02*
X64966742Y-51186895D01*
X64966742Y-51186895D02*
X64738171Y-51186895D01*
X64738171Y-51186895D02*
X64661980Y-51148800D01*
X64661980Y-51148800D02*
X64623885Y-51110704D01*
X65385790Y-50653561D02*
X65576266Y-51186895D01*
X65576266Y-51186895D02*
X65766743Y-50653561D01*
X65995314Y-50386895D02*
X66490552Y-50386895D01*
X66490552Y-50386895D02*
X66223886Y-50691657D01*
X66223886Y-50691657D02*
X66338171Y-50691657D01*
X66338171Y-50691657D02*
X66414362Y-50729752D01*
X66414362Y-50729752D02*
X66452457Y-50767847D01*
X66452457Y-50767847D02*
X66490552Y-50844038D01*
X66490552Y-50844038D02*
X66490552Y-51034514D01*
X66490552Y-51034514D02*
X66452457Y-51110704D01*
X66452457Y-51110704D02*
X66414362Y-51148800D01*
X66414362Y-51148800D02*
X66338171Y-51186895D01*
X66338171Y-51186895D02*
X66109600Y-51186895D01*
X66109600Y-51186895D02*
X66033409Y-51148800D01*
X66033409Y-51148800D02*
X65995314Y-51110704D01*
X17005312Y-50754990D02*
X16929122Y-50716895D01*
X16929122Y-50716895D02*
X16814836Y-50716895D01*
X16814836Y-50716895D02*
X16700550Y-50754990D01*
X16700550Y-50754990D02*
X16624360Y-50831180D01*
X16624360Y-50831180D02*
X16586265Y-50907371D01*
X16586265Y-50907371D02*
X16548169Y-51059752D01*
X16548169Y-51059752D02*
X16548169Y-51174038D01*
X16548169Y-51174038D02*
X16586265Y-51326419D01*
X16586265Y-51326419D02*
X16624360Y-51402609D01*
X16624360Y-51402609D02*
X16700550Y-51478800D01*
X16700550Y-51478800D02*
X16814836Y-51516895D01*
X16814836Y-51516895D02*
X16891027Y-51516895D01*
X16891027Y-51516895D02*
X17005312Y-51478800D01*
X17005312Y-51478800D02*
X17043408Y-51440704D01*
X17043408Y-51440704D02*
X17043408Y-51174038D01*
X17043408Y-51174038D02*
X16891027Y-51174038D01*
X18833884Y-50716895D02*
X18833884Y-51288323D01*
X18833884Y-51288323D02*
X18795789Y-51402609D01*
X18795789Y-51402609D02*
X18719598Y-51478800D01*
X18719598Y-51478800D02*
X18605313Y-51516895D01*
X18605313Y-51516895D02*
X18529122Y-51516895D01*
X19671980Y-51516895D02*
X19405313Y-51135942D01*
X19214837Y-51516895D02*
X19214837Y-50716895D01*
X19214837Y-50716895D02*
X19519599Y-50716895D01*
X19519599Y-50716895D02*
X19595789Y-50754990D01*
X19595789Y-50754990D02*
X19633884Y-50793085D01*
X19633884Y-50793085D02*
X19671980Y-50869276D01*
X19671980Y-50869276D02*
X19671980Y-50983561D01*
X19671980Y-50983561D02*
X19633884Y-51059752D01*
X19633884Y-51059752D02*
X19595789Y-51097847D01*
X19595789Y-51097847D02*
X19519599Y-51135942D01*
X19519599Y-51135942D02*
X19214837Y-51135942D01*
X21462456Y-50716895D02*
X21462456Y-51288323D01*
X21462456Y-51288323D02*
X21424361Y-51402609D01*
X21424361Y-51402609D02*
X21348170Y-51478800D01*
X21348170Y-51478800D02*
X21233885Y-51516895D01*
X21233885Y-51516895D02*
X21157694Y-51516895D01*
X21843409Y-51516895D02*
X21843409Y-50716895D01*
X21843409Y-50716895D02*
X22033885Y-50716895D01*
X22033885Y-50716895D02*
X22148171Y-50754990D01*
X22148171Y-50754990D02*
X22224361Y-50831180D01*
X22224361Y-50831180D02*
X22262456Y-50907371D01*
X22262456Y-50907371D02*
X22300552Y-51059752D01*
X22300552Y-51059752D02*
X22300552Y-51174038D01*
X22300552Y-51174038D02*
X22262456Y-51326419D01*
X22262456Y-51326419D02*
X22224361Y-51402609D01*
X22224361Y-51402609D02*
X22148171Y-51478800D01*
X22148171Y-51478800D02*
X22033885Y-51516895D01*
X22033885Y-51516895D02*
X21843409Y-51516895D01*
X24091028Y-50716895D02*
X24091028Y-51288323D01*
X24091028Y-51288323D02*
X24052933Y-51402609D01*
X24052933Y-51402609D02*
X23976742Y-51478800D01*
X23976742Y-51478800D02*
X23862457Y-51516895D01*
X23862457Y-51516895D02*
X23786266Y-51516895D01*
X24471981Y-51516895D02*
X24471981Y-50716895D01*
X24471981Y-50716895D02*
X24776743Y-50716895D01*
X24776743Y-50716895D02*
X24852933Y-50754990D01*
X24852933Y-50754990D02*
X24891028Y-50793085D01*
X24891028Y-50793085D02*
X24929124Y-50869276D01*
X24929124Y-50869276D02*
X24929124Y-50983561D01*
X24929124Y-50983561D02*
X24891028Y-51059752D01*
X24891028Y-51059752D02*
X24852933Y-51097847D01*
X24852933Y-51097847D02*
X24776743Y-51135942D01*
X24776743Y-51135942D02*
X24471981Y-51135942D01*
X26719600Y-50716895D02*
X26719600Y-51288323D01*
X26719600Y-51288323D02*
X26681505Y-51402609D01*
X26681505Y-51402609D02*
X26605314Y-51478800D01*
X26605314Y-51478800D02*
X26491029Y-51516895D01*
X26491029Y-51516895D02*
X26414838Y-51516895D01*
X27100553Y-50716895D02*
X27100553Y-51364514D01*
X27100553Y-51364514D02*
X27138648Y-51440704D01*
X27138648Y-51440704D02*
X27176743Y-51478800D01*
X27176743Y-51478800D02*
X27252934Y-51516895D01*
X27252934Y-51516895D02*
X27405315Y-51516895D01*
X27405315Y-51516895D02*
X27481505Y-51478800D01*
X27481505Y-51478800D02*
X27519600Y-51440704D01*
X27519600Y-51440704D02*
X27557696Y-51364514D01*
X27557696Y-51364514D02*
X27557696Y-50716895D01*
X29386267Y-50716895D02*
X29386267Y-51288323D01*
X29386267Y-51288323D02*
X29348172Y-51402609D01*
X29348172Y-51402609D02*
X29271981Y-51478800D01*
X29271981Y-51478800D02*
X29157696Y-51516895D01*
X29157696Y-51516895D02*
X29081505Y-51516895D01*
X30148172Y-51516895D02*
X29767220Y-51516895D01*
X29767220Y-51516895D02*
X29767220Y-50716895D01*
D13*
X68945912Y-47158346D02*
X70445912Y-46801203D01*
X70445912Y-46801203D02*
X69374484Y-46515489D01*
X69374484Y-46515489D02*
X70445912Y-46229774D01*
X70445912Y-46229774D02*
X68945912Y-45872632D01*
X70445912Y-44658346D02*
X69660198Y-44658346D01*
X69660198Y-44658346D02*
X69517341Y-44729774D01*
X69517341Y-44729774D02*
X69445912Y-44872631D01*
X69445912Y-44872631D02*
X69445912Y-45158346D01*
X69445912Y-45158346D02*
X69517341Y-45301203D01*
X70374484Y-44658346D02*
X70445912Y-44801203D01*
X70445912Y-44801203D02*
X70445912Y-45158346D01*
X70445912Y-45158346D02*
X70374484Y-45301203D01*
X70374484Y-45301203D02*
X70231626Y-45372631D01*
X70231626Y-45372631D02*
X70088769Y-45372631D01*
X70088769Y-45372631D02*
X69945912Y-45301203D01*
X69945912Y-45301203D02*
X69874484Y-45158346D01*
X69874484Y-45158346D02*
X69874484Y-44801203D01*
X69874484Y-44801203D02*
X69803055Y-44658346D01*
X69445912Y-44086917D02*
X70445912Y-43729774D01*
X70445912Y-43729774D02*
X69445912Y-43372631D01*
X70374484Y-42229774D02*
X70445912Y-42372631D01*
X70445912Y-42372631D02*
X70445912Y-42658346D01*
X70445912Y-42658346D02*
X70374484Y-42801203D01*
X70374484Y-42801203D02*
X70231626Y-42872631D01*
X70231626Y-42872631D02*
X69660198Y-42872631D01*
X69660198Y-42872631D02*
X69517341Y-42801203D01*
X69517341Y-42801203D02*
X69445912Y-42658346D01*
X69445912Y-42658346D02*
X69445912Y-42372631D01*
X69445912Y-42372631D02*
X69517341Y-42229774D01*
X69517341Y-42229774D02*
X69660198Y-42158346D01*
X69660198Y-42158346D02*
X69803055Y-42158346D01*
X69803055Y-42158346D02*
X69945912Y-42872631D01*
X70374484Y-41586917D02*
X70445912Y-41444060D01*
X70445912Y-41444060D02*
X70445912Y-41158346D01*
X70445912Y-41158346D02*
X70374484Y-41015489D01*
X70374484Y-41015489D02*
X70231626Y-40944060D01*
X70231626Y-40944060D02*
X70160198Y-40944060D01*
X70160198Y-40944060D02*
X70017341Y-41015489D01*
X70017341Y-41015489D02*
X69945912Y-41158346D01*
X69945912Y-41158346D02*
X69945912Y-41372632D01*
X69945912Y-41372632D02*
X69874484Y-41515489D01*
X69874484Y-41515489D02*
X69731626Y-41586917D01*
X69731626Y-41586917D02*
X69660198Y-41586917D01*
X69660198Y-41586917D02*
X69517341Y-41515489D01*
X69517341Y-41515489D02*
X69445912Y-41372632D01*
X69445912Y-41372632D02*
X69445912Y-41158346D01*
X69445912Y-41158346D02*
X69517341Y-41015489D01*
X70445912Y-40301203D02*
X68945912Y-40301203D01*
X70445912Y-39658346D02*
X69660198Y-39658346D01*
X69660198Y-39658346D02*
X69517341Y-39729774D01*
X69517341Y-39729774D02*
X69445912Y-39872631D01*
X69445912Y-39872631D02*
X69445912Y-40086917D01*
X69445912Y-40086917D02*
X69517341Y-40229774D01*
X69517341Y-40229774D02*
X69588769Y-40301203D01*
X70445912Y-38301203D02*
X69660198Y-38301203D01*
X69660198Y-38301203D02*
X69517341Y-38372631D01*
X69517341Y-38372631D02*
X69445912Y-38515488D01*
X69445912Y-38515488D02*
X69445912Y-38801203D01*
X69445912Y-38801203D02*
X69517341Y-38944060D01*
X70374484Y-38301203D02*
X70445912Y-38444060D01*
X70445912Y-38444060D02*
X70445912Y-38801203D01*
X70445912Y-38801203D02*
X70374484Y-38944060D01*
X70374484Y-38944060D02*
X70231626Y-39015488D01*
X70231626Y-39015488D02*
X70088769Y-39015488D01*
X70088769Y-39015488D02*
X69945912Y-38944060D01*
X69945912Y-38944060D02*
X69874484Y-38801203D01*
X69874484Y-38801203D02*
X69874484Y-38444060D01*
X69874484Y-38444060D02*
X69803055Y-38301203D01*
X70445912Y-37586917D02*
X69445912Y-37586917D01*
X69731626Y-37586917D02*
X69588769Y-37515488D01*
X69588769Y-37515488D02*
X69517341Y-37444060D01*
X69517341Y-37444060D02*
X69445912Y-37301202D01*
X69445912Y-37301202D02*
X69445912Y-37158345D01*
X70374484Y-36086917D02*
X70445912Y-36229774D01*
X70445912Y-36229774D02*
X70445912Y-36515489D01*
X70445912Y-36515489D02*
X70374484Y-36658346D01*
X70374484Y-36658346D02*
X70231626Y-36729774D01*
X70231626Y-36729774D02*
X69660198Y-36729774D01*
X69660198Y-36729774D02*
X69517341Y-36658346D01*
X69517341Y-36658346D02*
X69445912Y-36515489D01*
X69445912Y-36515489D02*
X69445912Y-36229774D01*
X69445912Y-36229774D02*
X69517341Y-36086917D01*
X69517341Y-36086917D02*
X69660198Y-36015489D01*
X69660198Y-36015489D02*
X69803055Y-36015489D01*
X69803055Y-36015489D02*
X69945912Y-36729774D01*
X71860828Y-47229774D02*
X71860828Y-46658346D01*
X71360828Y-47015489D02*
X72646542Y-47015489D01*
X72646542Y-47015489D02*
X72789400Y-46944060D01*
X72789400Y-46944060D02*
X72860828Y-46801203D01*
X72860828Y-46801203D02*
X72860828Y-46658346D01*
X72860828Y-46158346D02*
X71360828Y-46158346D01*
X72860828Y-45515489D02*
X72075114Y-45515489D01*
X72075114Y-45515489D02*
X71932257Y-45586917D01*
X71932257Y-45586917D02*
X71860828Y-45729774D01*
X71860828Y-45729774D02*
X71860828Y-45944060D01*
X71860828Y-45944060D02*
X71932257Y-46086917D01*
X71932257Y-46086917D02*
X72003685Y-46158346D01*
X72860828Y-44801203D02*
X71860828Y-44801203D01*
X71360828Y-44801203D02*
X71432257Y-44872631D01*
X71432257Y-44872631D02*
X71503685Y-44801203D01*
X71503685Y-44801203D02*
X71432257Y-44729774D01*
X71432257Y-44729774D02*
X71360828Y-44801203D01*
X71360828Y-44801203D02*
X71503685Y-44801203D01*
X72789400Y-44158345D02*
X72860828Y-44015488D01*
X72860828Y-44015488D02*
X72860828Y-43729774D01*
X72860828Y-43729774D02*
X72789400Y-43586917D01*
X72789400Y-43586917D02*
X72646542Y-43515488D01*
X72646542Y-43515488D02*
X72575114Y-43515488D01*
X72575114Y-43515488D02*
X72432257Y-43586917D01*
X72432257Y-43586917D02*
X72360828Y-43729774D01*
X72360828Y-43729774D02*
X72360828Y-43944060D01*
X72360828Y-43944060D02*
X72289400Y-44086917D01*
X72289400Y-44086917D02*
X72146542Y-44158345D01*
X72146542Y-44158345D02*
X72075114Y-44158345D01*
X72075114Y-44158345D02*
X71932257Y-44086917D01*
X71932257Y-44086917D02*
X71860828Y-43944060D01*
X71860828Y-43944060D02*
X71860828Y-43729774D01*
X71860828Y-43729774D02*
X71932257Y-43586917D01*
X72789400Y-41801202D02*
X72860828Y-41658345D01*
X72860828Y-41658345D02*
X72860828Y-41372631D01*
X72860828Y-41372631D02*
X72789400Y-41229774D01*
X72789400Y-41229774D02*
X72646542Y-41158345D01*
X72646542Y-41158345D02*
X72575114Y-41158345D01*
X72575114Y-41158345D02*
X72432257Y-41229774D01*
X72432257Y-41229774D02*
X72360828Y-41372631D01*
X72360828Y-41372631D02*
X72360828Y-41586917D01*
X72360828Y-41586917D02*
X72289400Y-41729774D01*
X72289400Y-41729774D02*
X72146542Y-41801202D01*
X72146542Y-41801202D02*
X72075114Y-41801202D01*
X72075114Y-41801202D02*
X71932257Y-41729774D01*
X71932257Y-41729774D02*
X71860828Y-41586917D01*
X71860828Y-41586917D02*
X71860828Y-41372631D01*
X71860828Y-41372631D02*
X71932257Y-41229774D01*
X72860828Y-40515488D02*
X71860828Y-40515488D01*
X71360828Y-40515488D02*
X71432257Y-40586916D01*
X71432257Y-40586916D02*
X71503685Y-40515488D01*
X71503685Y-40515488D02*
X71432257Y-40444059D01*
X71432257Y-40444059D02*
X71360828Y-40515488D01*
X71360828Y-40515488D02*
X71503685Y-40515488D01*
X72860828Y-39158345D02*
X71360828Y-39158345D01*
X72789400Y-39158345D02*
X72860828Y-39301202D01*
X72860828Y-39301202D02*
X72860828Y-39586916D01*
X72860828Y-39586916D02*
X72789400Y-39729773D01*
X72789400Y-39729773D02*
X72717971Y-39801202D01*
X72717971Y-39801202D02*
X72575114Y-39872630D01*
X72575114Y-39872630D02*
X72146542Y-39872630D01*
X72146542Y-39872630D02*
X72003685Y-39801202D01*
X72003685Y-39801202D02*
X71932257Y-39729773D01*
X71932257Y-39729773D02*
X71860828Y-39586916D01*
X71860828Y-39586916D02*
X71860828Y-39301202D01*
X71860828Y-39301202D02*
X71932257Y-39158345D01*
X72789400Y-37872630D02*
X72860828Y-38015487D01*
X72860828Y-38015487D02*
X72860828Y-38301202D01*
X72860828Y-38301202D02*
X72789400Y-38444059D01*
X72789400Y-38444059D02*
X72646542Y-38515487D01*
X72646542Y-38515487D02*
X72075114Y-38515487D01*
X72075114Y-38515487D02*
X71932257Y-38444059D01*
X71932257Y-38444059D02*
X71860828Y-38301202D01*
X71860828Y-38301202D02*
X71860828Y-38015487D01*
X71860828Y-38015487D02*
X71932257Y-37872630D01*
X71932257Y-37872630D02*
X72075114Y-37801202D01*
X72075114Y-37801202D02*
X72217971Y-37801202D01*
X72217971Y-37801202D02*
X72360828Y-38515487D01*
D11*
X34985312Y-50834990D02*
X34909122Y-50796895D01*
X34909122Y-50796895D02*
X34794836Y-50796895D01*
X34794836Y-50796895D02*
X34680550Y-50834990D01*
X34680550Y-50834990D02*
X34604360Y-50911180D01*
X34604360Y-50911180D02*
X34566265Y-50987371D01*
X34566265Y-50987371D02*
X34528169Y-51139752D01*
X34528169Y-51139752D02*
X34528169Y-51254038D01*
X34528169Y-51254038D02*
X34566265Y-51406419D01*
X34566265Y-51406419D02*
X34604360Y-51482609D01*
X34604360Y-51482609D02*
X34680550Y-51558800D01*
X34680550Y-51558800D02*
X34794836Y-51596895D01*
X34794836Y-51596895D02*
X34871027Y-51596895D01*
X34871027Y-51596895D02*
X34985312Y-51558800D01*
X34985312Y-51558800D02*
X35023408Y-51520704D01*
X35023408Y-51520704D02*
X35023408Y-51254038D01*
X35023408Y-51254038D02*
X34871027Y-51254038D01*
X35937693Y-51558800D02*
X36051979Y-51596895D01*
X36051979Y-51596895D02*
X36242455Y-51596895D01*
X36242455Y-51596895D02*
X36318646Y-51558800D01*
X36318646Y-51558800D02*
X36356741Y-51520704D01*
X36356741Y-51520704D02*
X36394836Y-51444514D01*
X36394836Y-51444514D02*
X36394836Y-51368323D01*
X36394836Y-51368323D02*
X36356741Y-51292133D01*
X36356741Y-51292133D02*
X36318646Y-51254038D01*
X36318646Y-51254038D02*
X36242455Y-51215942D01*
X36242455Y-51215942D02*
X36090074Y-51177847D01*
X36090074Y-51177847D02*
X36013884Y-51139752D01*
X36013884Y-51139752D02*
X35975789Y-51101657D01*
X35975789Y-51101657D02*
X35937693Y-51025466D01*
X35937693Y-51025466D02*
X35937693Y-50949276D01*
X35937693Y-50949276D02*
X35975789Y-50873085D01*
X35975789Y-50873085D02*
X36013884Y-50834990D01*
X36013884Y-50834990D02*
X36090074Y-50796895D01*
X36090074Y-50796895D02*
X36280551Y-50796895D01*
X36280551Y-50796895D02*
X36394836Y-50834990D01*
X37194837Y-51520704D02*
X37156741Y-51558800D01*
X37156741Y-51558800D02*
X37042456Y-51596895D01*
X37042456Y-51596895D02*
X36966265Y-51596895D01*
X36966265Y-51596895D02*
X36851979Y-51558800D01*
X36851979Y-51558800D02*
X36775789Y-51482609D01*
X36775789Y-51482609D02*
X36737694Y-51406419D01*
X36737694Y-51406419D02*
X36699598Y-51254038D01*
X36699598Y-51254038D02*
X36699598Y-51139752D01*
X36699598Y-51139752D02*
X36737694Y-50987371D01*
X36737694Y-50987371D02*
X36775789Y-50911180D01*
X36775789Y-50911180D02*
X36851979Y-50834990D01*
X36851979Y-50834990D02*
X36966265Y-50796895D01*
X36966265Y-50796895D02*
X37042456Y-50796895D01*
X37042456Y-50796895D02*
X37156741Y-50834990D01*
X37156741Y-50834990D02*
X37194837Y-50873085D01*
X37918646Y-51596895D02*
X37537694Y-51596895D01*
X37537694Y-51596895D02*
X37537694Y-50796895D01*
X38185313Y-51596895D02*
X38185313Y-50796895D01*
X38642456Y-51596895D02*
X38299598Y-51139752D01*
X38642456Y-50796895D02*
X38185313Y-51254038D01*
X39404361Y-51673085D02*
X40013884Y-51673085D01*
X40813885Y-51596895D02*
X40813885Y-50796895D01*
X40813885Y-50796895D02*
X41080551Y-51368323D01*
X41080551Y-51368323D02*
X41347218Y-50796895D01*
X41347218Y-50796895D02*
X41347218Y-51596895D01*
X41880552Y-50796895D02*
X42032933Y-50796895D01*
X42032933Y-50796895D02*
X42109123Y-50834990D01*
X42109123Y-50834990D02*
X42185314Y-50911180D01*
X42185314Y-50911180D02*
X42223409Y-51063561D01*
X42223409Y-51063561D02*
X42223409Y-51330228D01*
X42223409Y-51330228D02*
X42185314Y-51482609D01*
X42185314Y-51482609D02*
X42109123Y-51558800D01*
X42109123Y-51558800D02*
X42032933Y-51596895D01*
X42032933Y-51596895D02*
X41880552Y-51596895D01*
X41880552Y-51596895D02*
X41804361Y-51558800D01*
X41804361Y-51558800D02*
X41728171Y-51482609D01*
X41728171Y-51482609D02*
X41690075Y-51330228D01*
X41690075Y-51330228D02*
X41690075Y-51063561D01*
X41690075Y-51063561D02*
X41728171Y-50911180D01*
X41728171Y-50911180D02*
X41804361Y-50834990D01*
X41804361Y-50834990D02*
X41880552Y-50796895D01*
X42528170Y-51558800D02*
X42642456Y-51596895D01*
X42642456Y-51596895D02*
X42832932Y-51596895D01*
X42832932Y-51596895D02*
X42909123Y-51558800D01*
X42909123Y-51558800D02*
X42947218Y-51520704D01*
X42947218Y-51520704D02*
X42985313Y-51444514D01*
X42985313Y-51444514D02*
X42985313Y-51368323D01*
X42985313Y-51368323D02*
X42947218Y-51292133D01*
X42947218Y-51292133D02*
X42909123Y-51254038D01*
X42909123Y-51254038D02*
X42832932Y-51215942D01*
X42832932Y-51215942D02*
X42680551Y-51177847D01*
X42680551Y-51177847D02*
X42604361Y-51139752D01*
X42604361Y-51139752D02*
X42566266Y-51101657D01*
X42566266Y-51101657D02*
X42528170Y-51025466D01*
X42528170Y-51025466D02*
X42528170Y-50949276D01*
X42528170Y-50949276D02*
X42566266Y-50873085D01*
X42566266Y-50873085D02*
X42604361Y-50834990D01*
X42604361Y-50834990D02*
X42680551Y-50796895D01*
X42680551Y-50796895D02*
X42871028Y-50796895D01*
X42871028Y-50796895D02*
X42985313Y-50834990D01*
X43328171Y-51596895D02*
X43328171Y-50796895D01*
X44242456Y-50796895D02*
X44737694Y-50796895D01*
X44737694Y-50796895D02*
X44471028Y-51101657D01*
X44471028Y-51101657D02*
X44585313Y-51101657D01*
X44585313Y-51101657D02*
X44661504Y-51139752D01*
X44661504Y-51139752D02*
X44699599Y-51177847D01*
X44699599Y-51177847D02*
X44737694Y-51254038D01*
X44737694Y-51254038D02*
X44737694Y-51444514D01*
X44737694Y-51444514D02*
X44699599Y-51520704D01*
X44699599Y-51520704D02*
X44661504Y-51558800D01*
X44661504Y-51558800D02*
X44585313Y-51596895D01*
X44585313Y-51596895D02*
X44356742Y-51596895D01*
X44356742Y-51596895D02*
X44280551Y-51558800D01*
X44280551Y-51558800D02*
X44242456Y-51520704D01*
X45004361Y-51063561D02*
X45194837Y-51596895D01*
X45194837Y-51596895D02*
X45385314Y-51063561D01*
X45613885Y-50796895D02*
X46109123Y-50796895D01*
X46109123Y-50796895D02*
X45842457Y-51101657D01*
X45842457Y-51101657D02*
X45956742Y-51101657D01*
X45956742Y-51101657D02*
X46032933Y-51139752D01*
X46032933Y-51139752D02*
X46071028Y-51177847D01*
X46071028Y-51177847D02*
X46109123Y-51254038D01*
X46109123Y-51254038D02*
X46109123Y-51444514D01*
X46109123Y-51444514D02*
X46071028Y-51520704D01*
X46071028Y-51520704D02*
X46032933Y-51558800D01*
X46032933Y-51558800D02*
X45956742Y-51596895D01*
X45956742Y-51596895D02*
X45728171Y-51596895D01*
X45728171Y-51596895D02*
X45651980Y-51558800D01*
X45651980Y-51558800D02*
X45613885Y-51520704D01*
X49613408Y-51456895D02*
X49346741Y-51075942D01*
X49156265Y-51456895D02*
X49156265Y-50656895D01*
X49156265Y-50656895D02*
X49461027Y-50656895D01*
X49461027Y-50656895D02*
X49537217Y-50694990D01*
X49537217Y-50694990D02*
X49575312Y-50733085D01*
X49575312Y-50733085D02*
X49613408Y-50809276D01*
X49613408Y-50809276D02*
X49613408Y-50923561D01*
X49613408Y-50923561D02*
X49575312Y-50999752D01*
X49575312Y-50999752D02*
X49537217Y-51037847D01*
X49537217Y-51037847D02*
X49461027Y-51075942D01*
X49461027Y-51075942D02*
X49156265Y-51075942D01*
X49918169Y-51418800D02*
X50032455Y-51456895D01*
X50032455Y-51456895D02*
X50222931Y-51456895D01*
X50222931Y-51456895D02*
X50299122Y-51418800D01*
X50299122Y-51418800D02*
X50337217Y-51380704D01*
X50337217Y-51380704D02*
X50375312Y-51304514D01*
X50375312Y-51304514D02*
X50375312Y-51228323D01*
X50375312Y-51228323D02*
X50337217Y-51152133D01*
X50337217Y-51152133D02*
X50299122Y-51114038D01*
X50299122Y-51114038D02*
X50222931Y-51075942D01*
X50222931Y-51075942D02*
X50070550Y-51037847D01*
X50070550Y-51037847D02*
X49994360Y-50999752D01*
X49994360Y-50999752D02*
X49956265Y-50961657D01*
X49956265Y-50961657D02*
X49918169Y-50885466D01*
X49918169Y-50885466D02*
X49918169Y-50809276D01*
X49918169Y-50809276D02*
X49956265Y-50733085D01*
X49956265Y-50733085D02*
X49994360Y-50694990D01*
X49994360Y-50694990D02*
X50070550Y-50656895D01*
X50070550Y-50656895D02*
X50261027Y-50656895D01*
X50261027Y-50656895D02*
X50375312Y-50694990D01*
X50603884Y-50656895D02*
X51061027Y-50656895D01*
X50832455Y-51456895D02*
X50832455Y-50656895D01*
D12*
X21582219Y-51251904D02*
X22391742Y-51251904D01*
X22391742Y-51251904D02*
X22486980Y-51204285D01*
X22486980Y-51204285D02*
X22534600Y-51156666D01*
X22534600Y-51156666D02*
X22582219Y-51061428D01*
X22582219Y-51061428D02*
X22582219Y-50870952D01*
X22582219Y-50870952D02*
X22534600Y-50775714D01*
X22534600Y-50775714D02*
X22486980Y-50728095D01*
X22486980Y-50728095D02*
X22391742Y-50680476D01*
X22391742Y-50680476D02*
X21582219Y-50680476D01*
X21582219Y-50299523D02*
X21582219Y-49680476D01*
X21582219Y-49680476D02*
X21963171Y-50013809D01*
X21963171Y-50013809D02*
X21963171Y-49870952D01*
X21963171Y-49870952D02*
X22010790Y-49775714D01*
X22010790Y-49775714D02*
X22058409Y-49728095D01*
X22058409Y-49728095D02*
X22153647Y-49680476D01*
X22153647Y-49680476D02*
X22391742Y-49680476D01*
X22391742Y-49680476D02*
X22486980Y-49728095D01*
X22486980Y-49728095D02*
X22534600Y-49775714D01*
X22534600Y-49775714D02*
X22582219Y-49870952D01*
X22582219Y-49870952D02*
X22582219Y-50156666D01*
X22582219Y-50156666D02*
X22534600Y-50251904D01*
X22534600Y-50251904D02*
X22486980Y-50299523D01*
X6952219Y-57961904D02*
X7761742Y-57961904D01*
X7761742Y-57961904D02*
X7856980Y-57914285D01*
X7856980Y-57914285D02*
X7904600Y-57866666D01*
X7904600Y-57866666D02*
X7952219Y-57771428D01*
X7952219Y-57771428D02*
X7952219Y-57580952D01*
X7952219Y-57580952D02*
X7904600Y-57485714D01*
X7904600Y-57485714D02*
X7856980Y-57438095D01*
X7856980Y-57438095D02*
X7761742Y-57390476D01*
X7761742Y-57390476D02*
X6952219Y-57390476D01*
X7047457Y-56961904D02*
X6999838Y-56914285D01*
X6999838Y-56914285D02*
X6952219Y-56819047D01*
X6952219Y-56819047D02*
X6952219Y-56580952D01*
X6952219Y-56580952D02*
X6999838Y-56485714D01*
X6999838Y-56485714D02*
X7047457Y-56438095D01*
X7047457Y-56438095D02*
X7142695Y-56390476D01*
X7142695Y-56390476D02*
X7237933Y-56390476D01*
X7237933Y-56390476D02*
X7380790Y-56438095D01*
X7380790Y-56438095D02*
X7952219Y-57009523D01*
X7952219Y-57009523D02*
X7952219Y-56390476D01*
%TO.C,U3*%
X22990000Y-29740000D02*
X73990000Y-29740000D01*
X22990000Y-51740000D02*
X22990000Y-29740000D01*
X73990000Y-29740000D02*
X73990000Y-51740000D01*
X73990000Y-29740000D02*
X91770000Y-29740000D01*
X73990000Y-51740000D02*
X22990000Y-51740000D01*
X73990000Y-51740000D02*
X91770000Y-51740000D01*
X91770000Y-29740000D02*
X91770000Y-51740000D01*
%TO.C,U2*%
D13*
X8500000Y-31500000D02*
X8500000Y-55500000D01*
X11500000Y-58500000D02*
X70500000Y-58500000D01*
D14*
X15650000Y-51630000D02*
X15650000Y-56830000D01*
D15*
X19000000Y-40000000D02*
X19000000Y-42000000D01*
X19000000Y-42000000D02*
X21000000Y-44000000D01*
X21000000Y-38000000D02*
X19000000Y-40000000D01*
X21000000Y-44000000D02*
X23000000Y-44000000D01*
X23000000Y-38000000D02*
X21000000Y-38000000D01*
X23000000Y-44000000D02*
X25000000Y-42000000D01*
X25000000Y-40000000D02*
X23000000Y-38000000D01*
X25000000Y-42000000D02*
X25000000Y-40000000D01*
X32000000Y-30500000D02*
X32000000Y-49500000D01*
X32000000Y-49500000D02*
X51000000Y-49500000D01*
X51000000Y-30500000D02*
X32000000Y-30500000D01*
X51000000Y-49500000D02*
X51000000Y-30500000D01*
X58000000Y-33500000D02*
X58000000Y-35500000D01*
X58000000Y-35500000D02*
X62000000Y-35500000D01*
X58000000Y-39500000D02*
X58000000Y-41500000D01*
X58000000Y-41500000D02*
X62000000Y-41500000D01*
X58000000Y-45500000D02*
X58000000Y-47500000D01*
X58000000Y-47500000D02*
X62000000Y-47500000D01*
X62000000Y-33500000D02*
X58000000Y-33500000D01*
X62000000Y-35500000D02*
X62000000Y-33500000D01*
X62000000Y-39500000D02*
X58000000Y-39500000D01*
X62000000Y-41500000D02*
X62000000Y-39500000D01*
X62000000Y-45500000D02*
X58000000Y-45500000D01*
X62000000Y-47500000D02*
X62000000Y-45500000D01*
D14*
X63970000Y-51630000D02*
X15650000Y-51630000D01*
X63970000Y-51630000D02*
X63970000Y-54230000D01*
X63970000Y-54230000D02*
X66570000Y-54230000D01*
X65240000Y-51630000D02*
X66570000Y-51630000D01*
X66570000Y-51630000D02*
X66570000Y-52960000D01*
X66570000Y-54230000D02*
X66570000Y-56830000D01*
X66570000Y-56830000D02*
X15650000Y-56830000D01*
D13*
X70500000Y-28500000D02*
X11500000Y-28500000D01*
X73500000Y-55500000D02*
X73500000Y-31500000D01*
X8500000Y-31500000D02*
G75*
G02*
X11500000Y-28500000I3000000J0D01*
G01*
X11500000Y-58500000D02*
G75*
G02*
X8500000Y-55500000I0J3000000D01*
G01*
X70500000Y-28500000D02*
G75*
G02*
X73500000Y-31500000I-1J-3000001D01*
G01*
X73500000Y-55500000D02*
G75*
G02*
X70500000Y-58500000I-3000001J1D01*
G01*
D16*
X22625000Y-41000000D02*
G75*
G02*
X21375000Y-41000000I-625000J0D01*
G01*
X21375000Y-41000000D02*
G75*
G02*
X22625000Y-41000000I625000J0D01*
G01*
%TD*%
%LPC*%
D17*
%TO.C,U3*%
X23990000Y-50940000D03*
D18*
X23990000Y-49740000D03*
D17*
X26530000Y-50940000D03*
D18*
X26530000Y-49740000D03*
D17*
X29070000Y-50940000D03*
D18*
X29070000Y-49740000D03*
D17*
X31610000Y-50940000D03*
D18*
X31610000Y-49740000D03*
D17*
X34150000Y-50940000D03*
D18*
X34150000Y-49740000D03*
D17*
X36690000Y-50940000D03*
D18*
X36690000Y-49740000D03*
D17*
X39230000Y-50940000D03*
D18*
X39230000Y-49740000D03*
D19*
X41770000Y-50940000D03*
D18*
X41770000Y-49740000D03*
D17*
X44310000Y-50940000D03*
D18*
X44310000Y-49740000D03*
D17*
X46850000Y-50940000D03*
D18*
X46850000Y-49740000D03*
D17*
X49390000Y-50940000D03*
D18*
X49390000Y-49740000D03*
D17*
X51930000Y-50940000D03*
D18*
X51930000Y-49740000D03*
D17*
X54470000Y-50940000D03*
D18*
X54470000Y-49740000D03*
D17*
X57010000Y-50940000D03*
D18*
X57010000Y-49740000D03*
D17*
X59550000Y-50940000D03*
D18*
X59550000Y-49740000D03*
D17*
X62090000Y-50940000D03*
D18*
X62090000Y-49740000D03*
D17*
X64630000Y-50940000D03*
D18*
X64630000Y-49740000D03*
D17*
X67170000Y-50940000D03*
D18*
X67170000Y-49740000D03*
D17*
X69710000Y-50940000D03*
D18*
X69710000Y-49740000D03*
D17*
X72250000Y-50940000D03*
D18*
X72250000Y-49740000D03*
X72250000Y-31960000D03*
D17*
X72250000Y-30740000D03*
D18*
X69710000Y-31960000D03*
D17*
X69710000Y-30740000D03*
D18*
X67170000Y-31960000D03*
D17*
X67170000Y-30740000D03*
D18*
X64630000Y-31960000D03*
D17*
X64630000Y-30740000D03*
D18*
X62090000Y-31960000D03*
D17*
X62090000Y-30740000D03*
D18*
X59550000Y-31960000D03*
D17*
X59550000Y-30740000D03*
D18*
X57010000Y-31960000D03*
D17*
X57010000Y-30740000D03*
D18*
X54470000Y-31960000D03*
D17*
X54470000Y-30740000D03*
D18*
X51930000Y-31960000D03*
D17*
X51930000Y-30740000D03*
D18*
X49390000Y-31960000D03*
D17*
X49390000Y-30740000D03*
D18*
X46850000Y-31960000D03*
D17*
X46850000Y-30740000D03*
D18*
X44310000Y-31960000D03*
D17*
X44310000Y-30740000D03*
D18*
X41770000Y-31960000D03*
D17*
X41770000Y-30740000D03*
D18*
X39230000Y-31960000D03*
D17*
X39230000Y-30740000D03*
D18*
X36690000Y-31960000D03*
D17*
X36690000Y-30740000D03*
D18*
X34150000Y-31960000D03*
D17*
X34150000Y-30740000D03*
D18*
X31610000Y-31960000D03*
D17*
X31610000Y-30740000D03*
D18*
X29070000Y-31960000D03*
D17*
X29070000Y-30740000D03*
D18*
X26530000Y-31960000D03*
D17*
X26530000Y-30740000D03*
D18*
X23990000Y-31960000D03*
D17*
X23990000Y-30740000D03*
%TD*%
D20*
%TO.C,U2*%
X70000000Y-55500000D03*
X12000000Y-55500000D03*
D21*
X65240000Y-52960000D03*
D22*
X65240000Y-55500000D03*
X62700000Y-52960000D03*
X62700000Y-55500000D03*
X60160000Y-52960000D03*
X60160000Y-55500000D03*
X57620000Y-52960000D03*
X57620000Y-55500000D03*
X55080000Y-52960000D03*
X55080000Y-55500000D03*
X52540000Y-52960000D03*
X52540000Y-55500000D03*
X50000000Y-52960000D03*
X50000000Y-55500000D03*
X47460000Y-52960000D03*
X47460000Y-55500000D03*
X44920000Y-52960000D03*
X44920000Y-55500000D03*
X42380000Y-52960000D03*
X42380000Y-55500000D03*
X39840000Y-52960000D03*
X39840000Y-55500000D03*
X37300000Y-52960000D03*
X37300000Y-55500000D03*
X34760000Y-52960000D03*
X34760000Y-55500000D03*
X32220000Y-52960000D03*
X32220000Y-55500000D03*
X29680000Y-52960000D03*
X29680000Y-55500000D03*
X27140000Y-52960000D03*
X27140000Y-55500000D03*
X24600000Y-52960000D03*
X24600000Y-55500000D03*
X22060000Y-52960000D03*
X22060000Y-55500000D03*
X19520000Y-52960000D03*
X19520000Y-55500000D03*
X16980000Y-52960000D03*
X16980000Y-55500000D03*
%TD*%
%LPD*%
M02*
