M48
; DRILL file KiCad 10.0.5 date 2026-07-27T17:25:57
; FORMAT={-:-/ absolute / inch / decimal}
; #@! TF.CreationDate,2026-07-27T17:25:57-06:00
; #@! TF.GenerationSoftware,Kicad,Pcbnew,10.0.5
; #@! TF.FileFunction,Plated,1,2,PTH
FMAT,2
INCH
; #@! TA.AperFunction,Plated,PTH,ViaDrill
T1C0.0118
; #@! TA.AperFunction,Plated,PTH,ComponentDrill
T2C0.0394
; #@! TA.AperFunction,Plated,PTH,ComponentDrill
T3C0.0413
%
G90
G05
T1
X0.374Y-1.9366
X0.5315Y-2.0898
X0.6146Y-2.2319
X0.6374Y-2.1409
X0.6705Y-1.9894
X0.7339Y-2.1319
X0.8024Y-2.0185
X0.8083Y-1.9295
X0.8362Y-2.1339
X0.978Y-1.165
X0.9945Y-1.9776
X1.0165Y-2.1134
X1.1197Y-2.1173
X1.1933Y-1.2134
X1.2201Y-2.1087
X1.2937Y-1.9402
X1.3197Y-2.1469
X1.3933Y-1.9386
X1.4197Y-2.1087
X1.4201Y-2.1472
X1.4933Y-1.1992
X1.4937Y-1.9291
X1.5189Y-2.2098
X1.7209Y-2.1059
X1.7957Y-1.9783
X1.8181Y-2.1634
X1.8264Y-2.0587
X1.9122Y-2.0465
X2.0189Y-2.0618
X2.1157Y-2.2083
X2.1531Y-2.2472
X2.2933Y-2.2524
X2.2996Y-2.0315
X2.3363Y-2.1222
X2.3969Y-1.9366
X2.4138Y-2.2441
X2.4169Y-2.0539
X2.4957Y-1.287
X2.5193Y-2.2134
X2.5799Y-2.0319
X2.5917Y-1.2181
X2.6047Y-2.2661
X2.6461Y-2.0984
X2.6488Y-2.1239
X2.6587Y-2.2114
X2.6866Y-1.9945
X2.7028Y-2.0587
X2.7063Y-1.1799
X2.7413Y-1.9102
X2.7663Y-1.837
X2.7673Y-1.3059
X2.8136Y-2.0837
X2.8177Y-1.165
X2.8197Y-2.1248
X2.8248Y-2.0508
X2.8268Y-1.3287
X2.8299Y-1.8358
X2.8677Y-1.9083
X2.8717Y-1.3083
T2
X0.6685Y-2.085
X0.6685Y-2.185
X0.7685Y-2.085
X0.7685Y-2.185
X0.8685Y-2.085
X0.8685Y-2.185
X0.9685Y-2.085
X0.9685Y-2.185
X1.0685Y-2.085
X1.0685Y-2.185
X1.1685Y-2.085
X1.1685Y-2.185
X1.2685Y-2.085
X1.2685Y-2.185
X1.3685Y-2.085
X1.3685Y-2.185
X1.4685Y-2.085
X1.4685Y-2.185
X1.5685Y-2.085
X1.5685Y-2.185
X1.6685Y-2.085
X1.6685Y-2.185
X1.7685Y-2.085
X1.7685Y-2.185
X1.8685Y-2.085
X1.8685Y-2.185
X1.9685Y-2.085
X1.9685Y-2.185
X2.0685Y-2.085
X2.0685Y-2.185
X2.1685Y-2.085
X2.1685Y-2.185
X2.2685Y-2.085
X2.2685Y-2.185
X2.3685Y-2.085
X2.3685Y-2.185
X2.4685Y-2.085
X2.4685Y-2.185
X2.5685Y-2.085
X2.5685Y-2.185
T3
X0.9445Y-1.2583
X0.9445Y-1.9583
X1.0445Y-1.2583
X1.0445Y-1.9583
X1.1445Y-1.2583
X1.1445Y-1.9583
X1.2445Y-1.2583
X1.2445Y-1.9583
X1.3445Y-1.2583
X1.3445Y-1.9583
X1.4445Y-1.2583
X1.4445Y-1.9583
X1.5445Y-1.2583
X1.5445Y-1.9583
X1.6445Y-1.2583
X1.6445Y-1.9583
X1.7445Y-1.2583
X1.7445Y-1.9583
X1.8445Y-1.2583
X1.8445Y-1.9583
X1.9445Y-1.2583
X1.9445Y-1.9583
X2.0445Y-1.2583
X2.0445Y-1.9583
X2.1445Y-1.2583
X2.1445Y-1.9583
X2.2445Y-1.2583
X2.2445Y-1.9583
X2.3445Y-1.2583
X2.3445Y-1.9583
X2.4445Y-1.2583
X2.4445Y-1.9583
X2.5445Y-1.2583
X2.5445Y-1.9583
X2.6445Y-1.2583
X2.6445Y-1.9583
X2.7445Y-1.2583
X2.7445Y-1.9583
X2.8445Y-1.2583
X2.8445Y-1.9583
M30
