%TF.GenerationSoftware,KiCad,Pcbnew,10.0.5*%
%TF.CreationDate,2026-07-27T17:25:57-06:00*%
%TF.ProjectId,seedsigner-luckfox-pico-max,73656564-7369-4676-9e65-722d6c75636b,sdfsdf*%
%TF.SameCoordinates,Original*%
%TF.FileFunction,Legend,Bot*%
%TF.FilePolarity,Positive*%
%FSLAX46Y46*%
G04 Gerber Fmt 4.6, Leading zero omitted, Abs format (unit mm)*
G04 Created by KiCad (PCBNEW 10.0.5) date 2026-07-27 17:25:57*
%MOMM*%
%LPD*%
G01*
G04 APERTURE LIST*
G04 Aperture macros list*
%AMRoundRect*
0 Rectangle with rounded corners*
0 $1 Rounding radius*
0 $2 $3 $4 $5 $6 $7 $8 $9 X,Y pos of 4 corners*
0 Add a 4 corners polygon primitive as box body*
4,1,4,$2,$3,$4,$5,$6,$7,$8,$9,$2,$3,0*
0 Add four circle primitives for the rounded corners*
1,1,$1+$1,$2,$3*
1,1,$1+$1,$4,$5*
1,1,$1+$1,$6,$7*
1,1,$1+$1,$8,$9*
0 Add four rect primitives between the rounded corners*
20,1,$1+$1,$2,$3,$4,$5,0*
20,1,$1+$1,$4,$5,$6,$7,0*
20,1,$1+$1,$6,$7,$8,$9,0*
20,1,$1+$1,$8,$9,$2,$3,0*%
G04 Aperture macros list end*
%ADD10C,0.704401*%
%ADD11C,0.200000*%
%ADD12C,1.600000*%
%ADD13RoundRect,0.162221X0.378517X-0.425541X0.378517X0.425541X-0.378517X0.425541X-0.378517X-0.425541X0*%
%ADD14C,3.500000*%
%ADD15R,1.700000X1.700000*%
%ADD16O,1.700000X1.700000*%
G04 APERTURE END LIST*
D10*
X22492200Y-49740000D02*
G75*
G02*
X21787800Y-49740000I-352200J0D01*
G01*
X21787800Y-49740000D02*
G75*
G02*
X22492200Y-49740000I352200J0D01*
G01*
D11*
X50775000Y-33680000D02*
X73245000Y-33680000D01*
X73245000Y-38720000D01*
X50775000Y-38720000D01*
X50775000Y-33680000D01*
X58610000Y-38765000D02*
X73190000Y-38765000D01*
X73190000Y-49165000D01*
X58610000Y-49165000D01*
X58610000Y-38765000D01*
X42415000Y-38800000D02*
X58615000Y-38800000D01*
X58615000Y-49170000D01*
X42415000Y-49170000D01*
X42415000Y-38800000D01*
X63226993Y-29811695D02*
X63607945Y-29811695D01*
X63607945Y-29811695D02*
X63607945Y-29011695D01*
X62617469Y-29278361D02*
X62617469Y-29811695D01*
X62960326Y-29278361D02*
X62960326Y-29697409D01*
X62960326Y-29697409D02*
X62922231Y-29773600D01*
X62922231Y-29773600D02*
X62846041Y-29811695D01*
X62846041Y-29811695D02*
X62731755Y-29811695D01*
X62731755Y-29811695D02*
X62655564Y-29773600D01*
X62655564Y-29773600D02*
X62617469Y-29735504D01*
X61893659Y-29773600D02*
X61969850Y-29811695D01*
X61969850Y-29811695D02*
X62122231Y-29811695D01*
X62122231Y-29811695D02*
X62198421Y-29773600D01*
X62198421Y-29773600D02*
X62236516Y-29735504D01*
X62236516Y-29735504D02*
X62274612Y-29659314D01*
X62274612Y-29659314D02*
X62274612Y-29430742D01*
X62274612Y-29430742D02*
X62236516Y-29354552D01*
X62236516Y-29354552D02*
X62198421Y-29316457D01*
X62198421Y-29316457D02*
X62122231Y-29278361D01*
X62122231Y-29278361D02*
X61969850Y-29278361D01*
X61969850Y-29278361D02*
X61893659Y-29316457D01*
X61550802Y-29811695D02*
X61550802Y-29011695D01*
X61474612Y-29506933D02*
X61246040Y-29811695D01*
X61246040Y-29278361D02*
X61550802Y-29583123D01*
X61017469Y-29278361D02*
X60712707Y-29278361D01*
X60903183Y-29811695D02*
X60903183Y-29125980D01*
X60903183Y-29125980D02*
X60865088Y-29049790D01*
X60865088Y-29049790D02*
X60788898Y-29011695D01*
X60788898Y-29011695D02*
X60712707Y-29011695D01*
X60331755Y-29811695D02*
X60407945Y-29773600D01*
X60407945Y-29773600D02*
X60446040Y-29735504D01*
X60446040Y-29735504D02*
X60484136Y-29659314D01*
X60484136Y-29659314D02*
X60484136Y-29430742D01*
X60484136Y-29430742D02*
X60446040Y-29354552D01*
X60446040Y-29354552D02*
X60407945Y-29316457D01*
X60407945Y-29316457D02*
X60331755Y-29278361D01*
X60331755Y-29278361D02*
X60217469Y-29278361D01*
X60217469Y-29278361D02*
X60141278Y-29316457D01*
X60141278Y-29316457D02*
X60103183Y-29354552D01*
X60103183Y-29354552D02*
X60065088Y-29430742D01*
X60065088Y-29430742D02*
X60065088Y-29659314D01*
X60065088Y-29659314D02*
X60103183Y-29735504D01*
X60103183Y-29735504D02*
X60141278Y-29773600D01*
X60141278Y-29773600D02*
X60217469Y-29811695D01*
X60217469Y-29811695D02*
X60331755Y-29811695D01*
X59798421Y-29811695D02*
X59379373Y-29278361D01*
X59798421Y-29278361D02*
X59379373Y-29811695D01*
X58465087Y-29811695D02*
X58465087Y-29011695D01*
X58465087Y-29011695D02*
X58160325Y-29011695D01*
X58160325Y-29011695D02*
X58084135Y-29049790D01*
X58084135Y-29049790D02*
X58046040Y-29087885D01*
X58046040Y-29087885D02*
X58007944Y-29164076D01*
X58007944Y-29164076D02*
X58007944Y-29278361D01*
X58007944Y-29278361D02*
X58046040Y-29354552D01*
X58046040Y-29354552D02*
X58084135Y-29392647D01*
X58084135Y-29392647D02*
X58160325Y-29430742D01*
X58160325Y-29430742D02*
X58465087Y-29430742D01*
X57665087Y-29811695D02*
X57665087Y-29278361D01*
X57665087Y-29011695D02*
X57703183Y-29049790D01*
X57703183Y-29049790D02*
X57665087Y-29087885D01*
X57665087Y-29087885D02*
X57626992Y-29049790D01*
X57626992Y-29049790D02*
X57665087Y-29011695D01*
X57665087Y-29011695D02*
X57665087Y-29087885D01*
X56941278Y-29773600D02*
X57017469Y-29811695D01*
X57017469Y-29811695D02*
X57169850Y-29811695D01*
X57169850Y-29811695D02*
X57246040Y-29773600D01*
X57246040Y-29773600D02*
X57284135Y-29735504D01*
X57284135Y-29735504D02*
X57322231Y-29659314D01*
X57322231Y-29659314D02*
X57322231Y-29430742D01*
X57322231Y-29430742D02*
X57284135Y-29354552D01*
X57284135Y-29354552D02*
X57246040Y-29316457D01*
X57246040Y-29316457D02*
X57169850Y-29278361D01*
X57169850Y-29278361D02*
X57017469Y-29278361D01*
X57017469Y-29278361D02*
X56941278Y-29316457D01*
X56484136Y-29811695D02*
X56560326Y-29773600D01*
X56560326Y-29773600D02*
X56598421Y-29735504D01*
X56598421Y-29735504D02*
X56636517Y-29659314D01*
X56636517Y-29659314D02*
X56636517Y-29430742D01*
X56636517Y-29430742D02*
X56598421Y-29354552D01*
X56598421Y-29354552D02*
X56560326Y-29316457D01*
X56560326Y-29316457D02*
X56484136Y-29278361D01*
X56484136Y-29278361D02*
X56369850Y-29278361D01*
X56369850Y-29278361D02*
X56293659Y-29316457D01*
X56293659Y-29316457D02*
X56255564Y-29354552D01*
X56255564Y-29354552D02*
X56217469Y-29430742D01*
X56217469Y-29430742D02*
X56217469Y-29659314D01*
X56217469Y-29659314D02*
X56255564Y-29735504D01*
X56255564Y-29735504D02*
X56293659Y-29773600D01*
X56293659Y-29773600D02*
X56369850Y-29811695D01*
X56369850Y-29811695D02*
X56484136Y-29811695D01*
X55265087Y-29811695D02*
X55265087Y-29011695D01*
X55265087Y-29011695D02*
X54998421Y-29583123D01*
X54998421Y-29583123D02*
X54731754Y-29011695D01*
X54731754Y-29011695D02*
X54731754Y-29811695D01*
X54007944Y-29811695D02*
X54007944Y-29392647D01*
X54007944Y-29392647D02*
X54046039Y-29316457D01*
X54046039Y-29316457D02*
X54122230Y-29278361D01*
X54122230Y-29278361D02*
X54274611Y-29278361D01*
X54274611Y-29278361D02*
X54350801Y-29316457D01*
X54007944Y-29773600D02*
X54084135Y-29811695D01*
X54084135Y-29811695D02*
X54274611Y-29811695D01*
X54274611Y-29811695D02*
X54350801Y-29773600D01*
X54350801Y-29773600D02*
X54388897Y-29697409D01*
X54388897Y-29697409D02*
X54388897Y-29621219D01*
X54388897Y-29621219D02*
X54350801Y-29545028D01*
X54350801Y-29545028D02*
X54274611Y-29506933D01*
X54274611Y-29506933D02*
X54084135Y-29506933D01*
X54084135Y-29506933D02*
X54007944Y-29468838D01*
X53703182Y-29811695D02*
X53284134Y-29278361D01*
X53703182Y-29278361D02*
X53284134Y-29811695D01*
X52369848Y-29506933D02*
X51760325Y-29506933D01*
X50846039Y-29011695D02*
X50312705Y-29011695D01*
X50312705Y-29011695D02*
X50846039Y-29811695D01*
X50846039Y-29811695D02*
X50312705Y-29811695D01*
X49703181Y-29773600D02*
X49779372Y-29811695D01*
X49779372Y-29811695D02*
X49931753Y-29811695D01*
X49931753Y-29811695D02*
X50007943Y-29773600D01*
X50007943Y-29773600D02*
X50046039Y-29697409D01*
X50046039Y-29697409D02*
X50046039Y-29392647D01*
X50046039Y-29392647D02*
X50007943Y-29316457D01*
X50007943Y-29316457D02*
X49931753Y-29278361D01*
X49931753Y-29278361D02*
X49779372Y-29278361D01*
X49779372Y-29278361D02*
X49703181Y-29316457D01*
X49703181Y-29316457D02*
X49665086Y-29392647D01*
X49665086Y-29392647D02*
X49665086Y-29468838D01*
X49665086Y-29468838D02*
X50046039Y-29545028D01*
X49322229Y-29811695D02*
X49322229Y-29278361D01*
X49322229Y-29430742D02*
X49284134Y-29354552D01*
X49284134Y-29354552D02*
X49246039Y-29316457D01*
X49246039Y-29316457D02*
X49169848Y-29278361D01*
X49169848Y-29278361D02*
X49093658Y-29278361D01*
X48712706Y-29811695D02*
X48788896Y-29773600D01*
X48788896Y-29773600D02*
X48826991Y-29735504D01*
X48826991Y-29735504D02*
X48865087Y-29659314D01*
X48865087Y-29659314D02*
X48865087Y-29430742D01*
X48865087Y-29430742D02*
X48826991Y-29354552D01*
X48826991Y-29354552D02*
X48788896Y-29316457D01*
X48788896Y-29316457D02*
X48712706Y-29278361D01*
X48712706Y-29278361D02*
X48598420Y-29278361D01*
X48598420Y-29278361D02*
X48522229Y-29316457D01*
X48522229Y-29316457D02*
X48484134Y-29354552D01*
X48484134Y-29354552D02*
X48446039Y-29430742D01*
X48446039Y-29430742D02*
X48446039Y-29659314D01*
X48446039Y-29659314D02*
X48484134Y-29735504D01*
X48484134Y-29735504D02*
X48522229Y-29773600D01*
X48522229Y-29773600D02*
X48598420Y-29811695D01*
X48598420Y-29811695D02*
X48712706Y-29811695D01*
X47531753Y-29583123D02*
X47150800Y-29583123D01*
X47607943Y-29811695D02*
X47341276Y-29011695D01*
X47341276Y-29011695D02*
X47074610Y-29811695D01*
X46465086Y-29811695D02*
X46465086Y-29011695D01*
X46465086Y-29773600D02*
X46541277Y-29811695D01*
X46541277Y-29811695D02*
X46693658Y-29811695D01*
X46693658Y-29811695D02*
X46769848Y-29773600D01*
X46769848Y-29773600D02*
X46807943Y-29735504D01*
X46807943Y-29735504D02*
X46846039Y-29659314D01*
X46846039Y-29659314D02*
X46846039Y-29430742D01*
X46846039Y-29430742D02*
X46807943Y-29354552D01*
X46807943Y-29354552D02*
X46769848Y-29316457D01*
X46769848Y-29316457D02*
X46693658Y-29278361D01*
X46693658Y-29278361D02*
X46541277Y-29278361D01*
X46541277Y-29278361D02*
X46465086Y-29316457D01*
X45741276Y-29811695D02*
X45741276Y-29392647D01*
X45741276Y-29392647D02*
X45779371Y-29316457D01*
X45779371Y-29316457D02*
X45855562Y-29278361D01*
X45855562Y-29278361D02*
X46007943Y-29278361D01*
X46007943Y-29278361D02*
X46084133Y-29316457D01*
X45741276Y-29773600D02*
X45817467Y-29811695D01*
X45817467Y-29811695D02*
X46007943Y-29811695D01*
X46007943Y-29811695D02*
X46084133Y-29773600D01*
X46084133Y-29773600D02*
X46122229Y-29697409D01*
X46122229Y-29697409D02*
X46122229Y-29621219D01*
X46122229Y-29621219D02*
X46084133Y-29545028D01*
X46084133Y-29545028D02*
X46007943Y-29506933D01*
X46007943Y-29506933D02*
X45817467Y-29506933D01*
X45817467Y-29506933D02*
X45741276Y-29468838D01*
X45360323Y-29278361D02*
X45360323Y-30078361D01*
X45360323Y-29316457D02*
X45284133Y-29278361D01*
X45284133Y-29278361D02*
X45131752Y-29278361D01*
X45131752Y-29278361D02*
X45055561Y-29316457D01*
X45055561Y-29316457D02*
X45017466Y-29354552D01*
X45017466Y-29354552D02*
X44979371Y-29430742D01*
X44979371Y-29430742D02*
X44979371Y-29659314D01*
X44979371Y-29659314D02*
X45017466Y-29735504D01*
X45017466Y-29735504D02*
X45055561Y-29773600D01*
X45055561Y-29773600D02*
X45131752Y-29811695D01*
X45131752Y-29811695D02*
X45284133Y-29811695D01*
X45284133Y-29811695D02*
X45360323Y-29773600D01*
X44750799Y-29278361D02*
X44446037Y-29278361D01*
X44636513Y-29011695D02*
X44636513Y-29697409D01*
X44636513Y-29697409D02*
X44598418Y-29773600D01*
X44598418Y-29773600D02*
X44522228Y-29811695D01*
X44522228Y-29811695D02*
X44446037Y-29811695D01*
X44065085Y-29811695D02*
X44141275Y-29773600D01*
X44141275Y-29773600D02*
X44179370Y-29735504D01*
X44179370Y-29735504D02*
X44217466Y-29659314D01*
X44217466Y-29659314D02*
X44217466Y-29430742D01*
X44217466Y-29430742D02*
X44179370Y-29354552D01*
X44179370Y-29354552D02*
X44141275Y-29316457D01*
X44141275Y-29316457D02*
X44065085Y-29278361D01*
X44065085Y-29278361D02*
X43950799Y-29278361D01*
X43950799Y-29278361D02*
X43874608Y-29316457D01*
X43874608Y-29316457D02*
X43836513Y-29354552D01*
X43836513Y-29354552D02*
X43798418Y-29430742D01*
X43798418Y-29430742D02*
X43798418Y-29659314D01*
X43798418Y-29659314D02*
X43836513Y-29735504D01*
X43836513Y-29735504D02*
X43874608Y-29773600D01*
X43874608Y-29773600D02*
X43950799Y-29811695D01*
X43950799Y-29811695D02*
X44065085Y-29811695D01*
X43455560Y-29811695D02*
X43455560Y-29278361D01*
X43455560Y-29430742D02*
X43417465Y-29354552D01*
X43417465Y-29354552D02*
X43379370Y-29316457D01*
X43379370Y-29316457D02*
X43303179Y-29278361D01*
X43303179Y-29278361D02*
X43226989Y-29278361D01*
X42922227Y-29773600D02*
X42922227Y-29811695D01*
X42922227Y-29811695D02*
X42960322Y-29887885D01*
X42960322Y-29887885D02*
X42998418Y-29925980D01*
X42007942Y-29773600D02*
X41893656Y-29811695D01*
X41893656Y-29811695D02*
X41703180Y-29811695D01*
X41703180Y-29811695D02*
X41626989Y-29773600D01*
X41626989Y-29773600D02*
X41588894Y-29735504D01*
X41588894Y-29735504D02*
X41550799Y-29659314D01*
X41550799Y-29659314D02*
X41550799Y-29583123D01*
X41550799Y-29583123D02*
X41588894Y-29506933D01*
X41588894Y-29506933D02*
X41626989Y-29468838D01*
X41626989Y-29468838D02*
X41703180Y-29430742D01*
X41703180Y-29430742D02*
X41855561Y-29392647D01*
X41855561Y-29392647D02*
X41931751Y-29354552D01*
X41931751Y-29354552D02*
X41969846Y-29316457D01*
X41969846Y-29316457D02*
X42007942Y-29240266D01*
X42007942Y-29240266D02*
X42007942Y-29164076D01*
X42007942Y-29164076D02*
X41969846Y-29087885D01*
X41969846Y-29087885D02*
X41931751Y-29049790D01*
X41931751Y-29049790D02*
X41855561Y-29011695D01*
X41855561Y-29011695D02*
X41665084Y-29011695D01*
X41665084Y-29011695D02*
X41550799Y-29049790D01*
X41322227Y-29278361D02*
X41017465Y-29278361D01*
X41207941Y-29011695D02*
X41207941Y-29697409D01*
X41207941Y-29697409D02*
X41169846Y-29773600D01*
X41169846Y-29773600D02*
X41093656Y-29811695D01*
X41093656Y-29811695D02*
X41017465Y-29811695D01*
X40446036Y-29773600D02*
X40522227Y-29811695D01*
X40522227Y-29811695D02*
X40674608Y-29811695D01*
X40674608Y-29811695D02*
X40750798Y-29773600D01*
X40750798Y-29773600D02*
X40788894Y-29697409D01*
X40788894Y-29697409D02*
X40788894Y-29392647D01*
X40788894Y-29392647D02*
X40750798Y-29316457D01*
X40750798Y-29316457D02*
X40674608Y-29278361D01*
X40674608Y-29278361D02*
X40522227Y-29278361D01*
X40522227Y-29278361D02*
X40446036Y-29316457D01*
X40446036Y-29316457D02*
X40407941Y-29392647D01*
X40407941Y-29392647D02*
X40407941Y-29468838D01*
X40407941Y-29468838D02*
X40788894Y-29545028D01*
X40065084Y-29278361D02*
X40065084Y-30078361D01*
X40065084Y-29316457D02*
X39988894Y-29278361D01*
X39988894Y-29278361D02*
X39836513Y-29278361D01*
X39836513Y-29278361D02*
X39760322Y-29316457D01*
X39760322Y-29316457D02*
X39722227Y-29354552D01*
X39722227Y-29354552D02*
X39684132Y-29430742D01*
X39684132Y-29430742D02*
X39684132Y-29659314D01*
X39684132Y-29659314D02*
X39722227Y-29735504D01*
X39722227Y-29735504D02*
X39760322Y-29773600D01*
X39760322Y-29773600D02*
X39836513Y-29811695D01*
X39836513Y-29811695D02*
X39988894Y-29811695D01*
X39988894Y-29811695D02*
X40065084Y-29773600D01*
X39341274Y-29811695D02*
X39341274Y-29011695D01*
X38998417Y-29811695D02*
X38998417Y-29392647D01*
X38998417Y-29392647D02*
X39036512Y-29316457D01*
X39036512Y-29316457D02*
X39112703Y-29278361D01*
X39112703Y-29278361D02*
X39226989Y-29278361D01*
X39226989Y-29278361D02*
X39303179Y-29316457D01*
X39303179Y-29316457D02*
X39341274Y-29354552D01*
X38312702Y-29773600D02*
X38388893Y-29811695D01*
X38388893Y-29811695D02*
X38541274Y-29811695D01*
X38541274Y-29811695D02*
X38617464Y-29773600D01*
X38617464Y-29773600D02*
X38655560Y-29697409D01*
X38655560Y-29697409D02*
X38655560Y-29392647D01*
X38655560Y-29392647D02*
X38617464Y-29316457D01*
X38617464Y-29316457D02*
X38541274Y-29278361D01*
X38541274Y-29278361D02*
X38388893Y-29278361D01*
X38388893Y-29278361D02*
X38312702Y-29316457D01*
X38312702Y-29316457D02*
X38274607Y-29392647D01*
X38274607Y-29392647D02*
X38274607Y-29468838D01*
X38274607Y-29468838D02*
X38655560Y-29545028D01*
X37931750Y-29278361D02*
X37931750Y-29811695D01*
X37931750Y-29354552D02*
X37893655Y-29316457D01*
X37893655Y-29316457D02*
X37817465Y-29278361D01*
X37817465Y-29278361D02*
X37703179Y-29278361D01*
X37703179Y-29278361D02*
X37626988Y-29316457D01*
X37626988Y-29316457D02*
X37588893Y-29392647D01*
X37588893Y-29392647D02*
X37588893Y-29811695D01*
X36141273Y-29811695D02*
X36407940Y-29430742D01*
X36598416Y-29811695D02*
X36598416Y-29011695D01*
X36598416Y-29011695D02*
X36293654Y-29011695D01*
X36293654Y-29011695D02*
X36217464Y-29049790D01*
X36217464Y-29049790D02*
X36179369Y-29087885D01*
X36179369Y-29087885D02*
X36141273Y-29164076D01*
X36141273Y-29164076D02*
X36141273Y-29278361D01*
X36141273Y-29278361D02*
X36179369Y-29354552D01*
X36179369Y-29354552D02*
X36217464Y-29392647D01*
X36217464Y-29392647D02*
X36293654Y-29430742D01*
X36293654Y-29430742D02*
X36598416Y-29430742D01*
X35684131Y-29811695D02*
X35760321Y-29773600D01*
X35760321Y-29773600D02*
X35798416Y-29735504D01*
X35798416Y-29735504D02*
X35836512Y-29659314D01*
X35836512Y-29659314D02*
X35836512Y-29430742D01*
X35836512Y-29430742D02*
X35798416Y-29354552D01*
X35798416Y-29354552D02*
X35760321Y-29316457D01*
X35760321Y-29316457D02*
X35684131Y-29278361D01*
X35684131Y-29278361D02*
X35569845Y-29278361D01*
X35569845Y-29278361D02*
X35493654Y-29316457D01*
X35493654Y-29316457D02*
X35455559Y-29354552D01*
X35455559Y-29354552D02*
X35417464Y-29430742D01*
X35417464Y-29430742D02*
X35417464Y-29659314D01*
X35417464Y-29659314D02*
X35455559Y-29735504D01*
X35455559Y-29735504D02*
X35493654Y-29773600D01*
X35493654Y-29773600D02*
X35569845Y-29811695D01*
X35569845Y-29811695D02*
X35684131Y-29811695D01*
X35188892Y-29278361D02*
X34884130Y-29278361D01*
X35074606Y-29011695D02*
X35074606Y-29697409D01*
X35074606Y-29697409D02*
X35036511Y-29773600D01*
X35036511Y-29773600D02*
X34960321Y-29811695D01*
X34960321Y-29811695D02*
X34884130Y-29811695D01*
X34617463Y-29811695D02*
X34617463Y-29011695D01*
X34274606Y-29811695D02*
X34274606Y-29392647D01*
X34274606Y-29392647D02*
X34312701Y-29316457D01*
X34312701Y-29316457D02*
X34388892Y-29278361D01*
X34388892Y-29278361D02*
X34503178Y-29278361D01*
X34503178Y-29278361D02*
X34579368Y-29316457D01*
X34579368Y-29316457D02*
X34617463Y-29354552D01*
X33588891Y-29773600D02*
X33665082Y-29811695D01*
X33665082Y-29811695D02*
X33817463Y-29811695D01*
X33817463Y-29811695D02*
X33893653Y-29773600D01*
X33893653Y-29773600D02*
X33931749Y-29697409D01*
X33931749Y-29697409D02*
X33931749Y-29392647D01*
X33931749Y-29392647D02*
X33893653Y-29316457D01*
X33893653Y-29316457D02*
X33817463Y-29278361D01*
X33817463Y-29278361D02*
X33665082Y-29278361D01*
X33665082Y-29278361D02*
X33588891Y-29316457D01*
X33588891Y-29316457D02*
X33550796Y-29392647D01*
X33550796Y-29392647D02*
X33550796Y-29468838D01*
X33550796Y-29468838D02*
X33931749Y-29545028D01*
X33207939Y-29811695D02*
X33207939Y-29278361D01*
X33207939Y-29430742D02*
X33169844Y-29354552D01*
X33169844Y-29354552D02*
X33131749Y-29316457D01*
X33131749Y-29316457D02*
X33055558Y-29278361D01*
X33055558Y-29278361D02*
X32979368Y-29278361D01*
X32788892Y-29278361D02*
X32598416Y-29811695D01*
X32407939Y-29278361D02*
X32598416Y-29811695D01*
X32598416Y-29811695D02*
X32674606Y-30002171D01*
X32674606Y-30002171D02*
X32712701Y-30040266D01*
X32712701Y-30040266D02*
X32788892Y-30078361D01*
X31493653Y-29506933D02*
X30884130Y-29506933D01*
X31188891Y-29811695D02*
X31188891Y-29202171D01*
X29512701Y-29811695D02*
X29893653Y-29811695D01*
X29893653Y-29811695D02*
X29893653Y-29011695D01*
X29246034Y-29811695D02*
X29246034Y-29278361D01*
X29246034Y-29011695D02*
X29284130Y-29049790D01*
X29284130Y-29049790D02*
X29246034Y-29087885D01*
X29246034Y-29087885D02*
X29207939Y-29049790D01*
X29207939Y-29049790D02*
X29246034Y-29011695D01*
X29246034Y-29011695D02*
X29246034Y-29087885D01*
X28522225Y-29278361D02*
X28522225Y-29925980D01*
X28522225Y-29925980D02*
X28560320Y-30002171D01*
X28560320Y-30002171D02*
X28598416Y-30040266D01*
X28598416Y-30040266D02*
X28674606Y-30078361D01*
X28674606Y-30078361D02*
X28788892Y-30078361D01*
X28788892Y-30078361D02*
X28865082Y-30040266D01*
X28522225Y-29773600D02*
X28598416Y-29811695D01*
X28598416Y-29811695D02*
X28750797Y-29811695D01*
X28750797Y-29811695D02*
X28826987Y-29773600D01*
X28826987Y-29773600D02*
X28865082Y-29735504D01*
X28865082Y-29735504D02*
X28903178Y-29659314D01*
X28903178Y-29659314D02*
X28903178Y-29430742D01*
X28903178Y-29430742D02*
X28865082Y-29354552D01*
X28865082Y-29354552D02*
X28826987Y-29316457D01*
X28826987Y-29316457D02*
X28750797Y-29278361D01*
X28750797Y-29278361D02*
X28598416Y-29278361D01*
X28598416Y-29278361D02*
X28522225Y-29316457D01*
X28141272Y-29811695D02*
X28141272Y-29011695D01*
X27798415Y-29811695D02*
X27798415Y-29392647D01*
X27798415Y-29392647D02*
X27836510Y-29316457D01*
X27836510Y-29316457D02*
X27912701Y-29278361D01*
X27912701Y-29278361D02*
X28026987Y-29278361D01*
X28026987Y-29278361D02*
X28103177Y-29316457D01*
X28103177Y-29316457D02*
X28141272Y-29354552D01*
X27531748Y-29278361D02*
X27226986Y-29278361D01*
X27417462Y-29011695D02*
X27417462Y-29697409D01*
X27417462Y-29697409D02*
X27379367Y-29773600D01*
X27379367Y-29773600D02*
X27303177Y-29811695D01*
X27303177Y-29811695D02*
X27226986Y-29811695D01*
X26960319Y-29278361D02*
X26960319Y-29811695D01*
X26960319Y-29354552D02*
X26922224Y-29316457D01*
X26922224Y-29316457D02*
X26846034Y-29278361D01*
X26846034Y-29278361D02*
X26731748Y-29278361D01*
X26731748Y-29278361D02*
X26655557Y-29316457D01*
X26655557Y-29316457D02*
X26617462Y-29392647D01*
X26617462Y-29392647D02*
X26617462Y-29811695D01*
X26236509Y-29811695D02*
X26236509Y-29278361D01*
X26236509Y-29011695D02*
X26274605Y-29049790D01*
X26274605Y-29049790D02*
X26236509Y-29087885D01*
X26236509Y-29087885D02*
X26198414Y-29049790D01*
X26198414Y-29049790D02*
X26236509Y-29011695D01*
X26236509Y-29011695D02*
X26236509Y-29087885D01*
X25855557Y-29278361D02*
X25855557Y-29811695D01*
X25855557Y-29354552D02*
X25817462Y-29316457D01*
X25817462Y-29316457D02*
X25741272Y-29278361D01*
X25741272Y-29278361D02*
X25626986Y-29278361D01*
X25626986Y-29278361D02*
X25550795Y-29316457D01*
X25550795Y-29316457D02*
X25512700Y-29392647D01*
X25512700Y-29392647D02*
X25512700Y-29811695D01*
X24788890Y-29278361D02*
X24788890Y-29925980D01*
X24788890Y-29925980D02*
X24826985Y-30002171D01*
X24826985Y-30002171D02*
X24865081Y-30040266D01*
X24865081Y-30040266D02*
X24941271Y-30078361D01*
X24941271Y-30078361D02*
X25055557Y-30078361D01*
X25055557Y-30078361D02*
X25131747Y-30040266D01*
X24788890Y-29773600D02*
X24865081Y-29811695D01*
X24865081Y-29811695D02*
X25017462Y-29811695D01*
X25017462Y-29811695D02*
X25093652Y-29773600D01*
X25093652Y-29773600D02*
X25131747Y-29735504D01*
X25131747Y-29735504D02*
X25169843Y-29659314D01*
X25169843Y-29659314D02*
X25169843Y-29430742D01*
X25169843Y-29430742D02*
X25131747Y-29354552D01*
X25131747Y-29354552D02*
X25093652Y-29316457D01*
X25093652Y-29316457D02*
X25017462Y-29278361D01*
X25017462Y-29278361D02*
X24865081Y-29278361D01*
X24865081Y-29278361D02*
X24788890Y-29316457D01*
X24446033Y-29773600D02*
X24369842Y-29811695D01*
X24369842Y-29811695D02*
X24217461Y-29811695D01*
X24217461Y-29811695D02*
X24141271Y-29773600D01*
X24141271Y-29773600D02*
X24103175Y-29697409D01*
X24103175Y-29697409D02*
X24103175Y-29659314D01*
X24103175Y-29659314D02*
X24141271Y-29583123D01*
X24141271Y-29583123D02*
X24217461Y-29545028D01*
X24217461Y-29545028D02*
X24331747Y-29545028D01*
X24331747Y-29545028D02*
X24407937Y-29506933D01*
X24407937Y-29506933D02*
X24446033Y-29430742D01*
X24446033Y-29430742D02*
X24446033Y-29392647D01*
X24446033Y-29392647D02*
X24407937Y-29316457D01*
X24407937Y-29316457D02*
X24331747Y-29278361D01*
X24331747Y-29278361D02*
X24217461Y-29278361D01*
X24217461Y-29278361D02*
X24141271Y-29316457D01*
X23760318Y-29278361D02*
X23760318Y-30078361D01*
X23760318Y-29316457D02*
X23684128Y-29278361D01*
X23684128Y-29278361D02*
X23531747Y-29278361D01*
X23531747Y-29278361D02*
X23455556Y-29316457D01*
X23455556Y-29316457D02*
X23417461Y-29354552D01*
X23417461Y-29354552D02*
X23379366Y-29430742D01*
X23379366Y-29430742D02*
X23379366Y-29659314D01*
X23379366Y-29659314D02*
X23417461Y-29735504D01*
X23417461Y-29735504D02*
X23455556Y-29773600D01*
X23455556Y-29773600D02*
X23531747Y-29811695D01*
X23531747Y-29811695D02*
X23684128Y-29811695D01*
X23684128Y-29811695D02*
X23760318Y-29773600D01*
X22922223Y-29811695D02*
X22998413Y-29773600D01*
X22998413Y-29773600D02*
X23036508Y-29735504D01*
X23036508Y-29735504D02*
X23074604Y-29659314D01*
X23074604Y-29659314D02*
X23074604Y-29430742D01*
X23074604Y-29430742D02*
X23036508Y-29354552D01*
X23036508Y-29354552D02*
X22998413Y-29316457D01*
X22998413Y-29316457D02*
X22922223Y-29278361D01*
X22922223Y-29278361D02*
X22807937Y-29278361D01*
X22807937Y-29278361D02*
X22731746Y-29316457D01*
X22731746Y-29316457D02*
X22693651Y-29354552D01*
X22693651Y-29354552D02*
X22655556Y-29430742D01*
X22655556Y-29430742D02*
X22655556Y-29659314D01*
X22655556Y-29659314D02*
X22693651Y-29735504D01*
X22693651Y-29735504D02*
X22731746Y-29773600D01*
X22731746Y-29773600D02*
X22807937Y-29811695D01*
X22807937Y-29811695D02*
X22922223Y-29811695D01*
X22312698Y-29811695D02*
X22312698Y-29278361D01*
X22312698Y-29430742D02*
X22274603Y-29354552D01*
X22274603Y-29354552D02*
X22236508Y-29316457D01*
X22236508Y-29316457D02*
X22160317Y-29278361D01*
X22160317Y-29278361D02*
X22084127Y-29278361D01*
X21512698Y-29773600D02*
X21588889Y-29811695D01*
X21588889Y-29811695D02*
X21741270Y-29811695D01*
X21741270Y-29811695D02*
X21817460Y-29773600D01*
X21817460Y-29773600D02*
X21855556Y-29697409D01*
X21855556Y-29697409D02*
X21855556Y-29392647D01*
X21855556Y-29392647D02*
X21817460Y-29316457D01*
X21817460Y-29316457D02*
X21741270Y-29278361D01*
X21741270Y-29278361D02*
X21588889Y-29278361D01*
X21588889Y-29278361D02*
X21512698Y-29316457D01*
X21512698Y-29316457D02*
X21474603Y-29392647D01*
X21474603Y-29392647D02*
X21474603Y-29468838D01*
X21474603Y-29468838D02*
X21855556Y-29545028D01*
X21093651Y-29773600D02*
X21093651Y-29811695D01*
X21093651Y-29811695D02*
X21131746Y-29887885D01*
X21131746Y-29887885D02*
X21169842Y-29925980D01*
X20217461Y-29278361D02*
X20026985Y-29811695D01*
X20026985Y-29811695D02*
X19836508Y-29278361D01*
X19112699Y-29811695D02*
X19569842Y-29811695D01*
X19341270Y-29811695D02*
X19341270Y-29011695D01*
X19341270Y-29011695D02*
X19417461Y-29125980D01*
X19417461Y-29125980D02*
X19493651Y-29202171D01*
X19493651Y-29202171D02*
X19569842Y-29240266D01*
X18769841Y-29735504D02*
X18731746Y-29773600D01*
X18731746Y-29773600D02*
X18769841Y-29811695D01*
X18769841Y-29811695D02*
X18807937Y-29773600D01*
X18807937Y-29773600D02*
X18769841Y-29735504D01*
X18769841Y-29735504D02*
X18769841Y-29811695D01*
X18236508Y-29011695D02*
X18160318Y-29011695D01*
X18160318Y-29011695D02*
X18084127Y-29049790D01*
X18084127Y-29049790D02*
X18046032Y-29087885D01*
X18046032Y-29087885D02*
X18007937Y-29164076D01*
X18007937Y-29164076D02*
X17969842Y-29316457D01*
X17969842Y-29316457D02*
X17969842Y-29506933D01*
X17969842Y-29506933D02*
X18007937Y-29659314D01*
X18007937Y-29659314D02*
X18046032Y-29735504D01*
X18046032Y-29735504D02*
X18084127Y-29773600D01*
X18084127Y-29773600D02*
X18160318Y-29811695D01*
X18160318Y-29811695D02*
X18236508Y-29811695D01*
X18236508Y-29811695D02*
X18312699Y-29773600D01*
X18312699Y-29773600D02*
X18350794Y-29735504D01*
X18350794Y-29735504D02*
X18388889Y-29659314D01*
X18388889Y-29659314D02*
X18426985Y-29506933D01*
X18426985Y-29506933D02*
X18426985Y-29316457D01*
X18426985Y-29316457D02*
X18388889Y-29164076D01*
X18388889Y-29164076D02*
X18350794Y-29087885D01*
X18350794Y-29087885D02*
X18312699Y-29049790D01*
X18312699Y-29049790D02*
X18236508Y-29011695D01*
X17626984Y-29735504D02*
X17588889Y-29773600D01*
X17588889Y-29773600D02*
X17626984Y-29811695D01*
X17626984Y-29811695D02*
X17665080Y-29773600D01*
X17665080Y-29773600D02*
X17626984Y-29735504D01*
X17626984Y-29735504D02*
X17626984Y-29811695D01*
X16826985Y-29811695D02*
X17284128Y-29811695D01*
X17055556Y-29811695D02*
X17055556Y-29011695D01*
X17055556Y-29011695D02*
X17131747Y-29125980D01*
X17131747Y-29125980D02*
X17207937Y-29202171D01*
X17207937Y-29202171D02*
X17284128Y-29240266D01*
X18022054Y-50286259D02*
X18022054Y-51086259D01*
X18022054Y-51086259D02*
X18326816Y-51086259D01*
X18326816Y-51086259D02*
X18403006Y-51048164D01*
X18403006Y-51048164D02*
X18441101Y-51010069D01*
X18441101Y-51010069D02*
X18479197Y-50933878D01*
X18479197Y-50933878D02*
X18479197Y-50819593D01*
X18479197Y-50819593D02*
X18441101Y-50743402D01*
X18441101Y-50743402D02*
X18403006Y-50705307D01*
X18403006Y-50705307D02*
X18326816Y-50667212D01*
X18326816Y-50667212D02*
X18022054Y-50667212D01*
X18822054Y-50286259D02*
X18822054Y-50819593D01*
X18822054Y-51086259D02*
X18783958Y-51048164D01*
X18783958Y-51048164D02*
X18822054Y-51010069D01*
X18822054Y-51010069D02*
X18860149Y-51048164D01*
X18860149Y-51048164D02*
X18822054Y-51086259D01*
X18822054Y-51086259D02*
X18822054Y-51010069D01*
X19545863Y-50324355D02*
X19469672Y-50286259D01*
X19469672Y-50286259D02*
X19317291Y-50286259D01*
X19317291Y-50286259D02*
X19241101Y-50324355D01*
X19241101Y-50324355D02*
X19203006Y-50362450D01*
X19203006Y-50362450D02*
X19164910Y-50438640D01*
X19164910Y-50438640D02*
X19164910Y-50667212D01*
X19164910Y-50667212D02*
X19203006Y-50743402D01*
X19203006Y-50743402D02*
X19241101Y-50781497D01*
X19241101Y-50781497D02*
X19317291Y-50819593D01*
X19317291Y-50819593D02*
X19469672Y-50819593D01*
X19469672Y-50819593D02*
X19545863Y-50781497D01*
X20003005Y-50286259D02*
X19926815Y-50324355D01*
X19926815Y-50324355D02*
X19888720Y-50362450D01*
X19888720Y-50362450D02*
X19850624Y-50438640D01*
X19850624Y-50438640D02*
X19850624Y-50667212D01*
X19850624Y-50667212D02*
X19888720Y-50743402D01*
X19888720Y-50743402D02*
X19926815Y-50781497D01*
X19926815Y-50781497D02*
X20003005Y-50819593D01*
X20003005Y-50819593D02*
X20117291Y-50819593D01*
X20117291Y-50819593D02*
X20193482Y-50781497D01*
X20193482Y-50781497D02*
X20231577Y-50743402D01*
X20231577Y-50743402D02*
X20269672Y-50667212D01*
X20269672Y-50667212D02*
X20269672Y-50438640D01*
X20269672Y-50438640D02*
X20231577Y-50362450D01*
X20231577Y-50362450D02*
X20193482Y-50324355D01*
X20193482Y-50324355D02*
X20117291Y-50286259D01*
X20117291Y-50286259D02*
X20003005Y-50286259D01*
X18022054Y-48998304D02*
X18022054Y-49798304D01*
X18022054Y-49798304D02*
X18326816Y-49798304D01*
X18326816Y-49798304D02*
X18403006Y-49760209D01*
X18403006Y-49760209D02*
X18441101Y-49722114D01*
X18441101Y-49722114D02*
X18479197Y-49645923D01*
X18479197Y-49645923D02*
X18479197Y-49531638D01*
X18479197Y-49531638D02*
X18441101Y-49455447D01*
X18441101Y-49455447D02*
X18403006Y-49417352D01*
X18403006Y-49417352D02*
X18326816Y-49379257D01*
X18326816Y-49379257D02*
X18022054Y-49379257D01*
X18822054Y-48998304D02*
X18822054Y-49798304D01*
X19203006Y-48998304D02*
X19203006Y-49798304D01*
X19203006Y-49798304D02*
X19660149Y-48998304D01*
X19660149Y-48998304D02*
X19660149Y-49798304D01*
X21069672Y-48998304D02*
X20612529Y-48998304D01*
X20841101Y-48998304D02*
X20841101Y-49798304D01*
X20841101Y-49798304D02*
X20764910Y-49684019D01*
X20764910Y-49684019D02*
X20688720Y-49607828D01*
X20688720Y-49607828D02*
X20612529Y-49569733D01*
%LPC*%
D12*
%TO.C,U3*%
X23990000Y-49740000D03*
X26530000Y-49740000D03*
X29070000Y-49740000D03*
X31610000Y-49740000D03*
X34150000Y-49740000D03*
X36690000Y-49740000D03*
X39230000Y-49740000D03*
X41770000Y-49740000D03*
X44310000Y-49740000D03*
X46850000Y-49740000D03*
X49390000Y-49740000D03*
X51930000Y-49740000D03*
X54470000Y-49740000D03*
X57010000Y-49740000D03*
X59550000Y-49740000D03*
X62090000Y-49740000D03*
X64630000Y-49740000D03*
X67170000Y-49740000D03*
X69710000Y-49740000D03*
X72250000Y-49740000D03*
X72250000Y-31960000D03*
X69710000Y-31960000D03*
X67170000Y-31960000D03*
X64630000Y-31960000D03*
X62090000Y-31960000D03*
X59550000Y-31960000D03*
X57010000Y-31960000D03*
X54470000Y-31960000D03*
X51930000Y-31960000D03*
X49390000Y-31960000D03*
X46850000Y-31960000D03*
X44310000Y-31960000D03*
X41770000Y-31960000D03*
X39230000Y-31960000D03*
X36690000Y-31960000D03*
X34150000Y-31960000D03*
X31610000Y-31960000D03*
X29070000Y-31960000D03*
D13*
X29070000Y-30740000D03*
D12*
X26530000Y-31960000D03*
X23990000Y-31960000D03*
%TD*%
D14*
%TO.C,U2*%
X70000000Y-55500000D03*
X12000000Y-55500000D03*
D15*
X65240000Y-52960000D03*
D16*
X65240000Y-55500000D03*
X62700000Y-52960000D03*
X62700000Y-55500000D03*
X60160000Y-52960000D03*
X60160000Y-55500000D03*
X57620000Y-52960000D03*
X57620000Y-55500000D03*
X55080000Y-52960000D03*
X55080000Y-55500000D03*
X52540000Y-52960000D03*
X52540000Y-55500000D03*
X50000000Y-52960000D03*
X50000000Y-55500000D03*
X47460000Y-52960000D03*
X47460000Y-55500000D03*
X44920000Y-52960000D03*
X44920000Y-55500000D03*
X42380000Y-52960000D03*
X42380000Y-55500000D03*
X39840000Y-52960000D03*
X39840000Y-55500000D03*
X37300000Y-52960000D03*
X37300000Y-55500000D03*
X34760000Y-52960000D03*
X34760000Y-55500000D03*
X32220000Y-52960000D03*
X32220000Y-55500000D03*
X29680000Y-52960000D03*
X29680000Y-55500000D03*
X27140000Y-52960000D03*
X27140000Y-55500000D03*
X24600000Y-52960000D03*
X24600000Y-55500000D03*
X22060000Y-52960000D03*
X22060000Y-55500000D03*
X19520000Y-52960000D03*
X19520000Y-55500000D03*
X16980000Y-52960000D03*
X16980000Y-55500000D03*
%TD*%
%LPD*%
M02*
